<?xml version="1.0" encoding="utf-8"?>
<!-- Generator: Adobe Illustrator 16.0.0, SVG Export Plug-In . SVG Version: 6.00 Build 0)  -->
<!DOCTYPE svg PUBLIC "-//W3C//DTD SVG 1.1//EN" "http://www.w3.org/Graphics/SVG/1.1/DTD/svg11.dtd">
<svg version="1.1" id="Layer_1" xmlns="http://www.w3.org/2000/svg" xmlns:xlink="http://www.w3.org/1999/xlink" x="0px" y="0px"
	 width="200px" height="200px" viewBox="0 0 200 200" enable-background="new 0 0 200 200" xml:space="preserve">
<rect display="none" fill-rule="evenodd" clip-rule="evenodd" fill="#231F20" width="200" height="200"/>
<g>
	<path fill-rule="evenodd" clip-rule="evenodd" fill="#F6A821" d="M175.199,137.645c-11.067,3.615-20.921,2.482-29.203-4.853
		c-8.034-7.121-15.365-15.036-23.019-22.589c-4.777-4.711-9.445-9.543-14.405-14.051c-5.773-5.248-14.875-5.781-21.375-1.617
		c-7.062,4.526-10.314,12.876-8.11,20.827c2.082,7.506,9.168,13.064,16.82,13.44c5.845,0.285,10.563-1.965,14.622-5.918
		c2.749-2.677,5.529-5.328,8.106-8.165c1.402-1.541,2.115-1.305,3.507,0.087c1.872,1.872,5.08,3.749,5.08,5.844
		c0,0.892-3.201,3.862-5.011,5.774c-5.068,5.356-10.343,10.322-17.885,12.226c-16.312,4.118-32.359-5.69-36.121-22.305
		c-3.501-15.467,7.084-31.932,22.872-34.77c9.793-1.762,18.835,0.499,26.142,7.754c10.657,10.582,21.369,21.112,31.864,31.853
		c5.408,5.534,11.446,8.807,19.352,7.286c1.388-0.267,1.332,0.321,1.413,1.257C170.137,133.021,171.727,135.542,175.199,137.645z"/>
	<path fill-rule="evenodd" clip-rule="evenodd" d="M47.315,90.619c10.625,6.356,14.64,14.854,12.508,26.063
		c-2.032,10.692-10.862,19.277-21.789,21.032c-10.156,1.63-19.248-0.525-26.684-7.992c-3.088-3.099-4.846-6.925-5.817-11.173
		c-0.344-1.505-0.141-2.054,1.566-2.054c0.954,0,1.92,0,2.873,0c4.134,0,6.531,0.396,8.707,4.467
		c3.557,6.648,13.324,9.029,20.632,6.02c7.141-2.94,11.365-10.779,9.953-18.472c-1.413-7.693-7.968-12.955-16.237-13.033
		c-5.308-0.051-5.091-0.062-5.388-5.266c-0.175-3.109,0.69-3.968,3.781-3.759c5.97,0.406,11.242-1.39,14.702-6.595
		c5.966-8.971-0.5-21.152-11.608-22.054c-8.836-0.716-14.122,2.717-17.163,11.345c-0.475,1.347-1.208,1.581-2.352,1.45
		c-2.893-0.332-8.28-0.252-8.661-0.633c-0.193-0.192,0.012-1.412,0.174-2.126c2.32-10.236,8.887-16.458,18.729-19.316
		c12.658-3.677,27.187,2.869,32.25,14.333c4.479,10.138,1.135,20.847-8.309,26.626C48.645,89.808,48.104,90.138,47.315,90.619z"/>
	<path fill-rule="evenodd" clip-rule="evenodd" fill="#F6A821" d="M187.719,128.253c-1.229-3.66-2.977-6.23-6.359-7.223
		c-1.962-0.576-0.692-1.589-0.314-2.405c4.377-9.468,1.131-19.625-7.929-24.709c-6.114-3.432-14.674-2.708-20.028,2.005
		c-3.593,3.162-6.924,6.63-10.271,10.057c-1.146,1.175-1.786,1.569-3.218,0.19c-6.246-6.016-6.237-5.895-0.2-12.099
		c5.235-5.376,10.593-10.268,18.239-12.252c16.249-4.218,33.795,7.634,35.822,24.323
		C194.431,114.149,192.661,121.278,187.719,128.253z"/>
	<path fill-rule="evenodd" clip-rule="evenodd" d="M76.835,84.243c4.161-7.583,8.321-15.17,12.489-22.752
		c1.893-3.444,3.836-6.857,5.69-10.318c0.597-1.114,1.205-1.821,2.651-1.78c3.701,0.109,7.408,0.037,11.385,0.037
		c-0.611,2.182-1.899,3.729-2.906,5.404c-4.212,7.006-8.46,13.988-12.705,20.976c-0.767,1.265-1.503,2.43-3.225,2.746
		C85.424,79.431,81.291,81.825,76.835,84.243z"/>
	<path fill-rule="evenodd" clip-rule="evenodd" d="M185.165,129.319c0.053,3.646-2.727,6.505-6.363,6.548
		c-3.629,0.042-6.517-2.761-6.562-6.37c-0.046-3.629,2.772-6.518,6.393-6.55C182.302,122.913,185.116,125.658,185.165,129.319z"/>
	<g>
		<path fill-rule="evenodd" clip-rule="evenodd" d="M138.187,90.03c0-13.437,0.016-26.107-0.024-38.777
			c-0.004-1.335,0.331-1.854,1.769-1.85c15.454,0.044,30.918-0.3,46.349,0.261c3.766,0.137,0.909,4.699,1.678,7.112
			c0.559,1.764-0.479,2.295-2.261,2.283c-11.509-0.074-23.022,0.049-34.529-0.1c-2.676-0.036-3.678,0.431-3.531,3.394
			c0.282,5.741,0.037,11.505,0.111,17.258c0.02,1.625-0.264,2.754-1.853,3.639C143.112,84.798,140.944,87.171,138.187,90.03z"/>
		<rect x="140.862" y="49.338" fill-rule="evenodd" clip-rule="evenodd" width="47.417" height="9.655"/>
	</g>
</g>
</svg>
