<?xml version="1.0" encoding="utf-8"?>
<!-- Generator: Adobe Illustrator 20.0.0, SVG Export Plug-In . SVG Version: 6.00 Build 0)  -->
<svg version="1.1" id="Layer_1" xmlns="http://www.w3.org/2000/svg" xmlns:xlink="http://www.w3.org/1999/xlink" x="0px" y="0px"
	 viewBox="0 0 120 120" style="enable-background:new 0 0 120 120;" xml:space="preserve">
<style type="text/css">
	.st0{fill:#DE3F6B;}
	.st1{fill:#FFFFFF;}
</style>
<circle class="st0" cx="60" cy="60" r="60"/>
<path class="st1" d="M100.4,65.9c-0.4,0.8-0.6,1.6-1,2.3c-3.1,5.7-7.9,9.2-14.2,10.3c-6.6,1.2-12.6-0.8-17.7-5.1
	c-3.3-2.8-5.8-6.2-8.3-9.6c-2.8-3.8-5.7-7.6-8.6-11.3c-1.4-1.8-3.2-3.2-5.1-4.4c-5.5-3.4-12.2-2.4-16.9,1.5
	c-3.5,2.9-5.1,6.8-4.8,11.3c0.4,5.3,3.2,9.2,8,11.5c5.8,2.7,11.2,1.7,16.2-2.1c2.4-1.8,4.3-4,6-6.5c0.1-0.2,0.2-0.3,0.3-0.5
	c0,0,0.1,0,0.1-0.1c0.1,0.1,0.2,0.2,0.3,0.4c0.9,1.3,1.9,2.7,2.8,4c0.2,0.2,0.3,0.4,0,0.7c-3.1,3.6-6.6,6.7-11,8.7
	c-3.3,1.5-6.9,2.1-10.5,1.7c-8.3-0.9-15.5-7.2-17-15c-1.3-6.6,0.6-12.4,5.5-17.1c3.2-3.1,7-5,11.4-5.4c5.6-0.6,10.7,0.9,15.2,4.3
	c2.8,2.1,4.9,4.7,7,7.4c2.7,3.6,5.3,7.3,8,10.9c2.4,3.1,5.2,5.9,8.5,7.9c4.6,2.8,9.3,2.7,14.1,0.4c2.7-1.3,4.7-3.3,6.2-5.9
	c0.1-0.2,0.3-0.4,0.5-0.4C97,65.9,98.6,65.9,100.4,65.9z M66.1,56.2c1.3-1.8,2.7-3.5,4.4-5c4-3.5,8.5-5.6,13.9-4.7
	c3.6,0.6,6.7,2.2,9.1,5.1c1.8,2.2,2.5,4.7,2.9,7.5c-0.3,0-18.3,0-18.3,0l0,4.2l21.7,0c1.6,0,1.6,0,1.6-1.6c0-1.6,0.1-3.1-0.2-4.7
	c-0.9-5.3-3.8-9.4-8.2-12.4c-3.9-2.8-8.3-3.8-13.1-3.4c-3.3,0.3-6.3,1.5-9,3.3c-3.2,2-5.8,4.5-8.2,7.4c-0.1,0.1-0.1,0.4-0.1,0.5
	c1,1.4,2,2.9,3,4.4C65.8,56.6,65.9,56.4,66.1,56.2z"/>
</svg>
