
		<svg xmlns="http://www.w3.org/2000/svg" xmlns:xlink="http://www.w3.org/1999/xlink" version="1.1" width="3057.3248407643314" height="3382.1656050955417">
			
			<g transform="scale(19.10828025477707) translate(10, 10)">
				<defs id="SvgjsDefs1028"><linearGradient id="SvgjsLinearGradient1032"><stop id="SvgjsStop1033" stop-color="#2d388a" offset="0"></stop><stop id="SvgjsStop1034" stop-color="#00aeef" offset="1"></stop></linearGradient></defs><g id="SvgjsG1029" featureKey="root" fill="#373734"></g><g id="SvgjsG1030" featureKey="symbol1" fill="url(#SvgjsLinearGradient1032)" transform="matrix(1.5020208026109345,0,0,1.5020208026109345,-5.104303225819126,-7.526270433942148)"><path xmlns="http://www.w3.org/2000/svg" d="M28.6525631,89.4208984l21.347414,0.0776978l21.3474731-0.0754395  c7.1157837-0.0046997,14.2316284-0.0931396,21.3474121-0.1740112l3.9111938-0.0444336l-1.9622803-3.3276367  c-3.6970825-6.2694702-7.4174194-12.5395508-11.2005615-18.7284546c-3.7645264-6.2015991-7.5316772-12.3842163-11.3127441-18.449707  L60.932045,30.6434937L50.0610733,13l10.4459229,19.3563843l10.1185303,18.9445801  c3.324585,6.2678223,6.6630249,12.4185181,10.0042114,18.550293c2.699646,4.9926758,5.4464722,9.9285278,8.2079468,14.8578491  c-5.8300781-0.06604-11.6601563-0.128418-17.4902344-0.1323242l-21.3474731-0.0753784l-21.347414,0.0776978  c-5.8312378,0.0031128-11.6625366,0.0695801-17.4937744,0.1352539c2.7710571-4.9315186,5.5252686-9.87146,8.2355957-14.8659668  c3.3532715-6.1304321,6.7001953-12.284729,10.036438-18.5518188l10.1517353-18.9437256L50.0610733,13L39.1615372,30.6470337  L27.9352779,48.7033081c-3.7897339,6.0662231-7.5687866,12.2453003-11.3414917,18.4481201  c-3.7918091,6.1891479-7.5267944,12.4550781-11.2315063,18.7259521l-1.9639893,3.3243408l3.9068604,0.0421143  C14.4209347,89.3204346,21.5367794,89.4171143,28.6525631,89.4208984z"></path></g><g id="SvgjsG1031" featureKey="text1" fill="#248fff" transform="matrix(0.8438818972888689,0,0,0.8438818972888689,3.459915396609828,137.40506292440017)"><path d="M21.94 21.64 l-10.76 -12.5 l-10.42 12.5 q-0.12 0.14 -0.12 0.34 q0 0.58 0.58 0.58 q0.24 0 0.4 -0.2 l0 0 l3.16 -3.8 l13.04 0 l3.28 3.8 q0.18 0.2 0.44 0.2 q0.54 0 0.54 -0.54 q0 -0.22 -0.14 -0.38 z M5.72 17.44 l5.48 -6.58 l5.68 6.58 l-11.16 0 z M55.49 9.56 q-0.56 0 -0.56 0.56 l0 10.88 l-16 -12 l0 13.12 q0 0.54 0.56 0.54 t0.56 -0.54 l0 -10.9 l16 12 l0 -13.1 q0 -0.56 -0.56 -0.56 z M89.9 21.72 l-7.46 -7.46 l7.32 -3.66 q0.3 -0.14 0.3 -0.48 q0 -0.32 -0.26 -0.48 t-0.54 -0.02 l-15.2 7.6 l0 -7.1 q0 -0.56 -0.56 -0.56 t-0.56 0.56 l0 12 q0 0.54 0.56 0.54 t0.56 -0.54 l0 -3.66 l7.34 -3.68 l7.7 7.72 q0.16 0.16 0.4 0.16 q0.56 0 0.56 -0.56 q0 -0.22 -0.16 -0.38 z M123.41 16.56 q0.56 0 0.56 -0.56 t-0.56 -0.56 l-15.44 0 l0 -4.88 l15.44 0 q0.56 0 0.56 -0.56 t-0.56 -0.56 l-16.56 0 l0 13.12 l16.56 0 q0.56 0 0.56 -0.56 t-0.56 -0.56 l-15.44 0 l0 -4.88 l15.44 0 z M157.89999999999998 21.54 l-4.48 -2.98 l0.16 0 q1.9 0 3.23 -1.34 t1.33 -3.22 q0 -1.9 -1.33 -3.23 t-3.23 -1.33 l-12.56 0 l0 12.56 q0 0.56 0.56 0.56 t0.56 -0.56 l0 -3.44 l9.28 0 l5.86 3.9 q0.14 0.1 0.3 0.1 q0.3 0 0.46 -0.26 q0.1 -0.14 0.1 -0.3 q0 -0.3 -0.24 -0.46 z M142.14 10.56 l11.44 0 q1.42 0 2.43 1.01 t1.01 2.43 t-1.01 2.43 t-2.43 1.01 l-11.44 0 l0 -6.88 z"></path></g>
			</g>
		</svg>
	