<svg id="Layer_1" data-name="Layer 1" xmlns="http://www.w3.org/2000/svg" viewBox="0 0 316 299"><defs><style>.cls-1{fill:#221f1f;}.cls-2{fill:#a8aaad;}.cls-3{fill:#ec2227;}</style></defs><title>Artboard 1</title><path class="cls-1" d="M219.06,63.11l-.41.56-3.87,5.4A99.34,99.34,0,0,1,227.6,79.9,98.44,98.44,0,0,1,100,229l-3.87,5.39-.41.57A105.79,105.79,0,1,0,219.06,63.11Z"/><path class="cls-1" d="M76,207.69l1.27-1.77A98.45,98.45,0,0,1,158,51.07,98.92,98.92,0,0,1,185.66,55l1.27-1.77,3.24-4.52A105.8,105.8,0,0,0,72.8,212.2Z"/><polygon class="cls-2" points="168.43 134.06 147.69 162.91 173.59 169.22 168.43 134.06"/><path class="cls-2" d="M96.4,179.33,67.94,173a92.7,92.7,0,0,0,12.72,28.27Z"/><path class="cls-2" d="M178.12,199.15,157,194h-.06l-4.32-1.1-22.76-5.54-26.77,37.28a93.15,93.15,0,0,0,81.85,14Z"/><path class="cls-2" d="M211.63,73.45,191.92,100.9l19.64,124.69a93,93,0,0,0,.07-152.14Z"/><path class="cls-2" d="M66.55,144.43,114,154.84l68.33-95.18A93.1,93.1,0,0,0,65.1,144.09Z"/><path class="cls-3" d="M206.85,56.09l-4.14,5.76L177.35,97.18l-4-1,25.88-36.06,4.17-5.8-6.23-2.72-4.23,5.89L117.13,163.06,65,151.62a90.66,90.66,0,0,0,1.27,13.47l42.61,9.49L82,212l-4.24,5.89c1.47,1.73,3,3.4,4.57,5l4.17-5.8,29.24-40.73,4,1L89.27,219.88l-4.14,5.77q2.41,2.31,5,4.47l4.11-5.73L126.78,179l.82.2,26.8,6.53,4.34,1.1,25.8,6.28,7.45,43a92.42,92.42,0,0,0,12.82-6.21L184.19,99.06l24.38-34,4.11-5.72ZM135.36,167.48,173.07,115l9.37,63.94Z"/></svg>