<?xml version="1.0" encoding="UTF-8"?>
<svg width="112px" height="113px" viewBox="0 0 112 113" version="1.1" xmlns="http://www.w3.org/2000/svg" xmlns:xlink="http://www.w3.org/1999/xlink">
    <!-- Generator: Sketch 54.1 (76490) - https://sketchapp.com -->
    <title>Untitled</title>
    <desc>Created with Sketch.</desc>
    <defs>
        <linearGradient x1="300.962263%" y1="135.561178%" x2="-18.9000468%" y2="-4.79024812%" id="linearGradient-1">
            <stop stop-color="#1A1A1A" offset="0%"></stop>
            <stop stop-color="#1A1A1A" stop-opacity="0" offset="100%"></stop>
        </linearGradient>
    </defs>
    <g id="Page-1" stroke="none" stroke-width="1" fill="none" fill-rule="evenodd">
        <g id="BitBay-icon" transform="translate(1.000000, 1.000000)" fill-rule="nonzero">
            <path d="M1.6612254,43.073886 C9.074737,13.341792 39.19189,-4.75274652 68.930899,2.6616275 C98.65782,10.074269 116.75447,40.189649 109.33749,69.920005 C101.92746,99.65554 71.810279,117.75183 42.079931,110.33918 C12.342646,102.92654 -5.7522758,72.807711 1.6612254,43.073886 Z" id="path4251-6" fill="url(#linearGradient-1)"></path>
            <path d="M108.35374,68.305173 C101.00702,97.76941 71.161184,115.70094 41.690076,108.35336 C12.231001,101.0075 -5.70262839,71.163426 1.6475295,41.700911 C8.990812,12.233241 38.836647,-5.70001494 68.29916,1.6458482 C97.76855,8.991711 115.70046,38.839222 108.35374,68.305173 Z" id="path4251" fill="#FFFFFF"></path>
            <path d="M110,54.999706 C110,85.375523 85.376003,110.00004 55.000335,110.00004 C24.624333,110.00004 0,85.375523 0,54.999706 C0,24.624223 24.624333,3.96e-05 55.000335,3.96e-05 C85.375668,3.96e-05 110,24.624223 110,54.999706" id="path6359" stroke="#000000" stroke-width="0.5" fill="#FFFFFF" opacity="0.5"></path>
            <path d="M78.7160494,52.9600499 C78.9588477,52.7203496 79.1207133,52.4806492 79.2825789,52.4007491 C79.9300412,51.6816479 80.739369,50.8826467 81.3868313,50.1635456 C84.3004115,47.2072409 85.8381344,43.4519351 85.8381344,39.3770287 C85.8381344,39.0574282 85.9190672,37.9388265 85.9190672,37.7790262 C85.5144033,28.5106117 77.6639232,21 68.3566529,21 L38.8971193,21 L38.8971193,32.5855181 L27,32.5855181 L27,85 L68.8422497,85 C78.1495199,85 86,76.9300874 86,67.3420724 C86,60.6304619 81.7105624,55.7565543 78.7160494,52.9600499 Z M44.8052126,38.4981273 L68.2757202,38.4981273 L53.4650206,53.1198502 L68.0329218,67.5817728 L44.7242798,67.5817728 L44.7242798,38.4981273 L44.8052126,38.4981273 Z M68.8422497,79.1672909 L32.9080933,79.1672909 L32.9080933,38.4182272 L38.8161866,38.4182272 L38.8161866,73.3345818 L68.1138546,73.3345818 C70.5418381,73.3345818 72.6460905,71.8963795 73.5363512,69.7390762 C74.4266118,67.5817728 74.0219479,65.0249688 72.2414266,63.3470662 L61.8820302,53.0399501 L72.484225,42.6529338 C74.1838134,40.9750312 74.6694102,38.4981273 73.7791495,36.2609238 C72.8888889,34.0237203 70.7037037,32.6654182 68.3566529,32.6654182 L44.8861454,32.6654182 L44.8861454,26.9126092 L68.4375857,26.9126092 C74.6694102,26.9126092 79.8491084,31.866417 80.0919067,37.9388265 C80.0919067,38.258427 80.0109739,39.2172285 80.0109739,39.2172285 L80.0109739,39.3770287 C80.0109739,42.732834 78.2304527,45.0499376 77.1783265,46.1685393 C76.4499314,46.8876404 75.6406036,47.6866417 74.9931413,48.4057428 C73.8600823,49.6042447 72.8888889,50.6429463 72.4032922,51.1223471 L70.2990398,53.1997503 L72.4032922,55.2771536 C72.7270233,55.5967541 73.0507545,55.8364544 73.4554184,56.2359551 C75.8834019,58.4731586 80.0109739,62.2284644 80.0109739,67.5018727 C80.0919067,73.7340824 74.8312757,79.1672909 68.8422497,79.1672909 Z" id="Shape" fill="#6356AB"></path>
        </g>
    </g>
</svg>