<?xml version="1.0" encoding="utf-8"?>
<!-- Generator: Adobe Illustrator 26.0.3, SVG Export Plug-In . SVG Version: 6.00 Build 0)  -->
<svg version="1.1" xmlns="http://www.w3.org/2000/svg" xmlns:xlink="http://www.w3.org/1999/xlink" x="0px" y="0px"
	 viewBox="0 0 120 120" style="enable-background:new 0 0 120 120;" xml:space="preserve">
<style type="text/css">
	.st0{fill:#C6C6C6;}
	.st1{fill:#000239;}
	.st2{fill:#9DC44D;}
	.st3{opacity:0.41;fill:url(#SVGID_1_);}
	.st4{fill:#FFFFFF;}
</style>
<g id="BACKGROUND">
</g>
<g id="OBJECTS">
</g>
<g id="DESIGNED_BY_FREEPIK_1_">
	<g>
		<circle class="st0" cx="60.6" cy="60.7" r="57.3"/>
		<circle class="st1" cx="59.4" cy="59.3" r="57.3"/>
		<g>
			<path class="st2" d="M62.1,43.3l7.2-14.9c-2.9-1.8-6.4-2.9-10.1-2.9C48.6,25.5,40,34.1,40,44.7c0,10.6,8.6,19.2,19.2,19.2
				c8.5,0,15.7-5.5,18.2-13.1L62.1,43.3z M59.2,58.6c-7.8,0-14.1-6.3-14.1-14.1c0-7.8,6.3-14.1,14.1-14.1c1.2,0,2.3,0.1,3.4,0.4
				l-6.9,14.8l14.9,7.1C68.1,56.3,63.9,58.6,59.2,58.6z"/>
			<linearGradient id="SVGID_1_" gradientUnits="userSpaceOnUse" x1="40.0301" y1="44.6693" x2="77.3847" y2="44.6693">
				<stop  offset="0.2198" style="stop-color:#1F373A"/>
				<stop  offset="0.6845" style="stop-color:#FFFFFF"/>
			</linearGradient>
			<path class="st3" d="M62.1,43.3l7.2-14.9c-2.9-1.8-6.4-2.9-10.1-2.9C48.6,25.5,40,34.1,40,44.7c0,10.6,8.6,19.2,19.2,19.2
				c8.5,0,15.7-5.5,18.2-13.1L62.1,43.3z M59.2,58.6c-7.8,0-14.1-6.3-14.1-14.1c0-7.8,6.3-14.1,14.1-14.1c1.2,0,2.3,0.1,3.4,0.4
				l-6.9,14.8l14.9,7.1C68.1,56.3,63.9,58.6,59.2,58.6z"/>
		</g>
		<g>
			<g>
				<path class="st4" d="M36.6,72.1c0,2-1.4,3.2-3.8,3.2h-2.7v3.1h-0.7V69h3.4C35.1,69,36.6,70.1,36.6,72.1z M35.9,72.1
					c0-1.6-1.1-2.6-3.1-2.6h-2.7v5.1h2.7C34.8,74.7,35.9,73.7,35.9,72.1z"/>
				<path class="st4" d="M44.7,78.4l-2.2-3.1c-0.3,0-0.6,0.1-0.9,0.1h-2.7v3.1h-0.7V69h3.4c2.4,0,3.8,1.2,3.8,3.2
					c0,1.5-0.8,2.5-2.2,2.9l2.4,3.3H44.7z M41.6,74.7c2,0,3.1-0.9,3.1-2.6c0-1.6-1.1-2.6-3.1-2.6h-2.7v5.1H41.6z"/>
				<path class="st4" d="M53.7,77.8v0.6h-6.5V69h6.3v0.6h-5.6v3.7h5v0.6h-5v3.9H53.7z"/>
				<path class="st4" d="M54.5,74.5h3.5v0.6h-3.5V74.5z"/>
				<path class="st4" d="M58.5,77.2l0.3-0.5c0.6,0.7,1.8,1.2,3.1,1.2c1.9,0,2.7-0.8,2.7-1.8c0-2.8-5.9-1.1-5.9-4.6
					c0-1.3,1-2.5,3.3-2.5c1,0,2.1,0.3,2.8,0.8l-0.3,0.6c-0.8-0.5-1.7-0.8-2.6-0.8c-1.8,0-2.6,0.8-2.6,1.9c0,2.8,5.9,1.2,5.9,4.6
					c0,1.3-1.1,2.5-3.4,2.5C60.5,78.4,59.2,77.9,58.5,77.2z"/>
				<path class="st4" d="M72.8,75.7h-5.5l-1.2,2.6h-0.7l4.3-9.4h0.7l4.3,9.4H74L72.8,75.7z M72.5,75.1l-2.5-5.4l-2.5,5.4H72.5z"/>
				<path class="st4" d="M75.8,69h0.7v8.8h5.4v0.6h-6.1V69z"/>
				<path class="st4" d="M89.5,77.8v0.6H83V69h6.3v0.6h-5.6v3.7h5v0.6h-5v3.9H89.5z"/>
			</g>
		</g>
	</g>
</g>
</svg>
