<?xml version="1.0" encoding="utf-8"?>
<!-- Generator: Adobe Illustrator 26.0.3, SVG Export Plug-In . SVG Version: 6.00 Build 0)  -->
<svg version="1.1" xmlns="http://www.w3.org/2000/svg" xmlns:xlink="http://www.w3.org/1999/xlink" x="0px" y="0px"
	 viewBox="0 0 500 500" style="enable-background:new 0 0 500 500;" xml:space="preserve">
<style type="text/css">
	.st0{fill:#000239;}
	.st1{fill:#9DC44D;}
	.st2{opacity:0.41;fill:url(#SVGID_1_);}
	.st3{fill:#FFFFFF;}
	.st4{font-family:'Montserrat-Light';}
	.st5{font-size:56.7895px;}
	.st6{letter-spacing:-2;}
</style>
<g id="BACKGROUND">
	<circle class="st0" cx="250" cy="250" r="242.2"/>
</g>
<g id="OBJECTS">
</g>
<g id="DESIGNED_BY_FREEPIK_1_">
	<g>
		<path class="st1" d="M261.3,193.4l30.5-63c-12.4-7.8-27.1-12.2-42.8-12.2c-44.7,0-81,36.2-81,81c0,44.7,36.2,81,81,81
			c35.8,0,66.2-23.3,76.9-55.5L261.3,193.4z M249.1,258.2c-32.9,0-59.6-26.7-59.6-59.6c0-32.9,26.7-59.6,59.6-59.6
			c4.9,0,9.7,0.6,14.3,1.7l-29.1,62.7l63.1,29.9C286.6,248.4,269,258.2,249.1,258.2z"/>
		<linearGradient id="SVGID_1_" gradientUnits="userSpaceOnUse" x1="168.0885" y1="199.1815" x2="325.9115" y2="199.1815">
			<stop  offset="0.2198" style="stop-color:#1F373A"/>
			<stop  offset="0.6845" style="stop-color:#FFFFFF"/>
		</linearGradient>
		<path class="st2" d="M261.3,193.4l30.5-63c-12.4-7.8-27.1-12.2-42.8-12.2c-44.7,0-81,36.2-81,81c0,44.7,36.2,81,81,81
			c35.8,0,66.2-23.3,76.9-55.5L261.3,193.4z M249.1,258.2c-32.9,0-59.6-26.7-59.6-59.6c0-32.9,26.7-59.6,59.6-59.6
			c4.9,0,9.7,0.6,14.3,1.7l-29.1,62.7l63.1,29.9C286.6,248.4,269,258.2,249.1,258.2z"/>
	</g>
	<g>
		<text transform="matrix(1 0 0 1 114.8813 341.5742)" class="st3 st4 st5 st6">PRE-SALE</text>
	</g>
</g>
</svg>
