<?xml version="1.0" encoding="utf-8"?>
<!-- Generator: Adobe Illustrator 26.0.3, SVG Export Plug-In . SVG Version: 6.00 Build 0)  -->
<svg version="1.1" xmlns="http://www.w3.org/2000/svg" xmlns:xlink="http://www.w3.org/1999/xlink" x="0px" y="0px"
	 viewBox="0 0 500 500" style="enable-background:new 0 0 500 500;" xml:space="preserve">
<style type="text/css">
	.st0{fill:#000239;}
	.st1{fill:#9DC44D;}
	.st2{opacity:0.41;fill:url(#SVGID_1_);}
	.st3{fill:#FFFFFF;}
</style>
<g id="BACKGROUND">
	<circle class="st0" cx="250" cy="250" r="242.2"/>
</g>
<g id="OBJECTS">
</g>
<g id="DESIGNED_BY_FREEPIK_1_">
	<g>
		<path class="st1" d="M261.3,182.4l30.5-63c-12.4-7.8-27.1-12.2-42.8-12.2c-44.7,0-81,36.2-81,81c0,44.7,36.2,81,81,81
			c35.8,0,66.2-23.3,76.9-55.5L261.3,182.4z M249.1,247.2c-32.9,0-59.6-26.7-59.6-59.6c0-32.9,26.7-59.6,59.6-59.6
			c4.9,0,9.7,0.6,14.3,1.7l-29.1,62.7l63.1,29.9C286.6,237.4,269,247.2,249.1,247.2z"/>
		<linearGradient id="SVGID_1_" gradientUnits="userSpaceOnUse" x1="168.0885" y1="188.1815" x2="325.9115" y2="188.1815">
			<stop  offset="0.2198" style="stop-color:#1F373A"/>
			<stop  offset="0.6845" style="stop-color:#FFFFFF"/>
		</linearGradient>
		<path class="st2" d="M261.3,182.4l30.5-63c-12.4-7.8-27.1-12.2-42.8-12.2c-44.7,0-81,36.2-81,81c0,44.7,36.2,81,81,81
			c35.8,0,66.2-23.3,76.9-55.5L261.3,182.4z M249.1,247.2c-32.9,0-59.6-26.7-59.6-59.6c0-32.9,26.7-59.6,59.6-59.6
			c4.9,0,9.7,0.6,14.3,1.7l-29.1,62.7l63.1,29.9C286.6,237.4,269,247.2,249.1,247.2z"/>
	</g>
	<g>
		<g>
			<path class="st3" d="M153.5,304.2c0,8.3-6,13.3-16,13.3h-11.4v13h-2.9v-39.8h14.3C147.5,290.8,153.5,295.8,153.5,304.2z
				 M150.5,304.2c0-6.9-4.5-10.8-13.1-10.8h-11.4V315h11.4C146,315,150.5,311,150.5,304.2z"/>
			<path class="st3" d="M188,330.6l-9.5-13.3c-1.2,0.2-2.5,0.3-3.9,0.3h-11.4v13h-2.9v-39.8h14.3c10,0,16,5,16,13.4
				c0,6.3-3.4,10.7-9.3,12.4l9.9,13.9H188z M174.7,315c8.5,0,13.1-4,13.1-10.8c0-6.9-4.5-10.8-13.1-10.8h-11.4V315H174.7z"/>
			<path class="st3" d="M225.9,328v2.6h-27.4v-39.8H225v2.6h-23.7v15.7h21.2v2.6h-21.2V328H225.9z"/>
			<path class="st3" d="M229.1,314h14.6v2.6h-14.6V314z"/>
			<path class="st3" d="M246.1,325.5l1.3-2.2c2.7,2.8,7.8,5,13.1,5c8,0,11.5-3.5,11.5-7.8c0-11.9-24.8-4.8-24.8-19.4
				c0-5.6,4.3-10.6,14.1-10.6c4.4,0,8.9,1.4,12,3.6l-1.1,2.3c-3.3-2.3-7.3-3.4-10.9-3.4c-7.7,0-11.2,3.6-11.2,8
				c0,11.9,24.8,4.9,24.8,19.3c0,5.6-4.5,10.5-14.3,10.5C254.7,330.9,249,328.6,246.1,325.5z"/>
			<path class="st3" d="M306.5,319.4h-23.1l-5.1,11.2h-3.1l18.3-39.8h2.9l18.3,39.8h-3.1L306.5,319.4z M305.4,316.9L295,294
				l-10.4,22.9H305.4z"/>
			<path class="st3" d="M319.1,290.8h2.9V328h22.9v2.6h-25.8V290.8z"/>
			<path class="st3" d="M376.9,328v2.6h-27.4v-39.8h26.6v2.6h-23.7v15.7h21.2v2.6h-21.2V328H376.9z"/>
			<path class="st3" d="M206.1,341.7h2.9v39.8h-2.9V341.7z"/>
			<path class="st3" d="M216.2,361.6c0-11.6,8.8-20.2,20.6-20.2c5.6,0,10.7,1.8,14.1,5.5l-1.8,1.9c-3.4-3.4-7.6-4.7-12.2-4.7
				c-10.2,0-17.8,7.5-17.8,17.5c0,10,7.7,17.5,17.8,17.5c4.7,0,8.8-1.4,12.2-4.8l1.8,1.9c-3.5,3.7-8.5,5.6-14.1,5.6
				C225,381.7,216.2,373.2,216.2,361.6z"/>
			<path class="st3" d="M253.2,361.6c0-11.5,8.8-20.2,20.7-20.2c11.8,0,20.7,8.6,20.7,20.2s-8.9,20.2-20.7,20.2
				C262,381.7,253.2,373.1,253.2,361.6z M291.6,361.6c0-10.1-7.6-17.5-17.7-17.5c-10.2,0-17.8,7.4-17.8,17.5
				c0,10.1,7.6,17.5,17.8,17.5C284,379.1,291.6,371.6,291.6,361.6z"/>
		</g>
	</g>
</g>
</svg>
