<?xml version="1.0" encoding="utf-8"?>
<!-- Generator: Adobe Illustrator 21.0.0, SVG Export Plug-In . SVG Version: 6.00 Build 0)  -->
<svg version="1.1" id="Layer_1" xmlns="http://www.w3.org/2000/svg" xmlns:xlink="http://www.w3.org/1999/xlink" x="0px" y="0px"
	 viewBox="0 0 369 369" style="enable-background:new 0 0 369 369;" xml:space="preserve">
<style type="text/css">
	.st0{clip-path:url(#SVGID_2_);}
	.st1{fill:#FBBC1D;}
	.st2{opacity:0.6;}
	.st3{fill:none;stroke:#FEF59B;stroke-width:1.27;stroke-miterlimit:10;}
	.st4{opacity:0.72;}
	.st5{fill:#FFFFFF;}
	.st6{fill:none;stroke:#454545;stroke-miterlimit:10;}
	.st7{fill:#1C1C1C;}
</style>
<title>bizz</title>
<g>
	<g id="Layer_1_1_">
		<g>
			<defs>
				<path id="SVGID_1_" d="M183,4.6C84.8,4.6,4.9,84.5,4.9,182.7S84.8,360.8,183,360.8s178.1-79.9,178.1-178.1S281.2,4.6,183,4.6z"
					/>
			</defs>
			<clipPath id="SVGID_2_">
				<use xlink:href="#SVGID_1_"  style="display:none;overflow:visible;"/>
			</clipPath>
			<g class="st0">
				<path class="st1" d="M183,349.7c-92.3,0-167.1-74.9-167-167.1c0-67.1,40.2-127.7,102-153.9c85-35.9,183,3.9,218.9,88.9
					s-3.9,183-88.9,218.9C227.4,345.3,205.3,349.8,183,349.7z M183,26.1c-86.3,0-156.6,70.3-156.6,156.6S96.6,339.3,183,339.3
					S339.6,269,339.6,182.7S269.3,26.1,183,26.1z"/>
				<g class="st2">
					<circle class="st3" cx="183" cy="182.7" r="141.7"/>
				</g>
				<g class="st4">
					<path class="st5" d="M183,331.3h-1.5l0.1-6.3h1.4c1.1,0,2.1,0,3.1,0l0.1,6.3C185.2,331.3,184.1,331.3,183,331.3z M173.5,331
						c-1.6-0.1-3.2-0.2-4.8-0.4l0.6-6.3c1.5,0.1,3,0.3,4.6,0.4L173.5,331z M194.2,330.9l-0.5-6.3c1.5-0.1,3.1-0.3,4.6-0.4l0.7,6.3
						C197.4,330.6,195.9,330.8,194.2,330.9L194.2,330.9z M160.8,329.7c-1.6-0.2-3.2-0.5-4.7-0.8l1.1-6.2c1.5,0.3,3,0.5,4.5,0.8
						L160.8,329.7z M207,329.4l-1-6.2c1.5-0.2,3-0.5,4.5-0.8l1.2,6.2C210.1,328.9,208.5,329.1,207,329.4L207,329.4z M148.2,327.3
						c-1.6-0.4-3.1-0.8-4.6-1.2l1.7-6.1c1.5,0.4,3,0.8,4.4,1.1L148.2,327.3z M219.5,326.8l-1.5-6.1c1.5-0.4,3-0.8,4.4-1.2l1.7,6
						C222.6,326,221,326.4,219.5,326.8L219.5,326.8z M135.9,323.7c-1.5-0.5-3-1-4.5-1.6l2.2-5.9c1.4,0.5,2.9,1,4.3,1.5L135.9,323.7z
						 M231.7,323.2l-2.1-6c1.4-0.5,2.9-1,4.3-1.6l2.3,5.9C234.8,322.1,233.2,322.6,231.7,323.2L231.7,323.2z M124,319.2
						c-1.5-0.7-2.9-1.3-4.4-2l2.7-5.7c1.4,0.7,2.8,1.3,4.2,1.9L124,319.2z M243.6,318.5l-2.6-5.8c1.4-0.6,2.8-1.3,4.1-1.9l2.8,5.7
						C246.5,317.1,245.1,317.8,243.6,318.5L243.6,318.5z M112.4,313.6c-1.4-0.8-2.8-1.5-4.2-2.4l3.1-5.4c1.3,0.8,2.7,1.5,4,2.3
						L112.4,313.6z M255.1,312.8l-3.1-5.5c1.3-0.7,2.7-1.5,4-2.3l3.2,5.4C257.8,311.2,256.4,312,255.1,312.8L255.1,312.8z
						 M101.4,307c-1.3-0.9-2.7-1.8-4-2.7l3.6-5.1c1.3,0.9,2.5,1.7,3.8,2.6L101.4,307z M265.9,306.1l-3.5-5.3
						c1.3-0.9,2.5-1.7,3.8-2.6l3.7,5.1C268.5,304.2,267.2,305.2,265.9,306.1L265.9,306.1z M91,299.5c-1.3-1-2.5-2-3.7-3l4.1-4.8
						c1.2,1,2.4,2,3.6,2.9L91,299.5z M276.2,298.5l-4-4.9c1.2-1,2.4-1.9,3.5-2.9l4.1,4.8C278.7,296.5,277.4,297.5,276.2,298.5
						L276.2,298.5z M81.4,291.2c-1.2-1.1-2.3-2.2-3.4-3.3l4.4-4.5c1.1,1.1,2.2,2.1,3.3,3.2L81.4,291.2z M285.8,290l-4.4-4.5
						c1.1-1.1,2.2-2.1,3.3-3.2l4.5,4.4C288.1,287.8,287,288.9,285.8,290z M72.4,282c-1.1-1.2-2.1-2.4-3.2-3.6l4.8-4
						c1,1.2,2,2.3,3,3.5L72.4,282z M294.6,280.8l-4.7-4.2c1-1.1,2-2.3,3-3.5l4.9,4C296.7,278.4,295.7,279.6,294.6,280.8z
						 M64.3,272.2c-1-1.3-1.9-2.6-2.8-3.9l5.1-3.6c0.9,1.3,1.8,2.5,2.7,3.7L64.3,272.2z M302.7,270.8l-5.1-3.7
						c0.9-1.2,1.8-2.5,2.7-3.7l5.2,3.6C304.6,268.3,303.6,269.6,302.7,270.8z M57,261.6c-0.8-1.3-1.7-2.7-2.5-4.1l5.4-3.2
						c0.8,1.3,1.6,2.6,2.4,3.9L57,261.6z M309.8,260.2l-5.4-3.3c0.8-1.3,1.6-2.7,2.3-4l5.5,3.1C311.5,257.5,310.7,258.9,309.8,260.2
						z M50.7,250.6c-0.7-1.4-1.4-2.8-2.1-4.3l5.7-2.7c0.7,1.4,1.3,2.8,2,4.1L50.7,250.6z M316,249l-5.6-2.8c0.7-1.4,1.3-2.8,2-4.1
						l5.7,2.6C317.5,246.2,316.8,247.6,316,249z M45.3,239c-0.6-1.5-1.2-3-1.8-4.5l5.9-2.2c0.5,1.4,1.1,2.9,1.7,4.3L45.3,239z
						 M321.3,237.3l-5.9-2.3c0.6-1.4,1.1-2.9,1.6-4.3l5.9,2.1C322.4,234.4,321.9,235.9,321.3,237.3L321.3,237.3z M41,226.9
						c-0.5-1.5-0.9-3.1-1.3-4.6l6.1-1.7c0.4,1.5,0.8,2.9,1.3,4.4L41,226.9z M325.5,225.2l-6-1.8c0.4-1.5,0.9-2.9,1.2-4.4l6.1,1.6
						C326.4,222.2,325.9,223.7,325.5,225.2z M37.8,214.6c-0.3-1.6-0.7-3.1-1-4.7l6.2-1.1c0.3,1.5,0.6,3,0.9,4.5L37.8,214.6z
						 M328.6,212.8l-6.2-1.3c0.3-1.5,0.6-3,0.9-4.5l6.2,1.1C329.2,209.7,328.9,211.3,328.6,212.8z M35.6,201.9
						c-0.2-1.6-0.4-3.2-0.5-4.8l6.3-0.6c0.1,1.5,0.3,3.1,0.5,4.6L35.6,201.9z M330.6,200.2l-6.3-0.7c0.2-1.5,0.3-3,0.5-4.6l6.3,0.5
						C331,197,330.8,198.6,330.6,200.2L330.6,200.2z M34.5,189.2c-0.1-1.6-0.1-3.2-0.1-4.8l6.3-0.1c0,1.5,0,3.1,0.1,4.6L34.5,189.2z
						 M331.6,187.4l-6.3-0.2c0-1.5,0.1-3.1,0.1-4.6v-0.3h6.3v0.3C331.7,184.3,331.6,185.9,331.6,187.4L331.6,187.4z M40.7,176.7
						l-6.3-0.3c0.1-1.6,0.2-3.2,0.3-4.8l6.3,0.5C40.9,173.6,40.8,175.2,40.7,176.7z M325.1,174.7c-0.1-1.5-0.2-3.1-0.3-4.6l6.3-0.6
						c0.1,1.6,0.3,3.2,0.3,4.8L325.1,174.7z M41.8,164.5l-6.2-0.8c0.2-1.6,0.4-3.2,0.7-4.8l6.2,1C42.2,161.5,42,163,41.8,164.5z
						 M324,162.5c-0.2-1.5-0.5-3-0.7-4.5l6.2-1.1c0.3,1.6,0.5,3.2,0.8,4.7L324,162.5z M43.8,152.4l-6.2-1.3c0.3-1.6,0.7-3.1,1.1-4.7
						l6.1,1.5C44.5,149.4,44.1,150.9,43.8,152.4z M321.7,150.5c-0.3-1.5-0.7-3-1.1-4.5l6.1-1.6c0.4,1.5,0.8,3.1,1.2,4.7L321.7,150.5
						z M46.9,140.6l-6-1.9c0.5-1.5,1-3.1,1.5-4.6l6,2.1C47.9,137.6,47.4,139.1,46.9,140.6L46.9,140.6z M318.4,138.7
						c-0.5-1.5-1-2.9-1.5-4.4l5.9-2.1c0.5,1.5,1.1,3,1.5,4.5L318.4,138.7z M51.1,129l-5.8-2.4c0.6-1.5,1.2-3,1.9-4.4l5.7,2.6
						C52.3,126.2,51.7,127.6,51.1,129z M314.2,127.2c-0.6-1.4-1.2-2.8-1.9-4.2l5.7-2.6c0.7,1.4,1.3,2.9,1.9,4.4L314.2,127.2z
						 M56.2,117.9l-5.6-2.9c0.7-1.4,1.5-2.8,2.3-4.2l5.5,3C57.6,115.1,56.9,116.5,56.2,117.9L56.2,117.9z M308.9,116.2
						c-0.7-1.3-1.4-2.7-2.2-4l5.5-3.1c0.8,1.4,1.6,2.8,2.3,4.2L308.9,116.2z M62.2,107.2l-5.3-3.3c0.9-1.3,1.7-2.7,2.6-4l5.2,3.5
						C63.9,104.6,63.1,105.9,62.2,107.2L62.2,107.2z M302.7,105.6c-0.8-1.3-1.7-2.6-2.5-3.8l5.2-3.6c0.9,1.3,1.8,2.7,2.7,4
						L302.7,105.6z M69.2,97.1l-5-3.8c1-1.3,1.9-2.5,2.9-3.8l4.9,3.9C71.1,94.7,70.1,95.9,69.2,97.1z M295.7,95.6
						c-0.9-1.2-1.9-2.4-2.9-3.6l4.9-4c1,1.2,2,2.5,3,3.7L295.7,95.6z M77,87.6l-4.7-4.2c1.1-1.2,2.2-2.4,3.3-3.5l4.6,4.3
						C79,85.4,78,86.5,77,87.6z M287.8,86.3c-1-1.1-2.1-2.2-3.2-3.3l4.5-4.4c1.1,1.1,2.2,2.3,3.3,3.5L287.8,86.3z M85.5,78.9
						l-4.3-4.6c1.2-1.1,2.4-2.2,3.6-3.2l4.2,4.7C87.8,76.8,86.7,77.8,85.5,78.9z M279.1,77.6c-1.1-1-2.3-2-3.4-3l4.1-4.8
						c1.2,1,2.4,2.1,3.6,3.2L279.1,77.6z M94.8,70.9l-3.9-4.9c1.3-1,2.5-2,3.8-2.9l3.7,5.1C97.2,69,96,69.9,94.8,70.9z M269.7,69.8
						c-1.2-0.9-2.5-1.8-3.7-2.8l3.7-5.1c1.3,0.9,2.6,1.9,3.9,2.9L269.7,69.8z M104.7,63.8l-3.5-5.3c1.3-0.9,2.7-1.7,4-2.6l3.3,5.4
						C107.3,62.1,106,62.9,104.7,63.8L104.7,63.8z M259.7,62.8c-1.3-0.8-2.6-1.6-3.9-2.4L259,55c1.4,0.8,2.7,1.7,4.1,2.5L259.7,62.8
						z M115.2,57.4l-3-5.5c1.4-0.8,2.8-1.5,4.2-2.2l2.8,5.6C117.9,56,116.6,56.7,115.2,57.4z M249.1,56.5c-1.3-0.7-2.7-1.4-4.1-2.1
						l2.8-5.7c1.4,0.7,2.9,1.4,4.3,2.2L249.1,56.5z M126.2,52.1l-2.5-5.8c1.5-0.7,2.9-1.3,4.4-1.8l2.3,5.8
						C129,50.9,127.6,51.5,126.2,52.1z M238,51.3c-1.4-0.6-2.8-1.2-4.3-1.7l2.2-5.9c1.5,0.6,3,1.2,4.5,1.8L238,51.3z M137.6,47.7
						l-2-6c1.5-0.5,3-1,4.6-1.5l1.8,6C140.5,46.7,139.1,47.2,137.6,47.7z M226.5,47.1c-1.5-0.5-2.9-0.9-4.4-1.3l1.7-6
						c1.5,0.4,3.1,0.9,4.6,1.4L226.5,47.1z M149.4,44.3l-1.5-6.1c1.6-0.4,3.1-0.7,4.7-1l1.3,6.2C152.4,43.6,150.9,43.9,149.4,44.3
						L149.4,44.3z M214.7,43.8c-1.5-0.3-3-0.7-4.5-0.9l1.2-6.2c1.6,0.3,3.1,0.6,4.7,1L214.7,43.8z M161.4,41.9l-0.9-6.2
						c1.6-0.2,3.2-0.5,4.8-0.6l0.7,6.3C164.4,41.5,162.9,41.7,161.4,41.9z M202.6,41.6c-1.5-0.2-3-0.4-4.6-0.5l0.7-6.3
						c1.6,0.2,3.2,0.4,4.8,0.6L202.6,41.6z M173.6,40.6l-0.4-6.3c1.6-0.1,3.2-0.2,4.8-0.2l0.2,6.3C176.6,40.4,175.1,40.5,173.6,40.6
						L173.6,40.6z M190.5,40.5c-1.5-0.1-3.1-0.1-4.6-0.2l0.1-6.3c1.6,0,3.2,0.1,4.8,0.2L190.5,40.5z"/>
				</g>
				<path class="st5" d="M183,362.6C83.6,362.5,3.1,281.9,3.2,182.5C3.2,110.3,46.5,45.1,113,16.9c91.9-37.7,197,6.2,234.8,98.2
					c37.2,90.6-4.9,194.3-94.8,233.3C230.8,357.8,207,362.6,183,362.6z M183,9.5C87.5,9.5,9.8,87.2,9.8,182.7S87.5,355.9,183,355.9
					s173.2-77.7,173.2-173.2S278.5,9.5,183,9.5L183,9.5z"/>
				<circle class="st6" cx="183" cy="182.7" r="149.4"/>
				<path class="st7" d="M204.5,18.2l1.5,0.2l-1.3,8.5l-1.5-0.2L204.5,18.2z M204.3,25.4l2,0.3c0.2,0,0.5,0,0.7-0.1
					c0.2-0.1,0.3-0.3,0.3-0.5l0.1-0.6c0-0.2,0-0.3,0-0.5c0-0.1-0.1-0.3-0.3-0.3c-0.1-0.1-0.3-0.2-0.5-0.2l-2-0.3l0.2-1.4l2,0.3
					c0.2,0,0.4,0,0.6-0.1c0.2-0.1,0.3-0.3,0.3-0.5l0.1-0.5c0-0.2,0-0.4-0.1-0.6c-0.1-0.2-0.3-0.3-0.6-0.3l-2-0.3l0.2-1.4l2.1,0.3
					c0.4,0,0.8,0.2,1.2,0.4c0.3,0.2,0.5,0.5,0.6,0.8c0.1,0.4,0.2,0.8,0.1,1.1l-0.1,0.5c0,0.3-0.1,0.5-0.3,0.8
					c-0.1,0.2-0.3,0.4-0.6,0.5c-0.3,0.1-0.5,0.2-0.8,0.2c0.3,0.1,0.6,0.2,0.8,0.4c0.2,0.2,0.4,0.4,0.4,0.7c0.1,0.3,0.1,0.6,0,0.8
					l-0.1,0.6c0,0.4-0.2,0.8-0.4,1.1c-0.2,0.3-0.5,0.5-0.9,0.6c-0.4,0.1-0.8,0.1-1.2,0.1l-2.2-0.3L204.3,25.4z"/>
				<path class="st7" d="M212.3,28.2l-1.5-0.3l1.6-8.4l1.5,0.3L212.3,28.2z"/>
				<path class="st7" d="M220.6,22.5l-4,5l2.9,0.6l-0.3,1.5l-4.5-1l0.3-1.4l4-5l-2.7-0.6l0.3-1.5l4.3,1L220.6,22.5z"/>
				<path class="st7" d="M227.5,24.3l-4.2,4.8l2.8,0.7l-0.4,1.4l-4.5-1.2l0.4-1.3l4.2-4.8l-2.6-0.7l0.4-1.4l4.3,1.1L227.5,24.3z"/>
				<path class="st7" d="M229.5,32.5L229,32c-0.3-0.3-0.5-0.7-0.6-1.1c-0.1-0.5,0-1,0.1-1.5l1-3.2c0.1-0.5,0.4-0.9,0.7-1.3
					c0.3-0.3,0.7-0.5,1.1-0.6c0.5-0.1,1,0,1.4,0.1c0.5,0.1,0.9,0.4,1.2,0.7c0.3,0.3,0.5,0.7,0.5,1.2c0.1,0.6,0,1.1-0.1,1.7l-1.5-0.5
					c0.1-0.3,0.1-0.5,0.1-0.8c0-0.2-0.1-0.4-0.2-0.5c-0.1-0.1-0.3-0.2-0.4-0.3c-0.2-0.1-0.4-0.1-0.6,0c-0.2,0-0.3,0.1-0.4,0.3
					c-0.1,0.2-0.2,0.4-0.3,0.6l-1,3.2c-0.1,0.2-0.1,0.4-0.1,0.6c0,0.2,0.1,0.3,0.2,0.5c0.1,0.1,0.3,0.2,0.5,0.3
					c0.2,0.1,0.4,0.1,0.5,0c0.2-0.1,0.3-0.2,0.4-0.3c0.2-0.2,0.3-0.4,0.4-0.7l1.5,0.5c-0.2,0.5-0.5,1-0.8,1.5
					c-0.3,0.3-0.7,0.6-1.1,0.7c-0.5,0.1-0.9,0.1-1.4-0.1L229.5,32.5z"/>
				<path class="st7" d="M236.2,34.4c-0.3-0.3-0.5-0.7-0.6-1.2c-0.1-0.5,0-1,0.1-1.4l1.2-3.4c0.2-0.5,0.4-0.9,0.8-1.2
					c0.3-0.3,0.7-0.5,1.2-0.5c1-0.1,2,0.3,2.6,1c0.3,0.3,0.5,0.7,0.6,1.2c0.1,0.5,0,1-0.2,1.4l-1.2,3.4c-0.2,0.5-0.4,0.9-0.8,1.2
					c-0.3,0.3-0.7,0.5-1.2,0.5C237.9,35.5,236.9,35.1,236.2,34.4L236.2,34.4z M238.6,33.8c0.2,0,0.4-0.1,0.5-0.2
					c0.1-0.1,0.3-0.3,0.3-0.5l1.2-3.3c0.1-0.2,0.1-0.4,0.1-0.6c0-0.2-0.1-0.4-0.2-0.5c-0.1-0.2-0.3-0.3-0.5-0.3
					c-0.2-0.1-0.4-0.1-0.6-0.1c-0.2,0-0.4,0.1-0.5,0.2c-0.1,0.1-0.3,0.3-0.3,0.5l-1.2,3.2c-0.1,0.2-0.1,0.4-0.1,0.6
					c0,0.2,0.1,0.4,0.2,0.5c0.1,0.2,0.3,0.3,0.5,0.3C238.1,33.8,238.4,33.8,238.6,33.8L238.6,33.8z"/>
				<path class="st7" d="M243.8,37.6l-1.4-0.6l3.3-7.9l1.4,0.6L243.8,37.6z"/>
				<path class="st7" d="M249.7,30.8l1.4,0.7l-0.2,6.7l-0.2,0.1l2.6-5.8l1.3,0.6l-3.6,7.8l-1.4-0.7l0.1-6.5l0.2-0.1l-2.6,5.6
					l-1.3-0.6L249.7,30.8z"/>
				<path class="st7" d="M305.1,70.3l1,1.1l-6.3,5.7l-1-1.1L305.1,70.3z M300.3,75.7l1.3,1.5c0.1,0.2,0.4,0.3,0.6,0.3
					c0.2,0,0.4-0.1,0.6-0.2l0.4-0.4c0.1-0.1,0.2-0.2,0.3-0.4c0-0.1,0-0.3,0-0.4c0-0.2-0.1-0.3-0.2-0.4l-1.3-1.5l1.1-1l1.3,1.5
					c0.1,0.2,0.3,0.3,0.5,0.3c0.2,0,0.4-0.1,0.6-0.2l0.3-0.3c0.2-0.1,0.2-0.3,0.3-0.5c0-0.2-0.1-0.4-0.3-0.6l-1.3-1.5l1.1-1l1.4,1.6
					c0.3,0.3,0.5,0.7,0.6,1.1c0.1,0.3,0.1,0.7,0,1c-0.1,0.4-0.4,0.7-0.6,0.9l-0.4,0.3c-0.2,0.2-0.4,0.3-0.7,0.4
					c-0.2,0.1-0.5,0.1-0.8,0c-0.3-0.1-0.5-0.2-0.8-0.4c0.2,0.2,0.3,0.5,0.4,0.8c0,0.3,0,0.6-0.1,0.8c-0.1,0.3-0.3,0.5-0.5,0.7
					l-0.4,0.4c-0.3,0.3-0.6,0.5-1,0.6c-0.3,0.1-0.7,0-1-0.1c-0.4-0.2-0.7-0.4-1-0.7l-1.5-1.6L300.3,75.7z"/>
				<path class="st7" d="M304.7,83l-1-1.2l6.6-5.5l1,1.2L304.7,83z"/>
				<path class="st7" d="M314.7,84l-6.3,1.3l1.8,2.3l-1.2,0.9l-2.8-3.7l1.1-0.8l6.3-1.3l-1.7-2.2l1.2-0.9l2.7,3.5L314.7,84z"/>
				<path class="st7" d="M318.8,89.7l-6.3,1l1.7,2.4l-1.2,0.9l-2.7-3.8l1.1-0.8l6.3-1l-1.6-2.2l1.2-0.9l2.6,3.6L318.8,89.7z"/>
				<path class="st7" d="M315.1,97.3v-0.7c0-0.4,0.1-0.9,0.3-1.2c0.3-0.4,0.6-0.8,1.1-1l2.8-1.8c0.4-0.3,0.9-0.5,1.4-0.5
					c0.4,0,0.9,0,1.3,0.3c0.4,0.2,0.8,0.6,1,1c0.3,0.4,0.4,0.8,0.5,1.3c0,0.4-0.1,0.9-0.4,1.2c-0.3,0.5-0.7,0.9-1.2,1.2l-0.9-1.3
					c0.2-0.2,0.4-0.3,0.6-0.6c0.1-0.2,0.2-0.3,0.2-0.5c0-0.2,0-0.4-0.1-0.5c-0.1-0.2-0.2-0.3-0.4-0.4c-0.2-0.1-0.3-0.1-0.5-0.1
					c-0.2,0-0.4,0.1-0.6,0.2l-2.8,1.8c-0.2,0.1-0.3,0.3-0.5,0.4c-0.1,0.1-0.1,0.3-0.1,0.5c0,0.2,0.1,0.4,0.2,0.5
					c0.1,0.2,0.2,0.3,0.4,0.3c0.2,0.1,0.4,0.1,0.6,0c0.3-0.1,0.5-0.2,0.7-0.3l0.9,1.3c-0.5,0.3-1,0.5-1.6,0.6
					c-0.4,0.1-0.9,0-1.3-0.2c-0.4-0.2-0.8-0.6-1-1L315.1,97.3z"/>
				<path class="st7" d="M319.1,103.1c0-0.4,0.1-0.9,0.3-1.3c0.2-0.4,0.6-0.8,1-1l3.1-1.8c0.4-0.3,0.9-0.4,1.4-0.4
					c0.4,0,0.9,0.1,1.2,0.4c0.8,0.6,1.3,1.5,1.4,2.4c0,0.4-0.1,0.9-0.3,1.3c-0.2,0.4-0.6,0.8-1,1l-3.1,1.8c-0.4,0.2-0.9,0.4-1.4,0.4
					c-0.4,0-0.9-0.1-1.2-0.3C319.7,105,319.2,104.1,319.1,103.1z M321.3,104.1c0.2,0.1,0.3,0.1,0.5,0.1c0.2,0,0.4-0.1,0.6-0.2l3-1.7
					c0.2-0.1,0.3-0.2,0.5-0.4c0.1-0.2,0.2-0.3,0.1-0.5c0-0.2-0.1-0.4-0.2-0.6c-0.1-0.2-0.2-0.3-0.4-0.4c-0.2-0.1-0.3-0.1-0.5-0.1
					c-0.2,0-0.4,0.1-0.6,0.2l-3,1.7c-0.2,0.1-0.3,0.2-0.5,0.4c-0.1,0.2-0.2,0.3-0.1,0.5c0,0.2,0.1,0.4,0.2,0.6
					C321,103.8,321.1,104,321.3,104.1L321.3,104.1z"/>
				<path class="st7" d="M322.8,110.3l-0.7-1.4l7.6-4l0.7,1.4L322.8,110.3z"/>
				<path class="st7" d="M331.8,108.9l0.7,1.4l-4.4,5l-0.2-0.1l5.7-2.7l0.6,1.3l-7.8,3.7l-0.7-1.4l4.2-4.9h0.2l-5.5,2.7l-0.6-1.3
					L331.8,108.9z"/>
				<path class="st7" d="M341.8,192l-0.1,2c0,0.2,0,0.5,0.2,0.6c0.1,0.2,0.3,0.3,0.6,0.3h0.6c0.2,0,0.3,0,0.5-0.1
					c0.1-0.1,0.2-0.2,0.3-0.3c0.1-0.1,0.1-0.3,0.1-0.5l0.1-2l1.5,0.1l-0.1,2c0,0.2,0,0.4,0.2,0.6c0.2,0.2,0.4,0.3,0.6,0.3h0.5
					c0.2,0,0.4,0,0.5-0.2c0.1-0.2,0.2-0.4,0.2-0.6l0.1-2l1.5,0.1l-0.1,2.1c0,0.4-0.1,0.8-0.3,1.2c-0.2,0.3-0.4,0.6-0.8,0.7
					c-0.4,0.2-0.7,0.2-1.1,0.2h-0.5c-0.3,0-0.5-0.1-0.8-0.2c-0.2-0.1-0.4-0.3-0.5-0.5c-0.1-0.2-0.2-0.5-0.2-0.8
					c-0.1,0.3-0.2,0.6-0.4,0.8c-0.2,0.2-0.4,0.4-0.6,0.5c-0.3,0.1-0.6,0.2-0.9,0.1h-0.6c-0.4,0-0.8-0.1-1.1-0.3
					c-0.3-0.2-0.5-0.5-0.6-0.8c-0.1-0.4-0.2-0.8-0.2-1.2l0.1-2.2L341.8,192z M349,191.7l-0.1,1.5l-8.6-0.6l0.1-1.5L349,191.7z"/>
				<path class="st7" d="M339.6,200.2l0.2-1.6l8.5,0.9l-0.2,1.6L339.6,200.2z"/>
				<path class="st7" d="M345.9,208.1l-5.3-3.6l-0.4,2.9l-1.5-0.2l0.6-4.6l1.4,0.2l5.3,3.6l0.4-2.7l1.5,0.2l-0.6,4.4L345.9,208.1z"
					/>
				<path class="st7" d="M344.7,215l-5.1-3.8l-0.5,2.9l-1.5-0.3l0.8-4.6l1.4,0.3l5.1,3.8l0.5-2.7l1.5,0.3l-0.8,4.4L344.7,215z"/>
				<path class="st7" d="M336.6,217.7l0.4-0.5c0.3-0.3,0.7-0.6,1.1-0.7c0.5-0.1,1-0.1,1.5,0l3.3,0.8c0.5,0.1,1,0.3,1.4,0.6
					c0.3,0.3,0.6,0.6,0.7,1.1c0.1,0.5,0.1,1,0,1.4c-0.1,0.5-0.3,0.9-0.6,1.3c-0.3,0.3-0.7,0.5-1.1,0.6c-0.6,0.1-1.1,0.1-1.7,0
					l0.4-1.5c0.3,0,0.5,0,0.8,0c0.2,0,0.4-0.1,0.5-0.2c0.1-0.1,0.2-0.3,0.3-0.4c0.1-0.2,0.1-0.4,0-0.6c-0.1-0.2-0.2-0.3-0.3-0.4
					c-0.2-0.1-0.4-0.2-0.6-0.3l-3.3-0.8c-0.2,0-0.4,0-0.6,0c-0.2,0-0.3,0.1-0.5,0.3c-0.1,0.1-0.2,0.3-0.3,0.5
					c-0.1,0.2-0.1,0.4,0,0.5c0.1,0.2,0.2,0.3,0.4,0.4c0.2,0.1,0.5,0.3,0.7,0.3l-0.4,1.5c-0.5-0.1-1.1-0.4-1.5-0.7
					c-0.3-0.3-0.6-0.6-0.8-1c-0.1-0.5-0.1-0.9,0-1.4L336.6,217.7z"/>
				<path class="st7" d="M335.3,224.6c0.3-0.3,0.7-0.6,1.1-0.6c0.5-0.1,1-0.1,1.4,0.1l3.5,1c0.5,0.1,0.9,0.4,1.2,0.7
					c0.3,0.3,0.5,0.7,0.6,1.1c0.2,1-0.1,2-0.8,2.7c-0.3,0.3-0.7,0.6-1.1,0.6c-0.5,0.1-1,0.1-1.4-0.1l-3.5-1
					c-0.5-0.1-0.9-0.4-1.2-0.7c-0.3-0.3-0.5-0.7-0.6-1.1C334.3,226.3,334.6,225.3,335.3,224.6z M336,226.8c0,0.2,0.1,0.3,0.3,0.5
					c0.2,0.1,0.3,0.2,0.5,0.3l3.3,0.9c0.2,0,0.4,0,0.6,0c0.2,0,0.4-0.1,0.5-0.3c0.3-0.3,0.4-0.7,0.3-1.1c0-0.2-0.1-0.3-0.3-0.5
					c-0.2-0.1-0.3-0.2-0.5-0.3l-3.3-0.9c-0.2-0.1-0.4-0.1-0.6,0c-0.2,0-0.3,0.1-0.5,0.3C336,226,335.9,226.5,336,226.8L336,226.8z"
					/>
				<path class="st7" d="M332.7,232.3l0.5-1.5l8.2,2.6l-0.5,1.5L332.7,232.3z"/>
				<path class="st7" d="M339.9,237.7l-0.5,1.5l-6.7,0.3l-0.1-0.2l6,2.2l-0.5,1.4l-8.1-3l0.5-1.5l6.5-0.4l0.1,0.2l-5.8-2.1l0.5-1.4
					L339.9,237.7z"/>
				<path class="st7" d="M289.9,300.7l-1.5,1.3c-0.2,0.1-0.3,0.4-0.3,0.6c0,0.2,0.1,0.4,0.2,0.6l0.4,0.4c0.1,0.1,0.2,0.2,0.4,0.3
					c0.1,0,0.3,0,0.4,0c0.2,0,0.3-0.1,0.4-0.2l1.5-1.3l1,1.1l-1.5,1.3c-0.2,0.1-0.3,0.3-0.3,0.5c0,0.2,0.1,0.4,0.2,0.6l0.3,0.4
					c0.1,0.2,0.3,0.3,0.5,0.3c0.2,0,0.4-0.1,0.6-0.3l1.5-1.3l1,1.1l-1.6,1.4c-0.3,0.3-0.7,0.5-1.1,0.6c-0.3,0.1-0.7,0.1-1,0
					c-0.4-0.1-0.7-0.4-0.9-0.7l-0.3-0.4c-0.2-0.2-0.3-0.4-0.4-0.7c-0.1-0.2-0.1-0.5,0-0.8c0.3,0,0.5-0.2,0.5-0.4s-0.2-0.5-0.4-0.5
					s-0.5,0.2-0.5,0.4c0,0,0,0.1,0,0.1c-0.3,0-0.6,0-0.8-0.1c-0.3-0.1-0.5-0.3-0.7-0.5l-0.4-0.5c-0.3-0.3-0.5-0.6-0.5-1
					c-0.1-0.3,0-0.7,0.1-1c0.2-0.4,0.4-0.7,0.7-1l1.6-1.5L289.9,300.7z M295.2,305.5l-1.1,1l-5.7-6.4l1.1-1L295.2,305.5z"/>
				<path class="st7" d="M282.6,305.1l1.2-1l5.5,6.6l-1.2,1L282.6,305.1z"/>
				<path class="st7" d="M281.5,315.1l-1.3-6.3l-2.3,1.8l-0.9-1.2l3.7-2.8l0.8,1.1l1.2,6.3l2.2-1.7l0.9,1.2l-3.5,2.7L281.5,315.1z"
					/>
				<path class="st7" d="M275.8,319.2l-1-6.3l-2.4,1.7l-0.9-1.2l3.8-2.7l0.8,1.1l1,6.3l2.2-1.6l0.9,1.2l-3.6,2.6L275.8,319.2z"/>
				<path class="st7" d="M268.2,315.4h0.7c0.4,0,0.9,0.1,1.2,0.3c0.4,0.3,0.8,0.6,1,1.1l1.8,2.9c0.3,0.4,0.5,0.9,0.5,1.4
					c0,0.4,0,0.9-0.3,1.3c-0.2,0.4-0.6,0.8-1,1c-0.4,0.3-0.8,0.4-1.3,0.5c-0.4,0-0.9-0.1-1.2-0.4c-0.5-0.3-0.9-0.7-1.2-1.2l1.3-0.9
					c0.2,0.2,0.3,0.4,0.5,0.6c0.2,0.1,0.3,0.2,0.5,0.2c0.2,0,0.4,0,0.5-0.1c0.2-0.1,0.3-0.2,0.4-0.4c0.1-0.2,0.1-0.3,0.1-0.5
					c0-0.2-0.1-0.4-0.2-0.6l-1.8-2.9c-0.1-0.2-0.3-0.3-0.4-0.5c-0.1-0.1-0.3-0.1-0.5-0.1c-0.2,0-0.4,0.1-0.5,0.2
					c-0.2,0.1-0.3,0.2-0.3,0.4c-0.1,0.2-0.1,0.4,0,0.6c0.1,0.3,0.1,0.5,0.3,0.7l-1.3,0.9c-0.3-0.5-0.5-1-0.6-1.6
					c-0.1-0.4,0-0.9,0.2-1.3c0.2-0.4,0.6-0.8,1-1L268.2,315.4z"/>
				<path class="st7" d="M262.4,319.4c0.4,0,0.9,0.1,1.3,0.3c0.4,0.2,0.8,0.6,1,1l1.8,3.1c0.2,0.4,0.4,0.9,0.4,1.4
					c0,0.4-0.1,0.9-0.4,1.2c-0.6,0.8-1.5,1.3-2.5,1.4c-0.4,0-0.9-0.1-1.3-0.3c-0.4-0.2-0.8-0.6-1-1l-1.8-3.1
					c-0.2-0.4-0.4-0.9-0.4-1.4c0-0.4,0.1-0.9,0.4-1.2C260.5,320,261.4,319.5,262.4,319.4L262.4,319.4z M261.4,321.5
					c-0.1,0.2-0.1,0.3-0.1,0.5c0,0.2,0.1,0.4,0.2,0.6l1.7,3c0.1,0.2,0.2,0.3,0.4,0.5c0.2,0.1,0.3,0.2,0.5,0.1c0.2,0,0.4-0.1,0.6-0.2
					c0.2-0.1,0.3-0.2,0.4-0.4c0.1-0.2,0.1-0.3,0.1-0.5c0-0.2-0.1-0.4-0.2-0.6l-1.7-3c-0.1-0.2-0.2-0.3-0.4-0.5
					c-0.2-0.1-0.3-0.2-0.5-0.1c-0.2,0-0.4,0.1-0.6,0.2C261.6,321.2,261.5,321.4,261.4,321.5L261.4,321.5z"/>
				<path class="st7" d="M255.1,323.1l1.4-0.7l4,7.6l-1.4,0.7L255.1,323.1z"/>
				<path class="st7" d="M256.5,332.1l-1.4,0.7l-5-4.4l0.1-0.2l2.7,5.7l-1.3,0.6l-3.7-7.8l1.4-0.7l4.9,4.3v0.2l-2.6-5.5l1.3-0.6
					L256.5,332.1z"/>
				<path class="st7" d="M173.4,341.7l-2-0.1c-0.2,0-0.5,0-0.6,0.2c-0.2,0.1-0.3,0.3-0.3,0.6v0.6c0,0.2,0,0.3,0.1,0.5
					c0.1,0.1,0.2,0.2,0.3,0.3c0.1,0.1,0.3,0.1,0.5,0.1l2,0.1l-0.1,1.5l-2-0.1c-0.2,0-0.4,0-0.6,0.2c-0.2,0.2-0.3,0.4-0.3,0.6v0.5
					c0,0.2,0,0.4,0.2,0.5c0.2,0.1,0.4,0.2,0.6,0.2l2,0.1l-0.1,1.5l-2.2-0.1c-0.4,0-0.8-0.1-1.2-0.3c-0.3-0.2-0.6-0.4-0.7-0.8
					c-0.2-0.4-0.2-0.7-0.2-1.1V346c0-0.3,0.1-0.5,0.2-0.8c0.1-0.2,0.3-0.4,0.5-0.5c0.2-0.1,0.5-0.2,0.8-0.2
					c-0.3-0.1-0.6-0.2-0.8-0.4c-0.2-0.2-0.4-0.4-0.5-0.6c-0.1-0.3-0.2-0.6-0.1-0.9V342c0-0.4,0.1-0.8,0.3-1.1
					c0.2-0.3,0.5-0.5,0.8-0.6c0.4-0.1,0.8-0.2,1.2-0.2l2.2,0.1L173.4,341.7z M173.7,348.9l-1.5-0.1l0.6-8.6l1.5,0.1L173.7,348.9z"/>
				<path class="st7" d="M165.2,339.5l1.6,0.2l-0.9,8.5l-1.6-0.2L165.2,339.5z"/>
				<path class="st7" d="M157.3,345.8l3.6-5.3l-2.9-0.4l0.2-1.5l4.6,0.6l-0.2,1.4l-3.6,5.3l2.7,0.4l-0.2,1.5l-4.4-0.6L157.3,345.8z"
					/>
				<path class="st7" d="M150.3,344.5l3.8-5.1l-2.9-0.5l0.3-1.5l4.6,0.9l-0.3,1.4l-3.9,5.1l2.7,0.5l-0.3,1.5l-4.4-0.8L150.3,344.5z"
					/>
				<path class="st7" d="M147.7,336.5l0.5,0.4c0.3,0.3,0.6,0.7,0.6,1.1c0.1,0.5,0.1,1,0,1.5l-0.8,3.3c-0.1,0.5-0.3,1-0.6,1.4
					c-0.3,0.3-0.6,0.6-1.1,0.7c-0.5,0.1-1,0.1-1.4,0c-0.5-0.1-0.9-0.3-1.3-0.6c-0.3-0.3-0.5-0.7-0.6-1.1c-0.1-0.6-0.1-1.1,0-1.7
					l1.5,0.4c0,0.3,0,0.5,0,0.8c0,0.2,0.1,0.4,0.2,0.5c0.1,0.1,0.3,0.2,0.4,0.3c0.2,0.1,0.4,0.1,0.6,0c0.2-0.1,0.3-0.2,0.4-0.3
					c0.1-0.2,0.2-0.4,0.3-0.6l0.8-3.3c0-0.2,0-0.4,0-0.6c0-0.2-0.1-0.3-0.3-0.5c-0.1-0.1-0.3-0.2-0.5-0.3c-0.2-0.1-0.4-0.1-0.5,0
					c-0.2,0.1-0.3,0.2-0.4,0.4c-0.1,0.2-0.3,0.5-0.3,0.7l-1.5-0.4c0.1-0.5,0.4-1.1,0.7-1.5c0.3-0.3,0.6-0.6,1-0.8
					c0.5-0.1,0.9-0.1,1.4,0L147.7,336.5z"/>
				<path class="st7" d="M140.9,335.1c0.3,0.3,0.5,0.7,0.6,1.1c0.1,0.5,0.1,1-0.1,1.4l-1,3.5c-0.1,0.5-0.4,0.9-0.7,1.2
					c-0.3,0.3-0.7,0.5-1.1,0.6c-1,0.2-2-0.1-2.7-0.8c-0.3-0.3-0.5-0.7-0.6-1.1c-0.1-0.5-0.1-1,0.1-1.4l1-3.5
					c0.1-0.5,0.4-0.9,0.7-1.2c0.3-0.3,0.7-0.5,1.1-0.6C139.1,334.2,140.1,334.4,140.9,335.1L140.9,335.1z M138.6,335.8
					c-0.2,0-0.3,0.1-0.5,0.3c-0.1,0.2-0.2,0.3-0.3,0.5l-0.9,3.3c0,0.2,0,0.4,0,0.6c0,0.2,0.1,0.4,0.3,0.5c0.1,0.1,0.3,0.2,0.5,0.3
					c0.2,0.1,0.4,0.1,0.6,0c0.2,0,0.3-0.1,0.5-0.3c0.1-0.2,0.2-0.3,0.3-0.5l0.9-3.3c0.1-0.2,0.1-0.4,0-0.6c0-0.2-0.1-0.3-0.3-0.5
					c-0.1-0.1-0.3-0.2-0.5-0.3C139,335.8,138.8,335.8,138.6,335.8L138.6,335.8z"/>
				<path class="st7" d="M133.1,332.5l1.5,0.5l-2.7,8.2l-1.5-0.5L133.1,332.5z"/>
				<path class="st7" d="M127.7,339.7l-1.5-0.5l-0.3-6.7l0.2-0.1l-2.2,6l-1.3-0.5l3-8l1.5,0.5l0.4,6.5l-0.2,0.1l2.1-5.8l1.4,0.5
					L127.7,339.7z"/>
				<path class="st7" d="M62.7,287l-1.3-1.5c-0.1-0.2-0.3-0.3-0.6-0.4c-0.2,0-0.4,0-0.6,0.2l-0.5,0.4c-0.1,0.1-0.2,0.2-0.3,0.4
					c0,0.1,0,0.3,0,0.4c0,0.2,0.1,0.3,0.2,0.4l1.3,1.5l-1.1,0.9l-1.3-1.5c-0.1-0.2-0.3-0.3-0.5-0.3c-0.2,0-0.4,0.1-0.6,0.2l-0.3,0.3
					c-0.2,0.1-0.3,0.3-0.3,0.5c0,0.2,0.1,0.4,0.2,0.6l1.3,1.5l-1.1,0.9L56,290c-0.3-0.3-0.5-0.7-0.6-1.1c-0.1-0.3-0.1-0.7,0-1
					c0.1-0.4,0.4-0.7,0.7-0.9l0.4-0.3c0.2-0.2,0.4-0.3,0.7-0.4c0.2-0.1,0.5-0.1,0.8,0c0.3,0.1,0.5,0.2,0.7,0.4
					c-0.2-0.3-0.3-0.5-0.3-0.8c0-0.3,0-0.5,0.1-0.8c0.1-0.3,0.3-0.5,0.5-0.7l0.5-0.4c0.3-0.3,0.6-0.4,1-0.5c0.3-0.1,0.7,0,1,0.1
					c0.4,0.2,0.7,0.4,1,0.8l1.4,1.7L62.7,287z M57.8,292.2l-1-1.2l6.6-5.5l1,1.2L57.8,292.2z"/>
				<path class="st7" d="M58.5,279.5l1,1.2l-6.8,5.3l-1-1.2L58.5,279.5z"/>
				<path class="st7" d="M48.5,278.3l6.3-1.1l-1.7-2.4l1.2-0.9l2.7,3.8l-1.1,0.8l-6.3,1.1l1.6,2.2l-1.2,0.9l-2.6-3.6L48.5,278.3z"/>
				<path class="st7" d="M44.6,272.4l6.3-0.8l-1.6-2.4l1.2-0.8l2.6,3.9L52,273l-6.3,0.8l1.5,2.3l-1.2,0.8l-2.5-3.7L44.6,272.4z"/>
				<path class="st7" d="M48.5,264.9v0.7c0,0.4-0.1,0.9-0.3,1.2c-0.3,0.4-0.7,0.8-1.1,1l-2.9,1.7c-0.4,0.3-0.9,0.4-1.4,0.5
					c-0.4,0-0.9-0.1-1.3-0.3c-0.4-0.2-0.8-0.6-1-1c-0.3-0.4-0.4-0.8-0.4-1.3c0-0.4,0.1-0.9,0.4-1.2c0.3-0.5,0.8-0.9,1.3-1.2l0.8,1.4
					c-0.2,0.1-0.4,0.3-0.6,0.5c-0.1,0.1-0.2,0.3-0.2,0.5c0,0.2,0,0.4,0.1,0.5c0.1,0.2,0.2,0.3,0.4,0.4c0.2,0.1,0.3,0.1,0.5,0.1
					c0.2,0,0.4-0.1,0.6-0.2l2.9-1.8c0.2-0.1,0.3-0.2,0.5-0.4c0.1-0.1,0.2-0.3,0.2-0.5c0-0.2-0.1-0.4-0.2-0.5
					c-0.1-0.2-0.2-0.3-0.4-0.4c-0.2-0.1-0.4-0.1-0.6,0c-0.3,0-0.5,0.1-0.7,0.3l-0.8-1.4c0.5-0.3,1-0.5,1.6-0.5
					c0.4-0.1,0.9,0,1.3,0.2c0.4,0.2,0.8,0.6,1,1L48.5,264.9z"/>
				<path class="st7" d="M44.8,259c0,0.4-0.1,0.9-0.3,1.2c-0.3,0.4-0.6,0.7-1,0.9l-3.2,1.7c-0.4,0.2-0.9,0.4-1.4,0.4
					c-0.4,0-0.9-0.1-1.2-0.4c-0.8-0.6-1.3-1.5-1.3-2.5c0-0.4,0.1-0.9,0.3-1.2c0.3-0.4,0.6-0.7,1.1-0.9l3.1-1.7
					c0.4-0.2,0.9-0.4,1.4-0.4c0.4,0,0.9,0.1,1.2,0.4C44.2,257.2,44.7,258.1,44.8,259L44.8,259z M42.6,257.9
					c-0.2-0.1-0.3-0.2-0.5-0.1c-0.2,0-0.4,0.1-0.6,0.2l-3,1.6c-0.2,0.1-0.3,0.2-0.5,0.4c-0.1,0.2-0.2,0.3-0.2,0.5
					c0,0.2,0.1,0.4,0.2,0.6c0.1,0.2,0.2,0.3,0.4,0.4c0.2,0.1,0.3,0.2,0.5,0.1c0.2,0,0.4-0.1,0.6-0.2l3-1.6c0.2-0.1,0.3-0.2,0.5-0.4
					c0.1-0.2,0.2-0.3,0.2-0.5C43.1,258.6,42.9,258.2,42.6,257.9L42.6,257.9z"/>
				<path class="st7" d="M41.2,251.7l0.7,1.4l-7.7,3.8l-0.7-1.4L41.2,251.7z"/>
				<path class="st7" d="M32.2,252.8l-0.6-1.4l4.6-4.9l0.2,0.1l-5.8,2.6l-0.6-1.3l7.8-3.4l0.6,1.4l-4.4,4.8l-0.2-0.1l5.6-2.5
					l0.6,1.3L32.2,252.8z"/>
				<path class="st7" d="M17.4,169.6l0.1-1.5l8.6,0.8l-0.1,1.5L17.4,169.6z M24.6,169.5l0.2-2c0-0.2,0-0.5-0.1-0.7
					c-0.1-0.2-0.3-0.3-0.5-0.3l-0.6-0.1c-0.2,0-0.3,0-0.5,0.1c-0.1,0.1-0.2,0.1-0.3,0.3c-0.1,0.1-0.1,0.3-0.1,0.5l-0.2,2l-1.5-0.1
					l0.2-2c0-0.2,0-0.4-0.1-0.6c-0.1-0.2-0.4-0.3-0.6-0.3h-0.5c-0.2,0-0.4,0-0.5,0.2c-0.1,0.2-0.2,0.4-0.2,0.6l-0.2,2l-1.5-0.1
					l0.2-2.1c0-0.4,0.2-0.8,0.4-1.2c0.2-0.3,0.4-0.5,0.8-0.7c0.4-0.1,0.7-0.2,1.1-0.1h0.5c0.3,0,0.5,0.1,0.8,0.2
					c0.2,0.1,0.4,0.3,0.5,0.6c0.1,0.3,0.2,0.5,0.2,0.8c0.1-0.3,0.2-0.6,0.4-0.8c0.2-0.2,0.4-0.4,0.6-0.5c0.3-0.1,0.6-0.1,0.9-0.1
					l0.6,0.1c0.4,0,0.8,0.1,1.1,0.4c0.3,0.2,0.5,0.5,0.6,0.8c0.1,0.4,0.2,0.8,0.1,1.2l-0.2,2.2L24.6,169.5z"/>
				<path class="st7" d="M26.9,161.4l-0.2,1.6l-8.5-1.1l0.2-1.6L26.9,161.4z"/>
				<path class="st7" d="M20.9,153.3l5.2,3.7l0.5-2.9l1.5,0.3l-0.8,4.6l-1.3-0.2l-5.2-3.8l-0.5,2.7l-1.5-0.3l0.7-4.4L20.9,153.3z"/>
				<path class="st7" d="M22.3,146.4l5,4l0.6-2.9l1.5,0.3l-1,4.5l-1.4-0.3l-5-4l-0.5,2.7l-1.5-0.3l0.9-4.4L22.3,146.4z"/>
				<path class="st7" d="M30.4,144l-0.5,0.5c-0.3,0.3-0.7,0.5-1.1,0.6c-0.5,0.1-1,0.1-1.5-0.1l-3.3-0.9c-0.5-0.1-1-0.3-1.3-0.7
					c-0.3-0.3-0.6-0.7-0.7-1.1c-0.1-0.5-0.1-1,0-1.4c0.1-0.5,0.4-0.9,0.7-1.2c0.3-0.3,0.7-0.5,1.1-0.6c0.6-0.1,1.1-0.1,1.7,0.1
					l-0.4,1.5c-0.3,0-0.5,0-0.8,0c-0.2,0-0.4,0.1-0.5,0.2c-0.1,0.1-0.2,0.3-0.3,0.4c-0.1,0.2-0.1,0.4,0,0.6c0.1,0.2,0.2,0.3,0.3,0.4
					c0.2,0.1,0.4,0.2,0.6,0.3l3.3,0.9c0.2,0,0.4,0,0.6,0c0.2,0,0.3-0.1,0.5-0.2c0.1-0.1,0.2-0.3,0.3-0.5c0.1-0.2,0.1-0.4,0-0.5
					c-0.1-0.2-0.2-0.4-0.3-0.5c-0.2-0.2-0.5-0.3-0.7-0.3l0.4-1.5c0.5,0.2,1,0.4,1.5,0.8c0.3,0.3,0.6,0.6,0.7,1.1
					c0.1,0.5,0.1,0.9,0,1.4L30.4,144z"/>
				<path class="st7" d="M32,137.2c-0.3,0.3-0.7,0.5-1.1,0.6c-0.5,0.1-1,0.1-1.4-0.1l-3.4-1.1c-0.5-0.1-0.9-0.4-1.2-0.7
					c-0.3-0.3-0.5-0.7-0.6-1.1c-0.1-1,0.2-2,0.8-2.7c0.3-0.3,0.7-0.5,1.1-0.6c0.5-0.1,1-0.1,1.4,0.1l3.4,1.1
					c0.5,0.1,0.9,0.4,1.2,0.7c0.3,0.3,0.5,0.7,0.6,1.1C33,135.4,32.6,136.4,32,137.2L32,137.2z M31.3,134.9c0-0.2-0.1-0.4-0.3-0.5
					c-0.2-0.1-0.3-0.2-0.5-0.3l-3.3-1c-0.2-0.1-0.4-0.1-0.6-0.1c-0.2,0-0.4,0.1-0.5,0.2c-0.1,0.1-0.3,0.3-0.3,0.5
					c-0.1,0.2-0.1,0.4,0,0.6c0,0.2,0.1,0.3,0.3,0.5c0.1,0.1,0.3,0.3,0.5,0.3l3.3,1c0.2,0.1,0.4,0.1,0.6,0.1c0.2,0,0.4-0.1,0.5-0.2
					c0.1-0.1,0.2-0.3,0.3-0.5C31.3,135.3,31.3,135.1,31.3,134.9z"/>
				<path class="st7" d="M34.8,129.5l-0.5,1.5l-8.1-2.9l0.5-1.5L34.8,129.5z"/>
				<path class="st7" d="M27.7,123.8l0.6-1.4l6.7-0.1l0.1,0.2l-5.9-2.4l0.5-1.3l8,3.2l-0.6,1.5l-6.5,0.2l-0.1-0.2l5.7,2.3l-0.5,1.3
					L27.7,123.8z"/>
				<path class="st7" d="M76.9,55.1l1.2-1l5.4,6.7l-1.2,1L76.9,55.1z M82,60.2l1.6-1.3c0.2-0.1,0.3-0.3,0.4-0.6c0-0.2,0-0.4-0.2-0.6
					l-0.4-0.5c-0.1-0.1-0.2-0.2-0.4-0.3c-0.1,0-0.3,0-0.4,0c-0.2,0-0.3,0.1-0.4,0.2l-1.6,1.3l-0.9-1.1l1.5-1.2
					c0.2-0.1,0.3-0.3,0.3-0.5c0-0.2-0.1-0.4-0.2-0.6L81,54.6c-0.1-0.2-0.3-0.3-0.5-0.3c-0.2,0-0.4,0.1-0.6,0.2l-1.5,1.2l-0.9-1.1
					l1.6-1.3c0.3-0.3,0.7-0.5,1.1-0.5c0.3-0.1,0.7-0.1,1,0.1c0.4,0.2,0.7,0.4,0.9,0.7l0.3,0.4c0.2,0.2,0.3,0.5,0.4,0.7
					c0.1,0.2,0.1,0.5,0,0.8c-0.1,0.3-0.2,0.5-0.4,0.7c0.3-0.2,0.5-0.3,0.8-0.3c0.3,0,0.5,0,0.8,0.1c0.3,0.1,0.5,0.3,0.7,0.5l0.4,0.5
					c0.2,0.3,0.4,0.6,0.5,1c0.1,0.3,0,0.7-0.2,1c-0.2,0.4-0.5,0.7-0.8,0.9l-1.7,1.4L82,60.2z"/>
				<path class="st7" d="M89.5,56.2l-1.3,0.9l-5.1-6.9l1.3-0.9L89.5,56.2z"/>
				<path class="st7" d="M91,46.3l0.9,6.3l2.4-1.7l0.8,1.2l-3.8,2.7l-0.8-1.1l-0.9-6.3l-2.3,1.6l-0.8-1.2l3.7-2.5L91,46.3z"/>
				<path class="st7" d="M97,42.5l0.7,6.3l2.5-1.6l0.8,1.3L97,51l-0.7-1.2l-0.7-6.4l-2.3,1.5l-0.8-1.3l3.8-2.4L97,42.5z"/>
				<path class="st7" d="M104.4,46.5h-0.7c-0.4,0-0.9-0.1-1.2-0.4c-0.4-0.3-0.8-0.7-1-1.1l-1.7-2.9c-0.3-0.4-0.4-0.9-0.5-1.4
					c0-0.4,0.1-0.9,0.3-1.2c0.3-0.4,0.6-0.8,1.1-1c0.4-0.2,0.9-0.4,1.3-0.4c0.4,0,0.9,0.2,1.2,0.4c0.5,0.3,0.9,0.8,1.2,1.3l-1.4,0.8
					c-0.1-0.2-0.3-0.4-0.5-0.6c-0.1-0.1-0.3-0.2-0.5-0.2c-0.2,0-0.4,0-0.5,0.1c-0.2,0.1-0.3,0.2-0.4,0.4c-0.1,0.2-0.1,0.3-0.1,0.5
					c0,0.2,0.1,0.4,0.2,0.6l1.7,2.9c0.1,0.2,0.2,0.4,0.4,0.5c0.1,0.1,0.3,0.2,0.5,0.2c0.2,0,0.4-0.1,0.5-0.2
					c0.2-0.1,0.3-0.2,0.4-0.4c0.1-0.2,0.1-0.4,0.1-0.6c0-0.3-0.1-0.5-0.3-0.8l1.4-0.8c0.3,0.5,0.4,1,0.5,1.6c0,0.4,0,0.9-0.3,1.3
					c-0.2,0.4-0.6,0.7-1,1L104.4,46.5z"/>
				<path class="st7" d="M110.4,42.9c-0.4,0-0.9-0.1-1.2-0.4c-0.4-0.3-0.7-0.6-0.9-1.1l-1.6-3.2c-0.2-0.4-0.3-0.9-0.3-1.4
					c0-0.4,0.2-0.9,0.4-1.2c0.6-0.8,1.5-1.2,2.5-1.3c0.4,0,0.9,0.1,1.2,0.4c0.4,0.3,0.7,0.6,0.9,1.1L113,39c0.2,0.4,0.3,0.9,0.3,1.4
					c0,0.4-0.2,0.9-0.4,1.2C112.3,42.4,111.3,42.9,110.4,42.9L110.4,42.9z M111.5,40.8c0.1-0.2,0.2-0.3,0.2-0.5
					c0-0.2-0.1-0.4-0.2-0.6l-1.6-3.1c-0.1-0.2-0.2-0.3-0.4-0.5c-0.2-0.1-0.3-0.2-0.5-0.2c-0.4,0-0.8,0.2-1,0.5
					c-0.1,0.2-0.2,0.3-0.2,0.5c0,0.2,0.1,0.4,0.2,0.6l1.6,3.1c0.1,0.2,0.2,0.4,0.4,0.5c0.1,0.1,0.3,0.2,0.5,0.2c0.2,0,0.4,0,0.6-0.1
					C111.2,41.1,111.4,41,111.5,40.8z"/>
				<path class="st7" d="M117.8,39.5l-1.4,0.7l-3.6-7.8l1.4-0.7L117.8,39.5z"/>
				<path class="st7" d="M116.9,30.5l1.4-0.6l4.8,4.7l-0.1,0.2l-2.4-5.9l1.3-0.5l3.3,7.9l-1.5,0.6l-4.7-4.5l0.1-0.2l2.3,5.7
					l-1.3,0.5L116.9,30.5z"/>
			</g>
		</g>
		<path class="st5" d="M240.4,177.2c11.5-7.7,17.1-19.5,17.1-35.7c0-15.9-5.5-28.1-16.2-36.2c-9.8-7.3-23.7-11-41.4-11h-7.8v-13
			c0-1.1-0.9-1.9-1.9-1.9c-1.1,0-1.9,0.9-1.9,1.9l0,0v12.9h-15.3V81.4c0-1.1-0.9-1.9-1.9-1.9c-1.1,0-1.9,0.9-1.9,1.9l0,0v12.9h-49.4
			c-2.7,0-4.9,2.2-4.9,4.9v172.3c0,1.8,1.4,3.2,3.2,3.2c0,0,0,0,0,0h51.1v10.5c0,1.1,0.9,1.9,1.9,1.9c1.1,0,1.9-0.9,1.9-1.9v-10.5
			h15.3v10.5c0,1.1,0.9,1.9,1.9,1.9c1.1,0,1.9-0.9,1.9-1.9v-10.5h5c19.9,0,36.4-4.7,47.8-13.6c6-4.7,10.8-10.8,13.9-17.7
			c3.4-7.8,5.1-16.3,4.9-24.8C263.7,198.3,256.4,185.3,240.4,177.2z M188.3,100.7v32.7h-15.3v-32.7H188.3z M121.2,268.3V100.7h48
			v32.7h-23.4c-1.8,0-3.2,1.4-3.2,3.2s1.4,3.2,3.2,3.2l0,0H214l-71.6,90.3c-1.1,1.4-0.9,3.4,0.5,4.5c0.6,0.4,1.3,0.7,2,0.7h24.2v33
			L121.2,268.3z M172.9,268.3v-33h15.3v33H172.9z M197,268.3h-5v-33h27.4c1.8,0,3.2-1.4,3.2-3.2s-1.4-3.2-3.2-3.2h-67.9l71.6-90.3
			c1.1-1.4,0.9-3.4-0.5-4.5c-0.6-0.4-1.3-0.7-2-0.7h-28.5v-32.8h7.7c16.3,0,29,3.3,37.6,9.8c9.1,6.8,13.7,17.2,13.7,31.1
			c0,16.2-6.1,26.8-19.2,33.2c-1.6,0.8-2.2,2.7-1.5,4.3c0.4,0.7,1,1.3,1.7,1.6c17.6,6.8,25.1,18.2,25.1,38
			C257.3,261.8,219.5,268.3,197,268.3L197,268.3z"/>
		<path class="st1" d="M207.2,213.2h-33.8c-1.8,0-3.2,1.4-3.2,3.2s1.4,3.2,3.2,3.2h33.8c1.8,0,3.2-1.4,3.2-3.2
			S209,213.2,207.2,213.2L207.2,213.2z"/>
		<path class="st1" d="M155.9,157.1h33.8c1.8,0,3.2-1.4,3.2-3.2s-1.4-3.2-3.2-3.2h-33.8c-1.8,0-3.2,1.4-3.2,3.2
			S154.1,157.1,155.9,157.1L155.9,157.1z"/>
		<path class="st1" d="M170.9,79.7h0.8c0.9,0,1.7,0.8,1.7,1.7v51.3c0,0.9-0.8,1.7-1.7,1.7h-0.8c-0.9,0-1.7-0.8-1.7-1.7V81.4
			C169.2,80.4,169.9,79.7,170.9,79.7z"/>
		<path class="st1" d="M190.1,79.7h0.8c0.9,0,1.7,0.8,1.7,1.7v51.3c0,0.9-0.8,1.7-1.7,1.7h-0.8c-0.9,0-1.7-0.8-1.7-1.7V81.4
			C188.4,80.4,189.2,79.7,190.1,79.7z"/>
		<path class="st1" d="M170.9,232.7h0.8c0.9,0,1.7,0.8,1.7,1.7v51.3c0,0.9-0.8,1.7-1.7,1.7h-0.8c-0.9,0-1.7-0.8-1.7-1.7v-51.3
			C169.2,233.4,169.9,232.7,170.9,232.7z"/>
		<path class="st1" d="M190.1,232.7h0.8c0.9,0,1.7,0.8,1.7,1.7v51.3c0,0.9-0.8,1.7-1.7,1.7h-0.8c-0.9,0-1.7-0.8-1.7-1.7v-51.3
			C188.4,233.4,189.2,232.7,190.1,232.7z"/>
	</g>
</g>
</svg>
