<?xml version="1.0" encoding="utf-8"?>
<!-- Generator: Adobe Illustrator 25.0.1, SVG Export Plug-In . SVG Version: 6.00 Build 0)  -->
<svg version="1.1"
     height="120"
     width="120"
     id="Capa_1" xmlns="http://www.w3.org/2000/svg" xmlns:xlink="http://www.w3.org/1999/xlink" x="0px" y="0px"
	 viewBox="0 0 256 256" style="enable-background:new 0 0 256 256;" xml:space="preserve">
<style type="text/css">
	.st0{fill:#FFA214;}
</style>
<g>
	<g>
		<path class="st0" d="M128,255.6C57.6,255.6,0.4,198.4,0.4,128S57.6,0.4,128,0.4S255.6,57.6,255.6,128S198.4,255.6,128,255.6z
			 M128,18C67.3,18,18,67.3,18,128s49.4,110,110,110s110-49.4,110-110S188.7,18,128,18z"/>
	</g>
	<path d="M168.5,77.1L168.5,77.1c-0.4-4.5-1.7-8.2-4-11.3c-2.7-3.7-6.2-6.6-10.4-8.7c-4.2-2.1-9-3.5-14.3-4.3
		c-5.3-0.7-10.4-1.1-15.5-1.1c-6.2,0-12.3,0.2-18.3,0.7c-6.1,0.5-11.8,1.3-17.2,2.5l-29.3,122c5.3,1.2,11.4,2.1,18.3,2.6
		c4.5,0.4,8.8,0.6,12.9,0.7l0,0c0.5,0,1,0,1.5,0c1.2,0,2.5,0,3.7,0c0.2,0,0.3,0,0.5,0l0,0l0,0c0.3,0,0.7,0,1,0
		c6.4,0,12.3-0.4,17.7-1.1l0,0c12.5-1.6,22.6-5.2,30.3-10.5c7.2-5,12-11.4,14.5-19c1.4-4.2,2.1-8.8,2.1-13.8c0-3.5-0.6-6.7-1.8-9.7
		c-0.7-1.6-1.5-3.2-2.5-4.7c-2.9-4.1-7-7.3-12.4-9.4c8.5-3.5,14.5-8.1,18.1-13.8c0.4-0.6,0.8-1.3,1.1-1.9c2.8-5.1,4.2-10.6,4.2-16.3
		C168.6,79,168.6,78.1,168.5,77.1L168.5,77.1z M137.1,99.8c-1,0.7-2.1,1.2-3.3,1.7l0,0l-5.4,22.2l0,0l0,0c2,0.7,3.7,1.6,5,2.7
		c0.8,0.6,1.4,1.3,2,2c2.2,2.6,3.2,5.7,3.2,9.3c0,3.1-0.5,5.9-1.4,8.3c-0.6,1.4-1.3,2.7-2.1,3.9c-2.4,3.2-5.3,5.6-8.8,7.3
		c-2.1,1-4.3,1.8-6.6,2.4l0,0c-0.5,0.1-1,0.3-1.5,0.4l0,0l0,0c-1.2,0.3-2.4,0.5-3.7,0.7c-4.4,0.6-8.5,0.9-12.5,0.9h-0.7
		c-1.6,0-3.1,0-4.6-0.1c-1.4,0-2.7-0.1-4-0.2c-2.8-0.2-5-0.4-6.7-0.6l9.4-38.7h10.8l0,0l3-12.5l1.2-5.2l0,0H99.6l8-33.2
		c1.7-0.2,3.9-0.4,6.7-0.6c2.8-0.2,5.6-0.3,8.4-0.3c7,0,12.6,1,16.8,3.1c1.4,0.7,2.6,1.6,3.5,2.7l0,0l0,0l0,0
		c1.9,2.2,2.8,5.1,2.8,8.8c0,3.5-0.8,6.5-2.4,8.9c-0.2,0.3-0.4,0.6-0.6,0.9C141.3,96.6,139.4,98.3,137.1,99.8z"/>
</g>
<path class="st0" d="M106.1,122l-9.5,39.5c1.5,0.1,3,0.1,4.6,0.1h0h0.7c4,0,8.2-0.3,12.5-0.9c1.3-0.2,2.5-0.4,3.7-0.7
	c0.5-0.1,1-0.2,1.6-0.4l3.3-13.5h20.7c7.2,0,12.6,1.2,16.2,3.5c0.4,0.3,0.9,0.6,1.3,0.9c3.5,3,5.3,6.8,5.3,11.4c0,5-1.2,9-3.6,12.2
	c-2.4,3.2-5.3,5.6-8.8,7.3c-3.5,1.7-7.4,2.9-11.8,3.5c-4.4,0.6-8.5,0.9-12.5,0.9c-3.4,0-6.5-0.1-9.3-0.3c-2.8-0.2-5-0.4-6.7-0.6
	l1.3-5.6c-5.4,0.7-11.4,1.1-17.7,1.1c-0.3,0-0.7,0-1,0c-1.4,0-2.7,0-4.1-0.1l0,0l-5,20.7c5.3,1.2,11.4,2.1,18.3,2.6
	c6.8,0.5,13.3,0.8,19.5,0.8c20.9,0,36.9-3.9,48-11.6c11.1-7.8,16.6-18.7,16.6-32.9c0-5.4-1.4-10.2-4.4-14.3c-2.9-4.1-7-7.3-12.3-9.4
	c8.5-3.5,14.5-8.1,18.1-13.8c3.6-5.7,5.3-11.7,5.3-18.2c0-5.8-1.3-10.6-4.1-14.3c-2.7-3.7-6.2-6.6-10.4-8.7c-4-2-8.4-3.4-13.3-4.1
	c0,0.3,0.1,0.6,0.1,0.9c0,0.2,0,0.4,0,0.6c0,0.1,0,0.3,0,0.4c0,0.1,0,0.2,0,0.4c0,0.3,0,0.5,0,0.8c0,0.2,0,0.4,0,0.7c0,0,0,0,0,0
	c0,0,0,0,0,0c0,0.2,0,0.3,0,0.5c0,0.3,0,0.6,0,1c0,0.2,0,0.4,0,0.6c0,0.2,0,0.3,0,0.5c0,0.4-0.1,0.7-0.1,1.1c-0.1,0.5-0.1,1-0.2,1.6
	c0,0.2-0.1,0.3-0.1,0.5c0,0.2-0.1,0.5-0.1,0.7c0,0.2-0.1,0.4-0.1,0.5c-0.1,0.4-0.2,0.7-0.3,1c0,0.2-0.1,0.3-0.1,0.5
	c-0.1,0.2-0.1,0.5-0.2,0.7c-0.1,0.2-0.1,0.5-0.2,0.7c-0.1,0.2-0.1,0.4-0.2,0.6c0,0,0,0,0,0.1c-0.1,0.2-0.2,0.4-0.2,0.7
	c-0.1,0.2-0.2,0.4-0.2,0.6c-0.1,0.2-0.2,0.4-0.3,0.7c-0.1,0.2-0.1,0.3-0.2,0.5c-0.1,0.2-0.2,0.5-0.3,0.7c-0.2,0.3-0.3,0.6-0.5,1
	c-0.2,0.3-0.3,0.6-0.5,1v0c1,0.3,1.9,0.7,2.8,1.1c4.2,2.1,6.3,5.9,6.3,11.4c0,3.5-0.8,6.5-2.4,8.9c-1.6,2.4-3.7,4.5-6.3,6.1
	c-1.4,0.9-3,1.6-4.7,2.3c-1.4,0.5-2.9,0.9-4.5,1.3c-3.5,0.7-7.2,1.1-10.9,1.1h-17.5l1.2-4.8v0c0,0,0,0,0,0l5.4-22.2l1.5-6.2
	c1.7-0.2,3.9-0.4,6.7-0.6c0.2,0,0.5,0,0.8,0c0.2-0.3,0.4-0.6,0.6-0.9c1.6-2.4,2.4-5.4,2.4-8.9c0-3.7-0.9-6.6-2.8-8.8
	c-3.1,0.1-6.2,0.3-9.3,0.6c-6.1,0.5-11.8,1.3-17.3,2.5l-6.1,25.3L106.1,122"/>
</svg>
