<?xml version="1.0" encoding="utf-8"?>
<!-- Generator: Adobe Illustrator 25.0.1, SVG Export Plug-In . SVG Version: 6.00 Build 0)  -->
<svg version="1.1"
     height="120px"
     width="120px"
	 id="svg4247" inkscape:version="0.91 r13725" sodipodi:docname="template.svg" xmlns:cc="http://creativecommons.org/ns#" xmlns:dc="http://purl.org/dc/elements/1.1/" xmlns:inkscape="http://www.inkscape.org/namespaces/inkscape" xmlns:rdf="http://www.w3.org/1999/02/22-rdf-syntax-ns#" xmlns:sodipodi="http://sodipodi.sourceforge.net/DTD/sodipodi-0.dtd" xmlns:svg="http://www.w3.org/2000/svg"
	 xmlns="http://www.w3.org/2000/svg" xmlns:xlink="http://www.w3.org/1999/xlink" x="0px" y="0px" viewBox="0 0 120 120"
	 style="enable-background:new 0 0 120 120;" xml:space="preserve">
<style type="text/css">
	.st0{fill:url(#path4251-6_1_);}
	.st1{fill:#FFFFFF;}
	.st2{display:none;opacity:0.5;fill:none;stroke:#000000;stroke-width:0.5;enable-background:new    ;}
	.st3{fill:none;}
	.st4{fill:#FFA214;}
</style>
<sodipodi:namedview  bordercolor="#666666" borderopacity="1" gridtolerance="10" guidetolerance="10" id="namedview4255" inkscape:current-layer="svg4247" inkscape:cx="68.478831" inkscape:cy="61.741873" inkscape:pageopacity="0" inkscape:pageshadow="2" inkscape:window-height="1023" inkscape:window-maximized="1" inkscape:window-width="1920" inkscape:window-x="0" inkscape:window-y="27" inkscape:zoom="6.4921875" objecttolerance="10" pagecolor="#ffffff" showgrid="false">
	</sodipodi:namedview>
<linearGradient id="path4251-6_1_" gradientUnits="userSpaceOnUse" x1="-1074.4565" y1="641.4407" x2="-722.608" y2="487.0542" gradientTransform="matrix(-1.0091 0 0 1.0091 -755.1855 -467.9421)">
	<stop  offset="0" style="stop-color:#1A1A1A"/>
	<stop  offset="1" style="stop-color:#1A1A1A;stop-opacity:0"/>
</linearGradient>
<path id="path4251-6" inkscape:connector-curvature="0" class="st0" d="M6.7,48.1C14.1,18.3,44.2,0.2,73.9,7.7
	c29.7,7.4,47.8,37.5,40.4,67.3c-7.4,29.7-37.5,47.8-67.3,40.4C17.3,107.9-0.8,77.8,6.7,48.1z"/>
<path id="path4251" inkscape:connector-curvature="0" class="st1" d="M113.4,73.3c-7.3,29.5-37.2,47.4-66.7,40
	C17.2,106-0.7,76.2,6.6,46.7C14,17.2,43.8-0.7,73.3,6.6C102.8,14,120.7,43.8,113.4,73.3z"/>
<path id="path6359" inkscape:connector-curvature="0" class="st2" d="M115,60c0,30.4-24.6,55-55,55C29.6,115,5,90.4,5,60
	C5,29.6,29.6,5,60,5C90.4,5,115,29.6,115,60"/>
<g>
	<path class="st3" d="M76,45.9c0-0.1,0.1-0.3,0.2-0.4c-0.1,0.3-0.3,0.5-0.4,0.8C75.9,46.1,75.9,46,76,45.9z"/>
	<path class="st3" d="M46.3,82.7L46.3,82.7L46.3,82.7L46.3,82.7z"/>
	<path class="st3" d="M67.6,40.2c0,0.2,0,0.3,0,0.5C67.7,40.5,67.6,40.3,67.6,40.2z"/>
	<path class="st3" d="M55,38.8c2.4-0.5,4.9-0.9,7.5-1.1c1.3-0.1,2.7-0.2,4-0.3l0,0c-0.4-0.5-0.9-0.9-1.5-1.2
		c-1.8-0.9-4.2-1.3-7.3-1.3c-1.2,0-2.4,0-3.6,0.1c-1.2,0.1-2.2,0.2-2.9,0.3l-3.5,14.4h4.7l0,0L51.9,52l-0.8,3.3l1.3-5.5L55,38.8z"/>
	<path class="st3" d="M60.2,58.1L60.2,58.1l-0.5,2.1h3.6c-0.3-0.3-0.6-0.6-0.9-0.9C61.8,58.8,61,58.4,60.2,58.1L60.2,58.1L60.2,58.1
		L60.2,58.1L60.2,58.1z"/>
	<path class="st3" d="M63.2,45.8l-0.6,2.7l0,0l0,0c0.5-0.2,1-0.5,1.4-0.7c1-0.6,1.8-1.4,2.5-2.3c-0.1,0-0.2,0-0.3,0
		C64.9,45.6,63.9,45.7,63.2,45.8z"/>
	<path class="st3" d="M76.3,45.1c0-0.1,0-0.1,0.1-0.2c0-0.1,0.1-0.2,0.1-0.3v0c-0.1,0.3-0.2,0.5-0.3,0.8
		C76.2,45.3,76.3,45.2,76.3,45.1z"/>
	<path class="st3" d="M67.7,40.7c0,0.2,0,0.4,0,0.6C67.7,41.1,67.7,40.9,67.7,40.7z"/>
	<path class="st3" d="M45.8,57.4l-4.1,16.8c0.7,0.1,1.7,0.2,2.9,0.3c0.6,0,1.1,0,1.7,0.1l4.1-17.1H45.8z"/>
	<path class="st3" d="M67,38.3c0,0,0,0.1,0,0.1C67.1,38.3,67,38.3,67,38.3z"/>
	<path class="st3" d="M66.8,37.9C66.8,37.9,66.8,38,66.8,37.9C66.8,37.9,66.8,37.9,66.8,37.9z"/>
	<path class="st3" d="M66.5,37.5L66.5,37.5C66.5,37.5,66.5,37.6,66.5,37.5C66.5,37.6,66.5,37.5,66.5,37.5z"/>
	<path class="st3" d="M55.8,73.9L55.8,73.9c0.2,0,0.4-0.1,0.7-0.2l0,0C56.2,73.8,56,73.8,55.8,73.9L55.8,73.9z"/>
	<path class="st3" d="M67.4,39.1c0,0,0,0.1,0,0.2C67.4,39.3,67.4,39.2,67.4,39.1z"/>
	<path class="st3" d="M67.5,77.6c-3.3,2.3-7.7,3.9-13.1,4.5l0,0l0,0l-0.6,2.4c0.7,0.1,1.7,0.2,2.9,0.3c1.2,0.1,2.6,0.1,4,0.1
		c1.7,0,3.6-0.1,5.4-0.4c1.9-0.3,3.6-0.7,5.1-1.5c1.5-0.7,2.8-1.8,3.8-3.2c1-1.3,1.6-3.1,1.6-5.3c0-2-0.8-3.6-2.3-4.9
		c-0.2-0.1-0.3-0.3-0.6-0.4C72.7,72.7,70.6,75.5,67.5,77.6z"/>
	<path class="st3" d="M67.2,38.7c0,0,0,0.1,0,0.1C67.3,38.8,67.2,38.7,67.2,38.7z"/>
	<path class="st3" d="M67.5,39.6c0,0.1,0,0.2,0,0.2C67.5,39.8,67.5,39.7,67.5,39.6z"/>
	<path class="st3" d="M77.2,42.5c0-0.1,0-0.1,0-0.2c0-0.1,0-0.2,0-0.3c0-0.1,0-0.1,0-0.2c0-0.2,0.1-0.4,0.1-0.6
		c-0.1,0.6-0.2,1.2-0.3,1.7C77.2,42.7,77.2,42.6,77.2,42.5z"/>
	<path class="st3" d="M77.6,38.6c0-0.1,0-0.2,0-0.3c0-0.1,0-0.3,0-0.4l0,0C77.5,38.2,77.6,38.4,77.6,38.6z"/>
	<path class="st3" d="M76.6,44.4c0-0.1,0.1-0.2,0.1-0.3c0,0,0,0,0,0c0-0.1,0.1-0.2,0.1-0.3c0,0,0,0,0,0c-0.1,0.3-0.2,0.6-0.3,0.8
		C76.6,44.5,76.6,44.5,76.6,44.4z"/>
	<path class="st3" d="M77.6,38.9c0,0,0-0.1,0-0.2c0,0,0-0.1,0-0.2c0,0.2,0,0.4,0,0.6C77.6,39.1,77.6,39,77.6,38.9z"/>
	<path class="st3" d="M60,12.4c-26.3,0-47.6,21.4-47.6,47.6s21.4,47.6,47.6,47.6c26.3,0,47.6-21.4,47.6-47.6
		C107.6,33.7,86.3,12.4,60,12.4z M87.2,57.5c-1.6,2.5-4.2,4.5-7.8,6c2.3,1,4.1,2.3,5.3,4.1c1.3,1.8,1.9,3.9,1.9,6.2
		c0,6.2-2.4,10.9-7.2,14.2c-4.8,3.3-11.7,5-20.8,5c-2.7,0-5.5-0.1-8.4-0.3c-2.9-0.2-5.6-0.6-7.9-1.1l2.2-9c-0.2,0-0.4,0-0.6,0l0,0
		c-1.8,0-3.7-0.2-5.6-0.3c-2.9-0.2-5.6-0.6-7.9-1.1L43,28.4c2.4-0.5,4.9-0.9,7.4-1.1c2.6-0.2,5.3-0.3,7.9-0.3c2.2,0,4.5,0.2,6.7,0.5
		c2.3,0.3,4.3,1,6.2,1.9c1.8,0.9,3.3,2.2,4.5,3.8c1,1.3,1.6,2.9,1.7,4.9l0,0c2.1,0.3,4,0.9,5.8,1.8c1.8,0.9,3.3,2.2,4.5,3.8
		c1.2,1.6,1.8,3.6,1.8,6.2C89.6,52.5,88.8,55.1,87.2,57.5z"/>
	<path class="st3" d="M77.5,40.6c0-0.1,0-0.1,0-0.2c0-0.1,0-0.2,0-0.3c0-0.1,0-0.3,0-0.4c0-0.1,0-0.1,0-0.2l0,0l0,0
		c0-0.1,0-0.2,0-0.3c0,0.6,0,1.2-0.1,1.8C77.5,40.9,77.5,40.8,77.5,40.6z"/>
	<path class="st3" d="M67.4,53.1c2.3,1,4.1,2.3,5.4,4.1c0.4,0.6,0.8,1.3,1.1,2c0.7-0.3,1.4-0.6,2-1c1.1-0.7,2-1.6,2.7-2.6
		c0.7-1,1-2.3,1-3.9c0-2.4-0.9-4.1-2.7-4.9c-0.4-0.2-0.8-0.3-1.2-0.5l0,0c-0.2,0.3-0.3,0.6-0.5,0.8C73.7,49.6,71.1,51.6,67.4,53.1z"
		/>
	<path class="st3" d="M77,43.5c0-0.1,0-0.2,0.1-0.3c0-0.1,0-0.1,0-0.2c0,0,0,0,0-0.1c-0.1,0.3-0.1,0.5-0.2,0.8
		C76.9,43.6,76.9,43.5,77,43.5z"/>
	<path class="st3" d="M56.4,73.7c1-0.3,1.9-0.6,2.9-1c1.5-0.7,2.8-1.8,3.8-3.2c0.4-0.5,0.7-1.1,0.9-1.7h-6.2L56.4,73.7z"/>
	<path d="M77.6,39.2c0-0.2,0-0.4,0-0.6c0-0.2,0-0.4,0-0.6l0,0l0,0c-0.3-4.1-2.8-6.9-6.2-8.7c-3.7-1.9-8.7-2.3-12.9-2.3
		c-5.1,0-10.5,0.3-15.4,1.4L30.3,81.2c3.9,0.9,9.3,1.3,13.5,1.5l0,0c0.2,0,0.4,0,0.6,0l0,0c0.6,0,1.2,0,1.8,0l0,0
		c2.9,0,5.6-0.1,8.1-0.5l0,0l0,0l0,0c9-1.3,16.5-4.6,19.4-12.8c-1.6-1-3.9-1.5-7-1.5h-2.8c-1.3,3.2-4.4,5-7.6,5.8l0,0
		c-0.2,0-0.4,0.1-0.6,0.2l0,0l0,0c-4.5,0.9-9.5,0.8-13.9,0.3l4.1-16.8h4.7l0,0c0.5-2.2,1.3-5.4,1.8-7.6l0,0h-4.7l3.5-14.4
		c4.5-0.4,12.2-1.2,15.3,2.1l0,0l0,0l0,0l0,0c0.9,1,1.2,2.4,1.2,3.8c0.1,3.5-2.2,5.9-5.2,7.2l0,0l-2.3,9.6l0,0l0,0
		c1.3,0.4,2.3,1.1,3,2.1c3.4,0,7.5,0.2,10.7-1c-1.2-2.9-3.4-4.9-6.5-6.1c4.1-1.7,6.7-3.8,8.3-6.8l0,0C77,44.1,77.6,41.7,77.6,39.2z"
		/>
	<g>
		<path class="st4" d="M60,4.7C29.5,4.7,4.7,29.5,4.7,60s24.8,55.3,55.3,55.3s55.3-24.8,55.3-55.3S90.5,4.7,60,4.7z M60,107.6
			c-26.3,0-47.6-21.4-47.6-47.6c0-26.3,21.4-47.6,47.6-47.6s47.6,21.4,47.6,47.6C107.6,86.3,86.3,107.6,60,107.6z"/>
		<path class="st4" d="M83.3,39.7c-1.7-0.9-3.6-1.5-5.8-1.8c0,0.3,0,0.5,0,0.8c0,0.3,0,0.5,0,0.8l0,0l0,0c0,1.6-0.3,3.1-0.8,4.5
			c0,0,0,0,0,0c-0.3,0.7-0.6,1.5-1,2.2l0,0c2.5,0.7,3.9,2.5,3.9,5.5c0,1.5-0.3,2.8-1,3.9c-1.1,1.7-2.8,2.9-4.8,3.6
			c-3.2,1.2-7.3,1-10.7,1h-3.6l0.5-2.1l0,0l0,0c0.5-2,2.6-10.5,3-12.3c0.8-0.1,2-0.2,3.2-0.3c1.6-2.1,1.9-5.8,0.1-8.1
			c-3.8,0.1-7.9,0.5-11.5,1.3c-1.2,4.8-3.3,13.9-4.5,18.6l0,0l-4.1,17.1c3.2,0.1,6.7,0,10-0.8l1.4-5.8c1.9,0,7.1,0,9,0
			c5.4,0,9.7,1.6,9.8,6.8c-0.1,11.3-14.9,10.8-22.8,9.9l0.6-2.4c-3,0.4-6.6,0.5-9.9,0.4l-2.2,9c4.7,1.1,11.4,1.5,16.4,1.5
			c9.1,0,16-1.7,20.8-5c4.8-3.4,7.2-8.1,7.2-14.2c0-4.8-2.8-8.5-7.2-10.3c3.7-1.5,6.3-3.5,7.8-6c2.6-4,3.3-10.2,0.6-14
			C86.6,41.9,85.1,40.6,83.3,39.7z"/>
	</g>
</g>
</svg>
