<svg width="120" height="120" viewBox="0 0 120 120" fill="none" xmlns="http://www.w3.org/2000/svg">
<path d="M6.66123 48.0739C14.0747 18.3418 44.1919 0.247248 73.9309 7.66162C103.658 15.0743 121.754 45.1896 114.337 74.92C106.927 104.656 76.8103 122.752 47.0799 115.339C17.3426 107.927 -0.752276 77.8077 6.66123 48.0739Z" fill="url(#paint0_linear_3_4)"/>
<path d="M113.354 73.3052C106.007 102.769 76.1612 120.701 46.6901 113.353C17.231 106.008 -0.702628 76.1634 6.64753 46.7009C13.9908 17.2332 43.8366 -0.700012 73.2992 6.64585C102.769 13.9917 120.7 43.8392 113.354 73.3052Z" fill="white"/>
<path opacity="0.5" d="M115 59.9997C115 90.3755 90.376 115 60.0003 115C29.6243 115 5 90.3755 5 59.9997C5 29.6242 29.6243 5 60.0003 5C90.3757 5 115 29.6242 115 59.9997Z" fill="white" stroke="black" stroke-width="0.5"/>
<path d="M60 115C90.3757 115 115 90.3757 115 60C115 29.6243 90.3757 5 60 5C29.6243 5 5 29.6243 5 60C5 90.3757 29.6243 115 60 115Z" fill="#010038"/>
<path d="M66.7092 57.3073L81.0039 27.8202C75.1893 24.1906 68.323 22.0872 60.9641 22.0872C40.0266 22.0872 23.0513 39.0596 23.0513 60C23.0513 80.9374 40.0236 97.9128 60.9641 97.9128C77.737 97.9128 91.9561 87.018 96.9518 71.9193L66.7092 57.3073ZM60.961 87.6435C45.5602 87.6435 33.0757 75.1591 33.0757 59.7582C33.0757 44.3574 45.5602 31.8729 60.961 31.8729C63.2699 31.8729 65.5154 32.16 67.6611 32.6889L54.0282 62.04L83.5878 76.0476C78.5227 83.068 70.2783 87.6435 60.961 87.6435Z" fill="#8CC63F"/>
<path opacity="0.41" d="M66.7092 57.3073L81.0039 27.8202C75.1893 24.1906 68.323 22.0872 60.9641 22.0872C40.0266 22.0872 23.0513 39.0596 23.0513 60C23.0513 80.9374 40.0236 97.9128 60.9641 97.9128C77.737 97.9128 91.9561 87.018 96.9518 71.9193L66.7092 57.3073ZM60.961 87.6435C45.5602 87.6435 33.0757 75.1591 33.0757 59.7582C33.0757 44.3574 45.5602 31.8729 60.961 31.8729C63.2699 31.8729 65.5154 32.16 67.6611 32.6889L54.0282 62.04L83.5878 76.0476C78.5227 83.068 70.2783 87.6435 60.961 87.6435Z" fill="url(#paint1_linear_3_4)"/>
<defs>
<linearGradient id="paint0_linear_3_4" x1="339.068" y1="156.473" x2="-15.9791" y2="0.682859" gradientUnits="userSpaceOnUse">
<stop stop-color="#1A1A1A"/>
<stop offset="1" stop-color="#1A1A1A" stop-opacity="0"/>
</linearGradient>
<linearGradient id="paint1_linear_3_4" x1="23.0494" y1="59.9985" x2="96.9506" y2="59.9985" gradientUnits="userSpaceOnUse">
<stop offset="0.2198" stop-color="#003437"/>
<stop offset="0.6845" stop-color="white"/>
</linearGradient>
</defs>
</svg>
