<svg id="Layer_1" data-name="Layer 1" xmlns="http://www.w3.org/2000/svg" viewBox="0 0 500 500"><defs><style>.cls-1{fill:#ffb302;}</style></defs><rect class="cls-1" x="27.331" y="191.219" width="116.906" height="117.563"/><path class="cls-1" d="M256.731,329.032A79.032,79.032,0,1,1,335.763,250H452.669c0-108.214-87.725-195.938-195.938-195.938S60.793,141.786,60.793,250s87.724,195.938,195.938,195.938h0V329.032Z"/><path class="cls-1" d="M421.337,433.483a51.33,51.33,0,0,1-34.057,12.455,70.2,70.2,0,0,1-25.687-4.768,61.31,61.31,0,0,1-21.407-13.914,67.51,67.51,0,0,1-14.6-22.38q-5.449-13.231-5.449-30.164a67.424,67.424,0,0,1,20.434-48.943,70.807,70.807,0,0,1,22.477-14.6,72.355,72.355,0,0,1,27.926-5.351,76.916,76.916,0,0,1,17.9,2.042,63.882,63.882,0,0,1,15.86,6.033,62.526,62.526,0,0,1,13.136,9.536,48.37,48.37,0,0,1,9.536,12.553l-28.218,21.6a31.81,31.81,0,0,0-12.26-13.136,32.834,32.834,0,0,0-17.32-4.963,28.267,28.267,0,0,0-12.455,2.725,29.141,29.141,0,0,0-9.73,7.589,36.372,36.372,0,0,0-6.422,11.579,47.684,47.684,0,0,0,0,29.484,34.321,34.321,0,0,0,6.519,11.384,28.968,28.968,0,0,0,10.022,7.395,31.414,31.414,0,0,0,13.039,2.627q16.539,0,29.191-13.622H395.843V371.4h56.826v73.561H421.337Z"/></svg>