<?xml version="1.0" encoding="UTF-8"?>
<svg width="99px" height="99px" viewBox="0 0 99 99" version="1.1" xmlns="http://www.w3.org/2000/svg" xmlns:xlink="http://www.w3.org/1999/xlink">
    <!-- Generator: Sketch 46.2 (44496) - http://www.bohemiancoding.com/sketch -->
    <title>Logo-Icon</title>
    <desc>Created with Sketch.</desc>
    <defs></defs>
    <g id="Page-1" stroke="none" stroke-width="1" fill="none" fill-rule="evenodd">
        <g id="Logo-Icon" transform="translate(0.000000, -1.000000)" fill="#FF3A00">
            <path d="M70.5928,45.9668 C68.6148,35.9388 59.7408,28.6598 49.4928,28.6598 C47.8998,28.6598 46.2838,28.8368 44.6948,29.1858 C34.0018,31.5328 26.8838,41.2018 27.7688,52.1758 C28.1888,57.3848 30.1898,61.7658 33.8858,65.5708 L34.5988,66.3038 L35.5428,65.9068 C36.1548,65.6498 36.7328,65.4108 37.2818,65.1898 L39.4748,64.3048 L37.7398,62.6968 C35.1088,60.2598 33.4258,57.1778 32.7398,53.5348 C31.7398,48.2118 33.1058,43.2378 36.6878,39.1538 C39.8878,35.5048 44.5188,33.4118 49.3908,33.4118 C53.8238,33.4118 58.0018,35.1118 61.1548,38.1978 C64.7348,41.7028 66.4608,45.9528 66.2848,50.8298 C66.1118,55.7048 64.2738,59.7498 60.8228,62.8498 L59.0558,64.4388 L61.2498,65.3518 C61.8058,65.5818 62.3498,65.8288 62.8848,66.0908 L63.8548,66.5668 L64.6138,65.7968 C70.1598,60.1698 72.1158,53.6838 70.5928,45.9668" id="Fill-1"></path>
            <g id="Group-5" transform="translate(0.000000, 0.762700)">
                <path d="M49.374,6.6025 L49.378,6.6025 C60.85,6.6025 71.643,11.0815 79.77,19.2145 C87.899,27.3485 92.37,38.1425 92.359,49.6105 C92.339,73.3145 73.03,92.5985 49.317,92.5975 C25.646,92.5805 6.394,73.2945 6.4,49.6075 C6.408,25.8955 25.686,6.6035 49.374,6.6025 M49.387,0.2375 C22.169,0.2375 0.014,22.3625 -8.47032947e-22,49.5575 C-0.013,76.7925 22.107,98.9725 49.31,98.9995 L49.357,98.9995 C76.581,98.9995 98.736,76.8545 98.746,49.6325 C98.755,22.4405 76.613,0.2815 49.387,0.2375" id="Fill-3"></path>
            </g>
            <path d="M22.3203,74.2051 L23.4163,75.4291 L27.5273,71.0061 L26.6483,69.9871 C23.5243,66.3751 21.3643,62.1911 20.2283,57.5521 C18.8913,52.0891 19.0743,46.6121 20.7693,41.2731 C22.4743,35.9101 25.5083,31.3221 29.7853,27.6381 C35.2413,22.9351 42.2093,20.3461 49.4053,20.3461 C57.3093,20.3461 64.7483,23.3881 70.3513,28.9131 C75.8743,34.3561 78.8903,40.9631 79.3183,48.5491 C79.7843,56.8561 77.2243,64.2171 71.7113,70.4241 L70.8233,71.4251 L74.8523,75.9231 L75.9703,74.7221 C84.7833,65.2721 87.7343,51.1241 83.4883,38.6771 C78.5163,24.1011 64.8003,14.3071 49.3553,14.3071 C49.0833,14.3071 48.8093,14.3091 48.5363,14.3141 C33.3083,14.6491 19.8823,24.6021 15.1293,39.0821 C10.3263,53.7071 15.6943,66.8141 22.3203,74.2051" id="Fill-6"></path>
        </g>
    </g>
</svg>