<svg xmlns="http://www.w3.org/2000/svg" width="120" height="120"><rect id="backgroundrect" width="100%" height="100%" x="0" y="0" fill="none" stroke="none"/>
    <style type="text/css">.st0{fill:url(#path4251-6_1_);}
        .st1{fill:#FFFFFF;}
        .st2{opacity:0.5;fill:#FFFFFF;stroke:#000000;stroke-width:0.5;enable-background:new    ;}
        .st3{fill:#F04E25;}</style>

    <g style="">
        <title>background</title>
        <rect fill="none" id="canvas_background" height="402" width="582" y="-1" x="-1"/>
    </g>
    <g style="" class="currentLayer"><path fill="#242424" fill-opacity="1" stroke="#242424" stroke-opacity="1" stroke-width="2" stroke-dasharray="none" stroke-linejoin="round" stroke-linecap="butt" stroke-dashoffset="" fill-rule="nonzero" opacity="0.32" marker-start="" marker-mid="" marker-end="" d="M5.5,61.75000048273495 C5.5,31.777625653766577 30.122582022786645,7.500002042302185 60.52083143363427,7.500002042302185 C90.91908084448191,7.500002042302185 115.5416628672685,31.777625653766577 115.5416628672685,61.75000048273495 C115.5416628672685,91.72237531170332 90.91908084448191,115.99999892316771 60.52083143363427,115.99999892316771 C30.122582022786645,115.99999892316771 5.5,91.72237531170332 5.5,61.75000048273495 z" id="svg_5" class="selected"/>
        <title>Layer 1</title>
        <path d="m6.7,48.1c7.4,-29.8 37.5,-47.9 67.2,-40.4c29.7,7.4 47.8,37.5 40.4,67.3c-7.4,29.7 -37.5,47.8 -67.3,40.4c-29.7,-7.5 -47.8,-37.6 -40.3,-67.3z" class="st0" id="path4251-6"/>
        <path d="m113.4,73.3c-7.3,29.5 -37.2,47.4 -66.7,40c-29.5,-7.3 -47.4,-37.1 -40.1,-66.6c7.4,-29.5 37.2,-47.4 66.7,-40.1c29.5,7.4 47.4,37.2 40.1,66.7z" class="st1" id="path4251"/>
        <path d="m56.8,74.7l3.6,-13.5l8.5,-3.1l2.1,-7.9l-0.2,-0.2l-8.3,3l6,-22.6l-17,0l-7.8,29.6l-6.5,2.4l-2.2,8.1l6.5,-2.4l-4.6,17.4l45.3,0l2.8,-10.8l-28.2,0" class="st1" id="path4985"/>
        <path d="m115,60c0,30.4 -24.6,55 -55,55c-30.4,0 -55,-24.6 -55,-55c0,-30.4 24.6,-55 55,-55c30.4,0 55,24.6 55,55" class="st2" id="path6359"/>
        <g id="svg_1" class="">
            <path id="svg_2" d="m103.4,61.1c-0.1,24.5 -20.1,43.2 -43.4,43c-23.4,-0.2 -43,-19.3 -42.8,-43.4c0.2,-23.5 19.2,-42.7 43.1,-42.7c23.8,-0.1 43,19.2 43.1,43.1zm-79,-0.1c0.1,20.2 16.4,35.9 35.8,36c20,0.1 36,-16.2 36,-35.8c0.1,-19.7 -15.8,-36 -35.8,-36c-19.7,-0.2 -35.9,15.7 -36,35.8z" class="st3"/>
            <path id="svg_3" d="m81.9,84.1c-1.3,-1.9 -2.8,-3.5 -4.5,-5c5.5,-5.5 8.2,-12 7.7,-19.7c-0.4,-6.8 -3.3,-12.5 -8.5,-17.1c-9.6,-8.4 -24.2,-8 -33.4,0.8c-3.3,3.1 -5.5,6.9 -6.8,11.3c-1.2,4.3 -1.2,8.7 -0.1,13c1.2,4.4 3.3,8.2 6.6,11.3c-0.9,0.8 -1.6,1.6 -2.4,2.4c-0.8,0.8 -1.5,1.7 -2.2,2.6c-7.3,-6.7 -12,-18.9 -8.4,-31.4c3.7,-13 15.5,-22.4 29.5,-22.9c14.3,-0.4 26.6,8.6 31,21.4c4.2,12.7 -0.2,25.8 -8.5,33.3z" class="st3"/>
            <path id="svg_4" d="m54.1,73.2c-2.4,0.5 -4.5,1.3 -6.6,2.4c-0.1,-0.1 -0.3,-0.2 -0.4,-0.3c-3.4,-3.2 -5.5,-7.1 -6.1,-11.8c-1.3,-10 5.4,-19.5 15.3,-21.5c10.4,-2.1 20.6,4.3 22.9,14.7c1.6,7.4 -0.5,13.7 -6,18.9c-0.2,0.2 -0.4,0.4 -0.7,0.2c-1.9,-1 -3.8,-1.8 -5.9,-2.3c-0.1,0 -0.1,0 -0.1,-0.1c0.1,-0.2 0.3,-0.2 0.5,-0.4c3.4,-1.9 5.7,-4.8 6.7,-8.6c1.9,-7.5 -2.9,-15.2 -10.5,-16.7c-7.6,-1.5 -15,3.6 -16.2,11.3c-0.9,5.7 1.8,11.1 6.7,14c0,-0.1 0.2,0 0.4,0.2z" class="st3"/>
        </g>
    </g>
</svg>