<?xml version="1.0" encoding="utf-8"?>
<!-- Generator: Adobe Illustrator 20.1.0, SVG Export Plug-In . SVG Version: 6.00 Build 0)  -->
<svg version="1.1" id="Layer_1" xmlns="http://www.w3.org/2000/svg" xmlns:xlink="http://www.w3.org/1999/xlink" x="0px" y="0px"
	 viewBox="0 0 144 144" style="enable-background:new 0 0 144 144;" xml:space="preserve">
<style type="text/css">
	.st0{fill:#F04E25;}
</style>
<g>
	<path class="st0" d="M142.8,72.1c-0.2,40.2-33,71-71.3,70.7C33,142.5,0.9,111.1,1.2,71.4C1.5,32.8,32.8,1.2,72,1.2
		C111.1,1.2,142.7,32.8,142.8,72.1z M12.9,72c0.1,33.2,26.9,59,58.9,59.1c32.8,0.1,59.1-26.6,59.2-58.9C131.1,39.9,105,13,72.1,13
		C39.8,12.9,13.1,38.9,12.9,72z"/>
	<path class="st0" d="M107.5,110c-2.2-3.1-4.6-5.8-7.4-8.3c9-9,13.4-19.8,12.6-32.4c-0.7-11.2-5.5-20.6-14-28.1
		C83,27.4,58.9,28,43.8,42.5c-5.4,5.1-9.1,11.3-11.1,18.5c-2,7.1-2,14.3-0.2,21.4c1.9,7.2,5.5,13.4,10.8,18.6c-1.4,1.3-2.7,2.6-4,4
		c-1.3,1.3-2.4,2.8-3.6,4.2c-12-11-19.7-31.1-13.8-51.6c6.1-21.3,25.5-36.9,48.5-37.6c23.5-0.7,43.7,14.1,50.9,35.2
		C128.4,76.1,121.2,97.6,107.5,110z"/>
	<path class="st0" d="M61.8,92.1C57.9,93,54.4,94.3,51,96c-0.2-0.2-0.5-0.4-0.7-0.5c-5.6-5.3-9-11.7-10-19.4
		c-2.2-16.4,8.9-32,25.1-35.3c17.1-3.5,33.8,7.1,37.6,24.1c2.7,12.1-0.8,22.5-9.9,31c-0.4,0.3-0.6,0.6-1.2,0.3
		c-3.1-1.7-6.3-2.9-9.7-3.8c-0.1,0-0.1,0-0.2-0.1c0.2-0.3,0.5-0.4,0.8-0.6c5.6-3.2,9.3-7.9,11-14.2c3.2-12.4-4.8-25-17.3-27.5
		c-12.5-2.5-24.6,5.9-26.6,18.5c-1.4,9.3,2.9,18.3,11,23C61.1,91.6,61.4,91.8,61.8,92.1z"/>
</g>
</svg>
