<?xml version="1.0" encoding="utf-8"?>
<!-- Generator: Adobe Illustrator 22.1.0, SVG Export Plug-In . SVG Version: 6.00 Build 0)  -->
<svg version="1.1"
	 id="svg4247" inkscape:version="0.91 r13725" sodipodi:docname="template.svg" xmlns:cc="http://creativecommons.org/ns#" xmlns:dc="http://purl.org/dc/elements/1.1/" xmlns:inkscape="http://www.inkscape.org/namespaces/inkscape" xmlns:rdf="http://www.w3.org/1999/02/22-rdf-syntax-ns#" xmlns:sodipodi="http://sodipodi.sourceforge.net/DTD/sodipodi-0.dtd" xmlns:svg="http://www.w3.org/2000/svg"
	 xmlns="http://www.w3.org/2000/svg" xmlns:xlink="http://www.w3.org/1999/xlink" x="0px" y="0px" viewBox="0 0 120 120"
	 style="enable-background:new 0 0 120 120;" xml:space="preserve">
<style type="text/css">
	.st0{fill:url(#path4251-6_1_);}
	.st1{fill:#FFFFFF;}
	.st2{opacity:0.5;fill:#FFFFFF;stroke:#000000;stroke-width:0.5;enable-background:new    ;}
	.st3{fill:#F04E25;}
</style>
<sodipodi:namedview  bordercolor="#666666" borderopacity="1" gridtolerance="10" guidetolerance="10" id="namedview4255" inkscape:current-layer="svg4247" inkscape:cx="68.478831" inkscape:cy="61.741873" inkscape:pageopacity="0" inkscape:pageshadow="2" inkscape:window-height="1023" inkscape:window-maximized="1" inkscape:window-width="1920" inkscape:window-x="0" inkscape:window-y="27" inkscape:zoom="6.4921875" objecttolerance="10" pagecolor="#ffffff" showgrid="false">
	</sodipodi:namedview>
<linearGradient id="path4251-6_1_" gradientUnits="userSpaceOnUse" x1="-887.3034" y1="832.5759" x2="-535.4548" y2="678.1893" gradientTransform="matrix(-1.0091 0 0 1.0091 -566.331 -660.8148)">
	<stop  offset="0" style="stop-color:#1A1A1A"/>
	<stop  offset="1" style="stop-color:#1A1A1A;stop-opacity:0"/>
</linearGradient>
<path id="path4251-6" inkscape:connector-curvature="0" class="st0" d="M6.7,48.1C14.1,18.3,44.2,0.2,73.9,7.7
	c29.7,7.4,47.8,37.5,40.4,67.3c-7.4,29.7-37.5,47.8-67.3,40.4C17.3,107.9-0.8,77.8,6.7,48.1z"/>
<path id="path4251" inkscape:connector-curvature="0" class="st1" d="M113.4,73.3c-7.3,29.5-37.2,47.4-66.7,40
	C17.2,106-0.7,76.2,6.6,46.7C14,17.2,43.8-0.7,73.3,6.6C102.8,14,120.7,43.8,113.4,73.3z"/>
<path id="path4985" inkscape:connector-curvature="0" class="st1" d="M56.8,74.7l3.6-13.5l8.5-3.1l2.1-7.9L70.8,50l-8.3,3l6-22.6
	h-17L43.7,60l-6.5,2.4L35,70.5l6.5-2.4l-4.6,17.4h45.3L85,74.7H56.8"/>
<path id="path5145" inkscape:connector-curvature="0" class="st1" d="M77.9,41.2c-2.7-6.8-9.4-7.4-17.1-5.9L58,25.7l-5.9,1.7
	l2.7,9.4c-1.5,0.4-3.1,0.9-4.7,1.4l-2.7-9.5l-5.9,1.7l2.8,9.7c-1.3,0.4-2.5,0.8-3.7,1.1l0,0l-8.1,2.3l1.8,6.3c0,0,4.3-1.3,4.3-1.2
	c2.4-0.7,3.6,0.5,4.1,1.6l3.2,11c0.2,0,0.4-0.1,0.6-0.1l-0.6,0.2l4.4,15.4c0.1,0.8,0,2.1-1.7,2.6c0.1,0-4.3,1.2-4.3,1.2l0.8,7.4
	l7.7-2.2c1.4-0.4,2.8-0.8,4.2-1.2l2.8,9.8l5.9-1.7l-2.8-9.7c1.6-0.4,3.1-0.9,4.7-1.3l2.8,9.6l5.9-1.7l-2.8-9.8
	c9.7-3.4,15.9-7.9,14.1-17.4c-1.5-7.7-5.9-10-11.9-9.7C78.6,49.8,79.9,46.2,77.9,41.2L77.9,41.2z M75.7,64.5
	C77.8,71.8,65,74.6,61,75.7l-3.7-13C61.3,61.6,73.5,56.9,75.7,64.5L75.7,64.5z M67.7,47c1.9,6.7-8.8,8.9-12.1,9.8l-3.4-11.8
	C55.6,44.1,65.7,40.1,67.7,47L67.7,47z"/>
<path id="path6359" inkscape:connector-curvature="0" class="st2" d="M115,60c0,30.4-24.6,55-55,55C29.6,115,5,90.4,5,60
	C5,29.6,29.6,5,60,5C90.4,5,115,29.6,115,60"/>
<g>
	<path class="st3" d="M103.4,61.1c-0.1,24.5-20.1,43.2-43.4,43c-23.4-0.2-43-19.3-42.8-43.4c0.2-23.5,19.2-42.7,43.1-42.7
		C84.1,17.9,103.3,37.2,103.4,61.1z M24.4,61c0.1,20.2,16.4,35.9,35.8,36c20,0.1,36-16.2,36-35.8c0.1-19.7-15.8-36-35.8-36
		C40.7,25,24.5,40.9,24.4,61z"/>
	<path class="st3" d="M81.9,84.1c-1.3-1.9-2.8-3.5-4.5-5c5.5-5.5,8.2-12,7.7-19.7c-0.4-6.8-3.3-12.5-8.5-17.1
		c-9.6-8.4-24.2-8-33.4,0.8c-3.3,3.1-5.5,6.9-6.8,11.3c-1.2,4.3-1.2,8.7-0.1,13c1.2,4.4,3.3,8.2,6.6,11.3c-0.9,0.8-1.6,1.6-2.4,2.4
		c-0.8,0.8-1.5,1.7-2.2,2.6c-7.3-6.7-12-18.9-8.4-31.4c3.7-13,15.5-22.4,29.5-22.9c14.3-0.4,26.6,8.6,31,21.4
		C94.6,63.5,90.2,76.6,81.9,84.1z"/>
	<path class="st3" d="M54.1,73.2c-2.4,0.5-4.5,1.3-6.6,2.4c-0.1-0.1-0.3-0.2-0.4-0.3c-3.4-3.2-5.5-7.1-6.1-11.8
		C39.7,53.5,46.4,44,56.3,42c10.4-2.1,20.6,4.3,22.9,14.7c1.6,7.4-0.5,13.7-6,18.9c-0.2,0.2-0.4,0.4-0.7,0.2c-1.9-1-3.8-1.8-5.9-2.3
		c-0.1,0-0.1,0-0.1-0.1c0.1-0.2,0.3-0.2,0.5-0.4c3.4-1.9,5.7-4.8,6.7-8.6c1.9-7.5-2.9-15.2-10.5-16.7c-7.6-1.5-15,3.6-16.2,11.3
		c-0.9,5.7,1.8,11.1,6.7,14C53.7,72.9,53.9,73,54.1,73.2z"/>
</g>
</svg>
