<?xml version="1.0" standalone="no"?>
<!DOCTYPE svg PUBLIC "-//W3C//DTD SVG 20010904//EN"
 "http://www.w3.org/TR/2001/REC-SVG-20010904/DTD/svg10.dtd">
<svg version="1.0" xmlns="http://www.w3.org/2000/svg"
 width="5906.000000pt" height="5907.000000pt" viewBox="0 0 5906.000000 5907.000000"
 preserveAspectRatio="xMidYMid meet">

<g transform="translate(0.000000,5907.000000) scale(0.100000,-0.100000)"
fill="#FFFFFF" stroke="none">
<path d="M28845 45439 c-2896 -124 -5676 -1025 -8095 -2624 -1369 -905 -2618
-2047 -3654 -3340 -762 -951 -1443 -2037 -1949 -3110 -132 -280 -136 -288
-267 -595 -1299 -3041 -1610 -6441 -889 -9705 777 -3516 2768 -6700 5604
-8966 3195 -2553 7197 -3766 11290 -3423 4504 377 8635 2665 11371 6299 2465
3274 3561 7351 3078 11455 -186 1587 -617 3141 -1281 4627 -220 492 -575 1173
-863 1653 -915 1526 -2087 2896 -3455 4041 -2592 2169 -5806 3455 -9170 3669
-472 30 -1265 39 -1720 19z m835 -5099 c139 -22 282 -123 348 -248 66 -124 62
76 62 -2790 l0 -2604 -357 4 c-345 4 -360 5 -416 27 -109 43 -194 128 -239
240 l-23 56 -3 2650 c-1 1458 0 2656 3 2663 6 15 526 17 625 2z m-1442 -3802
l-4 -1243 -22 -75 c-63 -206 -192 -358 -377 -446 -121 -57 -168 -66 -413 -71
l-223 -6 3 1104 3 1104 27 99 c84 305 291 552 571 681 117 54 269 91 390 94
l48 1 -3 -1242z m2902 1228 c344 -52 630 -269 781 -591 51 -108 77 -212 90
-350 6 -67 9 -505 7 -1115 l-3 -1005 -155 -3 c-345 -7 -511 45 -675 212 -82
84 -135 170 -173 281 l-27 80 -3 1253 -2 1252 32 0 c18 0 76 -7 128 -14z
m-5116 -1881 c189 -53 340 -182 421 -359 51 -111 55 -147 55 -501 l0 -325
-297 0 c-164 0 -327 5 -363 10 -143 23 -260 111 -327 247 l-38 77 -3 439 -3
439 248 -5 c189 -4 262 -9 307 -22z m7724 -365 c2 -247 -1 -408 -8 -449 -31
-183 -181 -331 -365 -361 -33 -5 -196 -10 -362 -10 l-303 0 0 304 c0 356 8
417 71 545 72 146 221 276 374 325 85 27 161 34 380 32 l210 -1 3 -385z m2042
-2314 c0 -136 -43 -348 -100 -492 -193 -484 -582 -822 -1100 -952 l-105 -27
-5611 -2 -5612 -3 5 67 c25 411 179 755 462 1033 221 218 508 367 808 419 105
19 244 19 5681 20 l5572 1 0 -64z m-3720 -2975 c0 -172 -65 -432 -152 -605
-91 -182 -230 -365 -367 -483 -207 -178 -435 -292 -709 -355 l-97 -23 -3742
-2 -3743 -3 5 42 c2 24 7 76 10 117 24 317 182 660 418 907 261 274 605 441
976 474 47 4 1732 8 3744 9 l3657 1 0 -79z m3717 -3033 c-35 -609 -459 -1157
-1047 -1352 -139 -46 -234 -64 -394 -77 -86 -6 -1757 -9 -4916 -6 l-4785 3
-110 21 c-322 64 -588 205 -815 432 -257 257 -420 599 -445 932 -3 41 -8 93
-10 117 l-5 42 6267 0 6266 0 -6 -112z m-9289 -3181 l-3 -442 -34 -70 c-66
-133 -191 -224 -336 -245 -38 -5 -202 -10 -363 -10 l-293 0 3 348 c4 331 5
350 27 412 87 246 283 404 551 444 14 2 121 4 238 5 l213 1 -3 -443z m6692
433 c140 -22 261 -81 359 -173 65 -62 137 -179 168 -271 l27 -81 0 -335 1
-335 -335 0 c-302 0 -340 2 -390 19 -154 53 -271 184 -300 335 -6 31 -10 225
-10 452 l0 399 208 0 c114 0 236 -5 272 -10z m-5725 -45 c387 -111 665 -415
740 -808 13 -68 15 -237 15 -1153 l0 -1074 -206 0 c-238 0 -306 11 -429 70
-189 91 -324 256 -375 456 -19 75 -20 116 -20 1312 l0 1235 93 -6 c51 -3 132
-18 182 -32z m4565 -1180 c0 -1347 2 -1299 -65 -1442 -19 -40 -48 -93 -64
-117 -78 -113 -214 -214 -352 -261 -82 -28 -91 -29 -322 -33 l-238 -4 4 1094
c4 1201 0 1126 66 1308 77 209 215 382 409 508 149 97 341 160 495 161 l67 1
0 -1215z m-2327 1130 c182 -38 328 -183 372 -366 13 -56 15 -381 15 -2667 l0
-2604 -357 4 c-342 4 -360 5 -415 26 -108 43 -196 131 -240 240 l-23 57 -3
2650 c-1 1458 0 2656 3 2663 7 19 556 17 648 -3z"/>
</g>
</svg>
