<svg width="120" height="120" viewBox="0 0 120 120" fill="none" xmlns="http://www.w3.org/2000/svg">
<path d="M6.66123 48.0739C14.0747 18.3418 44.1919 0.247233 73.9309 7.66161C103.658 15.0742 121.754 45.1896 114.337 74.92C106.927 104.656 76.8103 122.752 47.0799 115.339C17.3426 107.927 -0.752276 77.8077 6.66123 48.0739Z" fill="url(#paint0_linear_4_80)"/>
<path d="M113.354 73.3052C106.007 102.769 76.1612 120.701 46.6901 113.353C17.231 106.008 -0.702628 76.1634 6.64753 46.7009C13.9908 17.2332 43.8366 -0.700012 73.2992 6.64585C102.769 13.9917 120.7 43.8392 113.354 73.3052Z" fill="white"/>
<path d="M56.7859 74.6925L60.3583 61.2408L68.8161 58.1508L70.9198 50.2454L70.848 50.0492L62.5225 53.0908L68.5211 30.5038H51.509L43.6642 59.9803L37.1144 62.373L34.9502 70.5231L41.495 68.1323L36.8715 85.5042H82.1476L85.0501 74.6925H56.7859" fill="white"/>
<path d="M77.899 41.2107C75.2315 34.4319 68.5421 33.82 60.7528 35.3325L57.9787 25.6628L52.0937 27.3507L54.7956 36.7694C53.2487 37.2094 51.6743 37.6975 50.1103 38.1788L47.3946 28.6982L41.5131 30.3825L44.2803 40.0522C43.0153 40.4441 41.7709 40.8291 40.5506 41.1797L40.5403 41.1453L32.4209 43.4725L34.2256 49.7632C34.2256 49.7632 38.55 48.4294 38.4984 48.5325C40.884 47.8485 42.0562 49.0103 42.6234 50.1413L45.7859 61.155C45.9475 61.1103 46.164 61.0553 46.4184 61.0175L45.7962 61.1963L50.2203 76.6307C50.3303 77.411 50.234 78.7344 48.5703 79.2157C48.6631 79.2604 44.2871 80.4394 44.2871 80.4394L45.1362 87.806L52.795 85.606C54.2215 85.2038 55.6309 84.8257 57.0093 84.4372L59.8178 94.2169L65.6959 92.5325L62.9218 82.856C64.4986 82.4376 66.0708 82.0021 67.6381 81.5497L70.395 91.185L76.2834 89.4972L73.4853 79.7347C83.2168 76.3282 89.4284 71.8491 87.6237 62.3066C86.1731 54.6272 81.6975 52.2966 75.6921 52.5578C78.6071 49.8422 79.8618 46.171 77.899 41.2141V41.2107ZM75.6646 64.4825C77.7615 71.7941 65.0084 74.551 61.0209 75.6991L57.305 62.7397C61.2925 61.595 73.475 56.8616 75.6612 64.486L75.6646 64.4825ZM67.6828 46.9857C69.5871 53.6372 58.9275 55.8544 55.6034 56.8066L52.2346 45.0538C55.5553 44.1016 65.6925 40.0522 67.6828 46.9891V46.9857Z" fill="white"/>
<path opacity="0.5" d="M115 59.9997C115 90.3755 90.376 115 60.0003 115C29.6243 115 5 90.3755 5 59.9997C5 29.6242 29.6243 5.00006 60.0003 5.00006C90.3757 5.00006 115 29.6242 115 59.9997Z" fill="white"/>
<path fill-rule="evenodd" clip-rule="evenodd" d="M81.5428 38.2872C81.2615 38.006 81.0928 37.7247 81.0928 37.331C81.0928 36.9372 81.2615 36.656 81.5428 36.3747C82.1053 35.8685 83.0052 35.8685 83.624 36.3747C83.9052 36.656 84.074 36.9372 84.074 37.331C84.074 37.7247 83.9052 38.006 83.624 38.2872C83.3427 38.5122 82.949 38.681 82.6115 38.681C82.2178 38.7372 81.824 38.6247 81.5428 38.2872Z" fill="#0D022B"/>
<path fill-rule="evenodd" clip-rule="evenodd" d="M77.9431 42.1684C77.7181 41.8872 77.5493 41.6059 77.5493 41.2122C77.5493 40.8185 77.7181 40.5372 77.9431 40.256C78.4493 39.7497 79.3493 39.7497 79.8555 40.256C80.0805 40.5372 80.2493 40.8185 80.2493 41.2122C80.2493 41.6059 80.0805 41.8872 79.8555 42.1684C79.5743 42.3934 79.293 42.5622 78.8993 42.5622C78.5056 42.5622 78.2243 42.3934 77.9431 42.1684Z" fill="#0D022B"/>
<path fill-rule="evenodd" clip-rule="evenodd" d="M74.006 45.8809C73.7811 45.6559 73.6123 45.3184 73.6123 44.9247C73.6123 44.5309 73.7811 44.2497 74.006 43.9684C74.5123 43.4622 75.4123 43.4622 75.9185 43.9684C76.1435 44.1934 76.3123 44.5309 76.3123 44.9247C76.3123 45.3184 76.1435 45.5997 75.9185 45.8809C75.6373 46.1621 75.356 46.2746 74.9623 46.2746C74.5685 46.2746 74.231 46.1059 74.006 45.8809Z" fill="#0D022B"/>
<path fill-rule="evenodd" clip-rule="evenodd" d="M70.2376 49.6496C69.9563 49.4246 69.7876 49.0871 69.7876 48.6934C69.7876 48.2997 69.9563 48.0184 70.2376 47.7372C70.8001 47.2309 71.7001 47.2309 72.3188 47.7372C72.6001 47.9622 72.7688 48.2997 72.7688 48.6934C72.7688 49.0871 72.6001 49.4246 72.3188 49.6496C72.0376 49.9309 71.6438 50.0434 71.3063 50.0434C70.9126 50.0434 70.5751 49.9871 70.2376 49.6496Z" fill="#0D022B"/>
<path fill-rule="evenodd" clip-rule="evenodd" d="M66.6359 53.4183C66.3547 53.1933 66.2422 52.8558 66.2422 52.462C66.2422 52.0683 66.4109 51.787 66.6359 51.5058C67.1422 50.9995 68.0422 50.9995 68.5484 51.5058C68.8297 51.7308 68.9422 52.0683 68.9422 52.462C68.9422 52.8558 68.7734 53.1933 68.5484 53.4183C68.3234 53.6995 67.9859 53.812 67.5922 53.812C67.2547 53.8682 66.8609 53.7558 66.6359 53.4183Z" fill="#0D022B"/>
<path fill-rule="evenodd" clip-rule="evenodd" d="M62.3052 56.2308C62.3052 55.8371 62.4739 55.5558 62.6989 55.2746C63.2052 54.7683 64.1052 54.7683 64.6114 55.2746C64.8926 55.5558 65.0051 55.8371 65.0051 56.2308C65.0051 56.6246 64.8364 56.9058 64.6114 57.1871C64.3864 57.4121 64.0489 57.5808 63.6552 57.5808C63.2614 57.5808 62.9802 57.4121 62.6989 57.1871C62.4177 56.9621 62.3052 56.6246 62.3052 56.2308Z" fill="#0D022B"/>
<path fill-rule="evenodd" clip-rule="evenodd" d="M55.2751 64.5557C55.0501 64.3307 54.8813 63.9932 54.8813 63.5995C54.8813 63.2057 55.0501 62.9245 55.2751 62.6432C55.7813 62.137 56.6813 62.137 57.1876 62.6432C57.4688 62.9245 57.5813 63.2057 57.5813 63.5995C57.5813 63.9932 57.4126 64.2745 57.1876 64.5557C56.9626 64.837 56.6251 64.9495 56.2313 64.9495C55.8938 65.0057 55.5563 64.8932 55.2751 64.5557Z" fill="#0D022B"/>
<path fill-rule="evenodd" clip-rule="evenodd" d="M51.3938 68.3243C51.1126 68.0993 50.9438 67.7618 50.9438 67.3681C50.9438 66.9743 51.1126 66.6931 51.3938 66.4118C51.9563 65.9056 52.8563 65.9056 53.4751 66.4118C53.7563 66.6931 53.9251 66.9743 53.9251 67.3681C53.9251 67.7618 53.7563 68.0431 53.4751 68.3243C53.1938 68.6056 52.8001 68.7181 52.4626 68.7181C52.0126 68.7743 51.6751 68.6056 51.3938 68.3243Z" fill="#0D022B"/>
<path fill-rule="evenodd" clip-rule="evenodd" d="M47.737 72.1493C47.512 71.9243 47.3433 71.5868 47.3433 71.1931C47.3433 70.7994 47.512 70.4619 47.737 70.2369C48.2432 69.7306 49.1432 69.7306 49.6495 70.2369C49.8745 70.4619 50.0432 70.7994 50.0432 71.1931C50.0432 71.5868 49.8745 71.8681 49.6495 72.1493C49.3682 72.4306 49.087 72.5431 48.6932 72.5431C48.2995 72.5431 48.0745 72.3743 47.737 72.1493Z" fill="#0D022B"/>
<path fill-rule="evenodd" clip-rule="evenodd" d="M43.968 75.918C43.6867 75.693 43.5742 75.3555 43.5742 74.9617C43.5742 74.568 43.743 74.2867 43.968 74.0055C44.4742 73.4992 45.3742 73.4992 45.8804 74.0055C46.1054 74.2867 46.2742 74.568 46.2742 74.9617C46.2742 75.3555 46.1054 75.693 45.8804 75.918C45.5992 76.1992 45.3179 76.3117 44.9242 76.3117C44.5867 76.3117 44.193 76.1992 43.968 75.918Z" fill="#0D022B"/>
<path fill-rule="evenodd" clip-rule="evenodd" d="M40.0867 79.6868C39.8055 79.4618 39.6367 79.1243 39.6367 78.7306C39.6367 78.3368 39.8055 78.0556 40.0867 77.7743C40.6492 77.2681 41.5492 77.2681 42.0554 77.7743C42.3367 78.0556 42.5054 78.3368 42.5054 78.7306C42.5054 79.1243 42.3367 79.4618 42.0554 79.6868C41.7742 79.9118 41.3804 80.0806 41.043 80.0806C40.6492 80.0806 40.3117 79.9681 40.0867 79.6868Z" fill="#0D022B"/>
<path fill-rule="evenodd" clip-rule="evenodd" d="M36.3747 83.4554C36.0935 83.1742 35.981 82.8929 35.981 82.4992C35.981 82.1054 36.1497 81.8242 36.3747 81.543C36.8809 81.0367 37.7809 81.0367 38.2872 81.543C38.5684 81.8242 38.6809 82.1054 38.6809 82.4992C38.6809 82.8929 38.5122 83.1742 38.2872 83.4554C38.0622 83.6804 37.7247 83.8492 37.3309 83.8492C37.0497 83.9054 36.7122 83.7367 36.3747 83.4554Z" fill="#0D022B"/>
<path fill-rule="evenodd" clip-rule="evenodd" d="M38.2872 38.2872C38.5122 38.006 38.6809 37.7247 38.6809 37.331C38.6809 36.9372 38.5122 36.656 38.2872 36.3747C37.7809 35.8685 36.8809 35.8685 36.3747 36.3747C36.0935 36.656 35.981 36.9372 35.981 37.331C35.981 37.7247 36.1497 38.006 36.3747 38.2872C36.5997 38.5122 36.9372 38.681 37.3309 38.681C37.7247 38.7372 38.0622 38.6247 38.2872 38.2872Z" fill="#0D022B"/>
<path fill-rule="evenodd" clip-rule="evenodd" d="M42.0556 42.1684C42.3369 41.8872 42.5056 41.6059 42.5056 41.2122C42.5056 40.8185 42.3369 40.5372 42.0556 40.256C41.4931 39.7497 40.5931 39.7497 39.9744 40.256C39.6932 40.5372 39.5244 40.8185 39.5244 41.2122C39.5244 41.6059 39.6932 41.8872 39.9744 42.1684C40.2557 42.3934 40.6494 42.5622 40.9869 42.5622C41.3806 42.5059 41.7744 42.3934 42.0556 42.1684Z" fill="#0D022B"/>
<path fill-rule="evenodd" clip-rule="evenodd" d="M45.8804 45.8809C46.1054 45.6559 46.2742 45.3184 46.2742 44.9247C46.2742 44.5309 46.1054 44.2497 45.8804 43.9684C45.3742 43.4622 44.4742 43.4622 43.968 43.9684C43.743 44.1934 43.5742 44.5309 43.5742 44.9247C43.5742 45.3184 43.743 45.5997 43.968 45.8809C44.2492 46.1621 44.5305 46.2746 44.9242 46.2746C45.2617 46.2746 45.5992 46.1059 45.8804 45.8809Z" fill="#0D022B"/>
<path fill-rule="evenodd" clip-rule="evenodd" d="M49.6495 49.6496C49.8745 49.4246 50.0432 49.0871 50.0432 48.6934C50.0432 48.2997 49.8745 48.0184 49.6495 47.7372C49.1432 47.2309 48.2432 47.2309 47.737 47.7372C47.512 47.9622 47.3433 48.2997 47.3433 48.6934C47.3433 49.0871 47.512 49.4246 47.737 49.6496C48.0183 49.9309 48.2995 50.0434 48.6932 50.0434C49.0307 50.0434 49.3682 49.9871 49.6495 49.6496Z" fill="#0D022B"/>
<path fill-rule="evenodd" clip-rule="evenodd" d="M53.3626 53.4183C53.6438 53.1933 53.8126 52.8558 53.8126 52.462C53.8126 52.0683 53.6438 51.787 53.3626 51.5058C52.8563 50.9995 51.9001 50.9995 51.3938 51.5058C51.1126 51.7308 50.9438 52.0683 50.9438 52.462C50.9438 52.8558 51.1126 53.1933 51.3938 53.4183C51.6751 53.6995 52.0688 53.812 52.4063 53.812C52.7438 53.8682 53.1376 53.7558 53.3626 53.4183Z" fill="#0D022B"/>
<path fill-rule="evenodd" clip-rule="evenodd" d="M57.5813 56.2308C57.5813 55.8371 57.4126 55.5558 57.1876 55.2746C56.6813 54.7683 55.7813 54.7683 55.2751 55.2746C54.9938 55.5558 54.8813 55.8371 54.8813 56.2308C54.8813 56.6246 55.0501 56.9058 55.2751 57.1871C55.5001 57.4121 55.8376 57.5808 56.2313 57.5808C56.6251 57.5808 56.9063 57.4121 57.1876 57.1871C57.4688 56.9621 57.5813 56.6246 57.5813 56.2308Z" fill="#0D022B"/>
<path fill-rule="evenodd" clip-rule="evenodd" d="M60.9551 61.0119C61.2364 60.7307 61.3489 60.4495 61.3489 60.0557C61.3489 59.662 61.1801 59.3807 60.9551 59.0995C60.4489 58.5932 59.5489 58.5932 59.0427 59.0995C58.7614 59.3807 58.6489 59.662 58.6489 60.0557C58.6489 60.4495 58.8177 60.7307 59.0427 61.0119C59.2677 61.2369 59.6052 61.4057 59.9989 61.4057C60.3927 61.4057 60.7301 61.2369 60.9551 61.0119Z" fill="#0D022B"/>
<path fill-rule="evenodd" clip-rule="evenodd" d="M64.7239 64.5557C65.0051 64.3307 65.1739 63.9932 65.1739 63.5995C65.1739 63.2057 65.0051 62.9245 64.7239 62.6432C64.1614 62.137 63.2614 62.137 62.7552 62.6432C62.4739 62.9245 62.3052 63.2057 62.3052 63.5995C62.3052 63.9932 62.4739 64.2745 62.7552 64.5557C63.0364 64.837 63.4302 64.9495 63.7677 64.9495C64.0489 65.0057 64.4426 64.8932 64.7239 64.5557Z" fill="#0D022B"/>
<path fill-rule="evenodd" clip-rule="evenodd" d="M68.5484 68.3243C68.7734 68.0993 68.9422 67.7618 68.9422 67.3681C68.9422 66.9743 68.7734 66.6931 68.5484 66.4118C68.0422 65.9056 67.1422 65.9056 66.6359 66.4118C66.4109 66.6931 66.2422 66.9743 66.2422 67.3681C66.2422 67.7618 66.4109 68.0431 66.6359 68.3243C66.9172 68.6056 67.1984 68.7181 67.5922 68.7181C67.8734 68.7743 68.2672 68.6056 68.5484 68.3243Z" fill="#0D022B"/>
<path fill-rule="evenodd" clip-rule="evenodd" d="M72.3179 72.1493C72.5429 71.9243 72.7117 71.5868 72.7117 71.1931C72.7117 70.7994 72.5429 70.4619 72.3179 70.2369C71.8117 69.7306 70.9117 69.7306 70.4055 70.2369C70.1805 70.4619 70.0117 70.7994 70.0117 71.1931C70.0117 71.5868 70.1805 71.8681 70.4055 72.1493C70.6867 72.4306 70.968 72.5431 71.3617 72.5431C71.7554 72.5431 72.0367 72.3743 72.3179 72.1493Z" fill="#0D022B"/>
<path fill-rule="evenodd" clip-rule="evenodd" d="M75.8609 75.918C76.1422 75.693 76.2547 75.3555 76.2547 74.9617C76.2547 74.568 76.0859 74.2867 75.8609 74.0055C75.3547 73.4992 74.4547 73.4992 73.9484 74.0055C73.7234 74.2867 73.5547 74.568 73.5547 74.9617C73.5547 75.3555 73.7234 75.693 73.9484 75.918C74.2297 76.1992 74.5109 76.3117 74.9047 76.3117C75.2422 76.3117 75.6359 76.1992 75.8609 75.918Z" fill="#0D022B"/>
<path fill-rule="evenodd" clip-rule="evenodd" d="M79.8555 79.6868C80.1368 79.4618 80.2493 79.1243 80.2493 78.7306C80.2493 78.3368 80.0805 78.0556 79.8555 77.7743C79.3493 77.2681 78.4493 77.2681 77.9431 77.7743C77.6618 78.0556 77.5493 78.3368 77.5493 78.7306C77.5493 79.1243 77.7181 79.4618 77.9431 79.6868C78.1681 79.9118 78.5056 80.0806 78.8993 80.0806C79.293 80.0806 79.6305 79.9681 79.8555 79.6868Z" fill="#0D022B"/>
<path fill-rule="evenodd" clip-rule="evenodd" d="M83.6243 83.4554C83.9055 83.1742 84.0743 82.8929 84.0743 82.4992C84.0743 82.1054 83.9055 81.8242 83.6243 81.543C83.0618 81.0367 82.1618 81.0367 81.6556 81.543C81.3743 81.8242 81.2056 82.1054 81.2056 82.4992C81.2056 82.8929 81.3743 83.1742 81.6556 83.4554C81.9368 83.6804 82.3306 83.8492 82.668 83.8492C82.9493 83.9054 83.2868 83.7367 83.6243 83.4554Z" fill="#0D022B"/>
<path fill-rule="evenodd" clip-rule="evenodd" d="M47.2307 39.356C51.0556 36.8248 55.2743 35.6436 59.943 35.5873C64.4992 35.5873 68.7179 36.8248 72.6553 39.356L80.7552 31.2562C74.399 26.4187 67.5366 24 59.943 24C52.3493 24 45.3744 26.4187 39.187 31.2562L47.2307 39.356Z" fill="#0D022B"/>
<path fill-rule="evenodd" clip-rule="evenodd" d="M39.131 72.5994C36.5436 68.6619 35.3061 64.4995 35.3061 59.9996C35.3061 55.4434 36.5436 51.2247 39.131 47.3997L31.0874 39.3561C26.3625 45.5435 24 52.4059 24 60.0558C24 67.5932 26.3625 74.5119 31.1437 80.8118L39.131 72.5994Z" fill="#0D022B"/>
<path fill-rule="evenodd" clip-rule="evenodd" d="M72.6001 80.6431C68.7752 83.2305 64.5565 84.5805 60.0003 84.6368C55.3316 84.6368 51.0567 83.3993 47.2317 80.6993L39.1318 88.743C45.3755 93.6366 52.3504 96.0554 60.0003 95.9991C67.594 95.9429 74.4564 93.4679 80.6438 88.743L72.6001 80.6431Z" fill="#0D022B"/>
<path fill-rule="evenodd" clip-rule="evenodd" d="M80.5303 47.2872C83.1177 51.2247 84.4677 55.4996 84.3552 60.112C84.299 64.612 83.0052 68.7182 80.5303 72.4869L88.6302 80.5305C93.4114 74.3431 95.8863 67.4807 95.8863 59.9433C95.9426 52.2934 93.5238 45.3185 88.6302 39.0748L80.5303 47.2872Z" fill="#0D022B"/>
<path fill-rule="evenodd" clip-rule="evenodd" d="M88.9683 83.1743C92.062 83.1743 94.6495 85.7055 94.6495 88.8555C94.6495 91.9492 92.1182 94.5367 88.9683 94.5367C85.8746 94.5367 83.2871 92.0055 83.2871 88.8555C83.2871 85.7055 85.8183 83.1743 88.9683 83.1743Z" fill="#0D022B"/>
<path fill-rule="evenodd" clip-rule="evenodd" d="M31.0312 83.1743C34.1249 83.1743 36.6561 85.7055 36.6561 88.8555C36.6561 91.9492 34.1249 94.5367 31.0312 94.5367C27.9375 94.5367 25.4062 92.0055 25.4062 88.8555C25.4062 85.7055 27.9375 83.1743 31.0312 83.1743Z" fill="#0D022B"/>
<path fill-rule="evenodd" clip-rule="evenodd" d="M89.0805 25.2374C92.1742 25.2374 94.7054 27.7686 94.7054 30.9186C94.7054 34.0686 92.1742 36.5998 89.0805 36.5998C85.9868 36.5998 83.4556 34.0686 83.4556 30.9186C83.4556 27.7686 85.9868 25.2374 89.0805 25.2374Z" fill="#0D022B"/>
<path fill-rule="evenodd" clip-rule="evenodd" d="M30.919 25.2374C34.0127 25.2374 36.6001 27.7686 36.6001 30.8624C36.6001 33.9561 34.0689 36.4873 30.919 36.4873C27.8253 36.4873 25.2378 33.9561 25.2378 30.8624C25.2378 27.7686 27.769 25.2374 30.919 25.2374Z" fill="#0D022B"/>
<defs>
<linearGradient id="paint0_linear_4_80" x1="339.068" y1="156.473" x2="-15.9791" y2="0.682844" gradientUnits="userSpaceOnUse">
<stop stop-color="#1A1A1A"/>
<stop offset="1" stop-color="#1A1A1A" stop-opacity="0"/>
</linearGradient>
</defs>
</svg>
