<?xml version="1.0" encoding="UTF-8"?>
<svg xmlns="http://www.w3.org/2000/svg" xmlns:xlink="http://www.w3.org/1999/xlink" width="120px" height="120px" viewBox="0 0 120 120" version="1.1">
<g id="surface1">
<path style=" stroke:none;fill-rule:evenodd;fill:rgb(5.098039%,0.784314%,16.862745%);fill-opacity:1;" d="M 96.046875 23.8125 C 95.578125 23.34375 95.296875 22.875 95.296875 22.21875 C 95.296875 21.5625 95.578125 21.09375 96.046875 20.625 C 96.984375 19.78125 98.484375 19.78125 99.515625 20.625 C 99.984375 21.09375 100.265625 21.5625 100.265625 22.21875 C 100.265625 22.875 99.984375 23.34375 99.515625 23.8125 C 99.046875 24.1875 98.390625 24.46875 97.828125 24.46875 C 97.171875 24.5625 96.515625 24.375 96.046875 23.8125 Z M 96.046875 23.8125 "/>
<path style=" stroke:none;fill-rule:evenodd;fill:rgb(5.098039%,0.784314%,16.862745%);fill-opacity:1;" d="M 90.046875 30.28125 C 89.671875 29.8125 89.390625 29.34375 89.390625 28.6875 C 89.390625 28.03125 89.671875 27.5625 90.046875 27.09375 C 90.890625 26.25 92.390625 26.25 93.234375 27.09375 C 93.609375 27.5625 93.890625 28.03125 93.890625 28.6875 C 93.890625 29.34375 93.609375 29.8125 93.234375 30.28125 C 92.765625 30.65625 92.296875 30.9375 91.640625 30.9375 C 90.984375 30.9375 90.515625 30.65625 90.046875 30.28125 Z M 90.046875 30.28125 "/>
<path style=" stroke:none;fill-rule:evenodd;fill:rgb(5.098039%,0.784314%,16.862745%);fill-opacity:1;" d="M 83.484375 36.46875 C 83.109375 36.09375 82.828125 35.53125 82.828125 34.875 C 82.828125 34.21875 83.109375 33.75 83.484375 33.28125 C 84.328125 32.4375 85.828125 32.4375 86.671875 33.28125 C 87.046875 33.65625 87.328125 34.21875 87.328125 34.875 C 87.328125 35.53125 87.046875 36 86.671875 36.46875 C 86.203125 36.9375 85.734375 37.125 85.078125 37.125 C 84.421875 37.125 83.859375 36.84375 83.484375 36.46875 Z M 83.484375 36.46875 "/>
<path style=" stroke:none;fill-rule:evenodd;fill:rgb(5.098039%,0.784314%,16.862745%);fill-opacity:1;" d="M 77.203125 42.75 C 76.734375 42.375 76.453125 41.8125 76.453125 41.15625 C 76.453125 40.5 76.734375 40.03125 77.203125 39.5625 C 78.140625 38.71875 79.640625 38.71875 80.671875 39.5625 C 81.140625 39.9375 81.421875 40.5 81.421875 41.15625 C 81.421875 41.8125 81.140625 42.375 80.671875 42.75 C 80.203125 43.21875 79.546875 43.40625 78.984375 43.40625 C 78.328125 43.40625 77.765625 43.3125 77.203125 42.75 Z M 77.203125 42.75 "/>
<path style=" stroke:none;fill-rule:evenodd;fill:rgb(5.098039%,0.784314%,16.862745%);fill-opacity:1;" d="M 71.203125 49.03125 C 70.734375 48.65625 70.546875 48.09375 70.546875 47.4375 C 70.546875 46.78125 70.828125 46.3125 71.203125 45.84375 C 72.046875 45 73.546875 45 74.390625 45.84375 C 74.859375 46.21875 75.046875 46.78125 75.046875 47.4375 C 75.046875 48.09375 74.765625 48.65625 74.390625 49.03125 C 74.015625 49.5 73.453125 49.6875 72.796875 49.6875 C 72.234375 49.78125 71.578125 49.59375 71.203125 49.03125 Z M 71.203125 49.03125 "/>
<path style=" stroke:none;fill-rule:evenodd;fill:rgb(5.098039%,0.784314%,16.862745%);fill-opacity:1;" d="M 63.984375 53.71875 C 63.984375 53.0625 64.265625 52.59375 64.640625 52.125 C 65.484375 51.28125 66.984375 51.28125 67.828125 52.125 C 68.296875 52.59375 68.484375 53.0625 68.484375 53.71875 C 68.484375 54.375 68.203125 54.84375 67.828125 55.3125 C 67.453125 55.6875 66.890625 55.96875 66.234375 55.96875 C 65.578125 55.96875 65.109375 55.6875 64.640625 55.3125 C 64.171875 54.9375 63.984375 54.375 63.984375 53.71875 Z M 63.984375 53.71875 "/>
<path style=" stroke:none;fill-rule:evenodd;fill:rgb(5.098039%,0.784314%,16.862745%);fill-opacity:1;" d="M 52.265625 67.59375 C 51.890625 67.21875 51.609375 66.65625 51.609375 66 C 51.609375 65.34375 51.890625 64.875 52.265625 64.40625 C 53.109375 63.5625 54.609375 63.5625 55.453125 64.40625 C 55.921875 64.875 56.109375 65.34375 56.109375 66 C 56.109375 66.65625 55.828125 67.125 55.453125 67.59375 C 55.078125 68.0625 54.515625 68.25 53.859375 68.25 C 53.296875 68.34375 52.734375 68.15625 52.265625 67.59375 Z M 52.265625 67.59375 "/>
<path style=" stroke:none;fill-rule:evenodd;fill:rgb(5.098039%,0.784314%,16.862745%);fill-opacity:1;" d="M 45.796875 73.875 C 45.328125 73.5 45.046875 72.9375 45.046875 72.28125 C 45.046875 71.625 45.328125 71.15625 45.796875 70.6875 C 46.734375 69.84375 48.234375 69.84375 49.265625 70.6875 C 49.734375 71.15625 50.015625 71.625 50.015625 72.28125 C 50.015625 72.9375 49.734375 73.40625 49.265625 73.875 C 48.796875 74.34375 48.140625 74.53125 47.578125 74.53125 C 46.828125 74.625 46.265625 74.34375 45.796875 73.875 Z M 45.796875 73.875 "/>
<path style=" stroke:none;fill-rule:evenodd;fill:rgb(5.098039%,0.784314%,16.862745%);fill-opacity:1;" d="M 39.703125 80.25 C 39.328125 79.875 39.046875 79.3125 39.046875 78.65625 C 39.046875 78 39.328125 77.4375 39.703125 77.0625 C 40.546875 76.21875 42.046875 76.21875 42.890625 77.0625 C 43.265625 77.4375 43.546875 78 43.546875 78.65625 C 43.546875 79.3125 43.265625 79.78125 42.890625 80.25 C 42.421875 80.71875 41.953125 80.90625 41.296875 80.90625 C 40.640625 80.90625 40.265625 80.625 39.703125 80.25 Z M 39.703125 80.25 "/>
<path style=" stroke:none;fill-rule:evenodd;fill:rgb(5.098039%,0.784314%,16.862745%);fill-opacity:1;" d="M 33.421875 86.53125 C 32.953125 86.15625 32.765625 85.59375 32.765625 84.9375 C 32.765625 84.28125 33.046875 83.8125 33.421875 83.34375 C 34.265625 82.5 35.765625 82.5 36.609375 83.34375 C 36.984375 83.8125 37.265625 84.28125 37.265625 84.9375 C 37.265625 85.59375 36.984375 86.15625 36.609375 86.53125 C 36.140625 87 35.671875 87.1875 35.015625 87.1875 C 34.453125 87.1875 33.796875 87 33.421875 86.53125 Z M 33.421875 86.53125 "/>
<path style=" stroke:none;fill-rule:evenodd;fill:rgb(5.098039%,0.784314%,16.862745%);fill-opacity:1;" d="M 26.953125 92.8125 C 26.484375 92.4375 26.203125 91.875 26.203125 91.21875 C 26.203125 90.5625 26.484375 90.09375 26.953125 89.625 C 27.890625 88.78125 29.390625 88.78125 30.234375 89.625 C 30.703125 90.09375 30.984375 90.5625 30.984375 91.21875 C 30.984375 91.875 30.703125 92.4375 30.234375 92.8125 C 29.765625 93.1875 29.109375 93.46875 28.546875 93.46875 C 27.890625 93.46875 27.328125 93.28125 26.953125 92.8125 Z M 26.953125 92.8125 "/>
<path style=" stroke:none;fill-rule:evenodd;fill:rgb(5.098039%,0.784314%,16.862745%);fill-opacity:1;" d="M 20.765625 99.09375 C 20.296875 98.625 20.109375 98.15625 20.109375 97.5 C 20.109375 96.84375 20.390625 96.375 20.765625 95.90625 C 21.609375 95.0625 23.109375 95.0625 23.953125 95.90625 C 24.421875 96.375 24.609375 96.84375 24.609375 97.5 C 24.609375 98.15625 24.328125 98.625 23.953125 99.09375 C 23.578125 99.46875 23.015625 99.75 22.359375 99.75 C 21.890625 99.84375 21.328125 99.5625 20.765625 99.09375 Z M 20.765625 99.09375 "/>
<path style=" stroke:none;fill-rule:evenodd;fill:rgb(5.098039%,0.784314%,16.862745%);fill-opacity:1;" d="M 23.953125 23.8125 C 24.328125 23.34375 24.609375 22.875 24.609375 22.21875 C 24.609375 21.5625 24.328125 21.09375 23.953125 20.625 C 23.109375 19.78125 21.609375 19.78125 20.765625 20.625 C 20.296875 21.09375 20.109375 21.5625 20.109375 22.21875 C 20.109375 22.875 20.390625 23.34375 20.765625 23.8125 C 21.140625 24.1875 21.703125 24.46875 22.359375 24.46875 C 23.015625 24.5625 23.578125 24.375 23.953125 23.8125 Z M 23.953125 23.8125 "/>
<path style=" stroke:none;fill-rule:evenodd;fill:rgb(5.098039%,0.784314%,16.862745%);fill-opacity:1;" d="M 30.234375 30.28125 C 30.703125 29.8125 30.984375 29.34375 30.984375 28.6875 C 30.984375 28.03125 30.703125 27.5625 30.234375 27.09375 C 29.296875 26.25 27.796875 26.25 26.765625 27.09375 C 26.296875 27.5625 26.015625 28.03125 26.015625 28.6875 C 26.015625 29.34375 26.296875 29.8125 26.765625 30.28125 C 27.234375 30.65625 27.890625 30.9375 28.453125 30.9375 C 29.109375 30.84375 29.765625 30.65625 30.234375 30.28125 Z M 30.234375 30.28125 "/>
<path style=" stroke:none;fill-rule:evenodd;fill:rgb(5.098039%,0.784314%,16.862745%);fill-opacity:1;" d="M 36.609375 36.46875 C 36.984375 36.09375 37.265625 35.53125 37.265625 34.875 C 37.265625 34.21875 36.984375 33.75 36.609375 33.28125 C 35.765625 32.4375 34.265625 32.4375 33.421875 33.28125 C 33.046875 33.65625 32.765625 34.21875 32.765625 34.875 C 32.765625 35.53125 33.046875 36 33.421875 36.46875 C 33.890625 36.9375 34.359375 37.125 35.015625 37.125 C 35.578125 37.125 36.140625 36.84375 36.609375 36.46875 Z M 36.609375 36.46875 "/>
<path style=" stroke:none;fill-rule:evenodd;fill:rgb(5.098039%,0.784314%,16.862745%);fill-opacity:1;" d="M 42.890625 42.75 C 43.265625 42.375 43.546875 41.8125 43.546875 41.15625 C 43.546875 40.5 43.265625 40.03125 42.890625 39.5625 C 42.046875 38.71875 40.546875 38.71875 39.703125 39.5625 C 39.328125 39.9375 39.046875 40.5 39.046875 41.15625 C 39.046875 41.8125 39.328125 42.375 39.703125 42.75 C 40.171875 43.21875 40.640625 43.40625 41.296875 43.40625 C 41.859375 43.40625 42.421875 43.3125 42.890625 42.75 Z M 42.890625 42.75 "/>
<path style=" stroke:none;fill-rule:evenodd;fill:rgb(5.098039%,0.784314%,16.862745%);fill-opacity:1;" d="M 49.078125 49.03125 C 49.546875 48.65625 49.828125 48.09375 49.828125 47.4375 C 49.828125 46.78125 49.546875 46.3125 49.078125 45.84375 C 48.234375 45 46.640625 45 45.796875 45.84375 C 45.328125 46.21875 45.046875 46.78125 45.046875 47.4375 C 45.046875 48.09375 45.328125 48.65625 45.796875 49.03125 C 46.265625 49.5 46.921875 49.6875 47.484375 49.6875 C 48.046875 49.78125 48.703125 49.59375 49.078125 49.03125 Z M 49.078125 49.03125 "/>
<path style=" stroke:none;fill-rule:evenodd;fill:rgb(5.098039%,0.784314%,16.862745%);fill-opacity:1;" d="M 56.109375 53.71875 C 56.109375 53.0625 55.828125 52.59375 55.453125 52.125 C 54.609375 51.28125 53.109375 51.28125 52.265625 52.125 C 51.796875 52.59375 51.609375 53.0625 51.609375 53.71875 C 51.609375 54.375 51.890625 54.84375 52.265625 55.3125 C 52.640625 55.6875 53.203125 55.96875 53.859375 55.96875 C 54.515625 55.96875 54.984375 55.6875 55.453125 55.3125 C 55.921875 54.9375 56.109375 54.375 56.109375 53.71875 Z M 56.109375 53.71875 "/>
<path style=" stroke:none;fill-rule:evenodd;fill:rgb(5.098039%,0.784314%,16.862745%);fill-opacity:1;" d="M 61.734375 61.6875 C 62.203125 61.21875 62.390625 60.75 62.390625 60.09375 C 62.390625 59.4375 62.109375 58.96875 61.734375 58.5 C 60.890625 57.65625 59.390625 57.65625 58.546875 58.5 C 58.078125 58.96875 57.890625 59.4375 57.890625 60.09375 C 57.890625 60.75 58.171875 61.21875 58.546875 61.6875 C 58.921875 62.0625 59.484375 62.34375 60.140625 62.34375 C 60.796875 62.34375 61.359375 62.0625 61.734375 61.6875 Z M 61.734375 61.6875 "/>
<path style=" stroke:none;fill-rule:evenodd;fill:rgb(5.098039%,0.784314%,16.862745%);fill-opacity:1;" d="M 68.015625 67.59375 C 68.484375 67.21875 68.765625 66.65625 68.765625 66 C 68.765625 65.34375 68.484375 64.875 68.015625 64.40625 C 67.078125 63.5625 65.578125 63.5625 64.734375 64.40625 C 64.265625 64.875 63.984375 65.34375 63.984375 66 C 63.984375 66.65625 64.265625 67.125 64.734375 67.59375 C 65.203125 68.0625 65.859375 68.25 66.421875 68.25 C 66.890625 68.34375 67.546875 68.15625 68.015625 67.59375 Z M 68.015625 67.59375 "/>
<path style=" stroke:none;fill-rule:evenodd;fill:rgb(5.098039%,0.784314%,16.862745%);fill-opacity:1;" d="M 74.390625 73.875 C 74.765625 73.5 75.046875 72.9375 75.046875 72.28125 C 75.046875 71.625 74.765625 71.15625 74.390625 70.6875 C 73.546875 69.84375 72.046875 69.84375 71.203125 70.6875 C 70.828125 71.15625 70.546875 71.625 70.546875 72.28125 C 70.546875 72.9375 70.828125 73.40625 71.203125 73.875 C 71.671875 74.34375 72.140625 74.53125 72.796875 74.53125 C 73.265625 74.625 73.921875 74.34375 74.390625 73.875 Z M 74.390625 73.875 "/>
<path style=" stroke:none;fill-rule:evenodd;fill:rgb(5.098039%,0.784314%,16.862745%);fill-opacity:1;" d="M 80.671875 80.25 C 81.046875 79.875 81.328125 79.3125 81.328125 78.65625 C 81.328125 78 81.046875 77.4375 80.671875 77.0625 C 79.828125 76.21875 78.328125 76.21875 77.484375 77.0625 C 77.109375 77.4375 76.828125 78 76.828125 78.65625 C 76.828125 79.3125 77.109375 79.78125 77.484375 80.25 C 77.953125 80.71875 78.421875 80.90625 79.078125 80.90625 C 79.734375 80.90625 80.203125 80.625 80.671875 80.25 Z M 80.671875 80.25 "/>
<path style=" stroke:none;fill-rule:evenodd;fill:rgb(5.098039%,0.784314%,16.862745%);fill-opacity:1;" d="M 86.578125 86.53125 C 87.046875 86.15625 87.234375 85.59375 87.234375 84.9375 C 87.234375 84.28125 86.953125 83.8125 86.578125 83.34375 C 85.734375 82.5 84.234375 82.5 83.390625 83.34375 C 83.015625 83.8125 82.734375 84.28125 82.734375 84.9375 C 82.734375 85.59375 83.015625 86.15625 83.390625 86.53125 C 83.859375 87 84.328125 87.1875 84.984375 87.1875 C 85.546875 87.1875 86.203125 87 86.578125 86.53125 Z M 86.578125 86.53125 "/>
<path style=" stroke:none;fill-rule:evenodd;fill:rgb(5.098039%,0.784314%,16.862745%);fill-opacity:1;" d="M 93.234375 92.8125 C 93.703125 92.4375 93.890625 91.875 93.890625 91.21875 C 93.890625 90.5625 93.609375 90.09375 93.234375 89.625 C 92.390625 88.78125 90.890625 88.78125 90.046875 89.625 C 89.578125 90.09375 89.390625 90.5625 89.390625 91.21875 C 89.390625 91.875 89.671875 92.4375 90.046875 92.8125 C 90.421875 93.1875 90.984375 93.46875 91.640625 93.46875 C 92.296875 93.46875 92.859375 93.28125 93.234375 92.8125 Z M 93.234375 92.8125 "/>
<path style=" stroke:none;fill-rule:evenodd;fill:rgb(5.098039%,0.784314%,16.862745%);fill-opacity:1;" d="M 99.515625 99.09375 C 99.984375 98.625 100.265625 98.15625 100.265625 97.5 C 100.265625 96.84375 99.984375 96.375 99.515625 95.90625 C 98.578125 95.0625 97.078125 95.0625 96.234375 95.90625 C 95.765625 96.375 95.484375 96.84375 95.484375 97.5 C 95.484375 98.15625 95.765625 98.625 96.234375 99.09375 C 96.703125 99.46875 97.359375 99.75 97.921875 99.75 C 98.390625 99.84375 98.953125 99.5625 99.515625 99.09375 Z M 99.515625 99.09375 "/>
<path style=" stroke:none;fill-rule:evenodd;fill:rgb(5.098039%,0.784314%,16.862745%);fill-opacity:1;" d="M 38.859375 25.59375 C 45.234375 21.375 52.265625 19.40625 60.046875 19.3125 C 67.640625 19.3125 74.671875 21.375 81.234375 25.59375 L 94.734375 12.09375 C 84.140625 4.03125 72.703125 0 60.046875 0 C 47.390625 0 35.765625 4.03125 25.453125 12.09375 Z M 38.859375 25.59375 "/>
<path style=" stroke:none;fill-rule:evenodd;fill:rgb(5.098039%,0.784314%,16.862745%);fill-opacity:1;" d="M 25.359375 81 C 21.046875 74.4375 18.984375 67.5 18.984375 60 C 18.984375 52.40625 21.046875 45.375 25.359375 39 L 11.953125 25.59375 C 4.078125 35.90625 0.140625 47.34375 0.140625 60.09375 C 0.140625 72.65625 4.078125 84.1875 12.046875 94.6875 Z M 25.359375 81 "/>
<path style=" stroke:none;fill-rule:evenodd;fill:rgb(5.098039%,0.784314%,16.862745%);fill-opacity:1;" d="M 81.140625 94.40625 C 74.765625 98.71875 67.734375 100.96875 60.140625 101.0625 C 52.359375 101.0625 45.234375 99 38.859375 94.5 L 25.359375 107.90625 C 35.765625 116.0625 47.390625 120.09375 60.140625 120 C 72.796875 119.90625 84.234375 115.78125 94.546875 107.90625 Z M 81.140625 94.40625 "/>
<path style=" stroke:none;fill-rule:evenodd;fill:rgb(5.098039%,0.784314%,16.862745%);fill-opacity:1;" d="M 94.359375 38.8125 C 98.671875 45.375 100.921875 52.5 100.734375 60.1875 C 100.640625 67.6875 98.484375 74.53125 94.359375 80.8125 L 107.859375 94.21875 C 115.828125 83.90625 119.953125 72.46875 119.953125 59.90625 C 120.046875 47.15625 116.015625 35.53125 107.859375 25.125 Z M 94.359375 38.8125 "/>
<path style=" stroke:none;fill-rule:evenodd;fill:rgb(5.098039%,0.784314%,16.862745%);fill-opacity:1;" d="M 108.421875 98.625 C 113.578125 98.625 117.890625 102.84375 117.890625 108.09375 C 117.890625 113.25 113.671875 117.5625 108.421875 117.5625 C 103.265625 117.5625 98.953125 113.34375 98.953125 108.09375 C 98.953125 102.84375 103.171875 98.625 108.421875 98.625 Z M 108.421875 98.625 "/>
<path style=" stroke:none;fill-rule:evenodd;fill:rgb(5.098039%,0.784314%,16.862745%);fill-opacity:1;" d="M 11.859375 98.625 C 17.015625 98.625 21.234375 102.84375 21.234375 108.09375 C 21.234375 113.25 17.015625 117.5625 11.859375 117.5625 C 6.703125 117.5625 2.484375 113.34375 2.484375 108.09375 C 2.484375 102.84375 6.703125 98.625 11.859375 98.625 Z M 11.859375 98.625 "/>
<path style=" stroke:none;fill-rule:evenodd;fill:rgb(5.098039%,0.784314%,16.862745%);fill-opacity:1;" d="M 108.609375 2.0625 C 113.765625 2.0625 117.984375 6.28125 117.984375 11.53125 C 117.984375 16.78125 113.765625 21 108.609375 21 C 103.453125 21 99.234375 16.78125 99.234375 11.53125 C 99.234375 6.28125 103.453125 2.0625 108.609375 2.0625 Z M 108.609375 2.0625 "/>
<path style=" stroke:none;fill-rule:evenodd;fill:rgb(5.098039%,0.784314%,16.862745%);fill-opacity:1;" d="M 11.671875 2.0625 C 16.828125 2.0625 21.140625 6.28125 21.140625 11.4375 C 21.140625 16.59375 16.921875 20.8125 11.671875 20.8125 C 6.515625 20.8125 2.203125 16.59375 2.203125 11.4375 C 2.203125 6.28125 6.421875 2.0625 11.671875 2.0625 Z M 11.671875 2.0625 "/>
</g>
</svg>
