<?xml version="1.0" encoding="utf-8"?>
<!-- Generator: Adobe Illustrator 26.1.0, SVG Export Plug-In . SVG Version: 6.00 Build 0)  -->
<svg version="1.1"
	 id="svg4247" inkscape:version="0.91 r13725" sodipodi:docname="template.svg" xmlns:cc="http://creativecommons.org/ns#" xmlns:dc="http://purl.org/dc/elements/1.1/" xmlns:inkscape="http://www.inkscape.org/namespaces/inkscape" xmlns:rdf="http://www.w3.org/1999/02/22-rdf-syntax-ns#" xmlns:sodipodi="http://sodipodi.sourceforge.net/DTD/sodipodi-0.dtd" xmlns:svg="http://www.w3.org/2000/svg"
	 xmlns="http://www.w3.org/2000/svg" xmlns:xlink="http://www.w3.org/1999/xlink" x="0px" y="0px" viewBox="0 0 120 120"
	 style="enable-background:new 0 0 120 120;" xml:space="preserve">
<style type="text/css">
	.st0{fill:url(#path4251-6_00000107565443520973209800000018094199336126196374_);}
	.st1{fill:#FFFFFF;}
	.st2{opacity:0.5;fill:none;stroke:#000000;stroke-width:0.5;}
	.st3{fill:#12131D;}
	.st4{fill:url(#SVGID_1_);}
	.st5{fill:#101622;}
	.st6{opacity:0.77;}
	.st7{fill:#1D1D1B;}
	.st8{fill:url(#SVGID_00000057122516849862135060000007015544166384502665_);}
	.st9{fill:url(#SVGID_00000010311114392323696190000003994835828070319548_);}
	.st10{fill:url(#SVGID_00000042725801345176441370000012475518433554720170_);}
	.st11{fill:url(#SVGID_00000060733515836329573470000000701118033750900916_);}
	.st12{fill:url(#SVGID_00000087374862808198352000000013042138995870538414_);}
	.st13{fill:url(#SVGID_00000157276504296812679760000008700315545509328316_);}
	.st14{fill:url(#SVGID_00000045605195140308033920000003543251710738608293_);}
	.st15{fill:url(#SVGID_00000013179447272746207890000000226315396960800444_);}
	.st16{fill:#9DB6DB;}
	.st17{filter:url(#Adobe_OpacityMaskFilter);}
	.st18{mask:url(#SVGID_00000054266847592814908730000014738518523299017873_);}
	.st19{fill:#7789A4;}
	.st20{fill:#677D95;}
	.st21{fill:#1D1E23;}
	.st22{fill:url(#SVGID_00000076574138407777625080000006895960517094634672_);}
	.st23{fill:url(#SVGID_00000096027946152490631830000002012620413750584202_);}
	.st24{fill:url(#SVGID_00000054263892999068916590000013544634511141736340_);}
	.st25{fill:none;}
</style>
<sodipodi:namedview  bordercolor="#666666" borderopacity="1" gridtolerance="10" guidetolerance="10" id="namedview4255" inkscape:current-layer="svg4247" inkscape:cx="68.478831" inkscape:cy="61.741873" inkscape:pageopacity="0" inkscape:pageshadow="2" inkscape:window-height="1023" inkscape:window-maximized="1" inkscape:window-width="1920" inkscape:window-x="0" inkscape:window-y="27" inkscape:zoom="6.4921875" objecttolerance="10" pagecolor="#ffffff" showgrid="false">
	</sodipodi:namedview>
<linearGradient id="path4251-6_00000138538151322194937770000008431487352413274015_" gradientUnits="userSpaceOnUse" x1="-2189.4114" y1="1119.2786" x2="-1837.563" y2="964.892" gradientTransform="matrix(-1.0091 0 0 1.0091 -1880.2765 -950.1239)">
	<stop  offset="0" style="stop-color:#1A1A1A"/>
	<stop  offset="1" style="stop-color:#1A1A1A;stop-opacity:0"/>
</linearGradient>
<path id="path4251-6" inkscape:connector-curvature="0" style="fill:url(#path4251-6_00000138538151322194937770000008431487352413274015_);" d="
	M6.7,48.1C14.1,18.3,44.2,0.2,73.9,7.7c29.7,7.4,47.8,37.5,40.4,67.3c-7.4,29.7-37.5,47.8-67.3,40.4C17.3,107.9-0.8,77.8,6.7,48.1z"
	/>
<path id="path4251" inkscape:connector-curvature="0" class="st1" d="M113.4,73.3c-7.3,29.5-37.2,47.4-66.7,40
	C17.2,106-0.7,76.2,6.6,46.7C14,17.2,43.8-0.7,73.3,6.6C102.8,14,120.7,43.8,113.4,73.3z"/>
<path id="path6359" inkscape:connector-curvature="0" d="M98.9,98.9c-21.5,21.5-56.3,21.5-77.8,0c-21.5-21.5-21.5-56.3,0-77.8
	c21.5-21.5,56.3-21.5,77.8,0C120.4,42.6,120.4,77.4,98.9,98.9"/>
<path id="path6359_00000038393629632410997200000006633779858003737748_" inkscape:connector-curvature="0" class="st2" d="
	M98.9,98.9c-21.5,21.5-56.3,21.5-77.8,0c-21.5-21.5-21.5-56.3,0-77.8c21.5-21.5,56.3-21.5,77.8,0C120.4,42.6,120.4,77.4,98.9,98.9"
	/>
<g>
	<path class="st3" d="M92.7,98.6H27.3c-3.6,0-6.6-2.9-6.6-6.6V26.7c0-3.6,2.9-6.6,6.6-6.6h65.3c3.6,0,6.6,2.9,6.6,6.6V92
		C99.2,95.6,96.3,98.6,92.7,98.6z"/>
	<linearGradient id="SVGID_1_" gradientUnits="userSpaceOnUse" x1="60.0009" y1="95.3106" x2="60.0009" y2="23.3347">
		<stop  offset="0" style="stop-color:#3E4259"/>
		<stop  offset="1" style="stop-color:#78809A"/>
	</linearGradient>
	<path class="st4" d="M90.6,95.3H29.4c-3,0-5.4-2.4-5.4-5.4V28.7c0-3,2.4-5.4,5.4-5.4h61.2c3,0,5.4,2.4,5.4,5.4v61.2
		C96,92.9,93.6,95.3,90.6,95.3z"/>
	<path class="st5" d="M88.7,91.3H31.3c-1.8,0-3.3-1.5-3.3-3.3V30.6c0-1.8,1.5-3.3,3.3-3.3h57.4c1.8,0,3.3,1.5,3.3,3.3V88
		C92,89.8,90.5,91.3,88.7,91.3z"/>
	<g>
		<g class="st6">
			<polygon points="36.2,41.4 60,27.6 83.9,41.4 94.9,33.1 60,12.9 25.1,33.1 			"/>
		</g>
		<g>
			<polygon class="st7" points="36.2,39.4 60,25.6 83.9,39.4 94.9,31 60,10.9 25.1,31 			"/>
		</g>
	</g>
	
		<linearGradient id="SVGID_00000016061577075613074810000001661442881296482200_" gradientUnits="userSpaceOnUse" x1="60.001" y1="107.7843" x2="60.001" y2="10.861">
		<stop  offset="0" style="stop-color:#6E7EA8"/>
		<stop  offset="0.2558" style="stop-color:#8599BD"/>
		<stop  offset="0.7528" style="stop-color:#AEC9E3"/>
		<stop  offset="1" style="stop-color:#BEDCF1"/>
	</linearGradient>
	<path style="fill:url(#SVGID_00000016061577075613074810000001661442881296482200_);" d="M25.1,31L60,10.9L94.9,31l-11.1,8.3
		L60,25.6L36.2,39.4L25.1,31z M89.2,51v25.2L60,93L30.8,76.2V51L18,41.4v42.1l42,24.2l42-24.2V41.4L89.2,51z"/>
	
		<linearGradient id="SVGID_00000152955697062397795580000012974581922856020639_" gradientUnits="userSpaceOnUse" x1="60.001" y1="104.6448" x2="60.001" y2="14.0005">
		<stop  offset="0" style="stop-color:#8D99C5"/>
		<stop  offset="1" style="stop-color:#BEDCF1"/>
	</linearGradient>
	<path style="fill:url(#SVGID_00000152955697062397795580000012974581922856020639_);" d="M99.3,43.5V82L60,104.6L20.8,82V43.5
		l7.5,5.6v28.6L60,96l31.8-18.3V49.1L99.3,43.5z M60,14L27.4,32.8l6.5,4.9L60,22.6l26.1,15.1l6.5-4.9L60,14z"/>
	<g>
		<g class="st6">
			<path d="M16.9,94.3l31.8-22.5l-0.6-0.5l-1.4-0.6L14,92.9c-0.5,0.4-0.9,0.8-1,1.4H16.9z"/>
			<path d="M51.5,74.3l-35,20H13c-0.3,0.9-0.1,2,0.7,2.7l14.2,12.8c1.2,1,3,0.8,3.9-0.4l23.1-32.2L51.5,74.3z"/>
			<path d="M47.6,71.7L16.8,93.4c-0.8,0.6-0.8,1.7-0.2,2.3l11.7,11.1c0.7,0.6,1.7,0.5,2.3-0.2L54.2,76L47.6,71.7z"/>
		</g>
		<g>
			<g>
				
					<linearGradient id="SVGID_00000087403705090171176690000002210433654919528322_" gradientUnits="userSpaceOnUse" x1="12.7273" y1="96.1198" x2="41.9613" y2="67.0579">
					<stop  offset="0.3952" style="stop-color:#879BBE"/>
					<stop  offset="0.4323" style="stop-color:#95A8C7"/>
					<stop  offset="0.4965" style="stop-color:#A6B7D3"/>
					<stop  offset="0.5765" style="stop-color:#B1C2DB"/>
					<stop  offset="0.6886" style="stop-color:#B8C8E0"/>
					<stop  offset="1" style="stop-color:#BACAE1"/>
				</linearGradient>
				<path style="fill:url(#SVGID_00000087403705090171176690000002210433654919528322_);" d="M13.5,92.9l31.8-22.5L44.8,70l-1.4-0.6
					L10.6,91.5c-0.5,0.4-0.9,0.8-1,1.4H13.5z"/>
				
					<linearGradient id="SVGID_00000049191113668068770110000016083663678700467364_" gradientUnits="userSpaceOnUse" x1="16.8261" y1="102.1486" x2="52.0122" y2="76.2913">
					<stop  offset="0" style="stop-color:#546C8F"/>
					<stop  offset="0.1734" style="stop-color:#475C7B"/>
					<stop  offset="0.7336" style="stop-color:#1F2A3D"/>
					<stop  offset="1" style="stop-color:#0F1725"/>
				</linearGradient>
				<path style="fill:url(#SVGID_00000049191113668068770110000016083663678700467364_);" d="M48.1,72.9l-35,20H9.6
					c-0.3,0.9-0.1,2,0.7,2.7l14.2,12.8c1.2,1,3,0.8,3.9-0.4l23.1-32.2L48.1,72.9z"/>
				
					<linearGradient id="SVGID_00000114065872279722865690000009425806684065584793_" gradientUnits="userSpaceOnUse" x1="21.0624" y1="97.9166" x2="46.3424" y2="72.7854">
					<stop  offset="0" style="stop-color:#7A8DB7"/>
					<stop  offset="0.1621" style="stop-color:#778AB3"/>
					<stop  offset="0.3348" style="stop-color:#6E80A6"/>
					<stop  offset="0.5125" style="stop-color:#607191"/>
					<stop  offset="0.6936" style="stop-color:#4C5B73"/>
					<stop  offset="0.8757" style="stop-color:#323F4D"/>
					<stop  offset="0.9004" style="stop-color:#2E3B47"/>
				</linearGradient>
				<path style="fill:url(#SVGID_00000114065872279722865690000009425806684065584793_);" d="M44.2,70.3L13.4,92
					c-0.8,0.6-0.8,1.7-0.2,2.3l11.7,11.1c0.7,0.6,1.7,0.5,2.3-0.2l23.6-30.7L44.2,70.3z"/>
			</g>
		</g>
	</g>
	<g>
		<g class="st6">
			<path d="M103.1,94.3L71.3,71.8l0.6-0.5l1.4-0.6L106,92.9c0.5,0.4,0.9,0.8,1,1.4H103.1z"/>
			<path d="M68.5,74.3l35,20h3.5c0.3,0.9,0.1,2-0.7,2.7l-14.2,12.8c-1.2,1-3,0.8-3.9-0.4L65.1,77.2L68.5,74.3z"/>
			<path d="M72.4,71.7l30.9,21.7c0.8,0.6,0.8,1.7,0.2,2.3l-11.7,11.1c-0.7,0.6-1.7,0.5-2.3-0.2L65.8,76L72.4,71.7z"/>
		</g>
		<g>
			<g>
				
					<linearGradient id="SVGID_00000166667967011176637980000010431995849464223640_" gradientUnits="userSpaceOnUse" x1="-44.2923" y1="96.1198" x2="-15.0583" y2="67.0579" gradientTransform="matrix(-1 0 0 1 62.9824 0)">
					<stop  offset="0.3952" style="stop-color:#879BBE"/>
					<stop  offset="0.4323" style="stop-color:#95A8C7"/>
					<stop  offset="0.4965" style="stop-color:#A6B7D3"/>
					<stop  offset="0.5765" style="stop-color:#B1C2DB"/>
					<stop  offset="0.6886" style="stop-color:#B8C8E0"/>
					<stop  offset="1" style="stop-color:#BACAE1"/>
				</linearGradient>
				<path style="fill:url(#SVGID_00000166667967011176637980000010431995849464223640_);" d="M106.5,92.9L74.7,70.5l0.6-0.5l1.4-0.6
					l32.8,22.2c0.5,0.4,0.9,0.8,1,1.4H106.5z"/>
				
					<linearGradient id="SVGID_00000060009267937904426130000009345111209940646551_" gradientUnits="userSpaceOnUse" x1="-40.1934" y1="102.1486" x2="-5.0073" y2="76.2913" gradientTransform="matrix(-1 0 0 1 62.9824 0)">
					<stop  offset="0" style="stop-color:#546C8F"/>
					<stop  offset="0.1734" style="stop-color:#475C7B"/>
					<stop  offset="0.7336" style="stop-color:#1F2A3D"/>
					<stop  offset="1" style="stop-color:#0F1725"/>
				</linearGradient>
				<path style="fill:url(#SVGID_00000060009267937904426130000009345111209940646551_);" d="M71.9,72.9l35,20h3.5
					c0.3,0.9,0.1,2-0.7,2.7l-14.2,12.8c-1.2,1-3,0.8-3.9-0.4L68.5,75.8L71.9,72.9z"/>
				
					<linearGradient id="SVGID_00000062165318493396921880000002979208258703501243_" gradientUnits="userSpaceOnUse" x1="-35.9572" y1="97.9166" x2="-10.6771" y2="72.7854" gradientTransform="matrix(-1 0 0 1 62.9824 0)">
					<stop  offset="0" style="stop-color:#7A8DB7"/>
					<stop  offset="0.1621" style="stop-color:#778AB3"/>
					<stop  offset="0.3348" style="stop-color:#6E80A6"/>
					<stop  offset="0.5125" style="stop-color:#607191"/>
					<stop  offset="0.6936" style="stop-color:#4C5B73"/>
					<stop  offset="0.8757" style="stop-color:#323F4D"/>
					<stop  offset="0.9004" style="stop-color:#2E3B47"/>
				</linearGradient>
				<path style="fill:url(#SVGID_00000062165318493396921880000002979208258703501243_);" d="M75.8,70.3L106.6,92
					c0.8,0.6,0.8,1.7,0.2,2.3l-11.7,11.1c-0.7,0.6-1.7,0.5-2.3-0.2L69.2,74.7L75.8,70.3z"/>
			</g>
		</g>
	</g>
	<g>
		<g>
			<circle class="st16" cx="60" cy="59.3" r="20.2"/>
		</g>
		<defs>
			<filter id="Adobe_OpacityMaskFilter" filterUnits="userSpaceOnUse" x="39.8" y="39.1" width="40.4" height="40.4">
				
					<feColorMatrix  type="matrix" values="-1 0 0 0 1  0 -1 0 0 1  0 0 -1 0 1  0 0 0 1 0" color-interpolation-filters="sRGB" result="source"/>
			</filter>
		</defs>
		
			<mask maskUnits="userSpaceOnUse" x="39.8" y="39.1" width="40.4" height="40.4" id="SVGID_00000183225249771037624110000004786462520347651980_">
			<g class="st17">
				
					<image style="overflow:visible;" width="46" height="45" xlink:href="10E7BB061948F308.jpg"  transform="matrix(1 0 0 1 37 37)">
				</image>
			</g>
		</mask>
		<g style="mask:url(#SVGID_00000183225249771037624110000004786462520347651980_);">
			<circle class="st19" cx="60" cy="59.3" r="20.2"/>
		</g>
	</g>
	<g>
		<g>
			<circle class="st20" cx="60" cy="59.3" r="13.3"/>
		</g>
		<g>
			<circle class="st21" cx="60" cy="59.3" r="13.3"/>
		</g>
	</g>
	
		<radialGradient id="SVGID_00000085970329798000422980000000129386191332746931_" cx="60.001" cy="59.3227" r="11.7036" gradientUnits="userSpaceOnUse">
		<stop  offset="0" style="stop-color:#3154A0"/>
		<stop  offset="0.4254" style="stop-color:#31539E"/>
		<stop  offset="0.5786" style="stop-color:#305097"/>
		<stop  offset="0.6878" style="stop-color:#2E4C8C"/>
		<stop  offset="0.7761" style="stop-color:#2B457B"/>
		<stop  offset="0.8518" style="stop-color:#283C65"/>
		<stop  offset="0.9187" style="stop-color:#243149"/>
		<stop  offset="0.9778" style="stop-color:#1F242A"/>
		<stop  offset="1" style="stop-color:#1D1E1C"/>
	</radialGradient>
	<circle style="fill:url(#SVGID_00000085970329798000422980000000129386191332746931_);" cx="60" cy="59.3" r="11.7"/>
	
		<radialGradient id="SVGID_00000134241242974214457330000015197936733879666363_" cx="60.001" cy="59.3227" r="10.1209" gradientUnits="userSpaceOnUse">
		<stop  offset="0" style="stop-color:#5486C5"/>
		<stop  offset="0.4889" style="stop-color:#5588C6"/>
		<stop  offset="0.665" style="stop-color:#5A8FC9"/>
		<stop  offset="0.7905" style="stop-color:#629ACF"/>
		<stop  offset="0.892" style="stop-color:#6EABD7"/>
		<stop  offset="0.9779" style="stop-color:#7DC1E2"/>
		<stop  offset="1" style="stop-color:#82C8E5"/>
	</radialGradient>
	<circle style="fill:url(#SVGID_00000134241242974214457330000015197936733879666363_);" cx="60" cy="59.3" r="10.1"/>
	
		<radialGradient id="SVGID_00000126306649773729521370000003743714607850732718_" cx="57.5601" cy="56.119" r="7.7795" gradientUnits="userSpaceOnUse">
		<stop  offset="0.1369" style="stop-color:#CAE0F5"/>
		<stop  offset="1" style="stop-color:#82C8E5"/>
	</radialGradient>
	<circle style="fill:url(#SVGID_00000126306649773729521370000003743714607850732718_);" cx="60" cy="59.3" r="7.8"/>
	<g>
		<polygon class="st25" points="36.2,39.4 60,25.6 83.9,39.4 94.9,31 60,10.9 25.1,31 		"/>
		<polygon class="st25" points="89.2,51 89.2,76.2 60,93 30.8,76.2 30.8,51 18,41.4 18,83.6 60,107.8 102,83.6 102,41.4 		"/>
	</g>
	<path class="st25" d="M43.8,69.1L10.6,91.5c-1.4,1-1.5,3-0.3,4.1l14.2,12.8c1.2,1,3,0.8,3.9-0.4l23.1-32.2L43.8,69.1z"/>
</g>
</svg>
