<?xml version="1.0" encoding="utf-8"?>
<!-- Generator: Adobe Illustrator 16.0.0, SVG Export Plug-In . SVG Version: 6.00 Build 0)  -->
<!DOCTYPE svg PUBLIC "-//W3C//DTD SVG 1.1//EN" "http://www.w3.org/Graphics/SVG/1.1/DTD/svg11.dtd">
<svg version="1.1" id="Layer_1" xmlns="http://www.w3.org/2000/svg" xmlns:xlink="http://www.w3.org/1999/xlink" x="0px" y="0px"
	 width="84.765px" height="93.176px" viewBox="0 0 84.765 93.176" enable-background="new 0 0 84.765 93.176" xml:space="preserve">
<g>
	<defs>
		<rect id="SVGID_1_" x="-19" y="-18.687" width="119.625" height="131.496"/>
	</defs>
	<clipPath id="SVGID_2_">
		<use xlink:href="#SVGID_1_"  overflow="visible"/>
	</clipPath>
	<g clip-path="url(#SVGID_2_)">
		<defs>
			<rect id="SVGID_3_" x="-19" y="-18.687" width="119.625" height="131.496"/>
		</defs>
		<clipPath id="SVGID_4_">
			<use xlink:href="#SVGID_3_"  overflow="visible"/>
		</clipPath>
		<g opacity="0.95" clip-path="url(#SVGID_4_)">
			<g>
				<defs>
					<rect id="SVGID_5_" x="9.795" y="12.979" width="62.537" height="67.25"/>
				</defs>
				<clipPath id="SVGID_6_">
					<use xlink:href="#SVGID_5_"  overflow="visible"/>
				</clipPath>
				<g clip-path="url(#SVGID_6_)">
					<g>
						<path fill="#23AFE2" d="M71.641,33.139c0.206,0.128,0.413,0.256,0.618,0.386c0.056,0.034,0.047,0.11-0.006,0.154
							c-0.021,0.017-0.039,0.032-0.057,0.046c-0.07,0.05-0.14,0.101-0.208,0.151c-0.832,0.601-1.663,1.204-2.497,1.802
							c-1.003,0.72-2.008,1.439-3.015,2.151c-2.407,1.699-4.816,3.391-7.22,5.093c-2.625,1.857-5.242,3.721-7.862,5.582
							c-0.857,0.609-1.714,1.219-2.57,1.828c-0.179,0.128-0.362,0.248-0.563,0.339c-0.242-0.112-0.383-0.295-0.407-0.563
							c-0.006-0.048-0.01-0.098-0.025-0.145c-0.114-0.372-0.154-0.763-0.268-1.136c-0.025-0.081-0.057-0.163-0.063-0.247
							c-0.029-0.303-0.142-0.591-0.188-0.892c-0.033-0.215-0.098-0.427-0.141-0.642c-0.043-0.214-0.097-0.426-0.141-0.64
							c-0.071-0.333-0.156-0.663-0.232-0.993c-0.086-0.356-0.134-0.719-0.253-1.066c0-0.186-0.063-0.361-0.107-0.536
							c-0.05-0.189-0.058-0.383-0.124-0.569c-0.028-0.08-0.058-0.163-0.066-0.248c-0.03-0.304-0.134-0.592-0.186-0.892
							c-0.054-0.311-0.151-0.612-0.21-0.924c-0.04-0.215-0.102-0.425-0.143-0.641c-0.043-0.226-0.103-0.449-0.149-0.676
							c-0.067-0.32-0.163-0.635-0.223-0.96c-0.039-0.213-0.102-0.424-0.143-0.641c-0.041-0.226-0.102-0.449-0.149-0.676
							c-0.067-0.32-0.162-0.635-0.222-0.958c-0.039-0.215-0.102-0.426-0.143-0.641c-0.041-0.227-0.126-0.444-0.145-0.677
							c-0.123-0.408-0.194-0.828-0.297-1.242c-0.047-0.189-0.079-0.381-0.12-0.57c-0.047-0.214-0.092-0.427-0.155-0.637
							c-0.072-0.246-0.16-0.487-0.148-0.75c0.001-0.036-0.002-0.076-0.018-0.108c-0.064-0.138-0.051-0.286-0.059-0.431
							c0.378,0.005,0.758,0.01,1.136,0.018c0.073,0.001,0.15,0,0.218,0.021c0.143,0.041,0.292,0.035,0.437,0.042
							c0.303,0.012,0.61-0.013,0.912,0.061c0.067,0.017,0.145,0.008,0.218,0.01c0.184,0.004,0.368,0.005,0.551,0.011
							c0.085,0.002,0.173,0.005,0.253,0.025c0.121,0.03,0.241,0.031,0.363,0.037c0.354,0.014,0.709-0.015,1.06,0.066
							c0.058,0.013,0.121,0.004,0.181,0.006c0.209,0.004,0.417,0.007,0.624,0.012c0.085,0.002,0.173,0.002,0.255,0.024
							c0.132,0.033,0.266,0.032,0.399,0.038c0.315,0.015,0.636-0.012,0.948,0.065c0.059,0.014,0.121,0.005,0.183,0.007
							c0.207,0.004,0.415,0.007,0.622,0.012c0.086,0.003,0.174-0.003,0.255,0.02c0.156,0.042,0.314,0.035,0.473,0.044
							c0.318,0.014,0.636-0.016,0.948,0.063c0.072,0.017,0.146,0.008,0.22,0.01c0.184,0.004,0.366,0.005,0.55,0.011
							c0.085,0.003,0.172,0.004,0.253,0.024c0.122,0.031,0.242,0.031,0.364,0.037c0.353,0.016,0.708-0.014,1.059,0.066
							c0.07,0.016,0.146,0.007,0.221,0.009c0.193,0.004,0.389,0.005,0.585,0.011c0.072,0.001,0.149-0.006,0.218,0.014
							c0.18,0.052,0.363,0.042,0.548,0.049c0.303,0.013,0.608-0.011,0.909,0.064c0.07,0.017,0.147,0.007,0.22,0.008
							c0.195,0.004,0.392,0.007,0.586,0.011c0.074,0.001,0.149-0.005,0.219,0.015c0.204,0.055,0.412,0.043,0.618,0.052
							c0.28,0.011,0.563-0.013,0.84,0.059c0.056,0.016,0.121,0.009,0.183,0.01c0.182,0.004,0.367,0.006,0.55,0.011
							c0.085,0.001,0.174-0.005,0.255,0.016c0.167,0.046,0.338,0.041,0.508,0.047c0.317,0.013,0.637-0.011,0.948,0.065
							c0.058,0.012,0.121,0.005,0.183,0.007c0.184,0.004,0.367,0.005,0.55,0.011c0.085,0.003,0.175-0.002,0.255,0.021
							c0.144,0.038,0.292,0.034,0.437,0.041c0.329,0.016,0.659-0.014,0.983,0.064c0.07,0.016,0.146,0.007,0.221,0.009
							c0.194,0.005,0.391,0.006,0.585,0.012c0.074,0.001,0.15-0.006,0.22,0.012c0.228,0.061,0.46,0.045,0.692,0.054
							c0.158,0.006,0.321-0.013,0.474,0.02c0.242,0.051,0.487,0.045,0.729,0.053c0.245,0.009,0.487-0.005,0.729,0.057
							c0.069,0.017,0.146,0.01,0.221,0.011c0.205,0.004,0.415,0.007,0.622,0.013c0.086,0.003,0.172,0.001,0.256,0.021
							c0.241,0.058,0.483,0.04,0.728,0.042C71.553,33.191,71.597,33.158,71.641,33.139"/>
						<path fill="#105296" d="M15.173,31.137c0-0.013-0.001-0.026,0.001-0.037c0.021-0.09,0.082-0.126,0.154-0.094
							c0.034,0.015,0.068,0.028,0.099,0.047c2.481,1.562,4.956,3.136,7.418,4.729c0.38,0.247,0.761,0.489,1.146,0.725
							c0.77,0.472,1.534,0.956,2.292,1.452c1.727,1.13,3.481,2.22,5.233,3.315c0.568,0.357,1.138,0.715,1.699,1.085
							c0.858,0.563,1.733,1.101,2.6,1.648c1.468,0.927,2.927,1.866,4.391,2.798c1.134,0.721,2.265,1.447,3.378,2.202
							c0.677,0.459,1.381,0.879,2.081,1.303c0.429,0.26,0.855,0.521,1.283,0.782c0.072,0.045,0.146,0.091,0.208,0.147
							c0.084,0.079,0.129,0.179,0.088,0.298c-0.121,0.007-0.248-0.008-0.364,0.023c-0.433,0.12-0.877,0.188-1.311,0.313
							c-0.034,0.01-0.068,0.023-0.104,0.027c-0.41,0.056-0.802,0.198-1.208,0.27c-0.227,0.04-0.445,0.126-0.673,0.165
							c-0.371,0.061-0.733,0.164-1.103,0.237c-0.178,0.034-0.35,0.107-0.53,0.131c-0.302,0.041-0.592,0.136-0.892,0.19
							c-0.308,0.054-0.608,0.162-0.919,0.223c-0.322,0.063-0.634,0.167-0.961,0.202c-0.396,0.118-0.802,0.196-1.206,0.285
							c-0.165,0.037-0.326,0.105-0.493,0.127c-0.304,0.036-0.587,0.156-0.892,0.183c-0.479,0.141-0.97,0.221-1.453,0.347
							c-0.083,0.021-0.162,0.055-0.247,0.063c-0.302,0.033-0.591,0.134-0.889,0.189c-0.311,0.058-0.61,0.166-0.92,0.223
							c-0.31,0.061-0.615,0.141-0.926,0.199c-0.333,0.062-0.662,0.155-0.992,0.231c-0.378,0.085-0.758,0.173-1.136,0.265
							c-0.083,0.021-0.163,0.054-0.246,0.063c-0.366,0.036-0.706,0.182-1.066,0.241c-0.096,0.015-0.189,0.055-0.246,0.146
							c-0.041-0.032-0.083-0.063-0.124-0.093c-0.061-0.158-0.11-0.323-0.184-0.477c-0.18-0.374-0.369-0.744-0.562-1.112
							c-0.224-0.422-0.459-0.835-0.687-1.254c-0.197-0.365-0.392-0.73-0.588-1.099c-0.34-0.634-0.683-1.268-1.024-1.903
							c-0.346-0.645-0.694-1.29-1.041-1.935c-0.19-0.355-0.372-0.716-0.568-1.068c-0.356-0.64-0.702-1.286-1.042-1.935
							c-0.358-0.681-0.72-1.358-1.091-2.035c-0.205-0.374-0.392-0.758-0.602-1.132c-0.198-0.352-0.371-0.715-0.569-1.066
							c-0.209-0.373-0.394-0.758-0.603-1.133c-0.228-0.404-0.423-0.825-0.652-1.228c-0.205-0.362-0.381-0.739-0.586-1.1
							c-0.206-0.361-0.393-0.732-0.588-1.098c-0.196-0.367-0.396-0.731-0.585-1.1c-0.36-0.694-0.74-1.378-1.105-2.069
							c-0.263-0.495-0.566-0.971-0.737-1.511c-0.011-0.036-0.03-0.068-0.047-0.099C15.409,31.308,15.317,31.194,15.173,31.137"/>
						<path fill="#1F91CA" d="M43.739,31.572c0.008,0.145-0.007,0.293,0.059,0.432c0.016,0.033,0.019,0.072,0.018,0.109
							c-0.012,0.261,0.076,0.504,0.148,0.749c0.062,0.209,0.108,0.422,0.157,0.637c0.039,0.19,0.071,0.381,0.118,0.572
							c0.103,0.412,0.175,0.832,0.297,1.24c0.018,0.232,0.104,0.452,0.145,0.677c0.041,0.216,0.104,0.426,0.143,0.641
							c0.062,0.325,0.154,0.638,0.222,0.96c0.046,0.225,0.108,0.45,0.149,0.675c0.043,0.216,0.104,0.426,0.143,0.641
							c0.06,0.323,0.155,0.637,0.222,0.958c0.048,0.228,0.107,0.45,0.151,0.676c0.04,0.216,0.102,0.428,0.141,0.642
							c0.058,0.311,0.157,0.614,0.212,0.923c0.051,0.301,0.154,0.588,0.185,0.894c0.009,0.083,0.038,0.166,0.066,0.247
							c0.064,0.184,0.074,0.381,0.123,0.569c0.045,0.177,0.108,0.351,0.108,0.538c0.119,0.346,0.167,0.709,0.251,1.064
							c0.078,0.331,0.163,0.662,0.232,0.994c0.046,0.214,0.1,0.426,0.143,0.64c0.043,0.216,0.107,0.426,0.141,0.641
							c0.046,0.302,0.158,0.589,0.187,0.893c0.007,0.084,0.038,0.166,0.063,0.249c0.113,0.371,0.154,0.763,0.269,1.134
							c0.016,0.047,0.019,0.098,0.023,0.145c0.026,0.268,0.167,0.45,0.408,0.563c-0.057,0.087-0.138,0.136-0.239,0.151
							c-0.113,0.017-0.221-0.003-0.314-0.067c-0.062-0.041-0.122-0.086-0.175-0.134c-0.147-0.13-0.309-0.24-0.472-0.348
							c-2.529-1.673-5.056-3.349-7.586-5.018c-1.583-1.044-3.161-2.092-4.755-3.118c-1.346-0.868-2.682-1.753-3.999-2.663
							c-1.106-0.765-2.222-1.514-3.351-2.245c-1.026-0.664-2.055-1.325-3.082-1.987c-2.178-1.407-4.334-2.844-6.477-4.303
							c-0.384-0.262-0.762-0.53-1.144-0.797c-0.069-0.048-0.135-0.103-0.202-0.157c-0.042-0.034-0.031-0.077,0.041-0.145
							c0.108,0.096,0.24,0.114,0.376,0.117c0.232,0.004,0.463,0.009,0.695,0.016c0.099,0.002,0.199,0,0.292,0.022
							c0.144,0.035,0.289,0.034,0.436,0.04c0.305,0.012,0.611-0.01,0.912,0.062c0.071,0.018,0.147,0.007,0.219,0.008
							c0.196,0.006,0.392,0.009,0.587,0.013c0.073,0.003,0.149-0.004,0.218,0.013c0.216,0.057,0.437,0.046,0.655,0.056
							c0.123,0.004,0.249-0.008,0.365,0.019c0.229,0.054,0.46,0.046,0.692,0.058c0.097,0.004,0.199-0.005,0.292,0.019
							c0.169,0.043,0.339,0.042,0.509,0.048c0.292,0.009,0.585-0.006,0.874,0.062c0.071,0.015,0.147,0.005,0.22,0.007
							c0.232,0.005,0.464,0.008,0.696,0.014c0.074,0.001,0.149-0.007,0.221,0.01c0.288,0.069,0.583,0.046,0.875,0.059
							c0.108,0.005,0.222-0.009,0.327,0.017c0.217,0.052,0.438,0.043,0.656,0.054c0.121,0.005,0.248-0.011,0.365,0.018
							c0.242,0.057,0.486,0.045,0.729,0.058c0.11,0.004,0.225-0.006,0.327,0.021c0.183,0.044,0.365,0.041,0.546,0.049
							c0.134,0.005,0.273-0.006,0.401,0.023c0.182,0.042,0.364,0.042,0.546,0.051c0.11,0.004,0.225-0.007,0.329,0.021
							c0.194,0.047,0.387,0.043,0.582,0.052c0.208,0.008,0.415-0.002,0.618,0.056c0.058,0.017,0.121,0.01,0.182,0.013
							c0.268,0.011,0.538-0.004,0.802,0.062c0.071,0.017,0.147,0.008,0.22,0.01c0.158,0.004,0.318,0.006,0.476,0.013
							c0.085,0.002,0.172,0.004,0.255,0.024c0.121,0.028,0.242,0.034,0.363,0.035c0.245,0.005,0.489,0.008,0.733,0.014
							c0.086,0.001,0.175-0.006,0.255,0.016c0.181,0.046,0.362,0.042,0.546,0.043c0.489,0.004,0.979,0.009,1.466,0.012
							c0.159,0.001,0.316-0.002,0.471,0.044c0.081,0.025,0.169,0.021,0.255,0.024c0.243,0.004,0.489,0.007,0.732,0.011
							c0.085,0.001,0.175-0.011,0.256,0.01c0.24,0.065,0.484,0.049,0.728,0.058c0.108,0.004,0.223-0.004,0.328,0.019
							c0.158,0.037,0.315,0.04,0.474,0.043c0.231,0.005,0.462,0.007,0.697,0.014c0.083,0.001,0.172,0.004,0.253,0.024
							c0.121,0.028,0.241,0.031,0.363,0.034c0.244,0.004,0.488,0.007,0.734,0.014c0.096,0.003,0.196,0.001,0.29,0.024
							c0.133,0.031,0.267,0.034,0.4,0.036c0.231,0.004,0.464,0.008,0.695,0.011c0.158,0.004,0.316,0,0.473,0.045
							c0.045,0.013,0.095-0.006,0.144-0.01C43.686,31.557,43.712,31.565,43.739,31.572"/>
						<path fill="#223971" d="M28.47,55.88c0.058-0.09,0.149-0.131,0.246-0.146c0.36-0.06,0.7-0.205,1.066-0.241
							c0.083-0.009,0.163-0.043,0.246-0.063c0.377-0.092,0.757-0.18,1.136-0.265c0.331-0.076,0.658-0.17,0.991-0.231
							c0.311-0.059,0.615-0.139,0.926-0.199c0.309-0.057,0.609-0.165,0.92-0.223c0.297-0.056,0.587-0.156,0.889-0.189
							c0.084-0.009,0.165-0.043,0.247-0.063c0.482-0.127,0.975-0.207,1.452-0.348c0.305-0.026,0.588-0.146,0.893-0.182
							c0.167-0.022,0.328-0.091,0.493-0.128c0.404-0.089,0.81-0.166,1.206-0.284c0.328-0.036,0.639-0.141,0.961-0.203
							c0.311-0.061,0.611-0.169,0.919-0.223c0.3-0.055,0.59-0.15,0.892-0.19c0.18-0.023,0.353-0.097,0.53-0.131
							c0.369-0.073,0.731-0.177,1.103-0.238c0.228-0.038,0.446-0.124,0.674-0.164c0.405-0.073,0.797-0.214,1.207-0.27
							c0.036-0.004,0.07-0.018,0.104-0.027c0.434-0.125,0.878-0.192,1.311-0.313c0.116-0.031,0.243-0.017,0.364-0.023
							c0,0.061,0.01,0.123-0.001,0.182c-0.183,1.048-0.368,2.094-0.549,3.141c-0.184,1.061-0.361,2.122-0.544,3.181
							c-0.209,1.204-0.422,2.407-0.632,3.609c-0.221,1.265-0.438,2.529-0.657,3.793c-0.157,0.915-0.312,1.832-0.47,2.747
							c-0.168,0.975-0.337,1.951-0.509,2.926c-0.083,0.469-0.175,0.937-0.26,1.404c-0.059,0.325-0.107,0.652-0.165,0.977
							c-0.083,0.481-0.169,0.963-0.258,1.443c-0.104,0.554-0.19,1.107-0.276,1.662c-0.129,0.822-0.254,1.644-0.45,2.452
							c-0.064,0.262-0.109,0.525-0.12,0.796c-0.005,0.11-0.025,0.219-0.039,0.327c-0.007,0.041-0.081,0.067-0.121,0.04
							c-0.049-0.035-0.094-0.077-0.141-0.113c0.02-0.141-0.018-0.267-0.076-0.391c-0.078-0.165-0.182-0.318-0.285-0.469
							c-0.217-0.313-0.406-0.638-0.584-0.973c-0.132-0.248-0.271-0.49-0.409-0.737c-0.192-0.34-0.384-0.681-0.576-1.021
							c-0.15-0.267-0.295-0.535-0.446-0.799c-0.271-0.479-0.544-0.955-0.815-1.433c-0.241-0.425-0.48-0.85-0.72-1.277
							c-0.293-0.521-0.591-1.041-0.885-1.562c-0.151-0.266-0.296-0.533-0.446-0.8c-0.283-0.5-0.567-0.997-0.848-1.498
							c-0.156-0.276-0.306-0.557-0.462-0.833c-0.27-0.479-0.545-0.954-0.814-1.434c-0.287-0.511-0.568-1.025-0.853-1.538
							c-0.136-0.245-0.274-0.49-0.412-0.735c-0.275-0.489-0.553-0.977-0.829-1.466c-0.156-0.279-0.305-0.558-0.46-0.836
							c-0.322-0.572-0.646-1.148-0.968-1.723c-0.149-0.268-0.296-0.535-0.446-0.802c-0.179-0.318-0.363-0.635-0.542-0.956
							c-0.153-0.277-0.303-0.559-0.458-0.835c-0.3-0.532-0.604-1.062-0.898-1.597C28.721,56.208,28.607,56.037,28.47,55.88"/>
						<path fill="#105296" d="M43.739,31.572c-0.027-0.007-0.054-0.016-0.08-0.023c0-0.037,0.011-0.076-0.002-0.108
							c-0.068-0.196-0.082-0.404-0.129-0.605c-0.067-0.295-0.104-0.598-0.173-0.894c-0.145-0.604-0.306-1.204-0.453-1.807
							c-0.069-0.282-0.165-0.56-0.191-0.853c-0.06-0.136-0.054-0.288-0.091-0.427c-0.114-0.424-0.206-0.85-0.285-1.282
							c-0.042-0.226-0.104-0.449-0.15-0.676c-0.047-0.226-0.107-0.447-0.15-0.676c-0.053-0.273-0.134-0.541-0.201-0.814
							c-0.07-0.282-0.137-0.567-0.205-0.849c-0.05-0.202-0.11-0.399-0.144-0.604c-0.023-0.132-0.05-0.262-0.081-0.392
							c-0.033-0.141-0.069-0.285-0.075-0.431c-0.005-0.137-0.053-0.261-0.073-0.394c-0.049-0.288-0.095-0.576-0.199-0.851
							c-0.013-0.034-0.017-0.072-0.024-0.106c-0.102-0.364-0.141-0.739-0.218-1.109c-0.073-0.356-0.137-0.714-0.218-1.069
							c-0.085-0.367-0.157-0.737-0.253-1.102c-0.188-0.729-0.376-1.459-0.497-2.205c-0.034-0.203-0.086-0.403-0.137-0.604
							c-0.051-0.202-0.092-0.404-0.074-0.613c0.103,0.012,0.174,0.082,0.256,0.133c1.284,0.804,2.567,1.608,3.851,2.413
							c6.063,3.805,12.125,7.608,18.188,11.411c3.146,1.973,6.29,3.947,9.436,5.922c0.092,0.058,0.184,0.12,0.276,0.18
							c-0.045,0.02-0.09,0.053-0.134,0.053c-0.244-0.002-0.487,0.018-0.729-0.04c-0.083-0.021-0.17-0.02-0.255-0.021
							c-0.209-0.006-0.417-0.008-0.623-0.014c-0.073-0.001-0.15,0.007-0.22-0.012c-0.241-0.062-0.484-0.046-0.729-0.057
							c-0.242-0.008-0.487-0.003-0.729-0.053c-0.152-0.032-0.315-0.013-0.474-0.019c-0.232-0.01-0.465,0.007-0.692-0.055
							c-0.069-0.018-0.146-0.01-0.22-0.012c-0.194-0.005-0.391-0.008-0.586-0.012c-0.073-0.003-0.149,0.007-0.22-0.008
							c-0.324-0.08-0.655-0.05-0.983-0.064c-0.146-0.009-0.293-0.002-0.438-0.042c-0.079-0.022-0.169-0.018-0.254-0.021
							c-0.183-0.006-0.366-0.008-0.55-0.012c-0.062-0.001-0.125,0.007-0.183-0.007c-0.313-0.076-0.631-0.052-0.948-0.063
							c-0.17-0.007-0.341-0.001-0.508-0.049c-0.081-0.022-0.17-0.013-0.255-0.016c-0.185-0.006-0.368-0.007-0.55-0.012
							c-0.062-0.001-0.127,0.005-0.183-0.008c-0.277-0.074-0.56-0.049-0.84-0.061c-0.206-0.008-0.414,0.003-0.618-0.053
							c-0.069-0.02-0.145-0.011-0.219-0.012c-0.194-0.006-0.39-0.009-0.586-0.013c-0.074-0.001-0.149,0.009-0.22-0.008
							c-0.301-0.074-0.606-0.051-0.911-0.062c-0.183-0.007-0.366,0.001-0.546-0.05c-0.067-0.019-0.146-0.012-0.219-0.015
							c-0.195-0.004-0.391-0.007-0.586-0.012c-0.073-0.001-0.148,0.008-0.219-0.008c-0.351-0.081-0.706-0.051-1.059-0.065
							c-0.122-0.006-0.242-0.007-0.364-0.037c-0.081-0.021-0.168-0.021-0.253-0.025c-0.184-0.006-0.365-0.007-0.55-0.011
							c-0.074-0.002-0.149,0.007-0.22-0.01c-0.313-0.078-0.631-0.048-0.948-0.062c-0.158-0.007-0.316,0-0.471-0.044
							c-0.083-0.021-0.171-0.017-0.257-0.02c-0.207-0.006-0.415-0.008-0.622-0.013c-0.062-0.001-0.124,0.007-0.182-0.007
							c-0.313-0.078-0.634-0.05-0.949-0.063c-0.134-0.006-0.268-0.004-0.399-0.04c-0.082-0.021-0.17-0.019-0.255-0.022
							c-0.207-0.007-0.415-0.01-0.624-0.015c-0.06-0.001-0.122,0.009-0.181-0.005c-0.351-0.082-0.706-0.052-1.06-0.066
							c-0.122-0.006-0.242-0.007-0.363-0.035c-0.081-0.022-0.167-0.023-0.253-0.026c-0.185-0.007-0.367-0.009-0.551-0.013
							c-0.073-0.001-0.15,0.009-0.219-0.008c-0.301-0.075-0.608-0.049-0.911-0.062c-0.146-0.007-0.292,0-0.437-0.042
							c-0.069-0.02-0.145-0.018-0.218-0.02C44.496,31.583,44.117,31.577,43.739,31.572"/>
						<path fill="#1F91CA" d="M28.47,55.88c0.137,0.156,0.25,0.328,0.35,0.511c0.293,0.535,0.598,1.064,0.898,1.597
							c0.155,0.276,0.305,0.558,0.458,0.835c0.18,0.321,0.363,0.638,0.542,0.956c0.149,0.267,0.296,0.534,0.446,0.802
							c0.322,0.574,0.646,1.15,0.968,1.723c0.155,0.278,0.304,0.557,0.46,0.836c0.275,0.489,0.553,0.977,0.829,1.466
							c0.138,0.245,0.276,0.49,0.412,0.735c0.285,0.513,0.565,1.027,0.853,1.538c0.269,0.479,0.544,0.955,0.814,1.434
							c0.156,0.276,0.306,0.557,0.462,0.833c0.281,0.501,0.565,0.998,0.848,1.498c0.15,0.267,0.295,0.534,0.446,0.8
							c0.294,0.521,0.591,1.041,0.885,1.562c0.24,0.428,0.479,0.853,0.72,1.277c0.271,0.478,0.545,0.953,0.815,1.433
							c0.151,0.264,0.296,0.532,0.446,0.799c0.192,0.341,0.384,0.682,0.576,1.021c0.138,0.247,0.277,0.489,0.409,0.737
							c0.178,0.335,0.367,0.66,0.584,0.973c0.104,0.15,0.207,0.304,0.285,0.469c0.059,0.124,0.096,0.25,0.076,0.391
							c-0.101-0.017-0.176-0.085-0.256-0.137c-1.185-0.756-2.37-1.512-3.556-2.269c-3.555-2.268-7.11-4.538-10.665-6.808
							c-2.226-1.421-4.45-2.843-6.675-4.266c-3.462-2.21-6.924-4.42-10.385-6.632c-0.216-0.138-0.434-0.275-0.646-0.416
							c-0.067-0.044-0.098-0.109-0.058-0.189c0.122-0.002,0.252,0.022,0.365-0.009c0.154-0.042,0.311-0.056,0.465-0.091
							c0.307-0.07,0.618-0.127,0.927-0.188c0.178-0.036,0.358-0.07,0.537-0.106c0.178-0.037,0.354-0.082,0.535-0.109
							c0.301-0.048,0.595-0.121,0.893-0.175c0.335-0.061,0.667-0.139,1-0.199c0.179-0.033,0.356-0.075,0.533-0.113
							c0.287-0.061,0.574-0.114,0.859-0.172c0.298-0.06,0.597-0.112,0.89-0.19c0.046-0.01,0.095-0.029,0.143-0.031
							c0.123-0.005,0.24-0.022,0.358-0.06c0.116-0.035,0.239-0.037,0.357-0.071c0.27-0.071,0.548-0.113,0.821-0.169
							c0.167-0.031,0.333-0.067,0.5-0.103c0.297-0.062,0.592-0.135,0.892-0.183c0.299-0.05,0.596-0.117,0.896-0.172
							c0.344-0.065,0.689-0.137,1.034-0.207c0.155-0.032,0.31-0.06,0.464-0.094c0.202-0.046,0.405-0.083,0.606-0.123
							c0.168-0.03,0.335-0.064,0.501-0.098c0.202-0.04,0.405-0.081,0.607-0.121c0.167-0.034,0.333-0.067,0.501-0.101
							c0.226-0.046,0.447-0.113,0.68-0.122c0.035-0.001,0.074-0.009,0.107-0.021c0.278-0.091,0.57-0.121,0.853-0.196
							c0.082-0.021,0.164-0.057,0.247-0.063c0.316-0.028,0.61-0.175,0.932-0.171c0.162-0.076,0.334-0.057,0.505-0.06
							c0.121-0.001,0.244-0.001,0.367-0.003c0.065-0.001,0.117-0.03,0.158-0.078C28.387,55.818,28.43,55.85,28.47,55.88"/>
						<path fill="#23AFE2" d="M28.346,55.788c-0.041,0.05-0.093,0.079-0.158,0.08c-0.123,0.002-0.246,0.002-0.367,0.003
							c-0.171,0.003-0.343-0.017-0.505,0.06c-0.322-0.004-0.615,0.143-0.932,0.171c-0.083,0.007-0.165,0.041-0.247,0.063
							c-0.283,0.075-0.575,0.105-0.853,0.196c-0.034,0.012-0.072,0.02-0.107,0.021c-0.233,0.009-0.455,0.076-0.682,0.122
							c-0.166,0.033-0.333,0.066-0.5,0.101c-0.203,0.04-0.405,0.081-0.606,0.121c-0.167,0.031-0.335,0.066-0.5,0.098
							c-0.202,0.04-0.405,0.077-0.607,0.123c-0.154,0.034-0.31,0.062-0.464,0.094c-0.345,0.07-0.69,0.142-1.034,0.207
							c-0.299,0.055-0.596,0.122-0.896,0.172c-0.299,0.048-0.595,0.121-0.892,0.183c-0.167,0.035-0.333,0.069-0.5,0.103
							c-0.273,0.056-0.551,0.098-0.821,0.169c-0.12,0.032-0.241,0.035-0.357,0.071c-0.118,0.037-0.235,0.055-0.358,0.06
							c-0.048,0.002-0.096,0.02-0.143,0.031c-0.293,0.078-0.592,0.131-0.89,0.19c-0.285,0.058-0.574,0.111-0.857,0.172
							c-0.178,0.037-0.354,0.08-0.535,0.113c-0.334,0.061-0.666,0.139-1,0.199c-0.299,0.054-0.594,0.127-0.893,0.175
							c-0.18,0.027-0.357,0.072-0.535,0.109c-0.179,0.036-0.358,0.07-0.536,0.106c-0.31,0.062-0.621,0.118-0.928,0.188
							c-0.155,0.035-0.312,0.049-0.467,0.091c-0.113,0.031-0.242,0.007-0.364,0.009c0.007-0.271,0.078-0.532,0.127-0.797
							c0.161-0.889,0.332-1.776,0.502-2.664c0.182-0.947,0.368-1.894,0.548-2.842c0.159-0.839,0.312-1.68,0.473-2.521
							c0.183-0.972,0.375-1.942,0.559-2.914c0.185-0.983,0.364-1.97,0.551-2.954c0.153-0.816,0.315-1.63,0.471-2.446
							c0.137-0.721,0.269-1.441,0.405-2.163c0.151-0.802,0.306-1.608,0.458-2.41c0.116-0.612,0.232-1.226,0.347-1.835
							c0.13-0.686,0.263-1.369,0.392-2.051c0.14-0.732,0.274-1.465,0.415-2.198c0.03-0.154,0.041-0.313,0.113-0.458
							c0.144,0.058,0.236,0.17,0.313,0.297c0.018,0.031,0.036,0.064,0.047,0.099c0.17,0.54,0.474,1.018,0.737,1.511
							c0.366,0.691,0.746,1.375,1.105,2.069c0.19,0.368,0.389,0.734,0.585,1.099c0.195,0.367,0.382,0.736,0.588,1.099
							c0.205,0.361,0.381,0.738,0.586,1.099c0.229,0.405,0.424,0.825,0.652,1.23c0.208,0.372,0.393,0.759,0.603,1.13
							c0.198,0.351,0.371,0.717,0.569,1.068c0.21,0.372,0.397,0.756,0.602,1.13c0.371,0.675,0.732,1.354,1.091,2.035
							c0.34,0.649,0.687,1.295,1.042,1.935c0.196,0.353,0.378,0.712,0.568,1.069c0.346,0.645,0.695,1.29,1.041,1.935
							c0.341,0.636,0.685,1.27,1.024,1.903c0.196,0.367,0.391,0.733,0.588,1.099c0.228,0.419,0.462,0.832,0.687,1.254
							c0.193,0.367,0.381,0.738,0.562,1.112C28.236,55.465,28.286,55.629,28.346,55.788"/>
						<path fill="#223971" d="M39.635,13.078c-0.019,0.209,0.023,0.412,0.074,0.614c0.05,0.2,0.103,0.4,0.136,0.604
							c0.122,0.745,0.31,1.475,0.498,2.204c0.096,0.364,0.168,0.734,0.253,1.102c0.081,0.354,0.146,0.712,0.218,1.069
							c0.075,0.369,0.116,0.745,0.218,1.108c0.009,0.035,0.014,0.072,0.024,0.106c0.106,0.275,0.15,0.564,0.199,0.852
							c0.021,0.131,0.068,0.255,0.073,0.394c0.006,0.144,0.042,0.288,0.075,0.429c0.031,0.131,0.058,0.261,0.079,0.394
							c0.035,0.203,0.096,0.402,0.146,0.603c0.068,0.283,0.135,0.567,0.205,0.851c0.067,0.271,0.148,0.54,0.201,0.814
							c0.043,0.227,0.104,0.45,0.15,0.675c0.046,0.226,0.108,0.449,0.15,0.675c0.078,0.432,0.171,0.857,0.285,1.282
							c0.037,0.141,0.031,0.29,0.09,0.427c0.027,0.294,0.123,0.571,0.192,0.854c0.147,0.603,0.309,1.201,0.452,1.805
							c0.072,0.295,0.106,0.598,0.174,0.895c0.047,0.201,0.061,0.408,0.129,0.604c0.013,0.034,0.002,0.073,0.002,0.108
							c-0.049,0.004-0.099,0.022-0.144,0.01c-0.156-0.044-0.314-0.042-0.473-0.044c-0.231-0.004-0.464-0.007-0.695-0.013
							c-0.134-0.002-0.268-0.005-0.4-0.036c-0.094-0.021-0.194-0.02-0.292-0.023c-0.244-0.007-0.488-0.01-0.732-0.014
							c-0.122-0.003-0.242-0.006-0.363-0.034c-0.083-0.021-0.17-0.023-0.255-0.025c-0.23-0.006-0.464-0.009-0.695-0.013
							c-0.158-0.003-0.316-0.006-0.474-0.042c-0.104-0.023-0.217-0.016-0.327-0.02c-0.243-0.01-0.489,0.006-0.729-0.058
							c-0.081-0.021-0.171-0.01-0.255-0.011c-0.244-0.005-0.488-0.006-0.732-0.012c-0.086-0.001-0.175,0.002-0.254-0.022
							c-0.156-0.048-0.315-0.044-0.473-0.045c-0.489-0.004-0.977-0.007-1.466-0.013c-0.182-0.001-0.365,0.003-0.546-0.044
							c-0.08-0.02-0.169-0.012-0.255-0.015c-0.245-0.004-0.489-0.009-0.733-0.013c-0.121-0.003-0.242-0.007-0.365-0.035
							c-0.081-0.02-0.167-0.021-0.253-0.026c-0.159-0.005-0.316-0.007-0.476-0.011c-0.073-0.003-0.149,0.007-0.22-0.01
							c-0.264-0.067-0.532-0.051-0.8-0.063c-0.061-0.002-0.125,0.004-0.182-0.013c-0.204-0.058-0.412-0.047-0.618-0.056
							c-0.195-0.007-0.39-0.005-0.583-0.052c-0.105-0.025-0.219-0.015-0.329-0.02c-0.182-0.008-0.365-0.008-0.546-0.051
							c-0.127-0.03-0.265-0.017-0.401-0.024c-0.182-0.009-0.364-0.003-0.544-0.049c-0.105-0.027-0.219-0.017-0.329-0.021
							c-0.243-0.011-0.487,0-0.729-0.058c-0.117-0.029-0.243-0.013-0.365-0.018c-0.219-0.011-0.438,0-0.657-0.052
							c-0.103-0.025-0.217-0.013-0.328-0.018c-0.292-0.014-0.587,0.01-0.875-0.059c-0.069-0.017-0.147-0.008-0.219-0.011
							c-0.233-0.005-0.465-0.009-0.697-0.013c-0.073-0.002-0.149,0.007-0.218-0.009c-0.29-0.067-0.583-0.052-0.875-0.062
							c-0.171-0.005-0.34-0.004-0.509-0.048c-0.093-0.024-0.194-0.014-0.291-0.018c-0.231-0.01-0.463-0.003-0.693-0.056
							c-0.117-0.029-0.242-0.016-0.364-0.02c-0.22-0.009-0.44,0.001-0.656-0.055c-0.069-0.018-0.145-0.011-0.218-0.013
							c-0.195-0.005-0.391-0.008-0.587-0.013c-0.072-0.001-0.148,0.008-0.219-0.008c-0.301-0.072-0.606-0.05-0.912-0.062
							c-0.145-0.007-0.291-0.004-0.436-0.041c-0.093-0.023-0.193-0.02-0.291-0.023c-0.231-0.007-0.464-0.01-0.697-0.016
							c-0.135-0.001-0.268-0.021-0.375-0.116c0.254-0.19,0.507-0.382,0.763-0.571c4.889-3.602,9.778-7.202,14.667-10.805l7.172-5.28
							c0.079-0.058,0.158-0.116,0.238-0.17c0.082-0.055,0.163-0.041,0.239,0.011C39.605,13.039,39.618,13.06,39.635,13.078"/>
						<path fill="#25AFE2" d="M68.024,64.237c0.002,0.035,0.009,0.072,0.008,0.107c-0.005,0.064-0.03,0.121-0.087,0.155
							c-0.836,0.502-1.627,1.078-2.443,1.615c-0.817,0.536-1.625,1.085-2.438,1.628c-0.812,0.544-1.623,1.087-2.432,1.636
							c-1.284,0.868-2.569,1.738-3.85,2.614c-1.019,0.696-2.027,1.406-3.044,2.103c-0.555,0.38-1.118,0.746-1.678,1.118
							c-1.048,0.695-2.095,1.393-3.144,2.088c-0.56,0.372-1.122,0.738-1.68,1.112C46.9,78.636,46.57,78.868,46.24,79.1
							c-0.418,0.295-0.837,0.595-1.288,0.84c-0.171,0.092-0.354,0.165-0.529,0.246c-0.034,0.017-0.073-0.022-0.064-0.061
							c0.015-0.059,0.035-0.116,0.055-0.173c0.047-0.056,0.103-0.103,0.142-0.163c0.396-0.618,0.79-1.234,1.186-1.851
							c0.401-0.628,0.804-1.255,1.206-1.882c0.476-0.738,0.952-1.478,1.428-2.218c0.178-0.276,0.354-0.556,0.532-0.833
							c0.449-0.698,0.897-1.396,1.346-2.096c0.166-0.256,0.33-0.514,0.492-0.771c0.457-0.708,0.914-1.415,1.37-2.123
							c0.428-0.67,0.854-1.338,1.282-2.006c0.396-0.616,0.791-1.234,1.188-1.85c0.439-0.689,0.885-1.377,1.325-2.064
							c0.389-0.606,0.775-1.215,1.166-1.82c0.343-0.533,0.691-1.064,1.039-1.597c0.078-0.124,0.149-0.252,0.231-0.373
							c0.037-0.061,0.09-0.113,0.136-0.169c0.22,0.007,0.396,0.116,0.567,0.236c0.059,0.041,0.11,0.094,0.171,0.135
							c0.618,0.412,1.236,0.825,1.857,1.235c0.631,0.414,1.245,0.853,1.896,1.243c0.344,0.205,0.658,0.462,1.018,0.647
							c0.485,0.348,1.01,0.637,1.499,0.977c0.11,0.076,0.241,0.126,0.344,0.21c0.3,0.252,0.652,0.429,0.949,0.682
							c0.224,0.189,0.479,0.332,0.711,0.515C67.646,64.135,67.817,64.239,68.024,64.237"/>
						<path fill="#2191CA" d="M68.024,64.237c-0.207,0.002-0.379-0.102-0.53-0.22c-0.231-0.183-0.487-0.325-0.711-0.515
							c-0.297-0.253-0.649-0.43-0.949-0.682c-0.103-0.084-0.233-0.134-0.344-0.21c-0.489-0.34-1.014-0.629-1.499-0.977
							c-0.359-0.186-0.674-0.442-1.018-0.647c-0.65-0.391-1.265-0.829-1.896-1.243c-0.621-0.41-1.239-0.823-1.857-1.235
							c-0.061-0.041-0.112-0.094-0.171-0.135c-0.171-0.12-0.348-0.229-0.567-0.236c0.027-0.071,0.058-0.142,0.085-0.213
							c0.132-0.204,0.242-0.42,0.372-0.626c0.236-0.382,0.471-0.771,0.707-1.156c0.25-0.417,0.499-0.837,0.753-1.254
							c0.38-0.627,0.76-1.253,1.138-1.88c0.253-0.418,0.502-0.837,0.755-1.256c0.338-0.564,0.678-1.129,1.019-1.693
							c0.25-0.418,0.503-0.838,0.754-1.256c0.31-0.511,0.62-1.022,0.931-1.533c0.258-0.429,0.515-0.857,0.773-1.287
							c0.326-0.543,0.653-1.088,0.978-1.632c0.251-0.419,0.502-0.838,0.752-1.257c0.34-0.565,0.68-1.129,1.02-1.696
							c0.22-0.365,0.437-0.733,0.654-1.099c0.325-0.546,0.648-1.092,0.974-1.639c0.21-0.355,0.42-0.715,0.635-1.069
							c0.234-0.385,0.479-0.765,0.713-1.151c0.141-0.23,0.269-0.464,0.398-0.7c0.083-0.151,0.143-0.311,0.182-0.478
							c0.033-0.055,0.082-0.086,0.141-0.11c0.042-0.02,0.104,0.015,0.108,0.062c0.003,0.023,0.013,0.048,0.01,0.071
							c-0.047,0.338-0.097,0.677-0.147,1.016c-0.063,0.435-0.128,0.87-0.191,1.304c-0.058,0.386-0.115,0.774-0.174,1.161
							c-0.062,0.421-0.125,0.844-0.188,1.267c-0.062,0.411-0.121,0.823-0.183,1.233c-0.062,0.411-0.122,0.821-0.185,1.232
							c-0.064,0.434-0.129,0.869-0.192,1.304c-0.062,0.411-0.118,0.823-0.18,1.233c-0.063,0.422-0.13,0.844-0.191,1.267
							c-0.059,0.398-0.113,0.797-0.174,1.197c-0.062,0.423-0.125,0.846-0.19,1.267c-0.055,0.39-0.112,0.773-0.169,1.161
							c-0.066,0.434-0.133,0.869-0.196,1.304c-0.059,0.399-0.115,0.798-0.174,1.197c-0.063,0.422-0.125,0.845-0.189,1.269
							c-0.061,0.41-0.119,0.821-0.181,1.232c-0.058,0.4-0.115,0.798-0.173,1.195c-0.063,0.424-0.129,0.847-0.192,1.27
							c-0.065,0.435-0.129,0.868-0.193,1.304c-0.06,0.398-0.115,0.799-0.173,1.196c-0.065,0.423-0.128,0.847-0.191,1.269
							c-0.058,0.387-0.114,0.773-0.172,1.161c-0.064,0.434-0.13,0.868-0.193,1.305c-0.013,0.083-0.025,0.168-0.032,0.253
							C68.092,64.002,68.072,64.122,68.024,64.237"/>
						<path fill="#233A72" d="M72.073,35.261c-0.039,0.168-0.099,0.327-0.182,0.477c-0.13,0.235-0.258,0.471-0.398,0.7
							c-0.234,0.386-0.479,0.766-0.713,1.152c-0.215,0.354-0.425,0.713-0.635,1.07c-0.325,0.545-0.648,1.092-0.974,1.637
							c-0.218,0.367-0.435,0.734-0.656,1.101c-0.338,0.566-0.678,1.129-1.018,1.695c-0.25,0.419-0.501,0.838-0.75,1.256
							c-0.326,0.546-0.653,1.089-0.979,1.635c-0.259,0.429-0.516,0.858-0.775,1.285c-0.309,0.513-0.619,1.023-0.929,1.534
							c-0.252,0.418-0.504,0.838-0.754,1.256c-0.341,0.564-0.68,1.129-1.02,1.693c-0.252,0.419-0.501,0.838-0.754,1.256
							c-0.377,0.627-0.758,1.253-1.136,1.88c-0.256,0.417-0.505,0.837-0.757,1.254c-0.234,0.386-0.469,0.773-0.706,1.156
							c-0.128,0.206-0.24,0.422-0.371,0.626c-0.15,0.013-0.292-0.02-0.421-0.097c-0.063-0.037-0.128-0.071-0.188-0.111
							c-0.56-0.367-1.113-0.745-1.682-1.102c-0.607-0.382-1.197-0.795-1.804-1.18c-0.443-0.281-0.869-0.587-1.309-0.869
							c-0.514-0.328-0.999-0.696-1.534-0.994c-0.03-0.018-0.061-0.041-0.086-0.067c-0.071-0.068-0.153-0.119-0.239-0.165
							c-0.075-0.04-0.146-0.089-0.218-0.136c-0.497-0.329-0.996-0.657-1.492-0.989c-0.102-0.069-0.206-0.128-0.323-0.167
							c-0.042-0.014-0.076-0.055-0.113-0.084c0.048-0.054,0.093-0.111,0.146-0.159c0.281-0.254,0.58-0.488,0.891-0.706
							c2.374-1.659,4.679-3.411,7.028-5.106c2.547-1.834,5.089-3.678,7.63-5.522c1.958-1.419,3.91-2.849,5.866-4.273
							c0.396-0.288,0.797-0.567,1.196-0.848C71.963,35.313,72.02,35.291,72.073,35.261"/>
						<path fill="#105396" d="M49.158,51.963c0.037,0.03,0.07,0.07,0.113,0.084c0.117,0.039,0.222,0.098,0.324,0.167
							c0.495,0.332,0.994,0.661,1.491,0.989c0.072,0.047,0.143,0.096,0.219,0.136c0.085,0.046,0.167,0.097,0.238,0.165
							c0.025,0.026,0.056,0.05,0.086,0.067c0.534,0.298,1.022,0.666,1.533,0.994c0.44,0.282,0.866,0.588,1.31,0.869
							c0.606,0.385,1.196,0.798,1.804,1.18c0.568,0.356,1.12,0.734,1.682,1.102c0.061,0.04,0.125,0.074,0.188,0.111
							c0.129,0.077,0.271,0.109,0.421,0.097c-0.027,0.071-0.058,0.142-0.085,0.213c-0.046,0.056-0.099,0.108-0.138,0.169
							c-0.08,0.121-0.151,0.249-0.23,0.373c-0.345,0.532-0.693,1.063-1.038,1.597c-0.391,0.605-0.776,1.214-1.166,1.82
							c-0.441,0.688-0.886,1.375-1.326,2.064c-0.396,0.615-0.791,1.233-1.188,1.85c-0.428,0.668-0.854,1.336-1.284,2.006
							c-0.454,0.708-0.911,1.415-1.368,2.123c-0.164,0.259-0.325,0.516-0.492,0.771c-0.448,0.699-0.898,1.397-1.346,2.096
							c-0.178,0.277-0.354,0.557-0.532,0.833c-0.476,0.74-0.951,1.479-1.428,2.218c-0.402,0.627-0.805,1.254-1.206,1.882
							c-0.396,0.615-0.788,1.232-1.186,1.849c-0.039,0.062-0.095,0.109-0.143,0.165c-0.005-0.235,0.062-0.46,0.098-0.689
							c0.079-0.518,0.174-1.035,0.264-1.554c0.109-0.663,0.223-1.324,0.334-1.987c0.083-0.495,0.164-0.988,0.248-1.483
							c0.113-0.674,0.228-1.349,0.341-2.022c0.108-0.651,0.216-1.303,0.325-1.953c0.111-0.663,0.226-1.324,0.336-1.988
							c0.109-0.649,0.217-1.302,0.326-1.952c0.108-0.65,0.22-1.301,0.33-1.952c0.083-0.493,0.165-0.988,0.249-1.48
							c0.09-0.531,0.18-1.062,0.268-1.591c0.109-0.65,0.217-1.302,0.325-1.953c0.107-0.638,0.215-1.277,0.323-1.915l0.26-1.555
							l0.327-1.952c0.088-0.53,0.178-1.061,0.267-1.59c0.017-0.097,0.037-0.193,0.062-0.287
							C49.102,52.016,49.137,51.993,49.158,51.963"/>
					</g>
				</g>
			</g>
		</g>
	</g>
</g>
</svg>
