<?xml version="1.0" encoding="UTF-8" standalone="no"?>
<svg
   xmlns:dc="http://purl.org/dc/elements/1.1/"
   xmlns:cc="http://creativecommons.org/ns#"
   xmlns:rdf="http://www.w3.org/1999/02/22-rdf-syntax-ns#"
   xmlns:svg="http://www.w3.org/2000/svg"
   xmlns="http://www.w3.org/2000/svg"
   xmlns:xlink="http://www.w3.org/1999/xlink"
   xmlns:sodipodi="http://sodipodi.sourceforge.net/DTD/sodipodi-0.dtd"
   xmlns:inkscape="http://www.inkscape.org/namespaces/inkscape"
   id="Capa_1"
   width="120"
   height="120"
   version="1.1"
   inkscape:version="0.91 r13725"
   sodipodi:docname="hbx.svg">
  <metadata
     id="metadata5534">
    <rdf:RDF>
      <cc:Work
         rdf:about="">
        <dc:format>image/svg+xml</dc:format>
        <dc:type
           rdf:resource="http://purl.org/dc/dcmitype/StillImage" />
        <dc:title />
      </cc:Work>
    </rdf:RDF>
  </metadata>
  <defs
     id="defs5532">
    <linearGradient
       inkscape:collect="always"
       xlink:href="#linearGradient4761"
       id="linearGradient4769"
       x1="-409.44958"
       y1="-20.942795"
       x2="-57.60104"
       y2="133.44374"
       gradientUnits="userSpaceOnUse"
       gradientTransform="matrix(-0.14938582,0,0,-0.14938581,161.49689,146.17377)" />
    <linearGradient
       inkscape:collect="always"
       id="linearGradient4761">
      <stop
         style="stop-color:#1a1a1a;stop-opacity:1;"
         offset="0"
         id="stop4763" />
      <stop
         style="stop-color:#1a1a1a;stop-opacity:0;"
         offset="1"
         id="stop4765" />
    </linearGradient>
  </defs>
  <sodipodi:namedview
     pagecolor="#ffffff"
     bordercolor="#666666"
     borderopacity="1"
     objecttolerance="10"
     gridtolerance="10"
     guidetolerance="10"
     inkscape:pageopacity="0"
     inkscape:pageshadow="2"
     inkscape:window-width="1920"
     inkscape:window-height="1023"
     id="namedview5530"
     showgrid="false"
     inkscape:zoom="5.12"
     inkscape:cx="47.77696"
     inkscape:cy="59.8979"
     inkscape:window-x="0"
     inkscape:window-y="27"
     inkscape:window-maximized="1"
     inkscape:current-layer="Capa_1" />
  <style
     id="style5484">.st0{fill:url(#SVGID_1_)}.st1{fill:url(#SVGID_2_)}.st2{fill:url(#SVGID_3_)}.st3{fill:#20201e}.st4{fill:url(#SVGID_4_)}.st5{fill:#353534}.st6{fill:#282828}.st7{fill:url(#SVGID_5_);stroke:url(#SVGID_6_);stroke-width:8;stroke-miterlimit:10}</style>
  <linearGradient
     id="SVGID_1_"
     gradientUnits="userSpaceOnUse"
     x1="1981.964"
     y1="2444.4961"
     x2="2163.2971"
     y2="2444.4961"
     gradientTransform="matrix(-0.29639156,0.95506651,-0.95506651,-0.29639156,3154.5722,-1144.0497)">
    <stop
       offset=".039"
       stop-color="#2cf4e1"
       id="stop5487" />
    <stop
       offset="1"
       stop-color="#2cb2e1"
       id="stop5489" />
  </linearGradient>
  <linearGradient
     id="SVGID_2_"
     gradientUnits="userSpaceOnUse"
     x1="244.60201"
     y1="113.132"
     x2="324.336"
     y2="222.118">
    <stop
       offset=".039"
       stop-color="#2cf4e1"
       id="stop5494" />
    <stop
       offset="1"
       stop-color="#2cb2e1"
       id="stop5496" />
  </linearGradient>
  <linearGradient
     id="SVGID_3_"
     gradientUnits="userSpaceOnUse"
     x1="111.456"
     y1="126.742"
     x2="224.12199"
     y2="280.742">
    <stop
       offset="0"
       stop-color="#2ce5e1"
       id="stop5501" />
    <stop
       offset="1"
       stop-color="#2cb2e1"
       id="stop5503" />
  </linearGradient>
  <linearGradient
     id="SVGID_4_"
     gradientUnits="userSpaceOnUse"
     x1="186.474"
     y1="233.72701"
     x2="186.474"
     y2="36.5">
    <stop
       offset="0"
       id="stop5508" />
    <stop
       offset="1"
       stop-color="#0d0d0d"
       id="stop5510" />
  </linearGradient>
  <linearGradient
     id="SVGID_5_"
     gradientUnits="userSpaceOnUse"
     x1="186.05701"
     y1="248.79601"
     x2="186.05701"
     y2="-16.973">
    <stop
       offset=".039"
       stop-color="#2cf4e1"
       id="stop5519" />
    <stop
       offset="1"
       stop-color="#2cb2e1"
       id="stop5521" />
  </linearGradient>
  <linearGradient
     id="SVGID_6_"
     gradientUnits="userSpaceOnUse"
     x1="24.841"
     y1="168.862"
     x2="347.27301"
     y2="168.862">
    <stop
       offset=".039"
       stop-color="#2cf4e1"
       id="stop5524" />
    <stop
       offset="1"
       stop-color="#2cb2e1"
       id="stop5526" />
  </linearGradient>
  <g
     inkscape:groupmode="layer"
     id="layer1"
     inkscape:label="top" />
  <g
     id="g6457"
     transform="matrix(6.6645457,0,0,6.6285816,0.55216936,1.9081301)">
    <g
       transform="translate(-172.46721,-126.39751)"
       id="g6486">
      <path
         style="fill:url(#linearGradient4769);fill-opacity:1;stroke:none;stroke-opacity:1"
         inkscape:connector-curvature="0"
         id="path4251-6"
         d="m 173.45333,133.25494 c 1.0975,-4.40154 5.55604,-7.08026 9.95861,-5.98264 4.40077,1.09737 7.0798,5.55565 5.98179,9.95693 -1.09698,4.40205 -5.55553,7.08103 -9.95681,5.98366 -4.40231,-1.09737 -7.08108,-5.55616 -5.98359,-9.95795 z" />
      <path
         style="fill:#ffffff;fill-opacity:1;stroke:none;stroke-opacity:1"
         inkscape:connector-curvature="0"
         id="path4251"
         d="m 189.24809,136.99018 c -1.0876,4.36188 -5.50598,7.01646 -9.86889,5.92873 -4.36112,-1.08748 -7.01601,-5.5056 -5.92789,-9.86723 1.08709,-4.36239 5.50547,-7.01723 9.8671,-5.92975 4.36265,1.08748 7.01729,5.50611 5.92968,9.86825 z" />
      <path
         style="fill:#ffffff"
         inkscape:connector-curvature="0"
         d="m 180.87377,137.19555 0.52885,-1.99138 1.2521,-0.45744 0.31144,-1.17033 -0.0106,-0.029 -1.2325,0.45027 0.88802,-3.34377 -2.51847,0 -1.16134,4.3637 -0.96963,0.35421 -0.32039,1.20654 0.96889,-0.35393 -0.68446,2.57173 6.70267,0 0.42969,-1.60057 -4.18424,0"
         id="path4985" />
      <path
         style="fill:#ffffff;fill-rule:nonzero"
         inkscape:connector-curvature="0"
         d="m 183.99938,132.2389 c -0.39489,-1.00353 -1.38519,-1.09411 -2.53833,-0.8702 l -0.41067,-1.4315 -0.87122,0.24986 0.39999,1.39436 c -0.229,0.0651 -0.46207,0.1374 -0.69361,0.20864 l -0.40203,-1.40351 -0.8707,0.24935 0.40965,1.4315 c -0.18727,0.058 -0.37149,0.11501 -0.55214,0.16692 l -0.002,-0.005 -1.20199,0.34451 0.26716,0.93127 c 0,0 0.64018,-0.19745 0.63255,-0.18218 0.35317,-0.10127 0.5267,0.0707 0.61067,0.23816 l 0.46817,1.63047 c 0.0239,-0.007 0.056,-0.0148 0.0936,-0.0203 l -0.0921,0.0265 0.65494,2.2849 c 0.0163,0.11552 0.002,0.31144 -0.24427,0.38269 0.0137,0.007 -0.63407,0.18116 -0.63407,0.18116 l 0.12569,1.09055 1.1338,-0.32569 c 0.21119,-0.0595 0.41984,-0.11552 0.6239,-0.17302 l 0.41576,1.44778 0.8702,-0.24935 -0.41067,-1.43252 a 33.454265,33.454263 0 0 0 0.69819,-0.19338 l 0.40813,1.42641 0.87172,-0.24986 -0.41423,-1.44524 c 1.44066,-0.50431 2.36022,-1.16739 2.09306,-2.58006 -0.21475,-1.13685 -0.87733,-1.48188 -1.76635,-1.4432 0.43153,-0.40203 0.61728,-0.94552 0.3267,-1.67933 z m -0.33077,3.44517 c 0.31042,1.0824 -1.57756,1.49053 -2.16787,1.6605 l -0.5501,-1.91851 c 0.59031,-0.16946 2.3938,-0.8702 2.71746,0.25852 z m -1.18164,-2.59024 c 0.28192,0.9847 -1.29614,1.31293 -1.78823,1.45389 l -0.49871,-1.73989 c 0.49158,-0.14096 1.99229,-0.74043 2.28694,0.28651 z"
         id="path5145" />
      <path
         style="opacity:0.5;fill:#ffffff;fill-opacity:1;stroke:#000000;stroke-width:0.07402;stroke-miterlimit:4;stroke-dasharray:none;stroke-opacity:1"
         inkscape:connector-curvature="0"
         d="m 189.49181,135.02043 c 0,4.49684 -3.64534,8.14225 -8.14216,8.14225 -4.49686,0 -8.14224,-3.64541 -8.14224,-8.14225 0,-4.49678 3.64538,-8.14215 8.14224,-8.14215 4.49677,0 8.14216,3.64537 8.14216,8.14215"
         id="path6359" />
    </g>
    <g
       transform="matrix(0.19380958,0,0,0.1845866,0.83881724,-0.25630836)"
       id="g4394">
      <path
         style="fill:#23afe2"
         inkscape:connector-curvature="0"
         id="path4396"
         d="m 71.641,33.139 c 0.206,0.128 0.413,0.256 0.618,0.386 0.056,0.034 0.047,0.11 -0.006,0.154 -0.021,0.017 -0.039,0.032 -0.057,0.046 -0.07,0.05 -0.14,0.101 -0.208,0.151 -0.832,0.601 -1.663,1.204 -2.497,1.802 -1.003,0.72 -2.008,1.439 -3.015,2.151 -2.407,1.699 -4.816,3.391 -7.22,5.093 -2.625,1.857 -5.242,3.721 -7.862,5.582 -0.857,0.609 -1.714,1.219 -2.57,1.828 -0.179,0.128 -0.362,0.248 -0.563,0.339 C 48.019,50.559 47.878,50.376 47.854,50.108 47.848,50.06 47.844,50.01 47.829,49.963 47.715,49.591 47.675,49.2 47.561,48.827 47.536,48.746 47.504,48.664 47.498,48.58 47.469,48.277 47.356,47.989 47.31,47.688 47.277,47.473 47.212,47.261 47.169,47.046 47.126,46.832 47.072,46.62 47.028,46.406 46.957,46.073 46.872,45.743 46.796,45.413 46.71,45.057 46.662,44.694 46.543,44.347 c 0,-0.186 -0.063,-0.361 -0.107,-0.536 -0.05,-0.189 -0.058,-0.383 -0.124,-0.569 -0.028,-0.08 -0.058,-0.163 -0.066,-0.248 C 46.216,42.69 46.112,42.402 46.06,42.102 46.006,41.791 45.909,41.49 45.85,41.178 45.81,40.963 45.748,40.753 45.707,40.537 45.664,40.311 45.604,40.088 45.558,39.861 45.491,39.541 45.395,39.226 45.335,38.901 45.296,38.688 45.233,38.477 45.192,38.26 45.151,38.034 45.09,37.811 45.043,37.584 44.976,37.264 44.881,36.949 44.821,36.626 44.782,36.411 44.719,36.2 44.678,35.985 44.637,35.758 44.552,35.541 44.533,35.308 44.41,34.9 44.339,34.48 44.236,34.066 c -0.047,-0.189 -0.079,-0.381 -0.12,-0.57 -0.047,-0.214 -0.092,-0.427 -0.155,-0.637 -0.072,-0.246 -0.16,-0.487 -0.148,-0.75 10e-4,-0.036 -0.002,-0.076 -0.018,-0.108 -0.064,-0.138 -0.051,-0.286 -0.059,-0.431 0.378,0.005 0.758,0.01 1.136,0.018 0.073,10e-4 0.15,0 0.218,0.021 0.143,0.041 0.292,0.035 0.437,0.042 0.303,0.012 0.61,-0.013 0.912,0.061 0.067,0.017 0.145,0.008 0.218,0.01 0.184,0.004 0.368,0.005 0.551,0.011 0.085,0.002 0.173,0.005 0.253,0.025 0.121,0.03 0.241,0.031 0.363,0.037 0.354,0.014 0.709,-0.015 1.06,0.066 0.058,0.013 0.121,0.004 0.181,0.006 0.209,0.004 0.417,0.007 0.624,0.012 0.085,0.002 0.173,0.002 0.255,0.024 0.132,0.033 0.266,0.032 0.399,0.038 0.315,0.015 0.636,-0.012 0.948,0.065 0.059,0.014 0.121,0.005 0.183,0.007 0.207,0.004 0.415,0.007 0.622,0.012 0.086,0.003 0.174,-0.003 0.255,0.02 0.156,0.042 0.314,0.035 0.473,0.044 0.318,0.014 0.636,-0.016 0.948,0.063 0.072,0.017 0.146,0.008 0.22,0.01 0.184,0.004 0.366,0.005 0.55,0.011 0.085,0.003 0.172,0.004 0.253,0.024 0.122,0.031 0.242,0.031 0.364,0.037 0.353,0.016 0.708,-0.014 1.059,0.066 0.07,0.016 0.146,0.007 0.221,0.009 0.193,0.004 0.389,0.005 0.585,0.011 0.072,10e-4 0.149,-0.006 0.218,0.014 0.18,0.052 0.363,0.042 0.548,0.049 0.303,0.013 0.608,-0.011 0.909,0.064 0.07,0.017 0.147,0.007 0.22,0.008 0.195,0.004 0.392,0.007 0.586,0.011 0.074,10e-4 0.149,-0.005 0.219,0.015 0.204,0.055 0.412,0.043 0.618,0.052 0.28,0.011 0.563,-0.013 0.84,0.059 0.056,0.016 0.121,0.009 0.183,0.01 0.182,0.004 0.367,0.006 0.55,0.011 0.085,10e-4 0.174,-0.005 0.255,0.016 0.167,0.046 0.338,0.041 0.508,0.047 0.317,0.013 0.637,-0.011 0.948,0.065 0.058,0.012 0.121,0.005 0.183,0.007 0.184,0.004 0.367,0.005 0.55,0.011 0.085,0.003 0.175,-0.002 0.255,0.021 0.144,0.038 0.292,0.034 0.437,0.041 0.329,0.016 0.659,-0.014 0.983,0.064 0.07,0.016 0.146,0.007 0.221,0.009 0.194,0.005 0.391,0.006 0.585,0.012 0.074,10e-4 0.15,-0.006 0.22,0.012 0.228,0.061 0.46,0.045 0.692,0.054 0.158,0.006 0.321,-0.013 0.474,0.02 0.242,0.051 0.487,0.045 0.729,0.053 0.245,0.009 0.487,-0.005 0.729,0.057 0.069,0.017 0.146,0.01 0.221,0.011 0.205,0.004 0.415,0.007 0.622,0.013 0.086,0.003 0.172,0.001 0.256,0.021 0.241,0.058 0.483,0.04 0.728,0.042 0.042,0.002 0.086,-0.031 0.13,-0.05" />
      <path
         style="fill:#105296"
         inkscape:connector-curvature="0"
         id="path4398"
         d="m 15.173,31.137 c 0,-0.013 -10e-4,-0.026 10e-4,-0.037 0.021,-0.09 0.082,-0.126 0.154,-0.094 0.034,0.015 0.068,0.028 0.099,0.047 2.481,1.562 4.956,3.136 7.418,4.729 0.38,0.247 0.761,0.489 1.146,0.725 0.77,0.472 1.534,0.956 2.292,1.452 1.727,1.13 3.481,2.22 5.233,3.315 0.568,0.357 1.138,0.715 1.699,1.085 0.858,0.563 1.733,1.101 2.6,1.648 1.468,0.927 2.927,1.866 4.391,2.798 1.134,0.721 2.265,1.447 3.378,2.202 0.677,0.459 1.381,0.879 2.081,1.303 0.429,0.26 0.855,0.521 1.283,0.782 0.072,0.045 0.146,0.091 0.208,0.147 0.084,0.079 0.129,0.179 0.088,0.298 -0.121,0.007 -0.248,-0.008 -0.364,0.023 -0.433,0.12 -0.877,0.188 -1.311,0.313 -0.034,0.01 -0.068,0.023 -0.104,0.027 -0.41,0.056 -0.802,0.198 -1.208,0.27 -0.227,0.04 -0.445,0.126 -0.673,0.165 -0.371,0.061 -0.733,0.164 -1.103,0.237 -0.178,0.034 -0.35,0.107 -0.53,0.131 -0.302,0.041 -0.592,0.136 -0.892,0.19 -0.308,0.054 -0.608,0.162 -0.919,0.223 -0.322,0.063 -0.634,0.167 -0.961,0.202 -0.396,0.118 -0.802,0.196 -1.206,0.285 -0.165,0.037 -0.326,0.105 -0.493,0.127 -0.304,0.036 -0.587,0.156 -0.892,0.183 -0.479,0.141 -0.97,0.221 -1.453,0.347 -0.083,0.021 -0.162,0.055 -0.247,0.063 -0.302,0.033 -0.591,0.134 -0.889,0.189 -0.311,0.058 -0.61,0.166 -0.92,0.223 -0.31,0.061 -0.615,0.141 -0.926,0.199 -0.333,0.062 -0.662,0.155 -0.992,0.231 -0.378,0.085 -0.758,0.173 -1.136,0.265 -0.083,0.021 -0.163,0.054 -0.246,0.063 -0.366,0.036 -0.706,0.182 -1.066,0.241 -0.096,0.015 -0.189,0.055 -0.246,0.146 -0.041,-0.032 -0.083,-0.063 -0.124,-0.093 -0.061,-0.158 -0.11,-0.323 -0.184,-0.477 -0.18,-0.374 -0.369,-0.744 -0.562,-1.112 -0.224,-0.422 -0.459,-0.835 -0.687,-1.254 -0.197,-0.365 -0.392,-0.73 -0.588,-1.099 -0.34,-0.634 -0.683,-1.268 -1.024,-1.903 -0.346,-0.645 -0.694,-1.29 -1.041,-1.935 -0.19,-0.355 -0.372,-0.716 -0.568,-1.068 -0.356,-0.64 -0.702,-1.286 -1.042,-1.935 -0.358,-0.681 -0.72,-1.358 -1.091,-2.035 -0.205,-0.374 -0.392,-0.758 -0.602,-1.132 -0.198,-0.352 -0.371,-0.715 -0.569,-1.066 -0.209,-0.373 -0.394,-0.758 -0.603,-1.133 -0.228,-0.404 -0.423,-0.825 -0.652,-1.228 -0.205,-0.362 -0.381,-0.739 -0.586,-1.1 -0.206,-0.361 -0.393,-0.732 -0.588,-1.098 -0.196,-0.367 -0.396,-0.731 -0.585,-1.1 -0.36,-0.694 -0.74,-1.378 -1.105,-2.069 -0.263,-0.495 -0.566,-0.971 -0.737,-1.511 -0.011,-0.036 -0.03,-0.068 -0.047,-0.099 -0.073,-0.125 -0.165,-0.239 -0.309,-0.296" />
      <path
         style="fill:#1f91ca"
         inkscape:connector-curvature="0"
         id="path4400"
         d="m 43.739,31.572 c 0.008,0.145 -0.007,0.293 0.059,0.432 0.016,0.033 0.019,0.072 0.018,0.109 -0.012,0.261 0.076,0.504 0.148,0.749 0.062,0.209 0.108,0.422 0.157,0.637 0.039,0.19 0.071,0.381 0.118,0.572 0.103,0.412 0.175,0.832 0.297,1.24 0.018,0.232 0.104,0.452 0.145,0.677 0.041,0.216 0.104,0.426 0.143,0.641 0.062,0.325 0.154,0.638 0.222,0.96 0.046,0.225 0.108,0.45 0.149,0.675 0.043,0.216 0.104,0.426 0.143,0.641 0.06,0.323 0.155,0.637 0.222,0.958 0.048,0.228 0.107,0.45 0.151,0.676 0.04,0.216 0.102,0.428 0.141,0.642 0.058,0.311 0.157,0.614 0.212,0.923 0.051,0.301 0.154,0.588 0.185,0.894 0.009,0.083 0.038,0.166 0.066,0.247 0.064,0.184 0.074,0.381 0.123,0.569 0.045,0.177 0.108,0.351 0.108,0.538 0.119,0.346 0.167,0.709 0.251,1.064 0.078,0.331 0.163,0.662 0.232,0.994 0.046,0.214 0.1,0.426 0.143,0.64 0.043,0.216 0.107,0.426 0.141,0.641 0.046,0.302 0.158,0.589 0.187,0.893 0.007,0.084 0.038,0.166 0.063,0.249 0.113,0.371 0.154,0.763 0.269,1.134 0.016,0.047 0.019,0.098 0.023,0.145 0.026,0.268 0.167,0.45 0.408,0.563 -0.057,0.087 -0.138,0.136 -0.239,0.151 -0.113,0.017 -0.221,-0.003 -0.314,-0.067 -0.062,-0.041 -0.122,-0.086 -0.175,-0.134 -0.147,-0.13 -0.309,-0.24 -0.472,-0.348 -2.529,-1.673 -5.056,-3.349 -7.586,-5.018 -1.583,-1.044 -3.161,-2.092 -4.755,-3.118 -1.346,-0.868 -2.682,-1.753 -3.999,-2.663 -1.106,-0.765 -2.222,-1.514 -3.351,-2.245 -1.026,-0.664 -2.055,-1.325 -3.082,-1.987 -2.178,-1.407 -4.334,-2.844 -6.477,-4.303 -0.384,-0.262 -0.762,-0.53 -1.144,-0.797 -0.069,-0.048 -0.135,-0.103 -0.202,-0.157 -0.042,-0.034 -0.031,-0.077 0.041,-0.145 0.108,0.096 0.24,0.114 0.376,0.117 0.232,0.004 0.463,0.009 0.695,0.016 0.099,0.002 0.199,0 0.292,0.022 0.144,0.035 0.289,0.034 0.436,0.04 0.305,0.012 0.611,-0.01 0.912,0.062 0.071,0.018 0.147,0.007 0.219,0.008 0.196,0.006 0.392,0.009 0.587,0.013 0.073,0.003 0.149,-0.004 0.218,0.013 0.216,0.057 0.437,0.046 0.655,0.056 0.123,0.004 0.249,-0.008 0.365,0.019 0.229,0.054 0.46,0.046 0.692,0.058 0.097,0.004 0.199,-0.005 0.292,0.019 0.169,0.043 0.339,0.042 0.509,0.048 0.292,0.009 0.585,-0.006 0.874,0.062 0.071,0.015 0.147,0.005 0.22,0.007 0.232,0.005 0.464,0.008 0.696,0.014 0.074,0.001 0.149,-0.007 0.221,0.01 0.288,0.069 0.583,0.046 0.875,0.059 0.108,0.005 0.222,-0.009 0.327,0.017 0.217,0.052 0.438,0.043 0.656,0.054 0.121,0.005 0.248,-0.011 0.365,0.018 0.242,0.057 0.486,0.045 0.729,0.058 0.11,0.004 0.225,-0.006 0.327,0.021 0.183,0.044 0.365,0.041 0.546,0.049 0.134,0.005 0.273,-0.006 0.401,0.023 0.182,0.042 0.364,0.042 0.546,0.051 0.11,0.004 0.225,-0.007 0.329,0.021 0.194,0.047 0.387,0.043 0.582,0.052 0.208,0.008 0.415,-0.002 0.618,0.056 0.058,0.017 0.121,0.01 0.182,0.013 0.268,0.011 0.538,-0.004 0.802,0.062 0.071,0.017 0.147,0.008 0.22,0.01 0.158,0.004 0.318,0.006 0.476,0.013 0.085,0.002 0.172,0.004 0.255,0.024 0.121,0.028 0.242,0.034 0.363,0.035 0.245,0.005 0.489,0.008 0.733,0.014 0.086,0.001 0.175,-0.006 0.255,0.016 0.181,0.046 0.362,0.042 0.546,0.043 0.489,0.004 0.979,0.009 1.466,0.012 0.159,10e-4 0.316,-0.002 0.471,0.044 0.081,0.025 0.169,0.021 0.255,0.024 0.243,0.004 0.489,0.007 0.732,0.011 0.085,10e-4 0.175,-0.011 0.256,0.01 0.24,0.065 0.484,0.049 0.728,0.058 0.108,0.004 0.223,-0.004 0.328,0.019 0.158,0.037 0.315,0.04 0.474,0.043 0.231,0.005 0.462,0.007 0.697,0.014 0.083,0.001 0.172,0.004 0.253,0.024 0.121,0.028 0.241,0.031 0.363,0.034 0.244,0.004 0.488,0.007 0.734,0.014 0.096,0.003 0.196,0.001 0.29,0.024 0.133,0.031 0.267,0.034 0.4,0.036 0.231,0.004 0.464,0.008 0.695,0.011 0.158,0.004 0.316,0 0.473,0.045 0.045,0.013 0.095,-0.006 0.144,-0.01 0.027,0.007 0.053,0.015 0.08,0.022" />
      <path
         style="fill:#223971"
         inkscape:connector-curvature="0"
         id="path4402"
         d="m 28.47,55.88 c 0.058,-0.09 0.149,-0.131 0.246,-0.146 0.36,-0.06 0.7,-0.205 1.066,-0.241 0.083,-0.009 0.163,-0.043 0.246,-0.063 0.377,-0.092 0.757,-0.18 1.136,-0.265 0.331,-0.076 0.658,-0.17 0.991,-0.231 0.311,-0.059 0.615,-0.139 0.926,-0.199 0.309,-0.057 0.609,-0.165 0.92,-0.223 0.297,-0.056 0.587,-0.156 0.889,-0.189 0.084,-0.009 0.165,-0.043 0.247,-0.063 0.482,-0.127 0.975,-0.207 1.452,-0.348 0.305,-0.026 0.588,-0.146 0.893,-0.182 0.167,-0.022 0.328,-0.091 0.493,-0.128 0.404,-0.089 0.81,-0.166 1.206,-0.284 0.328,-0.036 0.639,-0.141 0.961,-0.203 0.311,-0.061 0.611,-0.169 0.919,-0.223 0.3,-0.055 0.59,-0.15 0.892,-0.19 0.18,-0.023 0.353,-0.097 0.53,-0.131 0.369,-0.073 0.731,-0.177 1.103,-0.238 0.228,-0.038 0.446,-0.124 0.674,-0.164 0.405,-0.073 0.797,-0.214 1.207,-0.27 0.036,-0.004 0.07,-0.018 0.104,-0.027 0.434,-0.125 0.878,-0.192 1.311,-0.313 0.116,-0.031 0.243,-0.017 0.364,-0.023 0,0.061 0.01,0.123 -0.001,0.182 -0.183,1.048 -0.368,2.094 -0.549,3.141 -0.184,1.061 -0.361,2.122 -0.544,3.181 -0.209,1.204 -0.422,2.407 -0.632,3.609 -0.221,1.265 -0.438,2.529 -0.657,3.793 -0.157,0.915 -0.312,1.832 -0.47,2.747 -0.168,0.975 -0.337,1.951 -0.509,2.926 -0.083,0.469 -0.175,0.937 -0.26,1.404 -0.059,0.325 -0.107,0.652 -0.165,0.977 -0.083,0.481 -0.169,0.963 -0.258,1.443 -0.104,0.554 -0.19,1.107 -0.276,1.662 -0.129,0.822 -0.254,1.644 -0.45,2.452 -0.064,0.262 -0.109,0.525 -0.12,0.796 -0.005,0.11 -0.025,0.219 -0.039,0.327 -0.007,0.041 -0.081,0.067 -0.121,0.04 -0.049,-0.035 -0.094,-0.077 -0.141,-0.113 0.02,-0.141 -0.018,-0.267 -0.076,-0.391 C 41.9,79.547 41.796,79.394 41.693,79.243 41.476,78.93 41.287,78.605 41.109,78.27 40.977,78.022 40.838,77.78 40.7,77.533 c -0.192,-0.34 -0.384,-0.681 -0.576,-1.021 -0.15,-0.267 -0.295,-0.535 -0.446,-0.799 -0.271,-0.479 -0.544,-0.955 -0.815,-1.433 -0.241,-0.425 -0.48,-0.85 -0.72,-1.277 -0.293,-0.521 -0.591,-1.041 -0.885,-1.562 -0.151,-0.266 -0.296,-0.533 -0.446,-0.8 -0.283,-0.5 -0.567,-0.997 -0.848,-1.498 C 35.808,68.867 35.658,68.586 35.502,68.31 35.232,67.831 34.957,67.356 34.688,66.876 34.401,66.365 34.12,65.851 33.835,65.338 33.699,65.093 33.561,64.848 33.423,64.603 33.148,64.114 32.87,63.626 32.594,63.137 32.438,62.858 32.289,62.579 32.134,62.301 31.812,61.729 31.488,61.153 31.166,60.578 31.017,60.31 30.87,60.043 30.72,59.776 30.541,59.458 30.357,59.141 30.178,58.82 30.025,58.543 29.875,58.261 29.72,57.985 29.42,57.453 29.116,56.923 28.822,56.388 28.721,56.208 28.607,56.037 28.47,55.88" />
      <path
         style="fill:#105296"
         inkscape:connector-curvature="0"
         id="path4404"
         d="m 43.739,31.572 c -0.027,-0.007 -0.054,-0.016 -0.08,-0.023 0,-0.037 0.011,-0.076 -0.002,-0.108 -0.068,-0.196 -0.082,-0.404 -0.129,-0.605 -0.067,-0.295 -0.104,-0.598 -0.173,-0.894 -0.145,-0.604 -0.306,-1.204 -0.453,-1.807 -0.069,-0.282 -0.165,-0.56 -0.191,-0.853 -0.06,-0.136 -0.054,-0.288 -0.091,-0.427 -0.114,-0.424 -0.206,-0.85 -0.285,-1.282 -0.042,-0.226 -0.104,-0.449 -0.15,-0.676 -0.047,-0.226 -0.107,-0.447 -0.15,-0.676 -0.053,-0.273 -0.134,-0.541 -0.201,-0.814 -0.07,-0.282 -0.137,-0.567 -0.205,-0.849 -0.05,-0.202 -0.11,-0.399 -0.144,-0.604 -0.023,-0.132 -0.05,-0.262 -0.081,-0.392 C 41.371,21.421 41.335,21.277 41.329,21.131 41.324,20.994 41.276,20.87 41.256,20.737 41.207,20.449 41.161,20.161 41.057,19.886 41.044,19.852 41.04,19.814 41.033,19.78 40.931,19.416 40.892,19.041 40.815,18.671 40.742,18.315 40.678,17.957 40.597,17.602 40.512,17.235 40.44,16.865 40.344,16.5 40.156,15.771 39.968,15.041 39.847,14.295 39.813,14.092 39.761,13.892 39.71,13.691 c -0.051,-0.202 -0.092,-0.404 -0.074,-0.613 0.103,0.012 0.174,0.082 0.256,0.133 1.284,0.804 2.567,1.608 3.851,2.413 6.063,3.805 12.125,7.608 18.188,11.411 3.146,1.973 6.29,3.947 9.436,5.922 0.092,0.058 0.184,0.12 0.276,0.18 -0.045,0.02 -0.09,0.053 -0.134,0.053 -0.244,-0.002 -0.487,0.018 -0.729,-0.04 -0.083,-0.021 -0.17,-0.02 -0.255,-0.021 -0.209,-0.006 -0.417,-0.008 -0.623,-0.014 -0.073,-0.001 -0.15,0.007 -0.22,-0.012 -0.241,-0.062 -0.484,-0.046 -0.729,-0.057 -0.242,-0.008 -0.487,-0.003 -0.729,-0.053 -0.152,-0.032 -0.315,-0.013 -0.474,-0.019 -0.232,-0.01 -0.465,0.007 -0.692,-0.055 -0.069,-0.018 -0.146,-0.01 -0.22,-0.012 -0.194,-0.005 -0.391,-0.008 -0.586,-0.012 -0.073,-0.003 -0.149,0.007 -0.22,-0.008 -0.324,-0.08 -0.655,-0.05 -0.983,-0.064 -0.146,-0.009 -0.293,-0.002 -0.438,-0.042 -0.079,-0.022 -0.169,-0.018 -0.254,-0.021 -0.183,-0.006 -0.366,-0.008 -0.55,-0.012 -0.062,-10e-4 -0.125,0.007 -0.183,-0.007 -0.313,-0.076 -0.631,-0.052 -0.948,-0.063 -0.17,-0.007 -0.341,-10e-4 -0.508,-0.049 -0.081,-0.022 -0.17,-0.013 -0.255,-0.016 -0.185,-0.006 -0.368,-0.007 -0.55,-0.012 -0.062,-10e-4 -0.127,0.005 -0.183,-0.008 -0.277,-0.074 -0.56,-0.049 -0.84,-0.061 -0.206,-0.008 -0.414,0.003 -0.618,-0.053 -0.069,-0.02 -0.145,-0.011 -0.219,-0.012 -0.194,-0.006 -0.39,-0.009 -0.586,-0.013 -0.074,-10e-4 -0.149,0.009 -0.22,-0.008 -0.301,-0.074 -0.606,-0.051 -0.911,-0.062 -0.183,-0.007 -0.366,10e-4 -0.546,-0.05 -0.067,-0.019 -0.146,-0.012 -0.219,-0.015 -0.195,-0.004 -0.391,-0.007 -0.586,-0.012 -0.073,-0.001 -0.148,0.008 -0.219,-0.008 -0.351,-0.081 -0.706,-0.051 -1.059,-0.065 -0.122,-0.006 -0.242,-0.007 -0.364,-0.037 -0.081,-0.021 -0.168,-0.021 -0.253,-0.025 -0.184,-0.006 -0.365,-0.007 -0.55,-0.011 -0.074,-0.002 -0.149,0.007 -0.22,-0.01 -0.313,-0.078 -0.631,-0.048 -0.948,-0.062 -0.158,-0.007 -0.316,0 -0.471,-0.044 -0.083,-0.021 -0.171,-0.017 -0.257,-0.02 -0.207,-0.006 -0.415,-0.008 -0.622,-0.013 -0.062,-10e-4 -0.124,0.007 -0.182,-0.007 -0.313,-0.078 -0.634,-0.05 -0.949,-0.063 -0.134,-0.006 -0.268,-0.004 -0.399,-0.04 -0.082,-0.021 -0.17,-0.019 -0.255,-0.022 -0.207,-0.007 -0.415,-0.01 -0.624,-0.015 -0.06,-10e-4 -0.122,0.009 -0.181,-0.005 -0.351,-0.082 -0.706,-0.052 -1.06,-0.066 -0.122,-0.006 -0.242,-0.007 -0.363,-0.035 -0.081,-0.022 -0.167,-0.023 -0.253,-0.026 -0.185,-0.007 -0.367,-0.009 -0.551,-0.013 -0.073,-10e-4 -0.15,0.009 -0.219,-0.008 -0.301,-0.075 -0.608,-0.049 -0.911,-0.062 -0.146,-0.007 -0.292,0 -0.437,-0.042 -0.069,-0.02 -0.145,-0.018 -0.218,-0.02 -0.374,-0.005 -0.753,-0.011 -1.131,-0.016" />
      <path
         style="fill:#1f91ca"
         inkscape:connector-curvature="0"
         id="path4406"
         d="m 28.47,55.88 c 0.137,0.156 0.25,0.328 0.35,0.511 0.293,0.535 0.598,1.064 0.898,1.597 0.155,0.276 0.305,0.558 0.458,0.835 0.18,0.321 0.363,0.638 0.542,0.956 0.149,0.267 0.296,0.534 0.446,0.802 0.322,0.574 0.646,1.15 0.968,1.723 0.155,0.278 0.304,0.557 0.46,0.836 0.275,0.489 0.553,0.977 0.829,1.466 0.138,0.245 0.276,0.49 0.412,0.735 0.285,0.513 0.565,1.027 0.853,1.538 0.269,0.479 0.544,0.955 0.814,1.434 0.156,0.276 0.306,0.557 0.462,0.833 0.281,0.501 0.565,0.998 0.848,1.498 0.15,0.267 0.295,0.534 0.446,0.8 0.294,0.521 0.591,1.041 0.885,1.562 0.24,0.428 0.479,0.853 0.72,1.277 0.271,0.478 0.545,0.953 0.815,1.433 0.151,0.264 0.296,0.532 0.446,0.799 0.192,0.341 0.384,0.682 0.576,1.021 0.138,0.247 0.277,0.489 0.409,0.737 0.178,0.335 0.367,0.66 0.584,0.973 0.104,0.15 0.207,0.304 0.285,0.469 0.059,0.124 0.096,0.25 0.076,0.391 C 41.951,80.089 41.876,80.021 41.796,79.969 40.611,79.213 39.426,78.457 38.24,77.7 34.685,75.432 31.13,73.162 27.575,70.892 25.349,69.471 23.125,68.049 20.9,66.626 17.438,64.416 13.976,62.206 10.515,59.994 10.299,59.856 10.081,59.719 9.869,59.578 9.802,59.534 9.771,59.469 9.811,59.389 c 0.122,-0.002 0.252,0.022 0.365,-0.009 0.154,-0.042 0.311,-0.056 0.465,-0.091 0.307,-0.07 0.618,-0.127 0.927,-0.188 0.178,-0.036 0.358,-0.07 0.537,-0.106 0.178,-0.037 0.354,-0.082 0.535,-0.109 0.301,-0.048 0.595,-0.121 0.893,-0.175 0.335,-0.061 0.667,-0.139 1,-0.199 0.179,-0.033 0.356,-0.075 0.533,-0.113 0.287,-0.061 0.574,-0.114 0.859,-0.172 0.298,-0.06 0.597,-0.112 0.89,-0.19 0.046,-0.01 0.095,-0.029 0.143,-0.031 0.123,-0.005 0.24,-0.022 0.358,-0.06 0.116,-0.035 0.239,-0.037 0.357,-0.071 0.27,-0.071 0.548,-0.113 0.821,-0.169 0.167,-0.031 0.333,-0.067 0.5,-0.103 0.297,-0.062 0.592,-0.135 0.892,-0.183 0.299,-0.05 0.596,-0.117 0.896,-0.172 0.344,-0.065 0.689,-0.137 1.034,-0.207 0.155,-0.032 0.31,-0.06 0.464,-0.094 0.202,-0.046 0.405,-0.083 0.606,-0.123 0.168,-0.03 0.335,-0.064 0.501,-0.098 0.202,-0.04 0.405,-0.081 0.607,-0.121 0.167,-0.034 0.333,-0.067 0.501,-0.101 0.226,-0.046 0.447,-0.113 0.68,-0.122 0.035,-10e-4 0.074,-0.009 0.107,-0.021 0.278,-0.091 0.57,-0.121 0.853,-0.196 0.082,-0.021 0.164,-0.057 0.247,-0.063 0.316,-0.028 0.61,-0.175 0.932,-0.171 0.162,-0.076 0.334,-0.057 0.505,-0.06 0.121,-0.001 0.244,-0.001 0.367,-0.003 0.065,-0.001 0.117,-0.03 0.158,-0.078 0.043,0.028 0.086,0.06 0.126,0.09" />
      <path
         style="fill:#23afe2"
         inkscape:connector-curvature="0"
         id="path4408"
         d="m 28.346,55.788 c -0.041,0.05 -0.093,0.079 -0.158,0.08 -0.123,0.002 -0.246,0.002 -0.367,0.003 -0.171,0.003 -0.343,-0.017 -0.505,0.06 -0.322,-0.004 -0.615,0.143 -0.932,0.171 -0.083,0.007 -0.165,0.041 -0.247,0.063 -0.283,0.075 -0.575,0.105 -0.853,0.196 -0.034,0.012 -0.072,0.02 -0.107,0.021 -0.233,0.009 -0.455,0.076 -0.682,0.122 -0.166,0.033 -0.333,0.066 -0.5,0.101 -0.203,0.04 -0.405,0.081 -0.606,0.121 -0.167,0.031 -0.335,0.066 -0.5,0.098 -0.202,0.04 -0.405,0.077 -0.607,0.123 -0.154,0.034 -0.31,0.062 -0.464,0.094 -0.345,0.07 -0.69,0.142 -1.034,0.207 -0.299,0.055 -0.596,0.122 -0.896,0.172 -0.299,0.048 -0.595,0.121 -0.892,0.183 -0.167,0.035 -0.333,0.069 -0.5,0.103 -0.273,0.056 -0.551,0.098 -0.821,0.169 -0.12,0.032 -0.241,0.035 -0.357,0.071 -0.118,0.037 -0.235,0.055 -0.358,0.06 -0.048,0.002 -0.096,0.02 -0.143,0.031 -0.293,0.078 -0.592,0.131 -0.89,0.19 -0.285,0.058 -0.574,0.111 -0.857,0.172 -0.178,0.037 -0.354,0.08 -0.535,0.113 -0.334,0.061 -0.666,0.139 -1,0.199 -0.299,0.054 -0.594,0.127 -0.893,0.175 -0.18,0.027 -0.357,0.072 -0.535,0.109 -0.179,0.036 -0.358,0.07 -0.536,0.106 -0.31,0.062 -0.621,0.118 -0.928,0.188 -0.155,0.035 -0.312,0.049 -0.467,0.091 -0.113,0.031 -0.242,0.007 -0.364,0.009 0.007,-0.271 0.078,-0.532 0.127,-0.797 0.161,-0.889 0.332,-1.776 0.502,-2.664 0.182,-0.947 0.368,-1.894 0.548,-2.842 0.159,-0.839 0.312,-1.68 0.473,-2.521 0.183,-0.972 0.375,-1.942 0.559,-2.914 0.185,-0.983 0.364,-1.97 0.551,-2.954 0.153,-0.816 0.315,-1.63 0.471,-2.446 0.137,-0.721 0.269,-1.441 0.405,-2.163 0.151,-0.802 0.306,-1.608 0.458,-2.41 0.116,-0.612 0.232,-1.226 0.347,-1.835 0.13,-0.686 0.263,-1.369 0.392,-2.051 0.14,-0.732 0.274,-1.465 0.415,-2.198 0.03,-0.154 0.041,-0.313 0.113,-0.458 0.144,0.058 0.236,0.17 0.313,0.297 0.018,0.031 0.036,0.064 0.047,0.099 0.17,0.54 0.474,1.018 0.737,1.511 0.366,0.691 0.746,1.375 1.105,2.069 0.19,0.368 0.389,0.734 0.585,1.099 0.195,0.367 0.382,0.736 0.588,1.099 0.205,0.361 0.381,0.738 0.586,1.099 0.229,0.405 0.424,0.825 0.652,1.23 0.208,0.372 0.393,0.759 0.603,1.13 0.198,0.351 0.371,0.717 0.569,1.068 0.21,0.372 0.397,0.756 0.602,1.13 0.371,0.675 0.732,1.354 1.091,2.035 0.34,0.649 0.687,1.295 1.042,1.935 0.196,0.353 0.378,0.712 0.568,1.069 0.346,0.645 0.695,1.29 1.041,1.935 0.341,0.636 0.685,1.27 1.024,1.903 0.196,0.367 0.391,0.733 0.588,1.099 0.228,0.419 0.462,0.832 0.687,1.254 0.193,0.367 0.381,0.738 0.562,1.112 0.073,0.156 0.123,0.32 0.183,0.479" />
      <path
         style="fill:#223971"
         inkscape:connector-curvature="0"
         id="path4410"
         d="m 39.635,13.078 c -0.019,0.209 0.023,0.412 0.074,0.614 0.05,0.2 0.103,0.4 0.136,0.604 0.122,0.745 0.31,1.475 0.498,2.204 0.096,0.364 0.168,0.734 0.253,1.102 0.081,0.354 0.146,0.712 0.218,1.069 0.075,0.369 0.116,0.745 0.218,1.108 0.009,0.035 0.014,0.072 0.024,0.106 0.106,0.275 0.15,0.564 0.199,0.852 0.021,0.131 0.068,0.255 0.073,0.394 0.006,0.144 0.042,0.288 0.075,0.429 0.031,0.131 0.058,0.261 0.079,0.394 0.035,0.203 0.096,0.402 0.146,0.603 0.068,0.283 0.135,0.567 0.205,0.851 0.067,0.271 0.148,0.54 0.201,0.814 0.043,0.227 0.104,0.45 0.15,0.675 0.046,0.226 0.108,0.449 0.15,0.675 0.078,0.432 0.171,0.857 0.285,1.282 0.037,0.141 0.031,0.29 0.09,0.427 0.027,0.294 0.123,0.571 0.192,0.854 0.147,0.603 0.309,1.201 0.452,1.805 0.072,0.295 0.106,0.598 0.174,0.895 0.047,0.201 0.061,0.408 0.129,0.604 0.013,0.034 0.002,0.073 0.002,0.108 -0.049,0.004 -0.099,0.022 -0.144,0.01 C 43.358,31.513 43.2,31.515 43.041,31.513 42.81,31.509 42.577,31.506 42.346,31.5 c -0.134,-0.002 -0.268,-0.005 -0.4,-0.036 -0.094,-0.021 -0.194,-0.02 -0.292,-0.023 -0.244,-0.007 -0.488,-0.01 -0.732,-0.014 -0.122,-0.003 -0.242,-0.006 -0.363,-0.034 -0.083,-0.021 -0.17,-0.023 -0.255,-0.025 -0.23,-0.006 -0.464,-0.009 -0.695,-0.013 -0.158,-0.003 -0.316,-0.006 -0.474,-0.042 -0.104,-0.023 -0.217,-0.016 -0.327,-0.02 -0.243,-0.01 -0.489,0.006 -0.729,-0.058 -0.081,-0.021 -0.171,-0.01 -0.255,-0.011 -0.244,-0.005 -0.488,-0.006 -0.732,-0.012 -0.086,-0.001 -0.175,0.002 -0.254,-0.022 -0.156,-0.048 -0.315,-0.044 -0.473,-0.045 -0.489,-0.004 -0.977,-0.007 -1.466,-0.013 -0.182,-0.001 -0.365,0.003 -0.546,-0.044 -0.08,-0.02 -0.169,-0.012 -0.255,-0.015 C 33.853,31.069 33.609,31.064 33.365,31.06 33.244,31.057 33.123,31.053 33,31.025 c -0.081,-0.02 -0.167,-0.021 -0.253,-0.026 -0.159,-0.005 -0.316,-0.007 -0.476,-0.011 -0.073,-0.003 -0.149,0.007 -0.22,-0.01 -0.264,-0.067 -0.532,-0.051 -0.8,-0.063 -0.061,-0.002 -0.125,0.004 -0.182,-0.013 -0.204,-0.058 -0.412,-0.047 -0.618,-0.056 -0.195,-0.007 -0.39,-0.005 -0.583,-0.052 -0.105,-0.025 -0.219,-0.015 -0.329,-0.02 -0.182,-0.008 -0.365,-0.008 -0.546,-0.051 -0.127,-0.03 -0.265,-0.017 -0.401,-0.024 -0.182,-0.009 -0.364,-0.003 -0.544,-0.049 -0.105,-0.027 -0.219,-0.017 -0.329,-0.021 -0.243,-0.011 -0.487,0 -0.729,-0.058 -0.117,-0.029 -0.243,-0.013 -0.365,-0.018 -0.219,-0.011 -0.438,0 -0.657,-0.052 -0.103,-0.025 -0.217,-0.013 -0.328,-0.018 -0.292,-0.014 -0.587,0.01 -0.875,-0.059 -0.069,-0.017 -0.147,-0.008 -0.219,-0.011 -0.233,-0.005 -0.465,-0.009 -0.697,-0.013 -0.073,-0.002 -0.149,0.007 -0.218,-0.009 -0.29,-0.067 -0.583,-0.052 -0.875,-0.062 -0.171,-0.005 -0.34,-0.004 -0.509,-0.048 -0.093,-0.024 -0.194,-0.014 -0.291,-0.018 -0.231,-0.01 -0.463,-0.003 -0.693,-0.056 -0.117,-0.029 -0.242,-0.016 -0.364,-0.02 -0.22,-0.009 -0.44,10e-4 -0.656,-0.055 -0.069,-0.018 -0.145,-0.011 -0.218,-0.013 -0.195,-0.005 -0.391,-0.008 -0.587,-0.013 -0.072,-0.001 -0.148,0.008 -0.219,-0.008 -0.301,-0.072 -0.606,-0.05 -0.912,-0.062 -0.145,-0.007 -0.291,-0.004 -0.436,-0.041 -0.093,-0.023 -0.193,-0.02 -0.291,-0.023 -0.231,-0.007 -0.464,-0.01 -0.697,-0.016 -0.135,-0.001 -0.268,-0.021 -0.375,-0.116 0.254,-0.19 0.507,-0.382 0.763,-0.571 4.889,-3.602 9.778,-7.202 14.667,-10.805 l 7.172,-5.28 c 0.079,-0.058 0.158,-0.116 0.238,-0.17 0.082,-0.055 0.163,-0.041 0.239,0.011 0.018,0.014 0.031,0.035 0.048,0.053" />
      <path
         style="fill:#25afe2"
         inkscape:connector-curvature="0"
         id="path4412"
         d="m 68.024,64.237 c 0.002,0.035 0.009,0.072 0.008,0.107 -0.005,0.064 -0.03,0.121 -0.087,0.155 -0.836,0.502 -1.627,1.078 -2.443,1.615 -0.817,0.536 -1.625,1.085 -2.438,1.628 -0.812,0.544 -1.623,1.087 -2.432,1.636 -1.284,0.868 -2.569,1.738 -3.85,2.614 -1.019,0.696 -2.027,1.406 -3.044,2.103 -0.555,0.38 -1.118,0.746 -1.678,1.118 -1.048,0.695 -2.095,1.393 -3.144,2.088 -0.56,0.372 -1.122,0.738 -1.68,1.112 -0.336,0.223 -0.666,0.455 -0.996,0.687 -0.418,0.295 -0.837,0.595 -1.288,0.84 -0.171,0.092 -0.354,0.165 -0.529,0.246 -0.034,0.017 -0.073,-0.022 -0.064,-0.061 0.015,-0.059 0.035,-0.116 0.055,-0.173 0.047,-0.056 0.103,-0.103 0.142,-0.163 0.396,-0.618 0.79,-1.234 1.186,-1.851 0.401,-0.628 0.804,-1.255 1.206,-1.882 0.476,-0.738 0.952,-1.478 1.428,-2.218 0.178,-0.276 0.354,-0.556 0.532,-0.833 0.449,-0.698 0.897,-1.396 1.346,-2.096 0.166,-0.256 0.33,-0.514 0.492,-0.771 0.457,-0.708 0.914,-1.415 1.37,-2.123 0.428,-0.67 0.854,-1.338 1.282,-2.006 0.396,-0.616 0.791,-1.234 1.188,-1.85 0.439,-0.689 0.885,-1.377 1.325,-2.064 0.389,-0.606 0.775,-1.215 1.166,-1.82 0.343,-0.533 0.691,-1.064 1.039,-1.597 0.078,-0.124 0.149,-0.252 0.231,-0.373 0.037,-0.061 0.09,-0.113 0.136,-0.169 0.22,0.007 0.396,0.116 0.567,0.236 0.059,0.041 0.11,0.094 0.171,0.135 0.618,0.412 1.236,0.825 1.857,1.235 0.631,0.414 1.245,0.853 1.896,1.243 0.344,0.205 0.658,0.462 1.018,0.647 0.485,0.348 1.01,0.637 1.499,0.977 0.11,0.076 0.241,0.126 0.344,0.21 0.3,0.252 0.652,0.429 0.949,0.682 0.224,0.189 0.479,0.332 0.711,0.515 0.151,0.119 0.322,0.223 0.529,0.221" />
      <path
         style="fill:#2191ca"
         inkscape:connector-curvature="0"
         id="path4414"
         d="m 68.024,64.237 c -0.207,0.002 -0.379,-0.102 -0.53,-0.22 -0.231,-0.183 -0.487,-0.325 -0.711,-0.515 -0.297,-0.253 -0.649,-0.43 -0.949,-0.682 -0.103,-0.084 -0.233,-0.134 -0.344,-0.21 -0.489,-0.34 -1.014,-0.629 -1.499,-0.977 -0.359,-0.186 -0.674,-0.442 -1.018,-0.647 -0.65,-0.391 -1.265,-0.829 -1.896,-1.243 -0.621,-0.41 -1.239,-0.823 -1.857,-1.235 -0.061,-0.041 -0.112,-0.094 -0.171,-0.135 -0.171,-0.12 -0.348,-0.229 -0.567,-0.236 0.027,-0.071 0.058,-0.142 0.085,-0.213 0.132,-0.204 0.242,-0.42 0.372,-0.626 0.236,-0.382 0.471,-0.771 0.707,-1.156 0.25,-0.417 0.499,-0.837 0.753,-1.254 0.38,-0.627 0.76,-1.253 1.138,-1.88 0.253,-0.418 0.502,-0.837 0.755,-1.256 0.338,-0.564 0.678,-1.129 1.019,-1.693 0.25,-0.418 0.503,-0.838 0.754,-1.256 0.31,-0.511 0.62,-1.022 0.931,-1.533 0.258,-0.429 0.515,-0.857 0.773,-1.287 0.326,-0.543 0.653,-1.088 0.978,-1.632 0.251,-0.419 0.502,-0.838 0.752,-1.257 0.34,-0.565 0.68,-1.129 1.02,-1.696 0.22,-0.365 0.437,-0.733 0.654,-1.099 0.325,-0.546 0.648,-1.092 0.974,-1.639 0.21,-0.355 0.42,-0.715 0.635,-1.069 0.234,-0.385 0.479,-0.765 0.713,-1.151 0.141,-0.23 0.269,-0.464 0.398,-0.7 0.083,-0.151 0.143,-0.311 0.182,-0.478 0.033,-0.055 0.082,-0.086 0.141,-0.11 0.042,-0.02 0.104,0.015 0.108,0.062 0.003,0.023 0.013,0.048 0.01,0.071 -0.047,0.338 -0.097,0.677 -0.147,1.016 -0.063,0.435 -0.128,0.87 -0.191,1.304 -0.058,0.386 -0.115,0.774 -0.174,1.161 -0.062,0.421 -0.125,0.844 -0.188,1.267 -0.062,0.411 -0.121,0.823 -0.183,1.233 -0.062,0.411 -0.122,0.821 -0.185,1.232 -0.064,0.434 -0.129,0.869 -0.192,1.304 -0.062,0.411 -0.118,0.823 -0.18,1.233 -0.063,0.422 -0.13,0.844 -0.191,1.267 -0.059,0.398 -0.113,0.797 -0.174,1.197 -0.062,0.423 -0.125,0.846 -0.19,1.267 -0.055,0.39 -0.112,0.773 -0.169,1.161 -0.066,0.434 -0.133,0.869 -0.196,1.304 -0.059,0.399 -0.115,0.798 -0.174,1.197 -0.063,0.422 -0.125,0.845 -0.189,1.269 -0.061,0.41 -0.119,0.821 -0.181,1.232 -0.058,0.4 -0.115,0.798 -0.173,1.195 -0.063,0.424 -0.129,0.847 -0.192,1.27 -0.065,0.435 -0.129,0.868 -0.193,1.304 -0.06,0.398 -0.115,0.799 -0.173,1.196 -0.065,0.423 -0.128,0.847 -0.191,1.269 -0.058,0.387 -0.114,0.773 -0.172,1.161 -0.064,0.434 -0.13,0.868 -0.193,1.305 -0.013,0.083 -0.025,0.168 -0.032,0.253 -0.019,0.12 -0.039,0.24 -0.087,0.355" />
      <path
         style="fill:#233a72"
         inkscape:connector-curvature="0"
         id="path4416"
         d="m 72.073,35.261 c -0.039,0.168 -0.099,0.327 -0.182,0.477 -0.13,0.235 -0.258,0.471 -0.398,0.7 -0.234,0.386 -0.479,0.766 -0.713,1.152 -0.215,0.354 -0.425,0.713 -0.635,1.07 -0.325,0.545 -0.648,1.092 -0.974,1.637 -0.218,0.367 -0.435,0.734 -0.656,1.101 -0.338,0.566 -0.678,1.129 -1.018,1.695 -0.25,0.419 -0.501,0.838 -0.75,1.256 -0.326,0.546 -0.653,1.089 -0.979,1.635 -0.259,0.429 -0.516,0.858 -0.775,1.285 -0.309,0.513 -0.619,1.023 -0.929,1.534 -0.252,0.418 -0.504,0.838 -0.754,1.256 -0.341,0.564 -0.68,1.129 -1.02,1.693 -0.252,0.419 -0.501,0.838 -0.754,1.256 -0.377,0.627 -0.758,1.253 -1.136,1.88 -0.256,0.417 -0.505,0.837 -0.757,1.254 -0.234,0.386 -0.469,0.773 -0.706,1.156 -0.128,0.206 -0.24,0.422 -0.371,0.626 -0.15,0.013 -0.292,-0.02 -0.421,-0.097 -0.063,-0.037 -0.128,-0.071 -0.188,-0.111 -0.56,-0.367 -1.113,-0.745 -1.682,-1.102 -0.607,-0.382 -1.197,-0.795 -1.804,-1.18 -0.443,-0.281 -0.869,-0.587 -1.309,-0.869 -0.514,-0.328 -0.999,-0.696 -1.534,-0.994 -0.03,-0.018 -0.061,-0.041 -0.086,-0.067 -0.071,-0.068 -0.153,-0.119 -0.239,-0.165 -0.075,-0.04 -0.146,-0.089 -0.218,-0.136 -0.497,-0.329 -0.996,-0.657 -1.492,-0.989 -0.102,-0.069 -0.206,-0.128 -0.323,-0.167 -0.042,-0.014 -0.076,-0.055 -0.113,-0.084 0.048,-0.054 0.093,-0.111 0.146,-0.159 0.281,-0.254 0.58,-0.488 0.891,-0.706 2.374,-1.659 4.679,-3.411 7.028,-5.106 2.547,-1.834 5.089,-3.678 7.63,-5.522 1.958,-1.419 3.91,-2.849 5.866,-4.273 0.396,-0.288 0.797,-0.567 1.196,-0.848 0.049,-0.036 0.106,-0.058 0.159,-0.088" />
      <path
         style="fill:#105396"
         inkscape:connector-curvature="0"
         id="path4418"
         d="m 49.158,51.963 c 0.037,0.03 0.07,0.07 0.113,0.084 0.117,0.039 0.222,0.098 0.324,0.167 0.495,0.332 0.994,0.661 1.491,0.989 0.072,0.047 0.143,0.096 0.219,0.136 0.085,0.046 0.167,0.097 0.238,0.165 0.025,0.026 0.056,0.05 0.086,0.067 0.534,0.298 1.022,0.666 1.533,0.994 0.44,0.282 0.866,0.588 1.31,0.869 0.606,0.385 1.196,0.798 1.804,1.18 0.568,0.356 1.12,0.734 1.682,1.102 0.061,0.04 0.125,0.074 0.188,0.111 0.129,0.077 0.271,0.109 0.421,0.097 -0.027,0.071 -0.058,0.142 -0.085,0.213 -0.046,0.056 -0.099,0.108 -0.138,0.169 -0.08,0.121 -0.151,0.249 -0.23,0.373 -0.345,0.532 -0.693,1.063 -1.038,1.597 -0.391,0.605 -0.776,1.214 -1.166,1.82 -0.441,0.688 -0.886,1.375 -1.326,2.064 -0.396,0.615 -0.791,1.233 -1.188,1.85 -0.428,0.668 -0.854,1.336 -1.284,2.006 -0.454,0.708 -0.911,1.415 -1.368,2.123 -0.164,0.259 -0.325,0.516 -0.492,0.771 -0.448,0.699 -0.898,1.397 -1.346,2.096 -0.178,0.277 -0.354,0.557 -0.532,0.833 -0.476,0.74 -0.951,1.479 -1.428,2.218 -0.402,0.627 -0.805,1.254 -1.206,1.882 -0.396,0.615 -0.788,1.232 -1.186,1.849 -0.039,0.062 -0.095,0.109 -0.143,0.165 -0.005,-0.235 0.062,-0.46 0.098,-0.689 0.079,-0.518 0.174,-1.035 0.264,-1.554 0.109,-0.663 0.223,-1.324 0.334,-1.987 0.083,-0.495 0.164,-0.988 0.248,-1.483 0.113,-0.674 0.228,-1.349 0.341,-2.022 0.108,-0.651 0.216,-1.303 0.325,-1.953 0.111,-0.663 0.226,-1.324 0.336,-1.988 0.109,-0.649 0.217,-1.302 0.326,-1.952 0.108,-0.65 0.22,-1.301 0.33,-1.952 0.083,-0.493 0.165,-0.988 0.249,-1.48 0.09,-0.531 0.18,-1.062 0.268,-1.591 0.109,-0.65 0.217,-1.302 0.325,-1.953 0.107,-0.638 0.215,-1.277 0.323,-1.915 l 0.26,-1.555 0.327,-1.952 c 0.088,-0.53 0.178,-1.061 0.267,-1.59 0.017,-0.097 0.037,-0.193 0.062,-0.287 0.008,-0.034 0.043,-0.057 0.064,-0.087" />
    </g>
  </g>
</svg>
