<?xml version="1.0" encoding="utf-8"?>
<!-- Generator: Adobe Illustrator 16.0.0, SVG Export Plug-In . SVG Version: 6.00 Build 0)  -->
<!DOCTYPE svg PUBLIC "-//W3C//DTD SVG 1.1//EN" "http://www.w3.org/Graphics/SVG/1.1/DTD/svg11.dtd">
<svg version="1.1" id="Layer_1" xmlns="http://www.w3.org/2000/svg" xmlns:xlink="http://www.w3.org/1999/xlink" x="0px" y="0px"
	 width="120px" height="120px" viewBox="0 0 120 120" enable-background="new 0 0 120 120" xml:space="preserve">
<g opacity="0.95">
	<g>
		<defs>
			<rect id="SVGID_1_" x="9.202" y="5.375" width="101.595" height="109.25"/>
		</defs>
		<clipPath id="SVGID_2_">
			<use xlink:href="#SVGID_1_"  overflow="visible"/>
		</clipPath>
		<g clip-path="url(#SVGID_2_)">
			<g>
				<path fill="#23AFE2" d="M109.673,38.126c0.335,0.208,0.671,0.417,1.005,0.628c0.091,0.055,0.076,0.178-0.009,0.25
					c-0.034,0.028-0.064,0.051-0.094,0.076c-0.114,0.081-0.226,0.162-0.338,0.245c-1.353,0.977-2.702,1.957-4.055,2.928
					c-1.63,1.17-3.262,2.338-4.898,3.495c-3.91,2.759-7.825,5.508-11.727,8.273c-4.267,3.017-8.518,6.045-12.774,9.068
					c-1.393,0.99-2.785,1.979-4.176,2.969c-0.291,0.211-0.589,0.402-0.914,0.551c-0.394-0.18-0.622-0.479-0.662-0.914
					c-0.009-0.075-0.016-0.156-0.04-0.231c-0.186-0.606-0.251-1.242-0.436-1.845c-0.042-0.135-0.093-0.265-0.102-0.403
					c-0.047-0.494-0.23-0.959-0.305-1.449c-0.054-0.347-0.159-0.691-0.229-1.041c-0.068-0.35-0.156-0.691-0.228-1.041
					c-0.115-0.54-0.252-1.077-0.378-1.613c-0.14-0.578-0.217-1.168-0.41-1.731c0-0.303-0.104-0.587-0.175-0.872
					c-0.08-0.307-0.094-0.623-0.201-0.926c-0.047-0.128-0.094-0.264-0.108-0.401c-0.049-0.493-0.216-0.961-0.302-1.449
					c-0.087-0.504-0.246-0.995-0.34-1.502c-0.064-0.349-0.165-0.689-0.232-1.041c-0.069-0.367-0.166-0.729-0.243-1.098
					c-0.109-0.521-0.264-1.033-0.362-1.56c-0.063-0.346-0.162-0.69-0.23-1.041c-0.067-0.367-0.165-0.729-0.245-1.099
					c-0.105-0.521-0.26-1.031-0.356-1.556c-0.065-0.349-0.165-0.692-0.234-1.041c-0.066-0.37-0.203-0.722-0.233-1.101
					c-0.199-0.663-0.316-1.345-0.481-2.017c-0.077-0.309-0.128-0.619-0.195-0.927c-0.075-0.347-0.149-0.694-0.254-1.035
					c-0.114-0.4-0.259-0.792-0.24-1.218c0.002-0.058-0.002-0.124-0.027-0.174c-0.105-0.224-0.083-0.465-0.097-0.701
					c0.614,0.009,1.232,0.016,1.845,0.029c0.118,0.002,0.244,0,0.354,0.032c0.233,0.067,0.474,0.057,0.709,0.07
					c0.492,0.02,0.991-0.021,1.482,0.098c0.11,0.027,0.235,0.014,0.354,0.016c0.299,0.007,0.598,0.009,0.894,0.018
					c0.14,0.004,0.282,0.008,0.412,0.042c0.197,0.048,0.393,0.05,0.592,0.059c0.573,0.023,1.149-0.025,1.719,0.109
					c0.094,0.02,0.198,0.006,0.295,0.009c0.34,0.006,0.677,0.011,1.014,0.02c0.138,0.004,0.281,0.004,0.413,0.04
					c0.216,0.055,0.432,0.052,0.649,0.061c0.512,0.023,1.032-0.02,1.541,0.106c0.093,0.022,0.196,0.009,0.295,0.011
					c0.338,0.007,0.677,0.011,1.012,0.02c0.139,0.005,0.282-0.004,0.415,0.033c0.252,0.068,0.51,0.057,0.768,0.071
					c0.518,0.023,1.032-0.025,1.539,0.102c0.117,0.026,0.237,0.014,0.357,0.015c0.298,0.007,0.596,0.01,0.894,0.019
					c0.139,0.004,0.279,0.007,0.411,0.039c0.197,0.051,0.394,0.051,0.592,0.06c0.572,0.025,1.151-0.022,1.718,0.108
					c0.115,0.025,0.237,0.012,0.36,0.015c0.315,0.006,0.63,0.008,0.95,0.017c0.117,0.003,0.242-0.009,0.354,0.024
					c0.29,0.084,0.589,0.068,0.889,0.079c0.492,0.021,0.989-0.018,1.478,0.104c0.113,0.027,0.239,0.011,0.356,0.014
					c0.318,0.006,0.636,0.011,0.954,0.018c0.119,0.002,0.241-0.009,0.353,0.024c0.331,0.089,0.67,0.07,1.005,0.085
					c0.455,0.018,0.916-0.021,1.363,0.096c0.094,0.025,0.198,0.014,0.297,0.016c0.299,0.007,0.599,0.01,0.893,0.018
					c0.139,0.002,0.284-0.008,0.415,0.026c0.273,0.076,0.55,0.066,0.827,0.078c0.514,0.021,1.033-0.018,1.539,0.106
					c0.094,0.021,0.197,0.009,0.299,0.012c0.296,0.006,0.595,0.009,0.892,0.018c0.138,0.004,0.282-0.002,0.416,0.035
					c0.231,0.062,0.471,0.055,0.706,0.066c0.535,0.026,1.07-0.022,1.599,0.104c0.115,0.027,0.237,0.011,0.359,0.016
					c0.314,0.007,0.633,0.008,0.95,0.018c0.119,0.002,0.244-0.01,0.355,0.021c0.37,0.1,0.749,0.073,1.125,0.087
					c0.257,0.01,0.522-0.02,0.771,0.032c0.394,0.083,0.79,0.074,1.185,0.087c0.397,0.014,0.792-0.009,1.184,0.092
					c0.112,0.027,0.236,0.016,0.359,0.018c0.334,0.007,0.673,0.013,1.009,0.021c0.141,0.004,0.279,0.001,0.416,0.033
					c0.393,0.094,0.786,0.065,1.183,0.068C109.532,38.211,109.601,38.156,109.673,38.126"/>
				<path fill="#105296" d="M17.94,34.873c0-0.021-0.003-0.042,0.002-0.06c0.034-0.147,0.133-0.206,0.25-0.153
					c0.055,0.024,0.111,0.046,0.161,0.078c4.03,2.537,8.051,5.094,12.052,7.682c0.617,0.4,1.236,0.794,1.862,1.177
					c1.251,0.768,2.492,1.554,3.723,2.359c2.806,1.837,5.655,3.607,8.501,5.386c0.923,0.58,1.848,1.162,2.76,1.763
					c1.395,0.916,2.816,1.789,4.224,2.678c2.384,1.506,4.755,3.03,7.132,4.546c1.843,1.171,3.679,2.35,5.488,3.575
					c1.098,0.749,2.242,1.43,3.381,2.12c0.696,0.42,1.389,0.844,2.084,1.271c0.118,0.071,0.237,0.148,0.338,0.238
					c0.137,0.129,0.211,0.289,0.145,0.482c-0.199,0.013-0.404-0.013-0.592,0.04c-0.704,0.192-1.427,0.305-2.129,0.507
					c-0.058,0.018-0.112,0.039-0.171,0.044c-0.667,0.089-1.304,0.322-1.963,0.439c-0.369,0.063-0.724,0.204-1.093,0.268
					c-0.603,0.099-1.191,0.264-1.791,0.386c-0.289,0.054-0.567,0.174-0.862,0.211c-0.49,0.066-0.961,0.224-1.446,0.309
					c-0.503,0.09-0.989,0.265-1.495,0.363c-0.521,0.102-1.029,0.272-1.562,0.326c-0.644,0.192-1.301,0.321-1.957,0.466
					c-0.268,0.058-0.528,0.17-0.802,0.206c-0.494,0.058-0.955,0.256-1.449,0.295c-0.779,0.229-1.575,0.359-2.36,0.564
					c-0.133,0.032-0.264,0.09-0.401,0.104c-0.492,0.054-0.96,0.219-1.445,0.31c-0.504,0.094-0.993,0.268-1.495,0.362
					c-0.504,0.093-1,0.229-1.503,0.322c-0.542,0.098-1.077,0.251-1.613,0.376c-0.614,0.14-1.23,0.277-1.843,0.43
					c-0.135,0.031-0.266,0.085-0.401,0.098c-0.594,0.063-1.147,0.296-1.731,0.395c-0.157,0.022-0.308,0.091-0.4,0.237
					c-0.066-0.053-0.133-0.103-0.201-0.152c-0.099-0.255-0.179-0.523-0.298-0.774c-0.292-0.608-0.599-1.208-0.912-1.805
					c-0.365-0.685-0.745-1.357-1.115-2.037c-0.32-0.596-0.637-1.187-0.956-1.786c-0.552-1.031-1.109-2.061-1.664-3.09
					c-0.562-1.048-1.129-2.097-1.69-3.145c-0.309-0.576-0.604-1.164-0.923-1.736c-0.578-1.039-1.14-2.088-1.693-3.143
					c-0.582-1.106-1.17-2.208-1.772-3.306c-0.332-0.608-0.636-1.23-0.978-1.839c-0.321-0.571-0.604-1.162-0.923-1.733
					c-0.34-0.605-0.64-1.23-0.979-1.839c-0.37-0.657-0.688-1.341-1.059-1.996c-0.333-0.588-0.62-1.2-0.952-1.787
					c-0.335-0.586-0.639-1.19-0.956-1.784c-0.318-0.596-0.643-1.188-0.952-1.786c-0.584-1.127-1.201-2.239-1.795-3.361
					c-0.426-0.805-0.919-1.578-1.197-2.455c-0.018-0.058-0.048-0.11-0.077-0.161C18.323,35.151,18.173,34.967,17.94,34.873"/>
				<path fill="#1F91CA" d="M64.346,35.58c0.014,0.236-0.011,0.477,0.097,0.703c0.025,0.052,0.029,0.117,0.027,0.176
					c-0.019,0.423,0.126,0.818,0.24,1.217c0.102,0.339,0.179,0.685,0.256,1.034c0.065,0.31,0.116,0.619,0.193,0.928
					c0.165,0.67,0.284,1.353,0.481,2.016c0.028,0.378,0.167,0.734,0.233,1.101c0.069,0.351,0.169,0.692,0.234,1.041
					c0.098,0.527,0.251,1.037,0.356,1.56c0.077,0.366,0.178,0.731,0.245,1.099c0.069,0.349,0.168,0.691,0.23,1.04
					c0.099,0.525,0.253,1.036,0.36,1.556c0.079,0.37,0.176,0.731,0.246,1.098c0.066,0.352,0.167,0.696,0.229,1.044
					c0.095,0.505,0.256,0.997,0.347,1.499c0.082,0.489,0.249,0.956,0.298,1.452c0.015,0.136,0.062,0.271,0.108,0.4
					c0.105,0.3,0.121,0.62,0.199,0.925c0.073,0.288,0.177,0.57,0.177,0.873c0.193,0.563,0.271,1.153,0.407,1.729
					c0.129,0.537,0.266,1.075,0.379,1.614c0.073,0.347,0.161,0.691,0.229,1.041c0.07,0.35,0.176,0.691,0.229,1.039
					c0.074,0.492,0.258,0.957,0.302,1.451c0.012,0.139,0.063,0.269,0.104,0.403c0.183,0.603,0.251,1.238,0.437,1.845
					c0.024,0.075,0.028,0.156,0.038,0.231c0.042,0.435,0.271,0.734,0.662,0.914c-0.092,0.144-0.223,0.225-0.39,0.246
					c-0.184,0.027-0.357-0.004-0.51-0.107c-0.102-0.067-0.197-0.139-0.284-0.219c-0.24-0.211-0.502-0.391-0.766-0.564
					c-4.108-2.719-8.213-5.44-12.325-8.151c-2.57-1.696-5.135-3.399-7.724-5.064c-2.186-1.411-4.356-2.848-6.495-4.327
					c-1.797-1.243-3.611-2.46-5.446-3.647c-1.667-1.078-3.338-2.153-5.006-3.229c-3.539-2.286-7.042-4.62-10.522-6.99
					c-0.624-0.426-1.238-0.861-1.857-1.295c-0.112-0.078-0.22-0.167-0.328-0.255c-0.068-0.055-0.05-0.125,0.066-0.236
					c0.176,0.156,0.39,0.186,0.611,0.19c0.378,0.007,0.753,0.014,1.129,0.025c0.161,0.005,0.324,0,0.475,0.038
					c0.233,0.057,0.47,0.055,0.708,0.064c0.496,0.02,0.994-0.016,1.481,0.101c0.114,0.028,0.239,0.011,0.357,0.014
					c0.318,0.01,0.636,0.014,0.954,0.021c0.118,0.003,0.242-0.007,0.354,0.02c0.351,0.094,0.708,0.077,1.063,0.092
					c0.199,0.006,0.404-0.014,0.594,0.03c0.371,0.087,0.747,0.074,1.123,0.093c0.158,0.007,0.324-0.009,0.475,0.029
					c0.275,0.072,0.551,0.07,0.827,0.078c0.475,0.016,0.952-0.008,1.42,0.101c0.114,0.026,0.238,0.009,0.358,0.012
					c0.376,0.01,0.753,0.014,1.129,0.023c0.12,0.002,0.243-0.011,0.358,0.015c0.468,0.113,0.947,0.077,1.421,0.097
					c0.176,0.008,0.362-0.014,0.532,0.027c0.353,0.085,0.711,0.071,1.065,0.088c0.197,0.009,0.403-0.017,0.594,0.029
					c0.393,0.092,0.789,0.074,1.183,0.094c0.179,0.007,0.365-0.008,0.532,0.035c0.297,0.073,0.593,0.066,0.888,0.081
					c0.216,0.009,0.442-0.01,0.651,0.038c0.296,0.069,0.591,0.069,0.887,0.083c0.179,0.007,0.366-0.011,0.534,0.032
					c0.315,0.077,0.629,0.07,0.945,0.085c0.338,0.014,0.674-0.003,1.005,0.091c0.094,0.028,0.197,0.017,0.295,0.021
					c0.436,0.018,0.875-0.006,1.304,0.101c0.114,0.028,0.239,0.014,0.357,0.016c0.256,0.007,0.516,0.01,0.772,0.021
					c0.137,0.004,0.279,0.006,0.413,0.039c0.197,0.046,0.394,0.056,0.591,0.057c0.397,0.009,0.793,0.014,1.19,0.023
					c0.14,0.001,0.284-0.009,0.416,0.026c0.293,0.075,0.588,0.068,0.886,0.07c0.796,0.006,1.59,0.015,2.382,0.019
					c0.257,0.002,0.514-0.002,0.766,0.073c0.13,0.041,0.276,0.035,0.416,0.039c0.393,0.007,0.793,0.011,1.189,0.019
					c0.138,0.002,0.285-0.019,0.416,0.016c0.39,0.106,0.786,0.081,1.182,0.095c0.177,0.006,0.363-0.007,0.533,0.031
					c0.256,0.06,0.511,0.064,0.77,0.069c0.377,0.009,0.752,0.012,1.131,0.022c0.137,0.003,0.281,0.007,0.412,0.04
					c0.197,0.046,0.392,0.05,0.591,0.055c0.396,0.006,0.793,0.013,1.191,0.024c0.156,0.004,0.32,0.002,0.473,0.039
					c0.215,0.05,0.433,0.055,0.648,0.06c0.377,0.006,0.755,0.013,1.132,0.017c0.256,0.007,0.514,0,0.768,0.074
					c0.071,0.02,0.154-0.009,0.233-0.017C64.26,35.556,64.302,35.569,64.346,35.58"/>
				<path fill="#223971" d="M39.541,75.071c0.095-0.146,0.243-0.215,0.4-0.237c0.584-0.099,1.137-0.331,1.731-0.395
					c0.135-0.013,0.265-0.066,0.401-0.098c0.612-0.152,1.229-0.29,1.843-0.43c0.539-0.125,1.071-0.278,1.612-0.376
					c0.504-0.094,1-0.229,1.504-0.322c0.501-0.095,0.991-0.269,1.495-0.362c0.483-0.091,0.954-0.256,1.445-0.31
					c0.137-0.014,0.268-0.071,0.401-0.104c0.783-0.205,1.584-0.336,2.358-0.564c0.496-0.039,0.956-0.237,1.451-0.295
					c0.271-0.036,0.534-0.148,0.801-0.206c0.657-0.145,1.314-0.27,1.957-0.462c0.533-0.058,1.041-0.229,1.563-0.33
					c0.506-0.099,0.992-0.273,1.495-0.363c0.485-0.085,0.956-0.242,1.446-0.309c0.293-0.037,0.573-0.157,0.862-0.211
					c0.6-0.122,1.188-0.287,1.791-0.39c0.369-0.06,0.724-0.201,1.094-0.264c0.658-0.121,1.295-0.351,1.962-0.439
					c0.059-0.005,0.113-0.026,0.171-0.044c0.702-0.202,1.425-0.314,2.129-0.507c0.188-0.053,0.393-0.027,0.592-0.04
					c0,0.098,0.014,0.201-0.003,0.295c-0.296,1.702-0.598,3.404-0.891,5.106c-0.298,1.719-0.587,3.443-0.886,5.162
					c-0.337,1.957-0.685,3.913-1.025,5.865c-0.357,2.056-0.711,4.112-1.067,6.162c-0.256,1.486-0.507,2.978-0.764,4.465
					c-0.273,1.58-0.546,3.165-0.826,4.75c-0.135,0.762-0.284,1.522-0.421,2.284c-0.097,0.528-0.176,1.057-0.27,1.585
					c-0.134,0.783-0.274,1.563-0.419,2.347c-0.166,0.896-0.31,1.796-0.448,2.699c-0.208,1.336-0.412,2.67-0.733,3.981
					c-0.102,0.426-0.176,0.854-0.194,1.293c-0.007,0.181-0.04,0.354-0.063,0.533c-0.011,0.067-0.133,0.108-0.197,0.063
					c-0.077-0.058-0.152-0.126-0.229-0.183c0.033-0.229-0.028-0.436-0.124-0.636c-0.126-0.27-0.294-0.517-0.463-0.762
					c-0.351-0.507-0.66-1.035-0.948-1.581c-0.216-0.402-0.442-0.797-0.665-1.196c-0.311-0.551-0.623-1.106-0.937-1.66
					c-0.242-0.43-0.479-0.869-0.724-1.299c-0.44-0.775-0.885-1.549-1.325-2.325c-0.393-0.693-0.78-1.383-1.17-2.077
					c-0.476-0.847-0.96-1.688-1.437-2.534c-0.245-0.435-0.481-0.868-0.725-1.299c-0.46-0.814-0.921-1.621-1.378-2.437
					c-0.254-0.447-0.497-0.903-0.752-1.351c-0.438-0.78-0.884-1.55-1.323-2.329c-0.465-0.833-0.921-1.666-1.384-2.5
					c-0.221-0.397-0.446-0.796-0.669-1.194c-0.448-0.793-0.899-1.585-1.347-2.382c-0.252-0.452-0.496-0.906-0.747-1.357
					c-0.522-0.931-1.05-1.868-1.573-2.799c-0.243-0.434-0.481-0.869-0.724-1.304c-0.292-0.519-0.59-1.028-0.881-1.554
					c-0.25-0.446-0.493-0.903-0.744-1.356c-0.487-0.863-0.981-1.723-1.458-2.592C39.947,75.605,39.764,75.323,39.541,75.071"/>
				<path fill="#105296" d="M64.346,35.58c-0.044-0.011-0.086-0.024-0.129-0.037c0-0.059,0.018-0.123-0.002-0.175
					c-0.113-0.319-0.136-0.656-0.212-0.984c-0.109-0.479-0.167-0.972-0.279-1.451c-0.235-0.982-0.497-1.955-0.735-2.935
					c-0.114-0.458-0.271-0.91-0.313-1.385c-0.095-0.221-0.086-0.467-0.147-0.694c-0.185-0.688-0.332-1.38-0.463-2.082
					c-0.067-0.368-0.169-0.729-0.244-1.099c-0.076-0.367-0.175-0.727-0.243-1.098c-0.086-0.445-0.218-0.88-0.327-1.324
					c-0.115-0.458-0.223-0.921-0.334-1.379c-0.081-0.328-0.18-0.649-0.233-0.982c-0.038-0.215-0.08-0.427-0.131-0.637
					c-0.055-0.229-0.113-0.463-0.122-0.7c-0.009-0.222-0.087-0.424-0.12-0.639c-0.078-0.468-0.153-0.936-0.322-1.383
					c-0.02-0.054-0.027-0.117-0.041-0.172c-0.164-0.591-0.229-1.201-0.354-1.802c-0.119-0.578-0.222-1.16-0.354-1.738
					c-0.137-0.596-0.255-1.196-0.409-1.789c-0.307-1.186-0.611-2.372-0.809-3.582c-0.055-0.33-0.14-0.656-0.223-0.982
					c-0.082-0.328-0.147-0.656-0.118-0.995c0.167,0.019,0.283,0.133,0.416,0.216c2.086,1.306,4.17,2.612,6.255,3.92
					c9.849,6.181,19.699,12.36,29.547,18.538c5.109,3.206,10.219,6.412,15.327,9.62c0.151,0.094,0.299,0.195,0.45,0.293
					c-0.074,0.033-0.146,0.085-0.217,0.085c-0.396-0.003-0.792,0.03-1.183-0.064c-0.137-0.034-0.277-0.032-0.416-0.034
					c-0.338-0.01-0.675-0.014-1.012-0.023c-0.12-0.002-0.244,0.011-0.356-0.019c-0.392-0.101-0.787-0.075-1.184-0.092
					c-0.395-0.013-0.791-0.004-1.185-0.086c-0.248-0.051-0.514-0.021-0.771-0.03c-0.376-0.016-0.755,0.011-1.125-0.089
					c-0.111-0.031-0.236-0.016-0.355-0.02c-0.317-0.009-0.636-0.013-0.953-0.02c-0.119-0.004-0.241,0.011-0.356-0.013
					c-0.528-0.129-1.065-0.081-1.599-0.104c-0.236-0.015-0.475-0.004-0.71-0.069c-0.13-0.036-0.274-0.029-0.412-0.033
					c-0.297-0.01-0.596-0.012-0.892-0.019c-0.102-0.003-0.205,0.011-0.299-0.012c-0.508-0.124-1.025-0.085-1.539-0.103
					c-0.277-0.012-0.554-0.002-0.827-0.081c-0.131-0.035-0.276-0.021-0.415-0.025c-0.298-0.01-0.594-0.012-0.893-0.019
					c-0.099-0.002-0.203,0.009-0.297-0.013c-0.449-0.12-0.908-0.081-1.363-0.098c-0.335-0.014-0.674,0.004-1.005-0.085
					c-0.111-0.032-0.233-0.018-0.353-0.02c-0.318-0.01-0.634-0.015-0.954-0.021c-0.118-0.002-0.243,0.014-0.356-0.014
					c-0.488-0.12-0.985-0.083-1.479-0.101c-0.298-0.011-0.597,0.002-0.887-0.081c-0.11-0.031-0.237-0.021-0.356-0.025
					c-0.318-0.006-0.633-0.012-0.952-0.019c-0.119-0.002-0.241,0.012-0.356-0.014c-0.566-0.131-1.146-0.083-1.718-0.105
					c-0.198-0.009-0.395-0.011-0.592-0.06c-0.132-0.034-0.272-0.034-0.411-0.041c-0.298-0.01-0.594-0.013-0.894-0.019
					c-0.12-0.002-0.242,0.012-0.357-0.017c-0.507-0.125-1.023-0.078-1.539-0.1c-0.258-0.011-0.516,0-0.766-0.073
					c-0.135-0.033-0.278-0.026-0.417-0.031c-0.335-0.01-0.674-0.014-1.012-0.021c-0.099-0.002-0.202,0.011-0.294-0.011
					c-0.51-0.127-1.03-0.083-1.542-0.104c-0.218-0.008-0.434-0.006-0.649-0.064c-0.132-0.034-0.275-0.031-0.413-0.035
					c-0.337-0.013-0.674-0.017-1.014-0.024c-0.097-0.002-0.199,0.015-0.295-0.009c-0.569-0.133-1.146-0.084-1.719-0.107
					c-0.199-0.009-0.395-0.011-0.592-0.058c-0.133-0.035-0.271-0.037-0.412-0.042c-0.297-0.012-0.595-0.014-0.894-0.021
					c-0.118-0.001-0.243,0.016-0.355-0.013c-0.489-0.122-0.988-0.081-1.48-0.101c-0.237-0.011-0.475,0-0.709-0.069
					c-0.112-0.031-0.236-0.029-0.354-0.031C65.574,35.6,64.96,35.589,64.346,35.58"/>
				<path fill="#1F91CA" d="M39.541,75.071c0.223,0.252,0.406,0.534,0.569,0.829c0.477,0.869,0.971,1.729,1.458,2.592
					c0.251,0.453,0.495,0.91,0.744,1.356c0.291,0.525,0.59,1.035,0.881,1.554c0.243,0.435,0.481,0.87,0.724,1.304
					c0.523,0.931,1.05,1.868,1.573,2.799c0.251,0.451,0.495,0.905,0.747,1.357c0.448,0.797,0.899,1.589,1.347,2.382
					c0.224,0.398,0.449,0.797,0.669,1.194c0.462,0.834,0.919,1.667,1.384,2.5c0.438,0.779,0.885,1.549,1.323,2.329
					c0.255,0.447,0.498,0.903,0.752,1.351c0.457,0.815,0.918,1.622,1.378,2.437c0.243,0.431,0.479,0.864,0.725,1.299
					c0.477,0.847,0.96,1.688,1.437,2.534c0.39,0.694,0.778,1.384,1.17,2.077c0.44,0.776,0.884,1.55,1.325,2.325
					c0.244,0.43,0.481,0.869,0.724,1.299c0.313,0.554,0.626,1.109,0.937,1.66c0.223,0.399,0.449,0.794,0.665,1.196
					c0.288,0.546,0.598,1.074,0.948,1.581c0.169,0.245,0.337,0.492,0.463,0.762c0.096,0.2,0.157,0.407,0.124,0.636
					c-0.163-0.028-0.284-0.141-0.416-0.226c-1.923-1.227-3.85-2.453-5.775-3.685c-5.775-3.68-11.551-7.37-17.326-11.055
					c-3.616-2.312-7.23-4.622-10.845-6.933c-5.624-3.591-11.248-7.179-16.871-10.774c-0.352-0.224-0.705-0.446-1.05-0.675
					c-0.109-0.071-0.159-0.18-0.094-0.311c0.2,0,0.41,0.041,0.594-0.012c0.25-0.068,0.504-0.09,0.756-0.148
					c0.498-0.112,1.004-0.207,1.506-0.306c0.289-0.058,0.582-0.114,0.873-0.174c0.289-0.058,0.575-0.135,0.869-0.179
					c0.488-0.076,0.966-0.193,1.451-0.283c0.544-0.097,1.082-0.223,1.626-0.321c0.291-0.055,0.577-0.12,0.866-0.184
					c0.465-0.099,0.931-0.188,1.395-0.282c0.483-0.095,0.969-0.18,1.446-0.31c0.075-0.013,0.153-0.044,0.231-0.049
					c0.199-0.009,0.39-0.036,0.583-0.099c0.188-0.053,0.388-0.059,0.58-0.111c0.438-0.117,0.89-0.188,1.334-0.277
					c0.271-0.051,0.541-0.107,0.813-0.167c0.483-0.099,0.962-0.219,1.448-0.295c0.486-0.08,0.969-0.192,1.455-0.282
					c0.559-0.104,1.12-0.219,1.68-0.335c0.252-0.051,0.504-0.094,0.755-0.153c0.328-0.072,0.657-0.135,0.985-0.197
					c0.273-0.049,0.544-0.106,0.814-0.16c0.328-0.063,0.658-0.131,0.986-0.197c0.272-0.054,0.541-0.107,0.814-0.162
					c0.367-0.076,0.727-0.183,1.104-0.195c0.057-0.006,0.12-0.019,0.175-0.037c0.451-0.148,0.925-0.196,1.384-0.318
					c0.134-0.035,0.266-0.094,0.402-0.103c0.513-0.045,0.99-0.286,1.513-0.277c0.264-0.126,0.543-0.095,0.821-0.099
					c0.197,0,0.396,0,0.597-0.005c0.104,0,0.19-0.049,0.256-0.124C39.405,74.969,39.475,75.021,39.541,75.071"/>
				<path fill="#23AFE2" d="M39.339,74.919c-0.066,0.081-0.152,0.13-0.256,0.13c-0.2,0.005-0.4,0.005-0.597,0.005
					c-0.277,0.004-0.556-0.027-0.821,0.099c-0.523-0.009-1,0.232-1.513,0.277c-0.135,0.009-0.268,0.067-0.402,0.103
					c-0.459,0.122-0.934,0.17-1.384,0.318c-0.055,0.019-0.116,0.031-0.175,0.037c-0.378,0.013-0.738,0.119-1.107,0.195
					c-0.27,0.055-0.54,0.108-0.812,0.162c-0.33,0.066-0.658,0.134-0.985,0.197c-0.271,0.054-0.544,0.106-0.814,0.16
					c-0.328,0.063-0.658,0.125-0.986,0.197c-0.25,0.06-0.502,0.103-0.755,0.153c-0.56,0.116-1.12,0.231-1.68,0.335
					c-0.486,0.09-0.967,0.202-1.455,0.282c-0.486,0.076-0.966,0.196-1.448,0.295c-0.271,0.06-0.541,0.113-0.813,0.167
					c-0.444,0.089-0.896,0.16-1.334,0.277c-0.194,0.05-0.391,0.053-0.58,0.111c-0.192,0.063-0.383,0.09-0.583,0.099
					c-0.079,0.005-0.155,0.031-0.231,0.049c-0.477,0.13-0.963,0.215-1.446,0.31c-0.464,0.094-0.932,0.184-1.395,0.282
					c-0.288,0.058-0.574,0.129-0.866,0.184c-0.544,0.099-1.082,0.225-1.626,0.321c-0.486,0.09-0.964,0.207-1.451,0.283
					c-0.293,0.044-0.58,0.121-0.869,0.179c-0.291,0.06-0.583,0.116-0.871,0.174c-0.503,0.099-1.01,0.193-1.507,0.306
					c-0.252,0.059-0.507,0.08-0.759,0.148c-0.184,0.053-0.392,0.012-0.591,0.012c0.012-0.438,0.127-0.862,0.206-1.293
					c0.262-1.441,0.541-2.884,0.816-4.326c0.295-1.54,0.598-3.076,0.891-4.617c0.258-1.365,0.506-2.73,0.768-4.096
					c0.298-1.578,0.608-3.153,0.908-4.733c0.3-1.6,0.591-3.2,0.895-4.799c0.249-1.325,0.512-2.648,0.766-3.972
					c0.222-1.172,0.438-2.342,0.657-3.513c0.246-1.304,0.498-2.612,0.746-3.916c0.188-0.996,0.375-1.991,0.564-2.982
					c0.21-1.113,0.427-2.223,0.637-3.332c0.228-1.19,0.445-2.381,0.674-3.57c0.048-0.25,0.067-0.509,0.184-0.744
					c0.233,0.094,0.383,0.276,0.507,0.483c0.029,0.051,0.06,0.105,0.077,0.16c0.278,0.878,0.771,1.653,1.197,2.456
					c0.595,1.123,1.211,2.233,1.795,3.361c0.309,0.598,0.633,1.192,0.952,1.786c0.317,0.596,0.621,1.196,0.956,1.784
					c0.333,0.586,0.619,1.199,0.952,1.785c0.371,0.658,0.689,1.342,1.059,2c0.339,0.605,0.639,1.233,0.979,1.836
					c0.32,0.571,0.603,1.166,0.923,1.736c0.342,0.605,0.646,1.228,0.978,1.836c0.602,1.099,1.19,2.198,1.772,3.306
					c0.553,1.054,1.115,2.104,1.693,3.144c0.319,0.572,0.615,1.156,0.923,1.736c0.562,1.048,1.129,2.097,1.69,3.145
					c0.554,1.029,1.111,2.059,1.664,3.09c0.319,0.595,0.636,1.19,0.956,1.786c0.37,0.68,0.75,1.353,1.115,2.037
					c0.313,0.597,0.62,1.196,0.912,1.805C39.16,74.396,39.241,74.664,39.339,74.919"/>
				<path fill="#223971" d="M57.679,5.536c-0.031,0.339,0.037,0.67,0.119,0.998c0.082,0.326,0.167,0.651,0.222,0.982
					c0.197,1.21,0.503,2.395,0.81,3.581c0.154,0.591,0.272,1.193,0.409,1.791c0.133,0.575,0.237,1.157,0.354,1.737
					c0.123,0.599,0.189,1.209,0.354,1.8c0.017,0.057,0.022,0.118,0.041,0.172c0.172,0.447,0.244,0.917,0.322,1.385
					c0.033,0.213,0.111,0.415,0.12,0.64c0.009,0.234,0.067,0.468,0.122,0.697c0.051,0.213,0.093,0.424,0.129,0.639
					c0.056,0.331,0.154,0.654,0.235,0.979c0.111,0.46,0.219,0.921,0.334,1.383c0.109,0.439,0.241,0.877,0.327,1.322
					c0.068,0.37,0.167,0.732,0.243,1.098c0.075,0.367,0.177,0.729,0.244,1.096c0.127,0.702,0.278,1.394,0.463,2.083
					c0.062,0.229,0.053,0.472,0.146,0.694c0.044,0.477,0.2,0.926,0.314,1.386c0.238,0.98,0.5,1.953,0.732,2.934
					c0.116,0.479,0.173,0.971,0.282,1.453c0.076,0.326,0.099,0.662,0.212,0.981c0.02,0.056,0.002,0.12,0.002,0.176
					c-0.079,0.007-0.162,0.037-0.233,0.017c-0.254-0.072-0.512-0.067-0.768-0.072c-0.377-0.006-0.755-0.011-1.132-0.02
					c-0.216-0.004-0.434-0.009-0.648-0.06c-0.152-0.034-0.316-0.032-0.475-0.037c-0.396-0.011-0.793-0.016-1.189-0.023
					c-0.199-0.004-0.394-0.009-0.591-0.055c-0.135-0.034-0.275-0.037-0.414-0.042c-0.375-0.009-0.753-0.013-1.13-0.02
					c-0.256-0.004-0.514-0.008-0.771-0.069c-0.168-0.038-0.352-0.025-0.531-0.031c-0.394-0.017-0.794,0.008-1.183-0.094
					c-0.131-0.035-0.278-0.017-0.415-0.019C54.34,35.01,53.944,35.009,53.548,35c-0.14-0.002-0.286,0.002-0.414-0.037
					c-0.254-0.078-0.512-0.071-0.768-0.073c-0.794-0.007-1.586-0.013-2.382-0.021c-0.295-0.002-0.593,0.004-0.888-0.071
					c-0.129-0.032-0.273-0.021-0.414-0.025c-0.397-0.007-0.794-0.013-1.19-0.02c-0.197-0.004-0.394-0.011-0.592-0.057
					c-0.132-0.033-0.272-0.035-0.412-0.042c-0.258-0.009-0.515-0.012-0.772-0.02c-0.121-0.004-0.244,0.013-0.358-0.015
					c-0.43-0.11-0.864-0.083-1.3-0.104c-0.098-0.004-0.204,0.007-0.295-0.021c-0.331-0.093-0.669-0.076-1.004-0.09
					c-0.316-0.012-0.634-0.008-0.948-0.085c-0.169-0.042-0.355-0.024-0.534-0.033c-0.295-0.013-0.592-0.013-0.888-0.083
					c-0.206-0.048-0.431-0.027-0.652-0.038c-0.295-0.014-0.591-0.005-0.883-0.08c-0.171-0.044-0.355-0.029-0.535-0.035
					c-0.394-0.018-0.792,0-1.183-0.095c-0.19-0.045-0.394-0.02-0.594-0.028c-0.356-0.017-0.71,0-1.066-0.085
					c-0.167-0.042-0.353-0.021-0.532-0.028c-0.475-0.022-0.954,0.016-1.422-0.096c-0.112-0.027-0.238-0.014-0.354-0.019
					c-0.378-0.006-0.757-0.015-1.133-0.021c-0.118-0.003-0.243,0.012-0.354-0.014c-0.471-0.11-0.948-0.085-1.422-0.101
					c-0.277-0.009-0.553-0.007-0.827-0.078c-0.151-0.039-0.314-0.022-0.473-0.029c-0.376-0.017-0.752-0.004-1.126-0.091
					c-0.191-0.046-0.395-0.027-0.591-0.033c-0.358-0.014-0.715,0.001-1.065-0.089c-0.113-0.029-0.236-0.019-0.356-0.021
					c-0.316-0.008-0.634-0.014-0.954-0.021c-0.116-0.002-0.241,0.013-0.355-0.014c-0.489-0.116-0.986-0.08-1.481-0.1
					c-0.235-0.012-0.472-0.007-0.708-0.067c-0.151-0.037-0.315-0.032-0.472-0.037c-0.376-0.01-0.755-0.016-1.133-0.025
					c-0.22-0.002-0.435-0.034-0.61-0.188c0.414-0.309,0.824-0.621,1.241-0.928c7.942-5.852,15.884-11.7,23.826-17.553l11.651-8.578
					c0.129-0.094,0.257-0.188,0.388-0.278c0.133-0.09,0.264-0.066,0.387,0.018C57.63,5.472,57.651,5.507,57.679,5.536"/>
				<path fill="#25AFE2" d="M103.798,88.645c0.006,0.058,0.017,0.12,0.014,0.179c-0.007,0.103-0.05,0.192-0.142,0.25
					c-1.358,0.815-2.645,1.751-3.97,2.625c-1.327,0.867-2.639,1.759-3.96,2.643c-1.318,0.886-2.639,1.768-3.952,2.659
					c-2.084,1.41-4.173,2.82-6.253,4.245c-1.654,1.132-3.294,2.283-4.945,3.416c-0.901,0.618-1.816,1.213-2.726,1.817
					c-1.701,1.129-3.403,2.263-5.107,3.391c-0.907,0.604-1.822,1.2-2.729,1.81c-0.546,0.362-1.083,0.733-1.619,1.115
					c-0.678,0.478-1.358,0.966-2.093,1.36c-0.278,0.152-0.573,0.27-0.86,0.403c-0.056,0.025-0.119-0.036-0.104-0.1
					c0.023-0.094,0.058-0.188,0.09-0.281c0.075-0.09,0.165-0.167,0.229-0.264c0.643-1.004,1.283-2.006,1.926-3.01
					c0.651-1.016,1.306-2.036,1.959-3.054c0.772-1.2,1.547-2.399,2.319-3.605c0.288-0.447,0.576-0.899,0.865-1.352
					c0.729-1.133,1.457-2.271,2.187-3.402c0.27-0.418,0.535-0.838,0.8-1.255c0.741-1.149,1.484-2.302,2.226-3.453
					c0.693-1.083,1.388-2.171,2.084-3.255c0.644-1.003,1.284-2.005,1.93-3.004c0.715-1.119,1.438-2.239,2.151-3.354
					c0.633-0.986,1.262-1.977,1.896-2.956c0.556-0.869,1.123-1.733,1.687-2.597c0.128-0.202,0.243-0.408,0.377-0.605
					c0.06-0.098,0.146-0.184,0.222-0.273c0.356,0.01,0.643,0.188,0.92,0.381c0.098,0.068,0.18,0.152,0.278,0.22
					c1.005,0.671,2.008,1.343,3.018,2.006c1.025,0.678,2.025,1.39,3.078,2.02c0.561,0.336,1.07,0.752,1.654,1.054
					c0.789,0.563,1.64,1.034,2.437,1.588c0.18,0.121,0.394,0.202,0.559,0.341c0.485,0.407,1.058,0.694,1.543,1.106
					c0.36,0.309,0.777,0.542,1.152,0.837C103.182,88.482,103.462,88.649,103.798,88.645"/>
				<path fill="#2191CA" d="M103.798,88.645c-0.336,0.005-0.616-0.162-0.861-0.354c-0.375-0.295-0.792-0.528-1.152-0.837
					c-0.485-0.412-1.058-0.699-1.543-1.106c-0.165-0.139-0.379-0.22-0.559-0.341c-0.797-0.554-1.647-1.024-2.437-1.588
					c-0.584-0.302-1.094-0.718-1.654-1.054c-1.053-0.63-2.053-1.342-3.078-2.02c-1.01-0.663-2.013-1.335-3.018-2.006
					c-0.099-0.067-0.181-0.151-0.278-0.22c-0.277-0.192-0.563-0.371-0.92-0.381c0.045-0.115,0.092-0.231,0.137-0.349
					c0.215-0.332,0.394-0.681,0.605-1.017c0.385-0.618,0.765-1.249,1.147-1.876c0.408-0.681,0.813-1.361,1.226-2.037
					c0.615-1.021,1.232-2.037,1.847-3.054c0.41-0.682,0.814-1.361,1.228-2.043c0.548-0.917,1.101-1.83,1.653-2.748
					c0.408-0.682,0.818-1.361,1.226-2.043c0.501-0.828,1.007-1.661,1.511-2.489c0.419-0.699,0.838-1.393,1.257-2.092
					c0.529-0.882,1.061-1.767,1.589-2.652c0.408-0.681,0.816-1.362,1.223-2.042c0.551-0.917,1.104-1.833,1.653-2.754
					c0.356-0.593,0.71-1.192,1.064-1.786c0.528-0.887,1.055-1.774,1.58-2.661c0.343-0.578,0.684-1.163,1.032-1.738
					c0.382-0.626,0.777-1.243,1.158-1.871c0.229-0.374,0.437-0.754,0.647-1.137c0.135-0.245,0.232-0.504,0.295-0.776
					c0.054-0.09,0.134-0.14,0.229-0.18c0.066-0.032,0.167,0.026,0.177,0.102c0.004,0.037,0.021,0.079,0.016,0.114
					c-0.076,0.551-0.158,1.1-0.239,1.651c-0.104,0.707-0.208,1.413-0.312,2.118c-0.094,0.628-0.188,1.258-0.282,1.885
					c-0.102,0.685-0.204,1.373-0.307,2.059c-0.101,0.667-0.196,1.337-0.296,2.004c-0.101,0.667-0.199,1.333-0.3,2.001
					c-0.104,0.706-0.211,1.411-0.313,2.118c-0.099,0.667-0.192,1.337-0.291,2.004c-0.104,0.686-0.212,1.371-0.312,2.058
					c-0.097,0.649-0.186,1.296-0.283,1.945c-0.101,0.688-0.203,1.373-0.31,2.058c-0.088,0.632-0.183,1.259-0.274,1.885
					c-0.107,0.708-0.215,1.416-0.318,2.118c-0.097,0.65-0.188,1.299-0.284,1.948c-0.1,0.686-0.204,1.371-0.306,2.06
					c-0.1,0.668-0.195,1.335-0.293,2.001c-0.094,0.65-0.189,1.295-0.283,1.943c-0.102,0.687-0.208,1.376-0.31,2.061
					c-0.106,0.708-0.212,1.411-0.317,2.118c-0.096,0.649-0.186,1.299-0.279,1.943c-0.106,0.69-0.208,1.375-0.312,2.06
					c-0.092,0.632-0.187,1.259-0.28,1.89c-0.102,0.703-0.211,1.41-0.313,2.118c-0.021,0.135-0.041,0.273-0.052,0.412
					C103.908,88.263,103.877,88.461,103.798,88.645"/>
				<path fill="#233A72" d="M110.376,41.573c-0.063,0.273-0.16,0.531-0.295,0.774c-0.211,0.382-0.419,0.766-0.647,1.138
					c-0.381,0.628-0.776,1.244-1.158,1.873c-0.349,0.575-0.689,1.158-1.032,1.738c-0.525,0.887-1.052,1.775-1.58,2.659
					c-0.354,0.597-0.708,1.192-1.065,1.789c-0.549,0.919-1.102,1.833-1.652,2.752c-0.406,0.682-0.814,1.362-1.22,2.041
					c-0.531,0.889-1.063,1.771-1.592,2.655c-0.419,0.698-0.838,1.394-1.26,2.089c-0.501,0.833-1.007,1.663-1.508,2.491
					c-0.411,0.682-0.817,1.361-1.226,2.043c-0.553,0.918-1.104,1.831-1.657,2.748c-0.409,0.682-0.813,1.361-1.224,2.043
					c-0.61,1.017-1.231,2.032-1.845,3.054c-0.415,0.676-0.819,1.356-1.229,2.037c-0.381,0.627-0.761,1.254-1.149,1.876
					c-0.205,0.336-0.388,0.685-0.602,1.017c-0.244,0.021-0.473-0.03-0.684-0.156c-0.102-0.06-0.208-0.116-0.306-0.179
					c-0.909-0.596-1.81-1.214-2.731-1.792c-0.987-0.617-1.945-1.29-2.932-1.917c-0.718-0.456-1.41-0.954-2.124-1.409
					c-0.835-0.534-1.624-1.134-2.491-1.618c-0.053-0.026-0.1-0.066-0.142-0.106c-0.115-0.112-0.249-0.192-0.391-0.269
					c-0.12-0.067-0.234-0.144-0.352-0.22c-0.809-0.537-1.619-1.07-2.424-1.607c-0.167-0.113-0.336-0.211-0.526-0.273
					c-0.068-0.022-0.123-0.09-0.183-0.134c0.077-0.091,0.148-0.185,0.236-0.261c0.457-0.411,0.942-0.792,1.446-1.146
					c3.855-2.695,7.602-5.542,11.419-8.295c4.136-2.98,8.266-5.975,12.394-8.972c3.182-2.307,6.353-4.629,9.53-6.942
					c0.641-0.469,1.294-0.921,1.942-1.378C110.196,41.659,110.289,41.621,110.376,41.573"/>
				<path fill="#105396" d="M73.15,68.709c0.06,0.049,0.113,0.111,0.183,0.134c0.19,0.063,0.359,0.16,0.528,0.273
					c0.803,0.537,1.613,1.074,2.422,1.607c0.117,0.076,0.231,0.152,0.354,0.22c0.139,0.076,0.272,0.156,0.388,0.269
					c0.042,0.04,0.089,0.08,0.142,0.106c0.866,0.484,1.658,1.084,2.488,1.618c0.717,0.455,1.409,0.953,2.127,1.409
					c0.986,0.627,1.944,1.3,2.932,1.917c0.922,0.578,1.82,1.196,2.731,1.792c0.098,0.063,0.204,0.119,0.306,0.179
					c0.211,0.126,0.441,0.178,0.684,0.156c-0.045,0.117-0.092,0.233-0.137,0.349c-0.076,0.09-0.162,0.176-0.225,0.273
					c-0.131,0.197-0.246,0.403-0.376,0.605c-0.56,0.863-1.126,1.728-1.685,2.597c-0.634,0.979-1.261,1.97-1.896,2.956
					c-0.716,1.114-1.437,2.234-2.153,3.354c-0.644,0.999-1.284,2.001-1.928,3.004c-0.696,1.084-1.391,2.172-2.087,3.255
					c-0.738,1.151-1.481,2.304-2.223,3.453c-0.267,0.421-0.528,0.837-0.8,1.255c-0.729,1.132-1.459,2.27-2.187,3.402
					c-0.289,0.452-0.577,0.904-0.865,1.352c-0.772,1.206-1.544,2.405-2.319,3.605c-0.653,1.018-1.308,2.038-1.959,3.054
					c-0.643,1.004-1.28,2.006-1.926,3.004c-0.064,0.1-0.154,0.18-0.232,0.27c-0.007-0.38,0.101-0.748,0.159-1.119
					c0.13-0.843,0.282-1.685,0.428-2.526c0.18-1.075,0.362-2.149,0.545-3.228c0.134-0.803,0.265-1.604,0.401-2.409
					c0.184-1.093,0.37-2.189,0.554-3.286c0.177-1.058,0.352-2.115,0.528-3.172c0.182-1.078,0.366-2.152,0.547-3.229
					c0.177-1.056,0.352-2.117,0.527-3.175c0.178-1.056,0.359-2.113,0.537-3.169c0.135-0.802,0.269-1.604,0.406-2.405
					c0.146-0.863,0.29-1.725,0.435-2.584c0.176-1.057,0.351-2.118,0.528-3.175c0.174-1.035,0.349-2.073,0.522-3.111l0.424-2.526
					l0.53-3.17c0.144-0.859,0.289-1.724,0.436-2.584c0.025-0.156,0.06-0.314,0.098-0.466C73.057,68.794,73.113,68.753,73.15,68.709"
					/>
			</g>
		</g>
	</g>
</g>
</svg>
