<svg id="svg4247" xmlns="http://www.w3.org/2000/svg" xmlns:xlink="http://www.w3.org/1999/xlink" viewBox="0 0 111.25 112.25"><defs><style>.cls-1{fill:url(#linear-gradient);}.cls-2,.cls-3{fill:#fff;}.cls-3{stroke:#000;stroke-width:0.5px;opacity:0.5;isolation:isolate;}.cls-4{fill:#282e5b;}.cls-5{fill:#059bdc;}</style><linearGradient id="linear-gradient" x1="-1174.01" y1="1119.28" x2="-822.16" y2="964.89" gradientTransform="matrix(-1.01, 0, 0, 1.01, -855.64, -950.12)" gradientUnits="userSpaceOnUse"><stop offset="0" stop-color="#1a1a1a"/><stop offset="1" stop-color="#1a1a1a" stop-opacity="0"/></linearGradient></defs><path id="path4251-6" class="cls-1" d="M6.66,48.07a55.49,55.49,0,1,1,40.42,67.27A55.49,55.49,0,0,1,6.66,48.07Z" transform="translate(-4.75 -4.75)"/><path id="path4251" class="cls-2" d="M113.35,73.31a55,55,0,1,1-40-66.66A55,55,0,0,1,113.35,73.31Z" transform="translate(-4.75 -4.75)"/><path id="path6359" class="cls-3" d="M115,60A55,55,0,1,1,60,5a55,55,0,0,1,55,55" transform="translate(-4.75 -4.75)"/><path class="cls-4" d="M68.62,43.75c0-12.11-5.84-22.55-10.31-26,0,0-.31-.19-.31.31-.37,23.41-12.24,29.81-18.82,38.32-15.09,19.75-1.06,41.36,13.23,45.34,8,2.23-1.86-4-3.11-17-1.49-15.84,19.32-27.89,19.32-41" transform="translate(-4.75 -4.75)"/><path class="cls-5" d="M76.44,51.76a.28.28,0,0,0-.31,0l-.06.06c-.25,2.92-3.48,9.26-7.51,15C54.83,86.48,62.66,95.92,67.07,101c2.54,3,0,0,6.39-3C74,97.72,85.88,91.39,87.19,77c1.3-14-7.58-22.73-10.75-25.28" transform="translate(-4.75 -4.75)"/></svg>