<?xml version="1.0" encoding="utf-8"?>
<!-- Generator: Adobe Illustrator 23.0.2, SVG Export Plug-In . SVG Version: 6.00 Build 0)  -->
<svg version="1.1" xmlns="http://www.w3.org/2000/svg" xmlns:xlink="http://www.w3.org/1999/xlink" x="0px" y="0px"
	 viewBox="0 0 1000 1000" style="enable-background:new 0 0 1000 1000;" xml:space="preserve">
<style type="text/css">
	.st0{fill:#FFFFFF;}
	.st1{fill:url(#XMLID_3_);}
	.st2{fill:url(#SVGID_1_);}
	.st3{fill:url(#SVGID_2_);}
	.st4{fill:url(#SVGID_3_);}
	.st5{fill:url(#SVGID_4_);}
</style>
<g id="Layer_2">
	<ellipse class="st0" cx="500" cy="494.2" rx="492.1" ry="494.2"/>
</g>
<g id="Layer_1">
	<g>
		<linearGradient id="XMLID_3_" gradientUnits="userSpaceOnUse" x1="860.1357" y1="585.3563" x2="860.1357" y2="585.3563">
			<stop  offset="0" style="stop-color:#00B0C4"/>
			<stop  offset="1" style="stop-color:#17477E"/>
		</linearGradient>
		<path id="XMLID_1_" class="st1" d="M860.1,585.4"/>
		<g>
			<linearGradient id="SVGID_1_" gradientUnits="userSpaceOnUse" x1="189.4663" y1="19.6465" x2="201.6575" y2="987.6292">
				<stop  offset="0" style="stop-color:#00B0C4"/>
				<stop  offset="1" style="stop-color:#17477E"/>
			</linearGradient>
			<path class="st2" d="M192.7,152.5c-1.1-1.1-2.8-1.4-4.7-1.3c-1.9,0.2-3.8,0.8-5.5,2.2c-9.7,8.1-14.4,12.4-23.4,21.2
				c-1.6,1.6-2.5,3.4-2.6,5.1c-0.2,1.7,0.3,3.1,1.5,4.1c11.8,10,23.6,20,35.5,30c1.3,1.1,2.8,1.5,4.6,1.3c1.8-0.2,3.4-1.1,4.8-2.5
				c8-7.8,12.2-11.6,20.9-18.9c1.5-1.2,2.3-2.7,2.6-4.2c0.3-1.7,0-3.1-1.2-4.3C214.4,174.3,203.6,163.4,192.7,152.5z"/>
			<linearGradient id="SVGID_2_" gradientUnits="userSpaceOnUse" x1="905.034" y1="10.6373" x2="917.2252" y2="978.6194">
				<stop  offset="0" style="stop-color:#00B0C4"/>
				<stop  offset="1" style="stop-color:#17477E"/>
			</linearGradient>
			<path class="st3" d="M907.7,313.7c1.5,0.6,3,0.7,4.5,0c4.2-2,6.3-2.9,10.6-4.9c1.4-0.7,2.3-1.9,2.8-3.5c0.5-1.5,0.6-3.2-0.1-4.8
				c-5.1-11.6-7.9-17.2-14-28.3c-8.2,4.5-12.2,6.8-20.4,11.3c5.8,10.6,8.5,16,13.4,27.1C905.2,312.1,906.3,313.1,907.7,313.7z"/>
			<linearGradient id="SVGID_3_" gradientUnits="userSpaceOnUse" x1="494.0102" y1="15.8118" x2="506.2014" y2="983.7945">
				<stop  offset="0" style="stop-color:#00B0C4"/>
				<stop  offset="1" style="stop-color:#17477E"/>
			</linearGradient>
			<path class="st4" d="M933.7,257.2c0,0-90.9-196-324.6-246.2v30.9l-58.6-13.1V94l58.6,12.1v31.9c0,0,43.7,11.8,95.1,46.4
				l-62.7,69.7c-41.5-24.5-89.9-38.7-141.5-38.7c-52.1,0-100.8,14.4-142.6,39.3l-63.3-69.2c52.1-35.5,96.8-47.5,96.8-47.5v-31.9
				L449.5,94V28.8l-58.6,13.1V11C157.2,61.2,66.3,257.2,66.3,257.2C-39.9,450.2,30.9,646.2,30.9,646.2l27.2-15.2l12.6,34.7l56-28.1
				l-11.9-37.9l25.1-14.5c-23.8-167.2,26.5-274.9,88.3-342.7l56.5,62.3c-0.1,1.5-0.2,3-0.2,4.5c0,2.4,0.2,4.8,0.5,7.2
				C244.8,365,220.6,427,220.6,494.7c0,132,92.2,242.9,215.5,271.8c4.4,11.8,12.1,22,21.9,29.5l-0.1,60.6
				c-66.7-8.8-139.8-39-214.3-106l-35.5,17.9l-31.7-36.6l-55.9,30l31.7,38.9l-26.5,16.9c0,0,149,170.3,369.4,170.6
				c0,0,215.6,15.1,372.4-165.1l-27.1-14.9l39.8-44.9l-57.1-31.5l-38.9,45.4l-27.9-15.4c0,0-87.1,79.6-213.2,95l0.1-64.2
				c8-7.2,14.2-16.3,18-26.6c-0.1,0.4-0.2,0.7-0.4,1.1c124.8-27.9,218.4-139.4,218.4-272.5c0-68.5-24.8-131.2-65.9-179.9
				c0,0.3-0.1,0.7-0.2,1c0.3-2.1,0.4-4.2,0.4-6.4c0-0.5-0.1-1-0.1-1.5l58.8-64.8c61.5,67.8,111.5,175.5,87.8,342.2l25.1,14.5
				l-11.9,37.9l56,28.1l12.6-34.7l27.2,15.2C969.1,646.2,1039.9,450.2,933.7,257.2z M213.1,833.8c-11.3,0-20.5-9.2-20.5-20.5
				c0-11.3,9.2-20.5,20.5-20.5c11.3,0,20.5,9.2,20.5,20.5C233.6,824.6,224.4,833.8,213.1,833.8z M779.3,807
				c11.3,0,20.5,9.2,20.5,20.5c0,11.3-9.2,20.5-20.5,20.5c-11.3,0-20.5-9.2-20.5-20.5C758.8,816.2,768,807,779.3,807z M635.5,99.4
				c-11.3,0-20.5-9.2-20.5-20.5c0-11.3,9.2-20.5,20.5-20.5c11.3,0,20.5,9.2,20.5,20.5C656,90.2,646.8,99.4,635.5,99.4z M697,160.3
				c-1.6-0.8-2.5-1.9-3-3.2c-0.5-1.4,0.6-4.1,0.6-4.1s-2.2,2.2-3.8,2.6c-1.6,0.4-3.1,0.2-4.6-0.4c-8.7-4-13.2-5.9-22.3-9.5
				c-3.2-1.3-5.6-3.2-6.7-5.8c-1.2-2.6-0.9-5.4,0.6-8.1c10.7-19.3,21.5-38.6,32.2-57.9c5.5,1.9,8.2,3,13.5,5
				c-10.4,17.5-20.7,35-31.1,52.5c-0.8,1.4-0.9,2.8-0.4,4.1c0.6,1.3,1.7,2.3,3.4,3c4.6,1.9,6.9,2.9,11.4,4.9
				c1.5,0.7,3.1,0.8,4.7,0.4c1.7-0.4,3.1-1.2,4-2.5c11.4-17.1,22.7-34.1,34.1-51.2c5.1,2.4,7.6,3.6,12.6,6.1
				c-11.8,16.8-23.7,33.7-35.5,50.5c-0.9,1.3-1.2,2.7-0.8,4.1c0.4,1.4,1.4,2.5,3,3.3c4.3,2.2,6.5,3.4,10.7,5.7c1.4,0.8,3,1,4.6,0.8
				c1.7-0.2,3.1-1,4.1-2.3c12.8-16.3,25.5-32.7,38.3-49c4.8,2.8,7.1,4.2,11.7,7c-14.4,17.5-28.8,35.1-43.3,52.6
				c-2,2.5-4.8,4-8.2,4.5c-3.3,0.5-6.3-0.1-9.1-1.7C709.7,166.8,705.5,164.6,697,160.3z M713.7,191c7.8,5.6,15.8,11.8,23.7,18.5
				l-49.3,55.1c-7.8-4.7-17-7.4-26.8-7.4c-2.8,0-5.6,0.3-8.3,0.7L713.7,191z M661.4,277.2c17.8,0,32.3,14.5,32.3,32.3
				c0,17.8-14.5,32.3-32.3,32.3c-17.8,0-32.3-14.5-32.3-32.3C629.1,291.6,643.5,277.2,661.4,277.2z M499.9,232.8
				c47.2,0,91.4,12.6,129.6,34.5l-2.5,2.8c-11,9.6-18,23.7-18,39.4c0,21.9,13.4,40.6,32.5,48.4v82.4l-126.8,97v-77.4
				c29.1-7.2,50.7-33.4,50.7-64.8c0-36.9-29.9-66.8-66.8-66.8c-36.9,0-66.8,29.9-66.8,66.8c0,31.3,21.6,57.6,50.7,64.8v77.3
				l-126.7-96.9v-82.1c19.5-7.6,33.3-26.5,33.3-48.7c0-15.2-6.6-28.9-16.9-38.5l0.1,0l-2.9-3.2C407.8,245.6,452.4,232.8,499.9,232.8
				z M369,309.4c0,17.8-14.5,32.3-32.3,32.3c-17.8,0-32.3-14.5-32.3-32.3c0-17.8,14.5-32.3,32.3-32.3
				C354.6,277.1,369,291.6,369,309.4z M343.9,257.6c-2.3-0.3-4.7-0.5-7.2-0.5c-9.1,0-17.6,2.3-25,6.3L263.1,209
				c7.2-6,14.4-11.7,21.5-16.8L343.9,257.6z M362.5,58.5c11.3,0,20.5,9.2,20.5,20.5c0,11.3-9.2,20.5-20.5,20.5
				c-11.3,0-20.5-9.2-20.5-20.5C342.1,67.6,351.2,58.5,362.5,58.5z M241,103.3c1.4-3.4,4.4-6.3,8.6-8.5
				c15.4-7.8,30.8-14.9,46.8-21.5c4.4-1.7,8.8-2.2,13.1-1.5c4.3,0.7,7.2,2.4,8.7,5.1c10.7,19.4,21.5,38.8,32.2,58.2
				c-5.7,2-8.5,3.1-14.1,5.3c-10.5-17.6-20.9-35.1-31.4-52.7c-0.8-1.3-2.4-2-4.4-2.3c-2-0.3-4.2-0.2-6.3,0.7
				c-12.6,5.2-18.7,8-30.6,14.1c-2.2,1.1-3.6,2.6-4.3,4.2c-0.7,1.6-0.7,3,0.2,4.2c12.3,16.7,24.5,33.5,36.8,50.2
				c-5.1,2.7-7.6,4.1-12.6,7c-14-17.9-28-35.8-41.9-53.8C240,109.5,239.7,106.6,241,103.3z M220.6,111.6c17,20.5,34,41,51,61.5
				c-4.8,3-7.2,4.6-11.8,7.8c-17.7-20-35.4-40.1-53-60.1C212.2,117,215,115.2,220.6,111.6z M29.6,445.4c0.1-4.5,1.4-8.2,3.9-11
				c2.4-2.8,5.2-3.9,8.2-3.3c22.5,4.4,45,8.7,67.5,13.1c-0.4,5.6-0.5,8.4-0.7,14.1c-20.7-3.4-41.3-6.7-62-10.1
				c-1.5-0.2-2.8,0.5-3.9,1.9c-1.1,1.3-1.8,3.1-1.9,5.3c-0.2,13.1,0,19.7,0.8,32.9c0.2,2.4,0.9,4.5,2.2,6.1c1.2,1.6,2.5,2.5,4,2.6
				c20.6,1.4,41.2,2.9,61.8,4.3c0.5,5.8,0.8,8.7,1.5,14.6c-22.4-0.9-44.8-1.7-67.2-2.6c-3-0.1-5.9-1.8-8.4-5.1
				c-2.6-3.4-4.1-7.6-4.5-12.4C29.9,478.9,29.4,462.3,29.6,445.4z M79.6,605.8c-11.3,0-20.5-9.2-20.5-20.5
				c0-11.3,9.2-20.5,20.5-20.5c11.3,0,20.5,9.2,20.5,20.5C100,596.7,90.9,605.8,79.6,605.8z M38,547.4c-1.3-6.9-2-10.4-3-17.3
				c26,0.2,52,0.3,78.1,0.5c0.9,5.9,1.4,8.8,2.6,14.8C89.8,546,63.9,546.7,38,547.4z M114.5,402.7c-25.9-7.4-51.9-14.9-77.8-22.3
				c1.2-6.3,1.8-9.5,3.3-15.8c25.8,8.2,51.6,16.4,77.4,24.6C116,394.6,115.5,397.3,114.5,402.7z M120.6,376
				C95,367,69.4,358.1,43.8,349.1c1.7-6.2,2.6-9.2,4.4-15.3c21.8,8.3,43.5,16.6,65.3,24.9c5.5-17.6,12.4-34.8,20.6-51.3
				c4.2,2.1,6.2,3.2,10.4,5.4C134.8,333.5,127.1,354.1,120.6,376z M157.3,289.2c-1.9,3.2-4.5,5.6-7.7,6.7c-3.1,1.1-6.3,0.9-9.2-0.7
				c-17.1-9.4-34.1-18.9-51.2-28.3c-2.8-1.5-4.5-4.2-5.1-7.8c-0.5-3.8,0.4-7.7,2.6-11.5c10.8-18.1,23.1-35.2,36.6-51.4
				c3.7,2.8,5.6,4.2,9.3,7c-11.6,13.8-22.2,28.4-31.8,43.7c-1.2,1.9-1.6,3.8-1.3,5.7c0.2,1.7,1,3.1,2.3,3.9
				c13.4,7.9,26.9,15.9,40.3,23.8c1.5,0.9,3,1,4.6,0.5c1.6-0.5,2.9-1.7,4-3.4c8.6-13.7,18.1-26.7,28.4-39.1c3.7,2.8,5.6,4.2,9.3,7
				C177,259.1,166.6,273.8,157.3,289.2z M206.8,225.2c-2.7,2.7-5.8,4.5-9.3,5c-3.4,0.5-6.6-0.3-9.1-2.4
				c-15.2-12.1-30.3-24.2-45.5-36.3c-2.5-2-3.7-4.8-3.4-8.4c0.3-3.7,2.1-7.3,5.2-10.5c11.3-11.5,23.2-22.3,35.8-32.4
				c3.4-2.8,7.2-4.3,11.4-4.6c4.1-0.3,7.2,0.7,9.4,3c13.1,14,26.2,28,39.3,42c2.2,2.4,3,5.3,2.3,8.5c-0.7,3.2-2.5,6-5.5,8.4
				C224.4,208,218.3,213.5,206.8,225.2z M236.1,234.2c6-6.2,12.1-12.1,18.3-17.5l47.9,53.5c-6.4,5.6-11.4,12.8-14.4,21L236.1,234.2z
				 M431.8,743c0,1.8,0.2,3.6,0.3,5.4c0-0.3-0.1-0.6-0.1-0.9c-111.6-30-194.1-132-194.1-252.9c0-59.6,20.1-114.6,53.7-158.7
				c6.3,10.6,16.3,18.8,28.2,22.9v90.9v7.9l162.7,124.9v95.7C453.4,685.5,431.8,711.7,431.8,743z M259.3,893
				c13.8-22.6,27.6-45.3,41.4-67.9c5.4,3.3,8.2,4.9,13.7,8c-12.9,23.2-25.7,46.4-38.6,69.6C269.1,899,265.8,897,259.3,893z
				 M380.5,944.9c-30.5-8.9-59.2-19.8-87.9-33.4c11.9-23.7,23.8-47.4,35.7-71.1c5.6,2.8,8.5,4.2,14.2,6.7
				c-9.3,20.7-18.7,41.4-28,62.1c22.7,9.6,45.3,17.7,69,24.6C382.3,938.3,381.7,940.5,380.5,944.9z M492,892.3
				c-18.6-0.8-36.6-2.4-55.1-5c-2.3-0.4-4.3,0-5.9,0.8c-1.6,0.8-2.6,1.9-2.9,3.5c-3.3,17.9-4.9,26.8-8.2,44.7
				c-0.3,1.6,0.3,3.1,1.8,4.5c1.5,1.3,3.5,2.2,6.1,2.7c20.8,3.4,41.9,5.3,63,5.7c-0.1,4.5-0.1,6.8-0.2,11.4
				c-24.9-1-49.1-3.5-73.8-7.4c-5.1-0.9-9.5-2.9-12.5-5.7c-2.9-2.8-4-6-3.3-9.1c4.1-18.5,8.3-37,12.4-55.4c0.7-3,2.7-5.3,6-6.9
				c3.4-1.6,7.3-1.9,11.6-1.2c20.2,3.7,40.6,5.7,61.1,6.1C492.2,885.5,492.1,887.8,492,892.3z M494.4,859.3
				c-8.2-0.2-16.5-0.6-24.9-1.4l0.1-54.7c7.6,3.7,16,5.9,24.9,6.5L494.4,859.3z M505.6,859.3l0.1-50c9.4-1,18.2-3.9,26-8.3l-0.1,57
				C523.1,858.8,514.4,859.2,505.6,859.3z M633.7,860.6c2.1-3.2,5.2-5.6,9.3-7.2c14.6-5.9,28.8-12.6,42.5-20.3
				c3.7-2.1,7.5-3,11.4-2.6c3.9,0.3,6.6,1.7,8.2,4.4c11.8,19.4,23.7,38.8,35.5,58.2c-6.6,4-9.9,5.9-16.6,9.6
				c-10.1-18.2-20.2-36.4-30.3-54.7c-0.7-1.3-2.2-2-4.1-2.2c-1.8-0.2-3.8,0.1-5.8,1.1c-11.5,6.1-17.4,8.8-29.2,13.9
				c-2.2,0.9-3.7,2.3-4.7,3.9c-0.9,1.5-1.2,3.1-0.6,4.5c7.8,19.3,15.6,38.6,23.4,58c-7,2.8-10.5,4.2-17.6,6.7
				c-7.6-21.4-15.2-42.8-22.9-64.2C631.2,866.7,631.7,863.6,633.7,860.6z M613.7,863.8c7.9,25.3,15.7,50.6,23.6,75.9
				c-7.2,2.2-10.7,3.3-18,5.2c-6.8-25.6-13.7-51.2-20.5-76.8C604.8,866.5,607.8,865.6,613.7,863.8z M568.7,874.8
				c4.1-0.7,7.8-0.4,11.3,1.2c3.5,1.6,5.6,3.8,6.3,6.8c4.1,18.5,8.3,37,12.4,55.4c0.7,3.1-0.5,6.3-3.6,9.1
				c-3.1,2.8-7.2,4.7-12.2,5.7c-18.5,3-36.6,5.2-55.3,6.7c-5.2,0.3-9.8-0.5-13.4-2.6c-3.5-2-5.3-4.8-5.3-8
				c-0.4-18.9-0.8-37.9-1.1-56.8c-0.1-3.1,1.4-5.8,4.2-8.1c2.9-2.3,6.6-3.6,10.9-3.9C541.3,879.3,550.5,878.2,568.7,874.8z
				 M498.7,790.3c-26.1,0-47.3-21.1-47.3-47.2c0-26.1,21.2-47.2,47.3-47.2c26.1,0,47.3,21.1,47.3,47.2
				C545.9,769.1,524.8,790.3,498.7,790.3z M761.9,494.7c0,121.9-83.7,224.6-196.7,253.7c0,0.1,0,0.2,0,0.3c0.2-1.9,0.3-3.7,0.3-5.6
				c0-31.3-21.6-57.6-50.7-64.8v-95.6l162.8-125v-7.9v-90.7c12.8-4.2,23.4-13.1,29.7-24.8c-0.1,0.1-0.1,0.2-0.2,0.4
				C741.4,379,761.9,434.5,761.9,494.7z M711.1,293.4c-2.7-8.4-7.5-15.8-13.7-21.7l48.8-54.5c6.1,5.5,12.2,11.4,18.2,17.6
				L711.1,293.4z M808,195.8c-12-11.1-24.7-21-37.8-30.7c-6.1,6.8-9.2,10.1-15.4,16.9c12.6,9,24.7,18.8,36.1,29.3
				c-3.4,3.1-5.1,4.7-8.5,7.8c-13.9-12.9-28.9-24.7-44.8-35.2c17.4-20.1,34.8-40.2,52.2-60.3c18.4,12.8,35.6,26.3,52.4,41.2
				c-3.4,3.1-5.1,4.7-8.5,7.8c-13.1-11.6-26.4-22.4-40.4-32.8c-6.1,6.8-9.2,10.1-15.4,16.9c13.4,10,26.1,20.3,38.7,31.4
				C813.1,191.1,811.4,192.7,808,195.8z M820.1,260c18.9-13.5,37.8-27,56.8-40.5c-6.2-8-9.5-11.9-16.3-19.5c3.6-2.9,5.5-4.3,9.1-7.2
				c14.1,16.6,26.9,33.5,39,51.6c-4,2.4-6,3.7-9.9,6.1c-5.4-8.5-8.3-12.7-14.2-20.9c-19.2,13.1-38.5,26.2-57.7,39.2
				C824.1,265.2,822.8,263.5,820.1,260z M863.7,333.2c6.5-14.4,12.3-29.1,17.3-44.1c-12.2,6.8-18.4,10.1-30.6,16.9
				c-2.1-3.9-3.2-5.8-5.4-9.6c23.5-13.7,47-27.4,70.5-41.1c8.5,15.1,16.1,30.2,23.3,46c1.4,3.2,1.5,6.5,0.3,9.8
				c-1.2,3.3-3.2,5.6-6.1,6.8c-8.5,3.7-12.8,5.6-21.3,9.3c-3,1.3-6,1.3-9,0c-2.8-1.2-4.9-3.4-6.2-6.4c-5.3-12.4-8.7-18.8-8.7-18.8
				c-5.5,14.9-11.8,29.5-18.8,43.8C866.9,340.8,865.9,338.3,863.7,333.2z M884.8,399.4c-2.8-13.2-4.5-19.7-8.5-32.4
				c-0.9-3-0.8-6,0.5-8.8c1.3-2.8,3.7-4.9,6.7-6.1c21.5-8.8,43-17.6,64.5-26.4c1.7,4.9,2.5,7.4,4.1,12.3
				c-19.9,7.6-39.7,15.2-59.6,22.8c-1.6,0.6-2.7,1.6-3.4,3c-0.7,1.4-0.8,2.9-0.3,4.5c2.6,8.8,3.8,13.2,5.8,22.2
				c0.3,1.5,1.2,2.6,2.4,3.4c1.3,0.8,2.7,1,4.3,0.6c20.2-6.2,40.5-12.3,60.7-18.5c1.1,5.2,1.6,7.7,2.5,13
				c-22.2,6.2-44.4,12.4-66.5,18.5c-3.1,0.9-6,0.5-8.6-1.1C887,404.7,885.4,402.3,884.8,399.4z M899.9,418.8
				c2.3,16.1,3.1,24.3,3.7,41c0.1,1.6,0.7,2.9,1.7,3.8c1.1,1,2.4,1.5,4.1,1.3c4.5-0.7,6.7-1,11.2-1.7c1.5-0.2,2.8-1.2,3.8-2.5
				c1-1.3,1.7-2.9,1.6-4.6c-0.4-12.4-0.9-18.6-2.3-30.8c-0.4-3.4,0.3-6.7,2-9.5c1.8-2.8,4.4-4.7,7.5-5.4c8.9-2.3,13.4-3.4,22.3-5.6
				c3-0.8,5.9-0.2,8.3,1.7c2.5,2,4.1,5,4.5,8.7c2,17.9,2.9,36,2.7,54.1c-4.5,0.6-6.7,0.9-11.2,1.4c0.2-15.5-0.4-31-1.9-46.4
				c-0.2-1.9-1-3.3-2.2-4.3c-1.2-0.9-2.5-1.3-4-0.9c-4.5,1-6.7,1.5-11.2,2.5c-1.6,0.4-2.9,1.3-3.8,2.7c-0.9,1.4-1.3,3-1.1,4.8
				c1.2,12.5,1.6,18.8,1.8,31.6c0.1,3.5-1,6.6-3.3,9.5c-2.2,2.8-4.9,4.4-7.9,4.8c-9,1.1-13.5,1.7-22.5,2.8c-3.2,0.4-5.9-0.4-8-2.5
				c-2.1-2-3.2-4.6-3.2-7.8c-0.3-15.3-1.5-30.6-3.7-45.8C893.2,420.5,895.4,419.9,899.9,418.8z M924.1,605.8
				c-11.3,0-20.5-9.2-20.5-20.5c0-11.3,9.2-20.5,20.5-20.5c11.3,0,20.5,9.2,20.5,20.5C944.5,596.7,935.4,605.8,924.1,605.8z
				 M962.2,553.1c-4.4-0.1-6.6-0.2-11-0.3c2.2-11.1,3.1-16.7,4.6-27.7c-22.3,0.5-44.6,1-66.8,1.5c0.7-4.8,0.9-7.2,1.4-12
				c22.4-1.1,44.7-2.2,67.1-3.3c1.2-11,1.6-16.4,2-27.2c4.5-0.5,6.7-0.7,11.2-1.1C969.2,506.7,966.4,529.7,962.2,553.1z"/>
			<linearGradient id="SVGID_4_" gradientUnits="userSpaceOnUse" x1="540.6252" y1="15.2272" x2="552.8164" y2="983.2075">
				<stop  offset="0" style="stop-color:#00B0C4"/>
				<stop  offset="1" style="stop-color:#17477E"/>
			</linearGradient>
			<path class="st5" d="M529.5,946.6c1.8,1,4,1.3,6.6,1.1c14.4-1.2,21.6-2,35.9-4.3c2.4-0.4,4.4-1.3,5.9-2.6
				c1.6-1.4,2.4-2.9,2.1-4.5c-3.3-17.9-4.9-26.8-8.2-44.7c-0.3-1.5-1.5-2.6-3.2-3.4c-1.6-0.8-3.6-1.2-5.7-0.8
				c-12.5,2-18.8,2.8-31.4,3.8c-2.3,0.2-4.1,1-5.5,2.2c-1.4,1.2-2.1,2.5-2,4c1.1,18.1,1.6,27.2,2.7,45.4
				C526.8,944.4,527.7,945.7,529.5,946.6z"/>
		</g>
	</g>
</g>
</svg>
