<?xml version="1.0" encoding="UTF-8" standalone="no"?>
<!-- Created with Inkscape (http://www.inkscape.org/) -->

<svg
   height="120"
   width="120"
   version="1.1"
   id="svg4247"
   inkscape:version="1.2.2 (b0a8486541, 2022-12-01)"
   sodipodi:docname="l_btc.svg"
   xml:space="preserve"
   inkscape:export-filename="l_btc.png"
   inkscape:export-xdpi="96"
   inkscape:export-ydpi="96"
   xmlns:inkscape="http://www.inkscape.org/namespaces/inkscape"
   xmlns:sodipodi="http://sodipodi.sourceforge.net/DTD/sodipodi-0.dtd"
   xmlns:xlink="http://www.w3.org/1999/xlink"
   xmlns="http://www.w3.org/2000/svg"
   xmlns:svg="http://www.w3.org/2000/svg"
   xmlns:rdf="http://www.w3.org/1999/02/22-rdf-syntax-ns#"
   xmlns:cc="http://creativecommons.org/ns#"
   xmlns:dc="http://purl.org/dc/elements/1.1/"><metadata
     id="metadata4259"><rdf:RDF><cc:Work
         rdf:about=""><dc:format>image/svg+xml</dc:format><dc:type
           rdf:resource="http://purl.org/dc/dcmitype/StillImage" /></cc:Work></rdf:RDF></metadata><defs
     id="defs4257"><linearGradient
       inkscape:collect="always"
       id="linearGradient4761"><stop
         style="stop-color:#1a1a1a;stop-opacity:1;"
         offset="0"
         id="stop4763" /><stop
         style="stop-color:#1a1a1a;stop-opacity:0;"
         offset="1"
         id="stop4765" /></linearGradient><linearGradient
       inkscape:collect="always"
       xlink:href="#linearGradient4761"
       id="linearGradient4769"
       x1="-409.44958"
       y1="-20.942795"
       x2="-57.60104"
       y2="133.44374"
       gradientUnits="userSpaceOnUse"
       gradientTransform="matrix(-1.0090909,0,0,-1.0090909,-74.103737,135.33971)" /></defs><sodipodi:namedview
     pagecolor="#ffffff"
     bordercolor="#666666"
     borderopacity="1"
     objecttolerance="10"
     gridtolerance="10"
     guidetolerance="10"
     inkscape:pageopacity="0"
     inkscape:pageshadow="2"
     inkscape:window-width="1536"
     inkscape:window-height="891"
     id="namedview4255"
     showgrid="false"
     inkscape:zoom="3.2460938"
     inkscape:cx="24.182912"
     inkscape:cy="103.97112"
     inkscape:window-x="0"
     inkscape:window-y="0"
     inkscape:window-maximized="1"
     inkscape:current-layer="svg4247"
     inkscape:showpageshadow="2"
     inkscape:pagecheckerboard="0"
     inkscape:deskcolor="#d1d1d1"
     showguides="true" /><g
     id="g9429"
     transform="matrix(0.25918945,0,0,0.25918945,-82.865228,-70.683323)"><circle
       class="cls-1"
       cx="551.20001"
       cy="504.20001"
       r="212.2"
       id="circle9423"
       style="fill:#0d1437;stroke-width:0px" /><path
       class="cls-2"
       d="m 536.4,467.8 c 10.1,-60.4 74.6,-52.4 82.3,-51.2 8,2.4 15.8,-5.5 11.3,-13.2 -17.8,-30.4 -53.2,-50.2 -80.1,-51.6 6.7,-5.3 29.1,-8.2 52.9,-7.2 8.4,0.3 11.9,-10.7 4.8,-15.2 -0.6,-0.4 -1.2,-0.8 -2.1,-1.1 -32.5,-10 -67.4,-10.9 -100.6,-2.2 -24.6,6.4 -48.4,18 -69.5,35.1 -8.8,7.2 -16.9,15 -24,23.3 -52.9,61.5 -59.4,151.9 -14.3,220.6 0.9,1.4 1.8,2.7 2.7,4.1 0.8,1 1.1,1.5 1.4,1.9 2.1,3.1 4.4,6.1 6.8,9.1 2.6,3.2 5.4,6.3 8.2,9.3 0.7,0.8 1.4,1.5 2.2,2.3 2.6,2.7 5.3,5.4 8.1,7.9 0.2,0.2 0.5,0.4 0.7,0.7 3,2.7 6.1,5.3 9.2,7.8 0.7,0.6 1.5,1.2 2.3,1.8 2.9,2.2 5.8,4.3 8.7,6.4 0.4,0.2 0.7,0.5 1.1,0.8 3.3,2.2 6.7,4.4 10.2,6.4 0.7,0.4 1.4,0.8 2,1.2 3.2,1.8 6.4,3.5 9.6,5.1 0.4,0.2 0.7,0.4 1.1,0.5 3.7,1.8 7.4,3.4 11.2,4.9 0.5,0.2 1,0.4 1.5,0.6 3.6,1.4 7.2,2.7 10.8,3.8 0.3,0 0.6,0.2 0.8,0.3 4,1.3 8,2.4 12.1,3.4 0.2,0 0.4,0 0.5,0.1 4,1 8,1.8 12.1,2.5 0.2,0 0.3,0 0.5,0 8.5,1.4 17,2.2 25.6,2.5 0,0 0.1,0 0.2,0 42.3,1.1 85.1,-12.2 120.6,-40.9 21.7,-17.6 38.4,-39 49.8,-62.6 0.6,-1.3 1.3,-2.7 1.9,-4 3.3,-7.3 6.2,-14.9 8.5,-22.5 -111,41.8 -203.6,-15.1 -191,-90.5 z"
       id="path9425"
       style="fill:#14909c;stroke-width:0px" /><path
       class="cls-3"
       d="m 471.4,486.3 c 21.6,-29.1 31.6,-24 33.7,-33 2.8,-12.3 -42.1,-23 -77.1,3.9 48.6,-60.8 124.3,-74.8 188.8,-41.4 8.6,4.5 18.2,-4.1 13.3,-12.4 -17.8,-30.4 -53.2,-50.2 -80.1,-51.6 6.7,-5.3 29.1,-8.2 52.9,-7.2 8.4,0.3 11.9,-10.7 4.8,-15.2 -0.6,-0.4 -1.2,-0.8 -2.1,-1.1 -32.5,-10 -67.4,-10.9 -100.6,-2.2 -24.6,6.4 -48.4,18 -69.5,35.1 -8.8,7.2 -16.9,15 -24,23.3 -52.9,61.5 -59.4,151.9 -14.3,220.6 0.9,1.4 1.8,2.7 2.7,4.1 0.8,1 1.1,1.5 1.4,1.9 2.1,3.1 4.4,6.1 6.8,9.1 47.1,58.2 122.3,80.1 190.2,62.2 C 424.7,656.7 451.2,513.6 471.4,486.4 Z"
       id="path9427"
       style="fill:#22e1c9;stroke-width:0px" /></g><path
     style="fill:url(#linearGradient4769);fill-opacity:1;stroke:none;stroke-opacity:1"
     inkscape:connector-curvature="0"
     id="path4251-6"
     d="M 6.6612254,48.073886 C 14.074737,18.341792 44.19189,0.24725348 73.930899,7.6616275 103.65782,15.074269 121.75447,45.189649 114.33749,74.920005 106.92746,104.65554 76.810279,122.75183 47.079931,115.33918 17.342646,107.92654 -0.7522758,77.807711 6.6612254,48.073886 Z" /><g
     id="g309"
     style="fill:#1ca5b0;fill-opacity:1"
     transform="matrix(0.8371605,0.03496203,-0.03496203,0.8371605,-105.80574,24.839794)"><path
       style="fill:#1ca5b0;fill-opacity:1"
       d="m 199.29202,76.573017 c -14.33758,-3.009245 -22.85681,-13.488751 -22.7694,-28.008635 0.0681,-11.305324 3.07158,-16.748939 17.10425,-31 L 204.95065,6.0643819 215.97414,17.254851 c 13.42736,13.630744 17.35269,20.690883 17.39006,31.277887 0.0303,8.598972 -1.75509,13.410829 -7.09385,19.118396 -6.98878,7.471574 -17.43258,10.925396 -26.97833,8.921883 z"
       id="path313"
       sodipodi:nodetypes="scscscss" /></g><path
     d="m 78.465635,66.70636 c 0.641203,-4.285589 -2.622185,-6.58942 -7.084428,-8.126314 l 1.447486,-5.805373 -3.534161,-0.880669 -1.409236,5.652388 c -0.929089,-0.231491 -1.883342,-0.449896 -2.831556,-0.66629 l 1.419301,-5.689628 -3.532148,-0.880669 -1.448493,5.80336 c -0.76904,-0.175128 -1.523988,-0.348242 -2.25679,-0.530414 l 0.004,-0.01812 -4.873942,-1.216833 -0.940161,3.774298 c 0,0 2.622185,0.600868 2.566822,0.638107 1.431381,0.357301 1.690076,1.304398 1.646792,2.055231 l -1.648805,6.613576 c 0.09865,0.02516 0.226484,0.0614 0.367408,0.117759 -0.117773,-0.02919 -0.243597,-0.0614 -0.373448,-0.0926 l -2.311146,9.264642 c -0.175148,0.4348 -0.619057,1.086998 -1.619614,0.839404 0.03523,0.05133 -2.568836,-0.641127 -2.568836,-0.641127 l -1.754498,4.045041 4.599141,1.146379 c 0.855607,0.214381 1.694103,0.438826 2.519512,0.650187 l -1.462585,5.871802 3.530134,0.880668 1.448493,-5.809401 c 0.96432,0.261684 1.900455,0.503242 2.816458,0.730704 l -1.443459,5.782224 3.534161,0.880669 1.462585,-5.860729 c 6.026495,1.140345 10.558194,0.680384 12.465695,-4.769704 1.537073,-4.38825 -0.0765,-6.919546 -3.247281,-8.570172 2.309133,-0.532428 4.048532,-2.051205 4.512573,-5.188402 z m -8.074919,11.321887 c -1.092158,4.388251 -8.481585,2.015979 -10.877285,1.421149 l 1.940718,-7.779079 c 2.395701,0.597849 10.078047,1.781468 8.936567,6.35793 z M 71.48388,66.642952 c -0.996531,3.991698 -7.146838,1.963642 -9.141912,1.466441 l 1.759531,-7.055421 c 1.995074,0.497201 8.420182,1.425175 7.382381,5.58898 z"
     id="path4253"
     inkscape:connector-curvature="0"
     style="fill:#ffffff;stroke:none;stroke-width:1.00654;stroke-opacity:1" /><path
     style="fill:#000000"
     id="path307"
     d="" /></svg>
