<?xml version="1.0" encoding="UTF-8" standalone="no"?>
<!-- Created with Inkscape (http://www.inkscape.org/) -->

<svg
   xmlns:dc="http://purl.org/dc/elements/1.1/"
   xmlns:cc="http://creativecommons.org/ns#"
   xmlns:rdf="http://www.w3.org/1999/02/22-rdf-syntax-ns#"
   xmlns:svg="http://www.w3.org/2000/svg"
   xmlns="http://www.w3.org/2000/svg"
   xmlns:xlink="http://www.w3.org/1999/xlink"
   xmlns:sodipodi="http://sodipodi.sourceforge.net/DTD/sodipodi-0.dtd"
   xmlns:inkscape="http://www.inkscape.org/namespaces/inkscape"
   height="120"
   width="120"
   version="1.1"
   id="svg4247"
   inkscape:version="0.92.3 (2405546, 2018-03-11)"
   sodipodi:docname="lbtc.svg"
   inkscape:export-filename="/home/pvyhnal/git/batm_main/batm_public/server_extensions_extra/src/main/resources/lbtc.png"
   inkscape:export-xdpi="96"
   inkscape:export-ydpi="96">
  <metadata
     id="metadata4259">
    <rdf:RDF>
      <cc:Work
         rdf:about="">
        <dc:format>image/svg+xml</dc:format>
        <dc:type
           rdf:resource="http://purl.org/dc/dcmitype/StillImage" />
        <dc:title />
      </cc:Work>
    </rdf:RDF>
  </metadata>
  <defs
     id="defs4257">
    <linearGradient
       inkscape:collect="always"
       id="linearGradient4761">
      <stop
         style="stop-color:#1a1a1a;stop-opacity:1;"
         offset="0"
         id="stop4763" />
      <stop
         style="stop-color:#1a1a1a;stop-opacity:0;"
         offset="1"
         id="stop4765" />
    </linearGradient>
    <linearGradient
       inkscape:collect="always"
       xlink:href="#linearGradient4761"
       id="linearGradient4769"
       x1="-409.44958"
       y1="-20.942795"
       x2="-57.60104"
       y2="133.44374"
       gradientUnits="userSpaceOnUse"
       gradientTransform="matrix(-1.0090909,0,0,-1.0090909,-74.103737,135.33971)" />
  </defs>
  <sodipodi:namedview
     pagecolor="#ffffff"
     bordercolor="#666666"
     borderopacity="1"
     objecttolerance="10"
     gridtolerance="10"
     guidetolerance="10"
     inkscape:pageopacity="0"
     inkscape:pageshadow="2"
     inkscape:window-width="1052"
     inkscape:window-height="693"
     id="namedview4255"
     showgrid="false"
     inkscape:zoom="1.1476675"
     inkscape:cx="-126.01521"
     inkscape:cy="26.955559"
     inkscape:window-x="698"
     inkscape:window-y="347"
     inkscape:window-maximized="0"
     inkscape:current-layer="svg4247" />
  <path
     style="fill:url(#linearGradient4769);fill-opacity:1;stroke:none;stroke-opacity:1"
     inkscape:connector-curvature="0"
     id="path4251-6"
     d="M 6.6612254,48.073886 C 14.074737,18.341792 44.19189,0.24725348 73.930899,7.6616275 103.65782,15.074269 121.75447,45.189649 114.33749,74.920005 106.92746,104.65554 76.810279,122.75183 47.079931,115.33918 17.342646,107.92654 -0.7522758,77.807711 6.6612254,48.073886 Z" />
  <g
     transform="matrix(1.7189331,0,0,1.7187326,5.0042295,4.9958649)"
     id="g4249"
     style="stroke:none;stroke-opacity:1">
    <path
       d="M 63.033,39.744 C 58.759,56.887 41.396,67.32 24.251,63.045 7.113,58.771 -3.32,41.407 0.956,24.265 5.228,7.12 22.591,-3.314 39.731,0.96 56.875,5.234 67.307,22.6 63.033,39.744 Z"
       id="path4251"
       inkscape:connector-curvature="0"
       style="fill:#f7931a;stroke:none;stroke-opacity:1" />
  </g>
  <path
     style="fill:#ffffff;stroke-width:0.26904398;fill-opacity:1"
     d="m 46.7883,99.557439 c 0.21834,-0.407965 9.750265,-25.517174 11.898483,-31.34321 l 0.76882,-2.085091 h -9.120089 -9.120076 l -0.827777,-0.696525 c -0.691009,-0.581446 -0.827776,-0.890128 -0.827776,-1.868267 0,-1.081743 0.223472,-1.457023 2.909544,-4.886135 6.038749,-7.709233 30.083648,-37.937993 30.775324,-38.690117 0.136078,-0.147975 -0.11054,0.699514 -0.547981,1.883307 -0.65258,1.765861 -11.407559,30.099825 -12.025032,31.679929 -0.173004,0.44269 0.360396,0.471185 8.92502,0.476812 8.224325,0.0054 9.164759,0.05113 9.682889,0.470826 1.204732,0.975868 1.49349,2.431435 0.762716,3.844595 -0.226705,0.438417 -2.621982,3.549951 -5.32284,6.914524 -23.548299,29.335243 -27.933067,34.770593 -28.049817,34.770593 -0.07346,0 -0.02013,-0.212053 0.118592,-0.471241 z"
     id="path27"
     inkscape:connector-curvature="0" />
</svg>
