<svg xmlns="http://www.w3.org/2000/svg" width="235" height="258" viewBox="0 0 235 258">
  <g fill="#001A3E" transform="translate(59 60)">
    <path d="M45.1,136.1 L62.9,116.1 C63.2,115.8 63,115.3 62.5,115.3 L42.9,115.3 C42.8,115.3 42.6,115.2 42.5,115.1 L25.9,96.5 C25.8,96.3 25.7,96.1 25.8,95.9 L53.6,48.2 C53.7,48 53.7,47.8 53.6,47.7 L42.1,27.9 C41.9,27.6 41.4,27.6 41.2,27.9 L0.1,98.5 C-1.41553436e-15,98.7 -1.41553436e-15,98.9 0.1,99.1 L33.1,136.2 C33.2,136.3 33.3,136.4 33.5,136.4 L44.7,136.4 C44.8,136.3 45,136.2 45.1,136.1 Z"/>
    <path d="M57.3,0.3 L45.7,20.1 C45.6,20.3 45.6,20.5 45.7,20.6 L57.7,41.2 L89.5,95.8 C89.6,96 89.6,96.2 89.4,96.4 L72.6,115.2 L54.7,135.4 C54.4,135.7 54.6,136.2 55.1,136.2 L81.9,136.2 C82,136.2 82.2,136.1 82.3,136 L115.3,98.9 C115.4,98.7 115.5,98.5 115.4,98.3 L58.1,0.3 C58,-0.1 57.5,-0.1 57.3,0.3 Z"/>
  </g>
</svg>
