<?xml version="1.0" encoding="UTF-8" standalone="no"?>
<svg
   xmlns:dc="http://purl.org/dc/elements/1.1/"
   xmlns:cc="http://creativecommons.org/ns#"
   xmlns:rdf="http://www.w3.org/1999/02/22-rdf-syntax-ns#"
   xmlns:svg="http://www.w3.org/2000/svg"
   xmlns="http://www.w3.org/2000/svg"
   xmlns:xlink="http://www.w3.org/1999/xlink"
   xmlns:sodipodi="http://sodipodi.sourceforge.net/DTD/sodipodi-0.dtd"
   xmlns:inkscape="http://www.inkscape.org/namespaces/inkscape"
   id="Capa_1"
   width="120"
   height="120"
   version="1.1"
   inkscape:version="0.91 r13725"
   sodipodi:docname="movex.svg">
  <metadata
     id="metadata5534">
    <rdf:RDF>
      <cc:Work
         rdf:about="">
        <dc:format>image/svg+xml</dc:format>
        <dc:type
           rdf:resource="http://purl.org/dc/dcmitype/StillImage" />
        <dc:title />
      </cc:Work>
    </rdf:RDF>
  </metadata>
  <defs
     id="defs5532">
    <linearGradient
       inkscape:collect="always"
       xlink:href="#linearGradient4761"
       id="linearGradient4769"
       x1="-409.44958"
       y1="-20.942795"
       x2="-57.60104"
       y2="133.44374"
       gradientUnits="userSpaceOnUse"
       gradientTransform="matrix(-0.14938582,0,0,-0.14938581,161.49689,146.17377)" />
    <linearGradient
       inkscape:collect="always"
       id="linearGradient4761">
      <stop
         style="stop-color:#1a1a1a;stop-opacity:1;"
         offset="0"
         id="stop4763" />
      <stop
         style="stop-color:#1a1a1a;stop-opacity:0;"
         offset="1"
         id="stop4765" />
    </linearGradient>
    <linearGradient
       gradientTransform="matrix(0.00771193,0,0,0.00684688,1.1324947,2.6130109)"
       y2="1415.8132"
       x2="1006.0488"
       y1="-505.293"
       x1="1006.0488"
       gradientUnits="userSpaceOnUse"
       id="SVGID_1_-2">
      <stop
         id="stop6370"
         style="stop-color:#1F3E05"
         offset="0" />
      <stop
         id="stop6372"
         style="stop-color:#34BD0D"
         offset="1" />
    </linearGradient>
  </defs>
  <sodipodi:namedview
     pagecolor="#ffffff"
     bordercolor="#666666"
     borderopacity="1"
     objecttolerance="10"
     gridtolerance="10"
     guidetolerance="10"
     inkscape:pageopacity="0"
     inkscape:pageshadow="2"
     inkscape:window-width="1920"
     inkscape:window-height="1023"
     id="namedview5530"
     showgrid="false"
     inkscape:zoom="8"
     inkscape:cx="71.559143"
     inkscape:cy="51.497724"
     inkscape:window-x="0"
     inkscape:window-y="27"
     inkscape:window-maximized="1"
     inkscape:current-layer="Capa_1" />
  <style
     id="style5484">.st0{fill:url(#SVGID_1_)}.st1{fill:url(#SVGID_2_)}.st2{fill:url(#SVGID_3_)}.st3{fill:#20201e}.st4{fill:url(#SVGID_4_)}.st5{fill:#353534}.st6{fill:#282828}.st7{fill:url(#SVGID_5_);stroke:url(#SVGID_6_);stroke-width:8;stroke-miterlimit:10}</style>
  <linearGradient
     id="SVGID_1_"
     gradientUnits="userSpaceOnUse"
     x1="1981.964"
     y1="2444.4961"
     x2="2163.2971"
     y2="2444.4961"
     gradientTransform="matrix(-0.29639156,0.95506651,-0.95506651,-0.29639156,3154.5722,-1144.0497)">
    <stop
       offset=".039"
       stop-color="#2cf4e1"
       id="stop5487" />
    <stop
       offset="1"
       stop-color="#2cb2e1"
       id="stop5489" />
  </linearGradient>
  <linearGradient
     id="SVGID_2_"
     gradientUnits="userSpaceOnUse"
     x1="244.60201"
     y1="113.132"
     x2="324.336"
     y2="222.118">
    <stop
       offset=".039"
       stop-color="#2cf4e1"
       id="stop5494" />
    <stop
       offset="1"
       stop-color="#2cb2e1"
       id="stop5496" />
  </linearGradient>
  <linearGradient
     id="SVGID_3_"
     gradientUnits="userSpaceOnUse"
     x1="111.456"
     y1="126.742"
     x2="224.12199"
     y2="280.742">
    <stop
       offset="0"
       stop-color="#2ce5e1"
       id="stop5501" />
    <stop
       offset="1"
       stop-color="#2cb2e1"
       id="stop5503" />
  </linearGradient>
  <linearGradient
     id="SVGID_4_"
     gradientUnits="userSpaceOnUse"
     x1="186.474"
     y1="233.72701"
     x2="186.474"
     y2="36.5">
    <stop
       offset="0"
       id="stop5508" />
    <stop
       offset="1"
       stop-color="#0d0d0d"
       id="stop5510" />
  </linearGradient>
  <linearGradient
     id="SVGID_5_"
     gradientUnits="userSpaceOnUse"
     x1="186.05701"
     y1="248.79601"
     x2="186.05701"
     y2="-16.973">
    <stop
       offset=".039"
       stop-color="#2cf4e1"
       id="stop5519" />
    <stop
       offset="1"
       stop-color="#2cb2e1"
       id="stop5521" />
  </linearGradient>
  <linearGradient
     id="SVGID_6_"
     gradientUnits="userSpaceOnUse"
     x1="24.841"
     y1="168.862"
     x2="347.27301"
     y2="168.862">
    <stop
       offset=".039"
       stop-color="#2cf4e1"
       id="stop5524" />
    <stop
       offset="1"
       stop-color="#2cb2e1"
       id="stop5526" />
  </linearGradient>
  <g
     id="g6486"
     transform="matrix(6.6645457,0,0,6.6285816,-1148.8634,-835.92808)">
    <path
       d="m 173.45333,133.25494 c 1.0975,-4.40154 5.55604,-7.08026 9.95861,-5.98264 4.40077,1.09737 7.0798,5.55565 5.98179,9.95693 -1.09698,4.40205 -5.55553,7.08103 -9.95681,5.98366 -4.40231,-1.09737 -7.08108,-5.55616 -5.98359,-9.95795 z"
       id="path4251-6"
       inkscape:connector-curvature="0"
       style="fill:url(#linearGradient4769);fill-opacity:1;stroke:none;stroke-opacity:1" />
    <path
       d="m 189.24809,136.99018 c -1.0876,4.36188 -5.50598,7.01646 -9.86889,5.92873 -4.36112,-1.08748 -7.01601,-5.5056 -5.92789,-9.86723 1.08709,-4.36239 5.50547,-7.01723 9.8671,-5.92975 4.36265,1.08748 7.01729,5.50611 5.92968,9.86825 z"
       id="path4251"
       inkscape:connector-curvature="0"
       style="fill:#ffffff;fill-opacity:1;stroke:none;stroke-opacity:1" />
    <path
       id="path4985"
       d="m 180.87377,137.19555 0.52885,-1.99138 1.2521,-0.45744 0.31144,-1.17033 -0.0106,-0.029 -1.2325,0.45027 0.88802,-3.34377 -2.51847,0 -1.16134,4.3637 -0.96963,0.35421 -0.32039,1.20654 0.96889,-0.35393 -0.68446,2.57173 6.70267,0 0.42969,-1.60057 -4.18424,0"
       inkscape:connector-curvature="0"
       style="fill:#ffffff" />
    <path
       id="path5145"
       d="m 183.99938,132.2389 c -0.39489,-1.00353 -1.38519,-1.09411 -2.53833,-0.8702 l -0.41067,-1.4315 -0.87122,0.24986 0.39999,1.39436 c -0.229,0.0651 -0.46207,0.1374 -0.69361,0.20864 l -0.40203,-1.40351 -0.8707,0.24935 0.40965,1.4315 c -0.18727,0.058 -0.37149,0.11501 -0.55214,0.16692 l -0.002,-0.005 -1.20199,0.34451 0.26716,0.93127 c 0,0 0.64018,-0.19745 0.63255,-0.18218 0.35317,-0.10127 0.5267,0.0707 0.61067,0.23816 l 0.46817,1.63047 c 0.0239,-0.007 0.056,-0.0148 0.0936,-0.0203 l -0.0921,0.0265 0.65494,2.2849 c 0.0163,0.11552 0.002,0.31144 -0.24427,0.38269 0.0137,0.007 -0.63407,0.18116 -0.63407,0.18116 l 0.12569,1.09055 1.1338,-0.32569 c 0.21119,-0.0595 0.41984,-0.11552 0.6239,-0.17302 l 0.41576,1.44778 0.8702,-0.24935 -0.41067,-1.43252 a 33.454265,33.454263 0 0 0 0.69819,-0.19338 l 0.40813,1.42641 0.87172,-0.24986 -0.41423,-1.44524 c 1.44066,-0.50431 2.36022,-1.16739 2.09306,-2.58006 -0.21475,-1.13685 -0.87733,-1.48188 -1.76635,-1.4432 0.43153,-0.40203 0.61728,-0.94552 0.3267,-1.67933 z m -0.33077,3.44517 c 0.31042,1.0824 -1.57756,1.49053 -2.16787,1.6605 l -0.5501,-1.91851 c 0.59031,-0.16946 2.3938,-0.8702 2.71746,0.25852 z m -1.18164,-2.59024 c 0.28192,0.9847 -1.29614,1.31293 -1.78823,1.45389 l -0.49871,-1.73989 c 0.49158,-0.14096 1.99229,-0.74043 2.28694,0.28651 z"
       inkscape:connector-curvature="0"
       style="fill:#ffffff;fill-rule:nonzero" />
    <path
       id="path6359"
       d="m 189.49181,135.02043 c 0,4.49684 -3.64534,8.14225 -8.14216,8.14225 -4.49686,0 -8.14224,-3.64541 -8.14224,-8.14225 0,-4.49678 3.64538,-8.14215 8.14224,-8.14215 4.49677,0 8.14216,3.64537 8.14216,8.14215"
       inkscape:connector-curvature="0"
       style="opacity:0.5;fill:#ffffff;fill-opacity:1;stroke:#000000;stroke-width:0.07402;stroke-miterlimit:4;stroke-dasharray:none;stroke-opacity:1" />
  </g>
  <path
     style="fill:#de3b2f;stroke:none"
     id="path6836"
     d="m 23.474637,55.565205 c 0.350194,-0.04669 0.863813,-0.04669 1.167315,0 0.280156,0.04669 0,0.09338 -0.653697,0.09338 -0.63035,0 -0.887159,-0.04669 -0.513618,-0.09338 z"
     inkscape:connector-curvature="0" />
  <g
     id="g4179"
     transform="translate(0,8)">
    <path
       sodipodi:nodetypes="cccccccccccccccccccscccccccccccccccccc"
       inkscape:connector-curvature="0"
       id="path6727"
       d="m 53.642578,40.970703 1.003906,2.40625 c 0.560311,1.307393 2.358038,5.671937 4.015625,9.6875 l 3.011719,7.308594 2.19336,-0.07031 2.21875,-0.07031 2.917968,-7.074219 2.941406,-7.074219 0.07031,7.121094 0.04687,7.144531 7.564453,0 7.361328,-0.183594 C 84.730984,57.227665 86.4432,59.391477 84.388664,56.613286 l -4.177734,0 -4.179688,0 0,-2.333984 0,-2.333985 2.800781,0 2.802735,0 0,-0.912109 c 0,-0.490272 0.07058,-1.235925 0.140625,-1.632812 l 0.162109,-0.72461 -2.964844,0 -2.941406,0 0,-2.101562 0,-2.101563 4.0625,0 4.0625,0 c 2.926049,-3.173022 0.807708,-0.874541 3.072266,-3.412109 l -8.628907,-0.01954 -8.732421,0.04687 -2.964844,7.40039 -2.941406,7.402344 -0.652344,-1.681641 C 62.9584,53.275132 61.60436,49.936816 60.320312,46.761719 l -2.359374,-5.791016 -2.146485,0 z"
       style="fill:#221e1f;stroke:none" />
    <path
       inkscape:connector-curvature="0"
       d="m 14.397197,50.426884 0,-9.688715 2.287937,0 2.264591,0 2.708171,5.019454 2.708171,5.019455 2.661478,-4.972762 2.684825,-4.949416 2.147859,-0.07004 2.14786,-0.07004 0,9.712061 0,9.688714 -1.984435,0 -2.007782,0 0.07004,-6.747081 c 0.04669,-3.712061 0.07004,-6.74708 0.04669,-6.723734 -0.02335,0.02335 -1.050583,1.984435 -2.311283,4.365758 -1.260701,2.381323 -2.404669,4.389104 -2.544747,4.505836 -0.140078,0.09339 -0.723735,0.140078 -1.307393,0.116731 -1.167315,-0.07004 -0.933852,0.25681 -4.389104,-6.256808 l -1.424125,-2.684824 -0.02335,6.723734 0,6.700388 -1.867704,0 -1.867704,0 0,-9.688714 z"
       id="path6729"
       style="fill:#221e1f;stroke:none" />
    <path
       inkscape:connector-curvature="0"
       d="m 42.179294,59.742057 c -2.5214,-0.677042 -5.182879,-2.801556 -6.350194,-5.089493 -3.058365,-5.976653 0.607004,-12.980543 7.354085,-14.147858 4.155641,-0.723735 8.731516,1.634241 10.529181,5.463034 2.684825,5.649805 -0.607004,12.11673 -6.980544,13.797664 -1.680933,0.420233 -2.871594,0.420233 -4.552528,-0.02335 z m 5.392995,-3.852139 c 1.237354,-0.63035 2.731517,-2.404669 3.128404,-3.782101 0.44358,-1.517509 0.44358,-2.381323 -0.04669,-3.922178 -0.513619,-1.610895 -2.5214,-3.712062 -3.945525,-4.132295 -2.357976,-0.677043 -4.85603,-0.02335 -6.37354,1.704279 -1.097276,1.260701 -1.494163,2.33463 -1.517509,4.085603 -0.02335,2.498054 1.097276,4.622567 3.081711,5.766536 1.821012,1.07393 3.922179,1.167315 5.673151,0.280156 z"
       id="path6731"
       style="fill:#221e1f;stroke:none" />
    <path
       inkscape:connector-curvature="0"
       d="m 96.081265,47.557424 -1.330739,-1.634241 1.914397,-2.568093 1.89105,-2.568093 2.661477,0 c 1.44747,0 2.63813,0.07004 2.63813,0.18677 0,0.210117 -6.046689,8.07782 -6.280152,8.171205 -0.07004,0.02335 -0.747081,-0.677042 -1.494163,-1.587548 z"
       id="path6840"
       style="fill:#de3b2f;stroke:none" />
    <path
       inkscape:connector-curvature="0"
       d="m 96.805,57.736411 c -1.00389,-1.307393 -1.821011,-2.474708 -1.821011,-2.568093 0,-0.280156 2.614786,-3.198443 2.801556,-3.128404 0.210117,0.07004 6.303505,7.844356 6.303505,8.007781 0,0.07004 -1.23736,0.116731 -2.73152,0.116731 L 98.602665,60.14108 96.805,57.736411 Z"
       id="path6830"
       style="fill:#de3b2f;stroke:none" />
    <path
       sodipodi:nodetypes="cccccscccccccccc"
       inkscape:connector-curvature="0"
       d="m 83.039074,58.822093 c 0.513619,-0.723735 1.097277,-1.680934 1.307393,-2.101167 0.233463,-0.420234 1.260701,-1.961089 2.287938,-3.431906 l 1.914396,-2.684825 -2.241244,-3.011672 c -1.214008,-1.657588 -2.217899,-3.128405 -2.217899,-3.245136 0,-0.140078 -0.536965,-0.933852 -1.167315,-1.797665 l -1.190661,-1.540856 2.754863,0.02335 2.754864,0 3.688715,4.785992 3.665369,4.785991 -3.758754,4.879377 -3.758755,4.902723 -5.009225,-0.03453 c 0.970315,-1.529676 0.623464,-1.035413 0.970315,-1.529676 z"
       id="path6822"
       style="fill:#de3b2f;stroke:none" />
  </g>
</svg>
