<svg width="120" height="120" viewBox="0 0 120 120" fill="none" xmlns="http://www.w3.org/2000/svg">
<path d="M6.66123 48.0739C14.0747 18.3418 44.1919 0.247248 73.9309 7.66162C103.658 15.0743 121.754 45.1896 114.337 74.92C106.927 104.656 76.8103 122.752 47.0799 115.339C17.3426 107.927 -0.752276 77.8077 6.66123 48.0739Z" fill="url(#paint0_linear)"/>
<path d="M113.354 73.3052C106.007 102.769 76.1612 120.701 46.6901 113.353C17.231 106.008 -0.702628 76.1634 6.64753 46.7009C13.9908 17.2332 43.8366 -0.700012 73.2992 6.64585C102.769 13.9917 120.7 43.8392 113.354 73.3052Z" fill="white"/>
<path d="M56.7857 74.6925L60.3581 61.2408L68.8159 58.1509L70.9197 50.2454L70.8479 50.0493L62.5224 53.0908L68.5209 30.5039H51.5088L43.6641 59.9803L37.1143 62.3731L34.95 70.5231L41.4948 68.1324L36.8714 85.5042H82.1474L85.05 74.6925H56.7857" fill="white"/>
<path d="M77.8991 41.2106C75.2316 34.4319 68.5422 33.82 60.7528 35.3325L57.9787 25.6628L52.0938 27.3506L54.7956 36.7694C53.2487 37.2094 51.6744 37.6975 50.1103 38.1787L47.3947 28.6981L41.5131 30.3825L44.2803 40.0522C43.0153 40.4441 41.7709 40.8291 40.5506 41.1797L40.5403 41.1453L32.4209 43.4725L34.2256 49.7631C34.2256 49.7631 38.55 48.4294 38.4984 48.5325C40.8841 47.8484 42.0563 49.0103 42.6234 50.1413L45.7859 61.155C45.9475 61.1103 46.1641 61.0553 46.4184 61.0175L45.7963 61.1963L50.2203 76.6306C50.3303 77.4109 50.2341 78.7344 48.5703 79.2156C48.6631 79.2603 44.2872 80.4394 44.2872 80.4394L45.1363 87.8059L52.795 85.6059C54.2216 85.2038 55.6309 84.8256 57.0094 84.4372L59.8178 94.2169L65.6959 92.5325L62.9219 82.8559C64.4986 82.4376 66.0708 82.0021 67.6381 81.5497L70.395 91.185L76.2834 89.4972L73.4853 79.7347C83.2169 76.3281 89.4284 71.8491 87.6237 62.3066C86.1731 54.6272 81.6975 52.2966 75.6922 52.5578C78.6072 49.8422 79.8619 46.1709 77.8991 41.2141V41.2106ZM75.6647 64.4825C77.7616 71.7941 65.0084 74.5509 61.0209 75.6991L57.305 62.7397C61.2925 61.595 73.475 56.8616 75.6612 64.4859L75.6647 64.4825ZM67.6828 46.9856C69.5872 53.6372 58.9275 55.8544 55.6034 56.8066L52.2347 45.0537C55.5553 44.1016 65.6925 40.0522 67.6828 46.9891V46.9856Z" fill="white"/>
<path opacity="0.5" d="M115 59.9997C115 90.3755 90.376 115 60.0003 115C29.6243 115 5 90.3755 5 59.9997C5 29.6242 29.6243 5.00005 60.0003 5.00005C90.3757 5.00005 115 29.6242 115 59.9997Z" fill="white" stroke="black" stroke-width="0.5"/>
<path d="M115 59.9997C115 90.3755 90.376 115 60.0003 115C29.6243 115 5 90.3755 5 59.9997C5 29.6242 29.6243 5.00005 60.0003 5.00005C90.3757 5.00005 115 29.6242 115 59.9997Z" fill="#4A90E2"/>
<path d="M66.3355 59.4968C66.3355 62.7253 63.7318 65.329 60.5032 65.329C57.2747 65.329 54.671 62.7253 54.671 59.4968C54.671 55.1226 53.2129 53.6645 48.8387 53.6645C44.4645 53.6645 43.0325 55.1486 43.0325 59.4968C43.0325 62.7253 40.4288 65.329 37.2002 65.329C33.9717 65.329 31.368 62.7253 31.368 59.4968C31.368 56.2682 33.9717 53.6645 37.2002 53.6645C41.5744 53.6645 43.0325 52.2065 43.0325 47.8323C43.0325 44.6037 45.6362 42 48.8648 42C52.0933 42 54.697 44.6037 54.697 47.8323C54.697 52.2065 56.1551 53.6645 60.5293 53.6645C63.7058 53.6906 66.3355 56.2942 66.3355 59.4968Z" fill="white"/>
<path d="M25.5618 76.9935C28.7828 76.9935 31.394 74.3823 31.394 71.1613C31.394 67.9402 28.7828 65.329 25.5618 65.329C22.3407 65.329 19.7295 67.9402 19.7295 71.1613C19.7295 74.3823 22.3407 76.9935 25.5618 76.9935Z" fill="white"/>
<path d="M101.251 47.8583C101.251 51.0869 98.6473 53.6906 95.4187 53.6906C91.0445 53.6906 89.5864 55.1486 89.5864 59.5228C89.5864 62.7514 86.9828 65.3551 83.7542 65.3551C79.38 65.3551 77.9219 66.8132 77.9219 71.1873C77.9219 74.4159 75.3182 77.0196 72.0896 77.0196C68.8611 77.0196 66.2574 74.4159 66.2574 71.1873C66.2574 67.9588 68.8611 65.3551 72.0896 65.3551C76.4638 65.3551 77.9219 63.897 77.9219 59.5228C77.9219 56.2943 80.5256 53.6906 83.7542 53.6906C88.1284 53.6906 89.5864 52.2325 89.5864 47.8583C89.5864 44.6297 92.1901 42.026 95.4187 42.026C98.6473 42.026 101.251 44.6558 101.251 47.8583Z" fill="white"/>
<defs>
<linearGradient id="paint0_linear" x1="339.068" y1="156.473" x2="-15.9791" y2="0.682859" gradientUnits="userSpaceOnUse">
<stop stop-color="#1A1A1A"/>
<stop offset="1" stop-color="#1A1A1A" stop-opacity="0"/>
</linearGradient>
</defs>
</svg>
