<?xml version="1.0" encoding="UTF-8"?>
<svg xmlns="http://www.w3.org/2000/svg" xmlns:xlink="http://www.w3.org/1999/xlink" width="120pt" height="120pt" viewBox="0 0 120 120" version="1.1">
<g id="surface1">
<path style=" stroke:none;fill-rule:nonzero;fill:rgb(11.372549%,12.54902%,13.72549%);fill-opacity:1;" d="M 120 60 C 120 93.136719 93.136719 120 60 120 C 26.863281 120 0 93.136719 0 60 C 0 26.863281 26.863281 0 60 0 C 93.136719 0 120 26.863281 120 60 Z M 120 60 "/>
<path style=" stroke:none;fill-rule:nonzero;fill:rgb(49.019608%,70.588235%,23.921569%);fill-opacity:1;" d="M 66.832031 55.484375 L 60.125 46.214844 L 60.125 19.503906 L 66.832031 22.355469 Z M 66.832031 55.484375 "/>
<path style=" stroke:none;fill-rule:nonzero;fill:rgb(49.019608%,70.588235%,23.921569%);fill-opacity:1;" d="M 78.898438 81.992188 L 77.691406 81.992188 L 77.691406 30.035156 L 84.394531 30.035156 L 84.394531 76.472656 C 84.398438 79.515625 81.9375 81.984375 78.898438 81.992188 Z M 78.898438 81.992188 "/>
<path style=" stroke:none;fill-rule:nonzero;fill:rgb(49.019608%,70.588235%,23.921569%);fill-opacity:1;" d="M 84.402344 36.925781 L 60.125 26.328125 L 60.125 19.332031 L 84.402344 30.003906 Z M 84.402344 36.925781 "/>
<path style=" stroke:none;fill-rule:nonzero;fill:rgb(49.019608%,70.588235%,23.921569%);fill-opacity:1;" d="M 42.304688 89.769531 L 35.597656 89.769531 L 35.597656 39.730469 C 35.597656 36.6875 38.058594 34.214844 41.101562 34.210938 L 42.308594 34.210938 Z M 42.304688 89.769531 "/>
<path style=" stroke:none;fill-rule:nonzero;fill:rgb(49.019608%,70.588235%,23.921569%);fill-opacity:1;" d="M 60.125 100.667969 L 35.597656 90.007812 L 35.597656 83.058594 L 60.125 93.765625 Z M 60.125 100.667969 "/>
<path style=" stroke:none;fill-rule:nonzero;fill:rgb(49.019608%,70.588235%,23.921569%);fill-opacity:1;" d="M 60.125 100.667969 L 53.417969 97.765625 L 53.417969 73.351562 L 60.125 82.558594 Z M 60.125 100.667969 "/>
<path style=" stroke:none;fill-rule:nonzero;fill:rgb(49.019608%,70.588235%,23.921569%);fill-opacity:1;" d="M 41.210938 44.691406 L 42.304688 34.210938 L 65.675781 66.742188 L 78.195312 74.367188 L 77.695312 81.992188 L 60.273438 71.195312 Z M 41.210938 44.691406 "/>
</g>
</svg>
