<svg id="svg" version="1.1" xmlns="http://www.w3.org/2000/svg" xmlns:xlink="http://www.w3.org/1999/xlink" width="400" height="400" viewBox="0, 0, 400,400"><g id="svgg"><path id="path0" d="M105.000 148.483 C 104.008 149.052,103.230 150.030,103.213 150.729 C 103.206 151.019,102.930 151.527,102.600 151.857 C 101.520 152.937,101.714 224.347,102.800 225.600 C 103.240 226.107,103.600 226.744,103.600 227.015 C 103.600 228.386,119.672 228.525,121.239 227.167 L 122.200 226.333 122.409 205.067 C 122.523 193.370,122.658 183.988,122.709 184.219 C 122.866 184.937,124.113 186.414,126.500 188.708 C 127.765 189.923,128.800 191.224,128.800 191.598 C 128.800 191.972,129.155 192.687,129.588 193.186 C 130.022 193.686,130.481 194.424,130.609 194.827 C 130.736 195.230,131.194 195.671,131.626 195.808 C 132.058 195.945,132.321 196.204,132.210 196.383 C 132.099 196.563,132.277 196.932,132.604 197.204 C 132.932 197.476,133.207 197.541,133.216 197.349 C 133.224 197.157,133.486 197.585,133.796 198.300 C 134.107 199.015,135.000 200.257,135.781 201.061 C 136.561 201.865,137.200 202.765,137.200 203.061 C 137.200 203.358,137.470 203.600,137.800 203.600 C 138.130 203.600,138.400 203.860,138.400 204.177 C 138.400 204.495,138.715 204.993,139.100 205.283 C 139.485 205.574,140.008 206.169,140.263 206.606 C 140.517 207.043,140.936 207.351,141.193 207.290 C 141.449 207.230,141.553 207.352,141.423 207.562 C 141.293 207.773,141.370 208.058,141.593 208.196 C 141.817 208.334,142.000 208.776,142.000 209.177 C 142.000 209.582,142.374 210.004,142.840 210.126 C 143.302 210.247,143.573 210.519,143.443 210.731 C 143.312 210.943,143.476 211.220,143.808 211.348 C 144.140 211.475,144.585 212.034,144.796 212.590 C 145.007 213.145,145.434 213.600,145.743 213.600 C 146.053 213.600,146.401 213.960,146.516 214.400 C 146.631 214.840,147.012 215.200,147.363 215.200 C 147.753 215.200,148.005 215.548,148.013 216.100 C 148.027 217.120,148.945 218.522,149.340 218.127 C 149.565 217.902,149.628 218.120,149.592 219.008 C 149.574 219.430,150.610 220.310,150.910 220.128 C 151.080 220.025,151.170 220.172,151.110 220.456 C 151.049 220.739,151.405 221.155,151.900 221.380 C 152.395 221.605,152.800 222.034,152.800 222.332 C 152.800 222.631,153.160 222.969,153.600 223.084 C 154.105 223.216,154.400 223.630,154.400 224.207 C 154.400 224.722,155.028 225.748,155.840 226.560 L 157.280 228.000 162.740 227.987 C 171.064 227.968,170.369 230.226,170.393 203.137 C 170.404 191.211,170.474 181.392,170.549 181.317 C 170.999 180.867,172.002 181.844,172.013 182.743 C 172.027 183.952,172.920 185.332,173.404 184.894 C 173.582 184.732,173.619 184.792,173.486 185.027 C 173.352 185.262,174.041 186.342,175.015 187.427 C 175.990 188.512,176.790 189.623,176.794 189.897 C 176.797 190.170,177.160 190.618,177.600 190.893 C 178.079 191.192,178.400 191.826,178.400 192.474 C 178.400 193.097,178.735 193.789,179.191 194.109 C 179.954 194.643,179.983 195.190,180.009 209.688 C 180.039 225.608,180.162 226.781,181.895 227.571 C 183.262 228.193,198.092 228.148,198.720 227.520 C 199.077 227.163,199.200 223.013,199.200 211.320 C 199.200 198.829,199.305 195.600,199.711 195.600 C 200.250 195.600,201.612 194.215,202.072 193.201 C 202.221 192.870,202.356 193.984,202.372 195.676 C 202.387 197.368,202.583 198.866,202.807 199.004 C 203.030 199.142,203.109 199.423,202.983 199.628 C 202.856 199.832,203.003 200.000,203.308 200.000 C 203.708 200.000,203.884 200.641,203.939 202.300 C 204.045 205.481,204.365 206.800,205.032 206.800 C 205.344 206.800,205.623 207.160,205.650 207.600 C 205.678 208.040,205.737 208.535,205.783 208.700 C 206.364 210.812,206.603 211.187,207.635 211.614 C 208.532 211.986,208.800 212.356,208.800 213.226 C 208.800 213.865,209.119 214.581,209.535 214.877 C 209.940 215.165,210.392 215.890,210.540 216.488 C 210.688 217.087,211.167 217.768,211.605 218.003 C 212.042 218.237,212.400 218.692,212.400 219.014 C 212.400 219.336,212.651 219.600,212.958 219.600 C 213.265 219.600,213.940 220.047,214.458 220.593 C 214.976 221.139,215.715 221.589,216.100 221.593 C 216.485 221.597,216.800 221.874,216.800 222.210 C 216.800 222.545,217.261 222.995,217.824 223.209 C 218.387 223.423,218.736 223.780,218.599 224.002 C 218.462 224.224,218.676 224.525,219.075 224.671 C 219.474 224.817,220.229 225.266,220.754 225.668 C 221.279 226.071,222.000 226.400,222.358 226.400 C 222.715 226.400,223.232 226.760,223.507 227.200 C 223.893 227.818,224.440 228.000,225.907 228.000 C 227.374 228.000,227.921 228.182,228.307 228.800 C 228.744 229.500,229.240 229.600,232.259 229.600 C 235.086 229.600,235.805 229.727,236.223 230.300 C 237.061 231.447,251.189 231.530,251.487 230.389 C 251.673 229.678,252.046 229.600,255.251 229.600 C 258.313 229.600,258.903 229.489,259.493 228.800 C 259.895 228.330,260.678 227.998,261.389 227.995 C 263.206 227.986,264.400 227.573,264.400 226.953 C 264.400 226.649,264.715 226.399,265.100 226.397 C 266.000 226.394,268.091 225.024,267.737 224.670 C 267.588 224.521,267.772 224.400,268.146 224.400 C 268.519 224.400,268.922 224.146,269.041 223.836 C 269.161 223.526,269.695 223.163,270.229 223.028 C 270.763 222.894,271.200 222.518,271.200 222.192 C 271.200 221.867,271.478 221.600,271.818 221.600 C 274.417 221.600,275.368 216.618,273.194 214.394 C 272.531 213.715,271.806 213.273,271.584 213.410 C 271.362 213.547,271.230 213.428,271.290 213.144 C 271.351 212.861,271.006 212.450,270.525 212.230 C 270.043 212.011,269.565 211.509,269.462 211.116 C 269.359 210.722,268.988 210.400,268.637 210.400 C 268.273 210.400,268.000 210.067,268.000 209.624 C 268.000 209.197,267.817 208.734,267.593 208.596 C 267.370 208.458,267.291 208.177,267.417 207.972 C 267.544 207.768,267.367 207.600,267.024 207.600 C 266.681 207.600,266.400 207.409,266.400 207.176 C 266.400 206.943,266.220 206.864,266.000 207.000 C 265.780 207.136,265.600 206.967,265.600 206.624 C 265.600 206.281,265.465 206.029,265.300 206.064 C 265.135 206.098,264.694 205.993,264.320 205.828 C 263.649 205.534,261.830 205.702,260.133 206.214 C 259.656 206.358,259.049 206.999,258.784 207.638 C 258.520 208.277,258.038 208.800,257.714 208.800 C 257.390 208.800,257.031 209.160,256.916 209.600 C 256.763 210.184,256.368 210.401,255.453 210.405 C 253.597 210.414,252.400 210.822,252.400 211.447 C 252.400 212.480,234.529 212.238,234.200 211.200 C 234.013 210.612,233.595 210.400,232.620 210.400 C 231.630 210.400,231.240 210.197,231.084 209.600 C 230.959 209.121,230.538 208.800,230.037 208.800 C 229.560 208.800,229.200 208.542,229.200 208.200 C 229.200 207.870,228.933 207.600,228.608 207.600 C 228.282 207.600,227.902 207.150,227.764 206.600 C 227.626 206.050,227.307 205.600,227.054 205.600 C 226.802 205.600,226.361 205.070,226.074 204.423 C 225.788 203.776,225.024 203.012,224.377 202.726 C 223.215 202.211,223.081 201.737,223.208 198.592 C 223.224 198.204,222.201 197.283,221.934 197.445 C 221.127 197.932,221.576 183.492,222.385 182.926 C 222.952 182.528,223.202 181.905,223.207 180.877 C 223.212 179.830,223.503 179.126,224.205 178.459 C 224.751 177.942,225.080 177.329,224.937 177.098 C 224.784 176.851,224.868 176.795,225.139 176.962 C 225.415 177.133,225.753 176.876,225.977 176.324 C 226.421 175.229,229.397 172.000,229.961 172.000 C 230.178 172.000,230.590 171.667,230.877 171.261 C 231.165 170.854,232.120 170.345,233.000 170.128 C 233.880 169.912,234.555 169.524,234.500 169.267 C 234.445 169.010,234.535 168.844,234.700 168.897 C 235.174 169.050,236.825 167.758,236.531 167.464 C 236.386 167.319,239.537 167.200,243.533 167.200 C 247.530 167.200,250.800 167.351,250.800 167.536 C 250.800 167.904,252.819 168.982,253.300 168.870 C 253.465 168.831,253.555 169.010,253.500 169.267 C 253.445 169.524,254.103 169.909,254.963 170.122 C 255.947 170.366,257.051 171.080,257.946 172.055 C 259.674 173.934,263.215 174.331,264.600 172.800 C 264.998 172.360,265.550 172.000,265.826 172.000 C 266.103 172.000,266.788 171.454,267.349 170.787 C 267.911 170.120,268.512 169.535,268.685 169.487 C 268.858 169.439,268.955 169.265,268.900 169.100 C 268.845 168.935,268.980 168.800,269.200 168.800 C 269.420 168.800,269.600 168.440,269.600 168.000 C 269.600 167.535,269.867 167.200,270.237 167.200 C 270.588 167.200,270.960 166.874,271.064 166.475 C 271.169 166.076,271.827 165.581,272.527 165.375 C 274.324 164.846,274.650 161.360,273.034 159.955 C 272.480 159.473,272.139 158.899,272.275 158.678 C 272.416 158.451,272.323 158.400,272.062 158.562 C 271.808 158.719,271.600 158.657,271.600 158.424 C 271.600 158.191,271.329 158.000,270.997 158.000 C 270.666 158.000,270.003 157.550,269.525 157.000 C 269.047 156.450,268.446 156.000,268.189 156.000 C 267.932 156.000,267.307 155.640,266.800 155.200 C 266.287 154.755,265.303 154.400,264.585 154.400 C 263.630 154.400,263.239 154.192,263.084 153.600 C 262.893 152.870,262.179 152.622,260.473 152.697 C 260.184 152.710,260.040 152.627,260.154 152.512 C 260.387 152.280,259.415 151.200,258.973 151.200 C 258.816 151.200,258.484 150.921,258.235 150.581 C 257.956 150.199,256.864 149.871,255.391 149.726 C 254.076 149.597,252.740 149.291,252.423 149.046 C 251.963 148.690,251.916 148.721,252.192 149.200 C 252.392 149.547,252.153 149.463,251.626 149.000 C 250.319 147.854,236.559 147.769,235.310 148.900 C 234.885 149.285,234.010 149.600,233.366 149.600 C 232.722 149.600,231.613 149.767,230.903 149.971 C 229.628 150.336,229.022 150.026,229.006 149.000 C 229.003 148.780,228.790 148.600,228.533 148.600 C 228.277 148.600,227.944 148.478,227.795 148.328 C 226.675 147.208,207.946 148.141,208.651 149.282 C 208.801 149.525,208.749 149.615,208.535 149.483 C 207.982 149.141,206.056 151.036,205.761 152.212 C 205.625 152.755,205.265 153.200,204.961 153.200 C 204.627 153.200,204.309 153.830,204.154 154.800 C 204.012 155.688,203.673 156.400,203.392 156.400 C 202.894 156.400,202.175 158.223,202.368 159.000 C 202.422 159.220,202.334 159.268,202.173 159.106 C 201.714 158.648,200.827 160.079,200.813 161.300 C 200.805 161.990,200.583 162.400,200.218 162.400 C 199.371 162.400,197.600 164.306,197.600 165.218 C 197.600 165.648,197.349 166.000,197.043 166.000 C 196.440 166.000,196.000 166.838,196.000 167.986 C 196.000 168.382,195.640 168.801,195.200 168.916 C 194.594 169.075,194.400 169.462,194.400 170.516 C 194.400 171.570,194.206 171.957,193.600 172.116 C 193.121 172.241,192.800 172.662,192.800 173.163 C 192.800 173.640,192.542 174.000,192.200 174.000 C 191.870 174.000,191.600 174.239,191.600 174.530 C 191.600 174.822,191.150 175.483,190.600 176.000 L 189.600 176.939 189.600 176.070 C 189.600 175.591,189.250 174.850,188.822 174.422 C 188.395 173.995,187.925 173.005,187.778 172.222 C 187.631 171.440,187.279 170.800,186.995 170.800 C 186.499 170.800,185.492 168.642,185.830 168.304 C 185.920 168.213,185.365 167.638,184.597 167.025 C 183.829 166.413,183.200 165.672,183.200 165.378 C 183.200 165.085,182.867 164.610,182.461 164.323 C 182.054 164.035,181.597 163.128,181.444 162.306 C 181.291 161.484,180.971 160.854,180.733 160.906 C 180.495 160.958,180.119 160.460,179.898 159.800 C 179.677 159.140,179.249 158.316,178.948 157.969 C 178.647 157.621,178.400 157.134,178.400 156.887 C 178.400 156.261,176.479 154.400,175.833 154.400 C 175.488 154.400,175.234 153.697,175.109 152.391 C 174.865 149.858,174.872 149.863,171.889 149.752 C 170.520 149.700,169.175 149.645,168.900 149.629 C 168.625 149.613,168.400 149.349,168.400 149.043 C 168.400 148.001,153.633 147.375,153.006 148.391 C 152.862 148.623,152.577 148.709,152.372 148.583 C 152.168 148.456,152.000 148.601,152.000 148.904 C 152.000 149.208,151.550 149.847,151.000 150.325 L 150.000 151.195 150.000 169.594 L 150.000 187.993 148.800 186.737 C 148.140 186.046,147.600 185.309,147.600 185.098 C 147.600 184.887,147.330 184.818,147.000 184.945 C 146.476 185.146,146.233 184.782,146.336 183.949 C 146.353 183.811,145.659 182.930,144.793 181.992 C 143.926 181.054,143.117 179.968,142.994 179.580 C 142.870 179.192,142.506 178.773,142.185 178.650 C 141.863 178.526,141.600 178.162,141.600 177.840 C 141.600 177.517,141.240 177.140,140.800 177.000 C 140.360 176.860,140.000 176.494,140.000 176.187 C 140.000 175.879,139.478 175.093,138.840 174.441 C 138.202 173.788,137.767 173.166,137.874 173.059 C 137.981 172.952,137.693 172.664,137.234 172.418 C 136.775 172.173,136.400 171.708,136.400 171.386 C 136.400 171.064,136.130 170.800,135.800 170.800 C 135.470 170.800,135.200 170.452,135.200 170.027 C 135.200 169.602,134.840 169.140,134.400 169.000 C 133.960 168.860,133.600 168.398,133.600 167.973 C 133.600 167.548,133.420 167.200,133.200 167.200 C 132.980 167.200,132.845 166.975,132.900 166.700 C 132.955 166.425,132.778 166.244,132.507 166.298 C 132.236 166.351,131.901 165.946,131.764 165.398 C 131.626 164.849,131.275 164.400,130.984 164.400 C 130.692 164.400,130.340 164.040,130.200 163.600 C 130.060 163.160,129.688 162.800,129.373 162.800 C 129.058 162.800,128.800 162.423,128.800 161.963 C 128.800 161.462,128.479 161.041,128.000 160.916 C 127.560 160.801,127.200 160.451,127.200 160.139 C 127.200 159.530,123.245 154.400,122.775 154.400 C 122.543 154.400,122.104 153.433,121.854 152.371 C 121.733 151.860,120.478 150.855,120.248 151.086 C 120.111 151.222,120.000 151.023,120.000 150.643 C 120.000 150.263,119.833 150.056,119.629 150.182 C 119.425 150.308,119.139 150.039,118.995 149.583 C 118.505 148.041,107.305 147.161,105.000 148.483 " stroke="none" fill="#0c74bc" fill-rule="evenodd"></path><path id="path1" d="M189.000 39.871 C 187.460 39.964,186.029 40.212,185.820 40.420 C 185.611 40.629,184.964 40.800,184.382 40.800 C 183.800 40.800,182.998 41.160,182.600 41.600 C 182.001 42.262,181.368 42.400,178.941 42.400 C 176.440 42.400,175.933 42.518,175.507 43.200 C 175.058 43.919,174.574 44.000,170.726 44.000 C 166.987 44.000,166.379 44.095,165.918 44.753 C 165.490 45.364,164.759 45.535,162.059 45.658 C 159.590 45.770,158.607 45.975,158.259 46.452 C 158.000 46.806,157.161 47.226,156.394 47.387 C 155.627 47.547,154.601 47.931,154.114 48.239 C 153.627 48.548,152.845 48.800,152.377 48.800 C 151.862 48.800,151.442 49.116,151.316 49.600 C 151.139 50.277,150.770 50.400,148.916 50.400 C 147.062 50.400,146.693 50.523,146.516 51.200 C 146.339 51.877,145.970 52.000,144.116 52.000 C 142.262 52.000,141.893 52.123,141.716 52.800 C 141.547 53.444,141.170 53.600,139.782 53.600 C 138.149 53.600,136.800 54.337,136.800 55.229 C 136.800 55.433,136.372 55.600,135.849 55.600 C 135.326 55.600,134.674 55.870,134.400 56.200 C 134.126 56.530,133.547 56.800,133.114 56.800 C 132.662 56.800,132.236 57.141,132.116 57.600 C 131.957 58.206,131.570 58.400,130.516 58.400 C 129.462 58.400,129.075 58.594,128.916 59.200 C 128.757 59.806,128.370 60.000,127.316 60.000 C 126.275 60.000,125.874 60.196,125.722 60.778 C 125.585 61.301,125.107 61.595,124.259 61.678 C 123.409 61.760,122.872 62.092,122.605 62.700 C 122.388 63.195,121.997 63.600,121.736 63.600 C 121.475 63.600,120.436 64.230,119.427 65.000 C 118.418 65.770,117.308 66.400,116.959 66.400 C 116.610 66.400,116.231 66.760,116.116 67.200 C 115.957 67.806,115.570 68.000,114.516 68.000 C 113.462 68.000,113.075 68.194,112.916 68.800 C 112.801 69.240,112.442 69.600,112.118 69.600 C 111.363 69.600,108.000 73.043,108.000 73.815 C 108.000 74.220,107.557 74.400,106.563 74.400 C 105.462 74.400,105.076 74.587,104.916 75.200 C 104.801 75.640,104.466 76.000,104.172 76.000 C 103.877 76.000,103.186 76.450,102.636 77.000 C 102.086 77.550,101.358 78.000,101.018 78.000 C 100.678 78.000,100.400 78.278,100.400 78.618 C 100.400 78.958,99.950 79.686,99.400 80.236 C 98.850 80.786,98.400 81.498,98.400 81.818 C 98.400 82.138,98.040 82.400,97.600 82.400 C 97.067 82.400,96.800 82.667,96.800 83.200 C 96.800 83.726,96.533 84.000,96.021 84.000 C 95.592 84.000,94.756 84.450,94.162 85.000 C 93.569 85.550,92.947 86.000,92.781 86.000 C 92.614 86.000,92.289 86.542,92.058 87.205 C 91.827 87.868,91.359 88.517,91.019 88.648 C 90.679 88.779,90.400 89.226,90.400 89.643 C 90.400 90.133,90.118 90.400,89.600 90.400 C 89.067 90.400,88.800 90.667,88.800 91.200 C 88.800 91.715,88.533 92.000,88.051 92.000 C 87.111 92.000,84.000 95.325,84.000 96.329 C 84.000 96.740,83.640 97.402,83.200 97.800 C 82.760 98.198,82.400 98.835,82.400 99.215 C 82.400 99.596,82.040 100.001,81.600 100.116 C 81.160 100.231,80.800 100.612,80.800 100.963 C 80.800 101.313,80.546 101.600,80.236 101.600 C 79.332 101.600,77.600 103.955,77.600 105.184 C 77.600 105.970,77.360 106.369,76.800 106.516 C 76.360 106.631,76.000 106.991,76.000 107.316 C 76.000 107.641,75.640 108.001,75.200 108.116 C 74.564 108.282,74.400 108.662,74.400 109.963 C 74.400 111.129,74.233 111.600,73.818 111.600 C 73.470 111.600,73.131 112.162,72.974 113.000 C 72.788 113.990,72.498 114.400,71.985 114.400 C 71.178 114.400,69.600 116.181,69.600 117.091 C 69.600 117.411,69.240 118.131,68.800 118.691 C 68.360 119.250,68.000 120.293,68.000 121.007 C 68.000 121.970,67.793 122.361,67.200 122.516 C 66.590 122.675,66.400 123.062,66.400 124.143 C 66.400 124.922,66.160 125.704,65.868 125.880 C 65.269 126.240,64.000 128.652,64.000 129.431 C 64.000 129.710,63.460 130.478,62.800 131.138 C 61.760 132.179,61.600 132.629,61.600 134.523 C 61.600 136.370,61.477 136.739,60.800 136.916 C 60.183 137.077,60.000 137.462,60.000 138.599 C 60.000 139.468,59.671 140.492,59.200 141.091 C 58.628 141.818,58.400 142.714,58.400 144.234 C 58.400 145.577,58.204 146.478,57.868 146.680 C 56.958 147.227,56.045 149.552,55.763 152.042 C 55.596 153.525,55.178 154.829,54.658 155.490 C 53.969 156.366,53.794 157.257,53.661 160.567 C 53.549 163.343,53.303 164.882,52.861 165.555 C 52.423 166.225,52.174 167.755,52.066 170.444 C 51.937 173.643,51.771 174.484,51.154 175.041 C 49.986 176.099,49.986 203.976,51.154 205.084 C 51.765 205.664,51.940 206.537,52.072 209.677 C 52.190 212.483,52.412 213.754,52.875 214.277 C 53.345 214.809,53.556 216.078,53.670 219.072 C 53.790 222.201,53.985 223.321,54.513 223.903 C 54.890 224.321,55.392 225.728,55.628 227.031 C 55.864 228.334,56.224 229.713,56.429 230.095 C 56.633 230.477,56.800 231.124,56.800 231.533 C 56.800 231.941,57.160 232.602,57.600 233.000 C 58.210 233.552,58.400 234.232,58.400 235.866 C 58.400 237.513,58.585 238.166,59.200 238.693 C 59.769 239.180,60.000 239.873,60.000 241.093 C 60.000 242.313,60.231 243.006,60.800 243.493 C 61.338 243.953,61.600 244.673,61.600 245.689 C 61.600 246.641,61.882 247.482,62.361 247.961 C 62.779 248.379,63.236 249.083,63.376 249.524 C 63.516 249.966,63.894 250.546,64.215 250.813 C 64.537 251.080,64.800 251.743,64.800 252.286 C 64.800 252.938,65.072 253.346,65.600 253.484 C 66.227 253.648,66.400 254.030,66.400 255.247 C 66.400 256.267,66.675 257.075,67.200 257.600 C 67.640 258.040,68.000 258.843,68.000 259.384 C 68.000 259.926,68.339 260.691,68.753 261.084 C 69.168 261.478,69.632 262.385,69.785 263.100 C 69.938 263.815,70.307 264.400,70.605 264.400 C 70.903 264.400,71.260 264.760,71.400 265.200 C 71.540 265.640,71.826 266.000,72.037 266.000 C 72.247 266.000,72.591 266.450,72.800 267.000 C 73.009 267.550,73.455 268.000,73.790 268.000 C 74.228 268.000,74.400 268.423,74.400 269.504 C 74.400 270.574,74.630 271.151,75.200 271.507 C 75.640 271.782,76.000 272.262,76.000 272.575 C 76.000 272.887,76.315 273.457,76.700 273.841 C 77.085 274.226,77.580 275.094,77.800 275.770 C 78.089 276.659,78.561 277.106,79.500 277.383 C 80.244 277.602,80.800 278.031,80.800 278.386 C 80.800 278.728,81.160 279.232,81.600 279.507 C 82.065 279.797,82.400 280.440,82.400 281.041 C 82.400 281.738,82.660 282.143,83.200 282.284 C 83.705 282.416,84.000 282.830,84.000 283.407 C 84.000 284.270,85.457 285.975,87.756 287.800 C 88.310 288.240,88.771 288.815,88.782 289.077 C 88.792 289.340,89.127 289.790,89.526 290.077 C 89.926 290.365,90.370 290.915,90.514 291.300 C 90.657 291.685,91.051 292.000,91.387 292.000 C 91.724 292.000,92.000 292.276,92.000 292.613 C 92.000 292.949,92.315 293.343,92.700 293.486 C 93.085 293.630,93.635 294.074,93.923 294.474 C 94.210 294.873,94.705 295.200,95.023 295.200 C 95.340 295.200,95.600 295.470,95.600 295.800 C 95.600 296.130,95.870 296.400,96.200 296.400 C 96.542 296.400,96.800 296.760,96.800 297.237 C 96.800 297.725,97.119 298.158,97.563 298.274 C 97.983 298.384,98.416 298.817,98.526 299.237 C 98.635 299.657,98.991 300.000,99.316 300.000 C 99.641 300.000,100.001 300.360,100.116 300.800 C 100.241 301.279,100.662 301.600,101.163 301.600 C 101.640 301.600,102.000 301.858,102.000 302.200 C 102.000 302.530,102.236 302.800,102.525 302.800 C 103.162 302.800,105.200 304.860,105.200 305.504 C 105.200 305.757,105.813 306.079,106.563 306.219 C 107.432 306.382,107.999 306.752,108.126 307.238 C 108.235 307.657,108.674 308.000,109.101 308.000 C 109.527 308.000,110.202 308.360,110.600 308.800 C 110.998 309.240,111.656 309.600,112.062 309.600 C 112.512 309.600,112.800 309.887,112.800 310.337 C 112.800 310.786,113.385 311.372,114.300 311.837 C 115.125 312.257,115.861 312.738,115.936 312.907 C 116.284 313.696,117.343 314.400,118.182 314.400 C 118.770 314.400,119.183 314.691,119.316 315.200 C 119.475 315.806,119.862 316.000,120.916 316.000 C 121.970 316.000,122.357 316.194,122.516 316.800 C 122.631 317.240,123.010 317.600,123.359 317.600 C 123.708 317.600,124.818 318.230,125.827 319.000 C 126.836 319.770,127.917 320.400,128.231 320.400 C 128.544 320.400,128.800 320.567,128.800 320.771 C 128.800 321.516,130.085 322.400,131.167 322.400 C 131.777 322.400,132.602 322.760,133.000 323.200 C 133.477 323.727,134.232 324.000,135.215 324.000 C 136.370 324.000,136.754 324.180,136.916 324.800 C 137.094 325.480,137.462 325.600,139.363 325.600 C 141.243 325.600,141.600 325.714,141.600 326.314 C 141.600 327.240,143.581 328.400,145.162 328.400 C 145.843 328.400,146.400 328.567,146.400 328.771 C 146.400 329.819,147.750 330.400,150.182 330.400 C 152.370 330.400,152.735 330.507,152.916 331.200 C 153.102 331.910,153.462 332.000,156.116 332.000 C 158.770 332.000,159.130 332.090,159.316 332.800 C 159.501 333.509,159.862 333.600,162.466 333.600 C 164.974 333.600,165.481 333.718,165.907 334.400 C 166.182 334.840,166.720 335.206,167.103 335.213 C 167.487 335.220,168.149 335.490,168.576 335.813 C 169.092 336.202,170.319 336.400,172.223 336.400 C 174.593 336.400,175.291 336.557,176.236 337.300 L 177.380 338.200 200.048 338.200 C 221.594 338.200,222.757 338.163,223.539 337.455 C 224.141 336.911,225.279 336.639,227.771 336.445 C 229.646 336.300,231.400 335.960,231.670 335.690 C 231.939 335.421,232.591 335.200,233.117 335.200 C 233.738 335.200,234.148 334.919,234.284 334.400 C 234.472 333.680,234.830 333.600,237.851 333.600 C 240.713 333.600,241.309 333.482,241.893 332.800 C 242.408 332.199,243.077 331.999,244.589 331.995 C 247.165 331.988,248.400 331.650,248.400 330.953 C 248.400 330.550,248.990 330.400,250.577 330.400 C 252.244 330.400,252.877 330.226,253.277 329.657 C 253.565 329.249,254.250 328.788,254.800 328.633 C 256.753 328.084,259.569 326.593,259.584 326.100 C 259.594 325.784,260.202 325.600,261.237 325.600 C 262.538 325.600,262.918 325.436,263.084 324.800 C 263.237 324.216,263.632 323.999,264.547 323.995 C 266.381 323.987,267.600 323.580,267.600 322.977 C 267.600 322.655,268.185 322.400,269.100 322.324 C 270.203 322.233,270.705 321.962,270.995 321.300 C 271.212 320.805,271.685 320.400,272.046 320.400 C 272.407 320.400,272.926 320.130,273.200 319.800 C 273.474 319.470,273.948 319.200,274.253 319.200 C 274.558 319.200,275.116 318.840,275.493 318.400 C 275.870 317.960,276.498 317.600,276.889 317.600 C 277.333 317.600,277.600 317.300,277.600 316.800 C 277.600 316.148,277.867 316.000,279.037 316.000 C 280.138 316.000,280.524 315.813,280.684 315.200 C 280.831 314.636,281.230 314.400,282.032 314.400 C 283.367 314.400,287.124 311.402,287.171 310.300 C 287.190 309.827,287.526 309.600,288.204 309.600 C 288.756 309.600,289.516 309.240,289.893 308.800 C 290.270 308.360,290.854 308.000,291.193 308.000 C 291.531 308.000,292.024 307.653,292.289 307.230 C 292.553 306.806,293.163 306.401,293.644 306.330 C 294.125 306.258,294.717 305.856,294.959 305.435 C 295.579 304.360,296.730 303.200,297.177 303.200 C 297.385 303.200,297.790 302.873,298.077 302.474 C 298.365 302.074,298.915 301.630,299.300 301.486 C 299.685 301.343,300.000 300.949,300.000 300.613 C 300.000 300.276,300.287 300.000,300.637 300.000 C 300.988 300.000,301.369 299.640,301.484 299.200 C 301.599 298.760,301.948 298.400,302.259 298.400 C 302.570 298.400,302.936 298.112,303.071 297.760 C 303.387 296.936,304.936 295.387,305.760 295.071 C 306.112 294.936,306.400 294.549,306.400 294.213 C 306.400 293.876,306.687 293.600,307.037 293.600 C 307.388 293.600,307.769 293.240,307.884 292.800 C 307.999 292.360,308.359 292.000,308.684 292.000 C 309.009 292.000,309.365 291.657,309.474 291.237 C 309.584 290.817,310.017 290.384,310.437 290.274 C 310.881 290.158,311.200 289.725,311.200 289.237 C 311.200 288.760,311.458 288.400,311.800 288.400 C 312.130 288.400,312.400 288.130,312.400 287.800 C 312.400 287.470,312.606 287.200,312.857 287.200 C 313.481 287.200,315.990 284.721,315.996 284.100 C 315.998 283.825,316.268 283.600,316.595 283.600 C 316.980 283.600,317.281 283.035,317.446 282.000 C 317.596 281.066,317.923 280.400,318.233 280.400 C 318.525 280.400,318.882 279.770,319.026 279.000 C 319.238 277.872,319.471 277.600,320.229 277.600 C 320.746 277.600,321.358 277.375,321.590 277.100 C 321.823 276.825,322.460 276.096,323.006 275.479 C 323.585 274.827,324.000 273.868,324.000 273.183 C 324.000 272.440,324.295 271.823,324.800 271.507 C 325.240 271.232,325.600 270.734,325.600 270.400 C 325.600 270.066,325.960 269.568,326.400 269.293 C 326.910 268.974,327.200 268.360,327.200 267.597 C 327.200 266.833,327.404 266.400,327.764 266.400 C 328.668 266.400,330.400 264.045,330.400 262.816 C 330.400 262.030,330.640 261.631,331.200 261.484 C 331.799 261.327,332.000 260.938,332.000 259.934 C 332.000 259.026,332.258 258.431,332.800 258.093 C 333.426 257.702,333.600 257.160,333.600 255.597 C 333.600 254.013,333.736 253.600,334.256 253.600 C 335.057 253.600,335.970 252.467,335.987 251.453 C 335.994 251.042,336.540 250.091,337.200 249.339 C 338.084 248.332,338.400 247.571,338.400 246.448 C 338.400 245.432,338.667 244.683,339.200 244.200 C 339.806 243.652,340.000 242.968,340.000 241.385 C 340.000 239.630,340.129 239.260,340.800 239.084 C 341.490 238.904,341.600 238.538,341.600 236.437 C 341.600 235.097,341.762 234.000,341.960 234.000 C 342.578 234.000,343.857 231.457,344.144 229.659 C 344.295 228.715,344.795 227.433,345.256 226.810 C 345.949 225.872,346.129 224.903,346.307 221.139 C 346.471 217.672,346.669 216.492,347.146 216.144 C 347.581 215.825,347.819 214.799,347.935 212.744 C 348.052 210.663,348.321 209.520,348.850 208.846 C 350.019 207.360,350.012 172.021,348.843 170.916 C 348.262 170.366,348.052 169.490,347.937 167.135 C 347.836 165.045,347.581 163.837,347.138 163.335 C 346.663 162.799,346.444 161.564,346.328 158.771 C 346.195 155.574,346.023 154.756,345.285 153.817 C 344.794 153.193,344.400 152.127,344.400 151.423 C 344.400 150.724,344.136 149.804,343.813 149.376 C 343.490 148.949,343.220 148.223,343.213 147.762 C 343.206 147.301,342.840 146.598,342.400 146.200 C 341.774 145.634,341.600 144.968,341.600 143.141 C 341.600 141.240,341.452 140.714,340.800 140.307 C 340.187 139.925,340.000 139.374,340.000 137.958 C 340.000 136.714,339.738 135.775,339.200 135.091 C 338.760 134.531,338.400 133.530,338.400 132.865 C 338.400 131.384,337.486 130.400,336.109 130.400 C 335.101 130.400,335.094 130.380,335.800 129.600 C 336.475 128.854,336.479 128.750,335.862 128.069 C 335.498 127.666,335.200 127.019,335.200 126.631 C 335.200 126.243,334.840 125.831,334.400 125.716 C 333.794 125.557,333.600 125.170,333.600 124.116 C 333.600 123.062,333.406 122.675,332.800 122.516 C 332.216 122.363,331.999 121.968,331.995 121.053 C 331.986 119.197,331.578 118.000,330.953 118.000 C 330.608 118.000,330.400 117.559,330.400 116.829 C 330.400 115.404,329.479 114.400,328.171 114.400 C 327.149 114.400,326.937 114.023,327.592 113.368 C 328.084 112.876,326.819 110.032,326.100 110.013 C 325.825 110.006,325.600 109.623,325.600 109.163 C 325.600 108.662,325.279 108.241,324.800 108.116 C 324.238 107.969,324.000 107.570,324.000 106.776 C 324.000 106.154,323.682 105.410,323.294 105.123 C 322.905 104.835,322.362 104.088,322.085 103.462 C 321.804 102.826,321.057 102.125,320.391 101.874 C 319.736 101.627,319.200 101.147,319.200 100.809 C 319.200 100.470,318.840 99.968,318.400 99.693 C 317.935 99.403,317.600 98.760,317.600 98.159 C 317.600 97.462,317.340 97.057,316.800 96.916 C 316.357 96.800,316.000 96.370,316.000 95.953 C 316.000 94.952,313.013 92.000,312.000 92.000 C 311.467 92.000,311.200 91.733,311.200 91.200 C 311.200 90.667,310.933 90.400,310.400 90.400 C 309.903 90.400,309.600 90.133,309.600 89.696 C 309.600 89.309,309.240 88.768,308.800 88.493 C 308.360 88.218,307.998 87.680,307.996 87.297 C 307.990 86.423,305.539 84.000,304.661 84.000 C 304.301 84.000,303.782 83.640,303.507 83.200 C 303.232 82.760,302.691 82.400,302.304 82.400 C 301.880 82.400,301.600 82.099,301.600 81.643 C 301.600 81.226,301.321 80.779,300.981 80.648 C 300.641 80.517,300.176 79.876,299.948 79.222 C 299.720 78.568,299.212 77.931,298.819 77.806 C 298.427 77.682,297.784 77.224,297.391 76.790 C 296.998 76.355,296.344 76.000,295.938 76.000 C 295.467 76.000,295.200 75.711,295.200 75.200 C 295.200 74.703,294.933 74.400,294.496 74.400 C 294.109 74.400,293.568 74.040,293.293 73.600 C 293.018 73.160,292.429 72.800,291.983 72.800 C 291.479 72.800,290.856 72.263,290.335 71.380 C 289.794 70.462,289.103 69.881,288.384 69.737 C 287.751 69.610,287.185 69.187,287.073 68.757 C 286.943 68.261,286.519 68.000,285.841 68.000 C 285.240 68.000,284.597 67.665,284.307 67.200 C 284.032 66.760,283.401 66.400,282.904 66.400 C 282.367 66.400,282.000 66.156,282.000 65.800 C 282.000 65.470,281.804 65.200,281.564 65.200 C 281.324 65.200,280.179 64.390,279.021 63.400 C 277.862 62.410,276.556 61.600,276.119 61.600 C 275.682 61.600,274.998 61.240,274.600 60.800 C 274.161 60.315,273.368 60.000,272.585 60.000 C 271.630 60.000,271.239 59.792,271.084 59.200 C 270.924 58.587,270.538 58.400,269.437 58.400 C 268.459 58.400,268.000 58.218,268.000 57.829 C 268.000 57.013,266.063 55.600,264.943 55.600 C 264.422 55.600,263.603 55.150,263.125 54.600 C 262.493 53.873,261.855 53.600,260.790 53.600 C 259.832 53.600,259.073 53.323,258.600 52.800 C 258.088 52.234,257.368 52.000,256.141 52.000 C 254.840 52.000,254.282 51.800,253.907 51.200 C 253.502 50.550,252.974 50.400,251.104 50.400 C 249.159 50.400,248.800 50.289,248.800 49.686 C 248.800 48.666,246.966 47.742,244.300 47.420 C 242.810 47.240,242.000 46.958,242.000 46.618 C 242.000 45.919,240.715 45.612,237.762 45.605 C 235.836 45.601,235.172 45.432,234.600 44.800 C 233.973 44.108,233.368 44.000,230.101 44.000 C 226.932 44.000,226.163 43.872,225.309 43.200 C 224.503 42.566,223.686 42.400,221.366 42.400 C 219.357 42.400,218.340 42.233,218.120 41.868 C 217.026 40.047,202.497 39.051,189.000 39.871 M276.242 63.268 C 276.432 63.575,276.319 63.655,275.914 63.499 C 275.575 63.369,275.059 63.473,274.768 63.731 C 274.329 64.120,274.329 64.080,274.768 63.500 C 275.386 62.684,275.837 62.613,276.242 63.268 M219.200 78.400 C 219.640 78.840,220.529 79.200,221.176 79.200 C 221.823 79.200,222.455 79.366,222.581 79.569 C 222.706 79.771,223.979 80.063,225.410 80.216 C 227.100 80.397,228.380 80.784,229.060 81.319 C 229.733 81.848,230.912 82.209,232.354 82.326 C 233.699 82.436,234.982 82.808,235.554 83.255 C 236.208 83.766,237.167 84.000,238.607 84.000 C 240.370 84.000,240.740 84.128,240.916 84.800 C 241.094 85.480,241.462 85.600,243.363 85.600 C 244.970 85.600,245.600 85.751,245.600 86.138 C 245.600 86.968,246.944 87.994,248.646 88.464 C 249.494 88.698,250.425 89.229,250.716 89.645 C 251.013 90.068,251.720 90.400,252.326 90.400 C 252.974 90.400,253.608 90.721,253.907 91.200 C 254.211 91.687,254.840 92.000,255.514 92.000 C 256.127 92.000,256.928 92.357,257.307 92.800 C 257.684 93.240,258.423 93.600,258.949 93.600 C 259.570 93.600,259.980 93.881,260.116 94.400 C 260.231 94.840,260.602 95.200,260.940 95.200 C 261.279 95.200,262.240 95.834,263.078 96.609 C 263.915 97.384,264.988 98.119,265.462 98.243 C 265.936 98.367,266.415 98.813,266.525 99.234 C 266.642 99.681,267.074 100.000,267.563 100.000 C 268.029 100.000,268.400 100.258,268.400 100.582 C 268.400 100.923,268.945 101.266,269.718 101.411 C 270.534 101.564,271.181 101.989,271.418 102.529 C 271.628 103.008,272.381 103.670,273.091 104.000 C 273.854 104.354,274.386 104.902,274.391 105.337 C 274.396 105.743,274.743 106.165,275.163 106.274 C 275.583 106.384,276.016 106.817,276.126 107.237 C 276.242 107.681,276.675 108.000,277.163 108.000 C 277.629 108.000,278.000 108.258,278.000 108.582 C 278.000 108.930,278.562 109.269,279.400 109.426 C 280.327 109.600,280.800 109.912,280.800 110.348 C 280.800 110.711,281.160 111.232,281.600 111.507 C 282.040 111.782,282.400 112.355,282.400 112.781 C 282.400 113.206,282.727 113.790,283.126 114.077 C 283.526 114.365,283.970 114.915,284.114 115.300 C 284.257 115.685,284.631 116.000,284.944 116.000 C 285.257 116.000,285.624 116.442,285.760 116.982 C 285.895 117.522,286.617 118.430,287.364 119.000 C 288.111 119.570,288.833 120.478,288.969 121.018 C 289.104 121.558,289.396 122.000,289.618 122.000 C 289.839 122.000,290.191 122.450,290.400 123.000 C 290.609 123.550,291.055 124.000,291.390 124.000 C 291.726 124.000,292.000 124.332,292.000 124.738 C 292.000 125.144,292.360 125.802,292.800 126.200 C 293.240 126.598,293.600 127.222,293.600 127.587 C 293.600 128.339,295.595 130.400,296.322 130.400 C 296.586 130.400,296.800 130.935,296.800 131.597 C 296.800 132.360,297.090 132.974,297.600 133.293 C 298.040 133.568,298.400 134.081,298.400 134.434 C 298.400 134.787,298.760 135.402,299.200 135.800 C 299.695 136.248,300.000 137.032,300.000 137.859 C 300.000 138.760,300.260 139.355,300.800 139.693 C 301.328 140.022,301.600 140.626,301.600 141.466 C 301.600 142.240,301.992 143.204,302.600 143.927 C 303.150 144.581,303.600 145.382,303.600 145.709 C 303.600 146.035,303.870 146.526,304.200 146.800 C 304.530 147.074,304.800 147.743,304.800 148.286 C 304.800 148.938,305.072 149.346,305.600 149.484 C 306.272 149.660,306.400 150.030,306.400 151.793 C 306.400 153.286,306.631 154.186,307.200 154.909 C 307.778 155.644,308.000 156.532,308.000 158.109 C 308.000 159.686,308.222 160.574,308.800 161.309 C 309.421 162.099,309.601 162.938,309.606 165.063 C 309.609 166.708,309.842 168.199,310.189 168.800 C 311.425 170.942,311.551 171.740,311.830 179.162 C 311.988 183.377,312.271 186.920,312.459 187.036 C 312.906 187.313,312.903 191.889,312.455 192.166 C 312.266 192.283,311.985 196.029,311.832 200.489 C 311.576 207.964,311.485 208.694,310.677 209.800 C 309.964 210.776,309.773 211.672,309.657 214.593 C 309.538 217.562,309.382 218.277,308.757 218.715 C 308.142 219.146,308.000 219.750,308.000 221.926 C 308.000 224.174,307.871 224.688,307.200 225.107 C 306.575 225.497,306.400 226.040,306.400 227.584 C 306.400 228.802,306.196 229.683,305.868 229.880 C 305.240 230.257,304.000 232.667,304.000 233.509 C 304.000 233.831,303.460 234.709,302.800 235.461 C 301.899 236.487,301.600 237.222,301.600 238.411 C 301.600 239.560,301.381 240.130,300.800 240.493 C 300.238 240.844,300.000 241.426,300.000 242.450 C 300.000 243.570,299.815 243.955,299.200 244.116 C 298.721 244.241,298.400 244.662,298.400 245.163 C 298.400 245.623,298.175 246.006,297.900 246.013 C 297.181 246.032,295.916 248.876,296.408 249.368 C 297.063 250.023,296.851 250.400,295.829 250.400 C 294.784 250.400,293.600 251.338,293.600 252.167 C 293.600 252.447,293.240 253.002,292.800 253.400 C 292.360 253.798,292.000 254.545,292.000 255.059 C 292.000 255.573,291.640 256.218,291.200 256.493 C 290.760 256.768,290.400 257.288,290.400 257.650 C 290.400 258.011,290.040 258.401,289.600 258.516 C 289.160 258.631,288.800 259.012,288.800 259.363 C 288.800 259.713,288.546 260.000,288.236 260.000 C 287.465 260.000,285.600 262.283,285.600 263.227 C 285.600 263.649,285.240 264.218,284.800 264.493 C 284.360 264.768,284.000 265.309,284.000 265.696 C 284.000 266.133,283.697 266.400,283.200 266.400 C 282.683 266.400,282.400 266.667,282.400 267.153 C 282.400 267.570,282.043 268.000,281.600 268.116 C 281.160 268.231,280.800 268.612,280.800 268.963 C 280.800 269.313,280.472 269.600,280.072 269.600 C 279.262 269.600,276.000 273.014,276.000 273.861 C 276.000 274.157,275.640 274.400,275.200 274.400 C 274.667 274.400,274.400 274.667,274.400 275.200 C 274.400 275.822,274.133 276.000,273.203 276.000 C 272.440 276.000,271.826 276.290,271.507 276.800 C 271.232 277.240,270.765 277.600,270.468 277.600 C 269.750 277.600,266.400 281.072,266.400 281.815 C 266.400 282.198,265.986 282.400,265.203 282.400 C 264.440 282.400,263.826 282.690,263.507 283.200 C 263.232 283.640,262.608 284.000,262.119 284.000 C 261.631 284.000,260.909 284.339,260.516 284.753 C 260.122 285.168,259.215 285.632,258.500 285.785 C 257.785 285.938,257.200 286.303,257.200 286.596 C 257.200 286.889,256.390 287.521,255.400 288.000 C 254.199 288.582,253.600 289.126,253.600 289.636 C 253.600 290.261,253.308 290.400,252.000 290.400 C 250.933 290.400,250.133 290.667,249.600 291.200 C 249.097 291.703,248.267 292.000,247.363 292.000 C 246.262 292.000,245.876 292.187,245.716 292.800 C 245.544 293.457,245.170 293.600,243.625 293.600 C 242.117 293.600,241.572 293.798,240.875 294.600 C 240.397 295.150,239.589 295.600,239.079 295.600 C 238.570 295.600,237.804 295.864,237.376 296.187 C 236.949 296.510,236.178 296.780,235.663 296.787 C 235.068 296.795,234.649 297.093,234.516 297.600 C 234.332 298.302,233.970 298.400,231.557 298.400 C 229.240 298.400,228.728 298.526,228.307 299.200 C 227.860 299.916,227.374 300.000,223.700 300.000 C 220.087 300.000,219.510 300.096,218.907 300.800 C 217.834 302.053,182.075 302.053,181.293 300.800 C 180.843 300.080,180.360 300.000,176.443 300.000 C 172.430 300.000,172.077 299.938,171.884 299.200 C 171.698 298.489,171.338 298.400,168.637 298.400 C 166.360 298.400,165.600 298.265,165.600 297.862 C 165.600 296.972,164.301 296.104,162.539 295.815 C 161.625 295.665,160.285 295.106,159.561 294.571 C 158.733 293.961,157.702 293.600,156.784 293.600 C 155.832 293.600,155.072 293.322,154.600 292.800 C 154.161 292.315,153.368 292.000,152.585 292.000 C 151.630 292.000,151.239 291.792,151.084 291.200 C 150.918 290.564,150.538 290.400,149.237 290.400 C 148.049 290.400,147.600 290.236,147.600 289.800 C 147.600 289.470,147.354 289.200,147.054 289.200 C 146.754 289.200,146.050 288.840,145.491 288.400 C 144.931 287.960,144.187 287.600,143.837 287.600 C 143.487 287.600,143.200 287.433,143.200 287.229 C 143.200 286.535,141.947 285.600,141.018 285.600 C 140.430 285.600,140.017 285.309,139.884 284.800 C 139.725 284.194,139.338 284.000,138.284 284.000 C 137.230 284.000,136.843 283.806,136.684 283.200 C 136.524 282.587,136.138 282.400,135.037 282.400 C 134.046 282.400,133.600 282.219,133.600 281.818 C 133.600 281.498,133.150 280.786,132.600 280.236 C 132.050 279.686,131.600 278.966,131.600 278.636 C 131.600 278.267,131.061 277.935,130.200 277.774 C 129.381 277.620,128.800 277.275,128.800 276.943 C 128.800 276.631,128.485 276.262,128.100 276.123 C 127.715 275.985,127.078 275.541,126.684 275.136 C 126.291 274.731,125.526 274.400,124.984 274.400 C 124.275 274.400,124.000 274.182,124.000 273.621 C 124.000 273.192,123.550 272.356,123.000 271.762 C 122.450 271.169,122.000 270.547,122.000 270.381 C 122.000 270.214,121.458 269.889,120.795 269.658 C 120.132 269.427,119.483 268.959,119.352 268.619 C 119.221 268.279,118.774 268.000,118.357 268.000 C 117.867 268.000,117.600 267.718,117.600 267.200 C 117.600 266.667,117.333 266.400,116.800 266.400 C 116.183 266.400,116.000 266.133,116.000 265.236 C 116.000 263.758,113.122 260.000,111.991 260.000 C 111.467 260.000,111.200 259.730,111.200 259.200 C 111.200 258.667,110.933 258.400,110.400 258.400 C 109.903 258.400,109.600 258.133,109.600 257.696 C 109.600 257.309,109.240 256.768,108.800 256.493 C 108.254 256.152,108.000 255.560,108.000 254.629 C 108.000 253.600,107.632 252.878,106.500 251.688 C 104.466 249.550,103.200 247.758,103.200 247.020 C 103.200 246.683,102.840 246.182,102.400 245.907 C 101.858 245.569,101.600 244.974,101.600 244.066 C 101.600 243.062,101.399 242.673,100.800 242.516 C 100.207 242.361,100.000 241.970,100.000 241.007 C 100.000 240.293,99.666 239.279,99.258 238.754 C 98.850 238.229,98.393 237.132,98.243 236.315 C 98.002 235.010,97.800 234.799,96.566 234.567 C 95.222 234.315,95.192 234.272,95.843 233.552 C 96.477 232.852,96.478 232.750,95.862 232.069 C 95.498 231.666,95.200 231.019,95.200 230.631 C 95.200 230.243,94.840 229.831,94.400 229.716 C 93.719 229.538,93.600 229.170,93.600 227.250 C 93.600 225.426,93.446 224.897,92.800 224.493 C 92.116 224.066,92.000 223.560,92.000 221.012 C 92.000 218.599,91.855 217.895,91.239 217.316 C 90.615 216.730,90.452 215.901,90.339 212.741 C 90.225 209.583,90.056 208.724,89.409 208.009 C 87.656 206.074,87.570 175.024,89.310 172.600 C 90.009 171.627,90.203 170.681,90.337 167.600 C 90.464 164.670,90.674 163.582,91.251 162.846 C 91.826 162.113,92.000 161.220,92.000 158.993 C 92.000 156.430,92.093 156.069,92.800 155.884 C 93.511 155.698,93.600 155.338,93.600 152.637 C 93.600 150.089,93.706 149.600,94.256 149.600 C 95.057 149.600,95.970 148.467,95.987 147.453 C 95.994 147.042,96.540 146.091,97.200 145.339 C 97.910 144.531,98.400 143.524,98.400 142.875 C 98.400 142.272,98.760 141.470,99.200 141.093 C 99.640 140.716,100.000 139.956,100.000 139.404 C 100.000 138.852,100.360 138.040,100.800 137.600 C 101.325 137.075,101.600 136.267,101.600 135.247 C 101.600 134.030,101.773 133.648,102.400 133.484 C 102.840 133.369,103.200 132.963,103.200 132.582 C 103.200 132.201,103.920 131.108,104.800 130.154 C 105.680 129.199,106.400 128.165,106.400 127.856 C 106.400 127.546,106.760 127.199,107.200 127.084 C 107.813 126.924,108.000 126.538,108.000 125.437 C 108.000 124.389,108.172 124.000,108.637 124.000 C 108.988 124.000,109.366 123.652,109.477 123.228 C 109.588 122.803,109.934 122.358,110.245 122.238 C 110.557 122.118,110.988 121.558,111.202 120.994 C 111.417 120.429,112.139 119.659,112.808 119.283 C 113.476 118.908,114.124 118.208,114.247 117.729 C 114.371 117.251,114.816 116.548,115.236 116.167 C 115.656 115.787,116.000 115.255,116.000 114.985 C 116.000 114.714,116.360 114.399,116.800 114.284 C 117.240 114.169,117.600 113.777,117.600 113.414 C 117.600 112.443,120.018 109.600,120.844 109.600 C 121.235 109.600,121.790 109.273,122.077 108.874 C 122.365 108.474,122.915 108.030,123.300 107.886 C 123.685 107.743,124.000 107.349,124.000 107.013 C 124.000 106.676,124.228 106.400,124.506 106.400 C 124.785 106.400,126.090 105.324,127.406 104.009 C 128.723 102.694,130.105 101.614,130.477 101.609 C 130.850 101.604,131.390 101.273,131.677 100.874 C 131.965 100.474,132.515 100.030,132.900 99.886 C 133.285 99.743,133.600 99.349,133.600 99.013 C 133.600 98.636,133.963 98.400,134.542 98.400 C 135.059 98.400,135.955 97.995,136.531 97.500 C 137.107 97.005,138.124 96.181,138.789 95.670 C 139.455 95.158,140.000 94.483,140.000 94.170 C 140.000 93.782,140.461 93.600,141.437 93.600 C 142.538 93.600,142.924 93.413,143.084 92.800 C 143.243 92.194,143.630 92.000,144.684 92.000 C 145.738 92.000,146.125 91.806,146.284 91.200 C 146.440 90.603,146.830 90.400,147.816 90.400 C 148.643 90.400,149.584 90.025,150.327 89.400 C 150.981 88.850,151.701 88.400,151.927 88.400 C 152.153 88.400,153.164 87.770,154.173 87.000 C 155.481 86.001,156.418 85.600,157.441 85.600 C 158.538 85.600,158.924 85.412,159.084 84.800 C 159.266 84.106,159.630 84.000,161.831 84.000 C 163.792 84.000,164.531 83.829,165.084 83.250 C 165.566 82.745,166.551 82.440,168.094 82.317 C 169.507 82.205,170.686 81.865,171.164 81.433 C 171.657 80.986,173.082 80.592,175.070 80.351 C 178.299 79.961,180.761 79.090,181.320 78.142 C 181.922 77.121,218.167 77.367,219.200 78.400 M102.657 80.200 C 101.998 80.860,101.421 81.013,101.779 80.434 C 101.903 80.233,101.779 79.977,101.502 79.866 C 101.226 79.754,101.508 79.649,102.129 79.632 C 103.132 79.604,103.190 79.667,102.657 80.200 M270.372 99.949 C 270.394 100.374,270.274 100.393,269.841 100.034 C 269.517 99.766,269.378 99.207,269.508 98.707 C 269.750 97.782,270.302 98.575,270.372 99.949 M168.400 148.786 C 168.400 148.998,168.760 149.365,169.200 149.600 C 170.081 150.072,170.275 149.635,169.520 148.880 C 168.942 148.302,168.400 148.256,168.400 148.786 M258.078 150.376 C 258.361 150.829,258.830 151.200,259.120 151.200 C 259.801 151.200,259.380 150.525,258.359 149.978 C 257.628 149.587,257.605 149.619,258.078 150.376 M102.535 150.500 C 102.002 151.353,102.053 151.955,102.639 151.730 C 102.948 151.611,103.200 151.174,103.200 150.757 C 103.200 149.879,102.977 149.793,102.535 150.500 M121.417 151.600 C 121.621 151.930,121.791 152.320,121.794 152.467 C 121.807 153.049,122.400 153.292,122.400 152.716 C 122.400 152.376,122.095 151.851,121.723 151.549 C 121.139 151.075,121.097 151.082,121.417 151.600 M101.792 188.600 C 101.792 208.620,101.840 216.751,101.900 206.670 C 101.959 196.588,101.959 180.208,101.900 170.270 C 101.840 160.331,101.792 168.580,101.792 188.600 M149.692 169.724 C 149.627 181.801,149.473 186.769,149.170 186.582 C 148.934 186.436,148.979 186.698,149.270 187.165 C 149.871 188.128,150.116 178.148,149.900 161.500 C 149.836 156.605,149.743 160.306,149.692 169.724 M177.571 155.454 C 178.027 156.034,178.400 156.726,178.400 156.992 C 178.400 157.258,178.760 157.802,179.200 158.200 C 179.640 158.598,180.000 158.742,180.000 158.520 C 180.000 158.070,177.285 154.400,176.953 154.400 C 176.837 154.400,177.115 154.874,177.571 155.454 M127.200 160.122 C 127.200 160.495,127.474 160.800,127.810 160.800 C 128.145 160.800,128.591 161.250,128.800 161.800 C 129.009 162.350,129.365 162.800,129.590 162.800 C 130.330 162.800,130.022 162.178,128.600 160.800 C 127.550 159.783,127.200 159.613,127.200 160.122 M311.467 162.216 C 311.467 162.495,311.219 162.629,310.916 162.512 C 310.613 162.396,310.462 162.205,310.579 162.087 C 310.697 161.970,310.570 161.603,310.297 161.273 C 309.863 160.747,309.905 160.737,310.633 161.190 C 311.092 161.476,311.467 161.937,311.467 162.216 M197.634 163.958 C 196.314 165.624,196.162 166.000,196.810 166.000 C 197.035 166.000,197.408 165.505,197.638 164.901 C 197.868 164.296,198.341 163.486,198.690 163.101 C 199.039 162.715,199.221 162.400,199.096 162.400 C 198.970 162.400,198.312 163.101,197.634 163.958 M236.800 167.800 C 237.079 168.136,237.951 168.400,238.782 168.400 C 239.835 168.400,240.267 168.226,240.267 167.800 C 240.267 167.347,239.780 167.200,238.284 167.200 C 236.568 167.200,236.369 167.280,236.800 167.800 M247.733 167.815 C 247.733 168.285,248.132 168.409,249.426 168.342 C 250.639 168.280,251.062 168.105,250.917 167.727 C 250.617 166.946,247.733 167.025,247.733 167.815 M266.920 171.219 C 266.084 171.858,265.115 172.656,264.766 172.991 C 264.418 173.326,263.936 173.600,263.694 173.600 C 263.453 173.600,263.194 174.005,263.118 174.500 C 263.035 175.048,262.750 175.348,262.391 175.267 C 262.066 175.193,261.933 175.267,262.097 175.430 C 262.260 175.593,262.221 175.934,262.011 176.187 C 261.084 177.303,262.422 179.313,264.712 180.246 C 264.774 180.271,264.556 180.811,264.228 181.446 C 263.900 182.081,263.526 183.115,263.397 183.745 C 263.123 185.079,261.600 184.215,261.600 182.725 C 261.600 182.313,261.285 181.857,260.900 181.714 C 260.515 181.570,259.965 181.126,259.677 180.726 C 258.878 179.616,245.597 179.624,244.516 180.736 C 244.122 181.141,243.485 181.585,243.100 181.723 C 242.715 181.862,242.396 182.386,242.391 182.887 C 242.386 183.443,241.598 184.582,240.381 185.797 C 237.521 188.649,236.552 194.537,238.574 196.772 C 239.390 197.672,240.800 200.391,240.800 201.062 C 240.800 201.333,241.127 201.790,241.526 202.077 C 241.926 202.365,242.370 202.915,242.514 203.300 C 242.692 203.779,243.206 204.000,244.141 204.000 C 245.170 204.000,245.558 204.197,245.716 204.800 C 245.914 205.556,246.262 205.600,252.000 205.600 C 257.738 205.600,258.086 205.556,258.284 204.800 C 258.443 204.194,258.830 204.000,259.884 204.000 C 260.869 204.000,261.330 203.796,261.465 203.300 C 261.869 201.818,263.600 201.000,263.600 202.292 C 263.600 202.914,263.880 203.822,264.223 204.312 C 264.566 204.801,264.717 205.426,264.559 205.701 C 264.401 205.975,264.421 206.065,264.603 205.899 C 264.786 205.734,265.307 205.914,265.761 206.299 C 266.545 206.965,266.559 206.965,266.044 206.300 C 265.537 205.645,265.732 205.599,269.051 205.592 C 277.743 205.572,283.160 205.375,283.467 205.068 C 283.650 204.885,283.856 201.330,283.924 197.168 L 284.048 189.600 285.574 189.600 C 287.473 189.600,287.600 190.063,287.600 196.961 C 287.600 200.482,287.754 202.043,288.161 202.622 C 288.469 203.062,288.784 203.868,288.861 204.411 C 289.032 205.624,297.007 206.196,297.948 205.063 C 298.844 203.983,298.373 185.587,297.435 185.043 C 296.163 184.306,295.200 183.237,295.200 182.563 C 295.200 182.212,294.857 181.835,294.437 181.726 C 294.017 181.616,293.584 181.183,293.474 180.763 C 293.285 180.040,292.786 180.000,283.837 180.000 L 274.400 180.000 274.395 177.100 C 274.387 173.019,274.179 172.470,272.524 172.159 C 271.761 172.016,271.046 171.664,270.936 171.377 C 270.438 170.079,268.509 170.003,266.920 171.219 M193.600 171.400 C 193.192 171.891,193.220 172.000,193.751 172.000 C 194.108 172.000,194.400 171.730,194.400 171.400 C 194.400 171.070,194.332 170.800,194.249 170.800 C 194.166 170.800,193.874 171.070,193.600 171.400 M269.214 171.894 C 268.892 172.020,268.293 172.501,267.883 172.962 C 267.474 173.423,267.285 173.530,267.463 173.200 C 267.642 172.870,267.813 172.465,267.844 172.300 C 267.875 172.135,267.923 171.910,267.950 171.800 C 267.978 171.690,268.405 171.614,268.900 171.632 C 269.488 171.652,269.597 171.743,269.214 171.894 M137.548 172.537 C 137.793 172.832,137.928 173.147,137.849 173.237 C 137.770 173.327,138.264 173.850,138.946 174.400 L 140.186 175.400 138.826 173.700 C 138.078 172.765,137.384 172.000,137.284 172.000 C 137.184 172.000,137.303 172.242,137.548 172.537 M51.829 182.000 C 51.829 182.440,51.687 182.800,51.514 182.800 C 51.341 182.800,51.200 182.440,51.200 182.000 C 51.200 181.560,51.341 181.200,51.514 181.200 C 51.687 181.200,51.829 181.560,51.829 182.000 M265.600 188.047 C 265.600 188.267,265.420 188.336,265.200 188.200 C 264.980 188.064,264.800 188.173,264.800 188.443 C 264.800 188.713,264.706 188.839,264.591 188.724 C 264.250 188.383,264.851 187.185,265.242 187.426 C 265.439 187.548,265.600 187.827,265.600 188.047 M125.200 187.725 C 125.200 187.794,125.785 188.379,126.500 189.025 L 127.800 190.200 126.625 188.900 C 125.530 187.688,125.200 187.416,125.200 187.725 M85.763 189.000 C 86.124 189.550,86.263 190.000,86.073 190.000 C 85.884 190.000,85.523 189.550,85.273 189.000 C 85.022 188.450,84.883 188.000,84.963 188.000 C 85.043 188.000,85.403 188.450,85.763 189.000 M253.600 192.800 L 253.600 196.000 252.000 196.000 L 250.400 196.000 250.400 192.800 L 250.400 189.600 252.000 189.600 L 253.600 189.600 253.600 192.800 M178.400 193.935 C 178.400 194.122,178.760 194.602,179.200 195.000 C 179.815 195.557,180.000 195.593,180.000 195.158 C 180.000 194.847,179.640 194.368,179.200 194.093 C 178.760 193.818,178.400 193.747,178.400 193.935 M201.600 194.113 C 200.296 195.172,199.699 196.185,200.691 195.656 C 201.181 195.395,201.772 194.826,202.005 194.391 C 202.492 193.481,202.430 193.438,201.600 194.113 M283.200 197.557 C 283.200 200.110,283.075 200.762,282.546 200.965 C 281.989 201.179,281.929 200.995,282.142 199.708 C 282.279 198.879,282.393 197.345,282.396 196.300 C 282.398 195.255,282.580 194.400,282.800 194.400 C 283.033 194.400,283.200 195.719,283.200 197.557 M199.200 211.200 C 199.200 224.397,199.268 226.041,199.800 225.600 C 200.312 225.175,200.400 223.069,200.400 211.200 C 200.400 199.331,200.312 197.225,199.800 196.800 C 199.268 196.359,199.200 198.003,199.200 211.200 M53.600 204.447 C 53.600 204.641,53.398 204.800,53.151 204.800 C 52.841 204.800,52.856 204.985,53.200 205.400 C 53.544 205.815,53.559 206.000,53.249 206.000 C 53.002 206.000,52.778 205.820,52.750 205.600 C 52.651 204.811,52.583 204.593,52.293 204.137 C 52.094 203.824,52.257 203.742,52.799 203.884 C 53.240 203.999,53.600 204.252,53.600 204.447 M226.138 204.579 C 226.392 205.118,226.938 205.647,227.352 205.756 C 227.945 205.911,227.866 205.704,226.977 204.776 C 225.610 203.349,225.550 203.335,226.138 204.579 M268.000 209.800 C 268.000 210.130,268.287 210.400,268.637 210.400 C 268.988 210.400,269.365 210.743,269.474 211.163 C 269.584 211.583,270.044 212.023,270.497 212.141 C 271.122 212.305,270.949 211.977,269.779 210.778 C 268.038 208.995,268.000 208.975,268.000 209.800 M234.006 210.638 C 234.018 211.332,234.711 212.096,235.184 211.939 C 235.493 211.836,235.367 211.513,234.831 211.028 C 234.374 210.614,234.003 210.439,234.006 210.638 M219.322 225.420 C 219.940 225.959,220.642 226.400,220.884 226.400 C 221.592 226.400,220.032 224.901,219.074 224.660 C 218.294 224.464,218.321 224.546,219.322 225.420 M234.999 229.998 C 235.134 230.217,235.603 230.587,236.041 230.822 C 236.772 231.213,236.795 231.181,236.322 230.424 C 236.039 229.971,235.570 229.600,235.280 229.600 C 234.990 229.600,234.863 229.779,234.999 229.998 M70.000 259.181 C 70.000 259.364,69.750 259.610,69.445 259.727 C 69.057 259.876,68.951 259.711,69.091 259.175 C 69.279 258.454,70.000 258.459,70.000 259.181 M71.046 260.634 C 71.117 261.116,71.017 261.146,70.572 260.777 C 70.262 260.520,70.115 260.138,70.244 259.928 C 70.532 259.462,70.925 259.808,71.046 260.634 M310.000 288.770 C 310.000 288.901,309.660 289.220,309.244 289.480 C 308.598 289.883,308.515 289.848,308.673 289.243 C 308.840 288.605,310.000 288.192,310.000 288.770 M150.271 293.190 C 150.336 293.613,150.256 294.042,150.093 294.142 C 149.930 294.243,149.790 293.810,149.782 293.179 C 149.766 291.937,150.081 291.944,150.271 293.190 M249.194 292.900 C 249.179 294.080,248.505 294.584,247.756 293.974 C 247.125 293.461,247.079 293.476,247.321 294.121 C 247.483 294.554,247.433 294.744,247.195 294.597 C 246.581 294.217,246.730 293.200,247.400 293.200 C 247.730 293.200,248.000 293.410,248.000 293.667 C 248.000 294.185,248.571 293.746,248.650 293.167 C 248.737 292.527,248.795 292.400,249.000 292.400 C 249.110 292.400,249.197 292.625,249.194 292.900 M185.208 303.995 C 184.886 304.194,184.528 304.252,184.412 304.123 C 184.295 303.995,184.426 303.810,184.702 303.711 C 184.979 303.612,185.087 303.322,184.944 303.066 C 184.790 302.791,184.910 302.812,185.238 303.117 C 185.711 303.557,185.707 303.687,185.208 303.995 M189.600 303.800 C 189.600 304.165,189.247 304.388,188.700 304.368 C 188.182 304.350,188.031 304.245,188.345 304.120 C 188.806 303.937,188.806 303.849,188.345 303.558 C 187.945 303.304,188.039 303.211,188.700 303.206 C 189.236 303.202,189.600 303.443,189.600 303.800 M118.237 311.697 C 118.437 311.533,118.467 311.563,118.303 311.763 C 118.140 311.963,118.190 312.347,118.414 312.616 C 118.700 312.961,118.646 313.174,118.231 313.333 C 117.834 313.485,117.713 313.370,117.862 312.983 C 117.984 312.665,117.796 312.296,117.442 312.161 C 117.089 312.025,116.800 311.732,116.800 311.508 C 116.800 311.253,116.999 311.267,117.337 311.548 C 117.632 311.793,118.037 311.860,118.237 311.697 M208.800 336.908 C 209.130 337.034,208.815 337.151,208.100 337.168 C 207.385 337.186,206.800 337.009,206.800 336.776 C 206.800 336.543,206.980 336.464,207.200 336.600 C 207.420 336.736,207.603 336.612,207.606 336.324 C 207.610 335.968,207.706 335.941,207.906 336.240 C 208.068 336.482,208.470 336.783,208.800 336.908 M219.112 336.465 C 219.026 336.721,218.606 336.979,218.178 337.040 C 217.408 337.148,217.408 337.143,218.176 336.575 C 219.117 335.878,219.315 335.855,219.112 336.465 M192.700 337.076 C 192.315 337.176,191.685 337.176,191.300 337.076 C 190.915 336.975,191.230 336.893,192.000 336.893 C 192.770 336.893,193.085 336.975,192.700 337.076 " stroke="none" fill="#6c6c74" fill-rule="evenodd"></path><path id="path2" d="M150.640 149.264 C 149.858 150.380,150.540 150.832,151.522 149.849 C 151.987 149.384,152.045 149.085,151.729 148.769 C 151.414 148.454,151.112 148.591,150.640 149.264 M120.267 150.267 C 120.120 150.413,120.003 150.728,120.006 150.967 C 120.009 151.205,120.187 151.130,120.400 150.800 C 120.740 150.274,120.789 150.278,120.794 150.833 C 120.797 151.182,121.071 151.467,121.402 151.467 C 121.915 151.467,121.906 151.359,121.340 150.733 C 120.582 149.896,120.621 149.913,120.267 150.267 M260.234 152.257 C 260.029 152.789,260.090 152.823,260.555 152.437 C 260.946 152.113,261.211 152.095,261.388 152.381 C 261.531 152.611,261.862 152.794,262.124 152.787 C 262.613 152.774,261.271 151.600,260.766 151.600 C 260.612 151.600,260.372 151.895,260.234 152.257 M175.200 152.800 C 175.200 153.547,175.307 153.653,175.680 153.280 C 176.053 152.907,176.053 152.693,175.680 152.320 C 175.307 151.947,175.200 152.053,175.200 152.800 M202.538 156.617 C 202.408 156.957,202.413 157.347,202.551 157.484 C 202.688 157.621,202.800 157.447,202.800 157.096 C 202.800 156.745,203.115 156.376,203.500 156.276 C 204.156 156.104,204.155 156.090,203.487 156.046 C 203.096 156.021,202.668 156.278,202.538 156.617 M271.600 158.338 C 271.600 158.877,273.111 160.096,273.583 159.939 C 274.179 159.740,272.917 158.000,272.177 158.000 C 271.860 158.000,271.600 158.152,271.600 158.338 M200.617 159.830 C 200.117 160.594,200.046 161.006,200.363 161.323 C 200.679 161.639,200.800 161.539,200.800 160.960 C 200.800 160.520,201.013 159.947,201.273 159.687 C 201.534 159.426,201.648 159.115,201.528 158.994 C 201.407 158.874,200.997 159.250,200.617 159.830 M184.008 166.532 C 184.554 167.045,185.253 167.465,185.563 167.466 C 185.897 167.466,185.684 167.087,185.040 166.533 C 183.627 165.318,182.715 165.317,184.008 166.532 M240.200 167.600 C 240.041 167.857,241.404 168.000,244.000 168.000 C 246.596 168.000,247.959 167.857,247.800 167.600 C 247.664 167.380,245.954 167.200,244.000 167.200 C 242.046 167.200,240.336 167.380,240.200 167.600 M136.471 171.462 C 136.542 171.826,136.931 172.173,137.335 172.232 C 138.034 172.334,138.036 172.303,137.373 171.570 C 136.519 170.626,136.302 170.601,136.471 171.462 M190.473 174.998 C 189.987 175.616,189.686 176.220,189.806 176.339 C 190.160 176.693,191.709 174.927,191.526 174.378 C 191.420 174.059,191.032 174.287,190.473 174.998 M223.467 179.067 C 222.860 179.674,223.172 180.922,223.800 180.400 C 224.130 180.126,224.400 179.654,224.400 179.351 C 224.400 178.768,223.913 178.620,223.467 179.067 M174.000 187.371 C 174.000 187.960,175.986 189.747,176.296 189.437 C 176.531 189.202,174.735 186.800,174.325 186.800 C 174.146 186.800,174.000 187.057,174.000 187.371 M127.588 190.778 C 127.817 191.205,128.183 191.666,128.402 191.801 C 128.966 192.150,128.898 191.058,128.320 190.480 C 127.573 189.733,127.126 189.915,127.588 190.778 M176.800 190.700 C 176.800 190.869,177.160 191.232,177.600 191.507 C 178.040 191.782,178.400 191.869,178.400 191.700 C 178.400 191.531,178.040 191.168,177.600 190.893 C 177.160 190.618,176.800 190.531,176.800 190.700 M223.134 200.031 C 223.235 201.083,223.429 201.531,223.677 201.283 C 224.160 200.800,223.942 198.708,223.389 198.527 C 223.137 198.445,223.038 199.025,223.134 200.031 M203.028 200.355 C 202.907 200.550,203.077 200.932,203.404 201.204 C 203.818 201.547,204.000 201.561,204.000 201.249 C 204.000 201.002,203.775 200.797,203.500 200.794 C 203.167 200.790,203.200 200.658,203.600 200.400 C 203.961 200.167,204.010 200.010,203.724 200.006 C 203.462 200.003,203.149 200.160,203.028 200.355 M227.757 206.633 C 227.891 206.981,228.000 207.341,228.000 207.433 C 228.000 207.525,228.270 207.600,228.600 207.600 C 228.930 207.600,229.200 207.870,229.200 208.200 C 229.200 208.530,229.505 208.800,229.878 208.800 C 230.387 208.800,230.217 208.450,229.200 207.400 C 227.699 205.851,227.395 205.690,227.757 206.633 M265.867 206.267 C 265.720 206.413,265.603 206.728,265.606 206.967 C 265.609 207.205,265.787 207.130,266.000 206.800 C 266.331 206.287,266.389 206.302,266.394 206.900 C 266.397 207.285,266.698 207.600,267.062 207.600 C 267.657 207.600,267.651 207.519,267.000 206.800 C 266.176 205.890,266.222 205.911,265.867 206.267 M142.768 210.955 C 143.301 211.528,143.836 211.898,143.957 211.777 C 144.078 211.656,143.942 211.411,143.654 211.234 C 143.367 211.056,143.157 210.751,143.187 210.555 C 143.217 210.360,142.918 210.136,142.521 210.057 C 141.919 209.937,141.960 210.086,142.768 210.955 M208.300 213.029 C 208.135 213.196,208.000 213.459,208.000 213.612 C 208.000 214.066,210.102 216.031,210.336 215.797 C 210.455 215.678,210.170 215.314,209.703 214.987 C 209.237 214.660,208.797 214.017,208.727 213.559 C 208.657 213.100,208.465 212.861,208.300 213.029 M148.600 218.400 C 149.453 219.342,150.071 219.451,149.746 218.602 C 149.619 218.274,149.355 218.104,149.158 218.226 C 148.961 218.348,148.800 218.257,148.800 218.024 C 148.800 217.791,148.592 217.600,148.338 217.600 C 148.076 217.600,148.189 217.946,148.600 218.400 M273.314 220.700 C 272.827 221.195,272.615 221.600,272.843 221.600 C 273.388 221.600,274.501 220.476,274.332 220.096 C 274.259 219.933,273.801 220.205,273.314 220.700 M270.000 223.090 C 269.670 223.215,269.256 223.561,269.080 223.859 C 268.904 224.156,268.469 224.400,268.113 224.400 C 267.758 224.400,267.579 224.512,267.716 224.650 C 267.854 224.787,267.569 225.231,267.083 225.636 C 266.597 226.042,266.419 226.379,266.687 226.387 C 266.954 226.394,268.085 225.590,269.200 224.600 C 271.152 222.866,271.293 222.601,270.000 223.090 M102.388 226.378 C 102.877 227.292,103.600 227.816,103.600 227.256 C 103.600 226.407,103.085 225.600,102.543 225.600 C 102.101 225.600,102.066 225.776,102.388 226.378 M238.600 231.600 C 238.744 231.833,240.996 232.000,244.000 232.000 C 247.004 232.000,249.256 231.833,249.400 231.600 C 249.560 231.341,247.663 231.200,244.000 231.200 C 240.337 231.200,238.440 231.341,238.600 231.600 " stroke="none" fill="#2070c0" fill-rule="evenodd"></path><path id="path3" d="" stroke="none" fill="#54709c" fill-rule="evenodd"></path><path id="path4" d="M274.768 63.500 C 274.329 64.080,274.329 64.120,274.768 63.731 C 275.059 63.473,275.575 63.369,275.914 63.499 C 276.319 63.655,276.432 63.575,276.242 63.268 C 275.837 62.613,275.386 62.684,274.768 63.500 M101.502 79.866 C 101.779 79.977,101.903 80.233,101.779 80.434 C 101.421 81.013,101.998 80.860,102.657 80.200 C 103.190 79.667,103.132 79.604,102.129 79.632 C 101.508 79.649,101.226 79.754,101.502 79.866 M269.508 98.707 C 269.378 99.207,269.517 99.766,269.841 100.034 C 270.480 100.565,270.564 99.964,270.039 98.621 C 269.747 97.875,269.725 97.878,269.508 98.707 M310.297 161.273 C 310.570 161.603,310.697 161.970,310.579 162.087 C 310.462 162.205,310.613 162.396,310.916 162.512 C 311.787 162.847,311.556 161.765,310.633 161.190 C 309.905 160.737,309.863 160.747,310.297 161.273 M267.950 171.800 C 267.923 171.910,267.875 172.135,267.844 172.300 C 267.813 172.465,267.642 172.870,267.463 173.200 C 267.285 173.530,267.474 173.423,267.883 172.962 C 268.293 172.501,268.892 172.020,269.214 171.894 C 269.597 171.743,269.488 171.652,268.900 171.632 C 268.405 171.614,267.978 171.690,267.950 171.800 M51.200 182.000 C 51.200 182.440,51.341 182.800,51.514 182.800 C 51.687 182.800,51.829 182.440,51.829 182.000 C 51.829 181.560,51.687 181.200,51.514 181.200 C 51.341 181.200,51.200 181.560,51.200 182.000 M264.632 187.860 C 264.494 188.220,264.475 188.609,264.591 188.724 C 264.706 188.839,264.800 188.713,264.800 188.443 C 264.800 188.173,264.980 188.064,265.200 188.200 C 265.420 188.336,265.600 188.267,265.600 188.047 C 265.600 187.327,264.890 187.189,264.632 187.860 M85.273 189.000 C 85.523 189.550,85.884 190.000,86.073 190.000 C 86.263 190.000,86.124 189.550,85.763 189.000 C 85.403 188.450,85.043 188.000,84.963 188.000 C 84.883 188.000,85.022 188.450,85.273 189.000 M282.396 196.300 C 282.393 197.345,282.279 198.879,282.142 199.708 C 281.929 200.995,281.989 201.179,282.546 200.965 C 283.299 200.676,283.542 194.400,282.800 194.400 C 282.580 194.400,282.398 195.255,282.396 196.300 M52.293 204.137 C 52.583 204.593,52.651 204.811,52.750 205.600 C 52.778 205.820,53.002 206.000,53.249 206.000 C 53.559 206.000,53.544 205.815,53.200 205.400 C 52.856 204.985,52.841 204.800,53.151 204.800 C 53.913 204.800,53.646 204.105,52.799 203.884 C 52.257 203.742,52.094 203.824,52.293 204.137 M69.091 259.175 C 68.951 259.711,69.057 259.876,69.445 259.727 C 70.075 259.486,70.172 258.954,69.645 258.628 C 69.450 258.508,69.201 258.754,69.091 259.175 M70.244 259.928 C 70.115 260.138,70.262 260.520,70.572 260.777 C 71.017 261.146,71.117 261.116,71.046 260.634 C 70.925 259.808,70.532 259.462,70.244 259.928 M308.673 289.243 C 308.515 289.848,308.598 289.883,309.244 289.480 C 310.143 288.918,310.218 288.533,309.429 288.533 C 309.115 288.533,308.775 288.853,308.673 289.243 M149.782 293.179 C 149.790 293.810,149.930 294.243,150.093 294.142 C 150.256 294.042,150.336 293.613,150.271 293.190 C 150.081 291.944,149.766 291.937,149.782 293.179 M248.750 292.600 C 248.722 292.710,248.678 292.965,248.650 293.167 C 248.571 293.746,248.000 294.185,248.000 293.667 C 248.000 293.410,247.730 293.200,247.400 293.200 C 246.730 293.200,246.581 294.217,247.195 294.597 C 247.433 294.744,247.483 294.554,247.321 294.121 C 247.079 293.476,247.125 293.461,247.756 293.974 C 248.505 294.584,249.179 294.080,249.194 292.900 C 249.200 292.420,248.853 292.186,248.750 292.600 M184.944 303.066 C 185.087 303.322,184.979 303.612,184.702 303.711 C 184.426 303.810,184.295 303.995,184.412 304.123 C 184.528 304.252,184.886 304.194,185.208 303.995 C 185.707 303.687,185.711 303.557,185.238 303.117 C 184.910 302.812,184.790 302.791,184.944 303.066 M188.345 303.558 C 188.806 303.849,188.806 303.937,188.345 304.120 C 188.031 304.245,188.182 304.350,188.700 304.368 C 189.247 304.388,189.600 304.165,189.600 303.800 C 189.600 303.443,189.236 303.202,188.700 303.206 C 188.039 303.211,187.945 303.304,188.345 303.558 M116.800 311.508 C 116.800 311.732,117.089 312.025,117.442 312.161 C 117.796 312.296,117.984 312.665,117.862 312.983 C 117.713 313.370,117.834 313.485,118.231 313.333 C 118.646 313.174,118.700 312.961,118.414 312.616 C 118.190 312.347,118.140 311.963,118.303 311.763 C 118.467 311.563,118.437 311.533,118.237 311.697 C 118.037 311.860,117.632 311.793,117.337 311.548 C 116.999 311.267,116.800 311.253,116.800 311.508 M207.606 336.324 C 207.603 336.612,207.420 336.736,207.200 336.600 C 206.980 336.464,206.800 336.543,206.800 336.776 C 206.800 337.009,207.385 337.186,208.100 337.168 C 208.815 337.151,209.130 337.034,208.800 336.908 C 208.470 336.783,208.068 336.482,207.906 336.240 C 207.706 335.941,207.610 335.968,207.606 336.324 M218.176 336.575 C 217.408 337.143,217.408 337.148,218.178 337.040 C 218.606 336.979,219.026 336.721,219.112 336.465 C 219.315 335.855,219.117 335.878,218.176 336.575 M191.300 337.076 C 191.685 337.176,192.315 337.176,192.700 337.076 C 193.085 336.975,192.770 336.893,192.000 336.893 C 191.230 336.893,190.915 336.975,191.300 337.076 " stroke="none" fill="#707074" fill-rule="evenodd"></path></g></svg>