<?xml version="1.0" standalone="no"?>
<!DOCTYPE svg PUBLIC "-//W3C//DTD SVG 20010904//EN"
 "http://www.w3.org/TR/2001/REC-SVG-20010904/DTD/svg10.dtd">
<svg version="1.0" xmlns="http://www.w3.org/2000/svg"
 width="120.000000pt" height="120.000000pt" viewBox="0 0 120.000000 120.000000"
 preserveAspectRatio="xMidYMid meet">

<g transform="translate(0.000000,120.000000) scale(0.100000,-0.100000)"
fill="#000000" stroke="none">
<path d="M525 1056 c-119 -25 -204 -77 -271 -168 -167 -227 -80 -541 183 -660
40 -18 67 -22 163 -22 109 -1 118 1 183 31 172 81 277 275 247 454 -42 246
-273 413 -505 365z m228 -110 c72 -35 149 -119 176 -191 28 -74 28 -176 0
-250 -27 -73 -104 -156 -177 -192 -50 -25 -68 -28 -152 -28 -85 0 -101 3 -148
28 -75 39 -124 87 -163 159 -32 59 -34 69 -34 158 0 84 3 101 28 147 49 94
115 152 215 190 61 22 188 12 255 -21z"/>
<path d="M320 635 c0 -100 1 -105 21 -105 19 0 20 5 17 70 -2 39 0 70 3 70 4
0 30 -31 60 -70 29 -38 59 -70 66 -70 10 0 13 25 13 105 0 100 -1 105 -21 105
-20 0 -21 -4 -17 -65 2 -36 1 -65 -3 -65 -3 0 -28 29 -55 65 -27 36 -57 65
-66 65 -16 0 -18 -12 -18 -105z"/>
<path d="M600 694 l-29 -47 -23 39 -23 39 -3 -28 c-2 -16 4 -39 12 -52 9 -13
16 -45 16 -70 0 -38 3 -45 20 -45 17 0 20 7 20 46 0 32 7 55 24 77 13 18 31
44 41 60 17 26 17 27 -4 27 -15 0 -31 -15 -51 -46z"/>
<path d="M658 684 c-21 -30 -38 -62 -38 -70 0 -28 28 -70 55 -82 56 -26 159
-3 129 28 -9 9 -17 9 -32 1 -74 -40 -146 33 -107 108 18 36 56 49 96 34 21 -8
31 -8 39 1 13 16 -28 36 -73 36 -27 -1 -37 -9 -69 -56z"/>
<path d="M734 635 c-3 -8 -4 -20 -1 -27 3 -7 6 -2 6 11 1 18 5 22 21 18 11 -3
18 -1 14 4 -8 14 -34 11 -40 -6z"/>
<path d="M802 625 c0 -16 2 -22 5 -12 2 9 2 23 0 30 -3 6 -5 -1 -5 -18z"/>
<path d="M832 625 c0 -16 2 -22 5 -12 2 9 2 23 0 30 -3 6 -5 -1 -5 -18z"/>
</g>
</svg>
