<?xml version="1.0" encoding="UTF-8" standalone="no"?>
<svg
   xmlns:dc="http://purl.org/dc/elements/1.1/"
   xmlns:cc="http://creativecommons.org/ns#"
   xmlns:rdf="http://www.w3.org/1999/02/22-rdf-syntax-ns#"
   xmlns:svg="http://www.w3.org/2000/svg"
   xmlns="http://www.w3.org/2000/svg"
   xmlns:xlink="http://www.w3.org/1999/xlink"
   xmlns:sodipodi="http://sodipodi.sourceforge.net/DTD/sodipodi-0.dtd"
   xmlns:inkscape="http://www.inkscape.org/namespaces/inkscape"
   height="120"
   width="120"
   version="1.1"
   id="svg4247"
   inkscape:version="1.0.2 (e86c870879, 2021-01-15)"
   sodipodi:docname="paxg.svg"
   inkscape:export-xdpi="96"
   inkscape:export-ydpi="96">
  <metadata
     id="metadata4259">
    <rdf:RDF>
      <cc:Work
         rdf:about="">
        <dc:format>image/svg+xml</dc:format>
        <dc:type
           rdf:resource="http://purl.org/dc/dcmitype/StillImage" />
        <dc:title></dc:title>
      </cc:Work>
    </rdf:RDF>
  </metadata>
  <defs
     id="defs4257">
    <linearGradient
       inkscape:collect="always"
       id="linearGradient4761">
      <stop
         style="stop-color:#1a1a1a;stop-opacity:1;"
         offset="0"
         id="stop4763" />
      <stop
         style="stop-color:#1a1a1a;stop-opacity:0;"
         offset="1"
         id="stop4765" />
    </linearGradient>
    <linearGradient
       inkscape:collect="always"
       xlink:href="#linearGradient4761"
       id="linearGradient4769"
       x1="-409.44958"
       y1="-20.942795"
       x2="-57.60104"
       y2="133.44374"
       gradientUnits="userSpaceOnUse"
       gradientTransform="matrix(-1.0090909,0,0,-1.0090909,-74.103737,135.33971)" />
    <clipPath
       clipPathUnits="userSpaceOnUse"
       id="clipPath16">
      <path
         d="m 0,0 275.05,0 0,269.777 L 0,269.777 0,0 Z"
         id="path18"
         inkscape:connector-curvature="0" />
    </clipPath>
    <circle
       r="585.6"
       cy="618"
       cx="618"
       id="SVGID_1_" />
    <mask
       id="mask"
       x="0"
       y="4.82"
       width="23.84"
       height="54.6"
       maskUnits="userSpaceOnUse">
      <g
         id="mask-2">
        <polygon
           id="path-1"
           points="0 4.82 23.84 4.82 23.84 59.42 0 59.42 0 4.82"
           style="fill:#fff;fill-rule:evenodd" />
      </g>
    </mask>
  </defs>
  <sodipodi:namedview
     pagecolor="#ffffff"
     bordercolor="#666666"
     borderopacity="1"
     objecttolerance="3.2"
     gridtolerance="7"
     guidetolerance="6.3"
     inkscape:pageopacity="0"
     inkscape:pageshadow="2"
     inkscape:window-width="2560"
     inkscape:window-height="1413"
     id="namedview4255"
     showgrid="false"
     inkscape:zoom="1.6230469"
     inkscape:cx="-92.80131"
     inkscape:cy="202.29483"
     inkscape:window-x="0"
     inkscape:window-y="27"
     inkscape:window-maximized="1"
     inkscape:current-layer="svg4247"
     inkscape:document-rotation="0"
     showborder="true"
     inkscape:pagecheckerboard="false" />
  <path
     style="fill:url(#linearGradient4769);fill-opacity:1;stroke:none;stroke-opacity:1"
     inkscape:connector-curvature="0"
     id="path4251-6"
     d="M 6.6612254,48.073886 C 14.074737,18.341792 44.19189,0.24725348 73.930899,7.6616275 103.65782,15.074269 121.75447,45.189649 114.33749,74.920005 106.92746,104.65554 76.810279,122.75183 47.079931,115.33918 17.342646,107.92654 -0.7522758,77.807711 6.6612254,48.073886 Z" />
  <path
     style="fill:#ffffff;stroke:none;stroke-opacity:1;fill-opacity:1"
     inkscape:connector-curvature="0"
     id="path4251"
     d="M 113.35374,73.305173 C 106.00702,102.76941 76.161184,120.70094 46.690076,113.35336 17.231001,106.0075 -0.70262839,76.163426 6.6475295,46.700911 13.990812,17.233241 43.836647,-0.70001494 73.29916,6.6458482 c 29.46939,7.3458628 47.4013,37.1933738 40.05458,66.6593248 z" />
  <path
     style="fill:#ffffff"
     inkscape:connector-curvature="0"
     d="m 56.785734,74.692498 3.57241,-13.45166 8.457786,-3.089967 2.103756,-7.90549 -0.07183,-0.196109 -8.325488,3.041524 5.998561,-22.586923 -17.012125,0 -7.844734,29.476456 -6.549806,2.392728 -2.164226,8.150041 6.544795,-2.390723 -4.623452,17.371832 45.276019,0 2.902561,-10.811709 -28.264228,0"
     id="path4985" />
  <path
     style="fill:#ffffff;fill-rule:nonzero"
     inkscape:connector-curvature="0"
     d="M 77.899062,41.210625 C 75.231563,34.431875 68.542187,33.82 60.752813,35.3325 l -2.774063,-9.669688 -5.885,1.687813 2.701875,9.41875 c -1.546875,0.44 -3.12125,0.928125 -4.685313,1.409375 l -2.715625,-9.480625 -5.881562,1.684375 2.767187,9.669688 c -1.265,0.391875 -2.509375,0.776875 -3.729687,1.127499 l -0.01031,-0.03437 -8.119375,2.327187 1.804688,6.290625 c 0,0 4.324375,-1.33375 4.272812,-1.230625 2.385625,-0.684062 3.557813,0.477812 4.125,1.60875 l 3.1625,11.01375 c 0.161563,-0.04469 0.378125,-0.09969 0.6325,-0.1375 l -0.622187,0.17875 4.424062,15.434375 c 0.11,0.780313 0.01375,2.10375 -1.65,2.585 0.09281,0.04469 -4.283125,1.22375 -4.283125,1.22375 l 0.849063,7.366563 7.65875,-2.2 c 1.426562,-0.402188 2.835937,-0.780313 4.214375,-1.16875 l 2.808437,9.779687 5.878125,-1.684375 -2.774062,-9.676562 a 225.98125,225.98125 0 0 0 4.71625,-1.30625 L 70.395,91.185 l 5.888437,-1.687812 -2.798125,-9.7625 c 9.731563,-3.406563 15.943125,-7.885625 14.138438,-17.428125 -1.450625,-7.679375 -5.92625,-10.01 -11.931563,-9.74875 2.915,-2.715625 4.169688,-6.386875 2.206875,-11.34375 z M 75.664688,64.4825 c 2.096875,7.311563 -10.656251,10.068438 -14.64375,11.216562 L 57.305,62.739688 c 3.9875,-1.144688 16.17,-5.878126 18.35625,1.74625 z M 67.682813,46.985625 c 1.904374,6.651563 -8.755313,8.86875 -12.079375,9.820938 L 52.234688,45.05375 c 3.320625,-0.952187 13.457812,-5.001562 15.448125,1.935313 z"
     id="path5145" />
  <style
     id="style5548">.st0{fill:#988430}.st1{fill:#7a6a2a}.st2{fill:#ba9f33}.st3,.st4,.st5,.st6{clip-path:url(#SVGID_2_);fill:#e2cc85}.st4,.st5,.st6{fill:#f1d789}.st5,.st6{fill:#f4ecb4}.st6{fill:#f3e19d}.st10,.st11,.st7,.st8,.st9{clip-path:url(#SVGID_2_);fill:#f2e8b0}.st10,.st11,.st8,.st9{fill:#f5eec0}.st10,.st11,.st9{fill:#e6db9d}.st10,.st11{fill:#e5cb7a}.st11{fill:#d8c173}.st12,.st13,.st14,.st15,.st16{clip-path:url(#SVGID_2_);fill:#e0cd81}.st13,.st14,.st15,.st16{fill:#dfc57c}.st14,.st15,.st16{fill:#e5cc7c}.st15,.st16{fill:#d2c281}.st16{fill:#e2c270}.st17,.st18,.st19,.st20,.st21{clip-path:url(#SVGID_2_);fill:#ccb360}.st18,.st19,.st20,.st21{fill:#d5b457}.st19,.st20,.st21{fill:#d2b257}.st20,.st21{fill:#d2b159}.st21{fill:#c2a44d}.st22,.st23,.st24,.st25,.st26{clip-path:url(#SVGID_2_);fill:#caa13e}.st23,.st24,.st25,.st26{fill:#b59544}.st24,.st25,.st26{fill:#c89d3a}.st25,.st26{fill:#ceb052}.st26{fill:#cca847}.st27,.st28,.st29,.st30,.st31{clip-path:url(#SVGID_2_);fill:#c39d3c}.st28,.st29,.st30,.st31{fill:#d2ba6b}.st29,.st30,.st31{fill:#c0993a}.st30,.st31{fill:#a88f33}.st31{fill:#e3c571}.st32,.st33,.st34,.st35,.st36{clip-path:url(#SVGID_2_);fill:#d8b65b}.st33,.st34,.st35,.st36{fill:#d3ae4d}.st34,.st35,.st36{fill:#f4efc8}.st35,.st36{fill:#ebcc73}.st36{fill:#e5c66b}.st37,.st38,.st39,.st40,.st41{clip-path:url(#SVGID_2_);fill:#e6bd62}.st38,.st39,.st40,.st41{fill:#b6933f}.st39,.st40,.st41{fill:#c49937}.st40,.st41{fill:#dfc068}.st41{fill:#c99e3d}.st42,.st43,.st44,.st45,.st46{clip-path:url(#SVGID_2_);fill:#b58634}.st43,.st44,.st45,.st46{fill:#e6c367}.st44,.st45,.st46{fill:#dcba5a}.st45,.st46{fill:#e9ce77}.st46{fill:#cdae50}.st47,.st48,.st49,.st50,.st51{clip-path:url(#SVGID_2_);fill:#d2a83e}.st48,.st49,.st50,.st51{fill:#c29637}.st49,.st50,.st51{fill:#ac8132}.st50,.st51{fill:#a67a2e}.st51{fill:#8c6228}.st52,.st53,.st54,.st55,.st56{clip-path:url(#SVGID_2_);fill:#cba94c}.st53,.st54,.st55,.st56{fill:#be9c44}.st54,.st55,.st56{fill:#a17c34}.st55,.st56{fill:#92723a}.st56{fill:#b18e3e}.st57,.st58,.st59,.st60,.st61{clip-path:url(#SVGID_2_);fill:#543e26}.st58,.st59,.st60,.st61{fill:#806031}.st59,.st60,.st61{fill:#b6903c}.st60,.st61{fill:#685026}.st61{fill:#d4b968}.st62,.st63,.st64,.st65,.st66{clip-path:url(#SVGID_2_);fill:#cca849}.st63,.st64,.st65,.st66{fill:#585136}.st64,.st65,.st66{fill:#252211}.st65,.st66{fill:#c3b378}.st66{fill:#e6d89c}.st67,.st68,.st69,.st70,.st71{clip-path:url(#SVGID_2_);fill:#6f674d}.st68,.st69,.st70,.st71{fill:#ac924c}.st69,.st70,.st71{fill:#9f8e57}.st70,.st71{fill:#eac970}.st71{fill:#d7bc6b}.st72,.st73,.st74,.st75,.st76{clip-path:url(#SVGID_2_);fill:#453a25}.st73,.st74,.st75,.st76{fill:#84754b}.st74,.st75,.st76{fill:#f7f7e7}.st75,.st76{fill:#f8f6de}.st76{fill:#d4c38b}.st77,.st78,.st79,.st80,.st81{clip-path:url(#SVGID_2_);fill:#e2d59d}.st78,.st79,.st80,.st81{fill:#cbac5a}.st79,.st80,.st81{fill:#d6bc6f}.st80,.st81{fill:#dfc677}.st81{fill:#c4a859}.st82,.st83,.st84,.st85,.st86{clip-path:url(#SVGID_2_);fill:#927d49}.st83,.st84,.st85,.st86{fill:#6e6342}.st84,.st85,.st86{fill:#39331f}.st85,.st86{fill:#292311}.st86{fill:#3f3824}.st87,.st88,.st89,.st90,.st91{clip-path:url(#SVGID_2_);fill:#2d2815}.st88,.st89,.st90,.st91{fill:#82764f}.st89,.st90,.st91{fill:#2d2816}.st90,.st91{fill:#574f35}.st91{fill:none}.st92,.st93,.st94,.st95,.st96{clip-path:url(#SVGID_2_);fill:#cfb66c}.st93,.st94,.st95,.st96{fill:#dec270}.st94,.st95,.st96{fill:#cbaf59}.st95,.st96{fill:#e3c677}.st96{fill:#ecd592}.st97{opacity:.8;fill:#fff;enable-background:new}</style>
  <path
     style="fill:#ffffff;fill-opacity:1;stroke:#000000;stroke-opacity:1;stroke-width:0.5;stroke-miterlimit:4;stroke-dasharray:none;opacity:0.5"
     inkscape:connector-curvature="0"
     d="M 115,59.999706 C 115,90.375523 90.376003,115.00004 60.000335,115.00004 29.624333,115.00004 5,90.375523 5,59.999706 5,29.624223 29.624333,5.0000396 60.000335,5.0000396 90.375668,5.0000396 115,29.624223 115,59.999706"
     id="path6359" />
  <g
     id="g128"
     transform="matrix(1.237272,0,0,1.237272,17.142879,18.169921)">
    <g
       id="Group-3">
      <g
         id="Fill-1-Clipped">
        <g
           mask="url(#mask)"
           id="g102">
          <path
             id="Fill-1"
             d="m 20,8.84 c 1.37,-1.56 2.63,-2.88 3.83,-4 -20.26,-0.65 -14.36,14 -21,28.87 -7.6,17.14 0.9,23.67 13.56,25.71 a 27.56,27.56 0 0 1 -4.28,-7 C 3.94,42.09 7.25,23.26 20,8.84"
             style="fill:#efe812" />
        </g>
      </g>
    </g>
    <path
       id="Fill-4"
       d="M 68.75,27.1 A 57.87,57.87 0 0 1 58.52,44.23 49.09,49.09 0 0 1 46.09,55 33.56,33.56 0 0 1 27.75,60.21 72.2,72.2 0 0 1 16.43,59.42 23.14,23.14 0 0 0 24,65.35 C 42.32,74.21 43.47,57.76 62.85,49.41 73.73,44.72 73.77,35.56 68.74,27.1"
       style="fill:#ede70a" />
    <path
       id="Fill-6"
       d="m 46.09,10 a 24.07,24.07 0 0 1 7.56,2.68 42.17,42.17 0 0 1 15.1,14.42 C 72.05,17.8 70.51,10.5 63.3,9.18 55.36,7.73 49.16,7.26 43.2,3.1 35.86,-2 29.42,-0.34 23.84,4.85 l 1.21,0.05 c 7.74,0.46 15.14,2 21,5.08"
       style="fill:#ede70a" />
    <path
       id="Fill-8"
       d="M 20,8.84 C 7.25,23.26 3.94,42.09 12.15,52.42 a 31.36,31.36 0 0 1 1.77,-28 C 20.83,12.9 34.7,7.9 46.09,10 40.19,6.88 32.79,5.38 25.09,4.92 L 23.88,4.86 C 22.64,6 21.38,7.28 20,8.84"
       style="fill:#dec21c" />
    <path
       id="Fill-10"
       d="M 53.65,12.66 A 24.07,24.07 0 0 0 46.09,10 C 53.85,14.08 59,21 59,31.94 A 27.53,27.53 0 0 1 46.09,55 48.89,48.89 0 0 0 58.52,44.23 57.87,57.87 0 0 0 68.75,27.1 42.17,42.17 0 0 0 53.65,12.66"
       style="fill:#e5cb22" />
    <path
       id="Fill-12"
       d="M 46.09,10 C 34.7,7.9 20.83,12.9 13.92,24.37 a 31.33,31.33 0 0 0 -1.77,28.05 27.28,27.28 0 0 0 4.28,7 72.2,72.2 0 0 0 11.32,0.79 A 33.56,33.56 0 0 0 46.09,55 27.52,27.52 0 0 0 59,31.94 C 59,21 53.85,14.08 46.09,10 M 44.81,49.8 A 18.94,18.94 0 0 1 18.69,44.18 c -5.66,-8.73 -2.86,-20 5.63,-26 9.5,-6.75 21.68,-4.09 26.12,5.62 4.33,9.46 3.14,20.39 -5.63,26"
       style="fill:#cca727" />
  </g>
</svg>
