<?xml version="1.0" encoding="UTF-8" standalone="no"?>
<!-- Created with Inkscape (http://www.inkscape.org/) -->

<svg
   xmlns:dc="http://purl.org/dc/elements/1.1/"
   xmlns:cc="http://creativecommons.org/ns#"
   xmlns:rdf="http://www.w3.org/1999/02/22-rdf-syntax-ns#"
   xmlns:svg="http://www.w3.org/2000/svg"
   xmlns="http://www.w3.org/2000/svg"
   xmlns:xlink="http://www.w3.org/1999/xlink"
   xmlns:sodipodi="http://sodipodi.sourceforge.net/DTD/sodipodi-0.dtd"
   xmlns:inkscape="http://www.inkscape.org/namespaces/inkscape"
   height="120"
   width="120"
   version="1.1"
   id="svg4247"
   inkscape:version="0.91 r13725"
   sodipodi:docname="rep.svg"
   inkscape:export-filename="/home/kkyovsky/projects/batm/batm_main/batm_public/server_extensions_extra/src/main/resources/bat.png"
   inkscape:export-xdpi="96.213844"
   inkscape:export-ydpi="96.213844">
  <metadata
     id="metadata4259">
    <rdf:RDF>
      <cc:Work
         rdf:about="">
        <dc:format>image/svg+xml</dc:format>
        <dc:type
           rdf:resource="http://purl.org/dc/dcmitype/StillImage" />
        <dc:title></dc:title>
      </cc:Work>
    </rdf:RDF>
  </metadata>
  <defs
     id="defs4257">
    <linearGradient
       inkscape:collect="always"
       id="linearGradient4761">
      <stop
         style="stop-color:#1a1a1a;stop-opacity:1;"
         offset="0"
         id="stop4763" />
      <stop
         style="stop-color:#1a1a1a;stop-opacity:0;"
         offset="1"
         id="stop4765" />
    </linearGradient>
    <linearGradient
       inkscape:collect="always"
       xlink:href="#linearGradient4761"
       id="linearGradient4769"
       x1="-409.44958"
       y1="-20.942795"
       x2="-57.60104"
       y2="133.44374"
       gradientUnits="userSpaceOnUse"
       gradientTransform="matrix(-1.0090909,0,0,-1.0090909,-74.103737,135.33971)" />
    <clipPath
       clipPathUnits="userSpaceOnUse"
       id="clipPath16">
      <path
         d="m 0,0 275.05,0 0,269.777 L 0,269.777 0,0 Z"
         id="path18"
         inkscape:connector-curvature="0" />
    </clipPath>
    <circle
       r="585.6"
       cy="618"
       cx="618"
       id="SVGID_1_" />
    <path
       d="M0 0h40.473v43.768H0z"
       id="a" />
    <clipPath
       clipPathUnits="userSpaceOnUse"
       id="clipPath16-3">
      <path
         d="m 0,1500 1500,0 L 1500,0 0,0 0,1500 Z"
         id="path18-6"
         inkscape:connector-curvature="0" />
    </clipPath>
  </defs>
  <sodipodi:namedview
     pagecolor="#ffffff"
     bordercolor="#666666"
     borderopacity="1"
     objecttolerance="10"
     gridtolerance="10"
     guidetolerance="10"
     inkscape:pageopacity="0"
     inkscape:pageshadow="2"
     inkscape:window-width="1920"
     inkscape:window-height="1023"
     id="namedview4255"
     showgrid="false"
     inkscape:zoom="2.8284271"
     inkscape:cx="95.698276"
     inkscape:cy="6.2114395"
     inkscape:window-x="0"
     inkscape:window-y="27"
     inkscape:window-maximized="1"
     inkscape:current-layer="svg4247"
     showguides="true"
     inkscape:guide-bbox="true">
    <sodipodi:guide
       position="60.280853,80.25662"
       orientation="1,0"
       id="guide4361" />
    <sodipodi:guide
       position="128.69343,62.225397"
       orientation="0,1"
       id="guide4497" />
  </sodipodi:namedview>
  <path
     style="fill:url(#linearGradient4769);fill-opacity:1;stroke:none;stroke-opacity:1"
     inkscape:connector-curvature="0"
     id="path4251-6"
     d="M 6.6612254,48.073886 C 14.074737,18.341792 44.19189,0.24725348 73.930899,7.6616275 103.65782,15.074269 121.75447,45.189649 114.33749,74.920005 106.92746,104.65554 76.810279,122.75183 47.079931,115.33918 17.342646,107.92654 -0.7522758,77.807711 6.6612254,48.073886 Z" />
  <path
     style="fill:#ffffff;stroke:none;stroke-opacity:1;fill-opacity:1"
     inkscape:connector-curvature="0"
     id="path4251"
     d="M 113.35374,73.305173 C 106.00702,102.76941 76.161184,120.70094 46.690076,113.35336 17.231001,106.0075 -0.70262839,76.163426 6.6475295,46.700911 13.990812,17.233241 43.836647,-0.70001494 73.29916,6.6458482 c 29.46939,7.3458628 47.4013,37.1933738 40.05458,66.6593248 z" />
  <path
     style="fill:#ffffff"
     inkscape:connector-curvature="0"
     d="m 56.785734,74.692498 3.57241,-13.45166 8.457786,-3.089967 2.103756,-7.90549 -0.07183,-0.196109 -8.325488,3.041524 5.998561,-22.586923 -17.012125,0 -7.844734,29.476456 -6.549806,2.392728 -2.164226,8.150041 6.544795,-2.390723 -4.623452,17.371832 45.276019,0 2.902561,-10.811709 -28.264228,0"
     id="path4985" />
  <path
     style="fill:#ffffff;fill-rule:nonzero"
     inkscape:connector-curvature="0"
     d="M 77.899062,41.210625 C 75.231563,34.431875 68.542187,33.82 60.752813,35.3325 l -2.774063,-9.669688 -5.885,1.687813 2.701875,9.41875 c -1.546875,0.44 -3.12125,0.928125 -4.685313,1.409375 l -2.715625,-9.480625 -5.881562,1.684375 2.767187,9.669688 c -1.265,0.391875 -2.509375,0.776875 -3.729687,1.127499 l -0.01031,-0.03437 -8.119375,2.327187 1.804688,6.290625 c 0,0 4.324375,-1.33375 4.272812,-1.230625 2.385625,-0.684062 3.557813,0.477812 4.125,1.60875 l 3.1625,11.01375 c 0.161563,-0.04469 0.378125,-0.09969 0.6325,-0.1375 l -0.622187,0.17875 4.424062,15.434375 c 0.11,0.780313 0.01375,2.10375 -1.65,2.585 0.09281,0.04469 -4.283125,1.22375 -4.283125,1.22375 l 0.849063,7.366563 7.65875,-2.2 c 1.426562,-0.402188 2.835937,-0.780313 4.214375,-1.16875 l 2.808437,9.779687 5.878125,-1.684375 -2.774062,-9.676562 a 225.98125,225.98125 0 0 0 4.71625,-1.30625 L 70.395,91.185 l 5.888437,-1.687812 -2.798125,-9.7625 c 9.731563,-3.406563 15.943125,-7.885625 14.138438,-17.428125 -1.450625,-7.679375 -5.92625,-10.01 -11.931563,-9.74875 2.915,-2.715625 4.169688,-6.386875 2.206875,-11.34375 z M 75.664688,64.4825 c 2.096875,7.311563 -10.656251,10.068438 -14.64375,11.216562 L 57.305,62.739688 c 3.9875,-1.144688 16.17,-5.878126 18.35625,1.74625 z M 67.682813,46.985625 c 1.904374,6.651563 -8.755313,8.86875 -12.079375,9.820938 L 52.234688,45.05375 c 3.320625,-0.952187 13.457812,-5.001562 15.448125,1.935313 z"
     id="path5145" />
  <style
     id="style5548">.st0{fill:#988430}.st1{fill:#7a6a2a}.st2{fill:#ba9f33}.st3,.st4,.st5,.st6{clip-path:url(#SVGID_2_);fill:#e2cc85}.st4,.st5,.st6{fill:#f1d789}.st5,.st6{fill:#f4ecb4}.st6{fill:#f3e19d}.st10,.st11,.st7,.st8,.st9{clip-path:url(#SVGID_2_);fill:#f2e8b0}.st10,.st11,.st8,.st9{fill:#f5eec0}.st10,.st11,.st9{fill:#e6db9d}.st10,.st11{fill:#e5cb7a}.st11{fill:#d8c173}.st12,.st13,.st14,.st15,.st16{clip-path:url(#SVGID_2_);fill:#e0cd81}.st13,.st14,.st15,.st16{fill:#dfc57c}.st14,.st15,.st16{fill:#e5cc7c}.st15,.st16{fill:#d2c281}.st16{fill:#e2c270}.st17,.st18,.st19,.st20,.st21{clip-path:url(#SVGID_2_);fill:#ccb360}.st18,.st19,.st20,.st21{fill:#d5b457}.st19,.st20,.st21{fill:#d2b257}.st20,.st21{fill:#d2b159}.st21{fill:#c2a44d}.st22,.st23,.st24,.st25,.st26{clip-path:url(#SVGID_2_);fill:#caa13e}.st23,.st24,.st25,.st26{fill:#b59544}.st24,.st25,.st26{fill:#c89d3a}.st25,.st26{fill:#ceb052}.st26{fill:#cca847}.st27,.st28,.st29,.st30,.st31{clip-path:url(#SVGID_2_);fill:#c39d3c}.st28,.st29,.st30,.st31{fill:#d2ba6b}.st29,.st30,.st31{fill:#c0993a}.st30,.st31{fill:#a88f33}.st31{fill:#e3c571}.st32,.st33,.st34,.st35,.st36{clip-path:url(#SVGID_2_);fill:#d8b65b}.st33,.st34,.st35,.st36{fill:#d3ae4d}.st34,.st35,.st36{fill:#f4efc8}.st35,.st36{fill:#ebcc73}.st36{fill:#e5c66b}.st37,.st38,.st39,.st40,.st41{clip-path:url(#SVGID_2_);fill:#e6bd62}.st38,.st39,.st40,.st41{fill:#b6933f}.st39,.st40,.st41{fill:#c49937}.st40,.st41{fill:#dfc068}.st41{fill:#c99e3d}.st42,.st43,.st44,.st45,.st46{clip-path:url(#SVGID_2_);fill:#b58634}.st43,.st44,.st45,.st46{fill:#e6c367}.st44,.st45,.st46{fill:#dcba5a}.st45,.st46{fill:#e9ce77}.st46{fill:#cdae50}.st47,.st48,.st49,.st50,.st51{clip-path:url(#SVGID_2_);fill:#d2a83e}.st48,.st49,.st50,.st51{fill:#c29637}.st49,.st50,.st51{fill:#ac8132}.st50,.st51{fill:#a67a2e}.st51{fill:#8c6228}.st52,.st53,.st54,.st55,.st56{clip-path:url(#SVGID_2_);fill:#cba94c}.st53,.st54,.st55,.st56{fill:#be9c44}.st54,.st55,.st56{fill:#a17c34}.st55,.st56{fill:#92723a}.st56{fill:#b18e3e}.st57,.st58,.st59,.st60,.st61{clip-path:url(#SVGID_2_);fill:#543e26}.st58,.st59,.st60,.st61{fill:#806031}.st59,.st60,.st61{fill:#b6903c}.st60,.st61{fill:#685026}.st61{fill:#d4b968}.st62,.st63,.st64,.st65,.st66{clip-path:url(#SVGID_2_);fill:#cca849}.st63,.st64,.st65,.st66{fill:#585136}.st64,.st65,.st66{fill:#252211}.st65,.st66{fill:#c3b378}.st66{fill:#e6d89c}.st67,.st68,.st69,.st70,.st71{clip-path:url(#SVGID_2_);fill:#6f674d}.st68,.st69,.st70,.st71{fill:#ac924c}.st69,.st70,.st71{fill:#9f8e57}.st70,.st71{fill:#eac970}.st71{fill:#d7bc6b}.st72,.st73,.st74,.st75,.st76{clip-path:url(#SVGID_2_);fill:#453a25}.st73,.st74,.st75,.st76{fill:#84754b}.st74,.st75,.st76{fill:#f7f7e7}.st75,.st76{fill:#f8f6de}.st76{fill:#d4c38b}.st77,.st78,.st79,.st80,.st81{clip-path:url(#SVGID_2_);fill:#e2d59d}.st78,.st79,.st80,.st81{fill:#cbac5a}.st79,.st80,.st81{fill:#d6bc6f}.st80,.st81{fill:#dfc677}.st81{fill:#c4a859}.st82,.st83,.st84,.st85,.st86{clip-path:url(#SVGID_2_);fill:#927d49}.st83,.st84,.st85,.st86{fill:#6e6342}.st84,.st85,.st86{fill:#39331f}.st85,.st86{fill:#292311}.st86{fill:#3f3824}.st87,.st88,.st89,.st90,.st91{clip-path:url(#SVGID_2_);fill:#2d2815}.st88,.st89,.st90,.st91{fill:#82764f}.st89,.st90,.st91{fill:#2d2816}.st90,.st91{fill:#574f35}.st91{fill:none}.st92,.st93,.st94,.st95,.st96{clip-path:url(#SVGID_2_);fill:#cfb66c}.st93,.st94,.st95,.st96{fill:#dec270}.st94,.st95,.st96{fill:#cbaf59}.st95,.st96{fill:#e3c677}.st96{fill:#ecd592}.st97{opacity:.8;fill:#fff;enable-background:new}</style>
  <path
     style="fill:#ffffff;fill-opacity:1;stroke:#000000;stroke-opacity:1;stroke-width:0.5;stroke-miterlimit:4;stroke-dasharray:none;opacity:0.5"
     inkscape:connector-curvature="0"
     d="M 115,59.999706 C 115,90.375523 90.376003,115.00004 60.000335,115.00004 29.624333,115.00004 5,90.375523 5,59.999706 5,29.624223 29.624333,5.0000396 60.000335,5.0000396 90.375668,5.0000396 115,29.624223 115,59.999706"
     id="path6359" />
  <style
     id="style4340">.st0{fill:#1bbc9a}.st1{fill:#54697a}</style>
  <style
     id="style4467"
     type="text/css">
	.st0{opacity:0.3;enable-background:new    ;}
	.st1{fill:#662D91;}
	.st2{fill:#9E1F63;}
	.st3{fill:#FF5000;}
	.st4{fill:#FFFFFF;stroke:#FF5000;stroke-width:0.83;stroke-miterlimit:10;}
</style>
  <g
     transform="matrix(0.05887552,0,0,-0.05887552,15.520112,102.89659)"
     id="g12">
    <g
       id="g14"
       clip-path="url(#clipPath16-3)">
      <g
         id="g20"
         transform="translate(804.291,843.4346)">
        <path
           d="m 0,0 c 78.323,-19.835 138.914,-83.551 153.267,-164.105 l 2.047,-12.606 0.682,-4.99 c 8.65,-69.428 34.704,-89.719 99.301,-119.301 0.135,-0.06 0.27,-0.033 0.405,-0.088 l 234.359,-107.037 -529.124,-312.388 0,178.803 c 0,65.597 3.81,77.367 60.109,109.544 11.055,6.312 22.244,12.906 34.488,20.096 l 7.649,4.533 c 35.044,19.348 63.598,47.983 84.667,81.915 0.771,1.24 6.391,10.022 7.141,11.277 -3.656,1.829 -7.525,4.98 -12.095,9.094 -3.009,2.708 -7.481,7.981 -9.684,12.306 -18.433,-37.096 -46.435,-68.489 -82.273,-88.908 l -8.676,-5.136 c -12.081,-7.108 -24.406,-14.068 -35.434,-20.331 -69.028,-39.468 -74.515,-63.651 -74.515,-134.39 l 0,-178.991 -534.016,318.07 228.52,103.334 14.866,6.622 c 5.811,2.932 24.081,10.649 38.19,11.095 14.406,0.919 36.259,-0.041 48.017,-15.555 16.703,-21.885 32.688,-42.799 32.688,-42.799 25.19,-33.784 58.137,-61.426 97.489,-78.008 0,0 0.217,-0.142 0.352,-0.203 0.027,0 0.027,-0.014 0.027,-0.014 l 0,0.007 c 10.378,-4.385 21.541,-6.906 32.622,-9.581 2.271,4.527 5.869,9.794 9.155,14.064 2.374,3.087 5.936,6.887 9.26,10.448 -16.73,3.399 -35.983,8.887 -50.983,16.327 l -0.054,0.041 c -29.893,14.716 -55.748,35.317 -75.614,61.811 -0.297,0.357 -0.983,1.217 -1.253,1.623 -0.027,0.033 -0.784,1.121 -1.406,2.04 -2,2.771 -4.027,5.446 -5.892,8.312 -5.297,7.378 -13.324,18.372 -24.568,33.054 -7.568,9.947 -18.136,16.488 -29.38,20.69 0.028,-0.006 0.028,-0.02 0.028,-0.02 -12.136,4.5 -26.163,6.493 -41.461,6.385 -23.19,-0.783 -48.947,-13.581 -49.461,-13.838 l -8.027,-3.574 -0.027,0 -0.595,-0.264 -20.812,-9.27 c -0.135,-0.055 -0.135,-0.203 -0.243,-0.264 l -199.709,-90.32 531.8,877.823 0,-371.565 c 0,-64.211 -4.54,-78.232 -61.326,-110.692 -4.351,-2.487 -8.973,-4.764 -13.73,-7.081 -2.405,-1.203 -4.865,-2.501 -7.324,-3.751 -1.865,-0.858 -3.622,-1.871 -5.433,-2.79 -0.027,0 -0.081,-0.014 -0.081,-0.027 l -0.027,-0.014 c -74.516,-36.994 -126.517,-112.03 -131.058,-199.607 4.892,-1.372 12.298,-3.554 16.433,-4.845 3.027,-0.94 7.594,-3.29 11.46,-5.433 0.729,80.935 47.974,150.748 116.219,184.445 0.027,0.014 0.027,0.027 0.027,0.048 0.19,0.081 0.352,0.04 0.514,0.121 4.108,2.19 8.081,4.149 12,6.081 5.271,2.609 10.352,5.136 15.244,7.933 10.189,5.811 18.622,11.271 26.298,16.636 2.081,1.405 3.838,2.905 5.73,4.311 4.162,3.121 8.081,6.311 11.487,9.453 1.973,1.777 3.783,3.455 5.081,5.088 22.73,23.865 27.19,50.731 27.19,100.124 l 0,371.741 533.448,-885.966 -235.439,107.523 c -0.027,0.028 -0.081,-0.012 -0.136,0 -52.217,23.9 -68.089,43.875 -75.09,101.303 -0.095,0.782 -0.317,2.741 -0.506,3.471 C 169.358,-74.311 103.029,-0.615 15.904,25.147 9.952,26.907 5.269,28.35 4.141,28.665 2.347,22.771 -0.217,17.756 -1.67,15.191 -4.709,9.828 -7.804,6.093 -10.967,2.498 -9.634,2.188 -1.322,0.335 0,0 m -41.415,566.241 c -2.567,4.297 -7.217,6.926 -12.244,6.926 -5.027,0 -9.675,-2.629 -12.243,-6.899 l -580.802,-958.644 c -1.973,-3.243 -2.567,-7.183 -1.621,-10.872 0.892,-3.689 3.243,-6.879 6.54,-8.831 l 580.802,-345.943 c 2.243,-1.345 4.811,-2.014 7.324,-2.014 2.513,0 5.027,0.669 7.27,1.987 l 579.532,342.112 c 3.297,1.959 5.622,5.115 6.594,8.804 0.947,3.716 0.379,7.628 -1.622,10.899 l -579.53,962.475 z"
           style="fill:#412468;fill-opacity:1;fill-rule:nonzero;stroke:none"
           id="path22"
           inkscape:connector-curvature="0" />
      </g>
    </g>
  </g>
</svg>
