<svg id="Layer_1" data-name="Layer 1" xmlns="http://www.w3.org/2000/svg" xmlns:xlink="http://www.w3.org/1999/xlink" viewBox="0 0 120 120"><defs><style>.cls-1{fill:url(#linear-gradient);}.cls-2{fill:#fff;}.cls-3{fill:#f00500;}.cls-4{fill:none;}.cls-5{fill:#ffa409;}.cls-6{fill:#ff9300;}.cls-7{fill:#ff8300;}</style><linearGradient id="linear-gradient" x1="-661.81" y1="385.03" x2="-284.83" y2="219.62" gradientTransform="matrix(-1.01, 0, 0, 1.01, -320.1, -201.75)" gradientUnits="userSpaceOnUse"><stop offset="0"/><stop offset="1" stop-color="#1a1a1a" stop-opacity="0"/></linearGradient></defs><path id="path4251-6" class="cls-1" d="M2.32,46.15a59.45,59.45,0,1,1,43.3,72.07A59.45,59.45,0,0,1,2.32,46.15Z"/><path id="path4251" class="cls-2" d="M116.63,73.18A58.91,58.91,0,1,1,73.71,1.76,58.92,58.92,0,0,1,116.63,73.18Z"/><path id="path6359" class="cls-3" d="M118.39,58.93A58.93,58.93,0,1,1,59.46,0a58.93,58.93,0,0,1,58.93,58.93"/><g id="Group_938" data-name="Group 938"><g id="Group_931" data-name="Group 931"><path id="Path_8575" data-name="Path 8575" d="M85.46,66.82a4.74,4.74,0,0,1-1.4,1.44,24.32,24.32,0,0,1-9.22,3.48c-2.08.38-4.15.43-4.77.13-.41-.2-.47-.36-.32-.88a7,7,0,0,1,2.83-3.4c.78-.56,4-2.49,5.43-3.3A19.16,19.16,0,0,1,83.75,62a3,3,0,0,1,1.09,0c.26.1.55.87.67,1.8A25.51,25.51,0,0,1,85.46,66.82Z"/><path id="Path_8576" data-name="Path 8576" d="M51.31,71.62a1.53,1.53,0,0,1-1,.44A16.79,16.79,0,0,1,47.44,72a30.08,30.08,0,0,1-8.71-2.51,10.82,10.82,0,0,1-3-2L35.32,67l0-.55a14.29,14.29,0,0,1,.06-3,4,4,0,0,1,.44-1.27c.12-.15.12-.15.64-.15a6.19,6.19,0,0,1,2,.38,39.89,39.89,0,0,1,7.66,3.82c2.67,1.6,3.67,2.38,4.44,3.45A2.92,2.92,0,0,1,51.31,71.62Z"/><path id="Path_8577" data-name="Path 8577" d="M71.84,91.8s-.18.74-.4,1.57-.39,1.49-.39,1.52a2.36,2.36,0,0,1-.46,0h-.46l-.64,1.51c-.35.83-.67,1.6-.71,1.71l-.09.2-.3-.49-.31-.49v-4l-.11,0c-.25.06-2,.29-2.77.36a39.47,39.47,0,0,1-9.53-.2,7.83,7.83,0,0,0-1-.11s0,.94,0,2.08l0,2.06-.25.38c-.13.2-.26.38-.26.39s-.19-.19-.52-.86a9.82,9.82,0,0,1-.81-2.2l-.1-.42-.45,0-.45,0-.12-.53c-.06-.29-.13-.74-.16-1l0-.46-.38-.34c-.22-.18-.43-.37-.48-.4a.33.33,0,0,1-.1-.25v-.17h1.81l1.82,0,.05.18.06.19.63,0c.34,0,1.44,0,2.43.07l1.81,0,.47-.73.47-.72h.61V89.35l0-1.51L60,87.5c-2.57-1.13-4.08-2.43-4.64-4a5.43,5.43,0,0,1-.15-1.89,5.89,5.89,0,0,1,.09-1.88,2.12,2.12,0,0,1,1.49-1.48,35.81,35.81,0,0,1,4.32-.07h4l.45.22a2.46,2.46,0,0,1,1.09.86A2.37,2.37,0,0,1,67.14,81a12.69,12.69,0,0,1-.22,2.78,6.24,6.24,0,0,1-.84,1.67,7.63,7.63,0,0,1-3.25,2.27l-.34.13v1.53l0,1.52.31,0,.32,0,.44.65.42.65H66c1.07,0,2,0,2.1,0s.18,0,.32-.23l.18-.26h1.66A5.55,5.55,0,0,1,71.84,91.8Z"/><path id="Path_8578" data-name="Path 8578" d="M64.18,96c-.27.16-.46.23-.51.2s-.24-.18-.46-.34l-.39-.32-.41.43c-.88,1-.91,1-1.17,1-.41,0-.49,0-1-.77-.26-.38-.46-.7-.46-.7s-.19,0-.41,0l-.4,0-.19.39-.19.39-.33-.1a7.28,7.28,0,0,1-.77-.31l-.44-.21v-.83h3.86l3.86,0v.39C64.81,95.61,64.82,95.6,64.18,96Z"/></g><path id="Path_8579" data-name="Path 8579" class="cls-2" d="M100.42,78.28c0-.06,0-.16,0-.32a30.81,30.81,0,0,0-22.63,7s-3-13.63-16.88-13.63S41.8,85,41.8,85c-7.8-8.39-18.24-7.79-22-7.23,0,.08,0,.18,0,.27a12.71,12.71,0,0,0,.29,4.42c1.09,4.13,4.44,8.69,9.68,13.15,8.6,7.31,20.26,12.58,29.08,13.19,9.21.62,22.79-4.75,31.84-12.61a44.64,44.64,0,0,0,4-4,21.72,21.72,0,0,0,2.13-2.84s0,0,.06-.05.08-.08,0-.11,0,0,.06-.07S97,89,97,89s0-.06.06-.07.06-.06,0-.09,0-.06,0-.06.06,0,.06-.07,0-.07.06-.07a.06.06,0,0,0,0-.06,1.77,1.77,0,0,1,.19-.33c.22-.34,1.09-1.89,1.21-2.15a20.42,20.42,0,0,0,1.59-5.2A16.91,16.91,0,0,0,100.42,78.28ZM64.18,96c-.27.16-.46.23-.51.2s-.24-.18-.46-.34l-.39-.32-.41.43c-.88,1-.91,1-1.17,1-.41,0-.49,0-1-.77-.26-.38-.46-.7-.46-.7s-.19,0-.41,0l-.4,0-.19.39-.19.39-.33-.1a7.28,7.28,0,0,1-.77-.31l-.44-.21v-.83h3.86l3.86,0v.39C64.81,95.61,64.82,95.6,64.18,96Zm7.25-2.61c-.22.83-.39,1.5-.39,1.52a2.47,2.47,0,0,1-.47,0h-.46l-.62,1.52c-.35.83-.67,1.6-.71,1.71l-.09.2-.3-.49-.31-.49v-4l-.11,0c-.25.06-2,.29-2.77.36a39.47,39.47,0,0,1-9.53-.2,7.83,7.83,0,0,0-1-.11s0,.94,0,2.08l0,2.06-.25.38c-.13.2-.26.38-.26.39s-.19-.19-.52-.86a9.82,9.82,0,0,1-.81-2.2l-.1-.42-.45,0-.45,0-.12-.53c-.06-.29-.13-.74-.16-1l0-.46-.38-.34c-.22-.18-.43-.37-.48-.4a.33.33,0,0,1-.1-.25v-.17h1.81l1.82,0,.05.18.06.19.63,0c.34,0,1.44,0,2.43.07l1.81,0,.47-.73.47-.72h.61V89.35l0-1.51L60,87.5c-2.57-1.13-4.08-2.43-4.64-4a5.43,5.43,0,0,1-.15-1.89,5.89,5.89,0,0,1,.09-1.88,2.12,2.12,0,0,1,1.49-1.48,35.81,35.81,0,0,1,4.32-.07h4l.45.22a2.46,2.46,0,0,1,1.09.86A2.37,2.37,0,0,1,67.14,81a12.69,12.69,0,0,1-.22,2.78,6.24,6.24,0,0,1-.84,1.67,7.63,7.63,0,0,1-3.25,2.27l-.34.13v1.53l0,1.52.31,0,.32,0,.44.65.42.65H66c1.07,0,2,0,2.1,0s.18,0,.32-.23l.18-.26h1.66a7.91,7.91,0,0,1,1.67,0A11.3,11.3,0,0,0,71.43,93.35Z"/><path id="Path_8580" data-name="Path 8580" class="cls-4" d="M19.77,77.73a13.89,13.89,0,0,0-1.45.27"/><path id="Path_8581" data-name="Path 8581" class="cls-4" d="M101.68,78.15a10.46,10.46,0,0,0-1.29-.19"/><path id="Path_8582" data-name="Path 8582" class="cls-5" d="M100.31,76.8c0-.65-.09-1.57-.13-2a42.56,42.56,0,0,0-5.5-17.65,5.26,5.26,0,0,1-.32-.61l-.06-.12h0c.45-1.35,2.29-7,3.76-13.44,2-8.75,3.25-19-.61-22.06,0,0-6.67-.49-15.6,8.26A60.37,60.37,0,0,0,75.24,37l-.62-.21a45.17,45.17,0,0,0-11.08-2.14c-1.13-.09-5.34-.09-6.72,0a39.06,39.06,0,0,0-11,2.16,3.84,3.84,0,0,1-.4.14,59.36,59.36,0,0,0-6.83-7.78c-9.29-8.8-16.21-8.29-16.21-8.29-4.08,3.17-2.69,13.87-.57,22.92,1.39,6,3.1,11.24,3.74,13.14l-.16.32a52.44,52.44,0,0,0-5.64,20.46c3.78-.56,14.2-1.18,22,7.23,0,0,5.16-13.63,19.07-13.63S77.75,85,77.75,85a30.91,30.91,0,0,1,22.63-7C100.36,77.67,100.33,77.23,100.31,76.8Zm-72-25.31s-5.42-13.56-4-21.3h0a7.61,7.61,0,0,1,1.35-3.32s6.15.61,16.06,11.63a27.94,27.94,0,0,0-4.4,2.86h0A34.92,34.92,0,0,0,28.3,51.49Zm23,20.13a1.53,1.53,0,0,1-1,.44A16.79,16.79,0,0,1,47.44,72a30.08,30.08,0,0,1-8.71-2.51,10.82,10.82,0,0,1-3-2L35.32,67l0-.55a14.29,14.29,0,0,1,.06-3,4,4,0,0,1,.44-1.27c.12-.15.12-.15.64-.15a6.19,6.19,0,0,1,2,.38,39.89,39.89,0,0,1,7.66,3.82c2.67,1.6,3.67,2.38,4.44,3.45A2.92,2.92,0,0,1,51.31,71.62Zm34.15-4.8a4.74,4.74,0,0,1-1.4,1.44,24.32,24.32,0,0,1-9.22,3.48c-2.08.38-4.15.43-4.77.13-.41-.2-.47-.36-.32-.88a7,7,0,0,1,2.83-3.4c.78-.56,4-2.49,5.43-3.3A19.16,19.16,0,0,1,83.75,62a3,3,0,0,1,1.09,0c.26.1.55.87.67,1.8A25.51,25.51,0,0,1,85.46,66.82Zm-2.4-25.46,0,0a27,27,0,0,0-4.27-2.85c9.59-11,15.52-11.63,15.52-11.63a7.82,7.82,0,0,1,1.3,3.32h0c1.35,7.74-3.88,21.31-3.88,21.31a34.61,34.61,0,0,0-8.64-10.13Z"/><path id="Path_8583" data-name="Path 8583" class="cls-4" d="M75.23,37a.61.61,0,0,0-.07.1"/><path id="Path_8584" data-name="Path 8584" class="cls-4" d="M94.29,56.39l-.1.3"/><g id="Group_934" data-name="Group 934"><g id="Group_933" data-name="Group 933"><g id="Group_932" data-name="Group 932"><path id="Path_8585" data-name="Path 8585" class="cls-6" d="M95.59,30.18C94.46,30,89.11,30,83.06,41.36l0,0a27,27,0,0,0-4.27-2.85c9.59-11,15.52-11.63,15.52-11.63A7.7,7.7,0,0,1,95.59,30.18Z"/></g><path id="Path_8586" data-name="Path 8586" class="cls-7" d="M91.71,51.49a34.24,34.24,0,0,0-8.65-10.13C89.11,30,94.45,30,95.59,30.18h0C96.94,37.93,91.71,51.49,91.71,51.49Z"/><path id="Path_8587" data-name="Path 8587" class="cls-7" d="M95.81,30.22l-.22,0Z"/></g></g><path id="Path_8588" data-name="Path 8588" class="cls-4" d="M45.87,37.57c-.14-.2-.3-.4-.45-.61"/><path id="Path_8589" data-name="Path 8589" class="cls-4" d="M25.57,57c.15.5.26.76.26.76"/><g id="Group_937" data-name="Group 937"><g id="Group_936" data-name="Group 936"><g id="Group_935" data-name="Group 935"><path id="Path_8590" data-name="Path 8590" class="cls-6" d="M41.68,38.49a28.25,28.25,0,0,0-4.4,2.85l0,0C31,30,25.45,30,24.26,30.18a7.44,7.44,0,0,1,1.35-3.32S31.77,27.47,41.68,38.49Z"/></g><path id="Path_8591" data-name="Path 8591" class="cls-7" d="M37.26,41.36a34.72,34.72,0,0,0-9,10.13s-5.42-13.56-4-21.31h0C25.45,30,31,30,37.26,41.36Z"/><path id="Path_8592" data-name="Path 8592" class="cls-7" d="M24.27,30.18l-.23,0Z"/></g></g><path id="Path_8593" data-name="Path 8593" class="cls-2" d="M77,59S72.4,59.3,73,55.68s4.2-4.06,5.22-3.92,5.07,1.6,4.35,4.64S80.81,58.87,80.23,59A22.22,22.22,0,0,1,77,59Z"/><path id="Path_8594" data-name="Path 8594" class="cls-2" d="M42.83,59s-4.64.29-4.06-3.33S43,51.62,44,51.76s5.07,1.6,4.35,4.64S46.6,58.87,46,59A22.22,22.22,0,0,1,42.83,59Z"/></g></svg>