<svg xmlns="http://www.w3.org/2000/svg" xmlns:xlink="http://www.w3.org/1999/xlink" width="120" height="120"
  viewBox="0 0 120 120">
  <defs>
    <style>
      .cls-1 {
        fill: url(#linear-gradient);
      }

      .cls-2 {
        fill: #fff;
      }

      .cls-3 {
        fill: #f00500;
      }

      .cls-4 {
        fill: none;
      }

      .cls-5 {
        fill: #ffa409;
      }

      .cls-6 {
        fill: #ff9300;
      }

      .cls-7 {
        fill: #ff8300;
      }
    </style>
    <linearGradient id="linear-gradient" x1="-1306.8" y1="-260.7" x2="-926.97" y2="-94.04"
      gradientTransform="translate(-969.33 -75.29) rotate(180) scale(1.01)" gradientUnits="userSpaceOnUse">
      <stop offset="0" />
      <stop offset="1" stop-color="#1a1a1a" stop-opacity="0" />
    </linearGradient>
  </defs>
  <g id="Layer_2" data-name="Layer 2">
    <g id="Layer_1-2" data-name="Layer 1">
      <g id="Layer_2-2" data-name="Layer 2">
        <g id="Layer_1-2-2" data-name="Layer 1-2">
          <path id="path4251-6" class="cls-1"
            d="M1.8,46.15c8-31.85,40.57-51.24,72.71-43.3s51.71,40.21,43.69,72.07-40.56,51.24-72.7,43.3S-6.22,78,1.79,46.16Z" />
          <path id="path4251" class="cls-2"
            d="M117.14,73.18c-8,31.57-40.21,50.78-72.06,42.9S-6.16,76.23,1.79,44.66,42-6.11,73.84,1.76s51.24,39.84,43.3,71.41Z" />
          <path id="path6359" class="cls-3"
            d="M118.92,58.93c0,32.55-26.62,58.93-59.46,58.93S0,91.48,0,58.93,26.62,0,59.46,0s59.46,26.39,59.46,58.93" />
          <g id="Group_938" data-name="Group 938">
            <g id="Group_931" data-name="Group 931">
              <path id="Path_8575" data-name="Path 8575"
                d="M85.7,66.82a5,5,0,0,1-1.43,1.44A24.4,24.4,0,0,1,75,71.74c-2.09.38-4.19.43-4.81.13-.41-.2-.47-.36-.33-.88a7.16,7.16,0,0,1,2.82-3.4c.79-.56,4-2.49,5.49-3.3A19.32,19.32,0,0,1,84,62a3.32,3.32,0,0,1,1.09,0c.26.1.56.87.68,1.8A25.34,25.34,0,0,1,85.7,66.82Z" />
              <path id="Path_8576" data-name="Path 8576"
                d="M51.23,71.62a1.49,1.49,0,0,1-1,.44,17.54,17.54,0,0,1-2.9-.06,30.62,30.62,0,0,1-8.79-2.51,10.88,10.88,0,0,1-3-2l-.41-.42v-.55a15,15,0,0,1,.06-3,4,4,0,0,1,.46-1.27c.11-.15.11-.15.64-.15a6.57,6.57,0,0,1,2,.38A41,41,0,0,1,46,66.3c2.7,1.6,3.7,2.38,4.47,3.45A2.84,2.84,0,0,1,51.23,71.62Z" />
              <path id="Path_8577" data-name="Path 8577"
                d="M71.94,91.8s-.17.74-.39,1.57-.39,1.49-.39,1.52a1.93,1.93,0,0,1-.48,0h-.46l-.6,1.52c-.35.83-.66,1.6-.71,1.71l-.09.2-.31-.49-.3-.49v-4h-.12c-.25.06-2,.29-2.8.36a40.06,40.06,0,0,1-9.6-.2,8.66,8.66,0,0,0-1-.11v4.14l-.24.38c-.13.2-.27.38-.27.39a3.48,3.48,0,0,1-.53-.86,9.55,9.55,0,0,1-.82-2.2l-.1-.42h-.91l-.11-.53c-.06-.29-.13-.74-.16-1v-.46l-.37-.34-.49-.4a.36.36,0,0,1-.1-.25v-.17H54.3l.06.18.06.19H55l2.45.07h1.84l.46-.73.49-.72h.61V87.84l-.8-.34c-2.59-1.13-4.11-2.43-4.68-4a6,6,0,0,1-.15-1.89,5.94,5.94,0,0,1,.08-1.88,2.18,2.18,0,0,1,1.52-1.48,37.28,37.28,0,0,1,4.36-.07h4l.46.22a2.56,2.56,0,0,1,1.09.86A2.35,2.35,0,0,1,67.2,81,12.93,12.93,0,0,1,67,83.78a6.12,6.12,0,0,1-.85,1.67,7.69,7.69,0,0,1-3.28,2.27l-.35.13V90.9h.64l.44.65.42.65H68.1c.11,0,.17,0,.32-.23l.17-.26h1.69A5.78,5.78,0,0,1,71.94,91.8Z" />
              <path id="Path_8578" data-name="Path 8578"
                d="M64.22,96c-.28.16-.47.23-.51.2a3.9,3.9,0,0,1-.46-.34l-.41-.32-.4.43c-.9,1-.93,1-1.19,1s-.5,0-1-.77l-.48-.7H59l-.19.39-.19.39-.34-.1c-.26-.09-.52-.19-.78-.31L57,95.66v-.83H64.8v.39C64.85,95.61,64.86,95.6,64.22,96Z" />
            </g>
            <path id="Path_8579" data-name="Path 8579" class="cls-2"
              d="M100.79,78.28a1.71,1.71,0,0,1,0-.32A31.31,31.31,0,0,0,78,85s-3-13.63-17-13.63S41.63,85,41.63,85c-7.86-8.39-18.39-7.79-22.2-7.23V78a12.18,12.18,0,0,0,.3,4.42c1.09,4.13,4.47,8.69,9.76,13.15,8.67,7.31,20.44,12.58,29.35,13.19,9.28.62,23-4.75,32.11-12.61a44.86,44.86,0,0,0,4-4,21.39,21.39,0,0,0,2.15-2.84l.06,0c.06,0,.09-.08.06-.11s0,0,.06-.07.07,0,0-.07,0-.06.06-.07a.07.07,0,0,0,0-.09m0-.06a.06.06,0,0,0,.06-.07c0-.07,0-.07.06-.07a.06.06,0,0,0,.06-.06,1.35,1.35,0,0,1,.19-.33C98,88,98.84,86.41,99,86.15a19.37,19.37,0,0,0,1.61-5.2,18.26,18.26,0,0,0,.22-2.67ZM64.22,96c-.28.16-.47.23-.51.2a3.9,3.9,0,0,1-.46-.34l-.41-.32-.4.43c-.9,1-.93,1-1.19,1s-.5,0-1-.77l-.48-.7H59l-.19.39-.19.39-.34-.1c-.26-.09-.52-.19-.78-.31L57,95.66v-.83H64.8v.39C64.85,95.61,64.86,95.6,64.22,96Zm7.31-2.61c-.21.83-.39,1.5-.39,1.52a1.85,1.85,0,0,1-.47,0h-.46l-.59,1.5c-.35.83-.66,1.6-.71,1.71l-.09.2-.31-.49-.3-.49v-4h-.12c-.25.06-2,.29-2.8.36a40.06,40.06,0,0,1-9.6-.2,8.66,8.66,0,0,0-1-.11v4.14l-.24.38c-.13.2-.27.38-.27.39a3.48,3.48,0,0,1-.53-.86,9.55,9.55,0,0,1-.82-2.2l-.1-.42h-.91l-.11-.53c-.06-.29-.13-.74-.16-1v-.46l-.37-.34-.49-.4a.36.36,0,0,1-.1-.25v-.17H54.3l.06.18.06.19H55l2.45.07h1.84l.46-.73.49-.72h.61V87.84l-.8-.34c-2.59-1.13-4.11-2.43-4.68-4a6,6,0,0,1-.15-1.89,5.94,5.94,0,0,1,.08-1.88,2.18,2.18,0,0,1,1.52-1.48,37.28,37.28,0,0,1,4.36-.07h4l.46.22a2.56,2.56,0,0,1,1.09.86A2.35,2.35,0,0,1,67.2,81,12.93,12.93,0,0,1,67,83.78a6.12,6.12,0,0,1-.85,1.67,7.69,7.69,0,0,1-3.28,2.27l-.35.13V90.9h.64l.44.65.42.65H68.1c.11,0,.17,0,.32-.23l.17-.26h1.69a7.77,7.77,0,0,1,1.67,0,12,12,0,0,0-.42,1.64Z" />
            <path id="Path_8580" data-name="Path 8580" class="cls-4" d="M19.4,77.73c-.49.07-1,.16-1.46.27" />
            <path id="Path_8581" data-name="Path 8581" class="cls-4" d="M102.06,78.15c-.43-.07-.86-.12-1.3-.15" />
            <path id="Path_8582" data-name="Path 8582" class="cls-5"
              d="M100.67,76.8c0-.65-.09-1.57-.13-2A42.3,42.3,0,0,0,95,57.15a4.42,4.42,0,0,1-.32-.61l-.06-.12h0c.45-1.35,2.31-7,3.78-13.44,2-8.75,3.28-19-.62-22.06,0,0-6.72-.49-15.73,8.26A61.36,61.36,0,0,0,75.38,37l-.63-.21a46.23,46.23,0,0,0-11.18-2.13c-1.14-.09-5.4-.09-6.79,0a39.94,39.94,0,0,0-11.1,2.16l-.37.18a60.57,60.57,0,0,0-6.89-7.78c-9.38-8.8-16.35-8.29-16.35-8.29-4.13,3.17-2.73,13.87-.59,22.92,1.4,6,3.13,11.24,3.78,13.14a2,2,0,0,1-.17.32A52.36,52.36,0,0,0,19.4,77.77c3.82-.56,14.34-1.18,22.2,7.23,0,0,5.21-13.63,19.25-13.63S77.91,85,77.91,85a31.41,31.41,0,0,1,22.83-7C100.73,77.67,100.7,77.23,100.67,76.8ZM28,51.49s-5.47-13.56-4-21.3h0a7.48,7.48,0,0,1,1.37-3.32s6.19.61,16.2,11.63a28.08,28.08,0,0,0-4.45,2.86h0a35,35,0,0,0-9,10.12ZM51.23,71.62a1.49,1.49,0,0,1-1,.44,17.54,17.54,0,0,1-2.9-.06,30.62,30.62,0,0,1-8.79-2.51,10.88,10.88,0,0,1-3-2l-.41-.42v-.55a15,15,0,0,1,.06-3,4,4,0,0,1,.46-1.27c.11-.15.11-.15.64-.15a6.57,6.57,0,0,1,2,.38A41,41,0,0,1,46,66.3c2.7,1.6,3.7,2.38,4.47,3.45A2.84,2.84,0,0,1,51.23,71.62Zm34.47-4.8a5,5,0,0,1-1.43,1.44A24.4,24.4,0,0,1,75,71.74c-2.09.38-4.19.43-4.81.13-.41-.2-.47-.36-.33-.88a7.16,7.16,0,0,1,2.82-3.4c.79-.56,4-2.49,5.49-3.3A19.32,19.32,0,0,1,84,62a3.32,3.32,0,0,1,1.09,0c.26.1.56.87.68,1.8A25.34,25.34,0,0,1,85.7,66.82ZM83.26,41.36h0A26.85,26.85,0,0,0,79,38.51c9.66-11,15.65-11.63,15.65-11.63a7.85,7.85,0,0,1,1.24,3.3h0c1.36,7.74-3.92,21.31-3.92,21.31a34.56,34.56,0,0,0-8.72-10.13Z" />
            <path id="Path_8583" data-name="Path 8583" class="cls-4" d="M75.36,37a.11.11,0,0,1-.07.1" />
            <path id="Path_8584" data-name="Path 8584" class="cls-4" d="M94.6,56.39l-.11.3" />
            <g id="Group_934" data-name="Group 934">
              <g id="Group_933" data-name="Group 933">
                <g id="Group_932" data-name="Group 932">
                  <path id="Path_8585" data-name="Path 8585" class="cls-6"
                    d="M95.92,30.18C94.78,30,89.38,30,83.26,41.36h0A26.85,26.85,0,0,0,79,38.51c9.66-11,15.65-11.63,15.65-11.63A7.68,7.68,0,0,1,95.92,30.18Z" />
                </g>
                <path id="Path_8586" data-name="Path 8586" class="cls-7"
                  d="M92,51.49a34.34,34.34,0,0,0-8.73-10.13C89.38,30,94.76,30,95.92,30.18h0C97.28,37.93,92,51.49,92,51.49Z" />
                <path id="Path_8587" data-name="Path 8587" class="cls-7" d="M96.14,30.22h0Z" />
              </g>
            </g>
            <path id="Path_8588" data-name="Path 8588" class="cls-4" d="M45.75,37.57c-.15-.2-.31-.4-.46-.61" />
            <path id="Path_8589" data-name="Path 8589" class="cls-4" d="M25.23,57c.16.5.26.76.26.76" />
            <g id="Group_937" data-name="Group 937">
              <g id="Group_936" data-name="Group 936">
                <g id="Group_935" data-name="Group 935">
                  <path id="Path_8590" data-name="Path 8590" class="cls-6"
                    d="M41.52,38.49a28.75,28.75,0,0,0-4.45,2.85h0C30.71,30,25.13,30,23.93,30.18a7.53,7.53,0,0,1,1.37-3.32S31.51,27.47,41.52,38.49Z" />
                </g>
                <path id="Path_8591" data-name="Path 8591" class="cls-7"
                  d="M37.06,41.36A34.74,34.74,0,0,0,28,51.49s-5.47-13.56-4-21.31h0C25.13,30,30.72,30,37.06,41.36Z" />
                <path id="Path_8592" data-name="Path 8592" class="cls-7" d="M24,30.18h0Z" />
              </g>
            </g>
            <path id="Path_8593" data-name="Path 8593" class="cls-2"
              d="M77.19,59s-4.67.29-4-3.33a4.87,4.87,0,0,1,5.26-3.92c1,.14,5.13,1.6,4.39,4.64S81,58.87,80.41,59A21.63,21.63,0,0,1,77.19,59Z" />
            <path id="Path_8594" data-name="Path 8594" class="cls-2"
              d="M42.67,59s-4.67.29-4-3.33a4.85,4.85,0,0,1,5.25-3.92c1,.14,5.13,1.6,4.39,4.64s-1.8,2.48-2.39,2.61A21.63,21.63,0,0,1,42.67,59Z" />
          </g>
        </g>
      </g>
    </g>
  </g>
</svg>