<?xml version="1.0" encoding="UTF-8" standalone="no"?>
<!-- Created with Inkscape (http://www.inkscape.org/) -->

<svg
   xmlns:dc="http://purl.org/dc/elements/1.1/"
   xmlns:cc="http://creativecommons.org/ns#"
   xmlns:rdf="http://www.w3.org/1999/02/22-rdf-syntax-ns#"
   xmlns:svg="http://www.w3.org/2000/svg"
   xmlns="http://www.w3.org/2000/svg"
   xmlns:xlink="http://www.w3.org/1999/xlink"
   xmlns:sodipodi="http://sodipodi.sourceforge.net/DTD/sodipodi-0.dtd"
   xmlns:inkscape="http://www.inkscape.org/namespaces/inkscape"
   height="120"
   width="120"
   version="1.1"
   id="svg4247"
   inkscape:version="0.92.4 (5da689c313, 2019-01-14)"
   sodipodi:docname="spice.svg"
   inkscape:export-xdpi="96"
   inkscape:export-ydpi="96">
  <metadata
     id="metadata4259">
    <rdf:RDF>
      <cc:Work
         rdf:about="">
        <dc:format>image/svg+xml</dc:format>
        <dc:type
           rdf:resource="http://purl.org/dc/dcmitype/StillImage" />
        <dc:title />
      </cc:Work>
    </rdf:RDF>
  </metadata>
  <defs
     id="defs4257"><linearGradient
   inkscape:collect="always"
   id="linearGradient4761">
  <stop
     style="stop-color:#1a1a1a;stop-opacity:1;"
     offset="0"
     id="stop4763" />
  <stop
     style="stop-color:#1a1a1a;stop-opacity:0;"
     offset="1"
     id="stop4765" />
</linearGradient>
<linearGradient
   inkscape:collect="always"
   xlink:href="#linearGradient4761"
   id="linearGradient4769"
   x1="-409.44958"
   y1="-20.942795"
   x2="-57.60104"
   y2="133.44374"
   gradientUnits="userSpaceOnUse"
   gradientTransform="matrix(-1.0090909,0,0,-1.0090909,-74.103737,135.33971)" />
<clipPath
   clipPathUnits="userSpaceOnUse"
   id="clipPath16">
  <path
     d="m 0,0 275.05,0 0,269.777 L 0,269.777 0,0 Z"
     id="path18"
     inkscape:connector-curvature="0" />
</clipPath>
<circle
   r="585.6"
   cy="618"
   cx="618"
   id="SVGID_1_" />









		</defs>
  <sodipodi:namedview
     pagecolor="#ffffff"
     bordercolor="#666666"
     borderopacity="1"
     objecttolerance="10"
     gridtolerance="10"
     guidetolerance="10"
     inkscape:pageopacity="0"
     inkscape:pageshadow="2"
     inkscape:window-width="1274"
     inkscape:window-height="876"
     id="namedview4255"
     showgrid="false"
     inkscape:zoom="3.2460938"
     inkscape:cx="67.827237"
     inkscape:cy="32.641169"
     inkscape:window-x="453"
     inkscape:window-y="132"
     inkscape:window-maximized="0"
     inkscape:current-layer="svg4247">
    <inkscape:grid
       type="xygrid"
       id="grid1450" />
  </sodipodi:namedview>
  <path
     style="fill:url(#linearGradient4769);fill-opacity:1;stroke:none;stroke-opacity:1"
     inkscape:connector-curvature="0"
     id="path4251-6"
     d="M 6.6612254,48.073886 C 14.074737,18.341792 44.19189,0.24725348 73.930899,7.6616275 103.65782,15.074269 121.75447,45.189649 114.33749,74.920005 106.92746,104.65554 76.810279,122.75183 47.079931,115.33918 17.342646,107.92654 -0.7522758,77.807711 6.6612254,48.073886 Z" />
  <path
     style="fill:#ffffff;stroke:none;stroke-opacity:1;fill-opacity:1"
     inkscape:connector-curvature="0"
     id="path4251"
     d="M 113.35374,73.305173 C 106.00702,102.76941 76.161184,120.70094 46.690076,113.35336 17.231001,106.0075 -0.70262839,76.163426 6.6475295,46.700911 13.990812,17.233241 43.836647,-0.70001494 73.29916,6.6458482 c 29.46939,7.3458628 47.4013,37.1933738 40.05458,66.6593248 z" />
  <path
     style="fill:#ffffff"
     inkscape:connector-curvature="0"
     d="m 56.785734,74.692498 3.57241,-13.45166 8.457786,-3.089967 2.103756,-7.90549 -0.07183,-0.196109 -8.325488,3.041524 5.998561,-22.586923 -17.012125,0 -7.844734,29.476456 -6.549806,2.392728 -2.164226,8.150041 6.544795,-2.390723 -4.623452,17.371832 45.276019,0 2.902561,-10.811709 -28.264228,0"
     id="path4985" />
  <path
     style="fill:#ffffff;fill-rule:nonzero"
     inkscape:connector-curvature="0"
     d="M 77.899062,41.210625 C 75.231563,34.431875 68.542187,33.82 60.752813,35.3325 l -2.774063,-9.669688 -5.885,1.687813 2.701875,9.41875 c -1.546875,0.44 -3.12125,0.928125 -4.685313,1.409375 l -2.715625,-9.480625 -5.881562,1.684375 2.767187,9.669688 c -1.265,0.391875 -2.509375,0.776875 -3.729687,1.127499 l -0.01031,-0.03437 -8.119375,2.327187 1.804688,6.290625 c 0,0 4.324375,-1.33375 4.272812,-1.230625 2.385625,-0.684062 3.557813,0.477812 4.125,1.60875 l 3.1625,11.01375 c 0.161563,-0.04469 0.378125,-0.09969 0.6325,-0.1375 l -0.622187,0.17875 4.424062,15.434375 c 0.11,0.780313 0.01375,2.10375 -1.65,2.585 0.09281,0.04469 -4.283125,1.22375 -4.283125,1.22375 l 0.849063,7.366563 7.65875,-2.2 c 1.426562,-0.402188 2.835937,-0.780313 4.214375,-1.16875 l 2.808437,9.779687 5.878125,-1.684375 -2.774062,-9.676562 a 225.98125,225.98125 0 0 0 4.71625,-1.30625 L 70.395,91.185 l 5.888437,-1.687812 -2.798125,-9.7625 c 9.731563,-3.406563 15.943125,-7.885625 14.138438,-17.428125 -1.450625,-7.679375 -5.92625,-10.01 -11.931563,-9.74875 2.915,-2.715625 4.169688,-6.386875 2.206875,-11.34375 z M 75.664688,64.4825 c 2.096875,7.311563 -10.656251,10.068438 -14.64375,11.216562 L 57.305,62.739688 c 3.9875,-1.144688 16.17,-5.878126 18.35625,1.74625 z M 67.682813,46.985625 c 1.904374,6.651563 -8.755313,8.86875 -12.079375,9.820938 L 52.234688,45.05375 c 3.320625,-0.952187 13.457812,-5.001562 15.448125,1.935313 z"
     id="path5145" />
  <style
     id="style5548">.st0{fill:#988430}.st1{fill:#7a6a2a}.st2{fill:#ba9f33}.st3,.st4,.st5,.st6{clip-path:url(#SVGID_2_);fill:#e2cc85}.st4,.st5,.st6{fill:#f1d789}.st5,.st6{fill:#f4ecb4}.st6{fill:#f3e19d}.st10,.st11,.st7,.st8,.st9{clip-path:url(#SVGID_2_);fill:#f2e8b0}.st10,.st11,.st8,.st9{fill:#f5eec0}.st10,.st11,.st9{fill:#e6db9d}.st10,.st11{fill:#e5cb7a}.st11{fill:#d8c173}.st12,.st13,.st14,.st15,.st16{clip-path:url(#SVGID_2_);fill:#e0cd81}.st13,.st14,.st15,.st16{fill:#dfc57c}.st14,.st15,.st16{fill:#e5cc7c}.st15,.st16{fill:#d2c281}.st16{fill:#e2c270}.st17,.st18,.st19,.st20,.st21{clip-path:url(#SVGID_2_);fill:#ccb360}.st18,.st19,.st20,.st21{fill:#d5b457}.st19,.st20,.st21{fill:#d2b257}.st20,.st21{fill:#d2b159}.st21{fill:#c2a44d}.st22,.st23,.st24,.st25,.st26{clip-path:url(#SVGID_2_);fill:#caa13e}.st23,.st24,.st25,.st26{fill:#b59544}.st24,.st25,.st26{fill:#c89d3a}.st25,.st26{fill:#ceb052}.st26{fill:#cca847}.st27,.st28,.st29,.st30,.st31{clip-path:url(#SVGID_2_);fill:#c39d3c}.st28,.st29,.st30,.st31{fill:#d2ba6b}.st29,.st30,.st31{fill:#c0993a}.st30,.st31{fill:#a88f33}.st31{fill:#e3c571}.st32,.st33,.st34,.st35,.st36{clip-path:url(#SVGID_2_);fill:#d8b65b}.st33,.st34,.st35,.st36{fill:#d3ae4d}.st34,.st35,.st36{fill:#f4efc8}.st35,.st36{fill:#ebcc73}.st36{fill:#e5c66b}.st37,.st38,.st39,.st40,.st41{clip-path:url(#SVGID_2_);fill:#e6bd62}.st38,.st39,.st40,.st41{fill:#b6933f}.st39,.st40,.st41{fill:#c49937}.st40,.st41{fill:#dfc068}.st41{fill:#c99e3d}.st42,.st43,.st44,.st45,.st46{clip-path:url(#SVGID_2_);fill:#b58634}.st43,.st44,.st45,.st46{fill:#e6c367}.st44,.st45,.st46{fill:#dcba5a}.st45,.st46{fill:#e9ce77}.st46{fill:#cdae50}.st47,.st48,.st49,.st50,.st51{clip-path:url(#SVGID_2_);fill:#d2a83e}.st48,.st49,.st50,.st51{fill:#c29637}.st49,.st50,.st51{fill:#ac8132}.st50,.st51{fill:#a67a2e}.st51{fill:#8c6228}.st52,.st53,.st54,.st55,.st56{clip-path:url(#SVGID_2_);fill:#cba94c}.st53,.st54,.st55,.st56{fill:#be9c44}.st54,.st55,.st56{fill:#a17c34}.st55,.st56{fill:#92723a}.st56{fill:#b18e3e}.st57,.st58,.st59,.st60,.st61{clip-path:url(#SVGID_2_);fill:#543e26}.st58,.st59,.st60,.st61{fill:#806031}.st59,.st60,.st61{fill:#b6903c}.st60,.st61{fill:#685026}.st61{fill:#d4b968}.st62,.st63,.st64,.st65,.st66{clip-path:url(#SVGID_2_);fill:#cca849}.st63,.st64,.st65,.st66{fill:#585136}.st64,.st65,.st66{fill:#252211}.st65,.st66{fill:#c3b378}.st66{fill:#e6d89c}.st67,.st68,.st69,.st70,.st71{clip-path:url(#SVGID_2_);fill:#6f674d}.st68,.st69,.st70,.st71{fill:#ac924c}.st69,.st70,.st71{fill:#9f8e57}.st70,.st71{fill:#eac970}.st71{fill:#d7bc6b}.st72,.st73,.st74,.st75,.st76{clip-path:url(#SVGID_2_);fill:#453a25}.st73,.st74,.st75,.st76{fill:#84754b}.st74,.st75,.st76{fill:#f7f7e7}.st75,.st76{fill:#f8f6de}.st76{fill:#d4c38b}.st77,.st78,.st79,.st80,.st81{clip-path:url(#SVGID_2_);fill:#e2d59d}.st78,.st79,.st80,.st81{fill:#cbac5a}.st79,.st80,.st81{fill:#d6bc6f}.st80,.st81{fill:#dfc677}.st81{fill:#c4a859}.st82,.st83,.st84,.st85,.st86{clip-path:url(#SVGID_2_);fill:#927d49}.st83,.st84,.st85,.st86{fill:#6e6342}.st84,.st85,.st86{fill:#39331f}.st85,.st86{fill:#292311}.st86{fill:#3f3824}.st87,.st88,.st89,.st90,.st91{clip-path:url(#SVGID_2_);fill:#2d2815}.st88,.st89,.st90,.st91{fill:#82764f}.st89,.st90,.st91{fill:#2d2816}.st90,.st91{fill:#574f35}.st91{fill:none}.st92,.st93,.st94,.st95,.st96{clip-path:url(#SVGID_2_);fill:#cfb66c}.st93,.st94,.st95,.st96{fill:#dec270}.st94,.st95,.st96{fill:#cbaf59}.st95,.st96{fill:#e3c677}.st96{fill:#ecd592}.st97{opacity:.8;fill:#fff;enable-background:new}</style>
  <path
     style="fill:#ffffff;fill-opacity:1;stroke:#000000;stroke-opacity:1;stroke-width:0.5;stroke-miterlimit:4;stroke-dasharray:none;opacity:0.5"
     inkscape:connector-curvature="0"
     d="M 115,59.999706 C 115,90.375523 90.376003,115.00004 60.000335,115.00004 29.624333,115.00004 5,90.375523 5,59.999706 5,29.624223 29.624333,5.0000396 60.000335,5.0000396 90.375668,5.0000396 115,29.624223 115,59.999706"
     id="path6359" />
  <g
     id="g1429"
     transform="matrix(0.86667163,0,0,0.86667163,9.2962924,8.2404456)">
    <path
       style="fill:#ed1e26;stroke:#221f20;stroke-width:1.53082871"
       inkscape:connector-curvature="0"
       d="M 58.312589,10.22759 13.535848,35.103558 V 55.00433 l 77.306849,18.36995 v 6.12331 L 58.312589,98.25024 25.782478,80.26301 V 71.84345 L 13.535848,67.25096 V 86.00361 L 58.312589,111.645 103.08933,86.38632 V 66.10284 L 26.165185,47.7329 V 41.992287 L 58.312589,23.239635 91.608117,41.60958 v 8.03685 l 11.863923,4.97519 V 35.486265 Z"
       id="path1059" />
    <g
       transform="matrix(0.38270719,0,0,0.38270719,-6.3649262,-12.734841)"
       id="g1157">
				<path
   style="fill:#221f20;stroke:#000000;stroke-width:2"
   inkscape:connector-curvature="0"
   d="m 172,37 c 0,0 5.25,-6.25 14,-3 8.75,3.25 12,26 12,26 0,0 0.5,4 0,14 0,0 8.5,-2 14,0 0,0 -6.75,2 -8,4 0,0 13,-1 19,2 6,3 9.6667,2.3333 9.6667,2.3333 0,0 -11,18.5834 -11,17.8334 C 221.6667,99.4167 219,102 219,102 l 8,1 c 0,0 0.25,2.5 -4,6 h -5 c 0,0 4,14 4,21 0,0 3,1 3,-14 0,0 5.5,3.25 4,14 0,0 -3.5,6.75 -2,9 1.5,2.25 6,-4 6,-4 0,0 1.6667,-9.6667 -2,-21.3333 0,0 -6,-27.6667 13,-42.6667 0,0 -9.75,16.5 -3,21 6.75,4.5 5,-13 5,-13 0,0 -2.25,-17.75 9,-24 0,0 -6,14.5 1,29 0,0 7.25,23.5 -3,38 -10.25,14.5 -15,16 -19,28 -4,12 3,10 3,10 0,0 4.25,-1.5 6,-10 0,0 -2,-6.75 6,-13 0,0 -4.5,7.75 -3,19 1.5,11.25 -12,26 -12,26 0,0 -5.25,4 -9,6 0,0 -2,12.25 -6,16 0,0 -1.25,23 -11,46 -9.75,23 -31,42 -31,42 0,0 -18,15.75 -41,26 -17.9713,8.0089 -30.4478,1.6706 -35.0445,-1.4839 -1.2862,-0.8827 -1.8305,-4.3911 -1.7596,-5.2494 0.3543,-4.2889 1.5023,-11.13 4.8041,-14.2667 0,0 3.25,-7.25 16,-21 0,0 7.25,-10.75 9,-35 v -21 c 0,0 -6.5,-3.5 -8,-10 -1.5,-6.5 1,-9 1,-9 0,0 2.25,-4 12,-7 0,0 -5.75,-3.5 -9,-15 0,0 -6.25,-10 -5,-17 0,0 -16,-10.75 -6,-31 0,0 4.5,-9.25 13,-13 0,0 -1.5,-11 3,-19 4.5,-8 8,-10 8,-10 0,0 5.25,-3.75 7,-4 l 5,3 h 10 c 0,0 -3.25,-5.75 -18,-7 0,0 -5,-4 17,-5 0,0 -18.25,-11.75 -8,-29 0,0 6.5,14 31,20 0,0 5,1.25 12,5 0,0 0.25,-19.25 -22,-35 z"
   id="path1061" />

				<path
   style="fill:#ca151f;stroke:#ed1e26;stroke-width:1"
   inkscape:connector-curvature="0"
   d="m 104.6667,304.6667 c 1.7031,-3.6193 16,-21.3334 16,-21.3334 6.6666,-6 14.3333,-19.6666 14.3333,-19.6666 l -8.6667,7 C 133.3333,260.3333 134,224 134,224 c 24,7 22,1 22,1 0,0 -18.8333,0.5 -29,-13 0,0 -7.1667,-11 8,-14 l 1,5 v 1 h -4 l 1,2 c 0,0 13.6667,16.6667 45,12 31.3333,-4.6667 31.3333,-21 36,-26 l 6,-1 c 0,0 -8.3333,23 -26,30 0,0 4,3.3333 20,-9 0,0 -9.6667,41.3333 -20,52 0,0 -12,19.3333 -43,40 0,0 -27.6667,18.6667 -45.3333,10.6667 0,0 -3.6667,-4.3334 -1,-10 z"
   id="path1063" />

				<path
   style="fill:#ed1e26"
   inkscape:connector-curvature="0"
   d="m 199.5,224.75 c 0,0 -11.25,8.25 -24.5,8.25 -13.25,0 -32,-2.25 -32,-2.25 l -1,1.25 c 0,0 1.5,27.75 -2,33 -3.5,5.25 -8.25,13.5 -27,34 -2.75,4.25 -3.0023,8.2749 1.7965,10.4307 C 127.75,315.25 177.0808,274.1818 181.5,268.5 c 5.25,-6.75 18.25,-21.5 18,-43.75 z"
   id="path1065" />

				<path
   style="fill:#f79274;stroke-width:1"
   inkscape:connector-curvature="0"
   d="m 151,239 c 0,0 8.5,-7.25 14,3 0,0 1.5,5.75 -8,22 -9.5,16.25 -31,41.25 -36,38 -5,-3.25 4.3333,-12.3333 4.3333,-12.3333 L 143,267 c 0,0 8,-10.5 7,-15 z"
   stroke="#ffffff00"
   id="path1067" />

				<path
   style="fill:#ed1d25;stroke-width:1"
   inkscape:connector-curvature="0"
   d="m 179,218 c 0,0 6.75,0.75 12,1 5.25,0.25 -8.5,4.75 -8.5,4.75 0,0 -24.5,3.5 -37.5,-0.75 -13,-4.25 -12,-10 -12,-10 0,0 0.75,-2.75 3,-2 2.25,0.75 5,2 5,2 0,0 9.75,4 12,4 2.25,0 8.75,3.25 26,1 z"
   stroke="#ffffff00"
   id="path1069" />

				<path
   style="fill:#f49678;stroke-width:1"
   inkscape:connector-curvature="0"
   d="m 167,222 c 0,0 0.5,2.5 -8,2 -8.5,-0.5 -14,-5 -14,-5 0,0 -3.5,-3.25 3,-3 0,0 4.75,4 17,5 3.9885,0.3256 2,1 2,1 z"
   stroke="#ffffff00"
   id="path1071" />

				<path
   style="fill:#ffffff;stroke:#000000;stroke-width:1"
   inkscape:connector-curvature="0"
   d="m 146,197 -2,-1 -5.625,3.25 C 138,206.75 140,206 140,206 l 0.625,-1 H 141 v 2 c 1.125,5.875 14,7 14,7 l 1,-1 v -4 l 0.25,-1.625 0.25,-0.25 0.875,6.5 C 166.875,218.875 178,215 178,215 l 0.875,-2.25 0.75,-2.625 L 180,210 v 4 c 10.625,-0.125 15,-5 15,-5 l 0.25,-3.25 0.75,-0.5 1,1.75 c 4.375,-1 11,-9 11,-9 l -2,-2 c 0,0 -27.875,14.25 -62,3 z"
   id="path1073" />

				<path
   style="fill:#fdfdfd;stroke:#000000;stroke-width:1"
   inkscape:connector-curvature="0"
   d="m 209,172 c 0,0 -0.75,17.125 -40,24 0,0 -26.125,2.375 -37,-7 l -3,-6 2,-3 c 0,0 4.375,5 7,5 v 3 l 1,-1 v -2 c 0,0 2.75,3 14,4 l 2,2 v 1 l 1,-2 1,-1 c 0,0 13.5,1.375 23,-2 l 1,2 1,-1 v -2 c 0,0 12.625,-6.125 17,-11 l 1,4 v -4 -2 c 0,0 6.25,-4.25 7,-10 l 2,1 z"
   id="path1075" />

				<path
   style="fill:#ca151f;stroke:#ed1e26;stroke-width:1"
   inkscape:connector-curvature="0"
   d="m 127,167 c 0,0 -1.5,-0.5 -1,1 0.5,1.5 7.1667,4.8333 5,5 -2.1667,0.1667 -7,-3 -7,-3 0,0 13.1667,22.1667 51,14 0,0 20,-4.6667 32.5,-28 l 0.1667,-6.5 -2.1667,-0.8333 -0.8333,1 c 0,0 0.3333,3.5 -2.6667,11.3333 -3,7.8333 -25,17 -25,17 h -4 l 7,-6 c 0,0 -12.3333,-1.8333 -16,-7 0,0 -6,7.6667 -20,6 0,0 -7,1.3333 -17,-4 z"
   id="path1077" />

				<path
   style="fill:#ed1e26"
   inkscape:connector-curvature="0"
   d="m 158,172 c 0,0 6,-4.125 11,0 0,0 2.625,2.5 -3,6 0,0 -1,1.375 9,1 l 4,-1 -1,2 c 0,0 -3,2.5 -18,4 -15,1.5 -23,-5 -23,-5 0,0 -1.25,-1.375 0,-2 0,0 -0.875,-1.5 6,-1 l -1.25,-3 c 0,0 9.875,0.625 16.25,-1 z"
   id="path1079" />

				<path
   style="fill:#f79274;stroke-width:1"
   inkscape:connector-curvature="0"
   d="m 160,178 c 0,0 -6,1 -8,0 -2,-1 0,-3 0,-3 0,0 3.5,-2.8333 9,1 0,0 0.6667,1.1667 -1,2 z"
   stroke="#ffffff00"
   id="path1081" />

				<path
   style="fill:#ffffff;stroke:#000000;stroke-width:1"
   inkscape:connector-curvature="0"
   d="m 169,136 c 0,0 -13.8333,-27.6667 -38,-15 -24.1667,12.6667 -12,33 -12,33 0,0 9.1667,14.1667 26,14 16.8333,-0.1667 17,-7 17,-7 l -1,-2 c 0,0 -6.1667,10.6667 -24,3 0,0 -14.6667,-6.3333 -4,-24 0,0 4.8333,-5.3333 13,-7 8.1667,-1.6667 18,9 18,9 z"
   id="path1083" />

				<path
   style="fill:#ffff04;stroke:#000000;stroke-width:1"
   inkscape:connector-curvature="0"
   d="m 163,144 c 0,0 -3,4 -3,10 0,6 -12,7 -12,7 0,0 -10.1667,0.8333 -15,-7 -4.8333,-7.8333 3,-17 3,-17 0,0 6.5,-6 15,-3 8.5,3 11.6667,6.6667 12,10 z"
   id="path1085" />

				<path
   style="fill:#fcda00;stroke-width:1"
   inkscape:connector-curvature="0"
   d="m 158,153 c 0,0 -2.6667,6.1667 -14,6 0,0 -7,-1.6667 -8,-5 -1,-3.3333 4,-2 4,-2 0,0 0.8333,4 5,4 4.1667,0 9.3333,-1.3333 11,-3 1.6667,-1.6667 2,0 2,0 z"
   stroke="#ffffff00"
   id="path1087" />

				<path
   style="fill:#fdc50d;stroke-width:1"
   inkscape:connector-curvature="0"
   d="m 136,141 c 0,0 -5.5,6.6667 0,14 l 4,-3 c 0,0 -1,-5.8333 0,-8 1,-2.1667 -4,-3 -4,-3 z"
   stroke="#ffffff00"
   id="path1089" />

				<path
   style="fill:#eaa319"
   inkscape:connector-curvature="0"
   d="m 140,145 -4.75,-2.5 c 0,0 1.75,-7.1667 10.75,-6.5 9,0.6667 12.6667,5.3333 13.3333,5.1667 0.6667,-0.1667 -2.1666,3 -2.1666,3 0,0 -5.5,-7.3334 -12.1667,-3.1667 -6.6667,4.1667 -5,4 -5,4 z"
   id="path1091" />

				<path
   style="fill:#ffff92"
   inkscape:connector-curvature="0"
   d="m 138,139 v 1 l 2,1 2,-1 2,-1 1,-2 -1,-1 -2,-1 -2,1 -1,1 z"
   id="path1093" />

				<path
   style="fill:#fdf583"
   inkscape:connector-curvature="0"
   d="m 151,154 h 2 l 1,1 -1,2 -2,1 h -2 -2 v -1 l 1,-1 1,-1 z"
   id="path1095" />

				<path
   style="fill:#221f20;stroke:#000000;stroke-width:1"
   inkscape:connector-curvature="0"
   d="m 142,147 c 0,0 3.8333,-6.6667 9,-5 5.1667,1.6667 4,6 4,6 0,0 0.3333,3.5 -3,5 -3.3333,1.5 -8,0 -8,0 0,0 -1.1667,-1 -2,-2 -0.8333,-1 0,-4 0,-4 z"
   id="path1097" />

				<path
   style="fill:#ca151f;stroke:#ed1e26;stroke-width:1"
   inkscape:connector-curvature="0"
   d="m 166,124 c 0,0 -9.25,-9.75 -22,-11 0,0 -10.25,0.5 -13,3 0,0 -0.75,-12 2,-15 0,0 3.5,-5.5 10,-5 6.5,0.5 17,17 17,17 0,0 2.75,3.75 6,4 3.25,0.25 6,-3 6,-3 0,0 3.75,-6 3,-14 l -6,4 c 0,0 -8.25,-9.5 -12,-11 -3.75,-1.5 5,-1 5,-1 0,0 6.5,0.75 8,3 0,0 3.25,0 -4,-5 0,0 25.25,-6 34,2 8.75,8 12.75,16.5 13,19 0,0 4.5,6.75 6,22 0,0 -10.5,7.5 -11,12 h -3 c 0,0 0,-4 -3,-8 -3,-4 10,-4 10,-4 0,0 3.5,1.5 3,2 0,0 1,-5.25 -11,-5 0,0 -3,-0.25 -6,3 0,0 -4.5,-2.75 -8,-2 0,0 13,-11 13,-15 0,-4 9.25,11 9,13 0,0 2.5,-0.75 0,-13 -2.5,-12.25 -14,-16 -14,-16 v 2 c 0,0 -13.5,-1.75 -17,6 0,0 10.75,-4.75 15,-2 0,0 -6,9.75 -14,12 0,0 -1.5,2 -5,-3 0,0 -8.25,10.25 -3,16 v 2 c 0,0 -5.5,-3 -4,-9 0,0 -0.25,-3.5 4,-9 0,0 -7,3.75 -8,9 z"
   id="path1099" />

				<path
   style="fill:#ffffff;stroke:#000000;stroke-width:1"
   inkscape:connector-curvature="0"
   d="m 165.75,146.75 c 0,0 4.25,-10.75 15.25,-12.75 11,-2 17,6 17,6 0,0 7,7.25 0.5,17 -4.319,6.4785 -2.75,7.5 -17.5,11 0,0 -12.5,-0.75 -15,-8 -1.1391,-3.3033 -1.695,-5.891 -1.75,-8 -0.0658,-2.5198 1.5,-5.25 1.5,-5.25 z"
   id="path1101" />

				<path
   style="fill:#221f20;stroke:#000000;stroke-width:1"
   inkscape:connector-curvature="0"
   d="m 172,146 c 0,0 4.75,-6.25 10.5,-6.5 5.75,-0.25 10.5,3.5 10.5,3.5 0,0 5.25,5.5 3,12 -2.25,6.5 -7.5,8.25 -8,8 -0.5,-0.25 -8.5,3.75 -14,-2 -5.5,-5.75 -3.75,-10.25 -3.75,-10.25 0,0 1,-4.25 1.75,-4.75 z"
   id="path1103" />

				<path
   style="fill:#ffff04;stroke:#000000;stroke-width:1"
   inkscape:connector-curvature="0"
   d="m 194,154 c 0,0 -6.5,7.25 -15,6 0,0 -6.25,-2.5 -7,-7 -0.75,-4.5 3,-7 3,-7 0,0 0.75,-3.5 8,-5 7.25,-1.5 12,7 12,7 0,0 0.75,4.5 -1,6 z"
   id="path1105" />

				<path
   style="fill:#fcda00;stroke-width:1"
   inkscape:connector-curvature="0"
   d="m 192.5,153 c 0,0 -2.5113,5.1089 -10.8319,4.9978 0,0 -5.4339,-0.6092 -6.1681,-2.8311 -0.7342,-2.2219 2.5,-2 2.5,-2 0,0 1.3432,2.8314 4.4022,2.8314 3.0591,0 6.7075,-2.2205 7.9311,-3.3314 C 191.5569,151.5557 192.5,153 192.5,153 Z"
   stroke="#ffffff00"
   id="path1107" />

				<path
   style="fill:#fdc50d;stroke-width:1"
   inkscape:connector-curvature="0"
   d="m 175.7946,145.9995 c 0,0 -4.3326,4.4456 -0.2946,9.3338 l 2.6667,-1.8333 c 0,0 -0.1695,-4.0566 0.5647,-5.5008 0.7341,-1.4443 -2.9368,-1.9997 -2.9368,-1.9997 z"
   stroke="#ffffff00"
   id="path1109" />

				<path
   style="fill:#eaa319"
   inkscape:connector-curvature="0"
   d="m 178.5,148.6667 -3.256,-1.6674 c 0,0 1.2848,-4.7771 7.8924,-4.3327 6.6076,0.4443 8.3741,3.7778 8.8636,3.6667 0.4894,-0.1111 -1.8333,2.3334 -1.8333,2.3334 0,0 -3.9389,-5.7774 -8.8334,-3 -4.8945,2.7774 -2.8333,3 -2.8333,3 z"
   id="path1111" />

				<path
   style="fill:#ffff92"
   inkscape:connector-curvature="0"
   d="m 177.263,144.6663 v 0.6666 l 1.4684,0.6666 1.4683,-0.6666 1.4684,-0.6666 0.7341,-1.3332 -0.7341,-0.6665 -1.4684,-0.6666 -1.4683,0.6666 -0.7342,0.6665 z"
   id="path1113" />

				<path
   style="fill:#fdf583"
   inkscape:connector-curvature="0"
   d="m 186.8073,154.6649 h 1.4684 l 0.7341,0.6666 -0.7341,1.3331 -1.4684,0.6666 h -1.4684 -1.4683 v -0.6666 l 0.7342,-0.6665 0.7341,-0.6666 z"
   id="path1115" />

				<path
   style="fill:#221f20;stroke:#000000;stroke-width:1"
   inkscape:connector-curvature="0"
   d="m 179,152 c 0,0 1,-8.5 7,-5 6,3.5 -1,7 -1,7 0,0 -3.75,2.25 -6,-2 z"
   id="path1117" />

				<path
   style="fill:#fdc30d;stroke:#ffdd00;stroke-width:1"
   inkscape:connector-curvature="0"
   d="m 196,189 c 0,0 11.3333,-3.3333 17,-18 0,0 0.2422,-3.005 -0.5,-7.3125 -0.3609,-2.0944 -0.4107,-4.5947 -1.25,-5.9375 0,0 -0.9167,-14.0833 4.75,-16.75 5.6667,-2.6667 8,-8 8,-8 0,0 -3.6667,9 1,12 4.6667,3 8,-5 8,-5 0,0 5,-3.6667 3,-21 0,0 0,-3.3333 -2,-11 -2,-7.6667 -0.6667,-11.3333 2,-19 0,0 -0.3333,9.3333 7,9 7.3333,-0.3333 7,-10 7,-10 v -8 c 0,0 5,14.6667 4,21 0,0 3.3333,8.3333 -11,27 -14.3333,18.6667 -15,23 -15,23 0,0 -1.5,10 3,12.1667 0,0 4,4.1666 10,-1.1667 0,0 -3.6667,14.6667 -17,20 0,0 -13,8.3333 -28,7 z"
   id="path1119" />

				<path
   style="fill:#ffde00"
   inkscape:connector-curvature="0"
   d="m 212,182 c 0,0 4.5,-1.5 4,-7 -0.5,-5.5 -2,-8 -2,-8 0,0 -0.5747,-9.0192 0,-14 0.75,-6.5 4.5,-9 5.6667,-9.6667 0,0 -0.1667,4.6667 1,6 1.1666,1.3334 5,0.3334 5,0.3334 0,0 -3.3334,8.8333 1.3333,13.3333 0,0 0.6667,3.8333 7,5 0,0 -0.1667,5.6667 -12,13 0,0 -7.6667,3 -10,1 z"
   id="path1121" />

				<path
   style="fill:#ffde00;stroke-width:1"
   inkscape:connector-curvature="0"
   d="m 242,125 c 0,0 6.5,-9.1667 8,-15 1.5,-5.8333 2.4583,-9.0833 1.125,-14.75 0,0 -1.125,3.25 -9.125,5.75 0,0 -5.3333,-0.7917 -6.5,-4.625 0,0 0.4349,11.1075 1.5,13.625 1.8333,4.3333 1.6411,5.8062 1.5,7.5 -0.125,1.5 -0.5,4.5 -0.5,11.5 0,0 2.1667,-0.8333 4,-4 z"
   stroke="#ffffff00"
   id="path1123" />

				<path
   style="fill:#fff686;stroke:#fdd866;stroke-width:1"
   inkscape:connector-curvature="0"
   d="m 238,103 c 0,0 4.8333,4.5 11,0 0,0 -3.1667,12.5 -6,15 0,0 -5.6667,-9.1667 -5,-15 z"
   id="path1125" />

				<path
   style="fill:#fff686;stroke:#fdd866;stroke-width:1"
   inkscape:connector-curvature="0"
   d="m 218,153 c 0,0 0.8333,2.6667 5,3 0,0 -1,12 7,15 0,0 -3.6667,6.1667 -11,9 z"
   id="path1127" />

				<path
   style="fill:#e6e6e6"
   inkscape:connector-curvature="0"
   d="m 119,141 c 0,0 1,11 7,13 0,0 3,4.1667 7,8 4,3.8333 -6.3333,-1.6667 -7,-3 -0.6667,-1.3333 0.8333,-3 -1,-4 -1.8333,-1 -3,0 -3,0 0,0 -4.8333,-5.6667 -3,-14 z"
   id="path1129" />

				<path
   style="fill:#ed1e26"
   inkscape:connector-curvature="0"
   d="m 135,112 c 0,0 -3.5,-6.6667 3,-11 6.5,-4.3333 16,9 16,9 0,0 0.5,2.1667 -2,2 -2.5,-0.1667 -7.8333,-1.5 -17,0 z"
   id="path1131" />

				<path
   style="fill:#f79274"
   inkscape:connector-curvature="0"
   d="m 138,104 c 0,0 2.3333,-4 6,0 3.6667,4 -1,4 -1,4 0,0 -2.8333,0.5 -5,-4 z"
   id="path1133" />

				<path
   style="fill:#ed1e26;stroke-width:1"
   inkscape:connector-curvature="0"
   d="m 174,92 c 0,0 10.3333,-6.8333 25,3 0,0 2.6667,4.6667 -10,5 -12.6667,0.3333 -15,-8 -15,-8 z"
   stroke="#ffffff00"
   id="path1135" />

				<path
   style="fill:#f79274;stroke-width:1"
   inkscape:connector-curvature="0"
   d="m 182,95 c 0,0 -1,-3.1667 3,-3 4,0.1667 5,2 5,2 0,0 -0.1667,1.8333 -2,2 -1.8333,0.1667 -5.1667,0.5 -6,-1 z"
   stroke="#ffffff00"
   id="path1137" />

				<path
   style="fill:#ed1e26;stroke-width:1"
   inkscape:connector-curvature="0"
   d="m 180.6667,112 c 0,0 -2.6667,-4.1667 10.3333,-5 0,0 -7.6667,7 -8,7 -0.3333,0 -2.3333,1.1667 -2.3333,-2 z"
   stroke="#ffffff00"
   id="path1139" />

				<path
   style="fill:#f79274;stroke-width:1"
   inkscape:connector-curvature="0"
   d="m 182,111 c 0,0 0.1667,-3.6667 4,-1 0,0 -1.6667,4.3333 -4,1 z"
   stroke="#ffffff00"
   id="path1141" />

				<path
   style="fill:#ed1e26;stroke-width:1"
   inkscape:connector-curvature="0"
   d="m 204,138 c 0,0 3.25,-3.75 6,-2 2.75,1.75 -2,4 -2,4 z"
   stroke="#ffffff00"
   id="path1143" />

				<path
   style="fill:#f79274;stroke-width:1"
   inkscape:connector-curvature="0"
   d="m 206,137 c 0,0 0.1667,-3.6667 4,-1 0,0 -1.6667,4.3333 -4,1 z"
   stroke="#ffffff00"
   id="path1145" />

				<path
   style="fill:#416b2a;stroke:#568e37;stroke-width:1"
   inkscape:connector-curvature="0"
   d="m 158,69 c 0,0 -8,-9.8333 -6,-16.6667 0,0 -2,6.8334 27,16.6667 0,0 12.6667,4.6667 18,10 l 1,2 c 0,0 7.8333,-3.8333 30,4 l -8,12 c 0,0 0.8333,-6.5 -13,-11 0,0 -8.8333,-2.5 -11,0 0,0 -14.6667,-16.1667 -38,-17 z"
   id="path1147" />

				<path
   style="fill:#416b2a;stroke:#568e37;stroke-width:1"
   inkscape:connector-curvature="0"
   d="m 161,79 v 5 c 0,0 -3,-4 -10,-4 z"
   id="path1149" />

				<path
   style="fill:#416b2a;stroke:#568e37;stroke-width:1"
   inkscape:connector-curvature="0"
   d="m 178,38 c 0,0 3.5,-2.3333 6,-2 0,0 11.1667,13.8333 12,29 0,0 -5.6667,-18 -18,-27 z"
   id="path1151" />

				<path
   style="fill:none;stroke:#568e37;stroke-width:1"
   inkscape:connector-curvature="0"
   d="m 200,76 c 0,0 5.1667,-1 7,-1 l -5,2 z"
   id="path1153" />

				<path
   style="fill:#416b2a;stroke:#568e37;stroke-width:1"
   inkscape:connector-curvature="0"
   d="m 217,105 c 0.3333,-0.6667 7,0.6667 8,0 0,0 -0.8333,0.8333 -7,2 0,0 -1.3333,-1.3333 -1,-2 z"
   id="path1155" />

			</g>
    <path
       style="fill:#ed1e26;stroke:#221f20;stroke-width:1.53082871"
       inkscape:connector-curvature="0"
       d="M 26.165185,44.671238 V 41.992287 L 58.312589,23.239635 91.608117,41.60958 v 8.03685 l 11.863923,4.97519 V 35.486265 L 58.312589,10.22759 13.535848,35.103558 v 9.56768"
       id="path1159" />
    <path
       style="fill:#ed1e26;stroke:#221f20;stroke-width:1.53082871"
       inkscape:connector-curvature="0"
       d="m 90.842697,76.81864 v 2.67895 L 58.312589,98.25024 25.782478,80.26301 V 71.84345 L 13.535848,67.25096 V 86.00361 L 58.312589,111.645 103.08933,86.38632 v -9.56768"
       id="path1161" />
    <g
       transform="matrix(0.38270719,0,0,0.38270719,-6.3649262,-12.734841)"
       id="g1175">
				<path
   style="fill:#221f20;stroke:#000000;stroke-width:2"
   inkscape:connector-curvature="0"
   d="M 222.4229,129.9434 C 223.2496,129.58 225,127.4576 225,116 c 0,0 5.5,3.25 4,14 0,0 -3.5,6.75 -2,9 1.5,2.25 6,-4 6,-4 0,0 1.6667,-9.6667 -2,-21.3333 0,0 -6,-27.6667 13,-42.6667 0,0 -9.75,16.5 -3,21 6.75,4.5 5,-13 5,-13 0,0 -2.25,-17.75 9,-24 0,0 -6,14.5 1,29 0,0 7.25,23.5 -3,38 -10.25,14.5 -15,16 -19,28 -4,12 3,10 3,10 0,0 4.25,-1.5 6,-10 0,0 -2,-6.75 6,-13 0,0 -4.5,7.75 -3,19 1.5,11.25 -12,26 -12,26 0,0 -4.7974,3.6552 -8.496,5.7244"
   id="path1163" />

				<path
   style="fill:#fdc30d;stroke:#ffdd00;stroke-width:1"
   inkscape:connector-curvature="0"
   d="m 196,189 c 0,0 11.3333,-3.3333 17,-18 0,0 0.2422,-3.005 -0.5,-7.3125 -0.3609,-2.0944 -0.4107,-4.5947 -1.25,-5.9375 0,0 -0.9167,-14.0833 4.75,-16.75 5.6667,-2.6667 8,-8 8,-8 0,0 -3.6667,9 1,12 4.6667,3 8,-5 8,-5 0,0 5,-3.6667 3,-21 0,0 0,-3.3333 -2,-11 -2,-7.6667 -0.6667,-11.3333 2,-19 0,0 -0.3333,9.3333 7,9 7.3333,-0.3333 7,-10 7,-10 v -8 c 0,0 5,14.6667 4,21 0,0 3.3333,8.3333 -11,27 -14.3333,18.6667 -15,23 -15,23 0,0 -1.5,10 3,12.1667 0,0 4,4.1666 10,-1.1667 0,0 -3.6667,14.6667 -17,20 0,0 -13,8.3333 -28,7 z"
   id="path1165" />

				<path
   style="fill:#ffde00"
   inkscape:connector-curvature="0"
   d="m 212,182 c 0,0 4.5,-1.5 4,-7 -0.5,-5.5 -2,-8 -2,-8 0,0 -0.5747,-9.0192 0,-14 0.75,-6.5 4.5,-9 5.6667,-9.6667 0,0 -0.1667,4.6667 1,6 1.1666,1.3334 5,0.3334 5,0.3334 0,0 -3.3334,8.8333 1.3333,13.3333 0,0 0.6667,3.8333 7,5 0,0 -0.1667,5.6667 -12,13 0,0 -7.6667,3 -10,1 z"
   id="path1167" />

				<path
   style="fill:#ffde00;stroke-width:1"
   inkscape:connector-curvature="0"
   d="m 242,125 c 0,0 6.5,-9.1667 8,-15 1.5,-5.8333 2.4583,-9.0833 1.125,-14.75 0,0 -1.125,3.25 -9.125,5.75 0,0 -5.3333,-0.7917 -6.5,-4.625 0,0 0.4349,11.1075 1.5,13.625 1.8333,4.3333 1.6411,5.8062 1.5,7.5 -0.125,1.5 -0.5,4.5 -0.5,11.5 0,0 2.1667,-0.8333 4,-4 z"
   stroke="#ffffff00"
   id="path1169" />

				<path
   style="fill:#fff686;stroke:#fdd866;stroke-width:1"
   inkscape:connector-curvature="0"
   d="m 238,103 c 0,0 4.8333,4.5 11,0 0,0 -3.1667,12.5 -6,15 0,0 -5.6667,-9.1667 -5,-15 z"
   id="path1171" />

				<path
   style="fill:#fff686;stroke:#fdd866;stroke-width:1"
   inkscape:connector-curvature="0"
   d="m 218,153 c 0,0 0.8333,2.6667 5,3 0,0 -1,12 7,15 0,0 -3.6667,6.1667 -11,9 z"
   id="path1173" />

			</g>
  </g>
</svg>
