<?xml version="1.0" encoding="UTF-8" standalone="no"?>
<!-- Created with Inkscape (http://www.inkscape.org/) -->

<svg
   height="120"
   width="120"
   version="1.1"
   id="svg4247"
   inkscape:version="1.1 (c4e8f9e, 2021-05-24)"
   sodipodi:docname="suncash.svg"
   inkscape:export-xdpi="90"
   inkscape:export-ydpi="90"
   xmlns:inkscape="http://www.inkscape.org/namespaces/inkscape"
   xmlns:sodipodi="http://sodipodi.sourceforge.net/DTD/sodipodi-0.dtd"
   xmlns:xlink="http://www.w3.org/1999/xlink"
   xmlns="http://www.w3.org/2000/svg"
   xmlns:svg="http://www.w3.org/2000/svg"
   xmlns:rdf="http://www.w3.org/1999/02/22-rdf-syntax-ns#"
   xmlns:cc="http://creativecommons.org/ns#"
   xmlns:dc="http://purl.org/dc/elements/1.1/">
  <metadata
     id="metadata4259">
    <rdf:RDF>
      <cc:Work
         rdf:about="">
        <dc:format>image/svg+xml</dc:format>
        <dc:type
           rdf:resource="http://purl.org/dc/dcmitype/StillImage" />
        <dc:title />
      </cc:Work>
    </rdf:RDF>
  </metadata>
  <defs
     id="defs4257">
    <linearGradient
       inkscape:collect="always"
       id="linearGradient4761">
      <stop
         style="stop-color:#1a1a1a;stop-opacity:1;"
         offset="0"
         id="stop4763" />
      <stop
         style="stop-color:#1a1a1a;stop-opacity:0;"
         offset="1"
         id="stop4765" />
    </linearGradient>
    <linearGradient
       inkscape:collect="always"
       xlink:href="#linearGradient4761"
       id="linearGradient4769"
       x1="-409.44958"
       y1="-20.942795"
       x2="-57.60104"
       y2="133.44374"
       gradientUnits="userSpaceOnUse"
       gradientTransform="matrix(-1.0090909,0,0,-1.0090909,-74.103737,135.33971)" />
    <clipPath
       clipPathUnits="userSpaceOnUse"
       id="clipPath16">
      <path
         d="m 0,0 275.05,0 0,269.777 L 0,269.777 0,0 Z"
         id="path18"
         inkscape:connector-curvature="0" />
    </clipPath>
    <circle
       r="585.6"
       cy="618"
       cx="618"
       id="SVGID_1_" />
  </defs>
  <sodipodi:namedview
     pagecolor="#ffffff"
     bordercolor="#666666"
     borderopacity="1"
     objecttolerance="10"
     gridtolerance="10"
     guidetolerance="10"
     inkscape:pageopacity="0"
     inkscape:pageshadow="2"
     inkscape:window-width="1654"
     inkscape:window-height="1003"
     id="namedview4255"
     showgrid="false"
     inkscape:zoom="1"
     inkscape:cx="-199"
     inkscape:cy="210.5"
     inkscape:window-x="0"
     inkscape:window-y="25"
     inkscape:window-maximized="0"
     inkscape:current-layer="svg4247"
     inkscape:pagecheckerboard="0" />
  <path
     style="fill:url(#linearGradient4769);fill-opacity:1;stroke:none;stroke-opacity:1"
     inkscape:connector-curvature="0"
     id="path4251-6"
     d="M 6.6612254,48.073886 C 14.074737,18.341792 44.19189,0.24725348 73.930899,7.6616275 103.65782,15.074269 121.75447,45.189649 114.33749,74.920005 106.92746,104.65554 76.810279,122.75183 47.079931,115.33918 17.342646,107.92654 -0.7522758,77.807711 6.6612254,48.073886 Z" />
  <path
     style="fill:#ffffff;stroke:none;stroke-opacity:1;fill-opacity:1"
     inkscape:connector-curvature="0"
     id="path4251"
     d="M 113.35374,73.305173 C 106.00702,102.76941 76.161184,120.70094 46.690076,113.35336 17.231001,106.0075 -0.70262839,76.163426 6.6475295,46.700911 13.990812,17.233241 43.836647,-0.70001494 73.29916,6.6458482 c 29.46939,7.3458628 47.4013,37.1933738 40.05458,66.6593248 z" />
  <path
     style="fill:#ffffff"
     inkscape:connector-curvature="0"
     d="m 56.785734,74.692498 3.57241,-13.45166 8.457786,-3.089967 2.103756,-7.90549 -0.07183,-0.196109 -8.325488,3.041524 5.998561,-22.586923 -17.012125,0 -7.844734,29.476456 -6.549806,2.392728 -2.164226,8.150041 6.544795,-2.390723 -4.623452,17.371832 45.276019,0 2.902561,-10.811709 -28.264228,0"
     id="path4985" />
  <path
     style="fill:#ffffff;fill-rule:nonzero"
     inkscape:connector-curvature="0"
     d="M 77.899062,41.210625 C 75.231563,34.431875 68.542187,33.82 60.752813,35.3325 l -2.774063,-9.669688 -5.885,1.687813 2.701875,9.41875 c -1.546875,0.44 -3.12125,0.928125 -4.685313,1.409375 l -2.715625,-9.480625 -5.881562,1.684375 2.767187,9.669688 c -1.265,0.391875 -2.509375,0.776875 -3.729687,1.127499 l -0.01031,-0.03437 -8.119375,2.327187 1.804688,6.290625 c 0,0 4.324375,-1.33375 4.272812,-1.230625 2.385625,-0.684062 3.557813,0.477812 4.125,1.60875 l 3.1625,11.01375 c 0.161563,-0.04469 0.378125,-0.09969 0.6325,-0.1375 l -0.622187,0.17875 4.424062,15.434375 c 0.11,0.780313 0.01375,2.10375 -1.65,2.585 0.09281,0.04469 -4.283125,1.22375 -4.283125,1.22375 l 0.849063,7.366563 7.65875,-2.2 c 1.426562,-0.402188 2.835937,-0.780313 4.214375,-1.16875 l 2.808437,9.779687 5.878125,-1.684375 -2.774062,-9.676562 a 225.98125,225.98125 0 0 0 4.71625,-1.30625 L 70.395,91.185 l 5.888437,-1.687812 -2.798125,-9.7625 c 9.731563,-3.406563 15.943125,-7.885625 14.138438,-17.428125 -1.450625,-7.679375 -5.92625,-10.01 -11.931563,-9.74875 2.915,-2.715625 4.169688,-6.386875 2.206875,-11.34375 z M 75.664688,64.4825 c 2.096875,7.311563 -10.656251,10.068438 -14.64375,11.216562 L 57.305,62.739688 c 3.9875,-1.144688 16.17,-5.878126 18.35625,1.74625 z M 67.682813,46.985625 c 1.904374,6.651563 -8.755313,8.86875 -12.079375,9.820938 L 52.234688,45.05375 c 3.320625,-0.952187 13.457812,-5.001562 15.448125,1.935313 z"
     id="path5145" />
  <style
     id="style5548">.st0{fill:#988430}.st1{fill:#7a6a2a}.st2{fill:#ba9f33}.st3,.st4,.st5,.st6{clip-path:url(#SVGID_2_);fill:#e2cc85}.st4,.st5,.st6{fill:#f1d789}.st5,.st6{fill:#f4ecb4}.st6{fill:#f3e19d}.st10,.st11,.st7,.st8,.st9{clip-path:url(#SVGID_2_);fill:#f2e8b0}.st10,.st11,.st8,.st9{fill:#f5eec0}.st10,.st11,.st9{fill:#e6db9d}.st10,.st11{fill:#e5cb7a}.st11{fill:#d8c173}.st12,.st13,.st14,.st15,.st16{clip-path:url(#SVGID_2_);fill:#e0cd81}.st13,.st14,.st15,.st16{fill:#dfc57c}.st14,.st15,.st16{fill:#e5cc7c}.st15,.st16{fill:#d2c281}.st16{fill:#e2c270}.st17,.st18,.st19,.st20,.st21{clip-path:url(#SVGID_2_);fill:#ccb360}.st18,.st19,.st20,.st21{fill:#d5b457}.st19,.st20,.st21{fill:#d2b257}.st20,.st21{fill:#d2b159}.st21{fill:#c2a44d}.st22,.st23,.st24,.st25,.st26{clip-path:url(#SVGID_2_);fill:#caa13e}.st23,.st24,.st25,.st26{fill:#b59544}.st24,.st25,.st26{fill:#c89d3a}.st25,.st26{fill:#ceb052}.st26{fill:#cca847}.st27,.st28,.st29,.st30,.st31{clip-path:url(#SVGID_2_);fill:#c39d3c}.st28,.st29,.st30,.st31{fill:#d2ba6b}.st29,.st30,.st31{fill:#c0993a}.st30,.st31{fill:#a88f33}.st31{fill:#e3c571}.st32,.st33,.st34,.st35,.st36{clip-path:url(#SVGID_2_);fill:#d8b65b}.st33,.st34,.st35,.st36{fill:#d3ae4d}.st34,.st35,.st36{fill:#f4efc8}.st35,.st36{fill:#ebcc73}.st36{fill:#e5c66b}.st37,.st38,.st39,.st40,.st41{clip-path:url(#SVGID_2_);fill:#e6bd62}.st38,.st39,.st40,.st41{fill:#b6933f}.st39,.st40,.st41{fill:#c49937}.st40,.st41{fill:#dfc068}.st41{fill:#c99e3d}.st42,.st43,.st44,.st45,.st46{clip-path:url(#SVGID_2_);fill:#b58634}.st43,.st44,.st45,.st46{fill:#e6c367}.st44,.st45,.st46{fill:#dcba5a}.st45,.st46{fill:#e9ce77}.st46{fill:#cdae50}.st47,.st48,.st49,.st50,.st51{clip-path:url(#SVGID_2_);fill:#d2a83e}.st48,.st49,.st50,.st51{fill:#c29637}.st49,.st50,.st51{fill:#ac8132}.st50,.st51{fill:#a67a2e}.st51{fill:#8c6228}.st52,.st53,.st54,.st55,.st56{clip-path:url(#SVGID_2_);fill:#cba94c}.st53,.st54,.st55,.st56{fill:#be9c44}.st54,.st55,.st56{fill:#a17c34}.st55,.st56{fill:#92723a}.st56{fill:#b18e3e}.st57,.st58,.st59,.st60,.st61{clip-path:url(#SVGID_2_);fill:#543e26}.st58,.st59,.st60,.st61{fill:#806031}.st59,.st60,.st61{fill:#b6903c}.st60,.st61{fill:#685026}.st61{fill:#d4b968}.st62,.st63,.st64,.st65,.st66{clip-path:url(#SVGID_2_);fill:#cca849}.st63,.st64,.st65,.st66{fill:#585136}.st64,.st65,.st66{fill:#252211}.st65,.st66{fill:#c3b378}.st66{fill:#e6d89c}.st67,.st68,.st69,.st70,.st71{clip-path:url(#SVGID_2_);fill:#6f674d}.st68,.st69,.st70,.st71{fill:#ac924c}.st69,.st70,.st71{fill:#9f8e57}.st70,.st71{fill:#eac970}.st71{fill:#d7bc6b}.st72,.st73,.st74,.st75,.st76{clip-path:url(#SVGID_2_);fill:#453a25}.st73,.st74,.st75,.st76{fill:#84754b}.st74,.st75,.st76{fill:#f7f7e7}.st75,.st76{fill:#f8f6de}.st76{fill:#d4c38b}.st77,.st78,.st79,.st80,.st81{clip-path:url(#SVGID_2_);fill:#e2d59d}.st78,.st79,.st80,.st81{fill:#cbac5a}.st79,.st80,.st81{fill:#d6bc6f}.st80,.st81{fill:#dfc677}.st81{fill:#c4a859}.st82,.st83,.st84,.st85,.st86{clip-path:url(#SVGID_2_);fill:#927d49}.st83,.st84,.st85,.st86{fill:#6e6342}.st84,.st85,.st86{fill:#39331f}.st85,.st86{fill:#292311}.st86{fill:#3f3824}.st87,.st88,.st89,.st90,.st91{clip-path:url(#SVGID_2_);fill:#2d2815}.st88,.st89,.st90,.st91{fill:#82764f}.st89,.st90,.st91{fill:#2d2816}.st90,.st91{fill:#574f35}.st91{fill:none}.st92,.st93,.st94,.st95,.st96{clip-path:url(#SVGID_2_);fill:#cfb66c}.st93,.st94,.st95,.st96{fill:#dec270}.st94,.st95,.st96{fill:#cbaf59}.st95,.st96{fill:#e3c677}.st96{fill:#ecd592}.st97{opacity:.8;fill:#fff;enable-background:new}</style>
  <path
     style="fill:#ffffff;fill-opacity:1;stroke:#000000;stroke-opacity:1;stroke-width:0.5;stroke-miterlimit:4;stroke-dasharray:none;opacity:0.5"
     inkscape:connector-curvature="0"
     d="M 115,59.999706 C 115,90.375523 90.376003,115.00004 60.000335,115.00004 29.624333,115.00004 5,90.375523 5,59.999706 5,29.624223 29.624333,5.0000396 60.000335,5.0000396 90.375668,5.0000396 115,29.624223 115,59.999706"
     id="path6359" />
  <g
     id="svgg"
     transform="matrix(0.20195725,0,0,0.20559268,20.772952,12.708259)">
    <path
       id="path0"
       d="m 200.127,0.312 c -18.53,1.552 -36.948,7.716 -52.529,17.578 -4.037,2.555 -8.424,5.716 -8.604,6.198 -0.036,0.096 -0.157,0.118 -0.268,0.049 -0.661,-0.408 0.366,0.642 3.644,3.726 5.133,4.831 4.731,4.493 4.944,4.155 0.1,-0.157 0.183,-0.22 0.184,-0.139 0.002,0.081 0.462,-0.177 1.022,-0.573 17.403,-12.304 37.156,-18.952 58.37,-19.646 5.206,-0.17 5.884,-0.338 7.336,-1.822 2.849,-2.91 1.94,-7.777 -1.768,-9.46 -1.011,-0.459 -7.24,-0.492 -12.331,-0.066 m 94.293,67.543 c 0,7.108 -0.017,7.482 -0.339,7.236 -0.509,-0.389 -0.374,-0.244 2.571,2.769 23.751,24.303 34.391,58.761 28.505,92.315 -0.857,4.889 1.365,8.116 5.556,8.067 3.642,-0.042 5.253,-1.865 6.108,-6.915 6.726,-39.699 -8.434,-82.518 -38.131,-107.705 -0.587,-0.498 -1.417,-1.216 -1.844,-1.595 -0.427,-0.38 -0.846,-0.692 -0.931,-0.694 -0.085,-0.002 -0.357,-0.222 -0.604,-0.489 -0.887,-0.957 -0.891,-0.93 -0.891,7.011 m -96.458,15.688 v 4.164 l -0.631,0.101 c -0.347,0.056 -1.329,0.2 -2.183,0.319 -8.197,1.148 -15.648,5.291 -20.045,11.145 -1.984,2.643 -4.31,8.162 -4.312,10.234 v 0.529 l 8.232,0.053 c 5.467,0.035 8.181,-0.012 8.08,-0.141 -1.177,-1.504 -0.529,-8.391 1.059,-11.26 1.759,-3.178 6.497,-6.305 9.554,-6.305 0.195,0 0.246,1.821 0.246,8.831 v 8.831 h 2.814 2.814 v -8.856 -8.856 l 1.191,0.135 c 3.861,0.437 5.07,1.921 5.695,6.993 0.62,5.03 1.532,7.446 3.535,9.364 l 1.259,1.207 h 5.32 c 6.102,-0.001 5.969,0.031 7.552,-1.821 1.933,-2.263 2.453,-5.142 1.525,-8.442 -1.935,-6.885 -10.055,-11.185 -22.821,-12.086 l -3.256,-0.23 v -4.036 -4.037 h -2.814 -2.814 v 4.164 M 65.308,115.615 c -3.084,1.051 -3.893,3.026 -3.72,9.082 1.057,37.113 19.205,70.878 49.788,92.634 0.82,0.583 2.49,1.694 3.078,2.048 0.186,0.112 0.25,-1.41 0.291,-6.933 0.03,-3.892 0.018,-7.041 -0.026,-6.997 -0.044,0.044 -0.202,-0.094 -0.351,-0.307 -0.149,-0.213 -0.402,-0.387 -0.562,-0.387 -0.161,0 -0.238,-0.087 -0.172,-0.194 0.066,-0.107 -0.011,-0.194 -0.171,-0.194 -0.161,0 -0.406,-0.155 -0.546,-0.345 -0.139,-0.19 -0.507,-0.541 -0.817,-0.78 -5.049,-3.89 -13.213,-12.475 -18.032,-18.963 C 80.875,166.52 74.06,146.657 73.193,123.435 c -0.164,-4.385 -0.311,-4.953 -1.647,-6.373 -1.456,-1.548 -4.125,-2.167 -6.238,-1.447 m 166.23,133.751 c 0,0.135 -0.087,0.191 -0.194,0.125 -0.107,-0.066 -0.194,-0.023 -0.194,0.097 0,0.119 -0.081,0.166 -0.181,0.105 -0.099,-0.062 -0.236,-0.022 -0.304,0.089 -0.068,0.11 -0.205,0.15 -0.305,0.088 -0.099,-0.061 -0.18,-0.033 -0.18,0.062 0,0.095 -0.11,0.177 -0.243,0.181 -0.134,0.005 -0.898,0.318 -1.698,0.696 -11.595,5.483 -26.598,8.937 -40.7,9.369 -4.54,0.139 -5.451,0.337 -6.731,1.463 -3.184,2.803 -2.556,7.723 1.24,9.711 0.842,0.442 1.02,0.457 5.046,0.44 12.127,-0.053 26.855,-2.779 37.845,-7.003 2.847,-1.094 4.783,-1.871 5.241,-2.103 0.729,-0.369 1.637,-0.747 1.746,-0.727 0.188,0.034 -0.009,-12.458 -0.199,-12.649 -0.122,-0.122 -0.189,-0.102 -0.189,0.056 M 26.104,305.207 c -0.32,0.046 -1.281,0.177 -2.135,0.29 -14.253,1.893 -22.546,12.336 -20.675,26.032 1.21,8.851 6.569,14.149 19.608,19.38 11.918,4.782 15.549,8.226 15.551,14.751 0.002,7.245 -4.336,11.101 -12.461,11.077 C 17.827,376.713 14.957,374.046 6.905,359 L 5.996,357.302 H 4.26 c -1.523,0 -1.738,0.042 -1.742,0.34 -0.028,1.87 1.274,20.361 1.442,20.476 3.531,2.419 22.145,4.163 28.84,2.703 13.006,-2.838 20.773,-11.862 20.765,-24.126 -0.007,-10.75 -6.13,-17.264 -22.124,-23.539 -11.858,-4.651 -14.914,-7.657 -14.502,-14.263 0.405,-6.506 5.162,-9.825 13.093,-9.136 5.535,0.481 9.474,4.337 14.855,14.54 l 0.927,1.758 h 1.732 1.732 l -0.09,-0.922 c -0.05,-0.507 -0.262,-4.022 -0.472,-7.811 -0.211,-3.79 -0.435,-7.519 -0.499,-8.286 l -0.116,-1.397 -1.489,-0.493 c -4.264,-1.412 -16.28,-2.548 -20.508,-1.939 m 30.801,19.13 0.058,1.193 1.968,0.441 c 2.923,0.654 3.35,0.946 3.816,2.603 0.116,0.414 0.242,7.95 0.319,19.121 0.124,18.092 0.134,18.466 0.545,19.939 2.624,9.412 10.148,13.607 23.822,13.284 10.577,-0.251 16.518,-4.085 19.059,-12.301 l 0.529,-1.708 0.115,-18.534 c 0.144,-23.022 -0.136,-21.423 3.916,-22.361 l 2,-0.462 0.058,-1.204 0.057,-1.204 h -8.752 -8.752 l 0.058,1.201 0.058,1.201 2.323,0.456 c 4.94,0.97 4.597,-0.436 4.707,19.282 0.124,22.392 -0.054,23.809 -3.423,27.171 -4.162,4.154 -14.274,4.191 -18.398,0.068 -2.788,-2.789 -2.813,-2.984 -2.912,-22.993 -0.119,-23.947 -0.355,-22.624 4.229,-23.626 l 1.635,-0.358 0.058,-1.201 0.057,-1.201 H 70.451 56.847 l 0.058,1.193 m 58.185,0.031 v 1.224 l 1.778,0.341 c 4.513,0.865 4.22,-0.874 4.225,25.062 0.006,26.457 0.225,25.08 -4.149,26.091 l -1.854,0.429 v 1.247 1.248 h 8.646 8.645 l -0.057,-1.206 -0.058,-1.205 -2.191,-0.429 c -3.885,-0.761 -4.249,-1.169 -4.515,-5.066 -0.207,-3.025 -0.242,-39.26 -0.038,-39.246 0.08,0.006 7.378,10.617 16.219,23.581 l 16.073,23.571 h 2.995 2.995 l 0.005,-23.436 c 0.006,-31.9 -0.326,-29.594 4.41,-30.645 l 1.601,-0.355 v -1.215 -1.215 h -8.636 -8.637 v 1.224 1.223 l 1.504,0.245 c 3.573,0.58 4.617,1.15 5.092,2.779 0.287,0.984 0.543,27.529 0.265,27.514 -0.091,-0.005 -5.187,-7.424 -11.325,-16.487 l -11.159,-16.479 -10.917,-0.009 -10.917,-0.01 v 1.224"
       stroke="none"
       fill="#fcaa04"
       fill-rule="evenodd" />
    <path
       id="path1"
       d="m 220.475,18.63 c -4.16,0.282 -6.672,0.566 -9.412,1.066 -0.214,0.039 -0.498,0.077 -0.631,0.085 -0.189,0.012 -0.243,1.318 -0.243,5.84 v 5.826 l 0.631,-0.114 c 0.347,-0.063 1.03,-0.145 1.519,-0.183 0.488,-0.038 1.58,-0.159 2.426,-0.269 22.264,-2.887 47.962,2.532 67.091,14.148 0.325,0.197 0.34,-0.138 0.291,-6.544 l -0.051,-6.753 -2.038,-1.017 C 262.32,21.866 239.892,17.316 220.475,18.63 M 83.608,70.451 c -8.098,20.926 -9.861,49.169 -4.296,68.85 l 0.289,1.019 H 85.5 c 4.636,0 5.881,-0.052 5.814,-0.242 -0.047,-0.134 -0.131,-0.483 -0.188,-0.777 -0.234,-1.219 -0.333,-1.674 -0.683,-3.153 -4.057,-17.123 -3.539,-36.165 1.455,-53.471 1.158,-4.011 3.414,-10.412 4.188,-11.883 0.098,-0.186 0.178,-0.424 0.178,-0.529 0,-0.121 -2.301,-0.211 -6.234,-0.245 l -6.234,-0.054 -0.188,0.485 m 225.308,57.982 c -5.589,0.052 -5.783,0.067 -5.669,0.424 0.135,0.426 0.176,0.6 0.578,2.438 0.164,0.748 0.346,1.488 0.406,1.646 0.257,0.677 1.263,5.788 1.72,8.738 2.633,17.015 1.134,34.348 -4.366,50.461 -0.747,2.188 -1.409,4.131 -1.47,4.318 -0.126,0.382 1.814,0.419 8.94,0.17 l 3.476,-0.121 0.368,-1.068 c 5.925,-17.189 7.522,-38.33 4.324,-57.27 -0.555,-3.291 -1.388,-7.237 -1.655,-7.844 -0.094,-0.213 -0.265,-0.759 -0.381,-1.213 -0.115,-0.454 -0.271,-0.804 -0.347,-0.779 -0.076,0.025 -2.742,0.07 -5.924,0.1 m -98.824,21.979 c 0.417,0.427 0.802,0.777 0.855,0.777 0.054,0 -0.244,-0.35 -0.661,-0.777 -0.417,-0.427 -0.801,-0.776 -0.855,-0.776 -0.053,0 0.244,0.349 0.661,0.776 m 1.068,1.207 c 0,0.076 0.177,0.233 0.393,0.349 0.217,0.116 0.346,0.288 0.288,0.382 -0.058,0.094 -0.022,0.222 0.079,0.285 0.826,0.51 1.97,4.439 2.093,7.19 0.335,7.461 -3.074,12.663 -9.464,14.439 -2.503,0.696 -2.229,1.906 -2.159,-9.538 0.033,-5.471 0.003,-10.667 -0.066,-11.548 l -0.127,-1.601 h -2.779 -2.78 l -0.127,1.601 c -0.07,0.881 -0.1,6.121 -0.066,11.645 l 0.062,10.044 -0.486,-10e-4 c -1.184,-0.002 -3.974,-0.596 -4.995,-1.063 -2.381,-1.09 -2.889,-2.104 -3.438,-6.859 -1.096,-9.476 -5.341,-13.06 -13.259,-11.193 -8.835,2.083 -7.905,14.848 1.435,19.694 l 1.13,0.586 h 19.533 19.534 l 1.529,-0.797 c 8.691,-4.527 14.329,-13.676 14.071,-22.829 l -0.023,-0.821 -10.189,-0.052 c -5.604,-0.029 -10.189,0.01 -10.189,0.087 m -74.721,91.405 c 0,4.902 -0.051,6.17 -0.243,6.061 -0.166,-0.093 -0.181,-0.071 -0.048,0.07 1.38,1.468 18.501,5.569 27.268,6.532 14.712,1.615 35.993,-0.049 44.735,-3.5 0.427,-0.168 0.82,-0.309 0.874,-0.313 0.558,-0.04 0.582,-0.289 0.582,-6.092 0,-3.601 -0.072,-5.898 -0.185,-5.898 -0.209,0 -1.438,0.317 -3.988,1.03 -21.522,6.019 -45.691,4.879 -66.521,-3.136 l -2.474,-0.953 v 6.199"
       stroke="none"
       fill="#f85004"
       fill-rule="evenodd" />
    <path
       id="path2"
       d="m 113.172,27.366 c -2.873,0.678 -11.24,10.072 -17.727,19.902 -3.954,5.992 -10.165,17.903 -10.671,20.466 -0.032,0.16 -0.115,0.335 -0.184,0.388 -0.069,0.054 -0.157,0.272 -0.194,0.485 -0.037,0.214 -0.125,0.432 -0.194,0.486 -0.07,0.053 -0.157,0.271 -0.194,0.485 -0.067,0.381 0.052,0.389 6.171,0.439 l 6.239,0.051 0.198,-0.568 c 0.109,-0.313 0.147,-0.62 0.085,-0.682 -0.062,-0.062 0.003,-0.113 0.145,-0.113 0.143,0 0.206,-0.053 0.141,-0.118 -0.065,-0.065 -0.035,-0.218 0.067,-0.34 0.101,-0.122 0.826,-1.532 1.611,-3.133 4.725,-9.638 11.11,-18.637 19.148,-26.983 2.126,-2.207 2.595,-3.167 2.564,-5.253 -0.055,-3.744 -3.507,-6.385 -7.205,-5.512 m 169.071,11.111 c 0.027,3.904 0.122,6.737 0.224,6.726 0.097,-0.009 0.255,0.124 0.351,0.296 0.097,0.172 0.257,0.262 0.357,0.2 0.101,-0.062 0.183,-0.015 0.183,0.104 0,0.119 0.087,0.163 0.194,0.097 0.106,-0.066 0.194,-0.027 0.194,0.086 0,0.113 0.123,0.205 0.275,0.205 0.151,0 0.304,0.08 0.339,0.177 0.036,0.097 0.982,0.781 2.103,1.519 10.105,6.653 20.24,16.558 27.614,26.986 2.305,3.26 3.331,3.926 6.045,3.922 3.952,-0.006 6.607,-3.777 5.395,-7.664 -1.239,-3.973 -13.8,-18.188 -22.434,-25.39 -5.278,-4.402 -17.094,-12.415 -18.318,-12.422 -0.134,-0.001 -0.243,-0.08 -0.243,-0.175 0,-0.095 -0.087,-0.119 -0.194,-0.053 -0.107,0.066 -0.194,0.043 -0.194,-0.05 0,-0.216 -1.552,-1.098 -1.556,-0.885 -10e-4,0.087 -0.088,0.027 -0.192,-0.133 -0.125,-0.192 -0.174,2.01 -0.143,6.454 m -43.479,-1.893 c -3.664,1.592 -4.171,7.609 -0.841,9.981 l 0.505,0.36 -0.058,-4.981 -0.057,-4.982 0.834,-0.32 c 0.458,-0.176 0.703,-0.323 0.542,-0.327 -0.16,-0.004 -0.576,0.117 -0.925,0.269 m 0.343,10.573 c 0,0.16 0.962,0.466 1.083,0.345 0.037,-0.037 -0.192,-0.164 -0.508,-0.284 -0.316,-0.119 -0.575,-0.147 -0.575,-0.061 M 94.447,95.571 c -1.922,10.504 -2.619,21.956 -1.492,24.522 1.603,3.647 6.445,4.476 9.325,1.596 1.398,-1.398 1.746,-2.381 1.749,-4.936 0.003,-2.484 0.343,-7.913 0.68,-10.836 l 0.285,-2.477 -0.819,-0.725 c -1.18,-1.046 -8.091,-7.549 -8.804,-8.284 l -0.602,-0.621 -0.322,1.761 m 130.289,38.975 c 0.237,0.321 -0.851,0.341 -21.613,0.388 l -21.863,0.049 1.898,1.258 c 2.335,1.548 7.686,4.271 10.874,5.534 l 2.378,0.942 0.033,5.255 c 0.019,2.89 0.068,4.883 0.109,4.43 l 0.074,-0.825 h 2.792 2.792 l 0.074,0.825 c 0.041,0.453 0.089,-0.995 0.108,-3.218 l 0.034,-4.044 1.654,0.881 c 2.425,1.29 4.105,2.471 5.835,4.102 l 1.536,1.449 10.043,0.002 10.044,0.003 v 0.809 c 0,0.444 0.051,0.758 0.112,0.696 0.202,-0.202 -0.303,-5.638 -0.68,-7.328 -0.958,-4.284 -2.795,-7.711 -5.82,-10.858 -0.365,-0.379 -0.551,-0.537 -0.414,-0.35 m 74.342,30.552 c 0,8.824 0.043,16.001 0.095,15.949 0.145,-0.145 1.005,-4.384 1.548,-7.636 1.457,-8.715 2.011,-19.573 1.102,-21.584 -0.432,-0.956 -2.098,-2.773 -2.542,-2.773 -0.139,0 -0.203,5.038 -0.203,16.044 m 4.124,31.651 c -3.411,0.059 -3.424,0.062 -3.331,0.755 0.009,0.068 -0.076,0.181 -0.189,0.251 -0.113,0.07 -0.239,0.298 -0.28,0.507 -0.197,1 -4.08,8.898 -6.113,12.434 -4.108,7.142 -9.648,14.498 -15.74,20.9 -2.646,2.78 -3.022,3.489 -3.01,5.667 0.032,5.496 6.285,7.684 10.357,3.624 9.128,-9.101 17.62,-21.276 22.983,-32.947 1.261,-2.745 3.589,-8.425 3.684,-8.989 0.029,-0.17 0.157,-0.499 0.284,-0.732 0.128,-0.232 0.257,-0.581 0.288,-0.776 0.03,-0.195 0.123,-0.463 0.206,-0.597 0.157,-0.251 -0.094,-0.254 -9.139,-0.097 M 96.487,212.135 c -4.318,0.896 -5.992,6.372 -2.974,9.729 6.43,7.151 19.405,16.536 30.642,22.164 3.817,1.912 10.343,4.719 10.343,4.45 0,-0.056 0.131,0.006 0.291,0.139 0.16,0.133 0.292,0.166 0.294,0.072 0.002,-0.093 0.069,-0.065 0.15,0.062 0.08,0.127 0.385,0.274 0.676,0.327 l 0.53,0.096 v -6.209 c 0,-4.09 -0.067,-6.169 -0.194,-6.09 -0.107,0.066 -0.195,0.023 -0.195,-0.097 0,-0.119 -0.079,-0.167 -0.177,-0.107 -0.098,0.06 -0.208,0.018 -0.246,-0.094 -0.037,-0.112 -0.263,-0.219 -0.501,-0.237 -0.239,-0.018 -0.434,-0.106 -0.434,-0.197 0,-0.09 -0.087,-0.11 -0.194,-0.044 -0.107,0.066 -0.194,0.027 -0.194,-0.086 0,-0.113 -0.089,-0.205 -0.196,-0.205 -0.402,0 -6.215,-2.899 -9.12,-4.547 -7.576,-4.3 -14.582,-9.501 -21.058,-15.633 -3.505,-3.318 -4.97,-4.006 -7.443,-3.493 m 85.124,15.65 c 0.185,0.075 0.242,1.305 0.242,5.225 0,5.653 -0.036,5.526 1.23,4.359 2.847,-2.624 2.504,-7.211 -0.692,-9.251 -0.398,-0.254 -0.791,-0.455 -0.873,-0.446 -0.082,0.008 -0.041,0.059 0.093,0.113"
       stroke="none"
       fill="#fb6d04"
       fill-rule="evenodd" />
    <path
       id="path3"
       d="m 207.278,20.175 c -16.002,2.852 -31.16,8.906 -44.589,17.811 -3.817,2.532 -4.918,5.141 -3.487,8.266 1.747,3.817 5.53,4.446 9.797,1.629 11.593,-7.653 24.536,-13.038 37.548,-15.621 l 3.637,-0.722 0.002,-5.857 c 0.003,-5.413 0.029,-5.863 0.343,-5.945 0.927,-0.242 -0.531,-0.045 -3.251,0.439 m 70.902,53.311 c -2.163,0.767 -3.627,2.941 -3.641,5.408 -0.013,2.211 0.335,2.84 3.349,6.046 11.42,12.152 19.539,25.752 24.231,40.589 l 0.938,2.967 5.968,-0.056 c 3.528,-0.033 5.968,0.017 5.968,0.122 0,0.098 0.051,0.127 0.113,0.065 0.158,-0.158 -1.309,-5.254 -2.566,-8.919 -5.6,-16.323 -14.81,-31.254 -26.982,-43.744 -2.625,-2.693 -4.753,-3.408 -7.378,-2.478 M 79.501,140.514 c 1.217,7.012 7.318,22.124 12.498,30.956 5.765,9.831 16.528,23.277 20.028,25.021 3.824,1.906 8.35,-0.916 8.344,-5.204 -0.002,-2.142 -0.329,-2.714 -3.501,-6.127 -12.022,-12.935 -20.977,-28.543 -24.972,-43.53 l -0.35,-1.31 h -5.971 c -4.589,0 -5.997,-0.056 -6.083,-0.242 -0.061,-0.134 -0.057,0.063 0.007,0.436 m 117.006,35.516 -19.603,0.098 1.65,0.654 c 3.217,1.276 8.642,2.361 13.198,2.64 1.014,0.062 2.477,0.162 3.25,0.221 l 1.408,0.109 v 6.291 6.291 h 3.008 3.008 v -6.304 -6.304 l 0.437,-0.088 c 0.24,-0.048 1.265,-0.191 2.277,-0.318 3.277,-0.41 7.125,-1.506 10.107,-2.879 0.687,-0.316 1.163,-0.561 1.056,-0.543 -0.107,0.018 -9.015,0.078 -19.796,0.132 m 58.19,36.099 c -1.337,0.28 -1.933,0.7 -4.597,3.242 -10.818,10.317 -23.178,17.997 -37.194,23.109 -1.761,0.643 -3.377,1.211 -3.59,1.264 -0.314,0.076 -0.324,0.099 -0.049,0.117 0.316,0.021 0.34,0.439 0.34,5.872 0,5.345 -0.029,5.872 -0.34,6.104 -0.494,0.369 5.217,-1.42 8.675,-2.718 15.293,-5.74 29.035,-14.408 40.71,-25.678 2.66,-2.568 3.058,-3.297 3.063,-5.599 0.007,-3.814 -3.287,-6.496 -7.018,-5.713 m -48.098,93.374 c -20.851,2.507 -32.399,16.157 -32.409,38.311 -0.01,21.189 9.535,33.601 28.527,37.097 3.073,0.565 13.298,0.51 17.176,-0.092 4.938,-0.768 12.301,-2.731 13.481,-3.594 0.281,-0.205 1.437,-16.785 1.46,-20.942 l 0.003,-0.533 h -1.622 -1.621 l -0.829,1.892 c -6.495,14.828 -10.765,19.093 -19.12,19.097 -11.799,0.005 -16.265,-7.804 -16.97,-29.668 -0.82,-25.455 3.481,-36.129 14.95,-37.098 8.76,-0.741 12.171,2.193 19.547,16.809 l 1.493,2.959 1.698,0.001 1.698,10e-4 -0.01,-1.019 c -0.021,-2.235 -1.083,-20.906 -1.195,-21.018 -0.376,-0.376 -5.705,-1.419 -9.954,-1.949 -2.99,-0.372 -13.904,-0.542 -16.303,-0.254 m 106.798,14.09 -0.054,2.659 -1.553,0.228 c -10.038,1.472 -16.049,8.082 -15.771,17.34 0.236,7.858 4.773,12.992 15.092,17.077 l 1.456,0.576 0.05,10.201 0.05,10.201 -0.632,-0.003 c -3.336,-0.016 -4.666,-1.265 -5.124,-4.813 -0.757,-5.852 -2.22,-7.494 -6.668,-7.487 -4.079,0.007 -5.777,1.813 -5.596,5.951 0.245,5.616 5.7,8.934 15.445,9.395 l 2.572,0.122 v 4.046 4.045 h 1.844 1.843 v -4.048 -4.049 l 1.423,-0.129 c 8.966,-0.813 16.192,-7.283 17.229,-15.429 1.169,-9.181 -4.081,-15.696 -16.759,-20.799 l -1.116,-0.45 v -9.474 -9.474 h 0.45 c 2.448,0 3.471,1.15 3.924,4.41 0.774,5.568 2.161,7.312 6.019,7.569 8.092,0.538 8.991,-9.07 1.202,-12.84 -2.826,-1.368 -6.753,-2.241 -10.091,-2.243 l -1.504,-0.001 v -2.62 -2.62 h -1.839 -1.838 l -0.054,2.659 m -60.97,27.662 c -10.904,30.197 -10.25,28.776 -13.742,29.86 l -1.616,0.501 -0.057,1.197 -0.058,1.197 h 8.752 8.752 l -0.058,-1.195 -0.057,-1.195 -1.747,-0.462 c -4.805,-1.271 -4.998,-2.299 -2.12,-11.27 l 1.262,-3.932 8.086,0.051 8.086,0.05 1.333,3.785 c 3.181,9.034 3.051,10.191 -1.266,11.302 l -1.698,0.436 v 1.215 1.215 h 13.779 13.78 v -1.237 -1.237 l -0.817,-0.13 c -3.635,-0.582 -3.128,0.473 -14.382,-29.905 l -8.988,-24.26 -4.258,-0.052 -4.258,-0.051 -8.708,24.117 m 85.855,-22.887 v 1.224 l 1.779,0.341 c 4.517,0.866 4.216,-0.956 4.225,25.547 0.009,26.531 0.281,24.877 -4.225,25.741 l -1.779,0.341 v 1.224 1.224 h 13.498 13.498 l -0.058,-1.213 -0.057,-1.213 -1.632,-0.344 c -4.378,-0.924 -4.266,-0.522 -4.279,-15.328 l -0.009,-9.074 h 9.219 9.219 l -0.009,9.074 c -0.014,14.806 0.099,14.404 -4.279,15.328 l -1.632,0.344 -0.058,1.213 -0.057,1.213 h 13.498 13.497 v -1.218 -1.218 l -1.698,-0.346 c -4.601,-0.936 -4.304,0.833 -4.305,-25.651 0,-26.545 -0.307,-24.718 4.3,-25.649 l 1.703,-0.344 v -1.22 -1.22 h -13.497 -13.498 l 0.057,1.213 0.058,1.213 1.632,0.344 c 4.353,0.918 4.265,0.618 4.279,14.649 l 0.009,8.394 h -9.219 -9.219 l 0.009,-8.394 c 0.014,-14.031 -0.074,-13.731 4.279,-14.649 l 1.632,-0.344 0.057,-1.213 0.058,-1.213 H 351.78 338.282 v 1.224 m -24.842,9.568 c 0,8.165 -0.019,8.65 -0.34,8.53 -8.488,-3.18 -9.313,-14.02 -1.277,-16.785 0.622,-0.214 1.241,-0.392 1.374,-0.396 0.191,-0.005 0.243,1.851 0.243,8.651 m -50.184,14.475 3.341,9.765 -6.691,0.051 c -3.68,0.028 -6.733,0.008 -6.785,-0.044 -0.074,-0.074 5.621,-17.259 6.394,-19.297 0.261,-0.688 0.149,-0.972 3.741,9.525 m 56.308,12.487 c 6.598,4.677 5.34,14.947 -2.042,16.669 l -1.171,0.273 v -9.399 -9.399 l 1.019,0.512 c 0.561,0.282 1.548,0.886 2.194,1.344"
       stroke="none"
       fill="#f42404"
       fill-rule="evenodd" />
    <path
       id="path4"
       d="m 138.062,24.51 c -0.121,0.129 -0.505,0.454 -0.853,0.72 -15.357,11.759 -29.022,30.028 -36.439,48.715 -2.234,5.628 -5.082,14.793 -5.131,16.508 -0.009,0.314 -0.072,0.571 -0.14,0.571 -0.122,0 -0.214,0.465 -0.26,1.31 -0.012,0.24 -0.08,0.436 -0.15,0.436 -0.07,0 -0.118,0.303 -0.107,0.672 0.029,0.945 9.975,10.43 10.031,9.566 0.009,-0.133 0.056,-0.504 0.105,-0.825 0.049,-0.32 0.119,-0.844 0.156,-1.164 0.038,-0.32 0.113,-0.713 0.169,-0.873 0.055,-0.161 0.29,-1.296 0.521,-2.523 4.607,-24.436 18.662,-47.558 38.335,-63.066 0.854,-0.673 1.582,-1.3 1.617,-1.394 0.036,-0.093 0.191,-0.169 0.346,-0.169 0.155,0 0.328,-0.123 0.385,-0.272 0.058,-0.15 0.273,-0.316 0.479,-0.37 0.207,-0.054 0.374,-0.216 0.372,-0.359 -0.002,-0.201 -0.044,-0.195 -0.184,0.025 -0.213,0.338 0.206,0.691 -5.005,-4.216 -3.926,-3.697 -3.892,-3.671 -4.247,-3.292 m 102.712,11.605 c -0.312,0.089 -0.639,0.116 -0.728,0.061 -0.089,-0.055 -0.162,-0.021 -0.162,0.075 0,0.096 -0.35,0.289 -0.777,0.43 l -0.776,0.256 v 4.784 c 0,4.667 0.158,5.929 0.679,5.408 0.071,-0.071 0.447,0.004 0.836,0.167 0.388,0.162 0.927,0.332 1.197,0.377 16.158,2.709 35.792,12.322 49.068,24.025 1.099,0.969 2.497,2.178 3.105,2.687 l 1.107,0.925 0.051,-7.417 c 0.036,-5.227 0.115,-7.457 0.269,-7.552 0.14,-0.086 0.065,-0.216 -0.211,-0.364 -0.236,-0.126 -0.619,-0.402 -0.851,-0.612 -10.398,-9.424 -32.394,-19.674 -49.04,-22.852 -2.893,-0.552 -3.136,-0.578 -3.767,-0.398 m -27.008,72.714 c 0.312,0.346 0.61,0.586 0.663,0.533 0.052,-0.052 0.058,-0.116 0.014,-0.143 -0.045,-0.027 -0.343,-0.267 -0.663,-0.533 l -0.583,-0.485 0.569,0.628 m -43.243,2.088 c -1.131,9.41 2.772,18.478 10.127,23.531 l 0.641,0.44 21.873,-0.05 21.872,-0.049 -1.067,-1.055 c -3.29,-3.25 -10.152,-7.273 -17.904,-10.498 l -2.475,-1.029 v -6.082 -6.081 h -2.814 -2.814 v 4.852 c 0,2.668 -0.046,4.852 -0.102,4.852 -0.275,0 -3.084,-1.521 -4.459,-2.414 -2.817,-1.83 -4.853,-4.035 -5.878,-6.364 l -0.404,-0.918 -8.24,-0.053 -8.24,-0.052 -0.116,0.97 m 44.906,-0.833 c 0,1.117 7.002,1.417 9.656,0.413 1.355,-0.512 1.049,-0.55 -4.415,-0.55 -2.883,0 -5.241,0.062 -5.241,0.137 m 79.834,38.387 c -3.603,0.751 -4.526,2.525 -4.743,9.116 -1.056,32.129 -16.413,61.73 -42.111,81.173 -4.776,3.613 -12.604,8.528 -15.803,9.922 l -0.777,0.338 0.056,6.32 c 0.042,4.655 -0.004,6.392 -0.173,6.596 -0.158,0.19 0.007,0.161 0.526,-0.094 0.416,-0.204 2.409,-1.172 4.431,-2.151 25.391,-12.294 46.335,-34.792 57.015,-61.244 1.044,-2.584 3.065,-8.399 3.065,-8.817 0,-0.183 0.165,-0.671 0.367,-1.086 0.202,-0.415 0.32,-0.876 0.263,-1.025 -0.057,-0.149 0.01,-0.341 0.151,-0.428 0.14,-0.086 0.254,-0.427 0.254,-0.757 0,-0.329 0.073,-0.599 0.162,-0.599 0.089,0 0.162,-0.257 0.162,-0.571 0,-0.314 0.091,-0.627 0.202,-0.695 0.111,-0.069 0.151,-0.285 0.089,-0.481 -0.062,-0.195 -0.026,-0.409 0.081,-0.475 0.106,-0.066 0.147,-0.239 0.091,-0.385 -0.056,-0.145 -0.012,-0.32 0.097,-0.388 0.11,-0.067 0.153,-0.242 0.097,-0.388 -0.056,-0.146 -0.012,-0.32 0.097,-0.388 0.11,-0.068 0.15,-0.251 0.09,-0.408 -0.06,-0.157 -0.035,-0.285 0.057,-0.285 0.091,0 0.143,-7.286 0.115,-16.191 l -0.05,-16.19 -0.629,-0.148 c -0.346,-0.081 -0.716,-0.17 -0.822,-0.199 -0.702,-0.187 -1.667,-0.216 -2.36,-0.072 m -180.766,56.805 c 0.132,0.273 0.205,2.901 0.205,7.391 v 6.968 l 1.504,0.973 c 14.744,9.538 32.592,15.712 50.94,17.62 4.094,0.426 11.933,0.732 12.746,0.498 0.362,-0.104 0.727,-0.147 0.811,-0.095 0.084,0.052 0.209,0.004 0.277,-0.106 0.068,-0.11 0.205,-0.15 0.305,-0.089 0.099,0.062 0.18,0.014 0.18,-0.105 0,-0.119 0.088,-0.163 0.194,-0.097 0.329,0.203 0.259,-10.153 -0.071,-10.483 -0.39,-0.39 -1.5,-0.513 -6.139,-0.683 -20.218,-0.738 -39.037,-6.874 -55.575,-18.121 -1.586,-1.078 -3.023,-2.047 -3.194,-2.154 -0.171,-0.107 -0.577,-0.434 -0.902,-0.727 -0.325,-0.293 -0.669,-0.533 -0.764,-0.534 -0.095,0 -0.296,-0.154 -0.447,-0.34 -0.25,-0.309 -0.256,-0.301 -0.07,0.084"
       stroke="none"
       fill="#fc7f04"
       fill-rule="evenodd" />
  </g>
</svg>
