<?xml version="1.0" encoding="UTF-8" standalone="no"?>
<svg
   xmlns:dc="http://purl.org/dc/elements/1.1/"
   xmlns:cc="http://creativecommons.org/ns#"
   xmlns:rdf="http://www.w3.org/1999/02/22-rdf-syntax-ns#"
   xmlns:svg="http://www.w3.org/2000/svg"
   xmlns="http://www.w3.org/2000/svg"
   xmlns:xlink="http://www.w3.org/1999/xlink"
   xmlns:sodipodi="http://sodipodi.sourceforge.net/DTD/sodipodi-0.dtd"
   xmlns:inkscape="http://www.inkscape.org/namespaces/inkscape"
   id="Capa_1"
   width="120"
   height="120"
   version="1.1"
   inkscape:version="0.91 r13725"
   sodipodi:docname="thbx.svg">
  <metadata
     id="metadata5534">
    <rdf:RDF>
      <cc:Work
         rdf:about="">
        <dc:format>image/svg+xml</dc:format>
        <dc:type
           rdf:resource="http://purl.org/dc/dcmitype/StillImage" />
        <dc:title></dc:title>
      </cc:Work>
    </rdf:RDF>
  </metadata>
  <defs
     id="defs5532">
    <linearGradient
       inkscape:collect="always"
       xlink:href="#linearGradient4761"
       id="linearGradient4769"
       x1="-409.44958"
       y1="-20.942795"
       x2="-57.60104"
       y2="133.44374"
       gradientUnits="userSpaceOnUse"
       gradientTransform="matrix(-0.14938582,0,0,-0.14938581,161.49689,146.17377)" />
    <linearGradient
       inkscape:collect="always"
       id="linearGradient4761">
      <stop
         style="stop-color:#1a1a1a;stop-opacity:1;"
         offset="0"
         id="stop4763" />
      <stop
         style="stop-color:#1a1a1a;stop-opacity:0;"
         offset="1"
         id="stop4765" />
    </linearGradient>
    <linearGradient
       gradientTransform="matrix(0.00771193,0,0,0.00684688,1.1324947,2.6130109)"
       y2="1415.8132"
       x2="1006.0488"
       y1="-505.293"
       x1="1006.0488"
       gradientUnits="userSpaceOnUse"
       id="SVGID_1_-2">
      <stop
         id="stop6370"
         style="stop-color:#1F3E05"
         offset="0" />
      <stop
         id="stop6372"
         style="stop-color:#34BD0D"
         offset="1" />
    </linearGradient>
  </defs>
  <sodipodi:namedview
     pagecolor="#ffffff"
     bordercolor="#666666"
     borderopacity="1"
     objecttolerance="10"
     gridtolerance="10"
     guidetolerance="10"
     inkscape:pageopacity="0"
     inkscape:pageshadow="2"
     inkscape:window-width="1920"
     inkscape:window-height="1023"
     id="namedview5530"
     showgrid="false"
     inkscape:zoom="8"
     inkscape:cx="42.974548"
     inkscape:cy="51.113833"
     inkscape:window-x="0"
     inkscape:window-y="27"
     inkscape:window-maximized="1"
     inkscape:current-layer="Capa_1" />
  <style
     id="style5484">.st0{fill:url(#SVGID_1_)}.st1{fill:url(#SVGID_2_)}.st2{fill:url(#SVGID_3_)}.st3{fill:#20201e}.st4{fill:url(#SVGID_4_)}.st5{fill:#353534}.st6{fill:#282828}.st7{fill:url(#SVGID_5_);stroke:url(#SVGID_6_);stroke-width:8;stroke-miterlimit:10}</style>
  <linearGradient
     id="SVGID_1_"
     gradientUnits="userSpaceOnUse"
     x1="1981.964"
     y1="2444.4961"
     x2="2163.2971"
     y2="2444.4961"
     gradientTransform="matrix(-0.29639156,0.95506651,-0.95506651,-0.29639156,3154.5722,-1144.0497)">
    <stop
       offset=".039"
       stop-color="#2cf4e1"
       id="stop5487" />
    <stop
       offset="1"
       stop-color="#2cb2e1"
       id="stop5489" />
  </linearGradient>
  <linearGradient
     id="SVGID_2_"
     gradientUnits="userSpaceOnUse"
     x1="244.60201"
     y1="113.132"
     x2="324.336"
     y2="222.118">
    <stop
       offset=".039"
       stop-color="#2cf4e1"
       id="stop5494" />
    <stop
       offset="1"
       stop-color="#2cb2e1"
       id="stop5496" />
  </linearGradient>
  <linearGradient
     id="SVGID_3_"
     gradientUnits="userSpaceOnUse"
     x1="111.456"
     y1="126.742"
     x2="224.12199"
     y2="280.742">
    <stop
       offset="0"
       stop-color="#2ce5e1"
       id="stop5501" />
    <stop
       offset="1"
       stop-color="#2cb2e1"
       id="stop5503" />
  </linearGradient>
  <linearGradient
     id="SVGID_4_"
     gradientUnits="userSpaceOnUse"
     x1="186.474"
     y1="233.72701"
     x2="186.474"
     y2="36.5">
    <stop
       offset="0"
       id="stop5508" />
    <stop
       offset="1"
       stop-color="#0d0d0d"
       id="stop5510" />
  </linearGradient>
  <linearGradient
     id="SVGID_5_"
     gradientUnits="userSpaceOnUse"
     x1="186.05701"
     y1="248.79601"
     x2="186.05701"
     y2="-16.973">
    <stop
       offset=".039"
       stop-color="#2cf4e1"
       id="stop5519" />
    <stop
       offset="1"
       stop-color="#2cb2e1"
       id="stop5521" />
  </linearGradient>
  <linearGradient
     id="SVGID_6_"
     gradientUnits="userSpaceOnUse"
     x1="24.841"
     y1="168.862"
     x2="347.27301"
     y2="168.862">
    <stop
       offset=".039"
       stop-color="#2cf4e1"
       id="stop5524" />
    <stop
       offset="1"
       stop-color="#2cb2e1"
       id="stop5526" />
  </linearGradient>
  <g
     id="g6486"
     transform="matrix(6.6645457,0,0,6.6285816,-1148.8634,-835.92808)">
    <path
       d="m 173.45333,133.25494 c 1.0975,-4.40154 5.55604,-7.08026 9.95861,-5.98264 4.40077,1.09737 7.0798,5.55565 5.98179,9.95693 -1.09698,4.40205 -5.55553,7.08103 -9.95681,5.98366 -4.40231,-1.09737 -7.08108,-5.55616 -5.98359,-9.95795 z"
       id="path4251-6"
       inkscape:connector-curvature="0"
       style="fill:url(#linearGradient4769);fill-opacity:1;stroke:none;stroke-opacity:1" />
    <path
       d="m 189.24809,136.99018 c -1.0876,4.36188 -5.50598,7.01646 -9.86889,5.92873 -4.36112,-1.08748 -7.01601,-5.5056 -5.92789,-9.86723 1.08709,-4.36239 5.50547,-7.01723 9.8671,-5.92975 4.36265,1.08748 7.01729,5.50611 5.92968,9.86825 z"
       id="path4251"
       inkscape:connector-curvature="0"
       style="fill:#ffffff;fill-opacity:1;stroke:none;stroke-opacity:1" />
    <path
       id="path4985"
       d="m 180.87377,137.19555 0.52885,-1.99138 1.2521,-0.45744 0.31144,-1.17033 -0.0106,-0.029 -1.2325,0.45027 0.88802,-3.34377 -2.51847,0 -1.16134,4.3637 -0.96963,0.35421 -0.32039,1.20654 0.96889,-0.35393 -0.68446,2.57173 6.70267,0 0.42969,-1.60057 -4.18424,0"
       inkscape:connector-curvature="0"
       style="fill:#ffffff" />
    <path
       id="path5145"
       d="m 183.99938,132.2389 c -0.39489,-1.00353 -1.38519,-1.09411 -2.53833,-0.8702 l -0.41067,-1.4315 -0.87122,0.24986 0.39999,1.39436 c -0.229,0.0651 -0.46207,0.1374 -0.69361,0.20864 l -0.40203,-1.40351 -0.8707,0.24935 0.40965,1.4315 c -0.18727,0.058 -0.37149,0.11501 -0.55214,0.16692 l -0.002,-0.005 -1.20199,0.34451 0.26716,0.93127 c 0,0 0.64018,-0.19745 0.63255,-0.18218 0.35317,-0.10127 0.5267,0.0707 0.61067,0.23816 l 0.46817,1.63047 c 0.0239,-0.007 0.056,-0.0148 0.0936,-0.0203 l -0.0921,0.0265 0.65494,2.2849 c 0.0163,0.11552 0.002,0.31144 -0.24427,0.38269 0.0137,0.007 -0.63407,0.18116 -0.63407,0.18116 l 0.12569,1.09055 1.1338,-0.32569 c 0.21119,-0.0595 0.41984,-0.11552 0.6239,-0.17302 l 0.41576,1.44778 0.8702,-0.24935 -0.41067,-1.43252 a 33.454265,33.454263 0 0 0 0.69819,-0.19338 l 0.40813,1.42641 0.87172,-0.24986 -0.41423,-1.44524 c 1.44066,-0.50431 2.36022,-1.16739 2.09306,-2.58006 -0.21475,-1.13685 -0.87733,-1.48188 -1.76635,-1.4432 0.43153,-0.40203 0.61728,-0.94552 0.3267,-1.67933 z m -0.33077,3.44517 c 0.31042,1.0824 -1.57756,1.49053 -2.16787,1.6605 l -0.5501,-1.91851 c 0.59031,-0.16946 2.3938,-0.8702 2.71746,0.25852 z m -1.18164,-2.59024 c 0.28192,0.9847 -1.29614,1.31293 -1.78823,1.45389 l -0.49871,-1.73989 c 0.49158,-0.14096 1.99229,-0.74043 2.28694,0.28651 z"
       inkscape:connector-curvature="0"
       style="fill:#ffffff;fill-rule:nonzero" />
    <path
       id="path6359"
       d="m 189.49181,135.02043 c 0,4.49684 -3.64534,8.14225 -8.14216,8.14225 -4.49686,0 -8.14224,-3.64541 -8.14224,-8.14225 0,-4.49678 3.64538,-8.14215 8.14224,-8.14215 4.49677,0 8.14216,3.64537 8.14216,8.14215"
       inkscape:connector-curvature="0"
       style="opacity:0.5;fill:#ffffff;fill-opacity:1;stroke:#000000;stroke-width:0.07402;stroke-miterlimit:4;stroke-dasharray:none;stroke-opacity:1" />
  </g>
  <g
     id="g5036"
     transform="matrix(0.94558674,0,0,0.95442391,2.7738214,1.753021)">
    <path
       inkscape:connector-curvature="0"
       d="m 54.078839,114.87078 c -0.34443,-0.0862 -2.109637,-0.38778 -3.874844,-0.6463 -7.233041,-1.16334 -15.972967,-4.8257 -22.387986,-9.39287 C 24.414757,102.41876 17.827523,95.955771 15.459563,92.681191 11.283342,86.950675 8.6140052,81.34942 6.4182604,73.723095 4.9544305,68.725052 4.5238923,55.109693 5.6002378,49.551524 7.8390364,38.176667 12.661064,28.999225 20.453806,21.157468 c 4.606758,-4.610264 5.467835,-5.29965 9.730163,-8.014104 5.85532,-3.6623594 9.988486,-5.4289092 17.221528,-7.3678053 2.497122,-0.6462987 4.649813,-0.7755584 12.700877,-0.7755584 8.782979,0 9.988486,0.086173 13.131415,0.9909913 11.107886,3.188407 17.996497,7.1092854 25.660077,14.7356104 4.090114,4.093225 6.931664,7.755584 9.213514,11.84881 0.64581,1.206424 1.29162,2.369761 1.50689,2.585194 0.43054,0.560126 3.22903,8.143364 3.78873,10.340779 1.37773,5.04113 1.59299,6.893853 1.59299,14.218572 0,8.272623 -0.25832,10.08226 -2.66933,17.880931 -1.16246,3.791619 -5.38173,12.193502 -6.88861,13.701532 -0.30138,0.344693 -0.77497,0.990991 -1.0333,1.464944 -0.55969,1.077164 -2.02352,2.757541 -5.1234,5.902861 -5.037297,5.170385 -9.601002,8.272625 -18.513143,12.538195 -0.818022,0.38778 -7.189987,2.28359 -10.117647,2.97297 -2.02353,0.51704 -15.111891,1.07717 -16.575721,0.68939 z M 69.578214,26.974156 c 0.818023,-0.818645 1.377723,-1.50803 1.248561,-1.50803 -0.129161,0 -0.861076,0.689385 -1.679099,1.50803 -0.818022,0.818645 -1.377722,1.50803 -1.248561,1.50803 0.129162,0 0.861077,-0.689385 1.679099,-1.50803 z"
       id="path4357"
       style="fill:#1d4a94;stroke:none" />
    <g
       id="layer103"
       style="fill:#e82429;stroke:none"
       transform="matrix(0.04305382,0,0,0.04308658,4.9974843,4.7845674)">
      <path
         id="path4363"
         d="m 1140,2555 c -8,-2 -49,-9 -90,-15 C 882,2513 679,2428 530,2322 451,2266 298,2116 243,2040 146,1907 84,1777 33,1600 -1,1484 -11,1168 14,1039 66,775 178,562 359,380 466,273 486,257 585,194 721,109 817,68 985,23 1043,8 1093,5 1280,5 c 204,0 232,2 305,23 258,74 418,165 596,342 95,95 161,180 214,275 15,28 30,55 35,60 10,13 75,189 88,240 32,117 37,160 37,330 0,192 -6,234 -62,415 -27,88 -125,283 -160,318 -7,8 -18,23 -24,34 -13,25 -47,64 -119,137 -117,120 -223,192 -430,291 -19,9 -167,53 -235,69 -47,12 -351,25 -385,16 z M 844,1943 c 15,-58 23,-109 19,-113 -4,-3 -75,-23 -158,-44 -82,-21 -153,-41 -156,-44 -8,-9 64,-175 78,-179 5,-2 38,3 72,11 86,20 106,11 125,-56 9,-29 52,-200 96,-380 44,-180 84,-336 87,-345 5,-15 4,-16 -8,-7 -8,6 -25,14 -39,17 -23,6 -28,17 -59,151 -19,80 -38,151 -42,157 -4,7 -85,14 -240,20 -243,8 -304,15 -451,51 l -88,21 0,87 c 0,159 41,338 113,493 40,88 41,89 71,82 17,-3 94,-15 171,-26 l 140,-20 108,27 c 122,30 118,23 88,137 l -17,67 32,0 32,0 26,-107 z m 292,73 c 14,-14 37,-94 30,-105 -3,-4 -31,-13 -62,-20 -66,-15 -68,-14 -85,69 -6,30 -14,60 -16,67 -6,16 116,6 133,-11 z m 252,-46 c 7,0 10,-4 7,-10 -10,-16 -52,-12 -59,6 -5,13 -2,15 16,10 13,-3 29,-6 36,-6 z m 143,-270 c 44,-23 79,-81 79,-130 0,-75 -48,-131 -150,-179 -56,-26 -235,-81 -265,-81 -9,0 -96,325 -95,356 0,10 141,46 225,58 59,8 166,-4 206,-24 z m 462,-96 c 27,-32 28,-36 18,-82 -15,-70 -25,-92 -65,-145 l -36,-47 40,-40 c 49,-49 66,-82 90,-175 17,-66 29,-87 107,-187 169,-217 176,-228 165,-252 -17,-35 -106,-158 -156,-213 -47,-52 -190,-173 -205,-173 -4,0 -45,56 -89,124 -76,115 -124,175 -110,136 14,-39 41,-170 36,-176 -4,-3 -37,-13 -75,-23 l -69,-18 -25,28 -25,27 58,12 c 31,6 60,14 62,19 3,4 -8,61 -24,126 -34,134 -36,155 -16,155 7,0 51,19 97,42 189,94 252,220 199,400 -17,58 -70,120 -125,148 -28,14 -52,26 -55,28 -3,2 4,8 15,14 40,23 105,91 125,132 14,30 20,62 20,109 0,37 3,67 8,66 4,0 20,-16 35,-35 z m -413,-442 c 19,-9 45,-33 58,-52 20,-29 23,-44 20,-88 -5,-59 -33,-96 -103,-138 -41,-24 -233,-80 -242,-70 -9,8 -84,318 -79,324 3,2 38,13 78,23 98,24 222,24 268,1 z m -73,-601 20,-79 -73,61 c -41,34 -74,64 -74,68 0,5 66,25 96,28 6,0 20,-35 31,-78 z"
         inkscape:connector-curvature="0" />
    </g>
    <path
       inkscape:connector-curvature="0"
       d="m 54.078839,114.87078 c -0.34443,-0.0862 -2.109637,-0.38778 -3.874844,-0.6463 -7.233041,-1.16334 -15.972967,-4.8257 -22.387986,-9.39287 C 24.414757,102.41876 17.827523,95.955771 15.459563,92.681191 11.283342,86.950675 8.6140052,81.34942 6.4182604,73.723095 4.9544305,68.725052 4.5238923,55.109693 5.6002378,49.551524 7.8390364,38.176667 12.661064,28.999225 20.453806,21.157468 c 4.606758,-4.610264 5.467835,-5.29965 9.730163,-8.014104 5.85532,-3.6623594 9.988486,-5.4289092 17.221528,-7.3678053 2.497122,-0.6462987 4.649813,-0.7755584 12.700877,-0.7755584 8.782979,0 9.988486,0.086173 13.131415,0.9909913 11.107886,3.188407 17.996497,7.1092854 25.660077,14.7356104 4.090114,4.093225 6.931664,7.755584 9.213514,11.84881 0.64581,1.206424 1.29162,2.369761 1.50689,2.585194 0.43054,0.560126 3.22903,8.143364 3.78873,10.340779 1.37773,5.04113 1.59299,6.893853 1.59299,14.218572 0,8.272623 -0.25832,10.08226 -2.66933,17.880931 -1.16246,3.791619 -5.38173,12.193502 -6.88861,13.701532 -0.30138,0.344693 -0.77497,0.990991 -1.0333,1.464944 -0.55969,1.077164 -2.02352,2.757541 -5.1234,5.902861 -5.037297,5.170385 -9.601002,8.272625 -18.513143,12.538195 -0.818022,0.38778 -7.189987,2.28359 -10.117647,2.97297 -2.02353,0.51704 -15.111891,1.07717 -16.575721,0.68939 z m 14.681353,-4.30866 C 79.308378,108.75248 88.564949,103.8837 96.314637,96.171204 106.77671,85.658078 111.68485,73.249143 111.25431,58.211927 c -0.17221,-5.989035 -1.59299,-14.218572 -2.45407,-14.218572 -0.6458,0 -4.86508,6.980026 -8.35244,13.873879 -2.023526,3.920879 -4.692863,8.746576 -5.941424,10.728558 -2.497121,3.834706 -2.411014,3.834706 -3.401252,-0.08617 -0.258323,-1.077164 -1.24856,-2.972974 -2.195745,-4.222485 l -1.679099,-2.197415 1.722153,-1.723463 c 2.109637,-2.111243 2.841552,-3.5331 3.874844,-7.540152 0.731915,-2.843714 1.248561,-3.748532 4.606759,-8.05719 7.276094,-9.349788 7.577474,-9.823741 7.103884,-10.857819 -0.73192,-1.50803 -4.563709,-6.807679 -6.7164,-9.177441 -2.023529,-2.240502 -8.180226,-7.453978 -8.826033,-7.453978 -0.172215,0 -1.937422,2.412848 -3.83179,5.342736 -3.27209,4.954956 -5.338674,7.540151 -4.73592,5.859774 0.129161,-0.344692 0.602753,-2.154329 1.033292,-4.007052 0.90413,-3.920878 0.947184,-3.791619 -2.884606,-4.610264 -1.420776,-0.301606 -2.540176,-0.603212 -2.540176,-0.689385 0,-0.08617 0.904131,-1.63729 1.980476,-3.446926 2.324906,-3.791619 2.454068,-3.576186 -2.626283,-5.127303 -23.679601,-7.2816323 -48.521655,2.800627 -60.705886,24.55935 -1.46383,2.628282 -3.745683,8.100277 -4.262328,10.168433 l -0.258323,1.163338 2.927659,-0.990992 c 3.960952,-1.335683 6.544181,-1.809636 14.293869,-2.585194 3.659574,-0.38778 9.084356,-1.163338 12.012015,-1.76655 2.92766,-0.560126 5.424782,-0.947905 5.510889,-0.861732 0.258323,0.215433 -2.454067,11.676463 -2.927659,12.408935 -0.172216,0.25852 -4.133167,0.560126 -10.332917,0.818645 -10.462078,0.344693 -13.088361,0.646299 -19.417273,2.197416 l -3.7887361,0.904818 0,3.748533 c 0,6.850766 1.7652071,14.563264 4.8650821,21.241684 1.722152,3.791619 1.765206,3.834705 3.056821,3.533099 0.731915,-0.12926 4.047059,-0.646299 7.362203,-1.120251 l 6.027535,-0.861732 4.649812,1.163338 c 5.252566,1.292597 5.037297,0.990991 3.83179,5.773602 l -0.731915,2.800628 -3.229036,0.301606 c -3.573467,0.344692 -10.634294,1.981982 -10.978724,2.499021 -0.258323,0.430866 4.434543,4.481006 7.878849,6.850766 5.424781,3.66236 13.475846,6.93694 19.675596,7.97101 4.692866,0.81865 13.518899,0.81865 17.910389,0.0431 z"
       id="path4366"
       style="fill:#ffffff;stroke:#ffffff;stroke-width:1.02309608;stroke-miterlimit:4;stroke-dasharray:none;stroke-opacity:1" />
    <path
       inkscape:connector-curvature="0"
       d="m 56.059315,99.61813 c -1.679099,-0.430866 -3.056821,-0.947905 -3.142929,-1.206424 -0.08611,-0.25852 0.430538,-2.843715 1.119399,-5.730515 0.731915,-2.929888 1.205507,-5.428909 1.1194,-5.601256 -0.08611,-0.172346 -1.291615,-0.517039 -2.626283,-0.818645 -1.851315,-0.430866 -2.497122,-0.430866 -2.755445,-0.04309 -0.172215,0.258519 -0.861076,2.714454 -1.549937,5.471995 -0.645808,2.714455 -1.46383,5.084217 -1.765207,5.17039 -0.990238,0.387779 -6.587235,-1.249511 -6.587235,-1.938896 0,-0.301606 0.602754,-2.929888 1.334669,-5.773602 0.688861,-2.886801 1.119399,-5.342736 0.947184,-5.515082 -0.172215,-0.12926 -3.229037,-0.990992 -6.802504,-1.89581 -3.530413,-0.904818 -6.587234,-1.76655 -6.716396,-1.895809 -0.34443,-0.387779 2.755445,-7.540152 3.358198,-7.712498 0.21527,-0.08617 1.636046,0.12926 3.099875,0.473952 3.099876,0.732472 4.520652,0.38778 5.037297,-1.120251 0.172216,-0.560125 2.109638,-8.143363 4.305382,-16.933026 3.917898,-15.812775 3.960952,-15.942034 3.272091,-17.450065 -0.645808,-1.37877 -1.033292,-1.594203 -4.133167,-2.499021 -1.894368,-0.517039 -3.487359,-1.034078 -3.573467,-1.120251 -0.387484,-0.38778 1.722153,-7.497065 2.195745,-7.367806 1.033291,0.344693 13.088361,3.231494 13.518899,3.231494 0.215269,0 0.947184,-2.197416 1.592992,-4.868784 0.688861,-2.628281 1.377722,-5.256562 1.549937,-5.773601 l 0.344431,-0.904818 3.358198,0.861731 c 1.851314,0.473953 3.401251,0.904818 3.487359,0.990991 0.08611,0.04309 -0.473592,2.455936 -1.205507,5.29965 -0.688861,2.886801 -1.291615,5.385822 -1.291615,5.644342 0,0.387779 0.947185,0.732472 4.348436,1.551117 1.1194,0.258519 1.1194,0.258519 2.540176,-5.342736 0.774968,-3.102234 1.549937,-5.644342 1.765206,-5.644342 0.774969,0 6.242804,1.37877 6.501127,1.63729 0.172215,0.172346 -0.258323,2.628281 -0.947184,5.471995 -1.46383,5.773602 -1.549937,6.67842 -0.688861,6.67842 0.301377,0 2.195745,0.818645 4.176221,1.809637 8.137171,4.050138 10.849562,9.479047 8.56771,17.234632 -0.731915,2.499021 -3.013768,5.170389 -5.381728,6.376814 -1.205507,0.603212 -2.238798,1.120251 -2.36796,1.206424 -0.129161,0.08617 0.172215,0.344692 0.645807,0.603212 1.722153,0.990991 4.520651,3.920879 5.381728,5.687429 1.076345,2.240502 1.162453,6.4199 0.172215,9.780653 -2.884606,9.694481 -9.644056,13.270667 -21.914394,11.547204 -1.808261,-0.25852 -3.401252,-0.344693 -3.530413,-0.215433 -0.172216,0.172346 -1.937422,6.506073 -2.884606,10.297692 -0.129162,0.646299 -0.430539,1.120257 -0.602754,1.120257 -0.172215,-0.0431 -1.636045,-0.38778 -3.27209,-0.775564 z M 70.912883,78.031753 c 1.894368,-0.990991 3.401251,-3.490013 3.401251,-5.601255 0,-3.231494 -2.066583,-5.644342 -6.458073,-7.712498 -2.411013,-1.120251 -10.117647,-3.490013 -11.409262,-3.490013 -0.387484,0 -4.133167,14.003139 -4.090113,15.338823 0,0.430865 6.070589,1.981982 9.68711,2.499021 2.540175,0.344693 7.146934,-0.172346 8.869087,-1.034078 z m 2.109637,-23.18058 c 0.818022,-0.387779 1.937422,-1.421857 2.497121,-2.240502 0.861077,-1.249511 0.990238,-1.895809 0.861077,-3.791619 -0.215269,-2.542108 -1.420776,-4.136312 -4.434544,-5.945948 -1.765206,-1.034078 -10.03154,-3.446926 -10.419024,-3.01606 -0.387484,0.344692 -3.616521,13.701532 -3.401252,13.960051 0.129162,0.08617 1.636045,0.560126 3.358198,0.990992 4.219275,1.034078 9.557948,1.034078 11.538424,0.04309 z"
       id="path4368"
       style="fill:#ffffff;stroke:none" />
  </g>
</svg>
