<?xml version="1.0" encoding="UTF-8" standalone="no"?>
<svg
   data-name="86977684-12db-4850-8f30-233a7c267d11"
   viewBox="0 0 2000 2000"
   version="1.1"
   id="svg10"
   xmlns:inkscape="http://www.inkscape.org/namespaces/inkscape"
   xmlns:sodipodi="http://sodipodi.sourceforge.net/DTD/sodipodi-0.dtd"
   xmlns="http://www.w3.org/2000/svg"
   xmlns:svg="http://www.w3.org/2000/svg">
  <defs
     id="defs10">
    <defs
       id="defs8">
      <linearGradient
         id="SVGID_1_"
         gradientUnits="userSpaceOnUse"
         x1="360.8791"
         y1="351.4553"
         x2="141.213"
         y2="-69.2936"
         gradientTransform="matrix(1.25,0,0,-1.25,1064.8936,1707.5828)">
        <stop
           offset="0"
           style="stop-color:#00FFA3"
           id="stop3" />
        <stop
           offset="1"
           style="stop-color:#DC1FFF"
           id="stop4" />
      </linearGradient>
      <linearGradient
         id="SVGID_2_"
         gradientUnits="userSpaceOnUse"
         x1="264.8291"
         y1="401.6014"
         x2="45.163"
         y2="-19.1475"
         gradientTransform="matrix(1.25,0,0,-1.25,1064.8936,1707.5828)">
        <stop
           offset="0"
           style="stop-color:#00FFA3"
           id="stop5" />
        <stop
           offset="1"
           style="stop-color:#DC1FFF"
           id="stop6" />
      </linearGradient>
      <linearGradient
         id="SVGID_3_"
         gradientUnits="userSpaceOnUse"
         x1="312.5484"
         y1="376.688"
         x2="92.8822"
         y2="-44.061"
         gradientTransform="matrix(1.25,0,0,-1.25,1064.8936,1707.5828)">
        <stop
           offset="0"
           style="stop-color:#00FFA3"
           id="stop7" />
        <stop
           offset="1"
           style="stop-color:#DC1FFF"
           id="stop8" />
      </linearGradient>
    </defs>
  </defs>
  <sodipodi:namedview
     id="namedview10"
     pagecolor="#ffffff"
     bordercolor="#000000"
     borderopacity="0.25"
     inkscape:showpageshadow="2"
     inkscape:pageopacity="0.0"
     inkscape:pagecheckerboard="0"
     inkscape:deskcolor="#d1d1d1"
     inkscape:zoom="0.5815"
     inkscape:cx="1000"
     inkscape:cy="1000"
     inkscape:window-width="2510"
     inkscape:window-height="1371"
     inkscape:window-x="0"
     inkscape:window-y="0"
     inkscape:window-maximized="1"
     inkscape:current-layer="svg10" />
  <path
     d="M1000 2000c554.17 0 1000-445.83 1000-1000S1554.17 0 1000 0 0 445.83 0 1000s445.83 1000 1000 1000z"
     fill="#2775ca"
     id="path1" />
  <path
     d="M1275 1158.33c0-145.83-87.5-195.83-262.5-216.66-125-16.67-150-50-150-108.34s41.67-95.83 125-95.83c75 0 116.67 25 137.5 87.5 4.17 12.5 16.67 20.83 29.17 20.83h66.66c16.67 0 29.17-12.5 29.17-29.16v-4.17c-16.67-91.67-91.67-162.5-187.5-170.83v-100c0-16.67-12.5-29.17-33.33-33.34h-62.5c-16.67 0-29.17 12.5-33.34 33.34v95.83c-125 16.67-204.16 100-204.16 204.17 0 137.5 83.33 191.66 258.33 212.5 116.67 20.83 154.17 45.83 154.17 112.5s-58.34 112.5-137.5 112.5c-108.34 0-145.84-45.84-158.34-108.34-4.16-16.66-16.66-25-29.16-25h-70.84c-16.66 0-29.16 12.5-29.16 29.17v4.17c16.66 104.16 83.33 179.16 220.83 200v100c0 16.66 12.5 29.16 33.33 33.33h62.5c16.67 0 29.17-12.5 33.34-33.33v-100c125-20.84 208.33-108.34 208.33-220.84z"
     fill="#fff"
     id="path2" />
  <path
     d="M787.5 1595.83c-325-116.66-491.67-479.16-370.83-800 62.5-175 200-308.33 370.83-370.83 16.67-8.33 25-20.83 25-41.67V325c0-16.67-8.33-29.17-25-33.33-4.17 0-12.5 0-16.67 4.16-395.83 125-612.5 545.84-487.5 941.67 75 233.33 254.17 412.5 487.5 487.5 16.67 8.33 33.34 0 37.5-16.67 4.17-4.16 4.17-8.33 4.17-16.66v-58.34c0-12.5-12.5-29.16-25-37.5zM1229.17 295.83c-16.67-8.33-33.34 0-37.5 16.67-4.17 4.17-4.17 8.33-4.17 16.67v58.33c0 16.67 12.5 33.33 25 41.67 325 116.66 491.67 479.16 370.83 800-62.5 175-200 308.33-370.83 370.83-16.67 8.33-25 20.83-25 41.67V1700c0 16.67 8.33 29.17 25 33.33 4.17 0 12.5 0 16.67-4.16 395.83-125 612.5-545.84 487.5-941.67-75-237.5-258.34-416.67-487.5-491.67z"
     fill="#fff"
     id="path3" />
  <circle
     cx="1308.6436"
     cy="1508.8328"
     r="375"
     fill="#000000"
     id="circle3"
     style="opacity:0.7;stroke-width:1.25" />
  <path
     fill="url(#SVGID_1_)"
     d="m 1145.6436,1612.4578 c 3,-3 7.125,-4.75 11.5,-4.75 h 396.75 c 7.25,0 10.875,8.75 5.75,13.875 l -78.375,78.375 c -3,3 -7.125,4.75 -11.5,4.75 h -396.75 c -7.25,0 -10.875,-8.75 -5.75,-13.875 z"
     id="path8"
     style="fill:url(#SVGID_1_);stroke-width:1.25" />
  <path
     fill="url(#SVGID_2_)"
     d="m 1145.6436,1319.8328 c 3.125,-3 7.25,-4.75 11.5,-4.75 h 396.75 c 7.25,0 10.875,8.75 5.75,13.875 l -78.375,78.375 c -3,3 -7.125,4.75 -11.5,4.75 h -396.75 c -7.25,0 -10.875,-8.75 -5.75,-13.875 z"
     id="path9"
     style="fill:url(#SVGID_2_);stroke-width:1.25" />
  <path
     fill="url(#SVGID_3_)"
     d="m 1481.2686,1465.2078 c -3,-3 -7.125,-4.75 -11.5,-4.75 h -396.75 c -7.25,0 -10.875,8.75 -5.75,13.875 l 78.375,78.375 c 3,3 7.125,4.75 11.5,4.75 h 396.75 c 7.25,0 10.875,-8.75 5.75,-13.875 z"
     id="path10"
     style="fill:url(#SVGID_3_);stroke-width:1.25" />
</svg>
