<svg width="128" height="128" viewBox="0 0 128 128" fill="none" xmlns="http://www.w3.org/2000/svg">
<path d="M64 128C99.3462 128 128 99.3462 128 64C128 28.6538 99.3462 0 64 0C28.6538 0 0 28.6538 0 64C0 99.3462 28.6538 128 64 128Z" fill="url(#paint0_linear_547_1600)"/>
<g clip-path="url(#clip0_547_1600)">
<rect x="7.94336" y="7.94482" width="112.55" height="112.55" rx="56.275" fill="#0A0B10"/>
<rect y="-6.10352e-05" width="128" height="128" rx="63.7784" fill="url(#paint1_radial_547_1600)"/>
<path d="M79.8552 86.5193C79.8552 89.4467 80.9053 91.076 83.0056 91.4074V97.2898C80.1868 97.2898 78.1694 97.1517 76.9535 96.8755C75.7375 96.5994 74.6874 95.909 73.8031 94.8043C73.3609 95.0805 72.67 95.9918 71.7304 97.5383L71.233 98.284H63.357C62.2516 96.3508 61.3949 95.1909 60.7869 94.8043C59.9579 95.909 58.963 96.5994 57.8023 96.8755C56.6416 97.1517 54.5966 97.2898 51.6673 97.2898L47.522 91.4903V86.4365C49.6223 86.1051 50.6724 84.4757 50.6724 81.5483C50.6724 80.3332 50.479 79.0904 50.0921 77.82C49.4841 77.5439 48.7932 77.4058 48.0195 77.4058L43.8742 72.4348V66.4696H45.9468L42.5477 50.9766H40.2263L36.0811 46.0056V34.3238H59.1288L63.2741 39.2948V50.9766H59.0459L62.5279 67.5466L64.6006 70.0321V66.4696H67.0877L70.4869 50.0653L67.0877 46.0056V34.3238H90.1355L94.2807 39.2948V50.9766H88.8919L84.8295 69.2036L86.7363 71.4406V77.4058C84.5808 77.461 82.8951 78.4276 81.6791 80.3055C80.4632 82.1835 79.8552 84.2547 79.8552 86.5193ZM80.4355 68.3751C77.5615 68.3751 75.3783 69.6731 73.886 72.2691C72.5042 71.2749 71.233 70.0598 70.0723 68.6237H66.7561V70.2807C67.8615 70.9435 68.4142 72.0758 68.4142 73.6775C68.4142 75.2793 67.7233 77.1572 66.3416 79.3113C64.9598 81.4102 63.882 82.6806 63.1083 83.1224C62.3897 82.6806 61.3396 81.4102 59.9579 79.3113C58.5761 77.1572 57.8852 75.3069 57.8852 73.7604C57.8852 72.1586 58.4379 70.9987 59.5433 70.2807V68.6237H56.2271C55.398 69.8388 54.2097 71.054 52.6622 72.2691C51.0041 69.6731 48.7932 68.3751 46.0297 68.3751V70.4464C48.13 70.7226 49.8434 72.0482 51.1699 74.4232C52.4964 76.743 53.1596 79.0904 53.1596 81.4654C53.1596 85.2213 52.0266 87.3202 49.7605 87.762V90.2475C52.3582 90.2475 54.2374 89.7228 55.398 88.6734C56.006 88.1763 56.5587 87.4859 57.0562 86.6021C58.3826 88.0934 59.6262 89.64 60.7869 91.2418H65.4296L69.2433 86.6021C70.3487 88.3696 71.6199 89.4467 73.0569 89.8333C74.2729 90.1095 75.4888 90.2475 76.7048 90.2475V87.762C74.494 87.3202 73.3885 85.2213 73.3885 81.4654C73.3885 79.0904 74.0518 76.743 75.3783 74.4232C76.7048 72.0482 78.3905 70.7226 80.4355 70.4464V68.3751ZM87.8141 43.6858V36.6436H69.4091V43.6858H74.0518L69.4091 66.4696H71.1501C72.2002 67.9057 73.0293 68.7894 73.6373 69.1208C74.6321 67.8504 75.9586 67.0495 77.6167 66.7181L82.8398 43.6858H87.8141ZM52.828 69.1208C53.3807 68.6789 54.1821 67.7952 55.2322 66.4696H56.7245L52.1647 43.6858H56.8074V36.6436H38.4024V43.6858H43.3767L48.5169 66.7181C50.2303 66.9391 51.6673 67.74 52.828 69.1208Z" fill="url(#paint2_linear_547_1600)"/>
</g>
<defs>
<linearGradient id="paint0_linear_547_1600" x1="0.40635" y1="64" x2="132.876" y2="64" gradientUnits="userSpaceOnUse">
<stop stop-color="#F2C700"/>
<stop offset="1" stop-color="#FF9023"/>
</linearGradient>
<radialGradient id="paint1_radial_547_1600" cx="0" cy="0" r="1" gradientUnits="userSpaceOnUse" gradientTransform="translate(34.125 31.9999) rotate(48.8022) scale(113.298)">
<stop stop-color="#323947"/>
<stop offset="1" stop-color="#22262F"/>
</radialGradient>
<linearGradient id="paint2_linear_547_1600" x1="36.2658" y1="66.3039" x2="96.4979" y2="66.3039" gradientUnits="userSpaceOnUse">
<stop stop-color="#F2C700"/>
<stop offset="1" stop-color="#FF9023"/>
</linearGradient>
<clipPath id="clip0_547_1600">
<rect x="7.94336" y="7.94482" width="112.55" height="112.55" rx="56.275" fill="white"/>
</clipPath>
</defs>
</svg>
