<?xml version="1.0" encoding="UTF-8" standalone="no"?>
<svg
   xmlns:dc="http://purl.org/dc/elements/1.1/"
   xmlns:cc="http://creativecommons.org/ns#"
   xmlns:rdf="http://www.w3.org/1999/02/22-rdf-syntax-ns#"
   xmlns:svg="http://www.w3.org/2000/svg"
   xmlns="http://www.w3.org/2000/svg"
   xmlns:xlink="http://www.w3.org/1999/xlink"
   xmlns:sodipodi="http://sodipodi.sourceforge.net/DTD/sodipodi-0.dtd"
   xmlns:inkscape="http://www.inkscape.org/namespaces/inkscape"
   id="Capa_1"
   width="120"
   height="120"
   version="1.1"
   inkscape:version="0.91 r13725"
   sodipodi:docname="voltz.svg">
  <metadata
     id="metadata5534">
    <rdf:RDF>
      <cc:Work
         rdf:about="">
        <dc:format>image/svg+xml</dc:format>
        <dc:type
           rdf:resource="http://purl.org/dc/dcmitype/StillImage" />
        <dc:title />
      </cc:Work>
    </rdf:RDF>
  </metadata>
  <defs
     id="defs5532">
    <linearGradient
       inkscape:collect="always"
       xlink:href="#linearGradient4761"
       id="linearGradient4769"
       x1="-409.44958"
       y1="-20.942795"
       x2="-57.60104"
       y2="133.44374"
       gradientUnits="userSpaceOnUse"
       gradientTransform="matrix(-0.14938582,0,0,-0.14938581,161.49689,146.17377)" />
    <linearGradient
       inkscape:collect="always"
       id="linearGradient4761">
      <stop
         style="stop-color:#1a1a1a;stop-opacity:1;"
         offset="0"
         id="stop4763" />
      <stop
         style="stop-color:#1a1a1a;stop-opacity:0;"
         offset="1"
         id="stop4765" />
    </linearGradient>
    <linearGradient
       gradientTransform="matrix(0.00771193,0,0,0.00684688,1.1324947,2.6130109)"
       y2="1415.8132"
       x2="1006.0488"
       y1="-505.293"
       x1="1006.0488"
       gradientUnits="userSpaceOnUse"
       id="SVGID_1_-2">
      <stop
         id="stop6370"
         style="stop-color:#1F3E05"
         offset="0" />
      <stop
         id="stop6372"
         style="stop-color:#34BD0D"
         offset="1" />
    </linearGradient>
  </defs>
  <sodipodi:namedview
     pagecolor="#ffffff"
     bordercolor="#666666"
     borderopacity="1"
     objecttolerance="10"
     gridtolerance="10"
     guidetolerance="10"
     inkscape:pageopacity="0"
     inkscape:pageshadow="2"
     inkscape:window-width="1920"
     inkscape:window-height="1023"
     id="namedview5530"
     showgrid="false"
     inkscape:zoom="3.6203867"
     inkscape:cx="16.689496"
     inkscape:cy="80.308974"
     inkscape:window-x="0"
     inkscape:window-y="27"
     inkscape:window-maximized="1"
     inkscape:current-layer="Capa_1" />
  <style
     id="style5484">.st0{fill:url(#SVGID_1_)}.st1{fill:url(#SVGID_2_)}.st2{fill:url(#SVGID_3_)}.st3{fill:#20201e}.st4{fill:url(#SVGID_4_)}.st5{fill:#353534}.st6{fill:#282828}.st7{fill:url(#SVGID_5_);stroke:url(#SVGID_6_);stroke-width:8;stroke-miterlimit:10}</style>
  <linearGradient
     id="SVGID_1_"
     gradientUnits="userSpaceOnUse"
     x1="1981.964"
     y1="2444.4961"
     x2="2163.2971"
     y2="2444.4961"
     gradientTransform="matrix(-0.29639156,0.95506651,-0.95506651,-0.29639156,3154.5722,-1144.0497)">
    <stop
       offset=".039"
       stop-color="#2cf4e1"
       id="stop5487" />
    <stop
       offset="1"
       stop-color="#2cb2e1"
       id="stop5489" />
  </linearGradient>
  <linearGradient
     id="SVGID_2_"
     gradientUnits="userSpaceOnUse"
     x1="244.60201"
     y1="113.132"
     x2="324.336"
     y2="222.118">
    <stop
       offset=".039"
       stop-color="#2cf4e1"
       id="stop5494" />
    <stop
       offset="1"
       stop-color="#2cb2e1"
       id="stop5496" />
  </linearGradient>
  <linearGradient
     id="SVGID_3_"
     gradientUnits="userSpaceOnUse"
     x1="111.456"
     y1="126.742"
     x2="224.12199"
     y2="280.742">
    <stop
       offset="0"
       stop-color="#2ce5e1"
       id="stop5501" />
    <stop
       offset="1"
       stop-color="#2cb2e1"
       id="stop5503" />
  </linearGradient>
  <linearGradient
     id="SVGID_4_"
     gradientUnits="userSpaceOnUse"
     x1="186.474"
     y1="233.72701"
     x2="186.474"
     y2="36.5">
    <stop
       offset="0"
       id="stop5508" />
    <stop
       offset="1"
       stop-color="#0d0d0d"
       id="stop5510" />
  </linearGradient>
  <linearGradient
     id="SVGID_5_"
     gradientUnits="userSpaceOnUse"
     x1="186.05701"
     y1="248.79601"
     x2="186.05701"
     y2="-16.973">
    <stop
       offset=".039"
       stop-color="#2cf4e1"
       id="stop5519" />
    <stop
       offset="1"
       stop-color="#2cb2e1"
       id="stop5521" />
  </linearGradient>
  <linearGradient
     id="SVGID_6_"
     gradientUnits="userSpaceOnUse"
     x1="24.841"
     y1="168.862"
     x2="347.27301"
     y2="168.862">
    <stop
       offset=".039"
       stop-color="#2cf4e1"
       id="stop5524" />
    <stop
       offset="1"
       stop-color="#2cb2e1"
       id="stop5526" />
  </linearGradient>
  <g
     inkscape:groupmode="layer"
     id="layer1"
     inkscape:label="top" />
  <g
     id="g5756"
     transform="matrix(6.6645457,0,0,6.6285816,0.55216936,1.9081301)">
    <g
       transform="translate(-172.46721,-126.39751)"
       id="g6486">
      <path
         style="fill:url(#linearGradient4769);fill-opacity:1;stroke:none;stroke-opacity:1"
         inkscape:connector-curvature="0"
         id="path4251-6"
         d="m 173.45333,133.25494 c 1.0975,-4.40154 5.55604,-7.08026 9.95861,-5.98264 4.40077,1.09737 7.0798,5.55565 5.98179,9.95693 -1.09698,4.40205 -5.55553,7.08103 -9.95681,5.98366 -4.40231,-1.09737 -7.08108,-5.55616 -5.98359,-9.95795 z" />
      <path
         style="fill:#ffffff;fill-opacity:1;stroke:none;stroke-opacity:1"
         inkscape:connector-curvature="0"
         id="path4251"
         d="m 189.24809,136.99018 c -1.0876,4.36188 -5.50598,7.01646 -9.86889,5.92873 -4.36112,-1.08748 -7.01601,-5.5056 -5.92789,-9.86723 1.08709,-4.36239 5.50547,-7.01723 9.8671,-5.92975 4.36265,1.08748 7.01729,5.50611 5.92968,9.86825 z" />
      <path
         style="fill:#ffffff"
         inkscape:connector-curvature="0"
         d="m 180.87377,137.19555 0.52885,-1.99138 1.2521,-0.45744 0.31144,-1.17033 -0.0106,-0.029 -1.2325,0.45027 0.88802,-3.34377 -2.51847,0 -1.16134,4.3637 -0.96963,0.35421 -0.32039,1.20654 0.96889,-0.35393 -0.68446,2.57173 6.70267,0 0.42969,-1.60057 -4.18424,0"
         id="path4985" />
      <path
         style="fill:#ffffff;fill-rule:nonzero"
         inkscape:connector-curvature="0"
         d="m 183.99938,132.2389 c -0.39489,-1.00353 -1.38519,-1.09411 -2.53833,-0.8702 l -0.41067,-1.4315 -0.87122,0.24986 0.39999,1.39436 c -0.229,0.0651 -0.46207,0.1374 -0.69361,0.20864 l -0.40203,-1.40351 -0.8707,0.24935 0.40965,1.4315 c -0.18727,0.058 -0.37149,0.11501 -0.55214,0.16692 l -0.002,-0.005 -1.20199,0.34451 0.26716,0.93127 c 0,0 0.64018,-0.19745 0.63255,-0.18218 0.35317,-0.10127 0.5267,0.0707 0.61067,0.23816 l 0.46817,1.63047 c 0.0239,-0.007 0.056,-0.0148 0.0936,-0.0203 l -0.0921,0.0265 0.65494,2.2849 c 0.0163,0.11552 0.002,0.31144 -0.24427,0.38269 0.0137,0.007 -0.63407,0.18116 -0.63407,0.18116 l 0.12569,1.09055 1.1338,-0.32569 c 0.21119,-0.0595 0.41984,-0.11552 0.6239,-0.17302 l 0.41576,1.44778 0.8702,-0.24935 -0.41067,-1.43252 a 33.454265,33.454263 0 0 0 0.69819,-0.19338 l 0.40813,1.42641 0.87172,-0.24986 -0.41423,-1.44524 c 1.44066,-0.50431 2.36022,-1.16739 2.09306,-2.58006 -0.21475,-1.13685 -0.87733,-1.48188 -1.76635,-1.4432 0.43153,-0.40203 0.61728,-0.94552 0.3267,-1.67933 z m -0.33077,3.44517 c 0.31042,1.0824 -1.57756,1.49053 -2.16787,1.6605 l -0.5501,-1.91851 c 0.59031,-0.16946 2.3938,-0.8702 2.71746,0.25852 z m -1.18164,-2.59024 c 0.28192,0.9847 -1.29614,1.31293 -1.78823,1.45389 l -0.49871,-1.73989 c 0.49158,-0.14096 1.99229,-0.74043 2.28694,0.28651 z"
         id="path5145" />
      <path
         style="opacity:0.5;fill:#ffffff;fill-opacity:1;stroke:#000000;stroke-width:0.07402;stroke-miterlimit:4;stroke-dasharray:none;stroke-opacity:1"
         inkscape:connector-curvature="0"
         d="m 189.49181,135.02043 c 0,4.49684 -3.64534,8.14225 -8.14216,8.14225 -4.49686,0 -8.14224,-3.64541 -8.14224,-8.14225 0,-4.49678 3.64538,-8.14215 8.14224,-8.14215 4.49677,0 8.14216,3.64537 8.14216,8.14215"
         id="path6359" />
    </g>
    <path
       d="m 7.8527193,6.9974828 2.5673637,4.8203162 -0.04897,0.0871 -1.4881867,2.773169 -5.4783489,-10.2504434 3.0744314,0 1.3737111,2.5698582 0,0 z m 6.5248497,-2.5553226 -3.156285,5.9092848 -0.294226,0.53709 -1.5372425,-2.8892237 0.049086,-0.08709 1.8479265,-3.4700512 3.090741,0 0,-6.9e-6 z"
       id="path6374"
       style="fill:#00af00;fill-opacity:1;stroke:none;stroke-opacity:1"
       inkscape:connector-curvature="0" />
  </g>
</svg>
