<?xml version="1.0" encoding="utf-8"?>
<!-- Generator: Adobe Illustrator 16.0.0, SVG Export Plug-In . SVG Version: 6.00 Build 0)  -->
<!DOCTYPE svg PUBLIC "-//W3C//DTD SVG 1.1//EN" "http://www.w3.org/Graphics/SVG/1.1/DTD/svg11.dtd">
<svg version="1.1" id="Layer_1" xmlns="http://www.w3.org/2000/svg" xmlns:xlink="http://www.w3.org/1999/xlink" x="0px" y="0px"
	 width="2000px" height="2000px" viewBox="0 0 2000 2000" enable-background="new 0 0 2000 2000" xml:space="preserve">
<rect fill="#FFFFFF" width="2000" height="2000"/>
<g>
	<linearGradient id="SVGID_1_" gradientUnits="userSpaceOnUse" x1="1006.0488" y1="-505.293" x2="1006.0488" y2="1415.8132">
		<stop  offset="0" style="stop-color:#1F3E05"/>
		<stop  offset="1" style="stop-color:#34BD0D"/>
	</linearGradient>
	<path fill="url(#SVGID_1_)" d="M871.406,640.361l332.908,704.017l-6.35,12.721l-192.972,405.027L294.619,265.028h398.659
		L871.406,640.361L871.406,640.361z M1717.478,267.151l-409.273,863.063l-38.152,78.443L1070.72,786.68l6.365-12.72l239.619-506.808
		H1717.478L1717.478,267.151z"/>
	<linearGradient id="SVGID_2_" gradientUnits="userSpaceOnUse" x1="989.6782" y1="590.5117" x2="989.6782" y2="1020.877">
		<stop  offset="0" style="stop-color:#1F3E05"/>
		<stop  offset="1" style="stop-color:#34BD0D"/>
	</linearGradient>
	<path display="none" fill="url(#SVGID_2_)" d="M970.664,1017.551l80.904,80.908h-178.41V763.771h82.984v251.708h12.447
		L970.664,1017.551L970.664,1017.551z M1106.199,1015.479v82.979h-16.596l-82.984-82.979H1106.199L1106.199,1015.479z"/>
	<linearGradient id="SVGID_3_" gradientUnits="userSpaceOnUse" x1="1287.7227" y1="590.5117" x2="1287.7227" y2="1020.877">
		<stop  offset="0" style="stop-color:#1F3E05"/>
		<stop  offset="1" style="stop-color:#34BD0D"/>
	</linearGradient>
	<path display="none" fill="url(#SVGID_3_)" d="M1455.065,763.771v82.979h-125.852v123.088l-82.98-82.98V846.75H1120.38v-82.979
		H1455.065L1455.065,763.771z M1246.233,924.89l82.98,82.98v90.589h-82.98V924.89L1246.233,924.89z"/>
	<linearGradient id="SVGID_4_" gradientUnits="userSpaceOnUse" x1="1680.7363" y1="590.5117" x2="1680.7363" y2="1020.877">
		<stop  offset="0" style="stop-color:#1F3E05"/>
		<stop  offset="1" style="stop-color:#34BD0D"/>
	</linearGradient>
	<path display="none" fill="url(#SVGID_4_)" d="M1658.917,1015.479l-71.729,82.979h-101.622l217.588-251.709H1532.19v-82.979
		h343.717l-217.585,251.708H1658.917L1658.917,1015.479z M1691.799,1015.479h130.905v82.979h-202.643L1691.799,1015.479
		L1691.799,1015.479z"/>
	<g display="none">
		<linearGradient id="SVGID_5_" gradientUnits="userSpaceOnUse" x1="627.5327" y1="590.5142" x2="627.5327" y2="1020.8759">
			<stop  offset="0" style="stop-color:#1F3E05"/>
			<stop  offset="1" style="stop-color:#34BD0D"/>
		</linearGradient>
		<path display="inline" fill="url(#SVGID_5_)" d="M554.646,920.489c2.452-14.487,9.308-27.231,20.61-38.23
			c14.43-14.049,31.859-21.073,52.278-21.073c20.417,0,37.843,7.023,52.278,21.073c11.298,11,18.156,23.744,20.608,38.23h85.142
			c-2.552-40.906-17.865-76.219-45.946-105.928c-30.895-32.677-68.252-49.015-112.081-49.015s-81.188,16.338-112.078,49.015
			c-28.081,29.708-43.398,65.022-45.95,105.928H554.646z"/>
		<linearGradient id="SVGID_6_" gradientUnits="userSpaceOnUse" x1="627.5332" y1="590.5088" x2="627.5332" y2="1020.8764">
			<stop  offset="0" style="stop-color:#1F3E05"/>
			<stop  offset="1" style="stop-color:#34BD0D"/>
		</linearGradient>
		<path display="inline" fill="url(#SVGID_6_)" d="M700.807,942.804c-2.046,15.539-9.04,29.132-20.996,40.773
			c-14.435,14.049-31.861,21.068-52.278,21.068c-20.419,0-37.848-7.02-52.278-21.068c-11.961-11.641-18.947-25.234-20.998-40.773
			H469.37c2.064,41.992,17.42,78.149,46.086,108.47c30.89,32.681,68.249,49.016,112.078,49.016s81.187-16.335,112.081-49.016
			c28.662-30.321,44.013-66.478,46.083-108.47H700.807z"/>
	</g>
</g>
<g display="none">
	<path display="inline" fill="#34BD0D" d="M163.677,1179.638h31.265c2.963,0,6.539,0,6.539,3.882c0,3.985-3.474,3.985-6.539,3.985
		h-31.265v26.054h35.454c2.963,0,6.743-0.103,6.743,3.882c0,4.088-3.679,3.985-6.743,3.985h-37.089c-4.393,0-5.21,0-6.743-1.431
		c-1.431-1.329-1.431-2.657-1.431-6.743v-56.808c0-3.577-0.102-5.108,1.328-6.642c1.329-1.43,2.554-1.532,6.846-1.532h35.658
		c2.963,0,6.743-0.103,6.743,3.883c0,4.087-3.678,3.984-6.743,3.984h-34.023V1179.638z"/>
	<path display="inline" fill="#34BD0D" d="M292.209,1154.912c-0.102-3.168-0.102-4.189,0.614-5.519
		c0.51-1.123,2.043-2.349,3.984-2.349c1.328,0,2.555,0.51,3.474,1.43c1.328,1.227,1.328,3.064,1.328,6.438v57.829
		c0,5.006,0,6.742-2.043,8.479c-1.124,0.92-2.452,1.431-3.985,1.431c-3.167,0-4.189-1.532-7.152-5.926l-35.659-53.231l0.409,51.29
		c0,3.271,0,4.189-0.613,5.519c-0.51,1.123-2.146,2.349-4.087,2.349c-1.226,0-2.554-0.511-3.474-1.431
		c-1.329-1.226-1.329-3.064-1.329-6.437v-58.237c0-5.008,0-6.336,1.941-8.072c0.409-0.409,1.635-1.43,3.882-1.43
		c2.963,0,3.985,1.531,6.744,5.722l36.271,54.15L292.209,1154.912z"/>
	<path display="inline" fill="#34BD0D" d="M354.125,1179.638h31.265c2.963,0,6.539,0,6.539,3.882c0,3.985-3.474,3.985-6.539,3.985
		h-31.265v26.054h35.454c2.962,0,6.743-0.103,6.743,3.882c0,4.088-3.678,3.985-6.743,3.985h-37.089c-4.393,0-5.21,0-6.743-1.431
		c-1.431-1.329-1.431-2.657-1.431-6.743v-56.808c0-3.577-0.102-5.108,1.328-6.642c1.329-1.43,2.554-1.532,6.846-1.532h35.658
		c2.963,0,6.743-0.103,6.743,3.883c0,4.087-3.678,3.984-6.743,3.984h-34.023V1179.638z"/>
	<path display="inline" fill="#34BD0D" d="M444.446,1214.478c0,2.963-0.103,3.985-0.409,5.006c-0.613,2.147-2.861,3.168-4.598,3.168
		c-1.941,0-3.883-1.226-4.496-3.168c-0.306-0.918-0.306-3.269-0.306-5.006v-58.033c0-7.356,0.817-8.174,8.173-8.174h23.398
		c1.226,0,9.297,0,14.304,2.963c5.824,3.474,9.4,9.706,9.4,16.96c0,7.356-3.678,12.261-6.641,14.509
		c-4.905,3.678-9.911,4.496-12.874,5.006c1.941,1.125,5.007,2.862,7.765,6.438c1.43,1.94,3.78,5.006,4.291,5.822l6.641,11.138
		c3.065,5.108,3.372,5.823,3.372,7.356c0,2.656-2.248,4.291-4.495,4.291c-2.963,0-3.985-1.533-7.152-6.642l-6.948-11.034
		c-10.013-15.837-13.691-16.45-20.844-16.45h-8.582V1214.478z M444.446,1155.83v24.931h17.063c4.598,0,18.391,0,18.391-12.67
		c0-3.882-1.634-7.151-4.7-9.501c-3.372-2.657-9.707-2.76-13.385-2.76H444.446z"/>
	<path display="inline" fill="#34BD0D" d="M584.013,1192.102h-16.042c-3.27,0-6.845,0-6.845-3.882c0-3.985,3.678-3.985,5.823-3.985
		h18.392c6.334,0.103,7.969,0.92,7.969,7.05v16.041c0,2.964,0,4.701-2.452,6.438c-0.306,0.306-12.056,8.888-28.302,8.888
		c-25.849,0-37.293-17.267-37.293-37.497c0-19.924,11.137-38.109,36.986-38.109c24.011,0,29.12,16.857,29.12,19.82
		c0,2.146-1.226,4.291-4.802,4.291c-1.635,0-2.861-0.92-4.802-4.394c-2.554-4.597-7.356-11.851-20.333-11.851
		c-17.062,0-26.156,12.771-26.156,29.63c0,6.947,1.431,16.653,8.072,23.294c5.21,5.211,12.669,6.948,19.208,6.948
		c7.356,0,14.407-2.146,21.457-6.845V1192.102z"/>
	<path display="inline" fill="#34BD0D" d="M630.297,1157.363c-2.555-4.087-2.657-5.007-2.657-5.824c0-2.146,1.635-4.494,4.802-4.494
		c2.452,0,3.167,1.123,5.824,5.414l18.289,28.915l18.8-29.221c2.657-4.188,3.27-5.108,5.722-5.108c2.452,0,4.495,1.838,4.495,4.291
		c0,1.736-1.124,3.371-2.554,5.517l-21.865,33.206v24.521c0,3.27,0,5.415-1.43,6.641c-0.92,0.92-2.044,1.431-3.474,1.431
		c-1.328,0-2.555-0.511-3.576-1.431c-1.328-1.226-1.328-3.371-1.328-6.641v-24.521L630.297,1157.363z"/>
	<path display="inline" fill="#34BD0D" d="M786.313,1180.046h25.237c2.86,0,6.539,0,6.539,3.883c0,3.984-3.576,3.984-6.539,3.984
		h-25.237v26.667c0,3.475-0.103,5.313-1.328,6.539c-0.818,0.817-2.043,1.532-3.577,1.532c-1.328,0-2.656-0.511-3.678-1.431
		c-1.226-1.327-1.226-3.166-1.226-6.641v-58.136c0-7.356,0.817-8.174,8.173-8.174h31.98c2.963,0,6.642-0.103,6.642,3.883
		c0,4.087-3.577,3.984-6.642,3.984h-30.345V1180.046z"/>
	<path display="inline" fill="#34BD0D" d="M892.266,1222.651c-28.506,0-35.045-23.091-35.045-37.804
		c0-15.837,7.459-37.803,34.841-37.803c26.156,0,34.534,20.843,34.534,37.803C926.596,1203.137,917.196,1222.651,892.266,1222.651z
		 M891.857,1154.912c-7.05,0-12.874,3.166-17.063,7.356c-6.129,5.925-7.561,16.96-7.561,23.806c0,17.88,11.24,28.71,24.624,28.71
		c8.48,0,24.726-5.517,24.726-29.937C916.583,1160.429,900.337,1154.912,891.857,1154.912z"/>
	<path display="inline" fill="#34BD0D" d="M975.945,1214.478c0,2.963-0.103,3.985-0.409,5.006c-0.613,2.147-2.861,3.168-4.598,3.168
		c-1.941,0-3.883-1.226-4.496-3.168c-0.306-0.918-0.306-3.269-0.306-5.006v-58.033c0-7.356,0.817-8.174,8.173-8.174h23.398
		c1.226,0,9.298,0,14.304,2.963c5.824,3.474,9.4,9.706,9.4,16.96c0,7.356-3.679,12.261-6.642,14.509
		c-4.905,3.678-9.91,4.496-12.875,5.006c1.942,1.125,5.008,2.862,7.766,6.438c1.431,1.94,3.781,5.006,4.292,5.822l6.641,11.138
		c3.064,5.108,3.372,5.823,3.372,7.356c0,2.656-2.248,4.291-4.496,4.291c-2.963,0-3.984-1.533-7.152-6.642l-6.947-11.034
		c-10.013-15.837-13.69-16.45-20.843-16.45h-8.582V1214.478z M975.945,1155.83v24.931h17.063c4.597,0,18.391,0,18.391-12.67
		c0-3.882-1.635-7.151-4.7-9.501c-3.372-2.657-9.706-2.76-13.384-2.76H975.945z"/>
	<path display="inline" fill="#34BD0D" d="M1163.94,1179.126v-24.112c0-3.475,0.204-5.211,1.43-6.438
		c0.716-0.715,1.942-1.531,3.576-1.531c1.226,0,2.555,0.51,3.576,1.531c1.226,1.227,1.226,3.065,1.226,6.438v59.668
		c0,3.475,0,5.212-1.226,6.438c-0.715,0.715-1.941,1.532-3.576,1.532c-1.226,0-2.554-0.511-3.576-1.431
		c-1.226-1.327-1.43-3.166-1.43-6.539v-27.688h-38.314v27.587c0,3.475-0.103,5.313-1.431,6.539
		c-0.613,0.715-1.839,1.532-3.576,1.532c-1.226,0-2.554-0.511-3.576-1.431c-1.226-1.327-1.226-3.166-1.226-6.641v-59.465
		c0-3.474,0-5.313,1.226-6.539c0.716-0.715,1.941-1.531,3.576-1.531c1.328,0,2.656,0.51,3.576,1.531
		c1.328,1.227,1.431,3.065,1.431,6.539v24.011H1163.94z"/>
	<path display="inline" fill="#34BD0D" d="M1225.652,1194.044c0,6.232,0,20.74,19.31,20.74c17.268,0,19.005-12.362,19.005-20.638
		v-38.929c0-3.576,0-5.313,1.328-6.642c0.715-0.715,1.94-1.531,3.575-1.531c1.328,0,2.656,0.51,3.576,1.531
		c1.328,1.329,1.328,3.168,1.328,6.642v38.009c0,14.916-5.414,29.425-28.097,29.425c-19.516,0-29.835-7.765-29.835-29.323v-38.11
		c0-3.576,0-5.313,1.328-6.642c0.715-0.715,1.942-1.531,3.577-1.531c1.328,0,2.656,0.51,3.576,1.531
		c1.328,1.329,1.328,3.168,1.328,6.642V1194.044z"/>
	<path display="inline" fill="#34BD0D" d="M1313.109,1156.444c0-8.174,4.803-8.174,7.356-8.174c6.233,0,7.153,0,9.298,6.334
		l15.224,45.467c1.227,3.576,2.453,7.254,3.577,10.83c1.226-3.984,1.533-4.802,3.882-11.749l15.121-44.24
		c2.248-6.438,2.351-6.642,8.481-6.642c6.641,0,6.947,1.839,6.947,8.174v59.974c0,1.329-0.103,6.233-4.699,6.233
		c-4.7,0-4.7-4.699-4.7-5.823v-56.604l-19.005,54.663c-2.043,5.926-2.758,7.765-6.334,7.765c-3.679,0-4.599-0.92-6.947-7.765
		l-18.8-55.684v56.194c0,2.555,0,7.254-4.7,7.254c-4.394,0-4.701-3.883-4.701-7.151V1156.444z"/>
	<path display="inline" fill="#34BD0D" d="M1432.651,1200.276l-6.334,16.347c-1.533,3.883-2.248,6.028-5.619,6.028
		c-2.656,0-4.7-2.248-4.7-4.291c0-1.532,0.51-2.759,1.43-5.108l23.193-57.522c2.248-5.722,3.371-8.685,8.072-8.685
		c1.838,0,3.883,0.816,4.903,2.043c1.022,1.123,2.351,4.291,3.271,6.539l24.011,57.217c1.021,2.554,1.532,3.779,1.532,5.313
		c0,1.941-1.941,4.495-4.905,4.495c-3.371,0-4.086-2.146-5.721-6.233l-6.539-16.142H1432.651z M1462.281,1192.409l-13.69-34.229
		l-13.181,34.229H1462.281z"/>
	<path display="inline" fill="#34BD0D" d="M1566.701,1154.912c-0.103-3.168-0.103-4.189,0.612-5.519
		c0.511-1.123,2.044-2.349,3.984-2.349c1.328,0,2.555,0.51,3.474,1.43c1.329,1.227,1.329,3.064,1.329,6.438v57.829
		c0,5.006,0,6.742-2.044,8.479c-1.124,0.92-2.452,1.431-3.984,1.431c-3.168,0-4.188-1.532-7.152-5.926l-35.658-53.231l0.408,51.29
		c0,3.271,0,4.189-0.611,5.519c-0.512,1.123-2.146,2.349-4.088,2.349c-1.226,0-2.554-0.511-3.474-1.431
		c-1.328-1.226-1.328-3.064-1.328-6.437v-58.237c0-5.008,0-6.336,1.941-8.072c0.409-0.409,1.635-1.43,3.883-1.43
		c2.963,0,3.984,1.531,6.742,5.722l36.271,54.15L1566.701,1154.912z"/>
	<path display="inline" fill="#34BD0D" d="M1629.74,1214.58c0,3.475,0,5.313-1.328,6.539c-0.716,0.715-1.941,1.532-3.576,1.532
		c-1.226,0-2.656-0.511-3.576-1.431c-1.328-1.327-1.328-3.166-1.328-6.641v-59.465c0-3.474,0-5.313,1.328-6.539
		c0.715-0.715,1.84-1.531,3.576-1.531c1.226,0,2.656,0.51,3.576,1.531c1.328,1.227,1.328,3.168,1.328,6.539V1214.58z"/>
	<path display="inline" fill="#34BD0D" d="M1699.933,1214.58c0,3.27,0,5.415-1.328,6.641c-0.716,0.716-1.941,1.431-3.576,1.431
		c-1.226,0-2.554-0.511-3.474-1.431c-1.431-1.226-1.431-3.269-1.431-6.641v-58.442h-16.552c-2.963,0-4.7,0-5.723-1.124
		c-0.714-0.715-1.328-1.737-1.328-2.758c0-0.92,0.614-2.045,1.227-2.76c1.124-1.226,2.861-1.226,5.824-1.226h43.014
		c2.964,0,4.701,0,5.722,1.226c0.716,0.715,1.329,1.737,1.329,2.76c0,0.919-0.613,2.043-1.329,2.758
		c-1.123,1.124-2.758,1.124-5.722,1.124h-16.653V1214.58z"/>
	<path display="inline" fill="#34BD0D" d="M1755.514,1157.363c-2.554-4.087-2.656-5.007-2.656-5.824
		c0-2.146,1.636-4.494,4.803-4.494c2.452,0,3.167,1.123,5.824,5.414l18.288,28.915l18.8-29.221c2.656-4.188,3.27-5.108,5.722-5.108
		s4.495,1.838,4.495,4.291c0,1.736-1.123,3.371-2.555,5.517l-21.863,33.206v24.521c0,3.27,0,5.415-1.431,6.641
		c-0.92,0.92-2.044,1.431-3.474,1.431c-1.328,0-2.555-0.511-3.576-1.431c-1.329-1.226-1.329-3.371-1.329-6.641v-24.521
		L1755.514,1157.363z"/>
</g>
</svg>
