<?xml version="1.0" encoding="UTF-8"?>
<svg xmlns="http://www.w3.org/2000/svg" xmlns:xlink="http://www.w3.org/1999/xlink" width="120pt" height="120pt" viewBox="0 0 120 120" version="1.1">
<g id="surface1">
<path style=" stroke:none;fill-rule:nonzero;fill:rgb(99.215686%,71.372549%,21.960784%);fill-opacity:1;" d="M 58.226562 117.960938 C 48.125 117.617188 38.476562 114.753906 29.90625 109.554688 C 24.941406 106.546875 20.320312 102.683594 16.550781 98.394531 C 9.542969 90.417969 4.949219 80.996094 2.988281 70.566406 C 2.253906 66.667969 1.902344 62.171875 2.03125 58.363281 C 2.171875 54.25 2.65625 50.566406 3.574219 46.652344 C 4.734375 41.703125 6.644531 36.714844 9.09375 32.230469 C 12.320312 26.328125 16.644531 20.90625 21.597656 16.550781 C 29.574219 9.542969 38.996094 4.949219 49.425781 2.988281 C 53.328125 2.253906 57.820312 1.902344 61.628906 2.03125 C 65.742188 2.171875 69.429688 2.65625 73.339844 3.574219 C 78.289062 4.734375 83.277344 6.644531 87.761719 9.09375 C 93.664062 12.320312 99.085938 16.644531 103.441406 21.597656 C 110.453125 29.574219 115.042969 38.996094 117.007812 49.425781 C 117.53125 52.21875 117.855469 55.261719 117.960938 58.363281 C 118.0625 61.246094 117.886719 64.503906 117.46875 67.671875 C 116.539062 74.65625 114.277344 81.578125 110.898438 87.761719 C 107.675781 93.664062 103.351562 99.085938 98.394531 103.441406 C 90.417969 110.453125 80.996094 115.042969 70.566406 117.007812 C 66.632812 117.746094 62.140625 118.09375 58.226562 117.960938 Z M 58.226562 117.960938 "/>
<path style=" stroke:none;fill-rule:nonzero;fill:rgb(10.196078%,10.196078%,10.196078%);fill-opacity:1;" d="M 58.210938 117.960938 C 50.035156 117.683594 42.121094 115.742188 34.765625 112.203125 C 28.144531 109.019531 21.859375 104.3125 16.988281 98.886719 C 12.886719 94.320312 9.53125 89.1875 7.128906 83.800781 C 4.566406 78.058594 3.007812 72.300781 2.339844 66.128906 C 1.804688 61.164062 1.917969 56.242188 2.679688 51.246094 C 4.054688 42.257812 7.523438 33.707031 12.796875 26.328125 C 15.269531 22.867188 18.089844 19.699219 21.109375 16.988281 C 28.1875 10.628906 36.429688 6.199219 45.578125 3.835938 C 50.71875 2.507812 56.496094 1.859375 61.628906 2.03125 C 69.46875 2.292969 76.683594 3.953125 83.796875 7.125 C 90.914062 10.304688 97.671875 15.207031 102.882812 20.972656 C 107.941406 26.570312 111.738281 32.808594 114.335938 39.785156 C 116.347656 45.183594 117.535156 50.828125 117.886719 56.636719 C 118.238281 62.515625 117.640625 68.679688 116.15625 74.417969 C 114.355469 81.386719 111.339844 87.863281 107.199219 93.664062 C 104.761719 97.078125 101.984375 100.207031 99.023438 102.878906 C 91.886719 109.328125 83.621094 113.78125 74.359375 116.171875 C 69.222656 117.496094 63.445312 118.136719 58.210938 117.960938 Z M 61.882812 116.710938 L 62.492188 116.691406 L 62.492188 116.566406 C 62.492188 116.496094 62.453125 115.535156 62.402344 114.433594 C 62.351562 113.332031 62.308594 112.417969 62.308594 112.398438 C 62.308594 112.378906 62.222656 112.371094 62.085938 112.375 C 61.960938 112.378906 61.617188 112.394531 61.320312 112.402344 L 60.78125 112.421875 L 60.816406 114.292969 C 60.835938 115.320312 60.855469 116.292969 60.855469 116.453125 L 60.859375 116.746094 L 61.066406 116.738281 C 61.183594 116.734375 61.550781 116.722656 61.882812 116.710938 Z M 58.960938 116.015625 C 58.972656 115.621094 58.988281 114.648438 59 113.859375 L 59.019531 112.421875 L 58.882812 112.40625 C 58.808594 112.394531 58.46875 112.378906 58.128906 112.371094 L 57.507812 112.355469 L 57.488281 112.699219 C 57.425781 113.796875 57.3125 116.644531 57.332031 116.664062 C 57.355469 116.6875 57.910156 116.714844 58.519531 116.722656 L 58.941406 116.730469 Z M 65.328125 116.480469 C 65.710938 116.445312 66.027344 116.410156 66.03125 116.40625 C 66.046875 116.390625 65.589844 112.171875 65.566406 112.152344 C 65.550781 112.136719 64.09375 112.253906 64.074219 112.273438 C 64.070312 112.277344 64.140625 113.214844 64.234375 114.359375 C 64.328125 115.503906 64.402344 116.46875 64.402344 116.503906 C 64.402344 116.5625 64.417969 116.570312 64.519531 116.558594 C 64.582031 116.550781 64.945312 116.515625 65.328125 116.480469 Z M 55.40625 116.484375 C 55.40625 116.453125 55.480469 115.484375 55.574219 114.335938 C 55.667969 113.191406 55.742188 112.246094 55.738281 112.242188 C 55.730469 112.238281 55.410156 112.207031 55.019531 112.171875 C 54.628906 112.132812 54.292969 112.097656 54.273438 112.09375 C 54.25 112.085938 54.230469 112.128906 54.21875 112.210938 C 54.164062 112.609375 53.769531 116.371094 53.78125 116.382812 C 53.796875 116.398438 55.117188 116.539062 55.289062 116.542969 C 55.386719 116.542969 55.40625 116.535156 55.40625 116.484375 Z M 68.855469 116.035156 C 69.246094 115.972656 69.566406 115.921875 69.570312 115.917969 C 69.570312 115.914062 69.410156 114.964844 69.207031 113.800781 C 69.007812 112.640625 68.84375 111.6875 68.84375 111.683594 C 68.839844 111.679688 68.808594 111.683594 68.773438 111.691406 C 68.734375 111.703125 68.402344 111.753906 68.03125 111.8125 C 67.660156 111.871094 67.355469 111.921875 67.347656 111.925781 C 67.339844 111.9375 67.859375 115.589844 67.933594 116.0625 C 67.953125 116.171875 67.957031 116.175781 68.050781 116.160156 C 68.105469 116.152344 68.46875 116.09375 68.855469 116.035156 Z M 51.875 116.058594 C 51.910156 115.878906 52.480469 111.882812 52.46875 111.875 C 52.460938 111.863281 50.984375 111.617188 50.980469 111.625 C 50.964844 111.644531 50.253906 115.871094 50.265625 115.882812 C 50.273438 115.890625 50.574219 115.945312 50.9375 116.003906 C 51.300781 116.0625 51.632812 116.117188 51.675781 116.125 C 51.839844 116.152344 51.855469 116.144531 51.875 116.058594 Z M 72.269531 115.386719 C 72.765625 115.277344 73.0625 115.199219 73.054688 115.175781 C 73.046875 115.160156 72.820312 114.222656 72.554688 113.09375 C 72.289062 111.96875 72.066406 111.042969 72.066406 111.039062 C 72.0625 111.035156 70.859375 111.296875 70.679688 111.34375 C 70.59375 111.363281 70.566406 111.382812 70.578125 111.421875 C 70.585938 111.453125 70.785156 112.394531 71.019531 113.519531 C 71.253906 114.640625 71.453125 115.558594 71.460938 115.558594 C 71.46875 115.558594 71.832031 115.480469 72.269531 115.386719 Z M 48.808594 113.417969 C 49.050781 112.253906 49.246094 111.300781 49.238281 111.292969 C 49.214844 111.273438 47.789062 110.964844 47.773438 110.976562 C 47.742188 111.011719 46.777344 115.140625 46.796875 115.160156 C 46.820312 115.179688 48.230469 115.515625 48.335938 115.523438 C 48.355469 115.527344 48.554688 114.636719 48.808594 113.417969 Z M 75.707031 114.507812 C 76.125 114.386719 76.472656 114.285156 76.476562 114.28125 C 76.484375 114.273438 75.253906 110.21875 75.238281 110.203125 C 75.230469 110.195312 73.796875 110.597656 73.777344 110.613281 C 73.769531 110.621094 74.878906 114.664062 74.902344 114.703125 C 74.921875 114.738281 74.878906 114.746094 75.707031 114.507812 Z M 45.480469 112.640625 C 45.785156 111.535156 46.039062 110.605469 46.050781 110.574219 C 46.066406 110.527344 46.046875 110.507812 45.953125 110.484375 C 45.890625 110.464844 45.5625 110.371094 45.226562 110.273438 C 44.894531 110.175781 44.613281 110.101562 44.605469 110.105469 C 44.589844 110.125 43.355469 114.167969 43.355469 114.207031 C 43.355469 114.234375 43.59375 114.3125 44.402344 114.542969 C 44.683594 114.621094 44.914062 114.679688 44.917969 114.667969 C 44.921875 114.660156 45.175781 113.746094 45.480469 112.640625 Z M 79.148438 113.398438 C 79.53125 113.261719 79.84375 113.136719 79.84375 113.125 C 79.84375 113.097656 78.375 109.179688 78.359375 109.164062 C 78.347656 109.15625 76.976562 109.628906 76.925781 109.65625 C 76.917969 109.660156 78.15625 113.269531 78.257812 113.550781 C 78.320312 113.710938 78.238281 113.726562 79.148438 113.398438 Z M 42.214844 111.621094 C 42.59375 110.523438 42.902344 109.605469 42.90625 109.582031 C 42.90625 109.550781 42.769531 109.488281 42.460938 109.378906 C 42.214844 109.289062 41.902344 109.175781 41.761719 109.125 C 41.53125 109.039062 41.503906 109.035156 41.480469 109.082031 C 41.402344 109.242188 39.988281 113.066406 40.003906 113.082031 C 40.03125 113.109375 41.425781 113.613281 41.476562 113.617188 C 41.511719 113.617188 41.695312 113.121094 42.214844 111.621094 Z M 82.476562 112.085938 C 82.816406 111.941406 83.105469 111.8125 83.117188 111.800781 C 83.136719 111.785156 81.453125 107.976562 81.40625 107.929688 C 81.398438 107.921875 80.027344 108.492188 80.007812 108.515625 C 80.003906 108.519531 80.347656 109.351562 80.769531 110.367188 C 81.195312 111.382812 81.5625 112.265625 81.589844 112.328125 L 81.636719 112.441406 L 81.75 112.394531 C 81.808594 112.371094 82.140625 112.230469 82.476562 112.085938 Z M 39.027344 110.382812 C 39.464844 109.339844 39.824219 108.460938 39.832031 108.425781 C 39.84375 108.371094 39.757812 108.328125 39.164062 108.074219 C 38.785156 107.914062 38.472656 107.796875 38.457031 107.8125 C 38.410156 107.863281 36.695312 111.714844 36.710938 111.730469 C 36.71875 111.738281 37.058594 111.886719 37.460938 112.0625 C 38.082031 112.328125 38.199219 112.371094 38.214844 112.328125 C 38.226562 112.300781 38.589844 111.425781 39.027344 110.382812 Z M 61.722656 111.152344 C 65.769531 111 69.617188 110.429688 73.339844 109.429688 C 79.859375 107.683594 85.75 104.808594 91.089844 100.773438 C 94.945312 97.863281 98.230469 94.574219 101.144531 90.722656 C 105.175781 85.378906 108.050781 79.488281 109.800781 72.96875 C 110.800781 69.246094 111.371094 65.398438 111.523438 61.351562 C 111.699219 56.578125 111.085938 51.246094 109.800781 46.46875 C 108.050781 39.953125 105.175781 34.058594 101.144531 28.71875 C 98.230469 24.863281 94.945312 21.578125 91.089844 18.667969 C 85.75 14.632812 79.859375 11.757812 73.339844 10.007812 C 69.617188 9.007812 65.769531 8.4375 61.722656 8.285156 C 56.949219 8.109375 51.617188 8.726562 46.839844 10.007812 C 40.320312 11.757812 34.429688 14.632812 29.089844 18.667969 C 25.234375 21.578125 21.945312 24.863281 19.035156 28.71875 C 15 34.058594 12.128906 39.953125 10.378906 46.46875 C 9.378906 50.191406 8.808594 54.039062 8.65625 58.085938 C 8.476562 62.859375 9.09375 68.191406 10.378906 72.96875 C 12.128906 79.488281 15 85.378906 19.035156 90.722656 C 21.945312 94.574219 25.234375 97.863281 29.089844 100.773438 C 34.429688 104.808594 40.320312 107.683594 46.839844 109.429688 C 51.613281 110.714844 56.953125 111.332031 61.722656 111.152344 Z M 85.617188 110.625 C 85.992188 110.4375 86.308594 110.273438 86.324219 110.261719 C 86.347656 110.238281 84.46875 106.625 84.390625 106.539062 C 84.363281 106.507812 84.214844 106.566406 83.6875 106.832031 C 83.320312 107.011719 83.019531 107.179688 83.023438 107.199219 C 83.042969 107.289062 84.878906 110.96875 84.90625 110.96875 C 84.925781 110.96875 85.246094 110.8125 85.617188 110.625 Z M 35.011719 110.804688 C 35.039062 110.75 35.46875 109.878906 35.96875 108.871094 L 36.875 107.035156 L 36.199219 106.6875 C 35.828125 106.496094 35.519531 106.34375 35.511719 106.351562 C 35.507812 106.355469 35.105469 107.117188 34.621094 108.039062 C 34.132812 108.964844 33.679688 109.820312 33.613281 109.941406 L 33.496094 110.164062 L 33.6875 110.269531 C 33.941406 110.410156 34.921875 110.90625 34.945312 110.90625 C 34.953125 110.90625 34.984375 110.859375 35.011719 110.804688 Z M 88.507812 109.046875 C 88.75 108.902344 89.0625 108.71875 89.199219 108.636719 L 89.445312 108.488281 L 88.351562 106.691406 C 87.75 105.703125 87.242188 104.898438 87.222656 104.902344 C 87.207031 104.910156 86.90625 105.078125 86.554688 105.28125 C 85.957031 105.628906 85.921875 105.65625 85.957031 105.714844 C 85.976562 105.746094 86.449219 106.570312 87.007812 107.539062 C 87.5625 108.507812 88.027344 109.304688 88.042969 109.304688 C 88.058594 109.304688 88.269531 109.1875 88.507812 109.046875 Z M 32.910156 107.351562 L 33.976562 105.496094 L 33.898438 105.449219 C 33.855469 105.421875 33.558594 105.246094 33.238281 105.058594 L 32.660156 104.714844 L 32.589844 104.828125 C 32.527344 104.929688 30.457031 108.328125 30.421875 108.386719 C 30.40625 108.414062 31.804688 109.246094 31.828125 109.222656 C 31.839844 109.214844 32.324219 108.371094 32.910156 107.351562 Z M 91.6875 107.054688 C 92.011719 106.832031 92.308594 106.625 92.351562 106.597656 L 92.421875 106.539062 L 91.230469 104.832031 C 90.574219 103.894531 90.03125 103.117188 90.023438 103.113281 C 90.019531 103.105469 89.726562 103.289062 89.378906 103.519531 C 88.953125 103.804688 88.753906 103.957031 88.769531 103.980469 C 88.808594 104.042969 90.75 106.992188 90.910156 107.230469 C 90.996094 107.355469 91.070312 107.453125 91.078125 107.453125 C 91.089844 107.453125 91.363281 107.273438 91.6875 107.054688 Z M 29.996094 105.578125 L 31.183594 103.777344 L 30.558594 103.355469 C 30.097656 103.042969 29.925781 102.941406 29.898438 102.96875 C 29.867188 102.996094 27.640625 106.171875 27.503906 106.382812 L 27.449219 106.464844 L 27.890625 106.769531 C 28.449219 107.15625 28.792969 107.386719 28.800781 107.382812 C 28.804688 107.378906 29.339844 106.566406 29.996094 105.578125 Z M 94.21875 105.238281 C 94.425781 105.082031 95.222656 104.46875 95.261719 104.433594 C 95.273438 104.421875 94.695312 103.675781 93.976562 102.777344 L 92.671875 101.136719 L 92.066406 101.601562 C 91.644531 101.925781 91.46875 102.078125 91.484375 102.105469 C 91.589844 102.289062 93.980469 105.410156 94.003906 105.394531 C 94.019531 105.386719 94.117188 105.316406 94.21875 105.238281 Z M 27.203125 103.597656 C 27.902344 102.667969 28.472656 101.902344 28.472656 101.894531 C 28.472656 101.882812 27.300781 100.96875 27.28125 100.96875 C 27.277344 100.96875 26.671875 101.722656 25.9375 102.644531 L 24.597656 104.324219 L 24.828125 104.507812 C 25.515625 105.050781 25.894531 105.328125 25.914062 105.304688 C 25.925781 105.292969 26.507812 104.523438 27.203125 103.597656 Z M 97.304688 102.730469 C 97.601562 102.472656 97.878906 102.230469 97.925781 102.195312 L 98.003906 102.128906 L 97.886719 101.996094 C 96.761719 100.746094 95.207031 99.042969 95.191406 99.042969 C 95.160156 99.042969 94.066406 100.003906 94.066406 100.03125 C 94.066406 100.058594 96.730469 103.195312 96.753906 103.199219 C 96.761719 103.199219 97.007812 102.992188 97.304688 102.730469 Z M 24.554688 101.449219 C 25.304688 100.574219 25.910156 99.851562 25.90625 99.839844 C 25.898438 99.820312 24.902344 98.9375 24.816406 98.875 C 24.792969 98.855469 24.769531 98.851562 24.765625 98.859375 C 24.753906 98.875 22.101562 101.808594 21.972656 101.949219 L 21.890625 102.035156 L 22.003906 102.132812 C 22.828125 102.863281 23.125 103.105469 23.160156 103.070312 C 23.179688 103.050781 23.808594 102.320312 24.554688 101.449219 Z M 100.015625 100.234375 L 100.59375 99.671875 L 99.105469 98.222656 C 98.289062 97.425781 97.609375 96.777344 97.597656 96.777344 C 97.585938 96.777344 97.328125 97.011719 97.03125 97.300781 L 96.492188 97.824219 L 97.941406 99.3125 C 98.738281 100.128906 99.402344 100.796875 99.414062 100.796875 C 99.429688 100.796875 99.699219 100.542969 100.015625 100.234375 Z M 22 99.167969 C 22.816406 98.332031 23.476562 97.636719 23.472656 97.628906 C 23.46875 97.617188 23.226562 97.375 22.933594 97.089844 L 22.402344 96.570312 L 20.875 98.054688 C 20.035156 98.875 19.351562 99.558594 19.351562 99.578125 C 19.347656 99.628906 20.453125 100.714844 20.488281 100.699219 C 20.507812 100.695312 21.1875 100.003906 22 99.167969 Z M 102.792969 97.242188 L 102.976562 97.027344 L 101.402344 95.675781 L 99.828125 94.328125 L 99.671875 94.503906 C 99.589844 94.601562 99.363281 94.851562 99.171875 95.0625 C 98.980469 95.273438 98.824219 95.457031 98.824219 95.46875 C 98.824219 95.480469 99.515625 96.117188 100.355469 96.878906 L 101.886719 98.265625 L 102.246094 97.859375 C 102.445312 97.636719 102.691406 97.359375 102.792969 97.242188 Z M 19.585938 96.757812 C 20.429688 95.992188 21.140625 95.351562 21.164062 95.328125 C 21.199219 95.292969 21.144531 95.21875 20.824219 94.859375 C 20.617188 94.625 20.386719 94.371094 20.320312 94.289062 L 20.195312 94.148438 L 18.574219 95.539062 C 17.574219 96.394531 16.960938 96.945312 16.972656 96.964844 C 17.015625 97.042969 18 98.148438 18.023438 98.148438 C 18.039062 98.148438 18.742188 97.523438 19.585938 96.757812 Z M 104.832031 94.746094 C 105.046875 94.472656 105.199219 94.25 105.1875 94.234375 C 105.171875 94.21875 104.429688 93.660156 103.539062 92.988281 C 102.015625 91.839844 101.921875 91.773438 101.875 91.824219 C 101.546875 92.234375 101 92.945312 101 92.96875 C 101 92.984375 101.71875 93.570312 102.597656 94.273438 L 104.199219 95.550781 L 104.328125 95.394531 C 104.398438 95.304688 104.625 95.015625 104.832031 94.746094 Z M 18.21875 93.464844 C 18.695312 93.089844 19.039062 92.792969 19.03125 92.769531 C 19.019531 92.738281 18.675781 92.292969 18.210938 91.707031 L 18.125 91.601562 L 16.632812 92.722656 C 15.816406 93.339844 15.050781 93.917969 14.9375 94.003906 C 14.824219 94.085938 14.730469 94.164062 14.730469 94.171875 C 14.726562 94.179688 14.949219 94.476562 15.222656 94.824219 L 15.71875 95.464844 L 16.554688 94.792969 C 17.015625 94.425781 17.765625 93.828125 18.21875 93.464844 Z M 106.808594 92.046875 C 107.054688 91.691406 107.257812 91.386719 107.261719 91.371094 C 107.269531 91.359375 107.074219 91.214844 106.832031 91.058594 C 106.589844 90.898438 105.816406 90.390625 105.117188 89.925781 C 104.414062 89.464844 103.839844 89.089844 103.835938 89.09375 C 103.832031 89.097656 103.648438 89.363281 103.429688 89.683594 C 103.210938 90 103.019531 90.28125 103.003906 90.304688 C 102.988281 90.328125 102.980469 90.355469 102.988281 90.359375 C 103.0625 90.421875 106.328125 92.691406 106.34375 92.691406 C 106.351562 92.691406 106.5625 92.402344 106.808594 92.046875 Z M 15.332031 91.394531 C 16.277344 90.734375 17.058594 90.183594 17.066406 90.179688 C 17.074219 90.171875 17.050781 90.128906 17.019531 90.082031 C 16.984375 90.035156 16.792969 89.757812 16.59375 89.464844 C 16.394531 89.171875 16.21875 88.933594 16.199219 88.941406 C 16.125 88.964844 12.664062 91.261719 12.671875 91.28125 C 12.6875 91.335938 13.566406 92.601562 13.585938 92.601562 C 13.597656 92.601562 14.382812 92.058594 15.332031 91.394531 Z M 108.734375 89.035156 C 109.066406 88.480469 109.144531 88.328125 109.113281 88.300781 C 109.015625 88.214844 105.589844 86.277344 105.582031 86.304688 C 105.578125 86.324219 105.402344 86.617188 105.191406 86.964844 L 104.808594 87.59375 L 104.921875 87.660156 C 104.984375 87.699219 105.769531 88.179688 106.667969 88.730469 C 107.566406 89.28125 108.304688 89.730469 108.308594 89.734375 C 108.3125 89.734375 108.503906 89.421875 108.734375 89.035156 Z M 13.453125 88.542969 C 14.441406 87.9375 15.25 87.429688 15.246094 87.410156 C 15.238281 87.386719 14.546875 86.210938 14.492188 86.136719 C 14.480469 86.117188 10.8125 88.230469 10.8125 88.257812 C 10.8125 88.292969 11.617188 89.640625 11.636719 89.640625 C 11.644531 89.640625 12.460938 89.148438 13.453125 88.542969 Z M 110.578125 85.714844 L 110.847656 85.191406 L 109.023438 84.289062 C 108.019531 83.789062 107.1875 83.394531 107.171875 83.410156 C 107.144531 83.4375 106.503906 84.667969 106.492188 84.714844 C 106.488281 84.730469 107.292969 85.171875 108.285156 85.695312 L 110.085938 86.648438 L 110.199219 86.441406 C 110.257812 86.328125 110.429688 86 110.578125 85.714844 Z M 11.722656 85.589844 C 12.738281 85.054688 13.578125 84.609375 13.59375 84.59375 C 13.613281 84.574219 12.988281 83.308594 12.925781 83.242188 C 12.917969 83.230469 9.171875 85.078125 9.140625 85.109375 C 9.117188 85.132812 9.832031 86.5625 9.871094 86.5625 C 9.875 86.5625 10.710938 86.125 11.722656 85.589844 Z M 111.996094 82.683594 C 112.277344 82.035156 112.3125 81.933594 112.269531 81.914062 C 112.238281 81.90625 111.394531 81.554688 110.394531 81.136719 L 108.570312 80.375 L 108.261719 81.074219 C 108.09375 81.457031 107.957031 81.773438 107.960938 81.777344 C 107.976562 81.792969 111.660156 83.441406 111.667969 83.4375 C 111.671875 83.433594 111.820312 83.09375 111.996094 82.683594 Z M 10.449219 82.414062 C 11.394531 81.992188 12.164062 81.632812 12.15625 81.613281 C 11.957031 81.121094 11.546875 80.261719 11.515625 80.269531 C 11.382812 80.300781 7.671875 81.867188 7.671875 81.890625 C 7.671875 81.910156 7.8125 82.25 7.984375 82.652344 L 8.296875 83.378906 L 8.515625 83.28125 C 8.636719 83.226562 9.507812 82.835938 10.449219 82.414062 Z M 113.328125 79.34375 C 113.472656 78.949219 113.578125 78.621094 113.566406 78.609375 C 113.550781 78.597656 112.964844 78.390625 112.261719 78.148438 C 111.558594 77.90625 110.710938 77.613281 110.378906 77.5 L 109.769531 77.289062 L 109.640625 77.648438 C 109.570312 77.847656 109.449219 78.167969 109.375 78.359375 C 109.300781 78.554688 109.246094 78.714844 109.25 78.722656 C 109.257812 78.726562 110.105469 79.050781 111.140625 79.4375 C 112.632812 80 113.023438 80.132812 113.042969 80.101562 C 113.054688 80.078125 113.183594 79.734375 113.328125 79.34375 Z M 8.890625 79.363281 C 9.957031 78.964844 10.839844 78.625 10.855469 78.609375 C 10.886719 78.582031 10.386719 77.191406 10.347656 77.191406 C 10.328125 77.191406 9.539062 77.464844 6.554688 78.492188 L 6.378906 78.550781 L 6.488281 78.851562 C 6.695312 79.429688 6.941406 80.089844 6.945312 80.089844 C 6.949219 80.089844 7.824219 79.761719 8.890625 79.363281 Z M 114.25 76.582031 C 114.28125 76.488281 114.382812 76.136719 114.480469 75.804688 L 114.65625 75.199219 L 112.730469 74.667969 C 111.671875 74.378906 110.792969 74.148438 110.78125 74.164062 C 110.753906 74.195312 110.339844 75.589844 110.355469 75.601562 C 110.375 75.617188 114.125 76.757812 114.164062 76.757812 C 114.183594 76.761719 114.222656 76.679688 114.25 76.582031 Z M 7.023438 76.347656 C 7.660156 76.15625 8.53125 75.890625 8.964844 75.757812 C 9.398438 75.628906 9.761719 75.511719 9.777344 75.496094 C 9.796875 75.480469 9.417969 74.113281 9.375 74.054688 C 9.367188 74.039062 5.40625 75.128906 5.359375 75.160156 C 5.339844 75.171875 5.335938 75.207031 5.355469 75.269531 C 5.375 75.316406 5.46875 75.648438 5.574219 76.007812 C 5.800781 76.792969 5.78125 76.730469 5.828125 76.714844 C 5.851562 76.707031 6.386719 76.542969 7.023438 76.347656 Z M 115.230469 72.957031 C 115.417969 72.15625 115.5 71.757812 115.476562 71.738281 C 115.460938 71.726562 114.597656 71.539062 113.554688 71.324219 C 112.515625 71.105469 111.644531 70.921875 111.625 70.914062 C 111.601562 70.90625 111.578125 70.933594 111.570312 70.972656 C 111.5625 71.011719 111.484375 71.347656 111.398438 71.71875 C 111.3125 72.085938 111.246094 72.398438 111.253906 72.402344 C 111.285156 72.433594 115.113281 73.332031 115.132812 73.3125 C 115.144531 73.304688 115.1875 73.140625 115.230469 72.957031 Z M 8.847656 72.34375 L 8.929688 72.324219 L 8.886719 72.160156 C 8.863281 72.074219 8.785156 71.742188 8.714844 71.429688 C 8.644531 71.117188 8.582031 70.855469 8.578125 70.851562 C 8.578125 70.847656 8.117188 70.9375 7.558594 71.054688 C 7 71.171875 6.09375 71.363281 5.542969 71.476562 C 4.992188 71.59375 4.53125 71.695312 4.515625 71.710938 C 4.5 71.722656 4.558594 72.046875 4.652344 72.453125 C 4.738281 72.847656 4.820312 73.199219 4.828125 73.234375 C 4.839844 73.296875 4.917969 73.277344 6.800781 72.832031 C 7.882812 72.574219 8.800781 72.355469 8.847656 72.34375 Z M 116.003906 69.058594 C 116.066406 68.675781 116.117188 68.332031 116.125 68.292969 C 116.132812 68.242188 116.117188 68.21875 116.070312 68.210938 C 116.011719 68.195312 112.378906 67.675781 112.25 67.660156 C 112.195312 67.65625 112.175781 67.71875 112.058594 68.410156 C 111.988281 68.824219 111.933594 69.167969 111.933594 69.167969 C 111.9375 69.171875 112.820312 69.328125 113.894531 69.511719 C 115.628906 69.808594 115.855469 69.84375 115.875 69.800781 C 115.886719 69.773438 115.945312 69.4375 116.003906 69.058594 Z M 6.222656 69.453125 C 7.316406 69.265625 8.214844 69.109375 8.21875 69.101562 C 8.226562 69.097656 8.175781 68.761719 8.109375 68.359375 C 8.019531 67.820312 7.976562 67.621094 7.945312 67.617188 C 7.910156 67.609375 4.308594 68.117188 3.949219 68.179688 C 3.863281 68.195312 3.851562 68.207031 3.863281 68.265625 C 3.871094 68.300781 3.929688 68.664062 3.992188 69.066406 C 4.097656 69.742188 4.113281 69.796875 4.171875 69.796875 C 4.207031 69.796875 5.128906 69.640625 6.222656 69.453125 Z M 4.328125 66.222656 C 5.886719 66.058594 7.515625 65.882812 7.625 65.867188 L 7.75 65.851562 L 7.714844 65.519531 C 7.691406 65.339844 7.660156 65 7.636719 64.765625 L 7.601562 64.34375 L 7.519531 64.339844 C 7.414062 64.339844 3.464844 64.65625 3.453125 64.667969 C 3.449219 64.671875 3.480469 65.023438 3.523438 65.449219 C 3.566406 65.878906 3.601562 66.246094 3.601562 66.265625 C 3.601562 66.289062 3.632812 66.300781 3.671875 66.296875 C 3.710938 66.289062 4.003906 66.257812 4.328125 66.222656 Z M 116.390625 66.269531 C 116.390625 66.246094 116.425781 65.882812 116.46875 65.464844 C 116.511719 65.046875 116.539062 64.695312 116.535156 64.691406 C 116.519531 64.675781 112.859375 64.375 112.6875 64.375 L 112.578125 64.371094 L 112.554688 64.628906 C 112.542969 64.765625 112.507812 65.101562 112.480469 65.375 C 112.449219 65.644531 112.429688 65.875 112.4375 65.882812 C 112.449219 65.898438 116.113281 66.304688 116.292969 66.3125 C 116.359375 66.3125 116.390625 66.300781 116.390625 66.269531 Z M 116.679688 62.640625 C 116.691406 62.566406 116.707031 62.195312 116.71875 61.8125 L 116.738281 61.117188 L 115.632812 61.09375 C 115.023438 61.085938 114.128906 61.066406 113.644531 61.054688 L 112.765625 61.035156 L 112.742188 61.796875 C 112.730469 62.214844 112.722656 62.5625 112.730469 62.570312 C 112.734375 62.574219 113.253906 62.601562 113.878906 62.628906 C 115.261719 62.695312 116.617188 62.761719 116.640625 62.765625 C 116.652344 62.769531 116.671875 62.710938 116.679688 62.640625 Z M 5.597656 62.652344 C 6.597656 62.605469 7.429688 62.558594 7.441406 62.550781 C 7.449219 62.539062 7.449219 62.191406 7.4375 61.78125 L 7.414062 61.035156 L 6.269531 61.054688 C 5.640625 61.066406 4.707031 61.085938 4.191406 61.097656 L 3.253906 61.117188 L 3.277344 61.828125 C 3.289062 62.21875 3.304688 62.585938 3.316406 62.640625 L 3.332031 62.738281 L 3.550781 62.738281 C 3.671875 62.738281 4.59375 62.699219 5.597656 62.652344 Z M 7.410156 58.515625 C 7.425781 57.988281 7.421875 57.765625 7.398438 57.75 C 7.359375 57.726562 3.332031 57.546875 3.3125 57.566406 C 3.300781 57.578125 3.234375 59.167969 3.246094 59.1875 C 3.25 59.195312 5.996094 59.246094 6.75 59.253906 L 7.386719 59.257812 Z M 115.640625 59.207031 L 116.753906 59.1875 L 116.742188 58.9375 C 116.734375 58.800781 116.722656 58.429688 116.710938 58.109375 L 116.691406 57.535156 L 116.613281 57.546875 C 116.566406 57.554688 116.335938 57.566406 116.097656 57.574219 C 115.101562 57.613281 112.769531 57.722656 112.757812 57.734375 C 112.753906 57.738281 112.757812 58.085938 112.769531 58.503906 L 112.792969 59.265625 L 113.660156 59.246094 C 114.136719 59.234375 115.027344 59.21875 115.640625 59.207031 Z M 7.582031 55.3125 C 7.613281 54.964844 7.640625 54.625 7.644531 54.558594 L 7.652344 54.4375 L 5.621094 54.214844 C 4.503906 54.09375 3.585938 54 3.582031 54 C 3.578125 54.003906 3.546875 54.308594 3.511719 54.679688 C 3.476562 55.054688 3.441406 55.421875 3.433594 55.5 L 3.417969 55.636719 L 4.71875 55.742188 C 5.4375 55.800781 6.300781 55.871094 6.636719 55.898438 C 6.976562 55.929688 7.316406 55.949219 7.390625 55.949219 L 7.53125 55.945312 Z M 114.65625 55.773438 C 115.699219 55.691406 116.558594 55.617188 116.5625 55.613281 C 116.570312 55.605469 116.480469 54.605469 116.433594 54.175781 L 116.414062 53.980469 L 116.273438 53.996094 C 116.195312 54.003906 115.3125 54.101562 114.316406 54.207031 C 112.566406 54.398438 112.507812 54.40625 112.519531 54.464844 C 112.527344 54.5 112.558594 54.84375 112.589844 55.226562 C 112.640625 55.855469 112.652344 55.929688 112.699219 55.929688 C 112.730469 55.929688 113.609375 55.859375 114.65625 55.773438 Z M 7.953125 52.082031 C 8 51.753906 8.050781 51.417969 8.066406 51.332031 C 8.085938 51.222656 8.085938 51.175781 8.058594 51.167969 C 7.984375 51.140625 4.082031 50.480469 4.070312 50.488281 C 4.058594 50.5 3.878906 51.621094 3.835938 51.941406 L 3.8125 52.101562 L 4.164062 52.152344 C 5.660156 52.375 7.8125 52.683594 7.835938 52.679688 C 7.851562 52.675781 7.90625 52.40625 7.953125 52.082031 Z M 114.339844 52.339844 C 115.339844 52.195312 116.160156 52.070312 116.167969 52.066406 C 116.175781 52.054688 116.039062 51.101562 115.957031 50.644531 C 115.925781 50.457031 115.914062 50.441406 115.855469 50.453125 C 115.820312 50.460938 114.953125 50.613281 113.933594 50.789062 L 112.074219 51.105469 L 112.089844 51.183594 C 112.097656 51.226562 112.148438 51.570312 112.207031 51.949219 L 112.308594 52.636719 L 112.417969 52.621094 C 112.476562 52.609375 113.34375 52.484375 114.339844 52.339844 Z M 8.441406 49.265625 C 8.457031 49.175781 8.53125 48.84375 8.597656 48.523438 C 8.667969 48.203125 8.71875 47.9375 8.710938 47.929688 C 8.703125 47.925781 7.820312 47.710938 6.746094 47.453125 C 5.476562 47.152344 4.789062 47 4.773438 47.023438 C 4.742188 47.074219 4.421875 48.5625 4.4375 48.578125 C 4.449219 48.589844 8.226562 49.398438 8.382812 49.421875 C 8.394531 49.425781 8.421875 49.355469 8.441406 49.265625 Z M 113.695312 48.949219 C 114.710938 48.734375 115.546875 48.554688 115.554688 48.546875 C 115.5625 48.542969 115.488281 48.175781 115.390625 47.738281 L 115.210938 46.941406 L 114.929688 47.007812 C 114.777344 47.042969 113.925781 47.246094 113.039062 47.457031 C 111.523438 47.816406 111.425781 47.84375 111.441406 47.902344 C 111.453125 47.933594 111.527344 48.273438 111.605469 48.648438 C 111.71875 49.175781 111.765625 49.335938 111.800781 49.335938 C 111.824219 49.335938 112.679688 49.160156 113.695312 48.949219 Z M 9.320312 45.605469 C 9.410156 45.292969 9.5 44.964844 9.527344 44.878906 L 9.574219 44.722656 L 7.644531 44.132812 C 6.582031 43.8125 5.710938 43.550781 5.703125 43.554688 C 5.683594 43.574219 5.269531 45.035156 5.265625 45.085938 C 5.265625 45.121094 5.675781 45.246094 7.167969 45.660156 C 8.214844 45.949219 9.09375 46.183594 9.117188 46.179688 C 9.148438 46.175781 9.210938 45.996094 9.320312 45.605469 Z M 112.875 45.601562 C 113.867188 45.328125 114.691406 45.09375 114.707031 45.082031 C 114.738281 45.054688 114.292969 43.511719 114.253906 43.511719 C 114.230469 43.511719 111.324219 44.386719 110.671875 44.589844 L 110.578125 44.621094 L 110.773438 45.320312 C 110.882812 45.707031 110.976562 46.039062 110.984375 46.058594 C 110.992188 46.082031 111.011719 46.097656 111.03125 46.097656 C 111.050781 46.097656 111.882812 45.875 112.875 45.601562 Z M 10.351562 42.3125 C 10.492188 41.917969 10.601562 41.589844 10.59375 41.585938 C 10.550781 41.542969 6.855469 40.183594 6.835938 40.203125 C 6.8125 40.230469 6.328125 41.582031 6.308594 41.671875 C 6.300781 41.71875 6.558594 41.816406 8.195312 42.382812 C 9.238281 42.742188 10.09375 43.035156 10.09375 43.035156 C 10.097656 43.03125 10.214844 42.707031 10.351562 42.3125 Z M 111.890625 42.289062 C 112.851562 41.957031 113.644531 41.675781 113.660156 41.664062 C 113.683594 41.640625 113.179688 40.191406 113.132812 40.148438 C 113.121094 40.136719 112.304688 40.425781 111.320312 40.796875 C 110.054688 41.273438 109.539062 41.480469 109.542969 41.511719 C 109.550781 41.542969 109.796875 42.234375 110.027344 42.890625 C 110.039062 42.914062 110.0625 42.921875 110.097656 42.910156 C 110.128906 42.898438 110.933594 42.617188 111.890625 42.289062 Z M 11.550781 39.214844 C 11.707031 38.84375 11.824219 38.527344 11.808594 38.515625 C 11.773438 38.480469 8.191406 36.875 8.179688 36.890625 C 8.144531 36.925781 7.546875 38.375 7.5625 38.386719 C 7.601562 38.429688 11.230469 39.925781 11.25 39.910156 C 11.257812 39.898438 11.394531 39.585938 11.550781 39.214844 Z M 110.6875 39.042969 C 111.628906 38.652344 112.402344 38.324219 112.410156 38.316406 C 112.429688 38.296875 111.792969 36.824219 111.761719 36.824219 C 111.734375 36.824219 108.320312 38.351562 108.292969 38.375 C 108.28125 38.386719 108.808594 39.664062 108.863281 39.761719 C 108.871094 39.773438 108.902344 39.78125 108.929688 39.773438 C 108.957031 39.765625 109.75 39.4375 110.6875 39.042969 Z M 12.933594 36.207031 L 13.273438 35.527344 L 13.082031 35.421875 C 12.617188 35.167969 9.769531 33.679688 9.746094 33.679688 C 9.707031 33.679688 8.992188 35.109375 9.019531 35.132812 C 9.046875 35.160156 12.546875 36.882812 12.574219 36.882812 C 12.585938 36.882812 12.746094 36.578125 12.933594 36.207031 Z M 110.28125 35.402344 L 110.964844 35.066406 L 110.835938 34.792969 C 110.585938 34.273438 110.222656 33.585938 110.203125 33.597656 C 110.191406 33.605469 109.445312 33.996094 108.546875 34.464844 C 107.648438 34.9375 106.898438 35.339844 106.875 35.359375 C 106.84375 35.386719 106.90625 35.53125 107.179688 36.074219 L 107.523438 36.753906 L 108.558594 36.246094 C 109.128906 35.964844 109.902344 35.585938 110.28125 35.402344 Z M 14.496094 33.308594 C 14.699219 32.953125 14.863281 32.652344 14.863281 32.640625 C 14.859375 32.628906 14.324219 32.296875 13.675781 31.898438 C 13.023438 31.503906 12.269531 31.042969 11.992188 30.875 L 11.492188 30.570312 L 11.160156 31.128906 C 10.976562 31.4375 10.789062 31.757812 10.742188 31.835938 L 10.660156 31.980469 L 10.882812 32.113281 C 11.523438 32.484375 14.097656 33.957031 14.109375 33.957031 C 14.121094 33.953125 14.292969 33.664062 14.496094 33.308594 Z M 107.625 32.863281 C 108.503906 32.359375 109.238281 31.933594 109.253906 31.921875 C 109.285156 31.890625 109.277344 31.878906 108.835938 31.128906 C 108.632812 30.785156 108.453125 30.503906 108.4375 30.503906 C 108.410156 30.503906 105.285156 32.398438 105.222656 32.449219 C 105.210938 32.460938 105.351562 32.742188 105.542969 33.070312 C 105.980469 33.816406 105.972656 33.808594 106 33.792969 C 106.011719 33.785156 106.742188 33.367188 107.625 32.863281 Z M 16.265625 30.464844 C 16.496094 30.117188 16.664062 29.839844 16.648438 29.824219 C 16.632812 29.808594 15.90625 29.296875 15.035156 28.6875 L 13.449219 27.578125 L 13.394531 27.648438 C 13.234375 27.855469 12.535156 28.910156 12.542969 28.933594 C 12.5625 28.980469 15.820312 31.121094 15.839844 31.097656 C 15.851562 31.085938 16.042969 30.800781 16.265625 30.464844 Z M 105.863281 29.890625 L 107.421875 28.863281 L 107.363281 28.765625 C 107.171875 28.460938 106.511719 27.515625 106.488281 27.515625 C 106.460938 27.515625 103.523438 29.5625 103.441406 29.640625 C 103.394531 29.683594 103.421875 29.734375 103.8125 30.3125 C 104.042969 30.65625 104.246094 30.933594 104.265625 30.929688 C 104.285156 30.925781 105.003906 30.457031 105.863281 29.890625 Z M 18.1875 27.773438 C 18.441406 27.441406 18.640625 27.167969 18.636719 27.164062 C 18.628906 27.160156 18.210938 26.824219 17.703125 26.417969 C 17.191406 26.011719 16.503906 25.464844 16.171875 25.199219 L 15.570312 24.71875 L 15.433594 24.894531 C 14.722656 25.808594 14.574219 26.019531 14.605469 26.050781 C 14.6875 26.132812 17.671875 28.375 17.703125 28.375 C 17.71875 28.375 17.9375 28.105469 18.1875 27.773438 Z M 103.878906 27.050781 L 105.359375 25.933594 L 105.277344 25.824219 C 104.808594 25.199219 104.359375 24.648438 104.328125 24.660156 C 104.234375 24.695312 101.414062 26.972656 101.421875 27.003906 C 101.425781 27.023438 101.628906 27.300781 101.875 27.617188 C 102.152344 27.976562 102.335938 28.191406 102.359375 28.179688 C 102.382812 28.171875 103.066406 27.664062 103.878906 27.050781 Z M 20.285156 25.191406 C 20.550781 24.882812 20.761719 24.625 20.757812 24.617188 C 20.753906 24.609375 20.148438 24.054688 19.410156 23.386719 C 18.675781 22.722656 18.027344 22.132812 17.96875 22.082031 L 17.867188 21.984375 L 17.800781 22.066406 C 17.761719 22.113281 17.519531 22.394531 17.261719 22.691406 L 16.789062 23.234375 L 16.875 23.308594 C 16.921875 23.347656 17.59375 23.921875 18.363281 24.585938 C 19.132812 25.246094 19.773438 25.777344 19.785156 25.765625 C 19.796875 25.753906 20.023438 25.496094 20.285156 25.191406 Z M 101.71875 24.363281 C 102.484375 23.703125 103.109375 23.15625 103.109375 23.144531 C 103.109375 23.125 102.609375 22.539062 102.136719 22.007812 L 102.046875 21.902344 L 100.660156 23.15625 C 99.898438 23.847656 99.273438 24.429688 99.273438 24.445312 C 99.273438 24.511719 100.253906 25.605469 100.289062 25.582031 C 100.308594 25.570312 100.949219 25.019531 101.71875 24.363281 Z M 23.03125 22.214844 C 23.03125 22.203125 22.421875 21.5625 21.675781 20.796875 L 20.320312 19.402344 L 19.757812 19.980469 C 19.449219 20.292969 19.195312 20.566406 19.195312 20.582031 C 19.195312 20.597656 19.824219 21.21875 20.589844 21.964844 L 21.984375 23.324219 L 22.507812 22.78125 C 22.796875 22.480469 23.03125 22.226562 23.03125 22.214844 Z M 99.664062 21.523438 C 100.238281 20.96875 100.707031 20.5 100.707031 20.480469 C 100.707031 20.441406 99.621094 19.347656 99.578125 19.347656 C 99.558594 19.351562 99.125 19.78125 98.609375 20.3125 C 98.09375 20.84375 97.503906 21.445312 97.304688 21.652344 L 96.9375 22.03125 L 97.472656 22.582031 L 98.007812 23.128906 L 98.316406 22.835938 C 98.488281 22.671875 99.09375 22.082031 99.664062 21.523438 Z M 25.007812 20.402344 C 25.261719 20.175781 25.472656 19.980469 25.476562 19.96875 C 25.484375 19.945312 23.015625 17.042969 22.976562 17.027344 C 22.957031 17.023438 21.960938 17.886719 21.835938 18.019531 L 21.746094 18.113281 L 23.046875 19.546875 L 24.347656 20.984375 L 24.449219 20.898438 C 24.507812 20.851562 24.757812 20.628906 25.007812 20.402344 Z M 96.898438 19.394531 L 98.152344 18.007812 L 98.003906 17.875 C 97.65625 17.558594 96.941406 16.945312 96.921875 16.945312 C 96.902344 16.945312 94.738281 19.449219 94.53125 19.714844 L 94.472656 19.789062 L 94.621094 19.914062 C 94.699219 19.984375 94.957031 20.210938 95.1875 20.417969 C 95.417969 20.625 95.613281 20.792969 95.625 20.789062 C 95.632812 20.785156 96.207031 20.160156 96.898438 19.394531 Z M 27.378906 18.40625 C 27.648438 18.195312 27.917969 17.984375 27.972656 17.9375 L 28.078125 17.855469 L 26.925781 16.324219 C 26.292969 15.480469 25.765625 14.792969 25.75 14.789062 C 25.722656 14.789062 24.550781 15.695312 24.496094 15.761719 C 24.46875 15.792969 24.722656 16.132812 25.65625 17.296875 C 26.3125 18.121094 26.859375 18.796875 26.871094 18.796875 C 26.878906 18.796875 27.109375 18.621094 27.378906 18.40625 Z M 94.234375 17.191406 C 94.847656 16.421875 95.371094 15.769531 95.394531 15.742188 C 95.429688 15.699219 95.355469 15.632812 94.800781 15.203125 C 94.453125 14.933594 94.15625 14.707031 94.144531 14.703125 C 94.132812 14.699219 93.960938 14.90625 93.765625 15.164062 C 93.570312 15.425781 93.0625 16.097656 92.640625 16.660156 L 91.867188 17.679688 L 92.449219 18.132812 C 92.769531 18.382812 93.042969 18.597656 93.050781 18.617188 C 93.074219 18.65625 92.949219 18.808594 94.234375 17.191406 Z M 30.148438 16.359375 L 30.78125 15.925781 L 30.480469 15.46875 C 29.445312 13.886719 28.667969 12.726562 28.644531 12.722656 C 28.625 12.722656 27.554688 13.449219 27.351562 13.601562 C 27.300781 13.640625 27.378906 13.761719 28.398438 15.21875 C 29.003906 16.082031 29.503906 16.792969 29.507812 16.792969 C 29.515625 16.792969 29.804688 16.597656 30.148438 16.359375 Z M 91.507812 15.070312 C 92.09375 14.234375 92.566406 13.546875 92.5625 13.542969 C 92.5 13.492188 91.523438 12.824219 91.390625 12.738281 C 91.277344 12.664062 91.203125 12.632812 91.1875 12.652344 C 91.175781 12.667969 90.710938 13.375 90.15625 14.214844 C 89.597656 15.058594 89.148438 15.753906 89.15625 15.761719 C 89.210938 15.816406 90.402344 16.605469 90.421875 16.597656 C 90.433594 16.59375 90.925781 15.90625 91.507812 15.070312 Z M 32.941406 14.558594 C 33.269531 14.359375 33.554688 14.1875 33.566406 14.171875 C 33.582031 14.160156 33.167969 13.402344 32.644531 12.496094 C 31.898438 11.1875 31.6875 10.84375 31.648438 10.859375 C 31.621094 10.871094 31.304688 11.054688 30.945312 11.269531 C 30.46875 11.554688 30.292969 11.671875 30.304688 11.707031 C 30.363281 11.855469 32.277344 14.945312 32.304688 14.933594 C 32.324219 14.925781 32.613281 14.757812 32.941406 14.558594 Z M 88.609375 13.1875 C 89.132812 12.332031 89.5625 11.621094 89.570312 11.609375 C 89.578125 11.597656 89.265625 11.398438 88.882812 11.167969 C 88.253906 10.796875 88.175781 10.753906 88.140625 10.800781 C 88.035156 10.949219 86.308594 13.992188 86.324219 14.007812 C 86.386719 14.070312 87.628906 14.78125 87.644531 14.765625 C 87.65625 14.753906 88.089844 14.042969 88.609375 13.1875 Z M 35.867188 12.925781 C 36.230469 12.734375 36.511719 12.570312 36.507812 12.550781 C 36.503906 12.53125 36.125 11.753906 35.667969 10.832031 C 34.917969 9.308594 34.832031 9.152344 34.777344 9.167969 C 34.628906 9.214844 33.386719 9.886719 33.394531 9.917969 C 33.402344 9.945312 34.710938 12.445312 35.027344 13.027344 C 35.101562 13.167969 35.175781 13.277344 35.191406 13.273438 C 35.203125 13.269531 35.507812 13.109375 35.867188 12.925781 Z M 85.601562 11.472656 C 86.082031 10.5625 86.464844 9.816406 86.460938 9.808594 C 86.4375 9.789062 85.347656 9.222656 85.171875 9.144531 L 85.003906 9.066406 L 84.175781 10.746094 C 83.722656 11.667969 83.355469 12.425781 83.363281 12.429688 C 83.386719 12.449219 84.699219 13.125 84.714844 13.125 C 84.726562 13.125 85.125 12.382812 85.601562 11.472656 Z M 38.886719 11.480469 C 39.253906 11.320312 39.546875 11.171875 39.542969 11.152344 C 39.535156 11.117188 38.113281 7.691406 38.097656 7.671875 C 38.09375 7.667969 37.75 7.808594 37.339844 7.984375 C 36.855469 8.195312 36.59375 8.324219 36.601562 8.351562 C 36.609375 8.382812 37.707031 10.839844 38.035156 11.5625 C 38.109375 11.71875 38.160156 11.800781 38.1875 11.789062 C 38.207031 11.78125 38.523438 11.640625 38.886719 11.480469 Z M 82.503906 9.949219 C 82.917969 9.027344 83.246094 8.261719 83.234375 8.246094 C 83.1875 8.195312 81.773438 7.609375 81.75 7.628906 C 81.726562 7.652344 80.351562 10.9375 80.332031 11.019531 C 80.324219 11.042969 80.5625 11.164062 80.957031 11.332031 C 81.304688 11.484375 81.617188 11.621094 81.648438 11.640625 C 81.679688 11.65625 81.71875 11.664062 81.726562 11.652344 C 81.738281 11.640625 82.089844 10.875 82.503906 9.949219 Z M 41.945312 10.25 C 42.332031 10.109375 42.648438 9.984375 42.648438 9.964844 C 42.652344 9.882812 41.429688 6.40625 41.398438 6.40625 C 41.347656 6.40625 39.925781 6.925781 39.898438 6.953125 C 39.886719 6.96875 40.140625 7.675781 40.460938 8.53125 C 41.226562 10.574219 41.203125 10.503906 41.222656 10.503906 C 41.234375 10.503906 41.558594 10.390625 41.945312 10.25 Z M 79.289062 8.65625 C 79.644531 7.714844 79.933594 6.929688 79.933594 6.914062 C 79.933594 6.882812 78.503906 6.34375 78.425781 6.34375 C 78.414062 6.34375 78.359375 6.464844 78.308594 6.613281 C 78.257812 6.761719 77.984375 7.554688 77.703125 8.375 C 77.421875 9.195312 77.191406 9.867188 77.199219 9.871094 C 77.203125 9.878906 77.503906 9.988281 77.871094 10.117188 C 78.234375 10.246094 78.539062 10.359375 78.546875 10.367188 C 78.609375 10.433594 78.703125 10.210938 79.289062 8.65625 Z M 45.128906 9.195312 C 45.5 9.085938 45.816406 8.992188 45.824219 8.988281 C 45.84375 8.980469 44.859375 5.375 44.832031 5.34375 C 44.820312 5.335938 44.773438 5.339844 44.726562 5.355469 C 44.675781 5.375 44.335938 5.472656 43.972656 5.578125 C 43.609375 5.683594 43.296875 5.777344 43.285156 5.792969 C 43.269531 5.804688 43.503906 6.628906 43.808594 7.621094 C 44.246094 9.058594 44.367188 9.421875 44.402344 9.410156 C 44.429688 9.402344 44.753906 9.304688 45.128906 9.195312 Z M 76.023438 7.523438 L 76.566406 5.746094 L 76.472656 5.710938 C 76.214844 5.621094 75.003906 5.289062 74.988281 5.304688 C 74.96875 5.324219 73.984375 8.878906 73.996094 8.886719 C 74 8.890625 74.253906 8.964844 74.558594 9.054688 C 74.863281 9.140625 75.175781 9.230469 75.25 9.253906 C 75.328125 9.28125 75.410156 9.300781 75.4375 9.300781 C 75.472656 9.304688 75.617188 8.859375 76.023438 7.523438 Z M 48.371094 8.34375 C 48.800781 8.246094 49.078125 8.171875 49.070312 8.148438 C 49.066406 8.132812 48.890625 7.304688 48.683594 6.3125 C 48.480469 5.324219 48.304688 4.503906 48.296875 4.496094 C 48.285156 4.484375 47.257812 4.703125 46.898438 4.796875 L 46.695312 4.851562 L 47.132812 6.683594 C 47.375 7.691406 47.574219 8.523438 47.574219 8.527344 C 47.578125 8.535156 47.597656 8.53125 47.621094 8.523438 C 47.644531 8.515625 47.984375 8.433594 48.371094 8.34375 Z M 72.277344 8.371094 C 72.550781 7.257812 73.117188 4.820312 73.105469 4.808594 C 73.097656 4.796875 72.742188 4.714844 72.316406 4.617188 C 71.625 4.460938 71.535156 4.449219 71.515625 4.492188 C 71.492188 4.539062 70.753906 8.054688 70.753906 8.109375 C 70.753906 8.121094 70.785156 8.132812 70.820312 8.132812 C 70.859375 8.136719 71.183594 8.203125 71.539062 8.285156 C 71.894531 8.367188 72.203125 8.4375 72.222656 8.4375 C 72.242188 8.4375 72.269531 8.410156 72.277344 8.371094 Z M 51.628906 7.710938 C 52.019531 7.648438 52.34375 7.59375 52.347656 7.589844 C 52.359375 7.582031 51.832031 3.871094 51.816406 3.855469 C 51.8125 3.851562 51.507812 3.898438 51.136719 3.957031 C 50.761719 4.019531 50.398438 4.074219 50.328125 4.085938 C 50.203125 4.101562 50.195312 4.109375 50.210938 4.183594 C 50.21875 4.230469 50.359375 5.046875 50.523438 6.007812 C 50.683594 6.964844 50.824219 7.765625 50.832031 7.785156 C 50.847656 7.839844 50.828125 7.839844 51.628906 7.710938 Z M 69.300781 5.925781 C 69.472656 4.914062 69.609375 4.085938 69.605469 4.082031 C 69.601562 4.074219 69.261719 4.023438 68.855469 3.960938 C 68.449219 3.898438 68.089844 3.839844 68.054688 3.832031 C 67.992188 3.820312 67.980469 3.886719 67.722656 5.671875 C 67.574219 6.691406 67.457031 7.53125 67.460938 7.535156 C 67.476562 7.546875 68.800781 7.753906 68.890625 7.757812 L 68.984375 7.761719 Z M 55.015625 7.269531 C 55.371094 7.234375 55.664062 7.203125 55.667969 7.199219 C 55.679688 7.1875 55.375 3.46875 55.359375 3.457031 C 55.34375 3.441406 53.769531 3.597656 53.75 3.617188 C 53.738281 3.628906 54.089844 6.988281 54.128906 7.25 C 54.148438 7.363281 54.148438 7.367188 54.261719 7.347656 C 54.324219 7.339844 54.664062 7.304688 55.015625 7.269531 Z M 65.882812 5.433594 C 65.984375 4.480469 66.066406 3.675781 66.066406 3.644531 C 66.066406 3.585938 66.023438 3.578125 65.320312 3.511719 C 64.910156 3.476562 64.542969 3.441406 64.503906 3.4375 C 64.464844 3.429688 64.433594 3.425781 64.433594 3.429688 C 64.304688 4.960938 64.132812 7.164062 64.140625 7.167969 C 64.144531 7.175781 64.488281 7.210938 64.898438 7.246094 L 65.652344 7.316406 L 65.675781 7.238281 C 65.6875 7.195312 65.78125 6.382812 65.882812 5.433594 Z M 58.882812 7.035156 L 59.019531 7.019531 L 59 6.320312 C 58.988281 5.933594 58.972656 5.089844 58.960938 4.4375 L 58.941406 3.253906 L 58.183594 3.277344 C 57.765625 3.289062 57.390625 3.304688 57.355469 3.316406 C 57.289062 3.332031 57.285156 3.34375 57.300781 3.519531 C 57.308594 3.625 57.34375 4.398438 57.378906 5.234375 C 57.414062 6.074219 57.449219 6.835938 57.457031 6.921875 L 57.476562 7.085938 L 58.113281 7.070312 C 58.460938 7.058594 58.808594 7.042969 58.882812 7.035156 Z M 62.34375 7.078125 C 62.351562 7.058594 62.519531 3.3125 62.515625 3.304688 C 62.511719 3.300781 62.140625 3.285156 61.695312 3.273438 C 61.160156 3.257812 60.878906 3.257812 60.875 3.277344 C 60.859375 3.324219 60.796875 7 60.808594 7.011719 C 60.8125 7.019531 61.144531 7.035156 61.539062 7.050781 C 61.9375 7.0625 62.28125 7.078125 62.300781 7.078125 C 62.320312 7.082031 62.339844 7.082031 62.34375 7.078125 Z M 62.34375 7.078125 "/>
<path style=" stroke:none;fill-rule:nonzero;fill:rgb(10.196078%,10.196078%,10.196078%);fill-opacity:1;" d="M 58.996094 105.292969 C 56.570312 105.183594 53.820312 104.820312 51.03125 104.246094 C 50.210938 104.078125 48.953125 103.785156 48.921875 103.757812 C 48.910156 103.742188 48.953125 103.628906 49.023438 103.503906 C 49.226562 103.132812 49.414062 102.640625 49.550781 102.128906 C 49.578125 102.023438 49.59375 102 49.636719 102.015625 C 49.667969 102.023438 49.960938 102.085938 50.292969 102.152344 C 52.261719 102.550781 54.304688 102.824219 56.359375 102.960938 C 57.164062 103.015625 60.726562 103.015625 61.628906 102.960938 C 63.984375 102.824219 65.511719 102.660156 67.160156 102.367188 C 68.132812 102.195312 69.585938 101.871094 70.246094 101.679688 C 70.394531 101.636719 70.535156 101.597656 70.550781 101.597656 C 70.570312 101.597656 70.609375 101.734375 70.640625 101.898438 C 70.75 102.488281 71.074219 103.320312 71.382812 103.800781 C 71.445312 103.898438 71.488281 103.984375 71.480469 103.996094 C 71.449219 104.023438 70.097656 104.308594 69.242188 104.464844 C 65.507812 105.140625 61.949219 105.429688 58.996094 105.292969 Z M 75.789062 104.277344 C 74.011719 104.003906 72.730469 102.4375 72.828125 100.660156 C 72.910156 99.128906 73.941406 97.882812 75.464844 97.476562 C 75.726562 97.40625 75.820312 97.398438 76.285156 97.398438 C 76.75 97.398438 76.839844 97.40625 77.101562 97.476562 C 77.664062 97.628906 78.148438 97.878906 78.542969 98.21875 C 79.09375 98.695312 79.453125 99.285156 79.652344 100.027344 C 79.722656 100.289062 79.730469 100.378906 79.730469 100.84375 C 79.730469 101.308594 79.722656 101.402344 79.652344 101.664062 C 79.300781 102.964844 78.390625 103.878906 77.101562 104.207031 C 76.769531 104.292969 76.113281 104.328125 75.789062 104.277344 Z M 43.285156 104.234375 C 41.945312 103.980469 40.886719 102.992188 40.527344 101.667969 C 40.457031 101.398438 40.449219 101.316406 40.449219 100.8125 C 40.449219 100.308594 40.457031 100.230469 40.53125 99.949219 C 40.640625 99.535156 40.925781 98.972656 41.183594 98.648438 C 41.648438 98.070312 42.304688 97.644531 43.039062 97.449219 C 43.3125 97.375 43.394531 97.367188 43.894531 97.367188 C 44.398438 97.367188 44.480469 97.375 44.75 97.449219 C 45.484375 97.644531 46.144531 98.070312 46.605469 98.648438 C 46.867188 98.972656 47.148438 99.535156 47.261719 99.949219 C 47.335938 100.230469 47.34375 100.308594 47.34375 100.8125 C 47.34375 101.316406 47.335938 101.394531 47.261719 101.675781 C 47.148438 102.089844 46.867188 102.652344 46.605469 102.980469 C 46.140625 103.558594 45.476562 103.988281 44.75 104.175781 C 44.367188 104.277344 43.660156 104.304688 43.285156 104.234375 Z M 82.03125 99.921875 C 82.03125 99.855469 81.921875 99.371094 81.859375 99.15625 C 81.695312 98.605469 81.460938 98.097656 81.121094 97.578125 L 80.960938 97.328125 L 81.578125 96.960938 C 83.707031 95.691406 86.1875 93.835938 88.253906 91.972656 C 92.25 88.363281 95.972656 83.492188 98.382812 78.726562 C 100.058594 75.40625 101.375 71.652344 102.109375 68.101562 C 102.503906 66.1875 102.707031 64.609375 102.867188 62.183594 C 102.921875 61.367188 102.925781 57.636719 102.871094 56.855469 C 102.785156 55.617188 102.652344 54.183594 102.601562 53.964844 C 102.585938 53.910156 102.601562 53.894531 102.6875 53.882812 C 103.488281 53.769531 103.910156 53.671875 104.335938 53.5 L 104.496094 53.433594 L 104.511719 53.503906 C 104.539062 53.632812 104.648438 54.464844 104.710938 55.003906 C 105.132812 58.765625 105.117188 62.859375 104.664062 66.375 C 104.039062 71.234375 102.363281 76.710938 100.105469 81.277344 C 98.738281 84.042969 97.269531 86.222656 94.710938 89.289062 C 91.765625 92.820312 89.355469 95.039062 85.828125 97.464844 C 84.71875 98.226562 82.03125 99.96875 82.03125 99.921875 Z M 37.871094 99.171875 C 35.753906 97.855469 33.441406 96.175781 31.335938 94.421875 C 29.515625 92.902344 27.257812 90.691406 25.777344 88.964844 C 21.332031 83.796875 17.84375 76.949219 16.125 70.027344 C 15.324219 66.800781 14.933594 63.519531 14.890625 59.6875 C 14.863281 57.371094 14.972656 55.238281 15.207031 53.433594 C 15.230469 53.238281 15.25 53.070312 15.25 53.058594 C 15.25 53.042969 15.339844 53.082031 15.445312 53.140625 C 15.910156 53.394531 16.613281 53.628906 17.199219 53.726562 C 17.382812 53.757812 17.53125 53.792969 17.53125 53.8125 C 17.53125 53.828125 17.503906 54.003906 17.472656 54.199219 C 17.011719 56.894531 16.859375 60.847656 17.085938 64.003906 C 17.4375 68.878906 18.757812 73.996094 20.867188 78.65625 C 22.65625 82.609375 25.238281 86.4375 28.457031 89.890625 C 31.242188 92.878906 34.878906 95.738281 38.472656 97.761719 C 38.675781 97.878906 38.847656 97.976562 38.851562 97.980469 C 38.855469 97.984375 38.820312 98.070312 38.765625 98.175781 C 38.632812 98.4375 38.492188 98.792969 38.394531 99.117188 C 38.347656 99.269531 38.296875 99.398438 38.285156 99.402344 C 38.269531 99.40625 38.082031 99.304688 37.871094 99.171875 Z M 39.769531 96.695312 C 39.761719 96.671875 39.683594 96.308594 39.597656 95.890625 C 38.589844 91.027344 36.230469 84.089844 33.671875 78.457031 C 30.386719 71.226562 24.988281 62.246094 19.800781 55.375 C 19.460938 54.925781 19.058594 54.394531 18.898438 54.199219 C 18.695312 53.941406 18.625 53.832031 18.652344 53.8125 C 18.671875 53.796875 18.84375 53.757812 19.039062 53.730469 C 21.171875 53.398438 22.953125 51.875 23.632812 49.796875 C 23.703125 49.582031 23.726562 49.535156 23.777344 49.539062 C 23.808594 49.542969 30.144531 51.34375 37.855469 53.542969 C 45.566406 55.738281 52.515625 57.714844 53.292969 57.9375 C 54.074219 58.160156 54.722656 58.351562 54.738281 58.363281 C 54.78125 58.402344 54.523438 59.027344 54.472656 59.019531 C 54.445312 59.011719 52.085938 58.335938 49.222656 57.515625 C 46.359375 56.691406 43.222656 55.789062 42.246094 55.507812 C 38.683594 54.484375 35.515625 53.574219 34.433594 53.265625 C 33.824219 53.089844 31.265625 52.355469 28.75 51.632812 C 26.230469 50.910156 24.132812 50.304688 24.085938 50.289062 C 23.984375 50.253906 23.976562 50.246094 24.265625 50.628906 C 27.390625 54.78125 31.238281 60.546875 33.925781 65.113281 C 36.515625 69.507812 38.667969 73.855469 40.734375 78.871094 C 41.632812 81.046875 42.925781 84.453125 43.171875 85.289062 C 43.195312 85.363281 43.21875 85.421875 43.230469 85.417969 C 43.238281 85.417969 43.363281 85.0625 43.507812 84.625 C 44.734375 80.847656 46.484375 76.515625 48 73.480469 C 49.257812 70.96875 51.023438 67.878906 52.828125 65.035156 C 53.410156 64.113281 54.484375 62.492188 54.507812 62.492188 C 54.519531 62.496094 54.59375 62.664062 54.671875 62.871094 C 55.394531 64.742188 57.113281 66.125 59.117188 66.457031 C 59.289062 66.484375 59.429688 66.511719 59.4375 66.515625 C 59.441406 66.519531 59.328125 66.699219 59.1875 66.917969 C 56.730469 70.691406 54.046875 75.558594 52.285156 79.425781 C 49.949219 84.566406 48.347656 89.765625 47.457031 95.128906 C 47.386719 95.542969 47.324219 95.925781 47.316406 95.980469 L 47.296875 96.082031 L 47.089844 95.949219 C 46.582031 95.617188 46.054688 95.378906 45.484375 95.222656 C 44.898438 95.054688 44.632812 95.023438 43.925781 95.023438 C 43.214844 95.023438 42.957031 95.054688 42.363281 95.222656 C 41.5 95.464844 40.75 95.878906 40.03125 96.515625 C 39.875 96.652344 39.777344 96.71875 39.769531 96.695312 Z M 80.074219 96.386719 C 79.386719 95.792969 78.414062 95.3125 77.519531 95.128906 C 75.988281 94.808594 74.320312 95.132812 73.0625 96 C 72.902344 96.109375 72.765625 96.199219 72.761719 96.191406 C 72.753906 96.1875 72.683594 95.78125 72.601562 95.292969 C 71.496094 88.734375 69.464844 82.71875 66.214844 76.359375 C 64.609375 73.222656 62.570312 69.679688 60.84375 67.03125 C 60.503906 66.515625 60.5 66.53125 60.96875 66.457031 C 62.9375 66.132812 64.621094 64.800781 65.378906 62.960938 C 65.453125 62.78125 65.519531 62.628906 65.527344 62.621094 C 65.542969 62.609375 66.230469 63.636719 66.84375 64.589844 C 68.78125 67.597656 70.703125 70.933594 72.054688 73.632812 C 73.570312 76.667969 75.320312 81.003906 76.550781 84.78125 C 76.691406 85.214844 76.816406 85.574219 76.824219 85.574219 C 76.835938 85.574219 76.863281 85.515625 76.882812 85.445312 C 76.957031 85.195312 77.449219 83.828125 77.816406 82.847656 C 79.75 77.695312 82.03125 72.648438 84.351562 68.394531 C 87.261719 63.058594 91.78125 56.117188 95.984375 50.523438 C 96.175781 50.269531 96.324219 50.058594 96.320312 50.050781 C 96.304688 50.039062 70.453125 57.480469 65.949219 58.796875 C 65.71875 58.863281 65.53125 58.914062 65.527344 58.910156 C 65.488281 58.847656 65.277344 58.269531 65.292969 58.257812 C 65.304688 58.253906 72.320312 56.25 80.890625 53.804688 C 89.457031 51.363281 96.488281 49.34375 96.515625 49.316406 C 96.5625 49.277344 96.574219 49.300781 96.652344 49.605469 C 96.828125 50.265625 97.171875 50.992188 97.5625 51.519531 C 98.453125 52.722656 99.660156 53.484375 101.144531 53.785156 C 101.347656 53.828125 101.519531 53.867188 101.523438 53.871094 C 101.527344 53.875 101.394531 54.054688 101.226562 54.265625 C 100.246094 55.492188 98.546875 57.8125 97.332031 59.582031 C 93.488281 65.167969 89.589844 71.835938 87.085938 77.101562 C 84.230469 83.097656 81.667969 90.402344 80.492188 95.871094 C 80.410156 96.261719 80.335938 96.585938 80.332031 96.589844 C 80.324219 96.59375 80.210938 96.503906 80.074219 96.386719 Z M 59.425781 64.125 C 57.648438 63.847656 56.367188 62.285156 56.464844 60.503906 C 56.546875 58.976562 57.578125 57.730469 59.101562 57.324219 C 59.363281 57.253906 59.457031 57.242188 59.921875 57.242188 C 60.386719 57.242188 60.476562 57.253906 60.738281 57.324219 C 62.039062 57.671875 62.9375 58.570312 63.289062 59.871094 C 63.355469 60.132812 63.367188 60.226562 63.367188 60.691406 C 63.367188 61.15625 63.355469 61.246094 63.289062 61.507812 C 62.9375 62.808594 62.023438 63.722656 60.738281 64.054688 C 60.40625 64.140625 59.75 64.175781 59.425781 64.125 Z M 51.816406 45.878906 C 47.140625 37.011719 46.574219 35.957031 46.515625 35.96875 C 46.480469 35.976562 44.90625 36.648438 43.015625 37.460938 C 41.128906 38.277344 36.890625 40.101562 33.601562 41.515625 C 30.3125 42.929688 26.714844 44.480469 25.605469 44.957031 C 24.496094 45.4375 23.566406 45.835938 23.539062 45.84375 C 23.507812 45.851562 23.457031 45.773438 23.363281 45.570312 C 23.292969 45.414062 23.238281 45.285156 23.242188 45.277344 C 23.246094 45.273438 33.238281 40.972656 33.972656 40.660156 C 34.140625 40.589844 35.8125 39.871094 37.6875 39.0625 C 39.558594 38.257812 42.242188 37.105469 43.648438 36.5 C 45.054688 35.894531 46.21875 35.390625 46.234375 35.375 C 46.25 35.359375 45.070312 33.089844 43.445312 30.011719 C 41.253906 25.855469 40.621094 24.679688 40.585938 24.695312 C 39.5625 25.050781 39.097656 25.113281 38.339844 25.003906 C 37.8125 24.925781 37.328125 24.753906 36.867188 24.480469 C 36.632812 24.339844 36.621094 24.339844 36.578125 24.394531 C 36.550781 24.429688 33.210938 28.746094 29.152344 33.992188 L 21.773438 43.53125 L 21.519531 43.34375 C 21.378906 43.242188 21.269531 43.148438 21.277344 43.136719 C 21.285156 43.125 24.632812 38.800781 28.71875 33.523438 L 36.144531 23.933594 L 35.949219 23.722656 C 35.582031 23.324219 35.292969 22.824219 35.113281 22.277344 C 34.730469 21.097656 34.910156 19.847656 35.613281 18.785156 C 35.800781 18.5 36.375 17.925781 36.660156 17.738281 C 36.988281 17.519531 37.324219 17.355469 37.6875 17.242188 C 38.867188 16.859375 40.117188 17.035156 41.179688 17.738281 C 41.460938 17.925781 42.035156 18.5 42.222656 18.785156 C 42.527344 19.242188 42.796875 19.890625 42.847656 20.292969 C 42.859375 20.378906 42.878906 20.464844 42.890625 20.480469 C 42.902344 20.496094 48.453125 20.492188 56.871094 20.46875 C 64.546875 20.449219 72.222656 20.425781 73.925781 20.421875 L 77.019531 20.414062 L 77.0625 20.210938 C 77.15625 19.730469 77.378906 19.203125 77.675781 18.753906 C 77.863281 18.46875 78.4375 17.894531 78.722656 17.707031 C 79.054688 17.488281 79.390625 17.328125 79.75 17.210938 C 80.929688 16.828125 82.179688 17.007812 83.242188 17.707031 C 83.527344 17.894531 84.101562 18.46875 84.289062 18.753906 C 84.738281 19.429688 84.988281 20.246094 84.988281 21.015625 C 84.988281 21.972656 84.597656 22.988281 83.960938 23.683594 C 83.785156 23.875 83.777344 23.890625 83.820312 23.957031 C 83.84375 23.996094 87.261719 28.363281 91.414062 33.660156 C 95.566406 38.960938 98.96875 43.308594 98.96875 43.320312 C 98.972656 43.332031 98.863281 43.425781 98.722656 43.53125 C 98.53125 43.675781 98.464844 43.714844 98.4375 43.683594 C 98.417969 43.664062 95.019531 39.320312 90.890625 34.035156 C 86.761719 28.746094 83.355469 24.394531 83.328125 24.363281 C 83.277344 24.308594 83.265625 24.3125 83.03125 24.453125 C 82.574219 24.722656 82.089844 24.894531 81.5625 24.972656 C 80.929688 25.066406 80.335938 25.011719 79.707031 24.800781 C 79.503906 24.734375 79.335938 24.6875 79.328125 24.695312 C 79.304688 24.714844 73.617188 35.324219 73.609375 35.355469 C 73.605469 35.367188 76.617188 36.683594 80.304688 38.273438 C 90.207031 42.554688 96.910156 45.449219 96.988281 45.484375 L 97.058594 45.519531 L 96.9375 45.804688 L 96.8125 46.09375 L 96.71875 46.050781 C 96.664062 46.027344 94.578125 45.128906 92.078125 44.054688 C 89.578125 42.976562 85.257812 41.117188 82.476562 39.917969 C 79.699219 38.722656 76.570312 37.375 75.527344 36.925781 C 74.484375 36.476562 73.558594 36.074219 73.464844 36.035156 C 73.375 35.992188 73.289062 35.96875 73.277344 35.980469 C 73.261719 35.996094 70.886719 40.414062 67.996094 45.804688 C 65.105469 51.195312 62.730469 55.605469 62.714844 55.605469 C 62.675781 55.605469 62.214844 55.394531 62.214844 55.375 C 62.214844 55.367188 64.574219 50.941406 67.453125 45.546875 C 70.335938 40.148438 72.691406 35.726562 72.691406 35.714844 C 72.691406 35.6875 59.988281 30.214844 59.921875 30.214844 C 59.855469 30.214844 47.179688 35.65625 47.179688 35.683594 C 47.175781 35.695312 57.074219 54.421875 57.515625 55.234375 L 57.648438 55.484375 L 57.347656 55.640625 L 57.050781 55.800781 Z M 75.882812 29.761719 C 77.460938 26.808594 78.753906 24.382812 78.757812 24.371094 C 78.761719 24.359375 78.699219 24.300781 78.621094 24.246094 C 78.402344 24.09375 77.984375 23.683594 77.796875 23.433594 C 77.707031 23.316406 77.566406 23.101562 77.484375 22.960938 C 77.378906 22.773438 77.324219 22.707031 77.289062 22.71875 C 77.261719 22.726562 74.5 23.910156 71.152344 25.351562 C 67.804688 26.792969 64.109375 28.382812 62.941406 28.886719 C 61.769531 29.390625 60.800781 29.8125 60.789062 29.824219 C 60.773438 29.839844 60.800781 29.863281 60.851562 29.882812 C 60.898438 29.898438 61.5 30.15625 62.183594 30.453125 C 63.964844 31.222656 68.734375 33.28125 69.734375 33.710938 C 70.203125 33.914062 71.125 34.3125 71.785156 34.601562 C 72.445312 34.886719 72.992188 35.125 73 35.125 C 73.011719 35.125 74.308594 32.714844 75.882812 29.761719 Z M 52.984375 32.488281 C 56.324219 31.054688 59.066406 29.871094 59.082031 29.859375 C 59.097656 29.84375 42.941406 22.847656 42.609375 22.722656 C 42.585938 22.714844 42.519531 22.800781 42.429688 22.960938 C 42.355469 23.097656 42.214844 23.316406 42.121094 23.445312 C 41.929688 23.699219 41.496094 24.132812 41.296875 24.265625 L 41.171875 24.347656 L 41.363281 24.710938 C 45.257812 32.082031 46.859375 35.09375 46.882812 35.097656 C 46.898438 35.097656 49.644531 33.921875 52.984375 32.488281 Z M 68.5625 25.789062 C 73.265625 23.769531 77.117188 22.113281 77.121094 22.109375 C 77.125 22.109375 77.105469 22.023438 77.082031 21.921875 C 77.058594 21.820312 77.023438 21.601562 77.003906 21.4375 L 76.96875 21.136719 L 68.179688 21.136719 C 63.34375 21.136719 55.6875 21.128906 51.164062 21.117188 L 42.933594 21.097656 L 42.910156 21.339844 C 42.898438 21.472656 42.871094 21.691406 42.84375 21.824219 C 42.820312 21.957031 42.804688 22.074219 42.8125 22.082031 C 42.851562 22.121094 59.929688 29.480469 59.964844 29.476562 C 59.992188 29.46875 63.859375 27.8125 68.5625 25.789062 Z M 39.613281 24.664062 C 40.367188 24.507812 40.949219 24.195312 41.5 23.652344 C 42.230469 22.933594 42.597656 22.054688 42.597656 21.042969 C 42.597656 20.035156 42.230469 19.15625 41.5 18.433594 C 40.773438 17.71875 39.917969 17.363281 38.917969 17.363281 C 37.917969 17.363281 37.0625 17.71875 36.335938 18.433594 C 35.609375 19.15625 35.238281 20.035156 35.238281 21.042969 C 35.238281 22.035156 35.589844 22.894531 36.292969 23.613281 C 36.894531 24.222656 37.535156 24.550781 38.410156 24.699219 C 38.714844 24.75 39.277344 24.734375 39.613281 24.664062 Z M 38.417969 23.800781 C 37.050781 23.542969 36.078125 22.308594 36.15625 20.9375 C 36.226562 19.695312 37.074219 18.675781 38.292969 18.375 C 38.582031 18.300781 39.257812 18.300781 39.542969 18.375 C 40.417969 18.589844 41.136719 19.199219 41.472656 20.007812 C 41.632812 20.390625 41.671875 20.613281 41.671875 21.074219 C 41.671875 21.363281 41.65625 21.554688 41.621094 21.703125 C 41.367188 22.714844 40.601562 23.5 39.601562 23.761719 C 39.285156 23.84375 38.734375 23.863281 38.417969 23.800781 Z M 81.675781 24.636719 C 82.429688 24.476562 83.015625 24.164062 83.5625 23.625 C 84.292969 22.902344 84.664062 22.023438 84.664062 21.015625 C 84.664062 20.003906 84.292969 19.125 83.5625 18.40625 C 82.835938 17.6875 81.984375 17.332031 80.984375 17.332031 C 79.984375 17.332031 79.128906 17.6875 78.402344 18.40625 C 77.671875 19.125 77.300781 20.003906 77.300781 21.015625 C 77.300781 22.003906 77.65625 22.863281 78.359375 23.582031 C 78.957031 24.191406 79.597656 24.519531 80.476562 24.667969 C 80.78125 24.71875 81.34375 24.703125 81.675781 24.636719 Z M 80.480469 23.769531 C 79.117188 23.511719 78.140625 22.277344 78.21875 20.90625 C 78.289062 19.664062 79.140625 18.644531 80.355469 18.34375 C 80.644531 18.269531 81.320312 18.269531 81.609375 18.34375 C 82.640625 18.597656 83.429688 19.386719 83.683594 20.417969 C 83.757812 20.707031 83.757812 21.382812 83.683594 21.671875 C 83.433594 22.683594 82.664062 23.46875 81.667969 23.730469 C 81.351562 23.8125 80.800781 23.832031 80.480469 23.769531 Z M 17.640625 51.519531 C 15.859375 51.242188 14.578125 49.679688 14.675781 47.902344 C 14.757812 46.371094 15.789062 45.125 17.3125 44.71875 C 17.574219 44.648438 17.667969 44.640625 18.132812 44.640625 C 18.597656 44.640625 18.691406 44.648438 18.953125 44.71875 C 20.253906 45.066406 21.152344 45.964844 21.5 47.265625 C 21.570312 47.527344 21.578125 47.621094 21.578125 48.085938 C 21.578125 48.550781 21.570312 48.644531 21.5 48.90625 C 21.152344 50.207031 20.238281 51.121094 18.953125 51.449219 C 18.617188 51.535156 17.964844 51.570312 17.640625 51.519531 Z M 101.769531 51.460938 C 99.988281 51.183594 98.710938 49.621094 98.804688 47.839844 C 98.886719 46.3125 99.921875 45.066406 101.441406 44.65625 C 101.703125 44.585938 101.796875 44.578125 102.261719 44.578125 C 102.726562 44.578125 102.820312 44.585938 103.082031 44.65625 C 104.382812 45.003906 105.28125 45.90625 105.628906 47.207031 C 105.699219 47.46875 105.707031 47.558594 105.707031 48.023438 C 105.707031 48.488281 105.699219 48.582031 105.628906 48.84375 C 105.28125 50.144531 104.367188 51.058594 103.082031 51.390625 C 102.746094 51.476562 102.09375 51.511719 101.769531 51.460938 Z M 101.769531 51.460938 "/>
</g>
</svg>
