<svg id="Laag_1" xmlns="http://www.w3.org/2000/svg" viewBox="0 0 1984.3 1984.3" width="2000" height="2000"><style>.st0{fill:#ffd512}</style><title>xpm</title><path id="Laag_2" class="st0" d="M992.2 0C444.2 0 0 444.2 0 992.2s444.2 992.2 992.2 992.2 992.2-444.2 992.2-992.2S1540.1 0 992.2 0zM1456 990.2c0 257.2-198.4 344.6-365.9 344.6v67h129.2v90.8h-129V1597H888.6v-104.4H765.1v-90.8h123.6v-67.9c-53.5 0-359.9-12.8-359.9-362.5v-421h199.9v437.4c0 182.4 160.4 180.8 160.4 180.8V550.4h201.2v617.9s165.4 9.4 165.4-183.3V550.4H1456v439.8z"/></svg>
