<svg width="120" height="120" xmlns="http://www.w3.org/2000/svg" xmlns:xlink="http://www.w3.org/1999/xlink">
 <metadata id="metadata4259">image/svg+xml</metadata>
 <defs>
  <clipPath id="clipPath16" clipPathUnits="userSpaceOnUse">
   <path id="path18" d="m0,0l275.05,0l0,269.777l-275.05,0l0,-269.777z"/>
  </clipPath>
  <circle id="SVGID_1_" cx="618" cy="618" r="585.6"/>
  <linearGradient id="linearGradient4761">
   <stop stop-color="#1a1a1a" id="stop4763" offset="0"/>
   <stop stop-color="#1a1a1a" stop-opacity="0" id="stop4765" offset="1"/>
  </linearGradient>
  <linearGradient y2="-0.047903" x2="-0.189" y1="1.355612" x1="3.009623" id="linearGradient4769" xlink:href="#linearGradient4761"/>
 </defs>
 <style>.st0{fill:#988430}.st1{fill:#7a6a2a}.st2{fill:#ba9f33}.st3,.st4,.st5,.st6{clip-path:url(#SVGID_2_);fill:#e2cc85}.st4,.st5,.st6{fill:#f1d789}.st5,.st6{fill:#f4ecb4}.st6{fill:#f3e19d}.st10,.st11,.st7,.st8,.st9{clip-path:url(#SVGID_2_);fill:#f2e8b0}.st10,.st11,.st8,.st9{fill:#f5eec0}.st10,.st11,.st9{fill:#e6db9d}.st10,.st11{fill:#e5cb7a}.st11{fill:#d8c173}.st12,.st13,.st14,.st15,.st16{clip-path:url(#SVGID_2_);fill:#e0cd81}.st13,.st14,.st15,.st16{fill:#dfc57c}.st14,.st15,.st16{fill:#e5cc7c}.st15,.st16{fill:#d2c281}.st16{fill:#e2c270}.st17,.st18,.st19,.st20,.st21{clip-path:url(#SVGID_2_);fill:#ccb360}.st18,.st19,.st20,.st21{fill:#d5b457}.st19,.st20,.st21{fill:#d2b257}.st20,.st21{fill:#d2b159}.st21{fill:#c2a44d}.st22,.st23,.st24,.st25,.st26{clip-path:url(#SVGID_2_);fill:#caa13e}.st23,.st24,.st25,.st26{fill:#b59544}.st24,.st25,.st26{fill:#c89d3a}.st25,.st26{fill:#ceb052}.st26{fill:#cca847}.st27,.st28,.st29,.st30,.st31{clip-path:url(#SVGID_2_);fill:#c39d3c}.st28,.st29,.st30,.st31{fill:#d2ba6b}.st29,.st30,.st31{fill:#c0993a}.st30,.st31{fill:#a88f33}.st31{fill:#e3c571}.st32,.st33,.st34,.st35,.st36{clip-path:url(#SVGID_2_);fill:#d8b65b}.st33,.st34,.st35,.st36{fill:#d3ae4d}.st34,.st35,.st36{fill:#f4efc8}.st35,.st36{fill:#ebcc73}.st36{fill:#e5c66b}.st37,.st38,.st39,.st40,.st41{clip-path:url(#SVGID_2_);fill:#e6bd62}.st38,.st39,.st40,.st41{fill:#b6933f}.st39,.st40,.st41{fill:#c49937}.st40,.st41{fill:#dfc068}.st41{fill:#c99e3d}.st42,.st43,.st44,.st45,.st46{clip-path:url(#SVGID_2_);fill:#b58634}.st43,.st44,.st45,.st46{fill:#e6c367}.st44,.st45,.st46{fill:#dcba5a}.st45,.st46{fill:#e9ce77}.st46{fill:#cdae50}.st47,.st48,.st49,.st50,.st51{clip-path:url(#SVGID_2_);fill:#d2a83e}.st48,.st49,.st50,.st51{fill:#c29637}.st49,.st50,.st51{fill:#ac8132}.st50,.st51{fill:#a67a2e}.st51{fill:#8c6228}.st52,.st53,.st54,.st55,.st56{clip-path:url(#SVGID_2_);fill:#cba94c}.st53,.st54,.st55,.st56{fill:#be9c44}.st54,.st55,.st56{fill:#a17c34}.st55,.st56{fill:#92723a}.st56{fill:#b18e3e}.st57,.st58,.st59,.st60,.st61{clip-path:url(#SVGID_2_);fill:#543e26}.st58,.st59,.st60,.st61{fill:#806031}.st59,.st60,.st61{fill:#b6903c}.st60,.st61{fill:#685026}.st61{fill:#d4b968}.st62,.st63,.st64,.st65,.st66{clip-path:url(#SVGID_2_);fill:#cca849}.st63,.st64,.st65,.st66{fill:#585136}.st64,.st65,.st66{fill:#252211}.st65,.st66{fill:#c3b378}.st66{fill:#e6d89c}.st67,.st68,.st69,.st70,.st71{clip-path:url(#SVGID_2_);fill:#6f674d}.st68,.st69,.st70,.st71{fill:#ac924c}.st69,.st70,.st71{fill:#9f8e57}.st70,.st71{fill:#eac970}.st71{fill:#d7bc6b}.st72,.st73,.st74,.st75,.st76{clip-path:url(#SVGID_2_);fill:#453a25}.st73,.st74,.st75,.st76{fill:#84754b}.st74,.st75,.st76{fill:#f7f7e7}.st75,.st76{fill:#f8f6de}.st76{fill:#d4c38b}.st77,.st78,.st79,.st80,.st81{clip-path:url(#SVGID_2_);fill:#e2d59d}.st78,.st79,.st80,.st81{fill:#cbac5a}.st79,.st80,.st81{fill:#d6bc6f}.st80,.st81{fill:#dfc677}.st81{fill:#c4a859}.st82,.st83,.st84,.st85,.st86{clip-path:url(#SVGID_2_);fill:#927d49}.st83,.st84,.st85,.st86{fill:#6e6342}.st84,.st85,.st86{fill:#39331f}.st85,.st86{fill:#292311}.st86{fill:#3f3824}.st87,.st88,.st89,.st90,.st91{clip-path:url(#SVGID_2_);fill:#2d2815}.st88,.st89,.st90,.st91{fill:#82764f}.st89,.st90,.st91{fill:#2d2816}.st90,.st91{fill:#574f35}.st91{fill:none}.st92,.st93,.st94,.st95,.st96{clip-path:url(#SVGID_2_);fill:#cfb66c}.st93,.st94,.st95,.st96{fill:#dec270}.st94,.st95,.st96{fill:#cbaf59}.st95,.st96{fill:#e3c677}.st96{fill:#ecd592}.st97{opacity:.8;fill:#fff;enable-background:new}</style>
 <g>
  <title>background</title>
  <rect fill="none" id="canvas_background" height="402" width="582" y="-1" x="-1"/>
 </g>
 <g>
  <title>Layer 1</title>
  <path fill="url(#linearGradient4769)" d="m6.66123,48.07389c7.41351,-29.7321 37.53066,-47.82664 67.26967,-40.41226c29.72692,7.41264 47.82357,37.52802 40.40659,67.25838c-7.41003,29.73553 -37.52721,47.83182 -67.25756,40.41917c-29.73728,-7.41264 -47.83221,-37.53147 -40.4187,-67.26529z" id="path4251-6"/>
  <path fill="#ffffff" d="m113.35374,73.30517c-7.34672,29.46424 -37.19256,47.39577 -66.66366,40.04819c-29.45908,-7.34586 -47.39271,-37.18993 -40.04255,-66.65245c7.34328,-29.46767 37.18912,-47.40092 66.65163,-40.05506c29.46939,7.34586 47.4013,37.19337 40.05458,66.65932z" id="path4251"/>
  <path fill="#ffffff" id="path4985" d="m56.78573,74.6925l3.57241,-13.45166l8.45779,-3.08997l2.10376,-7.90549l-0.07183,-0.19611l-8.32549,3.04153l5.99856,-22.58693l-17.01213,0l-7.84473,29.47646l-6.54981,2.39273l-2.16422,8.15004l6.54479,-2.39073l-4.62345,17.37184l45.27602,0l2.90256,-10.81171l-28.26423,0"/>
  <path fill="#ffffff" fill-rule="nonzero" id="path5145" d="m77.89906,41.21063c-2.6675,-6.77876 -9.35687,-7.39063 -17.14625,-5.87813l-2.77406,-9.66969l-5.885,1.68782l2.70188,9.41874c-1.54688,0.44 -3.12125,0.92813 -4.68532,1.40938l-2.71562,-9.48063l-5.88156,1.68438l2.76718,9.66969c-1.265,0.39187 -2.50937,0.77687 -3.72968,1.1275l-0.01031,-0.03437l-8.11938,2.32718l1.80469,6.29063c0,0 4.32437,-1.33375 4.27281,-1.23063c2.38563,-0.68406 3.55781,0.47782 4.125,1.60875l3.1625,11.01375c0.16156,-0.04469 0.37813,-0.09969 0.6325,-0.1375l-0.62219,0.17875l4.42407,15.43438c0.11,0.78031 0.01375,2.10375 -1.65,2.585c0.09281,0.04469 -4.28313,1.22375 -4.28313,1.22375l0.84906,7.36656l7.65875,-2.2c1.42657,-0.40219 2.83594,-0.78031 4.21438,-1.16875l2.80844,9.77969l5.87812,-1.68438l-2.77406,-9.67656a225.98125,225.98125 0 0 0 4.71625,-1.30625l2.75687,9.63531l5.88844,-1.68781l-2.79813,-9.7625c9.73156,-3.40656 15.94313,-7.88563 14.13844,-17.42813c-1.45063,-7.67937 -5.92625,-10.01 -11.93156,-9.74875c2.915,-2.71562 4.16968,-6.38687 2.20687,-11.34375l0,-0.00343zm-2.23437,23.27187c2.09687,7.31156 -10.65625,10.06844 -14.64375,11.21656l-3.71594,-12.95937c3.9875,-1.14469 16.17,-5.87813 18.35625,1.74625l0.00344,-0.00344zm-7.98188,-17.49688c1.90438,6.65157 -8.75531,8.86875 -12.07937,9.82094l-3.36875,-11.75281c3.32062,-0.95219 13.45781,-5.00156 15.44812,1.93531l0,-0.00344z"/>
  <path stroke="#000000" fill="#ffffff" stroke-width="0.5" stroke-miterlimit="4" opacity="0.5" id="path6359" d="m115,59.99971c0,30.37581 -24.624,55.00033 -54.99967,55.00033c-30.376,0 -55.00033,-24.62452 -55.00033,-55.00033c0,-30.37549 24.62433,-54.99967 55.00033,-54.99967c30.37534,0 54.99967,24.62418 54.99967,54.99967"/>
  <g stroke="null" id="svg_8">
   <g stroke="null" transform="matrix(0.07638975290404748,0,0,0.056410758834282995,-3855.7609710322604,-2743.904024108758) " id="svg_5">
    <path stroke="null" id="svg_7" fill="#2c7df7" d="m51413.785707,50518.12789q-170.51,0 -248.91,-82.14a253.6,253.6 0 0 1 -78.15,-177a117.39,117.39 0 0 1 13.69,-58.5a101.21,101.21 0 0 1 37.33,-37.36a130.22,130.22 0 0 1 116.24,0a99.55,99.55 0 0 1 37.12,37.36a115,115 0 0 1 14.18,58.5a111.73,111.73 0 0 1 -19.91,68.45a92.78,92.78 0 0 1 -47.31,34.62a129.18,129.18 0 0 0 74.67,46.55a370,370 0 0 0 101.8,14.68a226.91,226.91 0 0 0 128.19,-38.33a224,224 0 0 0 83.63,-113.25a492,492 0 0 0 27.38,-169.5a465.07,465.07 0 0 0 -29.87,-176.23a217.54,217.54 0 0 0 -86.37,-109.52a229.68,229.68 0 0 0 -124.43,-35.59a236.75,236.75 0 0 0 -107.78,36.59l-79.92,40.07l0,-40.07l359.17,-481.83l-497.81,0l0,500a178.9,178.9 0 0 0 27.38,102.3a94.34,94.34 0 0 0 83.63,40.07a139.85,139.85 0 0 0 82.63,-29.12a298.38,298.38 0 0 0 69.2,-71.19a24.86,24.86 0 0 1 9,-11.94a18.4,18.4 0 0 1 12,-4.48a41.55,41.55 0 0 1 23.4,9.95a49.82,49.82 0 0 1 12.69,33.85a197.86,197.86 0 0 1 -4.48,24.89a241,241 0 0 1 -85.38,106a211.78,211.78 0 0 1 -119.76,36.38q-161.67,0 -224,-63.72a238.67,238.67 0 0 1 -61.73,-174.24l0,-498.75l-253.2,0l0,-92.9l254.38,0l0,-211.82l-58.24,-58.28l0,-47.5l169,0l63.48,32.86l0,284.74l657.6,-2l65.47,65.71l-403.23,405.19a271,271 0 0 1 76.16,-18.42a330.1,330.1 0 0 1 147.38,42.07a302.7,302.7 0 0 1 126.95,113.29a399.78,399.78 0 0 1 57.25,136.65a575.65,575.65 0 0 1 13.69,117a489.39,489.39 0 0 1 -49.78,216.79a317.92,317.92 0 0 1 -149.35,149.35a483.27,483.27 0 0 1 -215.08,49.77z"/>
   </g>
  </g>
 </g>
</svg>